<svg width="17" height="16" viewBox="0 0 17 16" fill="none" xmlns="http://www.w3.org/2000/svg">
<path d="M16.3583 0.604268C15.9303 0.201362 15.4174 0 14.8199 0H2.18044C1.58276 0 1.07004 0.201435 0.641957 0.604268C0.213947 1.00699 0 1.48962 0 2.05204V13.9479C0 14.5103 0.213908 14.993 0.641957 15.3958C1.07004 15.7986 1.58287 16.0001 2.18044 16.0001H14.8198C15.4172 16.0001 15.9302 15.7986 16.3582 15.3958C16.7862 14.993 17 14.5103 17 13.9479V2.05204C17 1.48951 16.7862 1.00714 16.3583 0.604268ZM6.10406 5.76557C6.77176 5.15802 7.5742 4.8541 8.51128 4.8541C9.45561 4.8541 10.2617 5.15802 10.9295 5.76557C11.5974 6.37323 11.9311 7.10768 11.9311 7.96877C11.9311 8.82975 11.5974 9.56423 10.9295 10.1717C10.2617 10.7795 9.45588 11.0834 8.51128 11.0834C7.57424 11.0834 6.77187 10.7793 6.10406 10.1717C5.43621 9.56416 5.10232 8.82975 5.10232 7.96877C5.10232 7.10768 5.43621 6.37327 6.10406 5.76557ZM15.0745 13.521C15.0745 13.7014 15.0079 13.8524 14.8752 13.974C14.7421 14.0955 14.5837 14.1563 14.3991 14.1563H2.56787C2.37606 14.1563 2.21545 14.0955 2.08644 13.974C1.95723 13.8527 1.89269 13.7014 1.89269 13.521V6.77074H3.45319C3.30569 7.20831 3.23192 7.66324 3.23192 8.13536C3.23192 9.469 3.74835 10.606 4.78134 11.5471C5.81444 12.4879 7.05769 12.9586 8.51124 12.9586C9.47046 12.9586 10.3558 12.7432 11.1677 12.3127C11.9794 11.8819 12.6209 11.2969 13.0934 10.5573C13.5657 9.81766 13.8018 9.01031 13.8018 8.1354C13.8018 7.66328 13.7278 7.20845 13.5803 6.77078H15.0746V13.521H15.0745V13.521ZM15.0745 4.21864C15.0745 4.42004 15.0007 4.5902 14.8529 4.72906C14.7054 4.86804 14.5247 4.93743 14.3106 4.93743H12.3849C12.1711 4.93743 11.9901 4.868 11.8426 4.72906C11.6951 4.5902 11.6213 4.42004 11.6213 4.21864V2.50004C11.6213 2.30557 11.6951 2.13719 11.8426 1.99479C11.9901 1.85246 12.1711 1.78121 12.3849 1.78121H14.3106C14.5247 1.78121 14.7055 1.85243 14.8529 1.99479C15.0007 2.13719 15.0745 2.30557 15.0745 2.50004V4.21864Z" fill="#444444"/>
</svg>
