<svg width="16" height="16" viewBox="0 0 16 16" fill="none" xmlns="http://www.w3.org/2000/svg">
<path d="M8.00003 0C3.58891 0 5.16254e-05 3.58887 5.16254e-05 8C5.16254e-05 9.37739 0.355877 10.7318 1.03066 11.927L0.0129211 15.5583C-0.0204701 15.6776 0.0118777 15.8056 0.0981383 15.8943C0.164573 15.9628 0.255007 16 0.347877 16C0.375703 16 0.403876 15.9965 0.431355 15.9899L4.22126 15.0511C5.37847 15.6723 6.68177 16 8.00003 16C12.4111 16 16 12.4111 16 8C16 3.58887 12.4111 0 8.00003 0ZM12.0244 10.823C11.8532 11.2967 11.0324 11.729 10.6379 11.7871C10.2838 11.839 9.83585 11.8612 9.34402 11.7068C9.04594 11.6129 8.66333 11.4883 8.17324 11.2793C6.11308 10.4007 4.76769 8.35235 4.66473 8.21704C4.56212 8.08174 3.82613 7.11757 3.82613 6.11965C3.82613 5.12174 4.35656 4.63096 4.54508 4.42783C4.7336 4.2247 4.95586 4.17391 5.09291 4.17391C5.22995 4.17391 5.36664 4.17565 5.48664 4.18122C5.6129 4.18748 5.78229 4.13357 5.9489 4.52939C6.12003 4.93565 6.53081 5.93357 6.5816 6.03548C6.63307 6.13704 6.66716 6.25565 6.59899 6.39096C6.53081 6.52626 6.49673 6.61078 6.39377 6.72939C6.29081 6.848 6.17812 6.99374 6.0856 7.08487C5.98264 7.18609 5.87586 7.29565 5.99551 7.49878C6.11516 7.70191 6.52733 8.36591 7.13812 8.90365C7.92246 9.59443 8.58437 9.8087 8.78959 9.91026C8.99481 10.0118 9.11481 9.99478 9.23446 9.85948C9.35411 9.72383 9.74785 9.26713 9.88454 9.06435C10.0212 8.86157 10.1583 8.89496 10.3468 8.96278C10.5353 9.03026 11.5451 9.5207 11.7503 9.62226C11.9555 9.72383 12.0925 9.77461 12.144 9.85913C12.1955 9.9433 12.1955 10.3496 12.0244 10.823Z" fill="white"/>
</svg>
