<svg width="406" height="598" viewBox="0 0 406 598" fill="none" xmlns="http://www.w3.org/2000/svg">
<g id="CAMMON 1-2">
<path id="BACK" d="M377 85.1684C377 85.1684 307 36 204 36C101 36 29 85.1684 29 85.1684V504.799C29 513.001 39.3162 525.125 54.4466 529.404C101.901 542.825 203 579.36 203 598C203 579.36 305.474 542.035 353.617 529.404C369.435 525.254 377 511.509 377 504.799V85.1684Z" fill="url(#paint0_linear_1_200)"/>
<path id="icon bar" d="M29 504.799C29 513.001 39.3162 525.125 54.4466 529.404C69.053 533.535 88.7416 539.856 109 547.17V49.8533C59.4198 64.3949 29 85.1684 29 85.1684V504.799Z" fill="url(#paint1_linear_1_200)"/>
<circle id="Ellipse 2" cx="236.5" cy="207.5" r="91.5" fill="url(#paint2_linear_1_200)"/>
<circle id="Ellipse 3" cx="236.5" cy="207.5" r="89" stroke="white" stroke-width="5"/>
<g id="STROKE">
<mask id="path-5-inside-1_1_200" fill="white">
<path d="M377 85.1684C377 85.1684 307 36 204 36C101 36 29 85.1684 29 85.1684V504.799C29 513.001 39.3162 525.125 54.4466 529.404C101.901 542.825 203 579.36 203 598C203 579.36 305.474 542.035 353.617 529.404C369.435 525.254 377 511.509 377 504.799V85.1684Z"/>
</mask>
<path d="M377 85.1684C377 85.1684 307 36 204 36C101 36 29 85.1684 29 85.1684V504.799C29 513.001 39.3162 525.125 54.4466 529.404C101.901 542.825 203 579.36 203 598C203 579.36 305.474 542.035 353.617 529.404C369.435 525.254 377 511.509 377 504.799V85.1684Z" stroke="#251F20" stroke-width="10" mask="url(#path-5-inside-1_1_200)"/>
</g>
<g id="&#208;&#157;&#208;&#152;&#208;&#154;">
<rect id="Rectangle 3" x="30.5" y="320.5" width="345" height="67" fill="url(#paint3_linear_1_200)" stroke="#302728" stroke-width="3"/>
</g>
</g>
<defs>
<linearGradient id="paint0_linear_1_200" x1="203" y1="36" x2="203" y2="598" gradientUnits="userSpaceOnUse">
<stop stop-color="#655658"/>
<stop offset="0.515625" stop-color="#B49DA0"/>
<stop offset="1" stop-color="#403436"/>
</linearGradient>
<linearGradient id="paint1_linear_1_200" x1="69" y1="49.8533" x2="69" y2="547.17" gradientUnits="userSpaceOnUse">
<stop stop-color="#403638"/>
<stop offset="1"/>
</linearGradient>
<linearGradient id="paint2_linear_1_200" x1="236.5" y1="116" x2="236.5" y2="299" gradientUnits="userSpaceOnUse">
<stop stop-color="#0B090A"/>
<stop offset="1" stop-color="#78595C"/>
</linearGradient>
<linearGradient id="paint3_linear_1_200" x1="203" y1="319" x2="203" y2="389" gradientUnits="userSpaceOnUse">
<stop stop-color="#816C6F"/>
<stop offset="1" stop-color="#534346"/>
</linearGradient>
</defs>
</svg>
