<svg width="406" height="599" viewBox="0 0 406 599" fill="none" xmlns="http://www.w3.org/2000/svg">
<g id="CAMMON 4-1">
<path id="BACK" d="M377 86.304C342 112.998 304 81.855 321 62.576C291.882 45.4536 261.533 34.9916 231 31.0653C222.029 29.9118 204.067 45.8428 204.067 45.8428C204.067 45.8428 185.182 29.8557 175.789 31.0653C144.681 35.0711 114.042 45.8536 85 63.2785C102 83.3381 63 113.987 29 87.2926V115.5V507.215C29 519.89 46.4822 526.645 61 532C98.1485 545.703 173.975 562.096 206 592.5C235.036 562.695 318.121 539.602 351 528C369.446 521.491 377 520.918 377 507.215V119.5V86.304Z" fill="url(#paint0_linear_1_312)"/>
<path id="icon bar" d="M29 507.709C29 520.386 44.2966 527.144 61 532.5C77.1129 537.667 96.0683 545.876 121 553V52.5C111.692 56.2468 102.494 63.985 93.4305 68.712C112.99 88.7743 68.1185 119.427 29 92.7294V507.709Z" fill="url(#paint1_linear_1_312)"/>
<path id="icon bar_2" d="M30.9632 503.082C30.9632 515.733 40.2641 521.192 54.5215 526.537C68.2748 531.693 87.7192 538.891 109 546L107.528 56C99.5829 59.7392 91.7315 63.9688 83.9953 68.6862C91.8221 88.3701 68.7546 111.826 29 92.6547L30.9632 503.082Z" fill="url(#paint2_linear_1_312)"/>
<circle id="Ellipse 4" cx="236.5" cy="207.5" r="86.5" fill="url(#paint3_linear_1_312)"/>
<circle id="Ellipse 2" cx="236.5" cy="207.5" r="90.5" stroke="white" stroke-width="8"/>
<circle id="Ellipse 3" cx="236.5" cy="207.5" r="90.5" stroke="#12164F" stroke-width="4"/>
<path id="Vector 2" d="M380 387L393 389L382 403L380 387Z" fill="#020422"/>
<path id="Vector 1" d="M26 387L13 389L24 403L26 387Z" fill="#020422"/>
<path id="STROKE" d="M377.001 86.304C342.001 112.998 304.001 81.855 321.001 62.576C291.884 45.4536 261.533 34.9916 231 31.0653C222.029 29.9118 204.067 45.8428 204.067 45.8428C204.067 45.8428 185.182 29.8557 175.789 31.0653C144.681 35.0711 114.042 45.8536 85 63.2785C102 83.3381 63 113.987 29 87.2926V120.5V482L29.0013 500.215C29.0013 512.89 38.3952 521.838 52.913 527.193C90.0615 540.897 172.044 560.596 204.069 591C233.104 561.195 321.065 538.795 353.944 527.193C372.39 520.684 377.001 513.918 377.001 500.215L377.001 482V130.5V86.304Z" stroke="white" stroke-width="10"/>
<path id="STROKE_2" d="M377 86.304C342.007 112.998 304.014 81.855 321.011 62.576C291.899 45.4536 261.555 34.9916 231.028 31.0653C222.059 29.9118 204.101 45.8428 204.101 45.8428C204.101 45.8428 185.219 29.8557 175.828 31.0653C144.725 35.0711 114.093 45.8536 85.0565 63.2785C102.053 83.3381 63.0608 113.987 29.0674 87.2926V112V481L29 500.215C29 512.89 38.392 521.838 52.907 527.193C90.0482 540.897 172.015 560.596 204.033 591C233.063 561.195 321.007 538.795 353.879 527.193C372.322 520.684 376.932 513.918 376.932 500.215L377 481V121V86.304Z" stroke="#060833" stroke-width="4"/>
<g id="&#208;&#157;&#208;&#152;&#208;&#154;">
<rect id="Rectangle 5" x="24" y="358" width="358" height="54" fill="url(#paint4_linear_1_312)"/>
<g id="Rectangle 4">
<mask id="path-12-inside-1_1_312" fill="white">
<path d="M4 319H402L393 389H13.0001L4 319Z"/>
</mask>
<path d="M4 319H402L393 389H13.0001L4 319Z" fill="url(#paint5_linear_1_312)" stroke="#020429" stroke-width="6" mask="url(#path-12-inside-1_1_312)"/>
</g>
</g>
<g id="Polygon 30">
<mask id="path-13-inside-2_1_312" fill="white">
<path d="M47 339.5L18 352L18 339.5L18 327L47 339.5Z"/>
</mask>
<path d="M47 339.5L18 352L18 339.5L18 327L47 339.5Z" stroke="url(#paint6_linear_1_312)" stroke-width="4" mask="url(#path-13-inside-2_1_312)"/>
</g>
<g id="Polygon 31">
<mask id="path-14-inside-3_1_312" fill="white">
<path d="M47 364.5L18 377C18 377 18 369.464 18 364.5C18 359.536 18 352 18 352L47 364.5Z"/>
</mask>
<path d="M47 364.5L18 377C18 377 18 369.464 18 364.5C18 359.536 18 352 18 352L47 364.5Z" stroke="url(#paint7_linear_1_312)" stroke-width="4" mask="url(#path-14-inside-3_1_312)"/>
</g>
<g id="Polygon 29">
<mask id="path-15-inside-4_1_312" fill="white">
<path d="M56 352.5L18 365C18 365 18 357.464 18 352.5C18 347.536 18 340 18 340L56 352.5Z"/>
</mask>
<path d="M56 352.5L18 365C18 365 18 357.464 18 352.5C18 347.536 18 340 18 340L56 352.5Z" stroke="url(#paint8_linear_1_312)" stroke-width="4" mask="url(#path-15-inside-4_1_312)"/>
</g>
<g id="Polygon 32">
<mask id="path-16-inside-5_1_312" fill="white">
<path d="M359 339.5L387 352L387 339.5L387 327L359 339.5Z"/>
</mask>
<path d="M359 339.5L387 352L387 339.5L387 327L359 339.5Z" stroke="url(#paint9_linear_1_312)" stroke-width="4" mask="url(#path-16-inside-5_1_312)"/>
</g>
<g id="Polygon 33">
<mask id="path-17-inside-6_1_312" fill="white">
<path d="M359 364.5L387 377C387 377 387 369.464 387 364.5C387 359.536 387 352 387 352L359 364.5Z"/>
</mask>
<path d="M359 364.5L387 377C387 377 387 369.464 387 364.5C387 359.536 387 352 387 352L359 364.5Z" stroke="url(#paint10_linear_1_312)" stroke-width="4" mask="url(#path-17-inside-6_1_312)"/>
</g>
<g id="Polygon 34">
<mask id="path-18-inside-7_1_312" fill="white">
<path d="M349 352.5L387 365C387 365 387 357.464 387 352.5C387 347.536 387 340 387 340L349 352.5Z"/>
</mask>
<path d="M349 352.5L387 365C387 365 387 357.464 387 352.5C387 347.536 387 340 387 340L349 352.5Z" stroke="url(#paint11_linear_1_312)" stroke-width="4" mask="url(#path-18-inside-7_1_312)"/>
</g>
</g>
<defs>
<linearGradient id="paint0_linear_1_312" x1="203" y1="36" x2="203" y2="598" gradientUnits="userSpaceOnUse">
<stop stop-color="#051745"/>
<stop offset="0.354167" stop-color="#ED251A"/>
<stop offset="0.479167" stop-color="#E37524"/>
<stop offset="0.598958" stop-color="#E6251B"/>
<stop offset="0.927083" stop-color="#000C29"/>
</linearGradient>
<linearGradient id="paint1_linear_1_312" x1="148.5" y1="243" x2="64" y2="243" gradientUnits="userSpaceOnUse">
<stop offset="0.364583" stop-color="#1D2053" stop-opacity="0"/>
<stop offset="0.723958"/>
</linearGradient>
<linearGradient id="paint2_linear_1_312" x1="68.2638" y1="56" x2="68.2638" y2="551.989" gradientUnits="userSpaceOnUse">
<stop offset="0.114583" stop-color="#C9111A"/>
<stop offset="0.776042"/>
</linearGradient>
<linearGradient id="paint3_linear_1_312" x1="233.155" y1="100.45" x2="236.978" y2="307.381" gradientUnits="userSpaceOnUse">
<stop/>
<stop offset="1" stop-color="#C9111A" stop-opacity="0"/>
</linearGradient>
<linearGradient id="paint4_linear_1_312" x1="203" y1="358" x2="203" y2="412" gradientUnits="userSpaceOnUse">
<stop offset="0.640625" stop-opacity="0.81"/>
<stop offset="1" stop-opacity="0"/>
</linearGradient>
<linearGradient id="paint5_linear_1_312" x1="202.503" y1="319" x2="202.503" y2="389" gradientUnits="userSpaceOnUse">
<stop offset="0.119792" stop-color="#5E2344"/>
<stop offset="0.885417" stop-color="#16113F"/>
</linearGradient>
<linearGradient id="paint6_linear_1_312" x1="47" y1="339.5" x2="18" y2="339.5" gradientUnits="userSpaceOnUse">
<stop offset="0.432292" stop-color="white"/>
<stop offset="0.921875" stop-color="white" stop-opacity="0"/>
</linearGradient>
<linearGradient id="paint7_linear_1_312" x1="47" y1="364.5" x2="18" y2="364.5" gradientUnits="userSpaceOnUse">
<stop offset="0.432292" stop-color="white"/>
<stop offset="0.921875" stop-color="white" stop-opacity="0"/>
</linearGradient>
<linearGradient id="paint8_linear_1_312" x1="56" y1="352.5" x2="18" y2="352.5" gradientUnits="userSpaceOnUse">
<stop offset="0.432292" stop-color="white"/>
<stop offset="0.921875" stop-color="white" stop-opacity="0"/>
</linearGradient>
<linearGradient id="paint9_linear_1_312" x1="359" y1="339.5" x2="387" y2="339.5" gradientUnits="userSpaceOnUse">
<stop offset="0.432292" stop-color="white"/>
<stop offset="0.921875" stop-color="white" stop-opacity="0"/>
</linearGradient>
<linearGradient id="paint10_linear_1_312" x1="359" y1="364.5" x2="387" y2="364.5" gradientUnits="userSpaceOnUse">
<stop offset="0.432292" stop-color="white"/>
<stop offset="0.921875" stop-color="white" stop-opacity="0"/>
</linearGradient>
<linearGradient id="paint11_linear_1_312" x1="349" y1="352.5" x2="387" y2="352.5" gradientUnits="userSpaceOnUse">
<stop offset="0.432292" stop-color="white"/>
<stop offset="0.921875" stop-color="white" stop-opacity="0"/>
</linearGradient>
</defs>
</svg>
