<svg width="406" height="599" viewBox="0 0 406 599" fill="none" xmlns="http://www.w3.org/2000/svg">
<g id="CAMMON 3-3">
<path id="BACK" d="M333.02 61.2115C224.051 13.7399 115.11 41.4317 74.2614 61.2115C69.5644 90.6647 52.0577 104.525 29 104.525V498.175C29 510.996 38.3939 520.046 52.9117 525.463C90.0601 539.323 172.043 559.247 204.067 590C233.103 559.854 321.064 537.198 353.942 525.463C372.388 518.879 377 512.036 377 498.175V104.525C344.548 104.525 333.02 75.5049 333.02 61.2115Z" fill="url(#paint0_linear_1_294)"/>
<path id="ICON BAR" d="M29 499.084C29 511.93 38.3939 520.999 52.9117 526.426C66.9244 531.665 87.3164 537.768 109 544.992V48.2906C94.7667 52.429 82.9675 57.0132 74.2614 61.2373C69.5644 90.749 52.0577 104.637 29 104.637V499.084Z" fill="url(#paint1_linear_1_294)"/>
<circle id="Ellipse 2" cx="236.5" cy="207.5" r="91.5" fill="url(#paint2_linear_1_294)"/>
<circle id="Ellipse 3" cx="236.5" cy="207.5" r="89" stroke="white" stroke-width="5"/>
<path id="Vector 2" d="M380 387L393 389L382 403L380 387Z" fill="#160425"/>
<path id="Vector 1" d="M26 387L13 389L24 403L26 387Z" fill="#160425"/>
<path id="STROKE bold" d="M333.02 62.2115C224.051 14.7399 115.11 42.4317 74.2614 62.2115C69.5644 91.6647 52.0577 105.525 29 105.525V499.175C29 511.996 38.3939 521.046 52.9117 526.463C90.0601 540.323 172.043 560.247 204.067 591C233.103 560.854 321.064 538.198 353.942 526.463C372.388 519.879 377 513.036 377 499.175V105.525C344.548 105.525 333.02 76.5049 333.02 62.2115Z" stroke="white" stroke-width="10"/>
<path id="STROKE light" d="M333.02 62.2115C224.051 14.7399 115.11 42.4317 74.2614 62.2115C69.5644 91.6647 52.0577 105.525 29 105.525V499.175C29 511.996 38.3939 521.046 52.9117 526.463C90.0601 540.323 172.043 560.247 204.067 591C233.103 560.854 321.064 538.198 353.942 526.463C372.388 519.879 377 513.036 377 499.175V105.525C344.548 105.525 333.02 76.5049 333.02 62.2115Z" stroke="#200A32" stroke-width="4"/>
<g id="&#208;&#157;&#208;&#152;&#208;&#154;">
<rect id="Rectangle 5" x="24" y="358" width="358" height="54" fill="url(#paint3_linear_1_294)"/>
<rect id="Rectangle 3" x="14.5" y="320.5" width="377" height="67" fill="url(#paint4_linear_1_294)" stroke="#200A32" stroke-width="3"/>
</g>
<g id="Polygon 30">
<mask id="path-11-inside-1_1_294" fill="white">
<path d="M57 341.5L28 354L28 341.5L28 329L57 341.5Z"/>
</mask>
<path d="M57 341.5L28 354L28 341.5L28 329L57 341.5Z" stroke="url(#paint5_linear_1_294)" stroke-width="4" mask="url(#path-11-inside-1_1_294)"/>
</g>
<g id="Polygon 31">
<mask id="path-12-inside-2_1_294" fill="white">
<path d="M57 366.5L28 379C28 379 28 371.464 28 366.5C28 361.536 28 354 28 354L57 366.5Z"/>
</mask>
<path d="M57 366.5L28 379C28 379 28 371.464 28 366.5C28 361.536 28 354 28 354L57 366.5Z" stroke="url(#paint6_linear_1_294)" stroke-width="4" mask="url(#path-12-inside-2_1_294)"/>
</g>
<g id="Polygon 29">
<mask id="path-13-inside-3_1_294" fill="white">
<path d="M66 354.5L28 367C28 367 28 359.464 28 354.5C28 349.536 28 342 28 342L66 354.5Z"/>
</mask>
<path d="M66 354.5L28 367C28 367 28 359.464 28 354.5C28 349.536 28 342 28 342L66 354.5Z" stroke="url(#paint7_linear_1_294)" stroke-width="4" mask="url(#path-13-inside-3_1_294)"/>
</g>
<g id="Polygon 32">
<mask id="path-14-inside-4_1_294" fill="white">
<path d="M350 341.5L378 354L378 341.5L378 329L350 341.5Z"/>
</mask>
<path d="M350 341.5L378 354L378 341.5L378 329L350 341.5Z" stroke="url(#paint8_linear_1_294)" stroke-width="4" mask="url(#path-14-inside-4_1_294)"/>
</g>
<g id="Polygon 33">
<mask id="path-15-inside-5_1_294" fill="white">
<path d="M350 366.5L378 379C378 379 378 371.464 378 366.5C378 361.536 378 354 378 354L350 366.5Z"/>
</mask>
<path d="M350 366.5L378 379C378 379 378 371.464 378 366.5C378 361.536 378 354 378 354L350 366.5Z" stroke="url(#paint9_linear_1_294)" stroke-width="4" mask="url(#path-15-inside-5_1_294)"/>
</g>
<g id="Polygon 34">
<mask id="path-16-inside-6_1_294" fill="white">
<path d="M340 354.5L378 367C378 367 378 359.464 378 354.5C378 349.536 378 342 378 342L340 354.5Z"/>
</mask>
<path d="M340 354.5L378 367C378 367 378 359.464 378 354.5C378 349.536 378 342 378 342L340 354.5Z" stroke="url(#paint10_linear_1_294)" stroke-width="4" mask="url(#path-16-inside-6_1_294)"/>
</g>
</g>
<defs>
<linearGradient id="paint0_linear_1_294" x1="203" y1="35" x2="203" y2="597" gradientUnits="userSpaceOnUse">
<stop stop-color="#57158B"/>
<stop offset="0.479167" stop-color="#C49CE3"/>
<stop offset="1" stop-color="#57158B"/>
</linearGradient>
<linearGradient id="paint1_linear_1_294" x1="69" y1="48.2906" x2="69" y2="551.992" gradientUnits="userSpaceOnUse">
<stop stop-color="#501A7A"/>
<stop offset="1" stop-color="#060606"/>
</linearGradient>
<linearGradient id="paint2_linear_1_294" x1="236.5" y1="116" x2="236.5" y2="299" gradientUnits="userSpaceOnUse">
<stop/>
<stop offset="1" stop-color="#511B7D"/>
</linearGradient>
<linearGradient id="paint3_linear_1_294" x1="203" y1="358" x2="203" y2="412" gradientUnits="userSpaceOnUse">
<stop offset="0.640625" stop-opacity="0.81"/>
<stop offset="1" stop-opacity="0"/>
</linearGradient>
<linearGradient id="paint4_linear_1_294" x1="203" y1="319" x2="203" y2="389" gradientUnits="userSpaceOnUse">
<stop stop-color="#8656AC"/>
<stop offset="1" stop-color="#34174B"/>
</linearGradient>
<linearGradient id="paint5_linear_1_294" x1="57" y1="341.5" x2="28" y2="341.5" gradientUnits="userSpaceOnUse">
<stop offset="0.432292" stop-color="white"/>
<stop offset="0.921875" stop-color="white" stop-opacity="0"/>
</linearGradient>
<linearGradient id="paint6_linear_1_294" x1="57" y1="366.5" x2="28" y2="366.5" gradientUnits="userSpaceOnUse">
<stop offset="0.432292" stop-color="white"/>
<stop offset="0.921875" stop-color="white" stop-opacity="0"/>
</linearGradient>
<linearGradient id="paint7_linear_1_294" x1="66" y1="354.5" x2="28" y2="354.5" gradientUnits="userSpaceOnUse">
<stop offset="0.432292" stop-color="white"/>
<stop offset="0.921875" stop-color="white" stop-opacity="0"/>
</linearGradient>
<linearGradient id="paint8_linear_1_294" x1="350" y1="341.5" x2="378" y2="341.5" gradientUnits="userSpaceOnUse">
<stop offset="0.432292" stop-color="white"/>
<stop offset="0.921875" stop-color="white" stop-opacity="0"/>
</linearGradient>
<linearGradient id="paint9_linear_1_294" x1="350" y1="366.5" x2="378" y2="366.5" gradientUnits="userSpaceOnUse">
<stop offset="0.432292" stop-color="white"/>
<stop offset="0.921875" stop-color="white" stop-opacity="0"/>
</linearGradient>
<linearGradient id="paint10_linear_1_294" x1="340" y1="354.5" x2="378" y2="354.5" gradientUnits="userSpaceOnUse">
<stop offset="0.432292" stop-color="white"/>
<stop offset="0.921875" stop-color="white" stop-opacity="0"/>
</linearGradient>
</defs>
</svg>
