<svg width="406" height="598" viewBox="0 0 406 598" fill="none" xmlns="http://www.w3.org/2000/svg">
<g id="COMMON 2-3">
<path id="BACK" d="M377 112C337 112 306 33.5 203 33.5C100 33.5 69 112.139 29 112V509.857C29 517.614 39.3162 529.08 54.4466 533.127C101.901 545.819 203 580.371 203 598C203 580.371 305.474 545.072 353.617 533.127C369.435 529.202 377 516.203 377 509.857V112Z" fill="url(#paint0_linear_1_245)"/>
<path id="Icon bar" d="M29 509.857C29 517.614 39.3162 529.08 54.4466 533.127C69.053 537.033 88.7416 543.011 109 549.929V63.0023C73.8484 85.2285 53.0511 113.084 29 113V509.857Z" fill="url(#paint1_linear_1_245)"/>
<circle id="Ellipse 2" cx="236.5" cy="207.5" r="91.5" fill="url(#paint2_linear_1_245)"/>
<circle id="Ellipse 3" cx="236.5" cy="207.5" r="89" stroke="white" stroke-width="5"/>
<path id="Vector 2" d="M375 387L388 389L377 403L375 387Z" fill="#061326"/>
<path id="Vector 1" d="M31 387L18 389L29 403L31 387Z" fill="#061326"/>
<g id="BACK STROKE">
<mask id="path-7-inside-1_1_245" fill="white">
<path d="M377 108C337 108 306 31 203 31C100 31 69 108.139 29 108V137.5V509.857C29 517.614 39.3162 529.08 54.4466 533.127C101.901 545.819 203 580.371 203 598C203 580.371 305.474 545.072 353.617 533.127C369.435 529.202 377 516.203 377 509.857V137.5V108Z"/>
</mask>
<path d="M377 108C337 108 306 31 203 31C100 31 69 108.139 29 108V137.5V509.857C29 517.614 39.3162 529.08 54.4466 533.127C101.901 545.819 203 580.371 203 598C203 580.371 305.474 545.072 353.617 533.127C369.435 529.202 377 516.203 377 509.857V137.5V108Z" stroke="#071E41" stroke-width="10" mask="url(#path-7-inside-1_1_245)"/>
</g>
<g id="&#208;&#157;&#208;&#152;&#208;&#154;">
<rect id="Rectangle 5" x="29" y="358" width="348" height="54" fill="url(#paint3_linear_1_245)"/>
<rect id="Rectangle 3" x="19.5" y="320.5" width="367" height="67" fill="url(#paint4_linear_1_245)" stroke="#071E41" stroke-width="3"/>
</g>
</g>
<defs>
<linearGradient id="paint0_linear_1_245" x1="203" y1="36" x2="203" y2="598" gradientUnits="userSpaceOnUse">
<stop stop-color="#273D8D"/>
<stop offset="0.484375" stop-color="#90A1DF"/>
<stop offset="1" stop-color="#273D8D"/>
</linearGradient>
<linearGradient id="paint1_linear_1_245" x1="69" y1="63.0023" x2="69" y2="549.929" gradientUnits="userSpaceOnUse">
<stop stop-color="#233579"/>
<stop offset="0.65625"/>
</linearGradient>
<linearGradient id="paint2_linear_1_245" x1="236.5" y1="116" x2="236.5" y2="299" gradientUnits="userSpaceOnUse">
<stop/>
<stop offset="1" stop-color="#1F2F6A"/>
</linearGradient>
<linearGradient id="paint3_linear_1_245" x1="203" y1="358" x2="203" y2="412" gradientUnits="userSpaceOnUse">
<stop offset="0.640625" stop-opacity="0.81"/>
<stop offset="1" stop-opacity="0"/>
</linearGradient>
<linearGradient id="paint4_linear_1_245" x1="203" y1="319" x2="203" y2="389" gradientUnits="userSpaceOnUse">
<stop offset="0.161458" stop-color="#596CAD"/>
<stop offset="1" stop-color="#192657"/>
</linearGradient>
</defs>
</svg>
