<svg width="406" height="599" viewBox="0 0 406 599" fill="none" xmlns="http://www.w3.org/2000/svg">
<g id="VIP 3-2">
<g id="LEVEL 2 CARD 51">
<path id="BACK" d="M30 493.5C30 493.5 19.6522 170.985 7.99998 84.2168C36.072 87.5194 70.1594 79.9264 81.1877 73.3514C147.859 100.515 199.116 49.502 203 23V586C152.37 546.983 102.666 533.933 60.6349 521.301C37.77 514.43 30 505.525 30 493.5Z" fill="url(#paint0_linear_1_559)" stroke="white" stroke-width="3"/>
<path id="BACK_2" d="M376 493.5C376 493.5 386.348 170.985 398 84.2168C369.928 87.5194 335.841 79.9264 324.812 73.3514C258.141 100.515 206.884 49.502 203 23V586C253.63 546.983 303.334 533.933 345.365 521.302C368.23 514.43 376 505.525 376 493.5Z" fill="url(#paint1_linear_1_559)" stroke="white" stroke-width="3"/>
<path id="back" d="M377.002 504.932L378 102C355.485 102 340 91.5 337.5 70.5C291.5 94.5 230.5 77.5 203 29.5C183 81 99.5 93.5 74.5 72C71 90.5 51.5324 101.078 29.002 101V504.932C29.002 512.682 39.3182 524.138 54.4486 528.181C101.903 540.863 189.502 569.997 203.002 592.997C219.002 569.997 305.476 540.116 353.619 528.181C369.437 524.26 377.002 511.273 377.002 504.932Z" fill="url(#paint2_linear_1_559)"/>
<g id="&#195;&#144;&#194;&#159;&#195;&#144;&#194;&#154;&#195;&#144;&#194;&#164;&#195;&#144;&#194;&#162;&#195;&#144;&#194;&#146; &#195;&#144;&#194;&#134;&#195;&#144;&#194;&#149;&#195;&#144;&#194;&#164;&#195;&#144;&#194;&#154;">
<path id="Vector 46" d="M202.321 150.79L221.596 156.011L235.64 141.997L249.408 156.011L268.959 150.79L274.19 170.026L293.19 175.247L288.234 194.208L302.002 208.497L287.959 222.511L293.19 241.747L274.19 246.968L268.959 265.929L249.683 260.983L235.64 274.997L221.596 260.983L202.321 265.929L197.089 246.968L177.814 241.747L183.045 222.511L169.002 208.497L183.045 194.483L177.814 175.247L197.089 170.026L202.321 150.79Z" stroke="url(#paint3_linear_1_559)" stroke-width="3"/>
<path id="Vector 47" d="M194.836 137.774L218.46 144.173L235.671 126.997L252.544 144.173L276.505 137.774L282.917 161.348L306.203 167.747L300.128 190.985L317.002 208.497L299.791 225.673L306.203 249.247L282.917 255.646L276.505 278.883L252.882 272.821L235.671 289.997L218.46 272.821L194.836 278.883L188.424 255.646L164.801 249.247L171.213 225.673L154.002 208.497L171.213 191.321L164.801 167.747L188.424 161.348L194.836 137.774Z" stroke="url(#paint4_linear_1_559)" stroke-width="3"/>
<path id="Vector 48" d="M187.101 124.691L214.927 132.228L235.201 111.997L255.077 132.228L283.3 124.691L290.853 152.46L318.282 159.997L311.126 187.369L331.002 207.997L310.729 228.228L318.282 255.997L290.853 263.534L283.3 290.906L255.474 283.766L235.201 303.997L214.927 283.766L187.101 290.906L179.549 263.534L151.722 255.997L159.275 228.228L139.002 207.997L159.275 187.766L151.722 159.997L179.549 152.46L187.101 124.691Z" stroke="url(#paint5_linear_1_559)" stroke-width="3"/>
<path id="Vector 49" d="M180.366 112.608L212.395 121.284L235.731 97.9966L258.609 121.284L291.095 112.608L299.789 144.571L331.36 153.247L323.124 184.753L346.002 208.497L322.667 231.784L331.36 263.747L299.789 272.423L291.095 303.929L259.066 295.71L235.731 318.997L212.395 295.71L180.366 303.929L171.673 272.423L139.644 263.747L148.337 231.784L125.002 208.497L148.337 185.21L139.644 153.247L171.673 144.571L180.366 112.608Z" stroke="url(#paint6_linear_1_559)" stroke-width="3"/>
<path id="Vector 50" d="M173.631 100.525L209.863 110.34L236.261 83.9966L262.141 110.34L298.89 100.525L308.725 136.683L344.439 146.497L335.122 182.137L361.002 208.997L334.604 235.34L344.439 271.497L308.725 281.311L298.89 316.952L262.658 307.654L236.261 333.997L209.863 307.654L173.631 316.952L163.797 281.311L127.565 271.497L137.4 235.34L111.002 208.997L137.4 182.654L127.565 146.497L163.797 136.683L173.631 100.525Z" stroke="url(#paint7_linear_1_559)" stroke-width="3"/>
<path id="Vector 51" d="M166.395 88.3106L206.54 99.1846L235.789 69.9966L264.464 99.1846L305.182 88.3106L316.079 128.373L355.65 139.247L345.327 178.737L374.002 208.497L344.754 237.685L355.65 277.747L316.079 288.621L305.182 328.111L265.037 317.809L235.789 346.997L206.54 317.809L166.395 328.111L155.499 288.621L115.354 277.747L126.25 237.685L97.0018 208.497L126.25 179.309L115.354 139.247L155.499 128.373L166.395 88.3106Z" stroke="url(#paint8_linear_1_559)" stroke-width="3"/>
<path id="Vector 52" d="M158.911 75.2941L203.404 87.3458L228.268 62.6742L234 65.0001L267.6 87.3458L312.729 75.2941L324.805 119.695L368.662 131.747L357.221 175.514L377.921 196.997V219.555L356.586 240.846L368.662 285.247L324.805 297.299L312.729 341.065L268.236 329.648L235.82 361.997L203.404 329.648L158.911 341.065L146.834 297.299L102.342 285.247L114.418 240.846L82.0018 208.497L114.418 176.148L102.342 131.747L146.834 119.695L158.911 75.2941Z" stroke="url(#paint9_linear_1_559)" stroke-width="3"/>
<path id="Vector 53" d="M225.002 50.4966L200.267 75.5069L165.5 66.5L157.5 72H149L138.17 111.017L89.3289 124.247L102.586 172.987L67.0018 208.497L102.586 244.007L89.3289 292.747L138.17 305.976L151.426 354.02L200.267 341.487L235.851 376.997L271.435 341.487L320.275 354.02L333.532 305.976L379.502 293.344V284.758L368.418 244.007L377.002 235.441V180.475L369.116 172.29L377.427 140.497L376.502 122.826L333.532 111.017L323.5 76.5L274 79L255.5 74" stroke="url(#paint10_linear_1_559)" stroke-width="3"/>
<path id="Vector 54" d="M332 72L341.677 102.918L376.502 112.488L375.502 304.781L341.677 314.075L327.319 366.111L274.42 352.536L235.88 390.997L197.339 352.536L144.441 366.111L130.083 314.075L77.184 299.747L91.5422 246.958L53.0018 208.497L91.5422 170.036L77.184 117.247L130.083 102.918L137 77L159 71.5L175 58L197.339 64.4573L218.002 43.4966" stroke="url(#paint11_linear_1_559)" stroke-width="3"/>
<path id="Vector 55" d="M65.1716 111.247L122.418 95.8189L127.5 79C136.497 76.5034 159.5 74.5 184.5 51.5L195.203 54.4077L208.5 41C231 57 261.5 97 336.5 70.5C345.5 93 349.5 96 378 104.5L379.618 315.461L351.404 323.175L335.865 379.202L278.619 364.586L236.911 405.997L195.203 364.586L137.956 379.202L122.418 323.175L65.1716 307.747L80.7099 250.908L39.0018 209.497L80.7099 168.086L65.1716 111.247Z" stroke="url(#paint12_linear_1_559)" stroke-width="3"/>
<path id="Vector 56" d="M97.0017 90.4966L113.754 86.1092L117 81.5C132.418 80.3333 170.1 69.9 188.5 47.5L194.502 42.9966L203 32C256.5 100 335.5 75 335.5 75C341 102.5 378.5 103.5 378.5 103.5L375.502 326.53L360.13 330.732L343.412 391.015L281.818 375.289L236.942 419.845L192.066 375.289L130.472 391.015L113.754 330.732L52.1592 314.133L68.8776 252.977L46.4397 230.699L97.0017 91.4966" stroke="url(#paint13_linear_1_559)" stroke-width="3"/>
<path id="Vector 57" d="M57.0453 255.047L39.1467 320.519L105.089 338.29L122.988 402.828L188.93 385.992L236.973 433.693L285.016 385.992L350.959 402.828L368.857 338.29L378.502 335.653" stroke="url(#paint14_linear_1_559)" stroke-width="3"/>
<path id="Vector 58" d="M377.584 344.848L358.505 413.641L288.215 395.695L237.004 446.541L185.793 395.695L115.503 413.641L96.4242 344.848L40.5018 329.777" stroke="url(#paint15_linear_1_559)" stroke-width="3"/>
<path id="Vector 59" d="M50.4407 343.349L87.7596 353.406L108.019 426.454L182.656 407.398L237.035 461.389L291.414 407.398L366.052 426.454L379.074 379.497" stroke="url(#paint16_linear_1_559)" stroke-width="3"/>
<path id="Vector 60" d="M79.095 361.964L100.534 439.267L179.52 419.101L237.066 476.238L294.613 419.101L373.598 439.267L374.644 435.497" stroke="url(#paint17_linear_1_559)" stroke-width="3"/>
<path id="Vector 61" d="M70.4307 371.521L93.0497 453.08L176.383 431.804L237.097 492.086L297.812 431.804L381.145 453.08" stroke="url(#paint18_linear_1_559)" stroke-width="3"/>
<path id="Vector 62" d="M59.7656 380.079L83.5648 465.893L171.246 443.506L235.128 506.934L299.01 443.506L376.002 463.163" stroke="url(#paint19_linear_1_559)" stroke-width="3"/>
<path id="Vector 63" d="M51.1012 389.637L76.0805 479.706L168.11 456.209L235.159 522.782L302.209 456.209L379.002 475.816" stroke="url(#paint20_linear_1_559)" stroke-width="3"/>
<path id="Vector 64" d="M42.4366 398.195L68.596 492.519L164.973 467.912L235.19 537.63L305.408 467.912L377.002 486.191" stroke="url(#paint21_linear_1_559)" stroke-width="3"/>
<path id="Vector 65" d="M33.772 406.753L61.1115 505.332L161.836 479.615L235.221 552.478L308.607 479.615L375.502 496.694" stroke="url(#paint22_linear_1_559)" stroke-width="3"/>
<path id="Vector 66" d="M28 415.5V425.739L53.6271 518.145L66.5018 514.857L158.7 491.318L235.253 567.326L311.805 491.318L377.002 507.964" stroke="url(#paint23_linear_1_559)" stroke-width="3"/>
<g id="Vector 67">
<path id="Vector" d="M155.563 503.021L53.5018 529.078C93.1685 538.717 178.302 564.597 201.502 590.997L227.048 573.997L155.563 503.021Z" stroke="url(#paint24_linear_1_559)" stroke-width="3"/>
<path id="Vector_2" d="M315.004 503.021L257.62 559.997L358.002 525.997L369.714 516.989L315.004 503.021Z" stroke="url(#paint25_linear_1_559)" stroke-width="3"/>
</g>
<g id="Vector 68">
<path id="Vector_3" d="M152.426 514.724L76.0018 534.236C115.002 546.656 194.802 575.497 202.002 591.497L217.664 579.497L152.426 514.724Z" stroke="url(#paint26_linear_1_559)" stroke-width="3"/>
<path id="Vector_4" d="M318.203 514.724L280.663 551.997L357.002 524.63L318.203 514.724Z" stroke="url(#paint27_linear_1_559)" stroke-width="3"/>
</g>
<g id="Vector 69">
<path id="Vector_5" d="M149.29 525.427L94.5018 539.415C128.835 552.442 198.302 580.797 201.502 589.997L209.002 584.714L149.29 525.427Z" stroke="url(#paint28_linear_1_559)" stroke-width="3"/>
<path id="Vector_6" d="M321.402 525.427L305.72 540.997L342.502 530.814L321.402 525.427Z" stroke="url(#paint29_linear_1_559)" stroke-width="3"/>
</g>
<path id="Vector 70" d="M115.002 545.083L146.153 537.13L185.002 575.702" stroke="url(#paint30_linear_1_559)" stroke-width="3"/>
<path id="Vector 71" d="M138.002 552.113L143.016 550.833L149.225 556.997" stroke="url(#paint31_linear_1_559)" stroke-width="3"/>
</g>
<path id="icon bar" d="M29.002 505.242C29.002 512.999 41.5827 524.464 60.0345 528.511C78.4328 532.546 103.443 538.79 129.002 545.997V79.4966L117.5 80C85.2622 90.6538 51.2192 108.476 29.002 108.412V505.242Z" fill="url(#paint32_linear_1_559)"/>
<path id="icon bar_2" d="M29 504.935C29 512.685 39.0646 524.141 53.826 528.184C68.5447 532.216 88.553 538.455 109 545.656V79.5037C98.9722 81.8522 80.2176 75.5 70.9493 71C65.5835 92 41.8386 102.049 29 102.004V504.935Z" fill="url(#paint33_linear_1_559)"/>
<g id="STAR">
<path id="Rectangle 8" d="M356.73 209.365L236.365 89L116 209.365L236.365 329.73L356.73 209.365Z" fill="url(#paint34_linear_1_559)"/>
<path id="Rectangle 9" d="M347.986 209.365L236.365 97.7441L124.744 209.365L236.365 320.986L347.986 209.365Z" fill="url(#paint35_linear_1_559)"/>
<path id="Rectangle 10" d="M340.604 269.547L296.547 105.126L132.125 149.182L176.182 313.604L340.604 269.547Z" fill="url(#paint36_linear_1_559)"/>
<path id="Rectangle 11" d="M333.031 265.175L292.175 112.698L139.698 153.554L180.554 306.031L333.031 265.175Z" fill="url(#paint37_linear_1_559)"/>
<path id="Rectangle 12" d="M340.604 149.182L176.182 105.126L132.125 269.547L296.547 313.604L340.604 149.182Z" fill="url(#paint38_linear_1_559)"/>
<path id="Rectangle 13" d="M333.032 153.554L180.555 112.698L139.699 265.175L292.176 306.031L333.032 153.554Z" fill="url(#paint39_linear_1_559)"/>
<g id="smsllSTAR">
<path id="Rectangle 3" d="M341.793 209.365L236.365 103.937L130.937 209.365L236.365 314.793L341.793 209.365Z" fill="url(#paint40_linear_1_559)"/>
<path id="Rectangle 2" d="M334.134 209.365L236.365 111.596L138.596 209.365L236.365 307.134L334.134 209.365Z" fill="url(#paint41_linear_1_559)"/>
<path id="Rectangle 4" d="M327.668 262.079L289.079 118.062L145.062 156.652L183.651 300.668L327.668 262.079Z" fill="url(#paint42_linear_1_559)"/>
<path id="Rectangle 5" d="M321.034 258.25L285.249 124.695L151.694 160.481L187.48 294.036L321.034 258.25Z" fill="url(#paint43_linear_1_559)"/>
<path id="Rectangle 6" d="M327.668 156.652L183.651 118.062L145.062 262.079L289.079 300.668L327.668 156.652Z" fill="url(#paint44_linear_1_559)"/>
<path id="Rectangle 7" d="M321.035 160.48L187.48 124.695L151.695 258.249L285.249 294.035L321.035 160.48Z" fill="url(#paint45_linear_1_559)"/>
</g>
</g>
<path id="Vector 1" d="M26 387L14 389L24 403L26 387Z" fill="#350906"/>
<path id="Vector 2" d="M380 387L392 389L382 403L380 387Z" fill="#350906"/>
<path id="Union" d="M336.728 70.5H341.728V62.9422L334.773 65.8983L336.728 70.5ZM377 102H382V97H377V102ZM343.167 528.362L344.56 533.164L344.582 533.158L344.603 533.151L343.167 528.362ZM202.998 29L207.469 26.7611L203.058 17.9533L198.552 26.7128L202.998 29ZM69.2672 70.5L71.2229 65.8983L64.2672 62.9422V70.5H69.2672ZM29 102V97H24V102H29ZM62.8331 528.362L61.3964 533.151L61.4181 533.158L61.4399 533.164L62.8331 528.362ZM202.999 591L199.514 594.586L203.047 598.02L206.533 594.537L202.999 591ZM198.552 31.2872C205.691 45.1645 221.432 64.2119 245.066 75.7731C268.917 87.4407 300.509 91.3258 338.684 75.1017L334.773 65.8983C299.255 80.993 270.695 77.1777 249.46 66.7903C228.009 56.2966 213.731 38.9345 207.444 26.7128L198.552 31.2872ZM331.728 70.5C331.728 82.9146 343.619 107 377 107V97C349.663 97 341.728 77.9275 341.728 70.5H331.728ZM372 102V493.564H382V102H372ZM372 493.564C372 504.037 369.577 509.394 365.439 513.119C360.845 517.253 353.498 520.043 341.73 523.573L344.603 533.151C356.035 529.722 365.605 526.422 372.128 520.552C379.106 514.272 382 505.709 382 493.564H372ZM341.773 523.56C323.644 528.82 294.874 538.273 267.357 549.575C253.597 555.227 240.083 561.369 228.339 567.711C216.662 574.018 206.452 580.671 199.514 587.414L206.484 594.585C212.435 588.801 221.693 582.666 233.091 576.51C244.424 570.39 257.594 564.396 271.156 558.825C298.283 547.683 326.707 538.344 344.56 533.164L341.773 523.56ZM198.552 26.7128C192.265 38.9345 177.987 56.2966 156.535 66.7903C135.301 77.1777 106.74 80.993 71.2229 65.8983L67.3115 75.1017C105.486 91.3258 137.078 87.4407 160.93 75.7731C184.564 64.2119 200.306 45.1646 207.445 31.2872L198.552 26.7128ZM64.2672 70.5C64.2672 77.9283 56.336 97 29 97V107C62.3813 107 74.2672 82.9138 74.2672 70.5H64.2672ZM24 102V493.563H34V102H24ZM24 493.563C24 505.709 26.8936 514.271 33.8718 520.552C40.3947 526.422 49.9646 529.722 61.3964 533.151L64.2698 523.573C52.5018 520.043 45.1551 517.253 40.5614 513.119C36.423 509.394 34 504.037 34 493.563H24ZM61.4399 533.164C79.2922 538.344 107.716 547.683 134.843 558.825C148.405 564.396 161.575 570.39 172.907 576.51C184.305 582.666 193.563 588.801 199.514 594.586L206.484 587.415C199.546 580.671 189.336 574.018 177.659 567.711C165.916 561.369 152.401 555.227 138.642 549.575C111.126 538.273 82.3554 528.82 64.2264 523.56L61.4399 533.164ZM198.528 31.2389L199.529 33.2389L208.471 28.7611L207.469 26.7611L198.528 31.2389ZM206.533 594.537L207.534 593.537L200.466 586.463L199.465 587.463L206.533 594.537Z" fill="url(#paint46_linear_1_559)"/>
<path id="Union_2" d="M336.728 70.5H338.228V68.2327L336.142 69.1195L336.728 70.5ZM377 102H378.5V100.5H377V102ZM343.167 528.362L343.585 529.803L343.598 529.799L343.167 528.362ZM202.998 29L204.339 28.3275L203.015 25.6881L201.665 28.3138L202.998 29ZM69.2672 70.5L69.854 69.1195L67.7672 68.2327V70.5H69.2672ZM29 102V100.5H27.5V102H29ZM62.8331 528.362L62.4021 529.799L62.4152 529.803L62.8331 528.362ZM202.999 591L201.954 592.076L203.013 593.106L204.059 592.061L202.999 591ZM201.664 29.6862C208.505 42.984 223.734 61.4416 246.604 72.6292C269.539 83.8487 300.07 87.7094 337.315 71.8805L336.142 69.1195C299.694 84.6095 270.072 80.7698 247.922 69.9343C225.707 59.067 210.917 41.115 204.332 28.3138L201.664 29.6862ZM335.228 70.5C335.228 81.1691 345.734 103.5 377 103.5V100.5C347.548 100.5 338.228 79.673 338.228 70.5H335.228ZM375.5 102V493.564H378.5V102H375.5ZM375.5 493.564C375.5 504.622 372.912 511.101 367.78 515.72C362.511 520.462 354.386 523.431 342.736 526.926L343.598 529.799C355.147 526.334 363.939 523.213 369.787 517.95C375.771 512.564 378.5 505.124 378.5 493.564H375.5ZM342.749 526.922C324.716 532.154 296.067 541.566 268.686 552.813C254.996 558.436 241.602 564.526 230.003 570.791C218.423 577.045 208.546 583.517 201.954 589.924L204.045 592.076C210.341 585.956 219.932 579.639 231.428 573.431C242.904 567.233 256.195 561.187 269.826 555.588C297.09 544.389 325.635 535.011 343.585 529.803L342.749 526.922ZM201.665 28.3138C195.079 41.115 180.289 59.0669 158.073 69.9343C135.923 80.7698 106.301 84.6095 69.854 69.1195L68.6805 71.8805C105.925 87.7094 136.456 83.8487 159.392 72.6292C182.262 61.4416 197.492 42.9841 204.332 29.6862L201.665 28.3138ZM67.7672 70.5C67.7672 79.6732 58.4518 100.5 29 100.5V103.5C60.2654 103.5 70.7672 81.1689 70.7672 70.5H67.7672ZM27.5 102V493.563H30.5V102H27.5ZM27.5 493.563C27.5 505.124 30.2289 512.564 36.2132 517.95C42.0609 523.213 50.8526 526.334 62.4021 529.799L63.2642 526.926C51.6138 523.431 43.489 520.462 38.2201 515.72C33.0877 511.101 30.5 504.622 30.5 493.563H27.5ZM62.4152 529.803C80.3643 535.011 108.909 544.389 136.173 555.588C149.804 561.187 163.094 567.233 174.57 573.431C186.066 579.639 195.657 585.956 201.954 592.076L204.044 589.924C197.452 583.517 187.575 577.045 175.996 570.791C164.396 564.527 151.003 558.436 137.312 552.813C109.932 541.566 81.2833 532.154 63.2511 526.922L62.4152 529.803ZM202.94 588.939L201.939 589.939L204.059 592.061L205.06 591.061L202.94 588.939ZM201.658 29.6725L202.159 30.6725L204.841 29.3275L204.339 28.3275L201.658 29.6725Z" fill="white"/>
<g id="Ellipse 2">
<mask id="path-51-inside-1_1_559" fill="white">
<path d="M236.5 299C287.034 299 328 258.034 328 207.5C328 156.966 287.034 116 236.5 116C185.966 116 145 156.966 145 207.5C145 258.034 185.966 299 236.5 299Z"/>
</mask>
<path d="M236.5 299C287.034 299 328 258.034 328 207.5C328 156.966 287.034 116 236.5 116C185.966 116 145 156.966 145 207.5C145 258.034 185.966 299 236.5 299Z" stroke="url(#paint47_linear_1_559)" stroke-width="10" mask="url(#path-51-inside-1_1_559)"/>
</g>
<g id="&#195;&#144;&#194;&#191;&#195;&#145;&#194;&#128;&#195;&#145;&#194;&#143;&#195;&#144;&#194;&#188;&#195;&#144;&#194;&#190;&#195;&#144;&#194;&#186;&#195;&#145;&#194;&#131;&#195;&#145;&#194;&#130;&#195;&#144;&#194;&#189;&#195;&#144;&#194;&#184;&#195;&#144;&#194;&#186;">
<rect id="Rectangle 2_2" x="24" y="358" width="358" height="54" fill="url(#paint48_linear_1_559)"/>
<path id="Vector 3" d="M406 319C394.059 340.037 392 367.333 392 389C392 389 231.178 389 220 389C209 389 203 389 203 389C203 389 197 389 186 389C175 389 14 389 14 389C14 367.333 10.9463 340.541 0 319H185.905C185.905 319 191.556 319 203 319C214.444 319 219.999 319 219.999 319H406Z" fill="url(#paint49_linear_1_559)"/>
</g>
<circle id="Ellipse 1" cx="236.5" cy="207.5" r="86.5" fill="url(#paint50_linear_1_559)"/>
</g>
</g>
<defs>
<linearGradient id="paint0_linear_1_559" x1="204.805" y1="24.4803" x2="206.092" y2="538.628" gradientUnits="userSpaceOnUse">
<stop stop-color="#8C1F1A"/>
<stop offset="0.307292" stop-color="#320F0D"/>
</linearGradient>
<linearGradient id="paint1_linear_1_559" x1="201.195" y1="24.4803" x2="199.908" y2="538.628" gradientUnits="userSpaceOnUse">
<stop stop-color="#8C1F1A"/>
<stop offset="0.307292" stop-color="#320F0D"/>
</linearGradient>
<linearGradient id="paint2_linear_1_559" x1="370.501" y1="40.5293" x2="44.2521" y2="563.139" gradientUnits="userSpaceOnUse">
<stop offset="0.0176419" stop-color="#872B28"/>
<stop offset="0.25" stop-color="#D14B43"/>
<stop offset="0.5" stop-color="#770D09"/>
<stop offset="0.755208" stop-color="#D14B43"/>
<stop offset="1" stop-color="#760C09"/>
</linearGradient>
<linearGradient id="paint3_linear_1_559" x1="235.502" y1="141.997" x2="235.502" y2="274.997" gradientUnits="userSpaceOnUse">
<stop stop-color="#A01007"/>
<stop offset="0.151042" stop-color="#F5CAC7"/>
<stop offset="0.489583" stop-color="#7A150F"/>
<stop offset="0.739583" stop-color="#FFA39D"/>
<stop offset="1" stop-color="#93150D"/>
</linearGradient>
<linearGradient id="paint4_linear_1_559" x1="235.502" y1="126.997" x2="235.502" y2="289.997" gradientUnits="userSpaceOnUse">
<stop stop-color="#A01007"/>
<stop offset="0.151042" stop-color="#F5CAC7"/>
<stop offset="0.489583" stop-color="#7A150F"/>
<stop offset="0.739583" stop-color="#FFA39D"/>
<stop offset="1" stop-color="#93150D"/>
</linearGradient>
<linearGradient id="paint5_linear_1_559" x1="235.002" y1="111.997" x2="235.002" y2="303.997" gradientUnits="userSpaceOnUse">
<stop stop-color="#A01007"/>
<stop offset="0.151042" stop-color="#F5CAC7"/>
<stop offset="0.489583" stop-color="#7A150F"/>
<stop offset="0.739583" stop-color="#FFA39D"/>
<stop offset="1" stop-color="#93150D"/>
</linearGradient>
<linearGradient id="paint6_linear_1_559" x1="235.502" y1="97.9966" x2="235.502" y2="318.997" gradientUnits="userSpaceOnUse">
<stop stop-color="#A01007"/>
<stop offset="0.151042" stop-color="#F5CAC7"/>
<stop offset="0.489583" stop-color="#7A150F"/>
<stop offset="0.739583" stop-color="#FFA39D"/>
<stop offset="1" stop-color="#93150D"/>
</linearGradient>
<linearGradient id="paint7_linear_1_559" x1="236.002" y1="83.9966" x2="236.002" y2="333.997" gradientUnits="userSpaceOnUse">
<stop stop-color="#A01007"/>
<stop offset="0.151042" stop-color="#F5CAC7"/>
<stop offset="0.489583" stop-color="#7A150F"/>
<stop offset="0.739583" stop-color="#FFA39D"/>
<stop offset="1" stop-color="#93150D"/>
</linearGradient>
<linearGradient id="paint8_linear_1_559" x1="235.502" y1="69.9966" x2="235.502" y2="346.997" gradientUnits="userSpaceOnUse">
<stop stop-color="#A01007"/>
<stop offset="0.151042" stop-color="#F5CAC7"/>
<stop offset="0.489583" stop-color="#7A150F"/>
<stop offset="0.739583" stop-color="#FFA39D"/>
<stop offset="1" stop-color="#93150D"/>
</linearGradient>
<linearGradient id="paint9_linear_1_559" x1="229.961" y1="62.6742" x2="229.961" y2="361.997" gradientUnits="userSpaceOnUse">
<stop stop-color="#A01007"/>
<stop offset="0.151042" stop-color="#F5CAC7"/>
<stop offset="0.489583" stop-color="#7A150F"/>
<stop offset="0.739583" stop-color="#FFA39D"/>
<stop offset="1" stop-color="#93150D"/>
</linearGradient>
<linearGradient id="paint10_linear_1_559" x1="223.252" y1="50.4966" x2="223.252" y2="376.997" gradientUnits="userSpaceOnUse">
<stop stop-color="#A01007"/>
<stop offset="0.151042" stop-color="#F5CAC7"/>
<stop offset="0.489583" stop-color="#7A150F"/>
<stop offset="0.739583" stop-color="#FFA39D"/>
<stop offset="1" stop-color="#93150D"/>
</linearGradient>
<linearGradient id="paint11_linear_1_559" x1="214.752" y1="43.4966" x2="214.752" y2="390.997" gradientUnits="userSpaceOnUse">
<stop stop-color="#A01007"/>
<stop offset="0.151042" stop-color="#F5CAC7"/>
<stop offset="0.489583" stop-color="#7A150F"/>
<stop offset="0.739583" stop-color="#FFA39D"/>
<stop offset="1" stop-color="#93150D"/>
</linearGradient>
<linearGradient id="paint12_linear_1_559" x1="209.31" y1="41" x2="209.31" y2="405.997" gradientUnits="userSpaceOnUse">
<stop stop-color="#A01007"/>
<stop offset="0.151042" stop-color="#F5CAC7"/>
<stop offset="0.489583" stop-color="#7A150F"/>
<stop offset="0.739583" stop-color="#FFA39D"/>
<stop offset="1" stop-color="#93150D"/>
</linearGradient>
<linearGradient id="paint13_linear_1_559" x1="212.47" y1="32" x2="212.47" y2="419.845" gradientUnits="userSpaceOnUse">
<stop stop-color="#A01007"/>
<stop offset="0.151042" stop-color="#F5CAC7"/>
<stop offset="0.489583" stop-color="#7A150F"/>
<stop offset="0.739583" stop-color="#FFA39D"/>
<stop offset="1" stop-color="#93150D"/>
</linearGradient>
<linearGradient id="paint14_linear_1_559" x1="208.824" y1="255.047" x2="208.824" y2="433.693" gradientUnits="userSpaceOnUse">
<stop stop-color="#A01007"/>
<stop offset="0.151042" stop-color="#F5CAC7"/>
<stop offset="0.489583" stop-color="#7A150F"/>
<stop offset="0.739583" stop-color="#FFA39D"/>
<stop offset="1" stop-color="#93150D"/>
</linearGradient>
<linearGradient id="paint15_linear_1_559" x1="209.043" y1="329.777" x2="209.043" y2="446.541" gradientUnits="userSpaceOnUse">
<stop stop-color="#A01007"/>
<stop offset="0.151042" stop-color="#F5CAC7"/>
<stop offset="0.489583" stop-color="#7A150F"/>
<stop offset="0.739583" stop-color="#FFA39D"/>
<stop offset="1" stop-color="#93150D"/>
</linearGradient>
<linearGradient id="paint16_linear_1_559" x1="214.757" y1="343.349" x2="214.757" y2="461.389" gradientUnits="userSpaceOnUse">
<stop stop-color="#A01007"/>
<stop offset="0.151042" stop-color="#F5CAC7"/>
<stop offset="0.489583" stop-color="#7A150F"/>
<stop offset="0.739583" stop-color="#FFA39D"/>
<stop offset="1" stop-color="#93150D"/>
</linearGradient>
<linearGradient id="paint17_linear_1_559" x1="226.869" y1="361.964" x2="226.869" y2="476.238" gradientUnits="userSpaceOnUse">
<stop stop-color="#A01007"/>
<stop offset="0.151042" stop-color="#F5CAC7"/>
<stop offset="0.489583" stop-color="#7A150F"/>
<stop offset="0.739583" stop-color="#FFA39D"/>
<stop offset="1" stop-color="#93150D"/>
</linearGradient>
<linearGradient id="paint18_linear_1_559" x1="225.788" y1="371.521" x2="225.788" y2="492.086" gradientUnits="userSpaceOnUse">
<stop stop-color="#A01007"/>
<stop offset="0.151042" stop-color="#F5CAC7"/>
<stop offset="0.489583" stop-color="#7A150F"/>
<stop offset="0.739583" stop-color="#FFA39D"/>
<stop offset="1" stop-color="#93150D"/>
</linearGradient>
<linearGradient id="paint19_linear_1_559" x1="217.884" y1="380.079" x2="217.884" y2="506.934" gradientUnits="userSpaceOnUse">
<stop stop-color="#A01007"/>
<stop offset="0.151042" stop-color="#F5CAC7"/>
<stop offset="0.489583" stop-color="#7A150F"/>
<stop offset="0.739583" stop-color="#FFA39D"/>
<stop offset="1" stop-color="#93150D"/>
</linearGradient>
<linearGradient id="paint20_linear_1_559" x1="215.051" y1="389.637" x2="215.051" y2="522.782" gradientUnits="userSpaceOnUse">
<stop stop-color="#A01007"/>
<stop offset="0.151042" stop-color="#F5CAC7"/>
<stop offset="0.489583" stop-color="#7A150F"/>
<stop offset="0.739583" stop-color="#FFA39D"/>
<stop offset="1" stop-color="#93150D"/>
</linearGradient>
<linearGradient id="paint21_linear_1_559" x1="209.719" y1="398.195" x2="209.719" y2="537.63" gradientUnits="userSpaceOnUse">
<stop stop-color="#A01007"/>
<stop offset="0.151042" stop-color="#F5CAC7"/>
<stop offset="0.489583" stop-color="#7A150F"/>
<stop offset="0.739583" stop-color="#FFA39D"/>
<stop offset="1" stop-color="#93150D"/>
</linearGradient>
<linearGradient id="paint22_linear_1_559" x1="204.637" y1="406.753" x2="204.637" y2="552.478" gradientUnits="userSpaceOnUse">
<stop stop-color="#A01007"/>
<stop offset="0.151042" stop-color="#F5CAC7"/>
<stop offset="0.489583" stop-color="#7A150F"/>
<stop offset="0.739583" stop-color="#FFA39D"/>
<stop offset="1" stop-color="#93150D"/>
</linearGradient>
<linearGradient id="paint23_linear_1_559" x1="202.501" y1="415.5" x2="202.501" y2="567.326" gradientUnits="userSpaceOnUse">
<stop stop-color="#A01007"/>
<stop offset="0.151042" stop-color="#F5CAC7"/>
<stop offset="0.489583" stop-color="#7A150F"/>
<stop offset="0.739583" stop-color="#FFA39D"/>
<stop offset="1" stop-color="#93150D"/>
</linearGradient>
<linearGradient id="paint24_linear_1_559" x1="140.275" y1="503.021" x2="140.275" y2="590.997" gradientUnits="userSpaceOnUse">
<stop stop-color="#A01007"/>
<stop offset="0.151042" stop-color="#F5CAC7"/>
<stop offset="0.489583" stop-color="#7A150F"/>
<stop offset="0.739583" stop-color="#FFA39D"/>
<stop offset="1" stop-color="#93150D"/>
</linearGradient>
<linearGradient id="paint25_linear_1_559" x1="313.667" y1="503.021" x2="313.667" y2="559.997" gradientUnits="userSpaceOnUse">
<stop stop-color="#A01007"/>
<stop offset="0.151042" stop-color="#F5CAC7"/>
<stop offset="0.489583" stop-color="#7A150F"/>
<stop offset="0.739583" stop-color="#FFA39D"/>
<stop offset="1" stop-color="#93150D"/>
</linearGradient>
<linearGradient id="paint26_linear_1_559" x1="146.833" y1="514.724" x2="146.833" y2="591.497" gradientUnits="userSpaceOnUse">
<stop stop-color="#A01007"/>
<stop offset="0.151042" stop-color="#F5CAC7"/>
<stop offset="0.489583" stop-color="#7A150F"/>
<stop offset="0.739583" stop-color="#FFA39D"/>
<stop offset="1" stop-color="#93150D"/>
</linearGradient>
<linearGradient id="paint27_linear_1_559" x1="318.832" y1="514.724" x2="318.832" y2="551.997" gradientUnits="userSpaceOnUse">
<stop stop-color="#A01007"/>
<stop offset="0.151042" stop-color="#F5CAC7"/>
<stop offset="0.489583" stop-color="#7A150F"/>
<stop offset="0.739583" stop-color="#FFA39D"/>
<stop offset="1" stop-color="#93150D"/>
</linearGradient>
<linearGradient id="paint28_linear_1_559" x1="151.752" y1="525.427" x2="151.752" y2="589.997" gradientUnits="userSpaceOnUse">
<stop stop-color="#A01007"/>
<stop offset="0.151042" stop-color="#F5CAC7"/>
<stop offset="0.489583" stop-color="#7A150F"/>
<stop offset="0.739583" stop-color="#FFA39D"/>
<stop offset="1" stop-color="#93150D"/>
</linearGradient>
<linearGradient id="paint29_linear_1_559" x1="324.111" y1="525.427" x2="324.111" y2="540.997" gradientUnits="userSpaceOnUse">
<stop stop-color="#A01007"/>
<stop offset="0.151042" stop-color="#F5CAC7"/>
<stop offset="0.489583" stop-color="#7A150F"/>
<stop offset="0.739583" stop-color="#FFA39D"/>
<stop offset="1" stop-color="#93150D"/>
</linearGradient>
<linearGradient id="paint30_linear_1_559" x1="150.002" y1="537.13" x2="150.002" y2="575.702" gradientUnits="userSpaceOnUse">
<stop stop-color="#A01007"/>
<stop offset="0.151042" stop-color="#F5CAC7"/>
<stop offset="0.489583" stop-color="#7A150F"/>
<stop offset="0.739583" stop-color="#FFA39D"/>
<stop offset="1" stop-color="#93150D"/>
</linearGradient>
<linearGradient id="paint31_linear_1_559" x1="143.613" y1="550.833" x2="143.613" y2="556.997" gradientUnits="userSpaceOnUse">
<stop stop-color="#A01007"/>
<stop offset="0.151042" stop-color="#F5CAC7"/>
<stop offset="0.489583" stop-color="#7A150F"/>
<stop offset="0.739583" stop-color="#FFA39D"/>
<stop offset="1" stop-color="#93150D"/>
</linearGradient>
<linearGradient id="paint32_linear_1_559" x1="29.002" y1="268.497" x2="124.002" y2="266.997" gradientUnits="userSpaceOnUse">
<stop offset="0.677083"/>
<stop offset="1" stop-opacity="0"/>
</linearGradient>
<linearGradient id="paint33_linear_1_559" x1="69" y1="75.4695" x2="69" y2="545.656" gradientUnits="userSpaceOnUse">
<stop offset="0.09375" stop-color="#B81F15"/>
<stop offset="1"/>
</linearGradient>
<linearGradient id="paint34_linear_1_559" x1="279.709" y1="128.533" x2="203.212" y2="295.149" gradientUnits="userSpaceOnUse">
<stop stop-color="#FCB6B0"/>
<stop offset="1" stop-color="#CE5950"/>
</linearGradient>
<linearGradient id="paint35_linear_1_559" x1="276.566" y1="128.533" x2="181.206" y2="283.622" gradientUnits="userSpaceOnUse">
<stop stop-color="#CD756D"/>
<stop offset="1" stop-color="#8E352E"/>
</linearGradient>
<linearGradient id="paint36_linear_1_559" x1="279.708" y1="126.437" x2="190.637" y2="286.766" gradientUnits="userSpaceOnUse">
<stop stop-color="#F8B3AD"/>
<stop offset="1" stop-color="#D35D54"/>
</linearGradient>
<linearGradient id="paint37_linear_1_559" x1="267.658" y1="122.245" x2="191.685" y2="285.718" gradientUnits="userSpaceOnUse">
<stop stop-color="#D07D76"/>
<stop offset="1" stop-color="#763F3A"/>
</linearGradient>
<linearGradient id="paint38_linear_1_559" x1="280.758" y1="130.629" x2="182.254" y2="279.955" gradientUnits="userSpaceOnUse">
<stop stop-color="#F9B5AF"/>
<stop offset="1" stop-color="#D15D54"/>
</linearGradient>
<linearGradient id="paint39_linear_1_559" x1="276.566" y1="124.341" x2="188.542" y2="285.718" gradientUnits="userSpaceOnUse">
<stop stop-color="#E16F65"/>
<stop offset="1" stop-color="#7B3F3A"/>
</linearGradient>
<linearGradient id="paint40_linear_1_559" x1="274.33" y1="138.565" x2="207.326" y2="284.503" gradientUnits="userSpaceOnUse">
<stop stop-color="#F4B5AF"/>
<stop offset="1" stop-color="#C95F56"/>
</linearGradient>
<linearGradient id="paint41_linear_1_559" x1="271.576" y1="138.564" x2="188.052" y2="274.408" gradientUnits="userSpaceOnUse">
<stop stop-color="#CF7972"/>
<stop offset="1" stop-color="#7D3C37"/>
</linearGradient>
<linearGradient id="paint42_linear_1_559" x1="274.331" y1="136.729" x2="196.313" y2="277.161" gradientUnits="userSpaceOnUse">
<stop stop-color="#F7B6B1"/>
<stop offset="1" stop-color="#D15A50"/>
</linearGradient>
<linearGradient id="paint43_linear_1_559" x1="263.775" y1="133.058" x2="197.23" y2="276.244" gradientUnits="userSpaceOnUse">
<stop stop-color="#CE736A"/>
<stop offset="1" stop-color="#7D413D"/>
</linearGradient>
<linearGradient id="paint44_linear_1_559" x1="275.248" y1="140.4" x2="188.969" y2="271.195" gradientUnits="userSpaceOnUse">
<stop stop-color="#F8B5AF"/>
<stop offset="1" stop-color="#D25F56"/>
</linearGradient>
<linearGradient id="paint45_linear_1_559" x1="271.576" y1="134.893" x2="194.477" y2="276.243" gradientUnits="userSpaceOnUse">
<stop stop-color="#D2766E"/>
<stop offset="1" stop-color="#793B37"/>
</linearGradient>
<linearGradient id="paint46_linear_1_559" x1="62.9026" y1="550.5" x2="344.812" y2="58.697" gradientUnits="userSpaceOnUse">
<stop stop-color="#97241C"/>
<stop offset="0.260417" stop-color="#FFBFBB"/>
<stop offset="0.494792" stop-color="#931D16"/>
<stop offset="0.755208" stop-color="#FFBDB9"/>
<stop offset="1" stop-color="#941E17"/>
</linearGradient>
<linearGradient id="paint47_linear_1_559" x1="290.475" y1="138.104" x2="185.096" y2="275.868" gradientUnits="userSpaceOnUse">
<stop stop-color="#8E2D27"/>
<stop offset="0.260417" stop-color="#F9BCB8"/>
<stop offset="0.505208" stop-color="#991B13"/>
<stop offset="0.755208" stop-color="#F9BCB8"/>
<stop offset="1" stop-color="#8D2822"/>
</linearGradient>
<linearGradient id="paint48_linear_1_559" x1="203" y1="358" x2="203" y2="412" gradientUnits="userSpaceOnUse">
<stop offset="0.640625" stop-opacity="0.81"/>
<stop offset="1" stop-opacity="0"/>
</linearGradient>
<linearGradient id="paint49_linear_1_559" x1="173.006" y1="504.075" x2="343.759" y2="267" gradientUnits="userSpaceOnUse">
<stop offset="0.0001" stop-color="#940A00"/>
<stop offset="0.203125" stop-color="#DF746C"/>
<stop offset="0.5" stop-color="#9E0B00"/>
<stop offset="0.807292" stop-color="#DF746C"/>
<stop offset="1" stop-color="#9E0B00"/>
</linearGradient>
<linearGradient id="paint50_linear_1_559" x1="-63" y1="110.5" x2="-72.5204" y2="351.109" gradientUnits="userSpaceOnUse">
<stop stop-color="#280200"/>
<stop offset="0.5" stop-color="#B21E15"/>
<stop offset="1" stop-color="#BF2016"/>
</linearGradient>
</defs>
</svg>
