<svg width="406" height="598" viewBox="0 0 406 598" fill="none" xmlns="http://www.w3.org/2000/svg">
<g id="VIP 2-2">
<path id="BACK" d="M202.5 31C189 64 123.5 97.5 120 66.5C86.5 69 59.5 107.5 29 107.5V494.563C29 521.011 48.4233 526.656 58.1349 529.362C101.837 541.542 179.53 569.381 202.191 592C228.088 566.945 306.86 539.802 343.009 529.362C366.317 522.402 377 517.183 377 494.563V108.5C345.5 100.5 308.5 66.5 286 66.5C284 99.5 217 64.5 202.5 31Z" fill="url(#paint0_linear_1_363)"/>
<g id="Group 1">
<g id="Polygon 17">
<mask id="path-2-inside-1_1_363" fill="white">
<path d="M68.8571 108.5L236 398L376 155.513L376 108.5L68.8571 108.5Z"/>
</mask>
<path d="M68.8571 108.5L236 398L376 155.513L376 108.5L68.8571 108.5Z" stroke="#107357" stroke-width="6" mask="url(#path-2-inside-1_1_363)"/>
</g>
<g id="Polygon 18">
<mask id="path-3-inside-2_1_363" fill="white">
<path d="M236 431L376 188.513L376 109C369.5 106.5 354 99.6001 344 92L90.5 92L90.4999 178.987L236 431Z"/>
</mask>
<path d="M236 431L376 188.513L376 109C369.5 106.5 354 99.6001 344 92L90.5 92L90.4999 178.987L236 431Z" stroke="#107357" stroke-width="6" mask="url(#path-3-inside-2_1_363)"/>
</g>
<g id="Polygon 19">
<mask id="path-4-inside-3_1_363" fill="white">
<path d="M100.323 229L236 464L375.719 222L375.527 108.5C365 105.5 354.5 99.4 347.5 94.5C332.5 84 319.304 78.9454 318.5 75.5L100.323 75.5L100.323 229Z"/>
</mask>
<path d="M100.323 229L236 464L375.719 222L375.527 108.5C365 105.5 354.5 99.4 347.5 94.5C332.5 84 319.304 78.9454 318.5 75.5L100.323 75.5L100.323 229Z" stroke="#107357" stroke-width="6" mask="url(#path-4-inside-3_1_363)"/>
</g>
<path id="Polygon 20" d="M378.028 251L236 497L93.9718 251L93.9719 69.9999C106.924 65.4083 115.334 62.1537 119.5 65C125.314 68.9724 124.754 80.6779 133.5 80.5C146.59 80.2338 163.457 65.7541 176.5 59L226.5 59" stroke="#107357" stroke-width="3"/>
<g id="Polygon 21">
<mask id="path-6-inside-4_1_363" fill="white">
<path d="M89.6415 276.5L236 530L376.729 286.25L376.729 108.5C352 111 325 65.5 285.5 65.5C274 95 224.5 55 212 43.5L193 43.5C180.602 60.1484 130 98 118.5 65.5C106 60 100.108 72.069 93.4998 70.9999L89.6415 276.5Z"/>
</mask>
<path d="M89.6415 276.5L236 530L376.729 286.25L376.729 108.5C352 111 325 65.5 285.5 65.5C274 95 224.5 55 212 43.5L193 43.5C180.602 60.1484 130 98 118.5 65.5C106 60 100.108 72.069 93.4998 70.9999L89.6415 276.5Z" stroke="#107357" stroke-width="6" mask="url(#path-6-inside-4_1_363)"/>
</g>
<path id="Polygon 22" d="M378.605 316L236 563L80.9814 294.5" stroke="#107357" stroke-width="3"/>
<path id="Polygon 23" d="M376 353.513L259.96 554.5L222.432 572.5L97.4359 356" stroke="#107357" stroke-width="3"/>
<path id="Polygon 24" d="M210.308 584.5L107 405.565M281.899 549.5L372.832 392" stroke="#107357" stroke-width="3"/>
<path id="Polygon 25" d="M107 439L188.657 580M305.859 541L375.719 420" stroke="#107357" stroke-width="3"/>
<path id="Polygon 26" d="M161.522 566L99 457.709M329.242 533.5L376.007 452.5" stroke="#107357" stroke-width="3"/>
<path id="Polygon 27" d="M378.606 481L352.913 525.5C298.844 541.9 231.5 565 202 590.5C195.6 581.7 159.794 561.167 140.5 553L133.52 550.5L31 372.93" stroke="#107357" stroke-width="3"/>
</g>
<path id="Polygon 10" d="M364.904 132L235 357L105.096 132L364.904 132Z" stroke="url(#paint1_linear_1_363)" stroke-width="8"/>
<path id="Polygon 9" d="M235 334L125.015 143.5L344.986 143.5L235 334Z" fill="url(#paint2_linear_1_363)"/>
<path id="icon bar" d="M29 495.582C29 522.187 52.3079 527.866 63.9619 530.589C81.1733 534.61 102.778 540.328 125 547V70.7561C118.813 70.154 112.193 66.445 106.5 68.4998C100.034 70.834 94.4297 78.8633 86 76C80 92.5 65.6 107.5 29 107.5V495.582Z" fill="url(#paint3_linear_1_363)"/>
<path id="icon bar_2" d="M29 493.563C29 520.011 48.4233 525.656 58.1349 528.362C72.4777 532.359 90.4818 538.043 109 544.676V64.5C52.5 85.5 78 90.5 29 107.5V493.563Z" fill="url(#paint4_linear_1_363)"/>
<circle id="Ellipse 2" cx="236.5" cy="207.5" r="86.5" fill="url(#paint5_linear_1_363)"/>
<circle id="Ellipse 3" cx="236.5" cy="207.5" r="89" stroke="url(#paint6_linear_1_363)" stroke-width="5"/>
<path id="Vector 1" d="M26 387L13 389L24 403L26 387Z" fill="#001C15"/>
<path id="Vector 2" d="M380 387L393 389L382 403L380 387Z" fill="#001C15"/>
<path id="Union" d="M377.003 105.431H382.003V100.431H377.003V105.431ZM286.003 62.9689V57.9689H281.003V62.9689H286.003ZM353.62 524.184L352.417 519.331L352.417 519.331L353.62 524.184ZM29 105.433V100.433H24V105.433H29ZM120 62.9709H125V57.9709H120V62.9709ZM203 28.002L207.642 26.1437L203 14.5487L198.358 26.1436L203 28.002ZM203 589.002L198.895 591.857L203.091 597.888L207.162 591.773L203 589.002ZM52.383 524.186L53.5861 519.333L53.586 519.333L52.383 524.186ZM382.003 500.935V105.431H372.003V500.935H382.003ZM377.003 100.431C372.737 100.431 367.129 98.3484 360.063 94.4249C353.111 90.5651 345.568 85.4132 337.416 80.0282C329.381 74.7198 320.837 69.244 312.285 65.1033C303.762 60.9771 294.822 57.9689 286.003 57.9689V67.9689C292.651 67.9689 300.005 70.2685 307.927 74.1039C315.819 77.9249 323.871 83.0647 331.904 88.3718C339.822 93.6023 347.821 99.066 355.209 103.168C362.482 107.206 370.011 110.431 377.003 110.431V100.431ZM281.003 62.9689C281.003 66.7475 280.088 68.7944 279.129 69.9164C278.196 71.0075 276.685 71.8514 274.161 72.1363C268.792 72.7425 260.623 70.5851 251.226 65.9211C242.029 61.3566 232.406 54.7667 224.385 47.5258C216.279 40.2082 210.233 32.607 207.645 26.1416L198.361 29.8584C201.773 38.3797 209.102 47.2014 217.684 54.9485C226.35 62.7723 236.727 69.889 246.78 74.8785C256.633 79.7685 266.964 83.0125 275.283 82.0732C279.603 81.5854 283.732 79.9198 286.729 76.4154C289.699 72.9418 291.003 68.3072 291.003 62.9689H281.003ZM207.108 591.855C210.404 587.117 217.908 581.4 228.96 575.21C239.808 569.134 253.403 562.961 268.112 557.086C297.525 545.338 330.961 534.953 354.823 529.037L352.417 519.331C328.136 525.35 294.263 535.873 264.403 547.799C249.476 553.761 235.444 560.117 224.073 566.485C212.907 572.739 203.602 579.383 198.898 586.145L207.108 591.855ZM354.823 529.037C363.835 526.803 370.562 521.963 375.045 516.714C379.379 511.64 382.003 505.697 382.003 500.935H372.003C372.003 502.514 370.844 506.235 367.441 510.22C364.187 514.03 359.223 517.644 352.417 519.331L354.823 529.037ZM34 500.937V105.433H24V500.937H34ZM29 110.433C35.9916 110.433 43.521 107.208 50.7942 103.17C58.1821 99.0679 66.1815 93.6043 74.0989 88.3738C82.1325 83.0666 90.1839 77.9268 98.076 74.1059C105.998 70.2705 113.352 67.9709 120 67.9709V57.9709C111.181 57.9709 102.241 60.979 93.7184 65.1053C85.1658 69.246 76.6222 74.7217 68.5869 80.0301C60.4354 85.4151 52.8922 90.567 45.9401 94.4269C38.8735 98.3504 33.2659 100.433 29 100.433V110.433ZM115 62.9709C115 68.3092 116.304 72.9438 119.274 76.4174C122.271 79.9217 126.4 81.5874 130.72 82.0752C139.039 83.0145 149.37 79.7704 159.223 74.8805C169.276 69.8909 179.653 62.7743 188.319 54.9505C196.901 47.2033 204.23 38.3816 207.642 29.8603L198.358 26.1436C195.77 32.6089 189.724 40.2101 181.618 47.5277C173.597 54.7686 163.974 61.3586 154.777 65.923C145.38 70.5871 137.211 72.7445 131.842 72.1383C129.319 71.8533 127.807 71.0095 126.874 69.9184C125.915 68.7964 125 66.7494 125 62.9709H115ZM207.105 586.147C202.401 579.385 193.096 572.741 181.93 566.487C170.559 560.119 156.527 553.763 141.6 547.801C111.74 535.875 77.8668 525.352 53.5861 519.333L51.1799 529.039C75.0421 534.955 108.478 545.34 137.891 557.088C152.6 562.963 166.195 569.136 177.043 575.212C188.095 581.402 195.599 587.119 198.895 591.857L207.105 586.147ZM53.586 519.333C46.7798 517.646 41.8156 514.032 38.5618 510.222C35.1586 506.237 34 502.516 34 500.937H24C24 505.699 26.6239 511.642 30.9577 516.716C35.4409 521.965 42.1682 526.805 51.18 529.039L53.586 519.333ZM198.358 29.8602L199.358 32.3582L208.642 28.6418L207.642 26.1437L198.358 29.8602ZM207.162 591.773L208.162 590.271L199.838 584.729L198.838 586.231L207.162 591.773Z" fill="url(#paint7_linear_1_363)"/>
<path id="Union_2" d="M377.003 105.431H378.503V103.931H377.003V105.431ZM286.003 62.9689V61.4689H284.503V62.9689H286.003ZM353.62 524.184L353.259 522.728H353.259L353.62 524.184ZM29 105.433V103.933H27.5V105.433H29ZM120 62.9709H121.5V61.4709H120V62.9709ZM203 28.002L204.393 27.4445L203 23.9659L201.607 27.4444L203 28.002ZM203 589.002L201.769 589.859L203.027 591.668L204.249 589.833L203 589.002ZM52.383 524.186L52.7439 522.73H52.7439L52.383 524.186ZM378.503 500.935V105.431H375.503V500.935H378.503ZM377.003 103.931C371.783 103.931 365.503 101.449 358.364 97.4849C351.259 93.5404 343.556 88.2794 335.487 82.9484C327.452 77.6405 319.081 72.2823 310.759 68.2535C302.447 64.2291 294.062 61.4689 286.003 61.4689V64.4689C293.411 64.4689 301.32 67.0165 309.452 70.9537C317.575 74.8866 325.799 80.144 333.833 85.4515C341.833 90.7361 349.672 96.0907 356.908 100.108C364.109 104.106 370.965 106.931 377.003 106.931V103.931ZM284.503 62.9689C284.503 67.2934 283.452 70.246 281.789 72.191C280.133 74.1268 277.706 75.2583 274.553 75.6143C268.152 76.337 259.227 73.7993 249.67 69.0562C240.173 64.3429 230.286 57.5686 222.039 50.1237C213.767 42.6558 207.272 34.6274 204.396 27.4425L201.61 28.5575C204.734 36.3592 211.614 44.7537 220.029 52.3505C228.47 59.9704 238.583 66.9026 248.336 71.7434C258.029 76.5543 267.604 79.418 274.89 78.5953C278.581 78.1785 281.794 76.8005 284.069 74.1408C286.335 71.4902 287.503 67.7613 287.503 62.9689H284.503ZM204.234 589.857C208.023 584.41 216.158 578.369 227.25 572.156C238.281 565.978 252.029 559.741 266.814 553.836C296.383 542.025 329.972 531.592 353.981 525.64L353.259 522.728C329.125 528.711 295.405 539.186 265.701 551.05C250.851 556.981 236.971 563.273 225.784 569.539C214.658 575.771 205.983 582.09 201.772 588.143L204.234 589.857ZM353.981 525.64C362.221 523.597 368.331 519.187 372.384 514.441C376.392 509.748 378.503 504.583 378.503 500.935H375.503C375.503 503.628 373.832 508.127 370.103 512.493C366.419 516.806 360.837 520.85 353.259 522.728L353.981 525.64ZM30.5 500.937V105.433H27.5V500.937H30.5ZM29 106.933C35.0376 106.933 41.8944 104.108 49.0953 100.11C56.3306 96.0926 64.1704 90.7381 72.1697 85.4535C80.2039 80.1459 88.4276 74.8885 96.5508 70.9557C104.683 67.0185 112.592 64.4709 120 64.4709V61.4709C111.941 61.4709 103.556 64.231 95.2435 68.2555C86.9222 72.2843 78.5508 77.6424 70.5161 82.9504C62.4466 88.2813 54.7436 93.5424 47.6391 97.4869C40.5001 101.451 34.2199 103.933 29 103.933V106.933ZM118.5 62.9709C118.5 67.7633 119.668 71.4922 121.934 74.1427C124.209 76.8024 127.422 78.1805 131.113 78.5973C138.399 79.42 147.974 76.5563 157.667 71.7454C167.42 66.9046 177.533 59.9723 185.974 52.3525C194.389 44.7557 201.269 36.3612 204.393 28.5595L201.607 27.4444C198.731 34.6294 192.236 42.6577 183.964 50.1257C175.717 57.5706 165.83 64.3449 156.333 69.0581C146.776 73.8013 137.851 76.339 131.45 75.6162C128.297 75.2603 125.87 74.1288 124.214 72.193C122.551 70.248 121.5 67.2953 121.5 62.9709H118.5ZM204.231 588.145C200.02 582.092 191.345 575.773 180.219 569.541C169.032 563.275 155.152 556.983 140.302 551.052C110.598 539.188 76.8782 528.713 52.7439 522.73L52.0221 525.642C76.0308 531.594 109.619 542.027 139.189 553.838C153.974 559.743 167.722 565.98 178.753 572.158C189.845 578.371 197.98 584.412 201.769 589.859L204.231 588.145ZM52.7439 522.73C45.1657 520.852 39.5845 516.808 35.9004 512.495C32.1715 508.129 30.5 503.63 30.5 500.937H27.5C27.5 504.585 29.611 509.75 33.6191 514.443C37.672 519.189 43.7823 523.599 52.0221 525.642L52.7439 522.73ZM201.607 28.5594L202.607 31.0574L205.393 29.9426L204.393 27.4445L201.607 28.5594ZM204.249 589.833L205.249 588.331L202.751 586.669L201.751 588.171L204.249 589.833Z" fill="white"/>
<rect id="Rectangle 3" x="24" y="358" width="358" height="54" fill="url(#paint8_linear_1_363)"/>
<path id="Rectangle 1" d="M13 319H189H203H217H393L405 354L393 389H217H203H189H13L2 354L13 319Z" fill="url(#paint9_linear_1_363)"/>
</g>
<defs>
<linearGradient id="paint0_linear_1_363" x1="277" y1="3.14547" x2="42.51" y2="561.816" gradientUnits="userSpaceOnUse">
<stop stop-color="#165040"/>
<stop offset="0.25" stop-color="#389E82"/>
<stop offset="0.5" stop-color="#205647"/>
<stop offset="0.755208" stop-color="#389E82"/>
<stop offset="1" stop-color="#205647"/>
</linearGradient>
<linearGradient id="paint1_linear_1_363" x1="77" y1="105.5" x2="326.5" y2="256.5" gradientUnits="userSpaceOnUse">
<stop offset="0.0466586" stop-color="#134A3C"/>
<stop offset="0.223958" stop-color="#80D6BE"/>
<stop offset="0.25" stop-color="#6CBBA5"/>
<stop offset="0.598958" stop-color="#255548"/>
<stop offset="0.755208" stop-color="#79D0B8"/>
<stop offset="1" stop-color="#155443"/>
</linearGradient>
<linearGradient id="paint2_linear_1_363" x1="235" y1="334" x2="235.001" y2="80" gradientUnits="userSpaceOnUse">
<stop stop-color="#429880" stop-opacity="0.69"/>
<stop offset="0.802083" stop-color="#79D0B8"/>
</linearGradient>
<linearGradient id="paint3_linear_1_363" x1="-64.5" y1="284.5" x2="125.001" y2="285.336" gradientUnits="userSpaceOnUse">
<stop offset="0.69978"/>
<stop offset="1" stop-opacity="0"/>
</linearGradient>
<linearGradient id="paint4_linear_1_363" x1="46" y1="11.5712" x2="33.5193" y2="561.234" gradientUnits="userSpaceOnUse">
<stop offset="0.0260417" stop-color="#8CFFDF"/>
<stop offset="1" stop-color="#040404"/>
</linearGradient>
<linearGradient id="paint5_linear_1_363" x1="236.5" y1="121" x2="236.5" y2="294" gradientUnits="userSpaceOnUse">
<stop/>
<stop offset="1" stop-color="#61BFA5"/>
</linearGradient>
<linearGradient id="paint6_linear_1_363" x1="294" y1="128" x2="176" y2="290.5" gradientUnits="userSpaceOnUse">
<stop stop-color="#00402F"/>
<stop offset="0.260417" stop-color="#B0DCD0"/>
<stop offset="0.505208" stop-color="#003023"/>
<stop offset="0.755208" stop-color="#B0DCD0"/>
<stop offset="1" stop-color="#034F3A"/>
</linearGradient>
<linearGradient id="paint7_linear_1_363" x1="62.9029" y1="548.574" x2="344.057" y2="57.2109" gradientUnits="userSpaceOnUse">
<stop stop-color="#1D463A"/>
<stop offset="0.244792" stop-color="#3ED5A8"/>
<stop offset="0.494792" stop-color="#1D463A"/>
<stop offset="0.755208" stop-color="#3ED4A8"/>
<stop offset="1" stop-color="#1D463A"/>
</linearGradient>
<linearGradient id="paint8_linear_1_363" x1="203" y1="358" x2="203" y2="412" gradientUnits="userSpaceOnUse">
<stop offset="0.640625" stop-opacity="0.81"/>
<stop offset="1" stop-opacity="0"/>
</linearGradient>
<linearGradient id="paint9_linear_1_363" x1="174.926" y1="504.076" x2="348.952" y2="277.932" gradientUnits="userSpaceOnUse">
<stop stop-color="#22614F"/>
<stop offset="0.203125" stop-color="#81D6BE"/>
<stop offset="0.5" stop-color="#17644E"/>
<stop offset="0.807292" stop-color="#88DCC5"/>
<stop offset="1" stop-color="#22614F"/>
</linearGradient>
</defs>
</svg>
