<svg width="406" height="598" viewBox="0 0 406 598" fill="none" xmlns="http://www.w3.org/2000/svg">
<g id="VIP 1-1">
<path id="BACK" d="M203.688 31C182.78 60.8981 166.091 49.0987 160.36 39.4617C110.842 39.4617 61.1383 107.861 24 107.861L29 502.857C29 510.614 34.3162 522.08 49.4466 526.127C96.9012 538.819 203 573.371 203 591C203 573.371 310.474 538.072 358.617 526.127C374.435 522.202 379 509.346 379 503L382 107.861C340.047 107.861 295.846 39.4617 245.64 39.4617C229.134 63.1546 210.794 43.6926 203.688 31Z" fill="url(#paint0_linear_336_22050)"/>
<g id="RADIUS">
<mask id="mask0_336_22050" style="mask-type:alpha" maskUnits="userSpaceOnUse" x="24" y="31" width="358" height="559">
<path id="BACK_2" d="M203.688 31C182.78 60.8981 166.091 49.0987 160.36 39.4617C110.842 39.4617 61.1383 107.861 24 107.861L27 501.857C27 509.614 34.3162 521.08 49.4466 525.127C96.9012 537.819 203 572.371 203 590C203 572.371 310.474 537.072 358.617 525.127C374.435 521.202 378.5 508.846 378.5 502.5L382 107.861C340.047 107.861 295.846 39.4617 245.64 39.4617C229.134 63.1546 210.794 43.6926 203.688 31Z" fill="#C4C4C4"/>
</mask>
<g mask="url(#mask0_336_22050)">
<path id="Ellipse 6" d="M236.5 322C299.737 322 351 270.737 351 207.5C351 144.263 299.737 93 236.5 93C173.263 93 122 144.263 122 207.5C122 270.737 173.263 322 236.5 322Z" stroke="#473739" stroke-width="3"/>
<path id="Ellipse 7" d="M236.5 332C305.259 332 361 276.259 361 207.5C361 138.741 305.259 83 236.5 83C167.741 83 112 138.741 112 207.5C112 276.259 167.741 332 236.5 332Z" stroke="#473739" stroke-width="3"/>
<path id="Ellipse 8" d="M236.5 342C310.782 342 371 281.782 371 207.5C371 133.218 310.782 73 236.5 73C162.218 73 102 133.218 102 207.5C102 281.782 162.218 342 236.5 342Z" stroke="#473739" stroke-width="3"/>
<path id="Ellipse 9" d="M236.5 352C316.305 352 381 287.305 381 207.5C381 127.695 316.305 63 236.5 63C156.695 63 92 127.695 92 207.5C92 287.305 156.695 352 236.5 352Z" stroke="#473739" stroke-width="3"/>
<path id="Ellipse 10" d="M236.5 362C321.828 362 391 292.828 391 207.5C391 122.172 321.828 53 236.5 53C151.172 53 82 122.172 82 207.5C82 292.828 151.172 362 236.5 362Z" stroke="#473739" stroke-width="3"/>
<path id="Ellipse 11" d="M236.5 372C327.351 372 401 298.351 401 207.5C401 116.649 327.351 43 236.5 43C145.649 43 72 116.649 72 207.5C72 298.351 145.649 372 236.5 372Z" stroke="#473739" stroke-width="3"/>
<path id="Ellipse 12" d="M236.5 382C332.874 382 411 303.874 411 207.5C411 111.126 332.874 33 236.5 33C140.126 33 62 111.126 62 207.5C62 303.874 140.126 382 236.5 382Z" stroke="#473739" stroke-width="3"/>
<path id="Ellipse 13" d="M236.5 392C338.397 392 421 309.397 421 207.5C421 105.603 338.397 23 236.5 23C134.603 23 52 105.603 52 207.5C52 309.397 134.603 392 236.5 392Z" stroke="#473739" stroke-width="3"/>
<path id="Ellipse 14" d="M236.5 402C343.919 402 431 314.919 431 207.5C431 100.081 343.919 13 236.5 13C129.081 13 42 100.081 42 207.5C42 314.919 129.081 402 236.5 402Z" stroke="#473739" stroke-width="3"/>
<path id="Ellipse 15" d="M236.5 412C349.442 412 441 320.442 441 207.5C441 94.5578 349.442 3 236.5 3C123.558 3 32 94.5578 32 207.5C32 320.442 123.558 412 236.5 412Z" stroke="#473739" stroke-width="3"/>
<path id="Ellipse 16" d="M236.5 422C354.965 422 451 325.965 451 207.5C451 89.0349 354.965 -7 236.5 -7C118.035 -7 22 89.0349 22 207.5C22 325.965 118.035 422 236.5 422Z" stroke="#473739" stroke-width="3"/>
<path id="Ellipse 17" d="M236.5 432C360.488 432 461 331.488 461 207.5C461 83.5121 360.488 -17 236.5 -17C112.512 -17 12 83.5121 12 207.5C12 331.488 112.512 432 236.5 432Z" stroke="#473739" stroke-width="3"/>
<path id="Ellipse 18" d="M236.5 442C366.011 442 471 337.011 471 207.5C471 77.9892 366.011 -27 236.5 -27C106.989 -27 2 77.9892 2 207.5C2 337.011 106.989 442 236.5 442Z" stroke="#473739" stroke-width="3"/>
<path id="Ellipse 19" d="M236.5 452C371.534 452 481 342.534 481 207.5C481 72.4664 371.534 -37 236.5 -37C101.466 -37 -8 72.4664 -8 207.5C-8 342.534 101.466 452 236.5 452Z" stroke="#473739" stroke-width="3"/>
<path id="Ellipse 20" d="M236.5 462C377.056 462 491 348.056 491 207.5C491 66.9435 377.056 -47 236.5 -47C95.9435 -47 -18 66.9435 -18 207.5C-18 348.056 95.9435 462 236.5 462Z" stroke="#473739" stroke-width="3"/>
<path id="Ellipse 21" d="M236.5 472C382.579 472 501 353.579 501 207.5C501 61.4207 382.579 -57 236.5 -57C90.4207 -57 -28 61.4207 -28 207.5C-28 353.579 90.4207 472 236.5 472Z" stroke="#473739" stroke-width="3"/>
<path id="Ellipse 22" d="M236.5 482C388.102 482 511 359.102 511 207.5C511 55.8978 388.102 -67 236.5 -67C84.8978 -67 -38 55.8978 -38 207.5C-38 359.102 84.8978 482 236.5 482Z" stroke="#473739" stroke-width="3"/>
<path id="Ellipse 23" d="M236.5 492C393.625 492 521 364.625 521 207.5C521 50.375 393.625 -77 236.5 -77C79.375 -77 -48 50.375 -48 207.5C-48 364.625 79.375 492 236.5 492Z" stroke="#473739" stroke-width="3"/>
<path id="Ellipse 24" d="M236.5 502C399.148 502 531 370.148 531 207.5C531 44.8521 399.148 -87 236.5 -87C73.8521 -87 -58 44.8521 -58 207.5C-58 370.148 73.8521 502 236.5 502Z" stroke="#473739" stroke-width="3"/>
<path id="Ellipse 25" d="M236.5 512C404.671 512 541 375.671 541 207.5C541 39.3293 404.671 -97 236.5 -97C68.3293 -97 -68 39.3293 -68 207.5C-68 375.671 68.3293 512 236.5 512Z" stroke="#473739" stroke-width="3"/>
<path id="Ellipse 26" d="M236.5 522C410.194 522 551 381.194 551 207.5C551 33.8064 410.194 -107 236.5 -107C62.8064 -107 -78 33.8064 -78 207.5C-78 381.194 62.8064 522 236.5 522Z" stroke="#473739" stroke-width="3"/>
<path id="Ellipse 27" d="M236.5 532C415.716 532 561 386.716 561 207.5C561 28.2836 415.716 -117 236.5 -117C57.2836 -117 -88 28.2836 -88 207.5C-88 386.716 57.2836 532 236.5 532Z" stroke="#473739" stroke-width="3"/>
<path id="Ellipse 28" d="M236.5 542C421.239 542 571 392.239 571 207.5C571 22.7607 421.239 -127 236.5 -127C51.7607 -127 -98 22.7607 -98 207.5C-98 392.239 51.7607 542 236.5 542Z" stroke="#473739" stroke-width="3"/>
<path id="Ellipse 29" d="M236.5 552C426.762 552 581 397.762 581 207.5C581 17.2379 426.762 -137 236.5 -137C46.2379 -137 -108 17.2379 -108 207.5C-108 397.762 46.2379 552 236.5 552Z" stroke="#473739" stroke-width="3"/>
<path id="Ellipse 30" d="M236.5 562C432.285 562 591 403.285 591 207.5C591 11.7151 432.285 -147 236.5 -147C40.7151 -147 -118 11.7151 -118 207.5C-118 403.285 40.7151 562 236.5 562Z" stroke="#473739" stroke-width="3"/>
<path id="Ellipse 31" d="M236.5 572C437.808 572 601 408.808 601 207.5C601 6.19221 437.808 -157 236.5 -157C35.1922 -157 -128 6.19221 -128 207.5C-128 408.808 35.1922 572 236.5 572Z" stroke="#473739" stroke-width="3"/>
<path id="Ellipse 32" d="M236.5 582C443.331 582 611 414.331 611 207.5C611 0.669357 443.331 -167 236.5 -167C29.6694 -167 -138 0.669357 -138 207.5C-138 414.331 29.6694 582 236.5 582Z" stroke="#473739" stroke-width="3"/>
</g>
</g>
<path id="Union SHADOW" d="M97 542C94.9388 539.753 96 526.5 96 521V497L95 69.5074L103.5 64.5C106.349 58.7957 111 59.5 111 59.5L116 56.5C118.129 51.0082 119.759 57.9178 122 53C122 53 128 554 122 551.5C116 549 116 549.5 108 546.5L97 542Z" fill="url(#paint1_linear_336_22050)"/>
<path id="Union" d="M66.9842 530.304L66.9825 530.303C62.1063 528.706 57.4307 527.175 53.0355 525.709L53.0276 525.706C46.6854 523.46 39.4343 520.813 33.7746 516.256C28.0861 511.675 24 505.16 24 495.232V495.231V106.732L25.385 106.733C35.6293 106.115 45.3757 106.753 55.0117 100.486C63.7778 94.784 72.4194 87.528 81.2424 80.1197L81.249 80.1141L81.2553 80.1088C82.1301 79.3743 83.0065 78.6384 83.8851 77.9023C90.4372 72.413 97.1049 66.9156 104 62V542.777C91.2392 538.248 78.5472 534.091 66.9842 530.304Z" fill="url(#paint2_linear_336_22050)"/>
<path id="Ellipse 3" d="M236.5 309C292.557 309 338 263.557 338 207.5C338 151.443 292.557 106 236.5 106C180.443 106 135 151.443 135 207.5C135 263.557 180.443 309 236.5 309Z" fill="url(#paint3_linear_336_22050)"/>
<path id="Ellipse 2" d="M236.5 294C284.273 294 323 255.273 323 207.5C323 159.727 284.273 121 236.5 121C188.727 121 150 159.727 150 207.5C150 255.273 188.727 294 236.5 294Z" fill="url(#paint4_linear_336_22050)"/>
<g id="Ellipse 5">
<mask id="path-34-inside-1_336_22050" fill="white">
<path d="M236.5 299C287.034 299 328 258.034 328 207.5C328 156.966 287.034 116 236.5 116C185.966 116 145 156.966 145 207.5C145 258.034 185.966 299 236.5 299Z"/>
</mask>
<path d="M236.5 299C287.034 299 328 258.034 328 207.5C328 156.966 287.034 116 236.5 116C185.966 116 145 156.966 145 207.5C145 258.034 185.966 299 236.5 299Z" stroke="url(#paint5_linear_336_22050)" stroke-width="10" mask="url(#path-34-inside-1_336_22050)"/>
</g>
<path id="Ellipse 4" d="M236.5 312C294.214 312 341 265.214 341 207.5C341 149.786 294.214 103 236.5 103C178.786 103 132 149.786 132 207.5C132 265.214 178.786 312 236.5 312Z" stroke="url(#paint6_linear_336_22050)" stroke-width="8"/>
<path id="Vector 1" d="M26 387L13 389L24 403L26 387Z" fill="#0F0F0F"/>
<path id="Vector 2" d="M380 387L393 389L382 403L380 387Z" fill="#0F0F0F"/>
<path id="Union_2" d="M51.7111 526.127L50.4734 530.971L50.4735 530.971L51.7111 526.127ZM203 591L199.643 594.705L203 597.747L206.357 594.705L203 591ZM29 107.861V102.861H24V107.861H29ZM89.3373 75.9613L92.4133 79.9031L92.4133 79.9031L89.3373 75.9613ZM161.585 39.4617L165.726 36.6597L164.239 34.4617H161.585V39.4617ZM203 31L207.393 28.6115L203 20.5334L198.607 28.6115L203 31ZM244.415 39.4617V34.4617H241.761L240.274 36.6597L244.415 39.4617ZM316.663 75.9613L313.587 79.9031L313.587 79.9031L316.663 75.9613ZM377 107.861H382V102.861H377V107.861ZM354.289 526.127L355.526 530.971L355.527 530.971L354.289 526.127ZM50.4735 530.971C73.7931 536.929 102.283 544.839 129.429 555.332C156.655 565.855 182.111 578.821 199.643 594.705L206.357 587.295C187.467 570.179 160.658 556.681 133.035 546.004C105.332 535.296 76.3887 527.27 52.9486 521.283L50.4735 530.971ZM24 492.857C24 502.651 25.9562 511.079 30.4577 517.709C35.0214 524.43 41.8358 528.765 50.4734 530.971L52.9487 521.283C46.2229 519.564 41.6818 516.437 38.7308 512.091C35.7176 507.654 34 501.409 34 492.857H24ZM24 107.861V492.857H34V107.861H24ZM86.2612 72.0194C75.7536 80.2192 65.7986 87.9777 56.0883 93.7195C46.3656 99.4687 37.4247 102.861 29 102.861V112.861C40.035 112.861 50.819 108.453 61.1782 102.327C71.5499 96.1942 82.0337 88.003 92.4133 79.9031L86.2612 72.0194ZM161.585 34.4617C147.625 34.4617 134.392 39.5726 121.989 46.6878C109.603 53.7926 97.6261 63.1507 86.2612 72.0194L92.4133 79.9031C103.898 70.9409 115.307 62.0492 126.964 55.3619C138.604 48.6851 150.07 44.4617 161.585 44.4617V34.4617ZM198.607 28.6115C195.38 34.5475 189.689 41.5067 183.604 44.3437C180.726 45.6853 178.009 46.0004 175.371 45.1573C172.668 44.293 169.327 41.9806 165.726 36.6597L157.444 42.2637C161.86 48.7893 166.841 52.929 172.327 54.6825C177.879 56.4573 183.22 55.5559 187.829 53.4071C196.718 49.2632 203.719 40.1451 207.393 33.3885L198.607 28.6115ZM198.607 33.3885C202.281 40.1451 209.282 49.2632 218.171 53.4071C222.78 55.5559 228.121 56.4573 233.673 54.6825C239.159 52.929 244.14 48.7893 248.556 42.2637L240.274 36.6597C236.673 41.9806 233.332 44.293 230.629 45.1573C227.991 46.0004 225.274 45.6853 222.396 44.3437C216.311 41.5067 210.62 34.5475 207.393 28.6115L198.607 33.3885ZM244.415 44.4617C255.93 44.4617 267.396 48.6851 279.036 55.3619C290.693 62.0492 302.102 70.9409 313.587 79.9031L319.739 72.0194C308.374 63.1507 296.397 53.7926 284.011 46.6878C271.608 39.5726 258.375 34.4617 244.415 34.4617V44.4617ZM313.587 79.9031C323.966 88.003 334.45 96.1943 344.822 102.327C355.181 108.453 365.965 112.861 377 112.861V102.861C368.575 102.861 359.634 99.4687 349.912 93.7195C340.201 87.9777 330.246 80.2192 319.739 72.0194L313.587 79.9031ZM372 107.861V492.857H382V107.861H372ZM372 492.857C372 501.409 370.282 507.654 367.269 512.091C364.318 516.437 359.777 519.564 353.051 521.283L355.527 530.971C364.164 528.765 370.979 524.43 375.542 517.709C380.044 511.079 382 502.651 382 492.857H372ZM353.051 521.283C329.611 527.27 300.668 535.296 272.965 546.004C245.342 556.681 218.533 570.179 199.643 587.295L206.357 594.705C223.889 578.821 249.345 565.855 276.571 555.332C303.717 544.839 332.207 536.929 355.526 530.971L353.051 521.283Z" fill="url(#paint7_linear_336_22050)"/>
<path id="Union_3" d="M51.7111 526.127L51.3398 527.58L51.3398 527.58L51.7111 526.127ZM203 591L201.993 592.112L203 593.024L204.007 592.112L203 591ZM29 107.861V106.361H27.5V107.861H29ZM89.3373 75.9613L90.2601 77.1438L90.2601 77.1438L89.3373 75.9613ZM161.585 39.4617L162.828 38.6211L162.381 37.9617H161.585V39.4617ZM203 31L204.318 30.2834L203 27.86L201.682 30.2834L203 31ZM244.415 39.4617V37.9617H243.619L243.172 38.6211L244.415 39.4617ZM316.663 75.9613L315.74 77.1438L315.74 77.1438L316.663 75.9613ZM377 107.861H378.5V106.361H377V107.861ZM354.289 526.127L354.66 527.58L354.66 527.58L354.289 526.127ZM51.3398 527.58C74.7015 533.548 103.35 541.499 130.691 552.067C158.056 562.644 183.985 575.796 201.993 592.112L204.007 589.888C185.592 573.204 159.257 559.892 131.773 549.269C104.265 538.636 75.4802 530.651 52.0823 524.674L51.3398 527.58ZM27.5 492.857C27.5 502.216 29.3727 509.88 33.3533 515.742C37.3525 521.632 43.3713 525.545 51.3398 527.58L52.0824 524.674C44.6874 522.784 39.3506 519.235 35.8352 514.057C32.3011 508.852 30.5 501.844 30.5 492.857H27.5ZM27.5 107.861V492.857H30.5V107.861H27.5ZM88.4145 74.7787C77.9516 82.9435 67.8115 90.8535 57.8698 96.7322C47.9243 102.613 38.3383 106.361 29 106.361V109.361C39.1214 109.361 49.2603 105.308 59.3968 99.3145C69.5369 93.3184 79.8357 85.2787 90.2601 77.1438L88.4145 74.7787ZM161.585 37.9617C148.481 37.9617 135.866 42.762 123.73 49.7237C111.6 56.6824 99.8213 65.8772 88.4145 74.7787L90.2601 77.1438C101.703 68.2143 113.311 59.1594 125.223 52.326C137.13 45.4957 149.214 40.9617 161.585 40.9617V37.9617ZM201.682 30.2834C198.298 36.5067 192.149 44.2215 185.083 47.5159C181.599 49.1401 177.964 49.6603 174.306 48.4911C170.628 47.3156 166.713 44.3636 162.828 38.6211L160.343 40.3023C164.473 46.4062 168.88 49.9064 173.392 51.3487C177.925 52.7974 182.347 52.1012 186.35 50.2349C194.258 46.5484 200.8 38.1859 204.318 31.7166L201.682 30.2834ZM201.682 31.7166C205.2 38.1859 211.742 46.5484 219.65 50.2349C223.653 52.1012 228.075 52.7974 232.608 51.3487C237.12 49.9064 241.527 46.4062 245.657 40.3023L243.172 38.6211C239.287 44.3636 235.372 47.3156 231.694 48.4911C228.036 49.6603 224.401 49.1401 220.917 47.5159C213.851 44.2215 207.702 36.5067 204.318 30.2834L201.682 31.7166ZM244.415 40.9617C256.786 40.9617 268.87 45.4957 280.777 52.326C292.689 59.1594 304.297 68.2143 315.74 77.1438L317.586 74.7787C306.179 65.8772 294.4 56.6824 282.27 49.7237C270.134 42.762 257.519 37.9617 244.415 37.9617V40.9617ZM315.74 77.1438C326.164 85.2787 336.463 93.3184 346.603 99.3145C356.74 105.308 366.879 109.361 377 109.361V106.361C367.662 106.361 358.076 102.613 348.13 96.7322C338.188 90.8535 328.048 82.9435 317.586 74.7787L315.74 77.1438ZM375.5 107.861V492.857H378.5V107.861H375.5ZM375.5 492.857C375.5 501.844 373.699 508.852 370.165 514.057C366.649 519.235 361.313 522.784 353.918 524.674L354.66 527.58C362.629 525.545 368.648 521.632 372.647 515.742C376.627 509.88 378.5 502.216 378.5 492.857H375.5ZM353.918 524.674C330.52 530.651 301.735 538.636 274.227 549.269C246.743 559.892 220.408 573.204 201.993 589.888L204.007 592.112C222.015 575.796 247.944 562.644 275.309 552.067C302.65 541.499 331.298 533.548 354.66 527.58L353.918 524.674Z" fill="white"/>
<g id="RECTANGLE">
<path id="Rectangle 3" d="M24 358H382V412H24V358Z" fill="url(#paint8_linear_336_22050)"/>
<path id="Rectangle 1" d="M13 319H393C393 319 393 338.996 393 353.47C393 367.944 393 389 393 389H13C13 389 13 368.407 13 354C13 339.593 13 319 13 319Z" fill="url(#paint9_linear_336_22050)"/>
</g>
</g>
<defs>
<linearGradient id="paint0_linear_336_22050" x1="357.31" y1="58.4021" x2="76.7026" y2="563.12" gradientUnits="userSpaceOnUse">
<stop offset="0.0176419" stop-color="#433134"/>
<stop offset="0.25" stop-color="#C5B7B9"/>
<stop offset="0.5" stop-color="#594649"/>
<stop offset="0.755208" stop-color="#C5B7B9"/>
<stop offset="1" stop-color="#433134"/>
</linearGradient>
<linearGradient id="paint1_linear_336_22050" x1="87.7412" y1="262.594" x2="120.171" y2="262.454" gradientUnits="userSpaceOnUse">
<stop offset="0.489583"/>
<stop offset="1" stop-color="#606060" stop-opacity="0"/>
</linearGradient>
<linearGradient id="paint2_linear_336_22050" x1="64" y1="62" x2="64" y2="542.777" gradientUnits="userSpaceOnUse">
<stop offset="0.078125" stop-color="#BFACB0"/>
<stop offset="0.270833" stop-color="#725A5D"/>
<stop offset="0.942708"/>
</linearGradient>
<linearGradient id="paint3_linear_336_22050" x1="159.5" y1="286" x2="265.11" y2="114.986" gradientUnits="userSpaceOnUse">
<stop stop-color="#463436"/>
<stop offset="0.244792" stop-color="#CEBDC0"/>
<stop offset="0.494792" stop-color="#463436"/>
<stop offset="0.755208" stop-color="#CEBDC0"/>
<stop offset="1" stop-color="#463436"/>
</linearGradient>
<linearGradient id="paint4_linear_336_22050" x1="236.5" y1="121" x2="236.5" y2="294" gradientUnits="userSpaceOnUse">
<stop/>
<stop offset="1" stop-color="#AC858B"/>
</linearGradient>
<linearGradient id="paint5_linear_336_22050" x1="376" y1="183" x2="103" y2="286" gradientUnits="userSpaceOnUse">
<stop stop-color="#433234"/>
<stop offset="0.260417" stop-color="#CEBDC0"/>
<stop offset="0.505208" stop-color="#2E1A1D"/>
<stop offset="0.755208" stop-color="#CEBDC0"/>
<stop offset="1" stop-color="#2E1A1D"/>
</linearGradient>
<linearGradient id="paint6_linear_336_22050" x1="268.765" y1="50.5092" x2="236.982" y2="351.97" gradientUnits="userSpaceOnUse">
<stop stop-color="#2F1B1E"/>
<stop offset="0.260417" stop-color="#CEBDC0"/>
<stop offset="0.505208" stop-color="#463436"/>
<stop offset="0.755208" stop-color="#CEBDC0"/>
<stop offset="1" stop-color="#2F1B1E"/>
</linearGradient>
<linearGradient id="paint7_linear_336_22050" x1="62.9026" y1="550.644" x2="343.302" y2="59.7287" gradientUnits="userSpaceOnUse">
<stop stop-color="#120302"/>
<stop offset="0.244792" stop-color="#C5B2B1"/>
<stop offset="0.494792" stop-color="#120302"/>
<stop offset="0.755208" stop-color="#C5B2B1"/>
<stop offset="1" stop-color="#120302"/>
</linearGradient>
<linearGradient id="paint8_linear_336_22050" x1="198" y1="358" x2="198" y2="412" gradientUnits="userSpaceOnUse">
<stop offset="0.640625" stop-opacity="0.81"/>
<stop offset="1" stop-opacity="0"/>
</linearGradient>
<linearGradient id="paint9_linear_336_22050" x1="174.926" y1="504.076" x2="354.238" y2="277.234" gradientUnits="userSpaceOnUse">
<stop stop-color="#392326"/>
<stop offset="0.203125" stop-color="#A48C90"/>
<stop offset="0.5" stop-color="#392326"/>
<stop offset="0.807292" stop-color="#A48C90"/>
<stop offset="1" stop-color="#392326"/>
</linearGradient>
</defs>
</svg>
