<svg width="406" height="598" viewBox="0 0 406 598" fill="none" xmlns="http://www.w3.org/2000/svg">
<g id="VIP 4-1">
<path id="&#209;&#132;&#208;&#190;&#208;&#189;" d="M28.0252 509.719C28.0252 509.719 18.2659 141.967 6.70581 54.0503C46.4685 89.5801 67.6653 69.0629 107.874 69.0629C167.267 57.5532 183.876 35.5298 203.003 1.52588e-05V591C152.964 557.929 101.258 542.878 59.5591 530.079C36.875 523.117 28.0252 521.903 28.0252 509.719Z" fill="url(#paint0_linear_256_20576)"/>
<path id="BACK" d="M378.872 509.719C378.872 509.719 386.381 139.917 398 52C361.122 83 342.43 69.5 302.016 69.5C242.319 57.9903 222.224 35.5297 203 0V591C253.294 557.929 305.265 542.878 347.177 530.079C369.977 523.117 378.872 521.903 378.872 509.719Z" fill="url(#paint1_linear_256_20576)"/>
<path id="BACK_2" d="M67.1232 64.6914C67.1232 82.037 57.0731 95.9136 25.248 95.9136C24.6896 226.006 25.2487 489.66 25.2487 503.537C25.2487 522.617 44.7897 527.821 55.3981 531.29C94.2584 542.391 155.899 557.309 202.799 592C253.049 559.043 304.975 544.044 346.85 531.29C369.63 524.352 377 515.679 377 503.537V95.9136C346.18 95.9136 337.358 75.0988 336.8 64.6914C284.874 64.6914 224.574 71.6296 202.799 30C178.679 71.6296 102.298 64.6914 67.1232 64.6914Z" fill="url(#paint2_linear_256_20576)"/>
<g id="BIG STAR">
<mask id="mask0_256_20576" style="mask-type:alpha" maskUnits="userSpaceOnUse" x="27" y="32" width="352" height="562">
<path id="BACK_3" d="M69.1232 66.6914C69.1232 84.037 59.0731 97.9136 27.248 97.9136C26.6896 228.006 27.2487 491.66 27.2487 505.537C27.2487 524.617 46.7897 529.821 57.3981 533.29C96.2584 544.391 157.899 559.309 204.799 594C255.049 561.043 306.975 546.044 348.85 533.29C371.63 526.352 379 517.679 379 505.537V97.9136C348.18 97.9136 339.358 77.0988 338.8 66.6914C286.874 66.6914 226.574 73.6296 204.799 32C180.679 73.6296 104.298 66.6914 69.1232 66.6914Z" fill="#C4C4C4"/>
</mask>
<g mask="url(#mask0_256_20576)">
<path id="Star 8" d="M236.5 61C236.5 61 251.561 104.166 275.24 113.974C298.918 123.782 340.091 103.909 340.091 103.909C340.091 103.909 320.218 145.082 330.026 168.76C339.834 192.439 383 207.5 383 207.5C383 207.5 339.834 222.561 330.026 246.24C320.218 269.918 340.091 311.091 340.091 311.091C340.091 311.091 298.918 291.218 275.24 301.026C251.561 310.834 236.5 354 236.5 354C236.5 354 221.439 310.834 197.76 301.026C174.082 291.218 132.909 311.091 132.909 311.091C132.909 311.091 152.782 269.918 142.974 246.24C133.166 222.561 90 207.5 90 207.5C90 207.5 133.166 192.439 142.974 168.76C152.782 145.082 132.909 103.909 132.909 103.909C132.909 103.909 174.082 123.782 197.76 113.974C221.439 104.166 236.5 61 236.5 61Z" stroke="url(#paint3_linear_256_20576)" stroke-width="3"/>
<path id="Star 9" d="M236.5 49C236.5 49 252.795 95.7022 278.413 106.313C304.031 116.925 348.576 95.4236 348.576 95.4236C348.576 95.4236 327.075 139.969 337.687 165.587C348.298 191.205 395 207.5 395 207.5C395 207.5 348.298 223.795 337.687 249.413C327.075 275.031 348.576 319.576 348.576 319.576C348.576 319.576 304.031 298.075 278.413 308.687C252.795 319.298 236.5 366 236.5 366C236.5 366 220.205 319.298 194.587 308.687C168.969 298.075 124.424 319.576 124.424 319.576C124.424 319.576 145.925 275.031 135.313 249.413C124.702 223.795 78 207.5 78 207.5C78 207.5 124.702 191.205 135.313 165.587C145.925 139.969 124.424 95.4236 124.424 95.4236C124.424 95.4236 168.969 116.925 194.587 106.313C220.205 95.7022 236.5 49 236.5 49Z" stroke="url(#paint4_linear_256_20576)" stroke-width="3"/>
<path id="Star 10" d="M236.5 37C236.5 37 254.029 87.238 281.586 98.6527C309.143 110.067 357.062 86.9383 357.062 86.9383C357.062 86.9383 333.933 134.856 345.347 162.414C356.762 189.971 407 207.5 407 207.5C407 207.5 356.762 225.029 345.347 252.586C333.933 280.143 357.062 328.062 357.062 328.062C357.062 328.062 309.143 304.933 281.586 316.347C254.029 327.762 236.5 378 236.5 378C236.5 378 218.971 327.762 191.414 316.347C163.856 304.933 115.938 328.062 115.938 328.062C115.938 328.062 139.067 280.143 127.653 252.586C116.238 225.029 66 207.5 66 207.5C66 207.5 116.238 189.971 127.653 162.414C139.067 134.856 115.938 86.9383 115.938 86.9383C115.938 86.9383 163.856 110.067 191.414 98.6527C218.971 87.238 236.5 37 236.5 37Z" stroke="url(#paint5_linear_256_20576)" stroke-width="3"/>
<path id="Star 11" d="M236.5 25C236.5 25 255.262 78.7738 284.759 90.9919C314.256 103.21 365.547 78.453 365.547 78.453C365.547 78.453 340.79 129.744 353.008 159.241C365.226 188.738 419 207.5 419 207.5C419 207.5 365.226 226.262 353.008 255.759C340.79 285.256 365.547 336.547 365.547 336.547C365.547 336.547 314.256 311.79 284.759 324.008C255.262 336.226 236.5 390 236.5 390C236.5 390 217.738 336.226 188.241 324.008C158.744 311.79 107.453 336.547 107.453 336.547C107.453 336.547 132.21 285.256 119.992 255.759C107.774 226.262 54 207.5 54 207.5C54 207.5 107.774 188.738 119.992 159.241C132.21 129.744 107.453 78.453 107.453 78.453C107.453 78.453 158.744 103.21 188.241 90.9919C217.738 78.7738 236.5 25 236.5 25Z" stroke="url(#paint6_linear_256_20576)" stroke-width="3"/>
<path id="Star 12" d="M236.5 13C236.5 13 256.496 70.3096 287.932 83.3311C319.369 96.3525 374.032 69.9677 374.032 69.9677C374.032 69.9677 347.647 124.631 360.669 156.068C373.69 187.504 431 207.5 431 207.5C431 207.5 373.69 227.496 360.669 258.932C347.647 290.369 374.032 345.032 374.032 345.032C374.032 345.032 319.369 318.647 287.932 331.669C256.496 344.69 236.5 402 236.5 402C236.5 402 216.504 344.69 185.068 331.669C153.631 318.647 98.9677 345.032 98.9677 345.032C98.9677 345.032 125.352 290.369 112.331 258.932C99.3096 227.496 42 207.5 42 207.5C42 207.5 99.3096 187.504 112.331 156.068C125.352 124.631 98.9677 69.9677 98.9677 69.9677C98.9677 69.9677 153.631 96.3525 185.068 83.3311C216.504 70.3096 236.5 13 236.5 13Z" stroke="url(#paint7_linear_256_20576)" stroke-width="3"/>
<path id="Star 13" d="M236.5 1C236.5 1 257.73 61.8454 291.106 75.6702C324.482 89.4951 382.518 61.4825 382.518 61.4825C382.518 61.4825 354.505 119.518 368.33 152.894C382.155 186.27 443 207.5 443 207.5C443 207.5 382.155 228.73 368.33 262.106C354.505 295.482 382.518 353.518 382.518 353.518C382.518 353.518 324.482 325.505 291.106 339.33C257.73 353.155 236.5 414 236.5 414C236.5 414 215.27 353.155 181.894 339.33C148.518 325.505 90.4825 353.518 90.4825 353.518C90.4825 353.518 118.495 295.482 104.67 262.106C90.8454 228.73 30 207.5 30 207.5C30 207.5 90.8454 186.27 104.67 152.894C118.495 119.518 90.4825 61.4825 90.4825 61.4825C90.4825 61.4825 148.518 89.4951 181.894 75.6702C215.27 61.8454 236.5 1 236.5 1Z" stroke="url(#paint8_linear_256_20576)" stroke-width="3"/>
<path id="Star 14" d="M236.5 -11C236.5 -11 258.963 53.3812 294.279 68.0094C329.594 82.6376 391.003 52.9972 391.003 52.9972C391.003 52.9972 361.362 114.406 375.991 149.721C390.619 185.037 455 207.5 455 207.5C455 207.5 390.619 229.963 375.991 265.279C361.362 300.594 391.003 362.003 391.003 362.003C391.003 362.003 329.594 332.362 294.279 346.991C258.963 361.619 236.5 426 236.5 426C236.5 426 214.037 361.619 178.721 346.991C143.406 332.362 81.9972 362.003 81.9972 362.003C81.9972 362.003 111.638 300.594 97.0094 265.279C82.3812 229.963 18 207.5 18 207.5C18 207.5 82.3812 185.037 97.0094 149.721C111.638 114.406 81.9972 52.9972 81.9972 52.9972C81.9972 52.9972 143.406 82.6376 178.721 68.0094C214.037 53.3812 236.5 -11 236.5 -11Z" stroke="url(#paint9_linear_256_20576)" stroke-width="3"/>
<path id="Star 15" d="M236.5 -23C236.5 -23 260.197 44.9171 297.452 60.3486C334.707 75.7802 399.488 44.5119 399.488 44.5119C399.488 44.5119 368.22 109.293 383.651 146.548C399.083 183.803 467 207.5 467 207.5C467 207.5 399.083 231.197 383.651 268.452C368.22 305.707 399.488 370.488 399.488 370.488C399.488 370.488 334.707 339.22 297.452 354.651C260.197 370.083 236.5 438 236.5 438C236.5 438 212.803 370.083 175.548 354.651C138.293 339.22 73.5119 370.488 73.5119 370.488C73.5119 370.488 104.78 305.707 89.3486 268.452C73.9171 231.197 6 207.5 6 207.5C6 207.5 73.9171 183.803 89.3486 146.548C104.78 109.293 73.5119 44.5119 73.5119 44.5119C73.5119 44.5119 138.293 75.7802 175.548 60.3486C212.803 44.9171 236.5 -23 236.5 -23Z" stroke="url(#paint10_linear_256_20576)" stroke-width="3"/>
<path id="Star 16" d="M236.5 -35C236.5 -35 261.431 36.4529 300.625 52.6878C339.82 68.9228 407.973 36.0266 407.973 36.0266C407.973 36.0266 375.077 104.18 391.312 143.375C407.547 182.569 479 207.5 479 207.5C479 207.5 407.547 232.431 391.312 271.625C375.077 310.82 407.973 378.973 407.973 378.973C407.973 378.973 339.82 346.077 300.625 362.312C261.431 378.547 236.5 450 236.5 450C236.5 450 211.569 378.547 172.375 362.312C133.18 346.077 65.0266 378.973 65.0266 378.973C65.0266 378.973 97.9228 310.82 81.6878 271.625C65.4529 232.431 -6 207.5 -6 207.5C-6 207.5 65.4529 182.569 81.6878 143.375C97.9228 104.18 65.0266 36.0266 65.0266 36.0266C65.0266 36.0266 133.18 68.9228 172.375 52.6878C211.569 36.4529 236.5 -35 236.5 -35Z" stroke="url(#paint11_linear_256_20576)" stroke-width="3"/>
<path id="Star 17" d="M236.5 -47C236.5 -47 262.664 27.9887 303.798 45.027C344.933 62.0653 416.459 27.5413 416.459 27.5413C416.459 27.5413 381.935 99.0673 398.973 140.201C416.011 181.336 491 207.5 491 207.5C491 207.5 416.011 233.664 398.973 274.798C381.935 315.933 416.459 387.459 416.459 387.459C416.459 387.459 344.933 352.935 303.798 369.973C262.664 387.011 236.5 462 236.5 462C236.5 462 210.336 387.011 169.201 369.973C128.067 352.935 56.5413 387.459 56.5413 387.459C56.5413 387.459 91.0653 315.933 74.027 274.798C56.9887 233.664 -18 207.5 -18 207.5C-18 207.5 56.9887 181.336 74.027 140.201C91.0653 99.0673 56.5413 27.5413 56.5413 27.5413C56.5413 27.5413 128.067 62.0653 169.201 45.027C210.336 27.9887 236.5 -47 236.5 -47Z" stroke="url(#paint12_linear_256_20576)" stroke-width="3"/>
<path id="Star 18" d="M236.5 -59C236.5 -59 263.898 19.5245 306.972 37.3662C350.045 55.2079 424.944 19.056 424.944 19.056C424.944 19.056 388.792 93.9546 406.634 137.028C424.476 180.102 503 207.5 503 207.5C503 207.5 424.476 234.898 406.634 277.972C388.792 321.045 424.944 395.944 424.944 395.944C424.944 395.944 350.045 359.792 306.972 377.634C263.898 395.476 236.5 474 236.5 474C236.5 474 209.102 395.476 166.028 377.634C122.955 359.792 48.056 395.944 48.056 395.944C48.056 395.944 84.2079 321.045 66.3662 277.972C48.5245 234.898 -30 207.5 -30 207.5C-30 207.5 48.5245 180.102 66.3662 137.028C84.2079 93.9546 48.056 19.056 48.056 19.056C48.056 19.056 122.955 55.2079 166.028 37.3662C209.102 19.5245 236.5 -59 236.5 -59Z" stroke="url(#paint13_linear_256_20576)" stroke-width="3"/>
<path id="Star 19" d="M236.5 -71C236.5 -71 265.132 11.0603 310.145 29.7054C355.158 48.3505 433.429 10.5708 433.429 10.5708C433.429 10.5708 395.65 88.8418 414.295 133.855C432.94 178.868 515 207.5 515 207.5C515 207.5 432.94 236.132 414.295 281.145C395.65 326.158 433.429 404.429 433.429 404.429C433.429 404.429 355.158 366.65 310.145 385.295C265.132 403.94 236.5 486 236.5 486C236.5 486 207.868 403.94 162.855 385.295C117.842 366.65 39.5708 404.429 39.5708 404.429C39.5708 404.429 77.3505 326.158 58.7054 281.145C40.0603 236.132 -42 207.5 -42 207.5C-42 207.5 40.0603 178.868 58.7054 133.855C77.3505 88.8418 39.5708 10.5708 39.5708 10.5708C39.5708 10.5708 117.842 48.3505 162.855 29.7054C207.868 11.0603 236.5 -71 236.5 -71Z" stroke="url(#paint14_linear_256_20576)" stroke-width="3"/>
<path id="Star 20" d="M236.5 -83C236.5 -83 266.365 2.59612 313.318 22.0446C360.271 41.4931 441.915 2.08549 441.915 2.08549C441.915 2.08549 402.507 83.7291 421.955 130.682C441.404 177.635 527 207.5 527 207.5C527 207.5 441.404 237.365 421.955 284.318C402.507 331.271 441.915 412.915 441.915 412.915C441.915 412.915 360.271 373.507 313.318 392.955C266.365 412.404 236.5 498 236.5 498C236.5 498 206.635 412.404 159.682 392.955C112.729 373.507 31.0855 412.915 31.0855 412.915C31.0855 412.915 70.4931 331.271 51.0446 284.318C31.5961 237.365 -54 207.5 -54 207.5C-54 207.5 31.5961 177.635 51.0446 130.682C70.4931 83.7291 31.0855 2.08549 31.0855 2.08549C31.0855 2.08549 112.729 41.4931 159.682 22.0446C206.635 2.59612 236.5 -83 236.5 -83Z" stroke="url(#paint15_linear_256_20576)" stroke-width="3"/>
<path id="Star 21" d="M236.5 -95C236.5 -95 267.599 -5.86807 316.491 14.3838C365.384 34.6356 450.4 -6.3998 450.4 -6.3998C450.4 -6.3998 409.364 78.6164 429.616 127.509C449.868 176.401 539 207.5 539 207.5C539 207.5 449.868 238.599 429.616 287.491C409.364 336.384 450.4 421.4 450.4 421.4C450.4 421.4 365.384 380.364 316.491 400.616C267.599 420.868 236.5 510 236.5 510C236.5 510 205.401 420.868 156.509 400.616C107.616 380.364 22.6002 421.4 22.6002 421.4C22.6002 421.4 63.6356 336.384 43.3838 287.491C23.1319 238.599 -66 207.5 -66 207.5C-66 207.5 23.1319 176.401 43.3838 127.509C63.6356 78.6164 22.6002 -6.3998 22.6002 -6.3998C22.6002 -6.3998 107.616 34.6356 156.509 14.3838C205.401 -5.86807 236.5 -95 236.5 -95Z" stroke="url(#paint16_linear_256_20576)" stroke-width="3"/>
<path id="Star 22" d="M236.5 -107C236.5 -107 268.833 -14.3323 319.665 6.72297C370.496 27.7782 458.885 -14.8851 458.885 -14.8851C458.885 -14.8851 416.222 73.5036 437.277 124.335C458.332 175.167 551 207.5 551 207.5C551 207.5 458.332 239.833 437.277 290.665C416.222 341.496 458.885 429.885 458.885 429.885C458.885 429.885 370.496 387.222 319.665 408.277C268.833 429.332 236.5 522 236.5 522C236.5 522 204.167 429.332 153.335 408.277C102.504 387.222 14.1149 429.885 14.1149 429.885C14.1149 429.885 56.7782 341.496 35.723 290.665C14.6677 239.833 -78 207.5 -78 207.5C-78 207.5 14.6677 175.167 35.723 124.335C56.7782 73.5036 14.1149 -14.8851 14.1149 -14.8851C14.1149 -14.8851 102.504 27.7782 153.335 6.72297C204.167 -14.3323 236.5 -107 236.5 -107Z" stroke="url(#paint17_linear_256_20576)" stroke-width="3"/>
<path id="Star 23" d="M236.5 -119C236.5 -119 270.066 -22.7964 322.838 -0.937843C375.609 20.9208 467.37 -23.3704 467.37 -23.3704C467.37 -23.3704 423.079 68.3909 444.938 121.162C466.796 173.934 563 207.5 563 207.5C563 207.5 466.796 241.066 444.938 293.838C423.079 346.609 467.37 438.37 467.37 438.37C467.37 438.37 375.609 394.079 322.838 415.938C270.066 437.796 236.5 534 236.5 534C236.5 534 202.934 437.796 150.162 415.938C97.3909 394.079 5.62964 438.37 5.62964 438.37C5.62964 438.37 49.9208 346.609 28.0622 293.838C6.20355 241.066 -90 207.5 -90 207.5C-90 207.5 6.20355 173.934 28.0622 121.162C49.9208 68.3909 5.62964 -23.3704 5.62964 -23.3704C5.62964 -23.3704 97.3909 20.9208 150.162 -0.937843C202.934 -22.7964 236.5 -119 236.5 -119Z" stroke="url(#paint18_linear_256_20576)" stroke-width="3"/>
<path id="Star 24" d="M236.5 -131C236.5 -131 271.3 -31.2606 326.011 -8.59865C380.722 14.0633 475.856 -31.8556 475.856 -31.8556C475.856 -31.8556 429.937 63.2782 452.599 117.989C475.261 172.7 575 207.5 575 207.5C575 207.5 475.261 242.3 452.599 297.011C429.937 351.722 475.856 446.856 475.856 446.856C475.856 446.856 380.722 400.937 326.011 423.599C271.3 446.261 236.5 546 236.5 546C236.5 546 201.7 446.261 146.989 423.599C92.2782 400.937 -2.85564 446.856 -2.85564 446.856C-2.85564 446.856 43.0633 351.722 20.4013 297.011C-2.26064 242.3 -102 207.5 -102 207.5C-102 207.5 -2.26064 172.7 20.4013 117.989C43.0633 63.2782 -2.85564 -31.8556 -2.85564 -31.8556C-2.85564 -31.8556 92.2782 14.0633 146.989 -8.59865C201.7 -31.2606 236.5 -131 236.5 -131Z" stroke="url(#paint19_linear_256_20576)" stroke-width="3"/>
<path id="Star 25" d="M236.5 -143C236.5 -143 272.534 -39.7248 329.184 -16.2595C385.835 7.20591 484.341 -40.3409 484.341 -40.3409C484.341 -40.3409 436.794 58.1654 460.259 114.816C483.725 171.466 587 207.5 587 207.5C587 207.5 483.725 243.534 460.259 300.184C436.794 356.835 484.341 455.341 484.341 455.341C484.341 455.341 385.835 407.794 329.184 431.259C272.534 454.725 236.5 558 236.5 558C236.5 558 200.466 454.725 143.816 431.259C87.1654 407.794 -11.3409 455.341 -11.3409 455.341C-11.3409 455.341 36.2059 356.835 12.7405 300.184C-10.7248 243.534 -114 207.5 -114 207.5C-114 207.5 -10.7248 171.466 12.7405 114.816C36.2059 58.1654 -11.3409 -40.3409 -11.3409 -40.3409C-11.3409 -40.3409 87.1654 7.20591 143.816 -16.2595C200.466 -39.7248 236.5 -143 236.5 -143Z" stroke="url(#paint20_linear_256_20576)" stroke-width="3"/>
<path id="Star 26" d="M236.5 -155C236.5 -155 273.767 -48.189 332.357 -23.9203C390.947 0.348476 492.826 -48.8262 492.826 -48.8262C492.826 -48.8262 443.652 53.0527 467.92 111.643C492.189 170.233 599 207.5 599 207.5C599 207.5 492.189 244.767 467.92 303.357C443.652 361.947 492.826 463.826 492.826 463.826C492.826 463.826 390.947 414.652 332.357 438.92C273.767 463.189 236.5 570 236.5 570C236.5 570 199.233 463.189 140.643 438.92C82.0527 414.652 -19.8262 463.826 -19.8262 463.826C-19.8262 463.826 29.3485 361.947 5.07973 303.357C-19.189 244.767 -126 207.5 -126 207.5C-126 207.5 -19.189 170.233 5.07973 111.643C29.3485 53.0527 -19.8262 -48.8262 -19.8262 -48.8262C-19.8262 -48.8262 82.0527 0.348476 140.643 -23.9203C199.233 -48.189 236.5 -155 236.5 -155Z" stroke="url(#paint21_linear_256_20576)" stroke-width="3"/>
<path id="Star 27" d="M236.5 -167C236.5 -167 275.001 -56.6532 335.531 -31.5811C396.06 -6.50895 501.311 -57.3115 501.311 -57.3115C501.311 -57.3115 450.509 47.9399 475.581 108.469C500.653 168.999 611 207.5 611 207.5C611 207.5 500.653 246.001 475.581 306.531C450.509 367.06 501.311 472.311 501.311 472.311C501.311 472.311 396.06 421.509 335.531 446.581C275.001 471.653 236.5 582 236.5 582C236.5 582 197.999 471.653 137.469 446.581C76.9399 421.509 -28.3115 472.311 -28.3115 472.311C-28.3115 472.311 22.491 367.06 -2.58108 306.531C-27.6532 246.001 -138 207.5 -138 207.5C-138 207.5 -27.6532 168.999 -2.58108 108.469C22.491 47.9399 -28.3115 -57.3115 -28.3115 -57.3115C-28.3115 -57.3115 76.9399 -6.50895 137.469 -31.5811C197.999 -56.6532 236.5 -167 236.5 -167Z" stroke="url(#paint22_linear_256_20576)" stroke-width="3"/>
<path id="Star 28" d="M236.5 -179C236.5 -179 276.235 -65.1174 338.704 -39.2419C401.173 -13.3664 509.797 -65.7968 509.797 -65.7968C509.797 -65.7968 457.366 42.8272 483.242 105.296C509.117 167.765 623 207.5 623 207.5C623 207.5 509.117 247.235 483.242 309.704C457.366 372.173 509.797 480.797 509.797 480.797C509.797 480.797 401.173 428.366 338.704 454.242C276.235 480.117 236.5 594 236.5 594C236.5 594 196.765 480.117 134.296 454.242C71.8272 428.366 -36.7968 480.797 -36.7968 480.797C-36.7968 480.797 15.6336 372.173 -10.2419 309.704C-36.1174 247.235 -150 207.5 -150 207.5C-150 207.5 -36.1174 167.765 -10.2419 105.296C15.6336 42.8272 -36.7968 -65.7968 -36.7968 -65.7968C-36.7968 -65.7968 71.8272 -13.3664 134.296 -39.2419C196.765 -65.1174 236.5 -179 236.5 -179Z" stroke="url(#paint23_linear_256_20576)" stroke-width="3"/>
<path id="Star 29" d="M236.5 -191C236.5 -191 277.469 -73.5816 341.877 -46.9027C406.286 -20.2238 518.282 -74.282 518.282 -74.282C518.282 -74.282 464.224 37.7145 490.903 102.123C517.582 166.531 635 207.5 635 207.5C635 207.5 517.582 248.469 490.903 312.877C464.224 377.286 518.282 489.282 518.282 489.282C518.282 489.282 406.286 435.224 341.877 461.903C277.469 488.582 236.5 606 236.5 606C236.5 606 195.531 488.582 131.123 461.903C66.7145 435.224 -45.282 489.282 -45.282 489.282C-45.282 489.282 8.77619 377.286 -17.9027 312.877C-44.5816 248.469 -162 207.5 -162 207.5C-162 207.5 -44.5816 166.531 -17.9027 102.123C8.77619 37.7145 -45.282 -74.282 -45.282 -74.282C-45.282 -74.282 66.7145 -20.2238 131.123 -46.9027C195.531 -73.5816 236.5 -191 236.5 -191Z" stroke="url(#paint24_linear_256_20576)" stroke-width="3"/>
<path id="Star 30" d="M236.5 -203C236.5 -203 278.702 -82.0458 345.05 -54.5635C411.398 -27.0812 526.767 -82.7673 526.767 -82.7673C526.767 -82.7673 471.081 32.6017 498.563 98.9498C526.046 165.298 647 207.5 647 207.5C647 207.5 526.046 249.702 498.563 316.05C471.081 382.398 526.767 497.767 526.767 497.767C526.767 497.767 411.398 442.081 345.05 469.563C278.702 497.046 236.5 618 236.5 618C236.5 618 194.298 497.046 127.95 469.563C61.6017 442.081 -53.7673 497.767 -53.7673 497.767C-53.7673 497.767 1.91876 382.398 -25.5635 316.05C-53.0458 249.702 -174 207.5 -174 207.5C-174 207.5 -53.0458 165.298 -25.5635 98.9498C1.91876 32.6017 -53.7673 -82.7673 -53.7673 -82.7673C-53.7673 -82.7673 61.6017 -27.0812 127.95 -54.5635C194.298 -82.0458 236.5 -203 236.5 -203Z" stroke="url(#paint25_linear_256_20576)" stroke-width="3"/>
<path id="Star 31" d="M236.5 -215C236.5 -215 279.936 -90.51 348.223 -62.2243C416.511 -33.9387 535.253 -91.2526 535.253 -91.2526C535.253 -91.2526 477.939 27.489 506.224 95.7765C534.51 164.064 659 207.5 659 207.5C659 207.5 534.51 250.936 506.224 319.223C477.939 387.511 535.253 506.253 535.253 506.253C535.253 506.253 416.511 448.939 348.223 477.224C279.936 505.51 236.5 630 236.5 630C236.5 630 193.064 505.51 124.777 477.224C56.489 448.939 -62.2526 506.253 -62.2526 506.253C-62.2526 506.253 -4.93867 387.511 -33.2243 319.223C-61.51 250.936 -186 207.5 -186 207.5C-186 207.5 -61.51 164.064 -33.2243 95.7765C-4.93867 27.489 -62.2526 -91.2526 -62.2526 -91.2526C-62.2526 -91.2526 56.489 -33.9387 124.777 -62.2243C193.064 -90.51 236.5 -215 236.5 -215Z" stroke="url(#paint26_linear_256_20576)" stroke-width="3"/>
<path id="Star 32" d="M236.5 -227C236.5 -227 281.17 -98.9741 351.397 -69.8851C421.624 -40.7961 543.738 -99.7379 543.738 -99.7379C543.738 -99.7379 484.796 22.3762 513.885 92.6033C542.974 162.83 671 207.5 671 207.5C671 207.5 542.974 252.17 513.885 322.397C484.796 392.624 543.738 514.738 543.738 514.738C543.738 514.738 421.624 455.796 351.397 484.885C281.17 513.974 236.5 642 236.5 642C236.5 642 191.83 513.974 121.603 484.885C51.3762 455.796 -70.7379 514.738 -70.7379 514.738C-70.7379 514.738 -11.7961 392.624 -40.8851 322.397C-69.9741 252.17 -198 207.5 -198 207.5C-198 207.5 -69.9741 162.83 -40.8851 92.6033C-11.7961 22.3762 -70.7379 -99.7379 -70.7379 -99.7379C-70.7379 -99.7379 51.3762 -40.7961 121.603 -69.8851C191.83 -98.9741 236.5 -227 236.5 -227Z" stroke="url(#paint27_linear_256_20576)" stroke-width="3"/>
<path id="Star 33" d="M236.5 -239C236.5 -239 282.403 -107.438 354.57 -77.5459C426.736 -47.6535 552.223 -108.223 552.223 -108.223C552.223 -108.223 491.654 17.2635 521.546 89.4301C551.438 161.597 683 207.5 683 207.5C683 207.5 551.438 253.403 521.546 325.57C491.654 397.736 552.223 523.223 552.223 523.223C552.223 523.223 426.736 462.654 354.57 492.546C282.403 522.438 236.5 654 236.5 654C236.5 654 190.597 522.438 118.43 492.546C46.2635 462.654 -79.2232 523.223 -79.2232 523.223C-79.2232 523.223 -18.6535 397.736 -48.5459 325.57C-78.4383 253.403 -210 207.5 -210 207.5C-210 207.5 -78.4383 161.597 -48.5459 89.4301C-18.6535 17.2635 -79.2232 -108.223 -79.2232 -108.223C-79.2232 -108.223 46.2635 -47.6535 118.43 -77.5459C190.597 -107.438 236.5 -239 236.5 -239Z" stroke="url(#paint28_linear_256_20576)" stroke-width="3"/>
<path id="Star 34" d="M236.5 -251C236.5 -251 283.637 -115.903 357.743 -85.2067C431.849 -54.511 560.708 -116.708 560.708 -116.708C560.708 -116.708 498.511 12.1508 529.207 86.2569C559.902 160.363 695 207.5 695 207.5C695 207.5 559.902 254.637 529.207 328.743C498.511 402.849 560.708 531.708 560.708 531.708C560.708 531.708 431.849 469.511 357.743 500.207C283.637 530.902 236.5 666 236.5 666C236.5 666 189.363 530.902 115.257 500.207C41.1508 469.511 -87.7085 531.708 -87.7085 531.708C-87.7085 531.708 -25.511 402.849 -56.2067 328.743C-86.9025 254.637 -222 207.5 -222 207.5C-222 207.5 -86.9025 160.363 -56.2067 86.2569C-25.511 12.1508 -87.7085 -116.708 -87.7085 -116.708C-87.7085 -116.708 41.1508 -54.511 115.257 -85.2067C189.363 -115.903 236.5 -251 236.5 -251Z" stroke="url(#paint29_linear_256_20576)" stroke-width="3"/>
<path id="Star 35" d="M236.5 -263C236.5 -263 284.871 -124.367 360.916 -92.8676C436.962 -61.3684 569.194 -125.194 569.194 -125.194C569.194 -125.194 505.368 7.03802 536.868 83.0837C568.367 159.129 707 207.5 707 207.5C707 207.5 568.367 255.871 536.868 331.916C505.368 407.962 569.194 540.194 569.194 540.194C569.194 540.194 436.962 476.368 360.916 507.868C284.871 539.367 236.5 678 236.5 678C236.5 678 188.129 539.367 112.084 507.868C36.038 476.368 -96.1937 540.194 -96.1937 540.194C-96.1937 540.194 -32.3684 407.962 -63.8676 331.916C-95.3667 255.871 -234 207.5 -234 207.5C-234 207.5 -95.3667 159.129 -63.8676 83.0837C-32.3684 7.03802 -96.1937 -125.194 -96.1937 -125.194C-96.1937 -125.194 36.038 -61.3684 112.084 -92.8676C188.129 -124.367 236.5 -263 236.5 -263Z" stroke="url(#paint30_linear_256_20576)" stroke-width="3"/>
<path id="Star 36" d="M236.5 -275C236.5 -275 286.104 -132.831 364.09 -100.528C442.075 -68.2258 577.679 -133.679 577.679 -133.679C577.679 -133.679 512.226 1.92528 544.528 79.9105C576.831 157.896 719 207.5 719 207.5C719 207.5 576.831 257.104 544.528 335.09C512.226 413.075 577.679 548.679 577.679 548.679C577.679 548.679 442.075 483.226 364.09 515.528C286.104 547.831 236.5 690 236.5 690C236.5 690 186.896 547.831 108.91 515.528C30.9253 483.226 -104.679 548.679 -104.679 548.679C-104.679 548.679 -39.2258 413.075 -71.5284 335.09C-103.831 257.104 -246 207.5 -246 207.5C-246 207.5 -103.831 157.896 -71.5284 79.9105C-39.2258 1.92528 -104.679 -133.679 -104.679 -133.679C-104.679 -133.679 30.9253 -68.2258 108.91 -100.528C186.896 -132.831 236.5 -275 236.5 -275Z" stroke="url(#paint31_linear_256_20576)" stroke-width="3"/>
<path id="Star 37" d="M236.5 -287C236.5 -287 287.338 -141.295 367.263 -108.189C447.187 -75.0833 586.164 -142.164 586.164 -142.164C586.164 -142.164 519.083 -3.18746 552.189 76.7373C585.295 156.662 731 207.5 731 207.5C731 207.5 585.295 258.338 552.189 338.263C519.083 418.187 586.164 557.164 586.164 557.164C586.164 557.164 447.187 490.083 367.263 523.189C287.338 556.295 236.5 702 236.5 702C236.5 702 185.662 556.295 105.737 523.189C25.8125 490.083 -113.164 557.164 -113.164 557.164C-113.164 557.164 -46.0833 418.187 -79.1892 338.263C-112.295 258.338 -258 207.5 -258 207.5C-258 207.5 -112.295 156.662 -79.1892 76.7373C-46.0833 -3.18746 -113.164 -142.164 -113.164 -142.164C-113.164 -142.164 25.8125 -75.0833 105.737 -108.189C185.662 -141.295 236.5 -287 236.5 -287Z" stroke="url(#paint32_linear_256_20576)" stroke-width="3"/>
<path id="Star 38" d="M236 -299C236 -299 288.123 -149.612 370.068 -115.669C452.013 -81.7264 594.503 -150.503 594.503 -150.503C594.503 -150.503 525.726 -8.01324 559.669 73.9318C593.612 155.877 743 208 743 208C743 208 593.612 260.123 559.669 342.068C525.726 424.013 594.503 566.503 594.503 566.503C594.503 566.503 452.013 497.726 370.068 531.669C288.123 565.612 236 715 236 715C236 715 183.877 565.612 101.932 531.669C19.9868 497.726 -122.503 566.503 -122.503 566.503C-122.503 566.503 -53.7264 424.013 -87.6692 342.068C-121.612 260.123 -271 208 -271 208C-271 208 -121.612 155.877 -87.6692 73.9318C-53.7264 -8.01324 -122.503 -150.503 -122.503 -150.503C-122.503 -150.503 19.9868 -81.7264 101.932 -115.669C183.877 -149.612 236 -299 236 -299Z" stroke="url(#paint33_linear_256_20576)" stroke-width="3"/>
</g>
</g>
<path id="Star 3" d="M236.5 67C236.5 67 250.944 108.398 273.653 117.805C296.362 127.211 335.848 108.152 335.848 108.152C335.848 108.152 316.789 147.638 326.195 170.347C335.602 193.056 377 207.5 377 207.5C377 207.5 335.602 221.944 326.195 244.653C316.789 267.362 335.848 306.848 335.848 306.848C335.848 306.848 296.362 287.789 273.653 297.195C250.944 306.602 236.5 348 236.5 348C236.5 348 222.056 306.602 199.347 297.195C176.638 287.789 137.152 306.848 137.152 306.848C137.152 306.848 156.211 267.362 146.805 244.653C137.398 221.944 96 207.5 96 207.5C96 207.5 137.398 193.056 146.805 170.347C156.211 147.638 137.152 108.152 137.152 108.152C137.152 108.152 176.638 127.211 199.347 117.805C222.056 108.398 236.5 67 236.5 67Z" fill="url(#paint34_radial_256_20576)"/>
<path id="Star 4" d="M236.5 80C236.5 80 249.608 117.568 270.215 126.104C290.823 134.64 326.656 117.344 326.656 117.344C326.656 117.344 309.36 153.177 317.896 173.785C326.432 194.392 364 207.5 364 207.5C364 207.5 326.432 220.608 317.896 241.215C309.36 261.823 326.656 297.656 326.656 297.656C326.656 297.656 290.823 280.36 270.215 288.896C249.608 297.432 236.5 335 236.5 335C236.5 335 223.392 297.432 202.785 288.896C182.177 280.36 146.344 297.656 146.344 297.656C146.344 297.656 163.64 261.823 155.104 241.215C146.568 220.608 109 207.5 109 207.5C109 207.5 146.568 194.392 155.104 173.785C163.64 153.177 146.344 117.344 146.344 117.344C146.344 117.344 182.177 134.64 202.785 126.104C223.392 117.568 236.5 80 236.5 80Z" fill="url(#paint35_radial_256_20576)"/>
<g id="Star 11_2">
<mask id="path-38-inside-1_256_20576" fill="white">
<path d="M236.5 71C236.5 71 250.533 111.22 272.595 120.358C294.657 129.497 333.02 110.98 333.02 110.98C333.02 110.98 314.503 149.343 323.642 171.405C332.78 193.467 373 207.5 373 207.5C373 207.5 332.78 221.533 323.642 243.595C314.503 265.657 333.02 304.02 333.02 304.02C333.02 304.02 294.657 285.503 272.595 294.642C250.533 303.78 236.5 344 236.5 344C236.5 344 222.467 303.78 200.405 294.642C178.343 285.503 139.98 304.02 139.98 304.02C139.98 304.02 158.497 265.657 149.358 243.595C140.22 221.533 100 207.5 100 207.5C100 207.5 140.22 193.467 149.358 171.405C158.497 149.343 139.98 110.98 139.98 110.98C139.98 110.98 178.343 129.497 200.405 120.358C222.467 111.22 236.5 71 236.5 71Z"/>
</mask>
<path d="M236.5 71C236.5 71 250.533 111.22 272.595 120.358C294.657 129.497 333.02 110.98 333.02 110.98C333.02 110.98 314.503 149.343 323.642 171.405C332.78 193.467 373 207.5 373 207.5C373 207.5 332.78 221.533 323.642 243.595C314.503 265.657 333.02 304.02 333.02 304.02C333.02 304.02 294.657 285.503 272.595 294.642C250.533 303.78 236.5 344 236.5 344C236.5 344 222.467 303.78 200.405 294.642C178.343 285.503 139.98 304.02 139.98 304.02C139.98 304.02 158.497 265.657 149.358 243.595C140.22 221.533 100 207.5 100 207.5C100 207.5 140.22 193.467 149.358 171.405C158.497 149.343 139.98 110.98 139.98 110.98C139.98 110.98 178.343 129.497 200.405 120.358C222.467 111.22 236.5 71 236.5 71Z" stroke="url(#paint36_radial_256_20576)" stroke-width="4" mask="url(#path-38-inside-1_256_20576)"/>
</g>
<path id="Star 9_2" d="M236.5 93C236.5 93 248.271 126.738 266.778 134.403C285.284 142.069 317.464 126.536 317.464 126.536C317.464 126.536 301.931 158.716 309.597 177.222C317.262 195.729 351 207.5 351 207.5C351 207.5 317.262 219.271 309.597 237.778C301.931 256.284 317.464 288.464 317.464 288.464C317.464 288.464 285.284 272.931 266.778 280.597C248.271 288.262 236.5 322 236.5 322C236.5 322 224.729 288.262 206.222 280.597C187.716 272.931 155.536 288.464 155.536 288.464C155.536 288.464 171.069 256.284 163.403 237.778C155.738 219.271 122 207.5 122 207.5C122 207.5 155.738 195.729 163.403 177.222C171.069 158.716 155.536 126.536 155.536 126.536C155.536 126.536 187.716 142.069 206.222 134.403C224.729 126.738 236.5 93 236.5 93Z" fill="url(#paint37_radial_256_20576)"/>
<path id="Star 5" d="M189.196 92.3042C189.196 92.3042 214.977 121.384 236.763 121.45C258.548 121.517 284.507 92.5952 284.507 92.5952C284.507 92.5952 282.174 131.387 297.532 146.839C312.89 162.291 351.696 160.196 351.696 160.196C351.696 160.196 322.616 185.977 322.55 207.763C322.483 229.548 351.405 255.507 351.405 255.507C351.405 255.507 312.613 253.174 297.161 268.532C281.709 283.89 283.804 322.696 283.804 322.696C283.804 322.696 258.023 293.616 236.237 293.55C214.452 293.483 188.493 322.405 188.493 322.405C188.493 322.405 190.826 283.613 175.468 268.161C160.11 252.709 121.304 254.804 121.304 254.804C121.304 254.804 150.384 229.023 150.45 207.237C150.517 185.452 121.595 159.493 121.595 159.493C121.595 159.493 160.387 161.826 175.839 146.468C191.291 131.11 189.196 92.3042 189.196 92.3042Z" fill="url(#paint38_radial_256_20576)"/>
<path id="Star 6" d="M193.751 103.396C193.751 103.396 217.049 129.675 236.737 129.735C256.426 129.795 279.884 103.659 279.884 103.659C279.884 103.659 277.777 138.716 291.656 152.68C305.535 166.644 340.604 164.751 340.604 164.751C340.604 164.751 314.325 188.049 314.265 207.737C314.205 227.426 340.341 250.884 340.341 250.884C340.341 250.884 305.284 248.777 291.32 262.656C277.356 276.535 279.25 311.604 279.25 311.604C279.25 311.604 255.951 285.325 236.263 285.265C216.575 285.205 193.116 311.341 193.116 311.341C193.116 311.341 195.223 276.284 181.344 262.32C167.465 248.356 132.396 250.249 132.396 250.249C132.396 250.249 158.675 226.951 158.735 207.263C158.796 187.574 132.659 164.116 132.659 164.116C132.659 164.116 167.716 166.223 181.68 152.344C195.644 138.465 193.751 103.396 193.751 103.396Z" fill="url(#paint39_radial_256_20576)"/>
<path id="Star 12_2" d="M191.58 98.1109C191.58 98.1109 216.062 125.724 236.749 125.788C257.437 125.851 282.087 98.3872 282.087 98.3872C282.087 98.3872 279.872 135.224 294.456 149.897C309.039 164.57 345.889 162.58 345.889 162.58C345.889 162.58 318.276 187.062 318.212 207.749C318.149 228.437 345.613 253.087 345.613 253.087C345.613 253.087 308.776 250.872 294.103 265.456C279.43 280.039 281.42 316.889 281.42 316.889C281.42 316.889 256.938 289.276 236.25 289.212C215.563 289.149 190.913 316.613 190.913 316.613C190.913 316.613 193.128 279.776 178.544 265.103C163.961 250.43 127.111 252.42 127.111 252.42C127.111 252.42 154.724 227.938 154.788 207.251C154.851 186.563 127.387 161.913 127.387 161.913C127.387 161.913 164.224 164.128 178.897 149.544C193.57 134.961 191.58 98.1109 191.58 98.1109Z" stroke="url(#paint40_radial_256_20576)"/>
<path id="Star 8_2" d="M197.002 111.314C197.002 111.314 218.529 135.595 236.719 135.65C254.91 135.706 276.584 111.557 276.584 111.557C276.584 111.557 274.637 143.948 287.46 156.85C300.284 169.752 332.686 168.002 332.686 168.002C332.686 168.002 308.405 189.529 308.35 207.719C308.294 225.91 332.443 247.584 332.443 247.584C332.443 247.584 300.052 245.637 287.15 258.46C274.248 271.284 275.998 303.686 275.998 303.686C275.998 303.686 254.471 279.405 236.281 279.35C218.09 279.294 196.416 303.443 196.416 303.443C196.416 303.443 198.363 271.052 185.54 258.15C172.716 245.248 140.314 246.998 140.314 246.998C140.314 246.998 164.595 225.471 164.65 207.281C164.706 189.09 140.557 167.416 140.557 167.416C140.557 167.416 172.948 169.363 185.85 156.54C198.752 143.716 197.002 111.314 197.002 111.314Z" fill="url(#paint41_radial_256_20576)"/>
<path id="ICON BAR" d="M78.6173 65C78.6173 82.3537 65.8249 96.2366 25.3156 96.2366C24.6049 226.389 25.3166 490.165 25.3166 504.048C25.3166 523.137 50.1897 528.343 63.6929 531.814C81.9721 535.918 104.211 544.047 128 550V65.396C109.057 65.5858 91.6242 65 78.6173 65Z" fill="url(#paint42_linear_256_20576)"/>
<path id="ICON BAR_2" d="M70.6445 65C70.6445 82.3358 60.7087 96.2044 29.2451 96.2044C28.6931 226.223 29.2459 489.726 29.2459 503.595C29.2459 522.664 48.5649 527.865 59.0527 531.332C73.2502 535.432 90.5233 540.053 109 546V65.3956C94.2872 65.5852 80.7469 65 70.6445 65Z" fill="url(#paint43_linear_256_20576)"/>
<path id="Vector 1" d="M26 387L12.7766 389L24 403L26 387Z" fill="#000215"/>
<path id="Vector 2" d="M380 387L393.228 389L382 403L380 387Z" fill="#000215"/>
<path id="Union" d="M336.565 65L341.558 64.7321L341.304 60H336.565V65ZM377 96H382V91H377V96ZM346.878 531.29L345.421 526.507L346.878 531.29ZM203.02 30L207.51 27.8L203.151 18.9045L198.583 27.6943L203.02 30ZM69.4396 65V60H64.699L64.4467 64.7339L69.4396 65ZM28.9999 96V91H23.9999V96H28.9999ZM59.2853 531.29L57.8198 536.071L59.2853 531.29ZM203.02 592L200.265 596.173L202.963 597.953L205.694 596.225L203.02 592ZM198.572 32.3181C210.554 55.2169 232.916 64.4155 257.748 68.0582C282.404 71.675 311.051 70 336.565 70V60C310.136 60 282.893 61.6398 259.199 58.1641C235.681 54.7141 217.233 46.4128 207.432 27.6819L198.572 32.3181ZM331.573 65.2679C331.91 71.5531 334.732 80.4712 341.822 87.8637C349.048 95.3979 360.37 101 377 101V91C362.799 91 354.184 86.3058 349.039 80.9419C343.759 75.4362 341.779 68.8543 341.558 64.7321L331.573 65.2679ZM372 96V503.537H382V96H372ZM372 503.537C372 508.419 370.603 512.276 366.999 515.78C363.158 519.515 356.522 523.127 345.421 526.507L348.334 536.073C360.022 532.515 368.447 528.321 373.97 522.949C379.73 517.348 382 510.797 382 503.537H372ZM345.421 526.507C303.625 539.233 251.219 554.409 200.261 587.819L205.743 596.181C255.32 563.678 306.352 548.856 348.334 536.073L345.421 526.507ZM198.583 27.6943C188.86 46.405 170.339 54.7114 146.739 58.1638C122.977 61.6399 95.6904 60 69.4396 60V70C94.7781 70 123.465 71.6749 148.187 68.0585C173.071 64.4182 195.546 55.2246 207.457 32.3057L198.583 27.6943ZM64.4467 64.7339C64.2285 68.8277 62.212 75.4133 56.8937 80.9338C51.7127 86.3116 43.0866 91 28.9999 91V101C45.5339 101 56.8503 95.3921 64.0953 87.8718C71.203 80.4941 74.096 71.5797 74.4325 65.2661L64.4467 64.7339ZM23.9999 96V503.5H33.9999V96H23.9999ZM23.9999 503.5C23.9999 510.813 26.3851 517.366 32.1887 522.95C37.7613 528.311 46.2088 532.511 57.8198 536.071L60.7508 526.51C49.7291 523.131 43.0339 519.507 39.1219 515.743C35.441 512.202 33.9999 508.329 33.9999 503.5H23.9999ZM57.8198 536.071C99.5443 548.862 151.041 563.679 200.265 596.173L205.774 587.827C155.148 554.408 102.235 539.227 60.7508 526.51L57.8198 536.071ZM205.694 596.225L215.174 590.225L209.826 581.775L200.346 587.775L205.694 596.225ZM198.53 32.2L199.51 34.2L208.49 29.8L207.51 27.8L198.53 32.2Z" fill="url(#paint44_linear_256_20576)"/>
<path id="Union_2" d="M336.824 64.6914L338.322 64.611L338.246 63.1914H336.824V64.6914ZM377 95.9136H378.5V94.4136H377V95.9136ZM346.878 531.29L346.441 529.855L346.878 531.29ZM203.02 30L204.367 29.34L203.059 26.6713L201.689 29.3083L203.02 30ZM69.2704 64.6914V63.1914H67.8482L67.7725 64.6115L69.2704 64.6914ZM28.9999 96V94.5H27.4999V96H28.9999ZM59.2853 531.29L58.8457 532.724L59.2853 531.29ZM203.02 592L202.194 593.252L203.003 593.786L203.822 593.267L203.02 592ZM201.673 30.6954C212.894 52.1399 233.956 60.9447 258.39 64.4417C282.771 67.931 310.995 66.1914 336.824 66.1914V63.1914C310.71 63.1914 282.914 64.9209 258.816 61.4719C234.77 58.0306 214.893 49.4897 204.331 29.3046L201.673 30.6954ZM335.327 64.7717C335.622 70.2873 338.077 78.4414 344.468 85.2332C350.9 92.0695 361.215 97.4136 377 97.4136V94.4136C361.955 94.4136 352.461 89.3503 346.653 83.1774C340.802 76.9598 338.585 69.5029 338.322 64.611L335.327 64.7717ZM375.5 95.9136V503.537H378.5V95.9136H375.5ZM375.5 503.537C375.5 509.251 373.797 514.051 369.439 518.29C365.009 522.597 357.747 526.413 346.441 529.855L347.315 532.725C358.797 529.229 366.596 525.239 371.53 520.44C376.536 515.573 378.5 509.965 378.5 503.537H375.5ZM346.441 529.855C304.579 542.601 252.654 557.653 202.18 590.746L203.824 593.254C253.885 560.434 305.397 545.488 347.315 532.725L346.441 529.855ZM201.689 29.3083C191.202 49.4879 171.26 58.03 147.166 61.4719C123.022 64.9209 95.2072 63.1914 69.2704 63.1914V66.1914C94.9229 66.1914 123.165 67.931 147.59 64.4417C172.066 60.9453 193.204 52.1417 204.351 30.6917L201.689 29.3083ZM67.7725 64.6115C67.5123 69.4921 65.225 76.9726 59.32 83.2179C53.4576 89.4181 43.9357 94.5 28.9999 94.5V97.5C44.6849 97.5 55.0208 92.1313 61.4998 85.279C67.9362 78.4718 70.4736 70.298 70.7682 64.7712L67.7725 64.6115ZM27.4999 96V503.5H30.4999V96H27.4999ZM27.4999 503.5C27.4999 509.944 29.5547 515.559 34.6153 520.427C39.6067 525.23 47.4409 529.228 58.8457 532.724L59.725 529.856C48.497 526.414 41.1885 522.588 36.6953 518.266C32.2714 514.009 30.4999 509.198 30.4999 503.5H27.4999ZM58.8457 532.724C100.486 545.489 152.479 560.434 202.194 593.252L203.846 590.748C153.711 557.653 101.293 542.599 59.725 529.856L58.8457 532.724ZM201.673 30.66L202.653 32.66L205.347 31.34L204.367 29.34L201.673 30.66ZM203.822 593.267L213.302 587.267L211.698 584.733L202.218 590.733L203.822 593.267Z" fill="white"/>
<circle id="Ellipse 2" cx="236.5" cy="207.5" r="86.5" fill="url(#paint45_linear_256_20576)"/>
<circle id="Ellipse 3" cx="236.5" cy="207.5" r="89" stroke="url(#paint46_linear_256_20576)" stroke-width="5"/>
<g id="&#208;&#191;&#209;&#128;&#209;&#143;&#208;&#188;&#208;&#190;&#208;&#186;&#209;&#131;&#209;&#130;&#208;&#189;&#208;&#184;&#208;&#186;">
<path id="Rectangle 2" d="M24.0312 358H382V412H24L24.0312 358Z" fill="url(#paint47_linear_256_20576)"/>
<path id="Rectangle 1" d="M10.7116 384.758C9.44835 383.476 6.70557 382.636 6.70557 382.636C6.70557 382.636 12.7147 365.252 12.7147 354C12.7147 342.748 6.70557 325.364 6.70557 325.364C6.70557 325.364 9.44835 324.524 10.7116 323.242C11.9997 321.936 12.761 319 12.761 319H203.002H393.244C393.244 319 394.005 321.936 395.293 323.242C396.557 324.524 399.299 325.364 399.299 325.364C399.299 325.364 391.287 342.627 391.287 354C391.287 365.373 399.299 382.636 399.299 382.636C399.299 382.636 396.557 383.476 395.293 384.758C394.005 386.064 393.244 389 393.244 389H203.002H12.761C12.761 389 11.9997 386.064 10.7116 384.758Z" fill="url(#paint48_linear_256_20576)"/>
</g>
<path id="Polygon 31" d="M57 369.5L24 385C24 385 26.0953 375.655 26.0952 369.5C26.0952 363.344 24 354 24 354C24 354 31.9883 361 38 364C44.9116 367.449 57 369.5 57 369.5Z" fill="url(#paint49_linear_256_20576)"/>
<path id="Polygon 36" d="M57 338.5L24 323C24 323 26.0953 332.345 26.0952 338.5C26.0952 344.656 24 354 24 354C24 354 31.9883 347 38 344C44.9116 340.551 57 338.5 57 338.5Z" fill="url(#paint50_linear_256_20576)"/>
<path id="Polygon 29" d="M68 354.5C68 354.5 53.126 357.683 44 361C35.9504 363.926 24 370 24 370C24 370 26.7937 360.655 26.7937 354.5C26.7936 348.344 24 339 24 339C24 339 35.9504 345.074 44 348C53.126 351.317 68 354.5 68 354.5Z" fill="url(#paint51_linear_256_20576)"/>
<path id="Polygon 37" d="M349 369.5L382 385C382 385 379.905 375.655 379.905 369.5C379.905 363.344 382 354 382 354C382 354 374.012 361 368 364C361.088 367.449 349 369.5 349 369.5Z" fill="url(#paint52_linear_256_20576)"/>
<path id="Polygon 38" d="M349 338.5L382 323C382 323 379.905 332.345 379.905 338.5C379.905 344.656 382 354 382 354C382 354 374.012 347 368 344C361.088 340.551 349 338.5 349 338.5Z" fill="url(#paint53_linear_256_20576)"/>
<path id="Polygon 35" d="M338 354.5C338 354.5 352.536 357.683 361.455 361C369.321 363.926 381 370 381 370C381 370 378.27 360.655 378.27 354.5C378.27 348.344 381 339 381 339C381 339 369.321 345.074 361.455 348C352.536 351.317 338 354.5 338 354.5Z" fill="url(#paint54_linear_256_20576)"/>
</g>
<defs>
<linearGradient id="paint0_linear_256_20576" x1="203" y1="591" x2="122.76" y2="27.1053" gradientUnits="userSpaceOnUse">
<stop offset="0.708333" stop-color="#12001F"/>
<stop offset="0.920055" stop-color="#4D2B64"/>
<stop offset="1" stop-color="#FF2224"/>
</linearGradient>
<linearGradient id="paint1_linear_256_20576" x1="203" y1="591" x2="305.5" y2="26.5" gradientUnits="userSpaceOnUse">
<stop offset="0.708333" stop-color="#12001F"/>
<stop offset="0.920055" stop-color="#4D2B64"/>
<stop offset="1" stop-color="#FF2224"/>
</linearGradient>
<linearGradient id="paint2_linear_256_20576" x1="356" y1="100" x2="134" y2="534" gradientUnits="userSpaceOnUse">
<stop stop-color="#051745"/>
<stop offset="0.208333" stop-color="#ED251A"/>
<stop offset="0.479167" stop-color="#E37524"/>
<stop offset="0.776042" stop-color="#E6251B"/>
<stop offset="1" stop-color="#000C29"/>
</linearGradient>
<linearGradient id="paint3_linear_256_20576" x1="236.5" y1="61" x2="236.5" y2="354" gradientUnits="userSpaceOnUse">
<stop stop-color="white"/>
<stop offset="0.0001" stop-color="#A90F18"/>
<stop offset="0.208333" stop-color="#450004"/>
<stop offset="0.479167" stop-color="#F13943"/>
<stop offset="0.645833" stop-color="#3D0003"/>
<stop offset="0.828125" stop-color="#D60E1A"/>
<stop offset="1" stop-color="#DC1622"/>
</linearGradient>
<linearGradient id="paint4_linear_256_20576" x1="236.5" y1="49" x2="236.5" y2="366" gradientUnits="userSpaceOnUse">
<stop stop-color="white"/>
<stop offset="0.0001" stop-color="#A90F18"/>
<stop offset="0.208333" stop-color="#450004"/>
<stop offset="0.479167" stop-color="#F13943"/>
<stop offset="0.645833" stop-color="#3D0003"/>
<stop offset="0.828125" stop-color="#D60E1A"/>
<stop offset="1" stop-color="#DC1622"/>
</linearGradient>
<linearGradient id="paint5_linear_256_20576" x1="236.5" y1="37" x2="236.5" y2="378" gradientUnits="userSpaceOnUse">
<stop stop-color="white"/>
<stop offset="0.0001" stop-color="#A90F18"/>
<stop offset="0.208333" stop-color="#450004"/>
<stop offset="0.479167" stop-color="#F13943"/>
<stop offset="0.645833" stop-color="#3D0003"/>
<stop offset="0.828125" stop-color="#D60E1A"/>
<stop offset="1" stop-color="#DC1622"/>
</linearGradient>
<linearGradient id="paint6_linear_256_20576" x1="236.5" y1="25" x2="236.5" y2="390" gradientUnits="userSpaceOnUse">
<stop stop-color="white"/>
<stop offset="0.0001" stop-color="#A90F18"/>
<stop offset="0.208333" stop-color="#450004"/>
<stop offset="0.479167" stop-color="#F13943"/>
<stop offset="0.645833" stop-color="#3D0003"/>
<stop offset="0.828125" stop-color="#D60E1A"/>
<stop offset="1" stop-color="#DC1622"/>
</linearGradient>
<linearGradient id="paint7_linear_256_20576" x1="236.5" y1="13" x2="236.5" y2="402" gradientUnits="userSpaceOnUse">
<stop stop-color="white"/>
<stop offset="0.0001" stop-color="#A90F18"/>
<stop offset="0.208333" stop-color="#450004"/>
<stop offset="0.479167" stop-color="#F13943"/>
<stop offset="0.645833" stop-color="#3D0003"/>
<stop offset="0.828125" stop-color="#D60E1A"/>
<stop offset="1" stop-color="#DC1622"/>
</linearGradient>
<linearGradient id="paint8_linear_256_20576" x1="236.5" y1="1" x2="236.5" y2="414" gradientUnits="userSpaceOnUse">
<stop stop-color="white"/>
<stop offset="0.0001" stop-color="#A90F18"/>
<stop offset="0.208333" stop-color="#450004"/>
<stop offset="0.479167" stop-color="#F13943"/>
<stop offset="0.645833" stop-color="#3D0003"/>
<stop offset="0.828125" stop-color="#D60E1A"/>
<stop offset="1" stop-color="#DC1622"/>
</linearGradient>
<linearGradient id="paint9_linear_256_20576" x1="236.5" y1="-11" x2="236.5" y2="426" gradientUnits="userSpaceOnUse">
<stop stop-color="white"/>
<stop offset="0.0001" stop-color="#A90F18"/>
<stop offset="0.208333" stop-color="#450004"/>
<stop offset="0.479167" stop-color="#F13943"/>
<stop offset="0.645833" stop-color="#3D0003"/>
<stop offset="0.828125" stop-color="#D60E1A"/>
<stop offset="1" stop-color="#DC1622"/>
</linearGradient>
<linearGradient id="paint10_linear_256_20576" x1="236.5" y1="-23" x2="236.5" y2="438" gradientUnits="userSpaceOnUse">
<stop stop-color="white"/>
<stop offset="0.0001" stop-color="#A90F18"/>
<stop offset="0.208333" stop-color="#450004"/>
<stop offset="0.479167" stop-color="#F13943"/>
<stop offset="0.645833" stop-color="#3D0003"/>
<stop offset="0.828125" stop-color="#D60E1A"/>
<stop offset="1" stop-color="#DC1622"/>
</linearGradient>
<linearGradient id="paint11_linear_256_20576" x1="236.5" y1="-35" x2="236.5" y2="450" gradientUnits="userSpaceOnUse">
<stop stop-color="white"/>
<stop offset="0.0001" stop-color="#A90F18"/>
<stop offset="0.208333" stop-color="#450004"/>
<stop offset="0.479167" stop-color="#F13943"/>
<stop offset="0.645833" stop-color="#3D0003"/>
<stop offset="0.828125" stop-color="#D60E1A"/>
<stop offset="1" stop-color="#DC1622"/>
</linearGradient>
<linearGradient id="paint12_linear_256_20576" x1="236.5" y1="-47" x2="236.5" y2="462" gradientUnits="userSpaceOnUse">
<stop stop-color="white"/>
<stop offset="0.0001" stop-color="#A90F18"/>
<stop offset="0.208333" stop-color="#450004"/>
<stop offset="0.479167" stop-color="#F13943"/>
<stop offset="0.645833" stop-color="#3D0003"/>
<stop offset="0.828125" stop-color="#D60E1A"/>
<stop offset="1" stop-color="#DC1622"/>
</linearGradient>
<linearGradient id="paint13_linear_256_20576" x1="236.5" y1="-59" x2="236.5" y2="474" gradientUnits="userSpaceOnUse">
<stop stop-color="white"/>
<stop offset="0.0001" stop-color="#A90F18"/>
<stop offset="0.208333" stop-color="#450004"/>
<stop offset="0.479167" stop-color="#F13943"/>
<stop offset="0.645833" stop-color="#3D0003"/>
<stop offset="0.828125" stop-color="#D60E1A"/>
<stop offset="1" stop-color="#DC1622"/>
</linearGradient>
<linearGradient id="paint14_linear_256_20576" x1="236.5" y1="-71" x2="236.5" y2="486" gradientUnits="userSpaceOnUse">
<stop stop-color="white"/>
<stop offset="0.0001" stop-color="#A90F18"/>
<stop offset="0.208333" stop-color="#450004"/>
<stop offset="0.479167" stop-color="#F13943"/>
<stop offset="0.645833" stop-color="#3D0003"/>
<stop offset="0.828125" stop-color="#D60E1A"/>
<stop offset="1" stop-color="#DC1622"/>
</linearGradient>
<linearGradient id="paint15_linear_256_20576" x1="236.5" y1="-83" x2="236.5" y2="498" gradientUnits="userSpaceOnUse">
<stop stop-color="white"/>
<stop offset="0.0001" stop-color="#A90F18"/>
<stop offset="0.208333" stop-color="#450004"/>
<stop offset="0.479167" stop-color="#F13943"/>
<stop offset="0.645833" stop-color="#3D0003"/>
<stop offset="0.828125" stop-color="#D60E1A"/>
<stop offset="1" stop-color="#DC1622"/>
</linearGradient>
<linearGradient id="paint16_linear_256_20576" x1="236.5" y1="-95" x2="236.5" y2="510" gradientUnits="userSpaceOnUse">
<stop stop-color="white"/>
<stop offset="0.0001" stop-color="#A90F18"/>
<stop offset="0.208333" stop-color="#450004"/>
<stop offset="0.479167" stop-color="#F13943"/>
<stop offset="0.645833" stop-color="#3D0003"/>
<stop offset="0.828125" stop-color="#D60E1A"/>
<stop offset="1" stop-color="#DC1622"/>
</linearGradient>
<linearGradient id="paint17_linear_256_20576" x1="236.5" y1="-107" x2="236.5" y2="522" gradientUnits="userSpaceOnUse">
<stop stop-color="white"/>
<stop offset="0.0001" stop-color="#A90F18"/>
<stop offset="0.208333" stop-color="#450004"/>
<stop offset="0.479167" stop-color="#F13943"/>
<stop offset="0.645833" stop-color="#3D0003"/>
<stop offset="0.828125" stop-color="#D60E1A"/>
<stop offset="1" stop-color="#DC1622"/>
</linearGradient>
<linearGradient id="paint18_linear_256_20576" x1="236.5" y1="-119" x2="236.5" y2="534" gradientUnits="userSpaceOnUse">
<stop stop-color="white"/>
<stop offset="0.0001" stop-color="#A90F18"/>
<stop offset="0.208333" stop-color="#450004"/>
<stop offset="0.479167" stop-color="#F13943"/>
<stop offset="0.645833" stop-color="#3D0003"/>
<stop offset="0.828125" stop-color="#D60E1A"/>
<stop offset="1" stop-color="#DC1622"/>
</linearGradient>
<linearGradient id="paint19_linear_256_20576" x1="236.5" y1="-131" x2="236.5" y2="546" gradientUnits="userSpaceOnUse">
<stop stop-color="white"/>
<stop offset="0.0001" stop-color="#A90F18"/>
<stop offset="0.208333" stop-color="#450004"/>
<stop offset="0.479167" stop-color="#F13943"/>
<stop offset="0.645833" stop-color="#3D0003"/>
<stop offset="0.828125" stop-color="#D60E1A"/>
<stop offset="1" stop-color="#DC1622"/>
</linearGradient>
<linearGradient id="paint20_linear_256_20576" x1="236.5" y1="-143" x2="236.5" y2="558" gradientUnits="userSpaceOnUse">
<stop stop-color="white"/>
<stop offset="0.0001" stop-color="#A90F18"/>
<stop offset="0.208333" stop-color="#450004"/>
<stop offset="0.479167" stop-color="#F13943"/>
<stop offset="0.645833" stop-color="#3D0003"/>
<stop offset="0.828125" stop-color="#D60E1A"/>
<stop offset="1" stop-color="#DC1622"/>
</linearGradient>
<linearGradient id="paint21_linear_256_20576" x1="236.5" y1="-155" x2="236.5" y2="570" gradientUnits="userSpaceOnUse">
<stop stop-color="white"/>
<stop offset="0.0001" stop-color="#A90F18"/>
<stop offset="0.208333" stop-color="#450004"/>
<stop offset="0.479167" stop-color="#F13943"/>
<stop offset="0.645833" stop-color="#3D0003"/>
<stop offset="0.828125" stop-color="#D60E1A"/>
<stop offset="1" stop-color="#DC1622"/>
</linearGradient>
<linearGradient id="paint22_linear_256_20576" x1="236.5" y1="-167" x2="236.5" y2="582" gradientUnits="userSpaceOnUse">
<stop stop-color="white"/>
<stop offset="0.0001" stop-color="#A90F18"/>
<stop offset="0.208333" stop-color="#450004"/>
<stop offset="0.479167" stop-color="#F13943"/>
<stop offset="0.645833" stop-color="#3D0003"/>
<stop offset="0.828125" stop-color="#D60E1A"/>
<stop offset="1" stop-color="#DC1622"/>
</linearGradient>
<linearGradient id="paint23_linear_256_20576" x1="236.5" y1="-179" x2="236.5" y2="594" gradientUnits="userSpaceOnUse">
<stop stop-color="white"/>
<stop offset="0.0001" stop-color="#A90F18"/>
<stop offset="0.208333" stop-color="#450004"/>
<stop offset="0.479167" stop-color="#F13943"/>
<stop offset="0.645833" stop-color="#3D0003"/>
<stop offset="0.828125" stop-color="#D60E1A"/>
<stop offset="1" stop-color="#DC1622"/>
</linearGradient>
<linearGradient id="paint24_linear_256_20576" x1="236.5" y1="-191" x2="236.5" y2="606" gradientUnits="userSpaceOnUse">
<stop stop-color="white"/>
<stop offset="0.0001" stop-color="#A90F18"/>
<stop offset="0.208333" stop-color="#450004"/>
<stop offset="0.479167" stop-color="#F13943"/>
<stop offset="0.645833" stop-color="#3D0003"/>
<stop offset="0.828125" stop-color="#D60E1A"/>
<stop offset="1" stop-color="#DC1622"/>
</linearGradient>
<linearGradient id="paint25_linear_256_20576" x1="236.5" y1="-203" x2="236.5" y2="618" gradientUnits="userSpaceOnUse">
<stop stop-color="white"/>
<stop offset="0.0001" stop-color="#A90F18"/>
<stop offset="0.208333" stop-color="#450004"/>
<stop offset="0.479167" stop-color="#F13943"/>
<stop offset="0.645833" stop-color="#3D0003"/>
<stop offset="0.828125" stop-color="#D60E1A"/>
<stop offset="1" stop-color="#DC1622"/>
</linearGradient>
<linearGradient id="paint26_linear_256_20576" x1="236.5" y1="-215" x2="236.5" y2="630" gradientUnits="userSpaceOnUse">
<stop stop-color="white"/>
<stop offset="0.0001" stop-color="#A90F18"/>
<stop offset="0.208333" stop-color="#450004"/>
<stop offset="0.479167" stop-color="#F13943"/>
<stop offset="0.645833" stop-color="#3D0003"/>
<stop offset="0.828125" stop-color="#D60E1A"/>
<stop offset="1" stop-color="#DC1622"/>
</linearGradient>
<linearGradient id="paint27_linear_256_20576" x1="236.5" y1="-227" x2="236.5" y2="642" gradientUnits="userSpaceOnUse">
<stop stop-color="white"/>
<stop offset="0.0001" stop-color="#A90F18"/>
<stop offset="0.208333" stop-color="#450004"/>
<stop offset="0.479167" stop-color="#F13943"/>
<stop offset="0.645833" stop-color="#3D0003"/>
<stop offset="0.828125" stop-color="#D60E1A"/>
<stop offset="1" stop-color="#DC1622"/>
</linearGradient>
<linearGradient id="paint28_linear_256_20576" x1="236.5" y1="-239" x2="236.5" y2="654" gradientUnits="userSpaceOnUse">
<stop stop-color="white"/>
<stop offset="0.0001" stop-color="#A90F18"/>
<stop offset="0.208333" stop-color="#450004"/>
<stop offset="0.479167" stop-color="#F13943"/>
<stop offset="0.645833" stop-color="#3D0003"/>
<stop offset="0.828125" stop-color="#D60E1A"/>
<stop offset="1" stop-color="#DC1622"/>
</linearGradient>
<linearGradient id="paint29_linear_256_20576" x1="236.5" y1="-251" x2="236.5" y2="666" gradientUnits="userSpaceOnUse">
<stop stop-color="white"/>
<stop offset="0.0001" stop-color="#A90F18"/>
<stop offset="0.208333" stop-color="#450004"/>
<stop offset="0.479167" stop-color="#F13943"/>
<stop offset="0.645833" stop-color="#3D0003"/>
<stop offset="0.828125" stop-color="#D60E1A"/>
<stop offset="1" stop-color="#DC1622"/>
</linearGradient>
<linearGradient id="paint30_linear_256_20576" x1="236.5" y1="-263" x2="236.5" y2="678" gradientUnits="userSpaceOnUse">
<stop stop-color="white"/>
<stop offset="0.0001" stop-color="#A90F18"/>
<stop offset="0.208333" stop-color="#450004"/>
<stop offset="0.479167" stop-color="#F13943"/>
<stop offset="0.645833" stop-color="#3D0003"/>
<stop offset="0.828125" stop-color="#D60E1A"/>
<stop offset="1" stop-color="#DC1622"/>
</linearGradient>
<linearGradient id="paint31_linear_256_20576" x1="236.5" y1="-275" x2="236.5" y2="690" gradientUnits="userSpaceOnUse">
<stop stop-color="white"/>
<stop offset="0.0001" stop-color="#A90F18"/>
<stop offset="0.208333" stop-color="#450004"/>
<stop offset="0.479167" stop-color="#F13943"/>
<stop offset="0.645833" stop-color="#3D0003"/>
<stop offset="0.828125" stop-color="#D60E1A"/>
<stop offset="1" stop-color="#DC1622"/>
</linearGradient>
<linearGradient id="paint32_linear_256_20576" x1="236.5" y1="-287" x2="236.5" y2="702" gradientUnits="userSpaceOnUse">
<stop stop-color="white"/>
<stop offset="0.0001" stop-color="#A90F18"/>
<stop offset="0.208333" stop-color="#450004"/>
<stop offset="0.479167" stop-color="#F13943"/>
<stop offset="0.645833" stop-color="#3D0003"/>
<stop offset="0.828125" stop-color="#D60E1A"/>
<stop offset="1" stop-color="#DC1622"/>
</linearGradient>
<linearGradient id="paint33_linear_256_20576" x1="236" y1="-299" x2="236" y2="715" gradientUnits="userSpaceOnUse">
<stop stop-color="white"/>
<stop offset="0.0001" stop-color="#A90F18"/>
<stop offset="0.208333" stop-color="#450004"/>
<stop offset="0.479167" stop-color="#F13943"/>
<stop offset="0.645833" stop-color="#3D0003"/>
<stop offset="0.828125" stop-color="#D60E1A"/>
<stop offset="1" stop-color="#DC1622"/>
</linearGradient>
<radialGradient id="paint34_radial_256_20576" cx="0" cy="0" r="1" gradientUnits="userSpaceOnUse" gradientTransform="translate(236.5 207.5) rotate(90) scale(140.5)">
<stop offset="0.729167" stop-color="#4D2B64"/>
<stop offset="1" stop-color="#FF455B"/>
</radialGradient>
<radialGradient id="paint35_radial_256_20576" cx="0" cy="0" r="1" gradientUnits="userSpaceOnUse" gradientTransform="translate(236.5 207.5) rotate(91.564) scale(146.555)">
<stop offset="0.5625" stop-color="#10012D"/>
<stop offset="0.916667" stop-color="#C00A1F"/>
<stop offset="1" stop-color="#FE1021"/>
</radialGradient>
<radialGradient id="paint36_radial_256_20576" cx="0" cy="0" r="1" gradientUnits="userSpaceOnUse" gradientTransform="translate(236.5 207.5) rotate(91.564) scale(156.9)">
<stop offset="0.5625" stop-color="#10012D"/>
<stop offset="0.916667" stop-color="#C00A1F"/>
<stop offset="1" stop-color="#FE1021"/>
</radialGradient>
<radialGradient id="paint37_radial_256_20576" cx="0" cy="0" r="1" gradientUnits="userSpaceOnUse" gradientTransform="translate(236.5 207.5) rotate(90) scale(114.5)">
<stop offset="0.729167" stop-color="#4D2B64"/>
<stop offset="1" stop-color="#FF455B"/>
</radialGradient>
<radialGradient id="paint38_radial_256_20576" cx="0" cy="0" r="1" gradientUnits="userSpaceOnUse" gradientTransform="translate(236.5 207.5) rotate(67.6749) scale(124.53)">
<stop offset="0.729167" stop-color="#4D2B64"/>
<stop offset="1" stop-color="#FF455B"/>
</radialGradient>
<radialGradient id="paint39_radial_256_20576" cx="0" cy="0" r="1" gradientUnits="userSpaceOnUse" gradientTransform="translate(236.5 207.5) rotate(69.2389) scale(129.359)">
<stop offset="0.5625" stop-color="#10012D"/>
<stop offset="0.916667" stop-color="#C00A1F"/>
<stop offset="1" stop-color="#FE1021"/>
</radialGradient>
<radialGradient id="paint40_radial_256_20576" cx="0" cy="0" r="1" gradientUnits="userSpaceOnUse" gradientTransform="translate(236.5 207.5) rotate(69.2389) scale(135.926)">
<stop offset="0.5625" stop-color="#10012D"/>
<stop offset="0.916667" stop-color="#C00A1F"/>
<stop offset="1" stop-color="#FE1021"/>
</radialGradient>
<radialGradient id="paint41_radial_256_20576" cx="0" cy="0" r="1" gradientUnits="userSpaceOnUse" gradientTransform="translate(236.5 207.5) rotate(67.6749) scale(103.98)">
<stop offset="0.729167" stop-color="#4D2B64"/>
<stop offset="1" stop-color="#FF455B"/>
</radialGradient>
<linearGradient id="paint42_linear_256_20576" x1="30.3895" y1="272.714" x2="127.994" y2="271.281" gradientUnits="userSpaceOnUse">
<stop offset="0.677083" stop-color="#001223"/>
<stop offset="0.911775" stop-opacity="0"/>
</linearGradient>
<linearGradient id="paint43_linear_256_20576" x1="69" y1="53.815" x2="27.7636" y2="551.928" gradientUnits="userSpaceOnUse">
<stop stop-color="#FA0C18"/>
<stop offset="0.261246" stop-color="#750732"/>
<stop offset="0.527277" stop-color="#0B002D"/>
<stop offset="0.582847" stop-color="#050000"/>
</linearGradient>
<linearGradient id="paint44_linear_256_20576" x1="308.5" y1="97.5" x2="-18.4907" y2="383.697" gradientUnits="userSpaceOnUse">
<stop stop-color="#BB0000"/>
<stop offset="0.260417" stop-color="#003686"/>
<stop offset="0.505208" stop-color="#B70000"/>
<stop offset="0.755208" stop-color="#002D72"/>
<stop offset="1" stop-color="#B80000"/>
</linearGradient>
<linearGradient id="paint45_linear_256_20576" x1="236.5" y1="121" x2="236.5" y2="294" gradientUnits="userSpaceOnUse">
<stop offset="0.223958" stop-color="#08002E"/>
<stop offset="1" stop-color="#CA0008"/>
</linearGradient>
<linearGradient id="paint46_linear_256_20576" x1="148.501" y1="103.523" x2="334.629" y2="109.635" gradientUnits="userSpaceOnUse">
<stop stop-color="#3A1453"/>
<stop offset="0.234375" stop-color="#FF5E71"/>
<stop offset="0.463542" stop-color="#3D1459"/>
<stop offset="0.776042" stop-color="#FF6476"/>
<stop offset="1" stop-color="#3A1454"/>
</linearGradient>
<linearGradient id="paint47_linear_256_20576" x1="203.012" y1="358" x2="203.012" y2="412" gradientUnits="userSpaceOnUse">
<stop offset="0.640625" stop-opacity="0.81"/>
<stop offset="1" stop-opacity="0"/>
</linearGradient>
<linearGradient id="paint48_linear_256_20576" x1="14.2169" y1="314.227" x2="400.834" y2="385.439" gradientUnits="userSpaceOnUse">
<stop stop-color="#00124F"/>
<stop offset="0.5" stop-color="#CD0F10"/>
<stop offset="1" stop-color="#00124F"/>
</linearGradient>
<linearGradient id="paint49_linear_256_20576" x1="57" y1="369.5" x2="24" y2="369.5" gradientUnits="userSpaceOnUse">
<stop stop-color="white"/>
<stop offset="1" stop-color="white" stop-opacity="0"/>
</linearGradient>
<linearGradient id="paint50_linear_256_20576" x1="57" y1="338.5" x2="24" y2="338.5" gradientUnits="userSpaceOnUse">
<stop stop-color="white"/>
<stop offset="1" stop-color="white" stop-opacity="0"/>
</linearGradient>
<linearGradient id="paint51_linear_256_20576" x1="68" y1="354.5" x2="24" y2="354.5" gradientUnits="userSpaceOnUse">
<stop stop-color="white"/>
<stop offset="0.75" stop-color="white" stop-opacity="0"/>
</linearGradient>
<linearGradient id="paint52_linear_256_20576" x1="349" y1="369.5" x2="382" y2="369.5" gradientUnits="userSpaceOnUse">
<stop stop-color="white"/>
<stop offset="1" stop-color="white" stop-opacity="0"/>
</linearGradient>
<linearGradient id="paint53_linear_256_20576" x1="349" y1="338.5" x2="382" y2="338.5" gradientUnits="userSpaceOnUse">
<stop stop-color="white"/>
<stop offset="1" stop-color="white" stop-opacity="0"/>
</linearGradient>
<linearGradient id="paint54_linear_256_20576" x1="338" y1="354.5" x2="381" y2="354.5" gradientUnits="userSpaceOnUse">
<stop stop-color="white"/>
<stop offset="0.770833" stop-color="white" stop-opacity="0"/>
</linearGradient>
</defs>
</svg>
