<svg width="15" height="13" viewBox="0 0 15 13" fill="none" xmlns="http://www.w3.org/2000/svg">
<path d="M0 1.41281C0 0.648112 0.671573 0.0281982 1.5 0.0281982H13.5C14.3284 0.0281982 15 0.648112 15 1.41281C15 2.17752 14.3284 2.79743 13.5 2.79743H7.5H1.5C0.671573 2.79743 0 2.17752 0 1.41281Z" fill="#474747"/>
<path d="M0 6.0282C0 5.2635 0.671573 4.64358 1.5 4.64358H13.5C14.3284 4.64358 15 5.2635 15 6.0282C15 6.7929 14.3284 7.41281 13.5 7.41281H1.5C0.671573 7.41281 0 6.7929 0 6.0282Z" fill="#474747"/>
<path d="M0 10.6436C0 9.87888 0.671573 9.25897 1.5 9.25897H13.5C14.3284 9.25897 15 9.87888 15 10.6436C15 11.4083 14.3284 12.0282 13.5 12.0282H1.5C0.671573 12.0282 0 11.4083 0 10.6436Z" fill="#474747"/>
</svg>
