<svg width="1920" height="1463" viewBox="0 0 1920 1463" fill="none" xmlns="http://www.w3.org/2000/svg">
<path d="M1707.5 1011.5L1706.25 1012.33L1708.83 1010.8L1707.5 1011.5ZM1491.49 858.62L1491.45 857.12L1491.49 858.62ZM1397.66 897.396L1396.58 896.357L1396.58 896.359L1397.66 897.396ZM1463.84 993.776L1464.45 995.144L1463.84 993.776ZM1508.12 928.102L1509.61 928.264L1508.12 928.102ZM1458.42 835.83L1457.38 836.908L1458.42 835.83ZM1126.24 705.779L1126.14 707.276L1126.24 705.779ZM939.449 713.837L939.193 712.359L939.449 713.837ZM746.641 767.909L747.091 769.34L746.641 767.909ZM372.5 793.501L372.014 794.92L372.084 794.944L372.156 794.961L372.5 793.501ZM-192.702 343.789C-191.928 343.494 -191.54 342.627 -191.836 341.853C-192.131 341.079 -192.998 340.691 -193.772 340.986L-192.702 343.789ZM-232.528 365.835L-231.338 366.749L-232.528 365.835ZM-231.496 400.384C-231.103 401.113 -230.193 401.386 -229.464 400.993C-228.735 400.601 -228.462 399.691 -228.855 398.962L-231.496 400.384ZM1491.24 863.113L1491.22 861.613L1491.24 863.113ZM938.437 719.747L938.181 718.269L938.437 719.747ZM195 575.501L193.545 575.865L195 575.501ZM-4.00005 1.5L-3.82478 0.0102742L-4.42023 2.93995L-4.00005 1.5ZM188 584.001L186.545 584.365L188 584.001ZM1879.5 1458.5L1879.88 1457.05L1879.5 1458.5ZM1708.83 1010.8C1663.2 924.057 1582.44 854.288 1491.45 857.12L1491.54 860.119C1580.9 857.337 1660.8 925.944 1706.17 1012.2L1708.83 1010.8ZM1491.45 857.12C1487.92 857.23 1484.36 857.5 1480.79 857.916L1481.14 860.896C1484.63 860.489 1488.1 860.226 1491.54 860.119L1491.45 857.12ZM1480.79 857.916C1447.9 861.754 1414.14 878.062 1396.58 896.357L1398.74 898.435C1415.75 880.72 1448.83 864.666 1481.14 860.896L1480.79 857.916ZM1396.58 896.359C1390.16 903.065 1373.72 920.624 1376.71 949.537L1379.69 949.228C1376.85 921.723 1392.43 905.032 1398.74 898.433L1396.58 896.359ZM1376.71 949.537C1378.22 964.187 1389.03 980.572 1404.9 990.794C1420.85 1001.06 1442.07 1005.21 1464.45 995.144L1463.22 992.408C1441.88 1002.01 1421.74 998.065 1406.53 988.271C1391.25 978.432 1381.09 962.787 1379.69 949.228L1376.71 949.537ZM1464.45 995.144C1495.31 981.265 1506.56 956.303 1509.61 928.264L1506.63 927.94C1503.65 955.298 1492.8 979.101 1463.22 992.408L1464.45 995.144ZM1509.61 928.264C1512.32 903.32 1500.62 881.277 1485.41 862.416L1483.07 864.299C1498.09 882.927 1509.21 904.175 1506.63 927.94L1509.61 928.264ZM1485.41 862.416C1484.33 861.074 1483.22 859.746 1482.11 858.435L1479.82 860.378C1480.92 861.671 1482.01 862.978 1483.07 864.299L1485.41 862.416ZM1482.11 858.435C1474.84 849.888 1466.94 841.982 1459.47 834.752L1457.38 836.908C1464.84 844.12 1472.65 851.944 1479.82 860.378L1482.11 858.435ZM1459.47 834.752C1372.48 750.62 1244.31 711.843 1126.33 704.282L1126.14 707.276C1243.71 714.81 1371.09 753.447 1457.38 836.908L1459.47 834.752ZM1126.33 704.282C1064.49 700.319 1000.4 701.75 939.193 712.359L939.705 715.315C1000.62 704.756 1064.47 703.323 1126.14 707.276L1126.33 704.282ZM939.193 712.359C872.968 723.838 809.871 746.463 746.191 766.478L747.091 769.34C810.928 749.275 873.738 726.749 939.705 715.315L939.193 712.359ZM746.191 766.478C623.131 805.157 496.506 821.18 372.844 792.041L372.156 794.961C496.515 824.265 623.716 808.118 747.091 769.34L746.191 766.478ZM-193.772 340.986C-208.08 346.447 -223.644 351.817 -233.717 364.92L-231.338 366.749C-221.887 354.453 -207.255 349.343 -192.702 343.789L-193.772 340.986ZM-233.717 364.92C-237.695 370.095 -238.304 376.763 -237.39 383.107C-236.474 389.47 -233.998 395.738 -231.496 400.384L-228.855 398.962C-231.237 394.537 -233.567 388.608 -234.421 382.68C-235.277 376.733 -234.62 371.018 -231.338 366.749L-233.717 364.92ZM1708.75 1010.67C1656.19 930.981 1581.9 860.698 1491.22 861.613L1491.25 864.613C1580.31 863.714 1653.81 932.81 1706.25 1012.33L1708.75 1010.67ZM1491.22 861.613C1488.88 861.636 1486.52 861.72 1484.15 861.861L1484.33 864.855C1486.65 864.717 1488.96 864.636 1491.25 864.613L1491.22 861.613ZM1484.15 861.861C1450.65 863.851 1414.82 877.359 1396.58 896.357L1398.74 898.435C1416.29 880.157 1451.29 866.818 1484.33 864.855L1484.15 861.861ZM1126.33 704.282C1064.4 700.313 999.295 707.677 938.181 718.269L938.693 721.225C999.71 710.65 1064.55 703.329 1126.14 707.276L1126.33 704.282ZM938.181 718.269C871.998 729.741 809.988 746.426 746.191 766.478L747.091 769.34C810.811 749.312 872.684 732.667 938.693 721.225L938.181 718.269ZM372.986 792.082C353.14 785.288 319.24 771.875 285.195 739.788C251.157 707.708 216.891 656.882 196.455 575.137L193.545 575.865C214.109 658.12 248.648 709.466 283.137 741.971C317.62 774.47 351.969 788.058 372.014 794.92L372.986 792.082ZM196.455 575.137C185.065 529.574 172.186 467.226 157.409 400.243L154.479 400.89C169.241 467.804 182.141 530.248 193.545 575.865L196.455 575.137ZM157.409 400.243C138.229 313.302 115.861 218.601 89.4541 143.049C76.2521 105.277 62.0178 72.2229 46.631 47.2968C31.2802 22.4289 14.6112 5.36826 -3.57986 0.0600529L-4.42023 2.93995C12.6574 7.92325 28.8206 24.1558 44.0782 48.8727C59.3 73.5314 73.4503 106.353 86.6221 144.039C112.963 219.403 135.298 313.944 154.479 400.89L157.409 400.243ZM372.986 792.082C353.039 785.253 317.407 773.951 281.629 743.98C245.873 714.027 209.883 665.349 189.455 583.637L186.545 584.365C207.117 666.653 243.432 715.896 279.703 746.28C315.952 776.645 352.07 788.092 372.014 794.92L372.986 792.082ZM189.455 583.637C177.816 537.079 168.27 471.233 157.427 400.34L154.461 400.793C165.292 471.602 174.862 537.633 186.545 584.365L189.455 583.637ZM157.427 400.34C143.798 311.232 128.126 214.208 103.671 138.022C91.4433 99.9303 76.989 66.9446 59.4277 42.736C41.8615 18.5206 21.0721 2.93932 -3.82478 0.0102742L-4.17531 2.98973C19.5873 5.78534 39.7126 20.6675 56.9994 44.4976C74.2911 68.3345 88.6283 100.976 100.814 138.938C125.184 214.858 140.826 311.643 154.461 400.793L157.427 400.34ZM1705.69 1011.26C1764.8 1116.5 1781.37 1221.29 1796.42 1303.48C1803.94 1344.52 1811.1 1380.05 1823.08 1407.06C1835.08 1434.14 1852.01 1452.85 1879.12 1459.95L1879.88 1457.05C1853.94 1450.25 1837.59 1432.4 1825.82 1405.84C1814.02 1379.21 1806.91 1344.05 1799.37 1302.94C1784.33 1220.83 1767.7 1115.53 1708.31 1009.79L1705.69 1011.26ZM1879.12 1459.95C1911.39 1468.4 1944.2 1452.25 1974.73 1422.99C2005.3 1393.69 2033.93 1350.94 2058 1305.33C2082.07 1259.71 2101.62 1211.13 2114.01 1170.1C2120.2 1149.58 2124.6 1130.93 2126.88 1115.45C2129.15 1100.04 2129.35 1087.57 2126.94 1079.57L2124.06 1080.43C2126.27 1087.76 2126.17 1099.66 2123.91 1115.01C2121.66 1130.3 2117.3 1148.81 2111.13 1169.23C2098.81 1210.07 2079.33 1258.47 2055.35 1303.93C2031.35 1349.4 2002.9 1391.84 1972.65 1420.83C1942.36 1449.85 1910.61 1465.1 1879.88 1457.05L1879.12 1459.95Z" fill="#D7C5BC"/>
</svg>
