<svg width="12" height="18" viewBox="0 0 12 18" fill="none" xmlns="http://www.w3.org/2000/svg">
<path d="M5.99984 0.666656C2.77484 0.666656 0.166504 3.27499 0.166504 6.49999C0.166504 10.875 5.99984 17.3333 5.99984 17.3333C5.99984 17.3333 11.8332 10.875 11.8332 6.49999C11.8332 3.27499 9.22484 0.666656 5.99984 0.666656ZM5.99984 8.58332C5.4473 8.58332 4.9174 8.36383 4.5267 7.97313C4.136 7.58243 3.9165 7.05252 3.9165 6.49999C3.9165 5.94746 4.136 5.41755 4.5267 5.02685C4.9174 4.63615 5.4473 4.41666 5.99984 4.41666C6.55237 4.41666 7.08228 4.63615 7.47298 5.02685C7.86368 5.41755 8.08317 5.94746 8.08317 6.49999C8.08317 7.05252 7.86368 7.58243 7.47298 7.97313C7.08228 8.36383 6.55237 8.58332 5.99984 8.58332Z" fill="white"/>
</svg>
