<svg width="29" height="30" viewBox="0 0 29 30" fill="none" xmlns="http://www.w3.org/2000/svg">
<path d="M21.7501 16.706H7.25008C6.92961 16.706 6.62227 16.5787 6.39566 16.3521C6.16905 16.1255 6.04175 15.8181 6.04175 15.4976C6.04175 15.1772 6.16905 14.8698 6.39566 14.6432C6.62227 14.4166 6.92961 14.2893 7.25008 14.2893H21.7501C22.0706 14.2893 22.3779 14.4166 22.6045 14.6432C22.8311 14.8698 22.9584 15.1772 22.9584 15.4976C22.9584 15.8181 22.8311 16.1255 22.6045 16.3521C22.3779 16.5787 22.0706 16.706 21.7501 16.706Z" fill="white"/>
<g clip-path="url(#clip0_402_2)">
<path d="M16.206 7.74992V22.2499C16.206 22.5704 16.0787 22.8777 15.8521 23.1043C15.6255 23.3309 15.3181 23.4583 14.9976 23.4583C14.6772 23.4583 14.3698 23.3309 14.1432 23.1043C13.9166 22.8777 13.7893 22.5704 13.7893 22.2499L13.7893 7.74992C13.7893 7.42945 13.9166 7.1221 14.1432 6.8955C14.3698 6.66889 14.6772 6.54159 14.9976 6.54159C15.3181 6.54159 15.6255 6.66889 15.8521 6.8955C16.0787 7.1221 16.206 7.42945 16.206 7.74992Z" fill="white"/>
</g>
<defs>
<clipPath id="clip0_402_2">
<rect width="29" height="16" fill="white" transform="matrix(0 -1 1 0 6.5 29.5)"/>
</clipPath>
</defs>
</svg>
