<svg width="18" height="14" viewBox="0 0 18 14" fill="none" xmlns="http://www.w3.org/2000/svg">
<path d="M2.33342 13.6667C1.87508 13.6667 1.48258 13.5033 1.15592 13.1767C0.829249 12.85 0.666194 12.4578 0.666749 12V2.00001C0.666749 1.54168 0.830083 1.14918 1.15675 0.822511C1.48342 0.495845 1.87564 0.332789 2.33342 0.333345H15.6667C16.1251 0.333345 16.5176 0.496678 16.8442 0.823345C17.1709 1.15001 17.334 1.54223 17.3334 2.00001V12C17.3334 12.4583 17.1701 12.8508 16.8434 13.1775C16.5167 13.5042 16.1245 13.6672 15.6667 13.6667H2.33342ZM9.00008 7.83335L15.6667 3.66668V2.00001L9.00008 6.16668L2.33342 2.00001V3.66668L9.00008 7.83335Z" fill="white"/>
</svg>
