<svg width="24" height="32" viewBox="0 0 24 32" fill="none" xmlns="http://www.w3.org/2000/svg">
<path d="M20.482 3.8728C20.386 3.48889 20.2744 3.10873 20.141 2.61866C20.0211 2.8292 19.9494 2.931 19.9014 3.04256C18.9084 5.35373 17.9174 7.66589 16.9282 9.97904C15.5626 13.1654 14.1975 16.3524 12.8328 19.5402C12.473 20.384 11.8592 20.9053 10.9452 21.0141C9.09074 21.2351 7.82516 19.4619 8.57739 17.702C10.8927 12.2897 13.212 6.87949 15.5351 1.47123C15.614 1.28584 15.694 1.0999 15.7829 0.893108C15.672 0.881154 15.635 0.865295 15.6117 0.87678C15.4809 0.939124 15.3496 1.00311 15.2243 1.07639C13.0453 2.35725 10.7299 3.22248 8.17948 3.37397C7.75673 3.39912 7.62144 3.65405 7.55363 4.03576C7.02815 6.99944 6.54304 9.97193 5.93753 12.9192C4.98599 17.5565 3.49691 22.0352 1.66943 26.4028C1.60782 26.5216 1.58063 26.6551 1.59087 26.7883C1.60111 26.9215 1.64839 27.0493 1.72746 27.1576C3.62219 30.1333 7.33618 31.698 10.7824 30.9351C10.8912 30.9027 10.9922 30.8487 11.0793 30.7764C11.1664 30.7041 11.2378 30.615 11.2891 30.5145C13.0712 26.48 15.1045 22.5739 17.5866 18.9233C19.4615 16.1641 21.4816 13.5012 23.458 10.8109C23.7572 10.404 23.7285 10.1169 23.4232 9.74772C22.0094 8.03351 21.0041 6.02537 20.482 3.8728V3.8728Z" fill="#606080"/>
<path d="M5.35161 8.98025C3.90337 12.3607 2.45492 15.7416 1.00626 19.1227C0.462912 20.371 0.242305 21.7339 0.364406 23.0879C0.425665 23.7945 0.606134 24.4906 0.733621 25.1913C0.794333 25.1896 0.855589 25.188 0.916298 25.1863C3.10758 19.8562 4.65884 14.2892 5.53814 8.6001C5.47578 8.7265 5.40735 8.85056 5.35161 8.98025Z" fill="#606080"/>
<path d="M12.8722 30.2337C12.9327 30.2106 12.9916 30.184 13.0488 30.1538C14.8685 29.2515 16.3007 27.7316 17.0846 25.8709C17.9478 23.872 18.8059 21.8704 19.6588 19.8664C20.2935 18.3849 20.9284 16.9034 21.5635 15.4221C18.0183 19.9877 15.044 24.9618 12.7055 30.2359C12.761 30.2411 12.8169 30.2403 12.8722 30.2337V30.2337Z" fill="#606080"/>
<path d="M15.9153 6.49664C15.2574 6.21117 14.6596 6.47468 14.3274 7.23C13.7318 8.58469 13.1466 9.94396 12.5717 11.3078C12.5049 11.4504 12.4677 11.6047 12.4623 11.7618C12.4568 11.9188 12.4832 12.0753 12.5398 12.2221C12.5965 12.3689 12.6822 12.5029 12.7921 12.6162C12.9019 12.7295 13.0336 12.8199 13.1793 12.8819C13.322 12.9395 13.4749 12.9685 13.629 12.9674C13.7831 12.9662 13.9354 12.9349 14.0773 12.8752C14.2191 12.8154 14.3476 12.7285 14.4555 12.6194C14.5633 12.5102 14.6482 12.381 14.7054 12.2392C15.0156 11.5495 15.3037 10.8506 15.6018 10.1555C15.6003 10.1548 15.5989 10.1543 15.5974 10.1538C15.8827 9.48821 16.1752 8.82594 16.4511 8.15703C16.7697 7.38484 16.5687 6.77992 15.9153 6.49664Z" fill="#606080"/>
<path d="M11.5909 13.5955C10.9429 15.1072 10.2968 16.6192 9.65249 18.1316C9.33184 18.8879 9.54874 19.5072 10.2138 19.785C10.8734 20.0606 11.4689 19.7767 11.7956 19.0215C12.442 17.5273 13.0852 16.0317 13.7252 14.5346C13.7738 14.4039 13.8156 14.2708 13.8505 14.1359C12.7588 14.0423 12.7251 14.0287 11.7642 13.2651C11.693 13.3992 11.6339 13.4938 11.5909 13.5955Z" fill="#606080"/>
<path d="M17.3032 6.10392C17.6509 5.29236 17.9761 4.53486 18.3083 3.75822C17.5986 3.45744 16.9224 3.17134 16.2226 2.87549C15.8864 3.65979 15.5613 4.41783 15.2137 5.22939C16.0642 5.19603 16.7265 5.5133 17.3032 6.10392Z" fill="#606080"/>
</svg>
