<svg width="24" height="32" viewBox="0 0 24 32" fill="none" xmlns="http://www.w3.org/2000/svg">
<path d="M11.9981 19.5902C12.6698 19.591 13.3349 19.4597 13.955 19.2039C14.5751 18.948 15.1377 18.5728 15.6103 18.0998C16.0829 17.6269 16.456 17.0657 16.708 16.4488C16.9601 15.8318 17.086 15.1715 17.0785 14.506V5.95377C17.0846 5.28858 16.9575 4.6288 16.7048 4.01254C16.452 3.39627 16.0785 2.83573 15.6059 2.36331C15.1333 1.89088 14.5709 1.51592 13.9512 1.26009C13.3315 1.00426 12.6668 0.872633 11.9955 0.872803C11.3242 0.872973 10.6596 1.00494 10.04 1.26108C9.42045 1.51723 8.85824 1.89247 8.38587 2.36514C7.9135 2.83781 7.54031 3.39853 7.28787 4.01492C7.03543 4.63132 6.90874 5.29116 6.91512 5.95635V14.5085C6.90771 15.1741 7.03379 15.8346 7.28604 16.4515C7.5383 17.0684 7.91171 17.6295 8.38459 18.1023C8.85747 18.575 9.42041 18.95 10.0407 19.2054C10.661 19.4608 11.3264 19.5916 11.9981 19.5902ZM7.75423 7.16588V6.07448C7.75423 4.95868 8.20155 3.88859 8.99777 3.0996C9.794 2.31061 10.8739 1.86737 11.9999 1.86737C13.126 1.86737 14.2059 2.31061 15.0021 3.0996C15.7983 3.88859 16.2456 4.95868 16.2456 6.07448V7.17596C16.2456 7.38813 16.1606 7.59162 16.0092 7.74164C15.8578 7.89167 15.6524 7.97596 15.4383 7.97596C15.2242 7.97596 15.0188 7.89167 14.8674 7.74164C14.716 7.59162 14.631 7.38813 14.631 7.17596V6.07448C14.631 5.38303 14.3538 4.7199 13.8604 4.23097C13.3669 3.74204 12.6977 3.46737 11.9999 3.46737C11.3021 3.46737 10.6329 3.74204 10.1395 4.23097C9.64611 4.7199 9.36891 5.38303 9.36891 6.07448V7.16588C9.36891 7.37806 9.28385 7.58154 9.13245 7.73157C8.98104 7.8816 8.77569 7.96588 8.56157 7.96588C8.34745 7.96588 8.1421 7.8816 7.9907 7.73157C7.83929 7.58154 7.75423 7.37806 7.75423 7.16588V7.16588Z" fill="#606080"/>
<path d="M22.3929 10.0397C22.1359 10.0397 21.8895 10.1408 21.7078 10.3208C21.5261 10.5009 21.4241 10.7451 21.4241 10.9997V14.2992C21.421 16.409 20.6983 18.4558 19.3732 20.1072C18.0482 21.7586 16.1986 22.9176 14.1249 23.396V22.7348C14.1249 22.1761 13.9009 21.6403 13.5022 21.2452C13.1035 20.8501 12.5628 20.6282 11.9989 20.6282C11.4351 20.6282 10.8943 20.8501 10.4957 21.2452C10.097 21.6403 9.87297 22.1761 9.87297 22.7348V23.396C7.79928 22.9176 5.94971 21.7586 4.62464 20.1072C3.29956 18.4558 2.57683 16.409 2.5738 14.2992V10.9693C2.5738 10.7147 2.47173 10.4705 2.29004 10.2905C2.10836 10.1104 1.86194 10.0093 1.60499 10.0093C1.34805 10.0093 1.10163 10.1104 0.919942 10.2905C0.738256 10.4705 0.636185 10.7147 0.636185 10.9693V14.2992C0.639864 16.9187 1.56378 19.4552 3.24928 21.4732C4.93479 23.4912 7.27673 24.8648 9.87297 25.358V29.4534H6.43516C6.17821 29.4534 5.93179 29.5546 5.75011 29.7346C5.56842 29.9146 5.46635 30.1588 5.46635 30.4134C5.46635 30.668 5.56842 30.9122 5.75011 31.0923C5.93179 31.2723 6.17821 31.3734 6.43516 31.3734H17.5627C17.8197 31.3734 18.0661 31.2723 18.2478 31.0923C18.4295 30.9122 18.5315 30.668 18.5315 30.4134C18.5315 30.1588 18.4295 29.9146 18.2478 29.7346C18.0661 29.5546 17.8197 29.4534 17.5627 29.4534H14.1249V25.358C16.7211 24.8648 19.0631 23.4912 20.7486 21.4732C22.4341 19.4552 23.358 16.9187 23.3617 14.2992V10.9997C23.3617 10.7451 23.2596 10.5009 23.0779 10.3209C22.8962 10.1408 22.6498 10.0397 22.3929 10.0397V10.0397Z" fill="#606080"/>
</svg>
