<svg width="20" height="29" viewBox="0 0 20 29" fill="none" xmlns="http://www.w3.org/2000/svg">
<path d="M19.9226 21.7983C19.8939 20.8822 19.7668 19.9718 19.5434 19.0829C19.2124 17.7773 18.5785 16.568 17.6933 15.5528L17.4781 15.3017C17.4018 15.2198 17.3403 15.1327 17.2634 15.0558C16.5134 14.2818 15.6577 13.6178 14.7218 13.0832L13.0569 13.6181L12.0146 13.9529L10.946 14.2963C10.8969 14.3121 10.8469 14.3248 10.7971 14.3378C11.1682 14.3542 11.3949 14.6506 11.2077 14.8914L10.7011 15.543C10.6737 15.5762 10.6541 15.6152 10.6437 15.657C10.6333 15.6988 10.6324 15.7424 10.641 15.7846L12.816 25.8186L12.0213 26.2557L10.503 27.0909L9.89 27.428L9.27703 27.0909L7.75859 26.2557L6.96397 25.8186L9.13882 15.7846C9.14746 15.7424 9.14655 15.6988 9.13616 15.657C9.12576 15.6152 9.10614 15.5763 9.07874 15.543L8.57226 14.8914C8.37968 14.6436 8.6246 14.3362 9.0146 14.3362H9.17835C9.12015 14.3209 9.06194 14.3049 9.0046 14.2857L7.98187 13.9432L6.98905 13.6107L5.38687 13.074C5.36694 13.0666 5.34755 13.0579 5.32882 13.0479C1.94054 14.9517 0.157411 17.8714 0.0583485 21.8444C0.0173325 23.5762 0.0583485 25.3079 0.0583485 27.0447C0.0583485 27.8184 0.381162 28.1565 1.14968 28.1565H18.8518C19.6203 28.1565 19.943 27.8184 19.943 27.0447C19.9533 25.2925 19.984 23.5454 19.9226 21.7983Z" fill="#606080"/>
<path d="M3.73758 8.02644C3.735 8.05369 3.735 8.08113 3.73758 8.10839C3.79293 8.63357 3.91323 9.14986 4.09571 9.64542C4.22888 9.98375 4.39192 10.3095 4.58289 10.6189C4.93713 11.2486 5.40851 11.8048 5.97164 12.2575L8.62985 13.1478L9.30953 13.3753C9.49261 13.4368 9.68446 13.4681 9.87757 13.468H10.1052C10.2909 13.4681 10.4755 13.4391 10.6523 13.3822L11.3902 13.1452L13.9362 12.3273C14.8114 11.6558 15.4768 10.7485 15.8545 9.71206C15.8545 9.71206 16.0052 9.20488 16.0645 8.99472C16.4274 7.82172 16.422 6.56568 16.0491 5.39585C15.6761 4.22601 14.9536 3.1986 13.9788 2.45206C12.89 1.54497 11.5264 1.03303 10.1097 0.999555C8.693 0.966078 7.30668 1.41304 6.17633 2.26769C5.24076 2.95572 4.52807 3.90357 4.12688 4.99339C3.9184 5.48348 3.78209 6.00121 3.72219 6.53042V6.57136C3.69112 6.84345 3.68255 7.11763 3.69656 7.39113C3.69738 7.60353 3.71108 7.81569 3.73758 8.02644Z" fill="#606080"/>
</svg>
