<svg width="28" height="22" viewBox="0 0 28 22" fill="none" xmlns="http://www.w3.org/2000/svg">
<path d="M24.82 2.77258C24.795 2.76045 24.7693 2.74981 24.743 2.7407L24.7433 2.73976C24.7433 2.73976 24.7341 2.73695 24.7192 2.7325C24.7137 2.73086 24.7082 2.7293 24.7027 2.72758C24.6904 2.7239 24.6745 2.71914 24.6565 2.71383C24.632 2.70648 24.6015 2.6975 24.5667 2.68719C23.9047 2.49164 21.4123 1.76984 18.0948 0.98586C15.1127 0.281251 14.0407 1.6718 12.0934 3.61914C10.3103 5.40226 2.5541 13.7952 1.0534 15.3892C0.916393 15.5348 0.84023 15.7273 0.840508 15.9272V18.818C0.840497 18.994 0.899533 19.1649 1.00816 19.3033C1.11679 19.4417 1.26873 19.5397 1.43965 19.5815L8.64567 21.3458C8.7631 21.3745 8.88558 21.3758 9.00359 21.3495C9.12159 21.3232 9.23195 21.27 9.32606 21.1941L15.4531 16.4241L17.945 14.4165L19.3211 13.3079L18.0689 14.8226L16.5522 16.6574L20.7176 17.8099L20.7182 17.8088C20.787 17.8297 20.8564 17.8493 20.9271 17.8653C23.5425 18.46 26.4378 15.5336 27.3938 11.329C28.2957 7.36226 27.1488 3.67648 24.82 2.77258ZM8.55613 20.2559C8.55612 20.3232 8.54083 20.3896 8.5114 20.4501C8.48197 20.5106 8.43918 20.5636 8.38626 20.6051C8.33333 20.6467 8.27166 20.6756 8.2059 20.6898C8.14014 20.704 8.07202 20.7031 8.00667 20.6871L1.64613 19.1304C1.54959 19.1068 1.46377 19.0514 1.40241 18.9733C1.34105 18.8951 1.30769 18.7986 1.30769 18.6992V16.7976C1.3077 16.7304 1.323 16.664 1.35243 16.6035C1.38186 16.543 1.42466 16.4899 1.4776 16.4484C1.53053 16.4069 1.59221 16.3779 1.65797 16.3637C1.72374 16.3495 1.79187 16.3505 1.85722 16.3665L8.21769 17.9232C8.31423 17.9468 8.40005 18.0021 8.46141 18.0803C8.52277 18.1585 8.55612 18.255 8.55613 18.3544V20.2559ZM17.8706 6.65476L15.7367 8.89577C15.6776 8.95784 15.6032 9.00321 15.5209 9.02731C15.4387 9.05141 15.3516 9.05339 15.2683 9.03304L10.0114 7.74742C9.92836 7.72712 9.85217 7.68534 9.79043 7.62629C9.72869 7.56723 9.68357 7.49296 9.65961 7.41095C9.63565 7.32894 9.63368 7.24207 9.65392 7.15906C9.67415 7.07605 9.71586 6.99983 9.77487 6.93804L11.9081 4.70398C11.9671 4.64214 12.0414 4.59694 12.1234 4.57291C12.2054 4.54888 12.2924 4.54688 12.3754 4.56711L17.633 5.84578C17.716 5.86596 17.7922 5.90763 17.8541 5.9666C17.9159 6.02557 17.9611 6.09976 17.9852 6.18173C18.0092 6.2637 18.0113 6.35056 17.9912 6.43359C17.9711 6.51662 17.9295 6.59289 17.8706 6.65476L17.8706 6.65476ZM26.2141 11.1726C25.6248 13.7646 23.84 15.5687 22.2277 15.2021C22.1245 15.1785 22.0234 15.1462 21.9255 15.1058C20.5143 14.5246 19.8241 12.2698 20.3754 9.84515C20.9647 7.2532 22.7495 5.44914 24.3618 5.81578C24.6297 5.87797 24.8814 5.99595 25.1006 6.16203C26.211 6.98992 26.705 9.01359 26.2141 11.1726H26.2141Z" fill="#606080"/>
</svg>
