<svg width="33" height="36" viewBox="0 0 33 36" fill="none" xmlns="http://www.w3.org/2000/svg">
<path d="M3.46044 21.4314V14.59C2.80718 14.6819 2.14109 14.6107 1.52266 14.3828V21.5712C2.1468 21.3657 2.81282 21.3177 3.46044 21.4314V21.4314Z" fill="#FF4654"/>
<path d="M12.2481 31.4829C12.2651 31.441 12.2826 31.3995 12.3008 31.3583C12.3796 31.1813 12.4716 31.0104 12.5759 30.8469C12.6515 30.7282 12.7335 30.6137 12.8214 30.5037L6.42396 26.844C6.16389 27.4466 5.75634 27.9754 5.23816 28.3827L12.0243 32.2647C12.0531 32.0987 12.0926 31.9347 12.1427 31.7737C12.1737 31.6749 12.2095 31.5783 12.2481 31.4829Z" fill="#FF4654"/>
<path d="M25.4973 26.9659C25.4973 26.9659 25.4935 26.958 25.4973 26.966L19.1271 30.61C19.5208 31.1379 19.774 31.7555 19.8635 32.4058L26.7426 28.4705C26.2073 28.0798 25.7792 27.5626 25.4973 26.9659V26.9659Z" fill="#FF4654"/>
<path d="M23.5535 21.4314C24.5019 19.8191 25.4134 18.1852 26.288 16.5296C26.688 15.7642 27.0792 14.9936 27.4615 14.2177C27.189 14.0835 26.933 13.9187 26.6985 13.7266C26.1866 14.4409 25.6856 15.1617 25.1954 15.8888C24.1729 17.4073 23.1882 18.948 22.2412 20.5109L20.4 19.2194C20.2379 19.7624 19.9715 20.2693 19.6156 20.7123C19.5569 20.7859 19.4965 20.8579 19.4334 20.9276C19.4247 20.9372 19.4162 20.947 19.4074 20.9566C19.3898 20.9758 19.3712 20.9941 19.3532 21.0129L21.3854 21.9392C20.3813 23.6398 19.4173 25.3638 18.4936 27.1114C18.1174 27.8315 17.7487 28.556 17.3876 29.2849C17.6794 29.3989 17.9565 29.547 18.213 29.7259C18.6783 29.0724 19.1348 28.4138 19.5825 27.7501C20.7185 26.0631 21.8088 24.3491 22.8534 22.6083L25.4325 23.7838C25.5436 23.5221 25.6831 23.2731 25.8485 23.0412L23.5535 21.4314Z" fill="#FF4654"/>
<path d="M19.2566 18.4174C19.3703 17.6793 19.2201 16.9249 18.832 16.2849C18.4439 15.6448 17.8423 15.1592 17.1311 14.912C16.42 14.6648 15.6441 14.6716 14.9374 14.9312C14.2308 15.1908 13.6379 15.6868 13.2613 16.3336C12.8846 16.9803 12.7479 17.7372 12.8747 18.4732C13.0015 19.2093 13.3838 19.8783 13.9557 20.3647C14.5275 20.851 15.2529 21.1241 16.0064 21.1367C16.7599 21.1494 17.4942 20.9007 18.0824 20.4338C18.7159 19.9321 19.1353 19.212 19.2566 18.4174V18.4174Z" fill="#FF4654"/>
<path d="M19.2866 5.35506V5.35514L25.6496 8.99505C25.7414 8.80654 25.8484 8.6256 25.9693 8.45396C26.0315 8.36537 26.0966 8.27888 26.1658 8.19576C26.2063 8.14724 26.2478 8.09969 26.2905 8.0531C26.4306 7.90089 26.5824 7.75975 26.7446 7.63099C26.8004 7.58654 26.8574 7.54365 26.9157 7.50232L20.0039 3.54842V3.54834C19.9219 4.20077 19.6752 4.82218 19.2866 5.35506V5.35506Z" fill="#FF4654"/>
<path d="M13.9771 4.70901C14.2002 4.98682 14.4773 5.21736 14.7921 5.38692C15.1069 5.55648 15.4529 5.6616 15.8095 5.69604C15.8944 5.70416 15.9802 5.70901 16.0673 5.70901C16.1543 5.70901 16.2401 5.70416 16.325 5.69604C16.9865 5.63108 17.6001 5.32519 18.047 4.83762C18.4939 4.35005 18.7422 3.71551 18.7439 3.0569C18.7439 2.97713 18.7388 2.89854 18.7319 2.82049C18.6727 2.16078 18.3663 1.54694 17.8731 1.09985C17.38 0.652747 16.7358 0.404785 16.0673 0.404785C15.3989 0.404785 14.7546 0.652747 14.2615 1.09985C13.7683 1.54694 13.462 2.16078 13.4027 2.82049C13.3957 2.89854 13.3907 2.97713 13.3907 3.0569C13.3905 3.6577 13.5974 4.24056 13.9771 4.70901V4.70901Z" fill="#FF4654"/>
<path d="M6.84879 11.1437C7.72818 11.2159 8.60758 11.274 9.48689 11.3236C11.4057 11.4262 13.3247 11.4783 15.2435 11.491L15.04 13.5742C15.7157 13.4175 16.4188 13.4175 17.0945 13.5742L16.8911 11.4916C18.8099 11.4805 20.7288 11.4252 22.6476 11.3258C23.5271 11.2764 24.4066 11.2184 25.2861 11.1459V11.1459C25.2507 10.8475 25.2507 10.546 25.2861 10.2477C24.4066 10.1752 23.5271 10.1171 22.6476 10.0677C20.6771 9.96234 18.7064 9.91007 16.7357 9.90085L16.4495 6.97046C16.3237 6.98233 16.1963 6.98897 16.0673 6.98897C15.9383 6.98897 15.8109 6.98233 15.685 6.97046L15.3988 9.90139C13.4282 9.9121 11.4576 9.96443 9.4869 10.0698C8.60758 10.1194 7.72818 10.1775 6.84879 10.2498C6.8838 10.5467 6.8838 10.8468 6.84879 11.1437L6.84879 11.1437Z" fill="#FF4654"/>
<path d="M8.48593 21.4983L6.10423 23.1689C6.25225 23.3952 6.37631 23.6361 6.47442 23.8877L9.17585 22.6564C10.2148 24.3787 11.2954 26.0766 12.4176 27.7501C12.8526 28.3921 13.2945 29.03 13.7433 29.664C13.8909 29.5669 14.0448 29.4797 14.2041 29.4029C14.2069 29.4016 14.2095 29.4001 14.2122 29.3988C14.3357 29.3401 14.4622 29.2878 14.5911 29.242C14.2382 28.5268 13.8767 27.8166 13.5065 27.1115C12.5948 25.3784 11.6403 23.6705 10.6431 21.9876L12.7815 21.0129C12.4092 20.6253 12.1109 20.174 11.901 19.6809C11.8627 19.5912 11.8284 19.4996 11.796 19.407C11.7742 19.345 11.7538 19.2825 11.7346 19.2193L9.79899 20.5772C8.83712 18.9932 7.83903 17.4304 6.80472 15.8889C6.3284 15.1856 5.84353 14.4873 5.35012 13.7939C5.10753 13.9822 4.84363 14.1418 4.56377 14.2696C4.93648 15.0289 5.31924 15.7822 5.71204 16.5297C6.59601 18.2097 7.52064 19.8659 8.48593 21.4983Z" fill="#FF4654"/>
<path d="M28.6743 22.687C28.0075 22.7981 27.41 23.1604 27.0068 23.6982C26.6036 24.2359 26.426 24.9073 26.5112 25.5719C26.5964 26.2364 26.9378 26.8426 27.4638 27.2634C27.9899 27.6842 28.6598 27.887 29.3334 27.8294C30.007 27.7718 30.632 27.4582 31.0775 26.9543C31.523 26.4504 31.7545 25.7953 31.7235 25.1261C31.6925 24.4569 31.4014 23.8256 30.9112 23.3643C30.421 22.9029 29.7697 22.6474 29.0936 22.6512C28.9531 22.6522 28.8129 22.6642 28.6743 22.687Z" fill="#FF4654"/>
<path d="M5.29479 24.4252C5.07298 23.8117 4.62698 23.3029 4.04493 22.9994C3.46288 22.696 2.78711 22.6198 2.15116 22.7861C1.5152 22.9524 0.965318 23.3489 0.61016 23.8975C0.255002 24.446 0.120405 25.1065 0.232965 25.7486C0.345524 26.3907 0.697052 26.9676 1.21809 27.3653C1.73913 27.763 2.39177 27.9526 3.04706 27.8966C3.70236 27.8407 4.31263 27.5432 4.7573 27.063C5.20197 26.5828 5.44869 25.9549 5.44871 25.3032C5.44804 25.004 5.39599 24.7071 5.29479 24.4252V24.4252Z" fill="#FF4654"/>
<path d="M6.48502 8.99505L12.8481 5.35514L12.8413 5.34568C12.7943 5.28084 12.7493 5.21451 12.7063 5.1467C12.3986 4.66215 12.2021 4.11648 12.1308 3.54834V3.54842L5.21895 7.50232C5.76029 7.8872 6.19558 8.40042 6.48502 8.99505V8.99505Z" fill="#FF4654"/>
<path d="M4.59196 12.7545C5.09933 12.3453 5.43763 11.766 5.54278 11.1262C5.64792 10.4865 5.51262 9.83071 5.16249 9.28316C4.81236 8.73562 4.27172 8.33432 3.64297 8.15528C3.01423 7.97624 2.34105 8.03189 1.75094 8.31168C1.16083 8.59148 0.694776 9.07599 0.441053 9.67345C0.187331 10.2709 0.163562 10.9398 0.374248 11.5535C0.584934 12.1671 1.01544 12.6829 1.58423 13.0031C2.15302 13.3234 2.82059 13.4258 3.46048 13.291C3.64931 13.2509 3.83315 13.1905 4.00871 13.1108C4.21772 13.0173 4.41373 12.8975 4.59196 12.7545V12.7545Z" fill="#FF4654"/>
<path d="M28.6742 14.59V21.3933C28.8135 21.3787 28.9534 21.3713 29.0935 21.3712C29.6146 21.3708 30.1306 21.4723 30.612 21.67V14.3828C29.9935 14.6107 29.3274 14.6819 28.6742 14.59Z" fill="#FF4654"/>
<path d="M26.5515 10.6967C26.5451 11.4125 26.8203 12.1026 27.3187 12.6208C27.8171 13.1389 28.4997 13.4444 29.2215 13.4723C29.9434 13.5003 30.6479 13.2486 31.1857 12.7706C31.7234 12.2926 32.0522 11.6258 32.1021 10.9117C32.1521 10.1976 31.9194 9.4923 31.4534 8.94531C30.9874 8.39831 30.3247 8.05266 29.6059 7.98162C28.887 7.91058 28.1685 8.11974 27.6026 8.56477C27.0367 9.00979 26.6681 9.65568 26.5747 10.3655C26.56 10.4753 26.5523 10.5859 26.5515 10.6967V10.6967Z" fill="#FF4654"/>
<path d="M17.4574 30.7661C17.0558 30.4914 16.5861 30.3305 16.0991 30.3009C15.612 30.2713 15.126 30.3741 14.6935 30.5981C14.2611 30.8222 13.8987 31.1591 13.6453 31.5723C13.392 31.9856 13.2574 32.4596 13.2561 32.9431C13.2561 32.9522 13.2573 32.9611 13.2574 32.9702C13.2639 33.6549 13.5377 34.3106 14.0214 34.7997C14.505 35.2888 15.161 35.5735 15.8518 35.594C16.5426 35.6145 17.2146 35.3692 17.7269 34.9097C18.2392 34.4501 18.5521 33.8118 18.6 33.1287C18.6043 33.0671 18.6094 33.0057 18.6094 32.9431C18.61 32.3274 18.3934 31.7308 17.997 31.2566C17.8404 31.0696 17.6589 30.9046 17.4574 30.7661Z" fill="#FF4654"/>
</svg>
