<svg width="33" height="26" viewBox="0 0 33 26" fill="none" xmlns="http://www.w3.org/2000/svg">
<path d="M22.5307 23.8991H18.226V4.73661L27.8746 2.40208C28.1374 2.33849 28.3642 2.1731 28.5051 1.9423C28.6459 1.71149 28.6894 1.43418 28.6258 1.17137C28.5622 0.908558 28.3968 0.68177 28.166 0.540898C27.9352 0.400026 27.6579 0.356609 27.3951 0.420199L18.0894 2.67176C17.9328 2.24022 17.6472 1.86727 17.2714 1.60346C16.8957 1.33965 16.4479 1.19773 15.9888 1.19692H15.9887C15.3956 1.19758 14.8269 1.4335 14.4075 1.85292C13.9881 2.27235 13.7521 2.84102 13.7515 3.43418V3.72137L4.10288 6.0559C3.97258 6.08723 3.84974 6.14393 3.74137 6.22278C3.633 6.30162 3.54124 6.40106 3.47134 6.51539C3.40144 6.62973 3.35476 6.75673 3.33398 6.88912C3.31321 7.02152 3.31873 7.15671 3.35025 7.28696C3.38177 7.41722 3.43865 7.53998 3.51766 7.64823C3.59666 7.75648 3.69623 7.84809 3.81067 7.91783C3.92511 7.98756 4.05218 8.03405 4.1846 8.05463C4.31702 8.07521 4.45221 8.06949 4.58241 8.03778L13.7515 5.81926V23.8991H9.44679C9.17639 23.8991 8.91707 24.0065 8.72587 24.1977C8.53467 24.3889 8.42726 24.6482 8.42726 24.9186C8.42726 25.189 8.53467 25.4484 8.72587 25.6396C8.91707 25.8308 9.17639 25.9382 9.44679 25.9382H22.5307C22.8011 25.9382 23.0604 25.8308 23.2516 25.6396C23.4428 25.4484 23.5502 25.189 23.5502 24.9186C23.5502 24.6482 23.4428 24.3889 23.2516 24.1977C23.0604 24.0065 22.8011 23.8991 22.5307 23.8991L22.5307 23.8991Z" fill="#606080"/>
<path d="M10.9288 13.6173C10.9667 13.4646 10.9693 13.3052 10.9365 13.1513C10.9037 12.9973 10.8364 12.8529 10.7396 12.7288C10.6428 12.6048 10.519 12.5043 10.3777 12.4351C10.2363 12.3659 10.0811 12.3297 9.92372 12.3293H1.36582C1.20845 12.3298 1.05323 12.3659 0.911894 12.4351C0.770559 12.5043 0.646807 12.6048 0.549991 12.7288C0.453175 12.8529 0.385829 12.9974 0.353043 13.1513C0.320257 13.3052 0.322889 13.4646 0.360741 13.6173C0.649576 14.8008 1.32736 15.8531 2.28547 16.6055C3.24358 17.3579 4.42654 17.7668 5.64476 17.7668C6.86299 17.7668 8.04595 17.3579 9.00406 16.6055C9.96217 15.8531 10.64 14.8008 10.9288 13.6173H10.9288Z" fill="#606080"/>
<path d="M30.9939 9.05688H22.436C22.2786 9.0573 22.1234 9.09348 21.9821 9.16269C21.8408 9.2319 21.717 9.33234 21.6202 9.4564C21.5234 9.58047 21.456 9.72492 21.4232 9.87883C21.3904 10.0327 21.3931 10.1921 21.4309 10.3449C21.7198 11.5283 22.3975 12.5806 23.3556 13.333C24.3138 14.0854 25.4967 14.4944 26.7149 14.4944C27.9332 14.4944 29.1161 14.0854 30.0742 13.333C31.0323 12.5806 31.7101 11.5283 31.999 10.3449C32.0368 10.1921 32.0395 10.0327 32.0067 9.87882C31.9739 9.7249 31.9066 9.58044 31.8097 9.45638C31.7129 9.33231 31.5892 9.23187 31.4478 9.16266C31.3065 9.09346 31.1513 9.05728 30.9939 9.05688Z" fill="#606080"/>
</svg>
