<svg width="34" height="34" viewBox="0 0 34 34" fill="none" xmlns="http://www.w3.org/2000/svg">
<path d="M21.2736 16.9459L21.2206 16.8839C21.1775 16.8377 21.1428 16.7885 21.0994 16.7452C20.6056 16.2353 20.0312 15.8103 19.3992 15.4873L19.0696 15.3283C19.0895 15.3283 19.1042 15.2965 19.1215 15.282C19.6645 14.8967 20.077 14.355 20.3042 13.7292C20.3042 13.7292 20.3892 13.443 20.4228 13.3244C20.6276 12.6624 20.6245 11.9535 20.414 11.2932C20.2036 10.633 19.7958 10.0531 19.2456 9.6318C18.6311 9.11985 17.8615 8.83092 17.062 8.81202C16.2624 8.79313 15.48 9.04538 14.8421 9.52774C14.3141 9.91606 13.9118 10.451 13.6853 11.066C13.5677 11.3426 13.4908 11.6348 13.457 11.9335V11.9566C13.4394 12.1102 13.4346 12.2649 13.4425 12.4193C13.443 12.5392 13.4507 12.6589 13.4656 12.7779C13.4642 12.7933 13.4642 12.8088 13.4656 12.8241C13.4969 13.1206 13.5648 13.4119 13.6678 13.6916C13.7429 13.8826 13.835 14.0664 13.9428 14.241C14.166 14.6384 14.4716 14.9835 14.8391 15.2531C14.8666 15.2797 14.8956 15.3049 14.9259 15.3283L14.5934 15.4873C13.8744 15.8474 13.231 16.3417 12.6978 16.9435C13.2034 17.0858 13.674 17.3312 14.0801 17.6643C14.6119 18.0763 15.0196 18.627 15.2584 19.2559C15.7957 18.9946 16.385 18.8578 16.9824 18.8557C17.0138 18.8557 17.0455 18.8561 17.0765 18.8568C17.657 18.872 18.2271 19.0146 18.7465 19.2745C18.7549 19.2528 18.762 19.2307 18.771 19.2092C19.0182 18.552 19.4504 17.9805 20.0156 17.5637C20.393 17.2816 20.8196 17.0721 21.2736 16.9459V16.9459Z" fill="#606080"/>
<path d="M25.4322 23.9424C25.4003 23.9082 25.3747 23.8718 25.3427 23.8398C24.9777 23.4629 24.553 23.1488 24.0859 22.91L23.8423 22.7925C23.8571 22.7925 23.8679 22.769 23.8807 22.7583C24.2821 22.4735 24.587 22.0732 24.7549 21.6106C24.7549 21.6106 24.8178 21.399 24.8425 21.3114C24.9939 20.822 24.9917 20.298 24.8361 19.81C24.6805 19.322 24.3791 18.8934 23.9724 18.582C23.5183 18.2035 22.9495 17.99 22.3585 17.976C22.3378 17.9756 22.317 17.9753 22.2963 17.9753C21.7272 17.9801 21.1743 18.1656 20.7175 18.505C20.3273 18.7921 20.03 19.1875 19.8626 19.6421C19.8169 19.75 19.7796 19.8611 19.7509 19.9746C20.2797 20.4638 20.6598 21.0922 20.8477 21.7876C21.0356 22.483 21.0236 23.2173 20.8132 23.9062C20.7992 23.955 20.7682 24.0979 20.7682 24.0979L20.7532 24.1391L20.6977 24.2921C20.6248 24.4928 20.5351 24.6869 20.4294 24.8724C20.6512 25.0464 20.861 25.2353 21.0574 25.4376C21.1109 25.492 21.151 25.5405 21.1756 25.5701L21.1814 25.5771L21.1894 25.5858L21.2052 25.6041L21.2971 25.7114C21.7122 26.1906 22.0324 26.7444 22.2406 27.3433C23.6209 26.6404 24.8475 25.6699 25.8488 24.4882C25.7513 24.333 25.642 24.1856 25.522 24.0472L25.4322 23.9424Z" fill="#606080"/>
<path d="M13.3473 18.582C12.8913 18.2068 12.3236 17.9937 11.7334 17.976C11.7126 17.9756 11.6919 17.9753 11.6712 17.9753C11.1013 17.9753 10.547 18.1613 10.0924 18.505C9.70214 18.7921 9.40485 19.1875 9.23749 19.6421C9.1505 19.8466 9.09363 20.0625 9.06866 20.2833V20.3004C9.05568 20.4139 9.0521 20.5283 9.05796 20.6424C9.0583 20.731 9.06402 20.8195 9.07507 20.9074C9.07397 20.9187 9.07397 20.9302 9.07507 20.9416C9.09813 21.1607 9.14831 21.376 9.22444 21.5828C9.28001 21.7239 9.34804 21.8598 9.42772 21.9889C9.59273 22.2826 9.81864 22.5377 10.0903 22.737C10.1106 22.7567 10.132 22.7752 10.1544 22.7925L9.90858 22.91C9.1877 23.2619 8.57775 23.8057 8.14569 24.4816C9.14723 25.6653 10.3747 26.6376 11.7562 27.3416C12.1045 26.3545 12.7359 25.4919 13.5715 24.8616C13.4628 24.6796 13.3691 24.489 13.2915 24.2917L13.2867 24.2796L13.2822 24.2674C13.2665 24.2251 13.2535 24.1819 13.2394 24.1391C13.1491 23.8679 13.0882 23.5878 13.0576 23.3036L13.0572 23.2995L13.0568 23.2953C13.054 23.2669 13.0521 23.2384 13.0511 23.2099C13.0405 23.1061 13.0345 23.0006 13.0332 22.8951C13.0267 22.7431 13.0305 22.5909 13.0444 22.4395V22.4153L13.0518 22.3497C13.0899 22.0121 13.1755 21.6815 13.306 21.3678C13.5088 20.8297 13.8316 20.3449 14.2499 19.9503C14.2379 19.9034 14.2258 19.8564 14.211 19.8101C14.0556 19.322 13.7541 18.8933 13.3473 18.582V18.582Z" fill="#606080"/>
<path d="M32.9262 15.9805H32.7852C32.5327 12.1475 30.896 8.53671 28.1797 5.82044C25.4634 3.10417 21.8527 1.46743 18.0196 1.21491V1.07397C18.0196 0.803578 17.9122 0.544256 17.721 0.353057C17.5298 0.161858 17.2705 0.0544434 17.0001 0.0544434C16.7297 0.0544434 16.4704 0.161858 16.2792 0.353057C16.088 0.544256 15.9805 0.803578 15.9805 1.07397V1.21491C12.1475 1.46743 8.53671 3.10417 5.82044 5.82044C3.10416 8.53671 1.46743 12.1475 1.21491 15.9805H1.07397C0.940088 15.9805 0.807512 16.0069 0.683817 16.0581C0.560121 16.1094 0.447729 16.1845 0.353057 16.2792C0.258384 16.3738 0.183286 16.4862 0.13205 16.6099C0.0808139 16.7336 0.0544434 16.8662 0.0544434 17.0001C0.0544434 17.134 0.0808139 17.2665 0.13205 17.3902C0.183286 17.5139 0.258384 17.6263 0.353057 17.721C0.447729 17.8157 0.560121 17.8908 0.683817 17.942C0.807512 17.9932 0.940088 18.0196 1.07397 18.0196H1.21491C1.47849 22.1141 3.3258 25.9452 6.36546 28.7011C6.57866 28.8951 6.79733 29.083 7.02148 29.265C7.28327 29.4784 7.55176 29.6837 7.82694 29.8808C8.12015 30.0901 8.42067 30.2895 8.72851 30.4787C9.58637 31.0072 10.4929 31.4522 11.4357 31.8077C11.6515 31.8891 11.8694 31.9657 12.0896 32.0378C12.9394 32.3161 13.8115 32.5212 14.6963 32.6508C15.1192 32.7127 15.5473 32.7576 15.9805 32.7853V32.9262C15.9805 33.1966 16.088 33.4559 16.2792 33.6471C16.4704 33.8383 16.7297 33.9457 17.0001 33.9457C17.2705 33.9457 17.5298 33.8383 17.721 33.6471C17.9122 33.4559 18.0196 33.1966 18.0196 32.9262V32.7853C18.4526 32.7576 18.8806 32.7127 19.3038 32.6508C20.1891 32.521 21.0617 32.3158 21.9119 32.0373C22.1319 31.9654 22.3496 31.8887 22.5652 31.8074C23.5077 31.452 24.414 31.0071 25.2716 30.4787C25.579 30.2894 25.8795 30.0901 26.173 29.8808C26.4489 29.6838 26.718 29.4781 26.9802 29.2638C27.2037 29.0816 27.4221 28.8938 27.6355 28.7003C30.6747 25.9444 32.5216 22.1137 32.7852 18.0196H32.9262C33.1966 18.0196 33.4559 17.9122 33.6471 17.721C33.8383 17.5298 33.9457 17.2705 33.9457 17.0001C33.9457 16.7297 33.8383 16.4703 33.6471 16.2791C33.4559 16.0879 33.1966 15.9805 32.9262 15.9805L32.9262 15.9805ZM28.5521 15.9805H28.3162C28.0458 15.9805 27.7865 16.088 27.5953 16.2792C27.4041 16.4704 27.2967 16.7297 27.2967 17.0001C27.2967 17.2705 27.4041 17.5298 27.5953 17.721C27.7865 17.9122 28.0458 18.0196 28.3162 18.0196H30.7382C30.5272 20.8989 29.4129 23.6382 27.5541 25.8473C27.3844 26.0493 27.208 26.2455 27.0273 26.4375C26.8437 26.6323 26.6547 26.8217 26.4602 27.0055C25.4878 27.926 24.3869 28.7005 23.1919 29.3047C22.9907 29.4064 22.7867 29.5032 22.58 29.5952C22.3879 29.6806 22.1935 29.7617 21.9969 29.8383C21.9516 29.8559 21.9069 29.8746 21.8616 29.8918C21.7129 29.948 21.5625 30.0004 21.4115 30.0516C20.3153 30.4261 19.1751 30.6569 18.0196 30.7383V28.5521C18.0676 28.5479 18.1162 28.5458 18.164 28.5411C19.1923 28.4376 20.2019 28.196 21.1656 27.8229C21.0079 27.328 20.7503 26.8706 20.409 26.4791L20.3137 26.3678C20.2798 26.3315 20.2526 26.2929 20.2185 26.2588C19.8308 25.8585 19.3798 25.5249 18.8837 25.2712L18.6248 25.1464C18.6405 25.1464 18.6521 25.1215 18.6657 25.1101C19.089 24.8046 19.4122 24.3803 19.5942 23.891C19.5942 23.891 19.661 23.6662 19.6873 23.5732C19.7025 23.524 19.7148 23.4741 19.7272 23.4243C19.8497 22.9217 19.8238 22.3945 19.6527 21.9063C19.4815 21.4182 19.1725 20.9902 18.763 20.6741C18.2781 20.2768 17.6755 20.0505 17.0489 20.0305C17.0268 20.03 17.0046 20.0298 16.9825 20.0298C16.4579 20.0299 15.944 20.1785 15.5002 20.4584C15.4338 20.5002 15.369 20.5449 15.3058 20.5923C14.8915 20.8975 14.5759 21.3174 14.3977 21.8001C14.3053 22.0173 14.2449 22.2467 14.2184 22.4812V22.4994C14.2123 22.5525 14.209 22.6059 14.2068 22.6593L14.2064 22.6642C14.2039 22.7303 14.2037 22.7965 14.207 22.8626C14.2074 22.9567 14.2135 23.0507 14.2252 23.1441C14.2241 23.1561 14.2241 23.1683 14.2252 23.1804C14.2342 23.2655 14.2484 23.3498 14.2649 23.4337C14.2933 23.5792 14.3331 23.7222 14.3839 23.8615C14.422 23.9563 14.4654 24.049 14.514 24.1389C14.5415 24.1908 14.5688 24.2427 14.5998 24.2928C14.775 24.6048 15.015 24.8757 15.3035 25.0874C15.3251 25.1083 15.3478 25.128 15.3716 25.1464L15.1106 25.2712C13.9546 25.8712 13.1923 26.7202 12.833 27.8223C13.7977 28.1959 14.8083 28.4378 15.8376 28.5412C15.8849 28.5459 15.933 28.548 15.9805 28.5521V30.7383C14.8246 30.6569 13.6841 30.4259 12.5876 30.0512C12.4369 30.0001 12.2869 29.9479 12.1386 29.8918C12.0927 29.8744 12.0476 29.8556 12.0019 29.8378C11.8049 29.7608 11.6101 29.6795 11.4175 29.594C11.2116 29.5024 11.0085 29.406 10.8082 29.3047C9.61158 28.6996 8.50928 27.9238 7.53585 27.0016C7.34007 26.8163 7.14978 26.6255 6.96499 26.4291C6.78428 26.237 6.60803 26.0408 6.4385 25.8385C4.58415 23.6309 3.47265 20.895 3.26194 18.0196H5.68397C5.81786 18.0196 5.95043 17.9932 6.07413 17.942C6.19782 17.8908 6.31022 17.8157 6.40489 17.721C6.49956 17.6263 6.57466 17.5139 6.6259 17.3902C6.67713 17.2665 6.7035 17.134 6.7035 17.0001C6.7035 16.8662 6.67713 16.7336 6.6259 16.6099C6.57466 16.4862 6.49956 16.3738 6.40489 16.2792C6.31022 16.1845 6.19782 16.1094 6.07413 16.0582C5.95043 16.0069 5.81786 15.9805 5.68397 15.9805H3.26195C3.51028 12.6898 4.93002 9.59708 7.26355 7.26355C9.59708 4.93002 12.6898 3.51029 15.9805 3.26195V5.68398C15.9805 5.95438 16.088 6.2137 16.2792 6.4049C16.4704 6.5961 16.7297 6.70351 17.0001 6.70351C17.2705 6.70351 17.5298 6.5961 17.721 6.4049C17.9122 6.2137 18.0196 5.95438 18.0196 5.68398V3.26194C21.3104 3.51028 24.4031 4.93002 26.7366 7.26355C29.0701 9.59707 30.4899 12.6898 30.7382 15.9805H28.5521Z" fill="#606080"/>
</svg>
