<svg version="1.1" id="Слой_5" xmlns="http://www.w3.org/2000/svg" xmlns:xlink="http://www.w3.org/1999/xlink" x="0px" y="0px"
	 width="10095.5195313px" height="14947.1318359px" viewBox="0 0 10095.5195313 14947.1318359"
	 style="enable-background:new 0 0 10095.5195313 14947.1318359;" xml:space="preserve">
<style type="text/css">
	.card41-0{fill:#845599;}
	.card41-1{fill:#FFFFFF;}
	.card41-2{fill:#0F1312;}
	.card41-3{fill:url(#card41-_1_);}
	.card41-4{fill:none;}
	.card41-5{fill:url(#card41-_2_);}
	.card41-6{fill:url(#card41-_3_);}
	.card41-7{fill:url(#card41-_4_);}
	.card41-8{fill:url(#card41-_5_);}
	.card41-9{fill:url(#card41-_6_);}
	.card41-10{fill:url(#card41-_7_);}
	.card41-11{fill:url(#card41-_8_);}
	.card41-12{fill:url(#card41-_9_);}
	.card41-13{fill:url(#card41-_10_);}
	.card41-14{fill:url(#card41-_11_);}
	.card41-15{fill:url(#card41-_12_);}
	.card41-16{fill:url(#card41-_13_);}
	.card41-17{fill:#B87D66;}
	.card41-18{fill:#BE8162;}
	.card41-19{fill:url(#card41-_14_);}
	.card41-20{fill:url(#card41-_15_);}
	.card41-21{fill:url(#card41-_16_);}
	.card41-22{fill:url(#card41-_17_);}
	.card41-23{fill:#A26E53;}
	.card41-24{fill:url(#card41-_18_);}
	.card41-25{fill:url(#card41-_19_);}
	.card41-26{fill:url(#card41-_20_);}
	.card41-27{fill:url(#card41-_21_);}
	.card41-28{fill:url(#card41-_22_);}
	.card41-29{fill:url(#card41-_23_);}
	.card41-30{fill:#A57055;}
	.card41-31{fill:url(#card41-_24_);}
	.card41-32{fill:url(#card41-_25_);}
	.card41-33{fill:url(#card41-_26_);}
	.card41-34{fill:url(#card41-_27_);}
	.card41-35{fill:#4C2D6A;}
	.card41-36{fill:url(#card41-_28_);}
	.card41-37{fill:url(#card41-_29_);}
	.card41-38{fill:#72586E;}
	.card41-39{fill:#73586E;}
	.card41-40{fill:#907971;}
</style>
<g>
	<g>
		<g>
			<g>
				<path class="card41-0" d="M367.8139648,7528.8608398c-12.6757813-205.3125-22.6708984-664.9316406-35.3173828-1246.8212891
					C303.097168,4929.5639648,258.668457,2885.6872559,130.987793,1731.1950684l-2.9785156-26.9335938l27.0947266,0.4298096
					c31.1669922,0.493042,62.9052734,0.7469482,94.3261719,0.7469482
					c479.2529297-0.0048828,911.0351563-54.1015625,1184.6337891-148.4228516l63.0517578-21.7333984l-34.9267578,56.8164063
					c-180.3857422,293.4765625-664.2382813,472.6904297-1046.6601563,518.0371094v5417.2509766L367.8139648,7528.8608398z"/>
				<g>
					<path class="card41-1" d="M1441.8447266,1579.5941162c-189.9133301,308.9794922-710.8276367,473.0369873-1050.1965332,509.196167
						v5438.5986328c-42.0239258-680.6118164-54.1088867-4145.7763672-236.9250488-5798.8193359
						c31.3000488,0.4968262,62.8588867,0.748291,94.6960449,0.748291
						C673.1362305,1729.3182373,1136.9729004,1684.6942139,1441.8447266,1579.5941162 M1552.3781738,1490.9710693
						l-126.0986328,43.470459c-271.2072754,93.4942627-700.15625,147.1160889-1176.8603516,147.1160889
						c-31.2915039,0-62.8967285-0.2490234-93.9379883-0.7415771l-54.1870117-0.8599854l5.958252,53.8641357
						C234.8134766,2887.2436523,279.2287598,4930.4624023,308.6196289,6282.503418
						c12.65625,582.1855469,22.6513672,1042.0322266,35.3588867,1247.8291016l95.4309082-2.9433594V2131.2072754
						c183.9562988-24.0791016,382.8161621-78.2258301,552.1948242-150.8081055
						c230.8666992-98.9312744,400.6274414-228.8787842,490.9301758-375.7958984L1552.3781738,1490.9710693
						L1552.3781738,1490.9710693z"/>
				</g>
			</g>
		</g>
		<g>
			<g>
				<path class="card41-0" d="M9679.9912109,7527.3862305V2110.135498
					c-382.421875-45.3466797-866.2744141-224.5605469-1046.6601563-518.0371094l-34.9267578-56.8164063l63.0517578,21.7333984
					c273.6083984,94.3261719,705.390625,148.4228516,1184.6337891,148.4228516
					c31.4355469,0,63.1738281-0.2539063,94.3261719-0.7469482l27.0947266-0.4298096l-2.9785156,26.9335938
					c-127.6806641,1154.4921875-172.109375,3198.3688965-201.5087891,4550.8447266
					c-12.6464844,581.8896484-22.6416016,1041.5087891-35.3173828,1246.8212891L9679.9912109,7527.3862305z"/>
				<g>
					<path class="card41-1" d="M8653.6757813,1579.5941162c304.8720703,105.1000977,768.7070313,149.7241211,1192.4257813,149.7241211
						c31.8359375,0,63.3955078-0.2514648,94.6953125-0.748291
						c-182.8154297,1653.0426025-194.9013672,5118.2075195-236.9248047,5798.8193359V2088.7902832
						C9364.5019531,2052.6311035,8843.5898438,1888.5736084,8653.6757813,1579.5941162 M8543.1425781,1490.9710693
						l69.84375,113.6322021c90.3027344,146.9171143,260.0634766,276.8652344,490.9306641,375.7958984
						c169.3779297,72.5822754,368.2373047,126.7290039,552.1943359,150.8081055v5396.1816406l95.4306641,2.9433594
						c12.7060547-205.7949219,22.703125-665.6333008,35.3574219-1247.8110352
						c29.3916016-1352.0454102,73.8066406-3395.2729492,201.3691406-4548.7011719l5.9570313-53.8641357l-54.1855469,0.8599854
						c-31.0419922,0.4925537-62.6474609,0.7415771-93.9384766,0.7415771
						c-476.703125,0-905.6533203-53.6218262-1176.8603516-147.1160889L8543.1425781,1490.9710693L8543.1425781,1490.9710693z"/>
				</g>
			</g>
		</g>
	</g>
	<g>
		<g>
			<path class="card41-2" d="M391.3833008,9733.4208984c-7.8320313,0-15.3564453-3.8769531-19.8681641-10.6445313
				L27.8920937,9207.3662109c-4.8876953-7.3242188-5.3417969-16.7480469-1.1865234-24.5117188
				c4.1552734-7.7626953,12.2460938-12.6064453,21.0546875-12.6064453h343.6230469
				c13.1884766,0,23.8818359,10.6826172,23.8818359,23.8759766v515.4101563
				c0,10.5273438-6.8896484,19.8046875-16.9628906,22.8515625
				C396.0170898,9733.0791016,393.6879883,9733.4208984,391.3833008,9733.4208984z"/>
			<path class="card41-1" d="M391.3820801,9194.1230469v515.4130859L47.7602577,9194.1230469H391.3820801 M391.3820801,9146.3623047
				H47.7602577c-17.6135254,0-33.7976074,9.6953125-42.109375,25.2246094
				c-8.3105469,15.5302734-7.3999023,34.3740234,2.3706055,49.0292969l343.6218262,515.4130859
				c9.0234375,13.5351563,24.0722656,21.2714844,39.7424316,21.2714844c4.6044922,0,9.2626953-0.6679688,13.8366699-2.0537109
				c20.144043-6.0986328,33.9196777-24.6640625,33.9196777-45.7109375v-515.4130859
				C439.1420898,9167.7460938,417.7590332,9146.3623047,391.3820801,9146.3623047L391.3820801,9146.3623047z"/>
		</g>
		<g>
			<path class="card41-2" d="M9704.0976563,9733.4208984c-2.3046875,0-4.6337891-0.3417969-6.9189453-1.0351563
				c-10.0732422-3.046875-16.9628906-12.3242188-16.9628906-22.8515625v-515.4101563
				c0-13.1933594,10.6933594-23.8759766,23.8818359-23.8759766h343.6230469c8.8085938,0,16.8994141,4.84375,21.0546875,12.6064453
				c4.1552734,7.7636719,3.7011719,17.1875-1.1865234,24.5117188l-343.6230469,515.4101563
				C9719.4541016,9729.5439453,9711.9296875,9733.4208984,9704.0976563,9733.4208984z"/>
			<path class="card41-1" d="M10047.7197266,9194.1230469l-343.6230469,515.4130859v-515.4130859H10047.7197266
				 M10047.7197266,9146.3623047h-343.6230469c-26.3769531,0-47.7597656,21.3837891-47.7597656,47.7607422v515.4130859
				c0,21.046875,13.7763672,39.6123047,33.9189453,45.7109375c4.5742188,1.3847656,9.234375,2.0537109,13.8378906,2.0537109
				c15.6708984,0,30.7177734-7.7353516,39.7412109-21.2714844l343.6230469-515.4130859
				c9.7705078-14.6552734,10.6816406-33.4990234,2.3710938-49.0292969
				C10081.5175781,9156.0576172,10065.3339844,9146.3623047,10047.7197266,9146.3623047L10047.7197266,9146.3623047z"/>
		</g>
	</g>
	<g>
		<g>
			<g>
				
					<linearGradient id="card41-_1_" gradientUnits="userSpaceOnUse" x1="479.0735779" y1="9501.0263672" x2="9659.9921875" y2="5810.6572266" gradientTransform="matrix(1 0 0 -1 0 14948)">
					<stop  offset="0" style="stop-color:#4C2D6A"/>
					<stop  offset="0.2566964" style="stop-color:#513E48"/>
					<stop  offset="0.4665179" style="stop-color:#845F4E"/>
					<stop  offset="0.6808036" style="stop-color:#916750"/>
					<stop  offset="0.7412619" style="stop-color:#8A624F"/>
					<stop  offset="0.8293236" style="stop-color:#77564C"/>
					<stop  offset="0.9337862" style="stop-color:#574147"/>
					<stop  offset="1" style="stop-color:#3F3144"/>
				</linearGradient>
				<path class="card41-3" d="M5027.5161133,14866.3896484c-166.1132813-277.6367188-1086.0253906-709.6875-1867.4902344-975.6542969
					c-214.0527344-72.8515625-475.4052734-157.6953125-847.421875-275.1074219l-16.6943359-5.2734375V927.0397949
					l10.1757813-7.1337891c629.1699219-440.8447266,1144.296875-661.1376953,1574.8291016-673.4716797l14.9072266-0.4296875
					l6.9287109,13.2080078c102.7197266,195.9033203,248.6181641,299.4433594,421.9189453,299.4238281
					c225.2734375-0.0292969,481.6455078-178.6767578,703.3886719-490.1367188l19.453125-27.3242188l19.453125,27.3242188
					c221.7675781,311.4941406,478.1445313,490.1464844,703.3886719,490.1367188
					c173.3203125-0.0048828,319.21875-103.5449219,421.9238281-299.4238281l6.9287109-13.2080078l14.9072266,0.4296875
					c780.5810547,22.3583984,1677.03125,732.3828125,2212.6411133,1156.6113281l18.3691406,14.5458984
					c449.0039063,355.5664063,835.4101563,601.8261719,1261.8066406,647.9541016l21.3134766,2.3095703v10430.3603516
					c0,234.0820313-209.9169922,555.0585938-598.9453125,688.8574219
					c-209.2333984,71.9628906-554.0917969,179.9902344-919.1943359,294.3554688
					c-424.5649414,132.9980469-905.7758789,283.7402344-1274.6967773,409.3066406
					c-781.9042969,266.1230469-1702.03125,698.3300781-1867.1826172,975.1367188l-20.5908203,34.5117188L5027.5161133,14866.3896484
					z"/>
			</g>
			<path class="card41-1" d="M5047.5117188,82.3498535c234.4116211,329.2572021,494.9067383,500.1654053,722.840332,500.1654053
				c176.1860352,0,332.9248047-102.1411133,443.0756836-312.2149658
				c781.5859375,22.3919678,1685.4462891,745.1818848,2216.8720703,1166.0137939
				c487.5595703,386.09375,867.078125,608.9422607,1274.0615234,652.9742432v7056.859375v3352.0664063
				c0,208.6015625-183.4677734,528.9277344-582.8251953,666.2802734
				c-451.3203125,155.2216797-1506.3964844,469.671875-2193.8266602,703.6357422
				c-775.5317383,263.9501953-1710.3999023,701.2480469-1879.9941406,985.5078125
				c-0.0576172-0.0976563-0.1416016-0.2060547-0.2036133-0.3066406
				c-170.0703125-284.2695313-1104.5292969-721.3476563-1879.7893066-985.2011719
				c-249.6582031-84.9726563-547.8161621-180.5537109-847.9309082-275.2714844V939.4659424
				c479.4628906-335.9521484,1047.1264648-654.420166,1561.8078613-669.1656494
				c110.1660156,210.1031494,266.8601074,312.2149658,443.0749512,312.2149658
				C4552.590332,582.5152588,4813.1279297,411.5710449,5047.5117188,82.3498535 M5047.5117188,0l-38.9082031,54.6502686
				c-217.2197266,305.1135254-466.5019531,480.1055908-683.9291992,480.1055908
				c-163.8662109,0-302.4523926-99.118042-400.7763672-286.6339111l-13.8500977-26.4178467l-29.8156738,0.8557129
				c-435.3466797,12.4725342-954.7363281,234.1802979-1587.8466797,677.7923584l-20.3540039,14.262085v24.8516846v12653.3925781
				v35.0097656l33.3862305,10.5351563c372.0080566,117.4091797,633.2055664,202.2021484,846.9165039,274.9404297
				c401.373291,136.6035156,824.4274902,312.4160156,1160.685791,482.3574219
				c374.4038086,189.2167969,620.6958008,360.4482422,693.5058594,482.1503906l0.1933594,0.3261719l0.2001953,0.3193359
				l0.2329102,0.3769531l40.3969727,68.2578125l41.1826172-69.0244141
				c72.5893555-121.6699219,318.8076172-292.9238281,693.2998047-482.2158203
				c336.3300781-170.0019531,759.5239258-345.8837891,1161.065918-482.5478516
				c368.5996094-125.4521484,849.5981445-276.1259766,1273.9755859-409.0644531
				c365.3369141-114.4433594,710.4101563-222.5390625,919.9960938-294.6210938
				c240.2587891-82.6328125,384.5878906-220.8720703,463.3583984-322.2880859
				c96.4042969-124.1220703,151.6933594-265.9619141,151.6933594-389.15625V9146.1474609v-7056.859375v-42.8723145
				l-42.6220703-4.6118164c-420.7060547-45.5163574-803.7871094-289.9383545-1249.5498047-642.9321289l-18.3535156-14.5379639
				c-537.9404297-426.0699463-1438.2900391-1139.18396-2226.800293-1161.774292l-29.8154297-0.8557129l-13.8500977,26.4178467
				c-98.3242188,187.5158691-236.9106445,286.6339111-400.7783203,286.6339111
				c-217.4238281,0-466.7075195-174.9920654-683.9316406-480.1055908L5047.5117188,0L5047.5117188,0z"/>
		</g>
		<g>
			<path class="card41-4" d="M7842.878418,12253.9833984l-3055.5634766,1295.1523438l-1686.8071289-695.7685547l-780.7314453,324.4140625
				v415.0546875c300.1147461,94.7177734,598.2727051,190.2998047,847.9309082,275.2714844
				c775.2600098,263.8544922,1709.7189941,700.9316406,1879.7893066,985.2021484
				c0.0625,0.0996094,0.1459961,0.2080078,0.2041016,0.3066406
				c169.59375-284.2607422,1104.4619141-721.5585938,1879.9936523-985.5087891
				c687.4306641-233.9638672,1742.5058594-548.4140625,2193.8261719-703.6357422
				c399.3583984-137.3525391,582.8261719-457.6777344,582.8261719-666.2802734v-563.2167969L7842.878418,12253.9833984z"/>
			<polygon class="card41-4" points="4785.9199219,10887.9404297 3349.4384766,11629.6591797 6754.3862305,9871.5361328 			"/>
			
				<linearGradient id="card41-_2_" gradientUnits="userSpaceOnUse" x1="8569.1289063" y1="12103.9511719" x2="10356.6875" y2="12103.9511719" gradientTransform="matrix(1 0 0 -1 0 14948)">
				<stop  offset="0" style="stop-color:#A87156"/>
				<stop  offset="1" style="stop-color:#B57A5E"/>
			</linearGradient>
			<path class="card41-5" d="M8569.1289063,4060.8701172l1135.2177734-642.4208984V2089.2666016
				c-334.3876953-36.1777344-650.2363281-193.0732422-1022.7011719-462.0400391l-10.4287109,133.0029297L8569.1289063,4060.8701172z
				"/>
			
				<linearGradient id="card41-_3_" gradientUnits="userSpaceOnUse" x1="6055.4492188" y1="15519.1367188" x2="7297.765625" y2="12331.6132813" gradientTransform="matrix(1 0 0 -1 0 14948)">
				<stop  offset="0" style="stop-color:#8F656F"/>
				<stop  offset="1" style="stop-color:#B57A5E"/>
			</linearGradient>
			<path class="card41-6" d="M8671.2167969,1760.2294922l10.4287109-133.0029297
				c-80.8623047-58.3935547-164.3916016-122.0644531-251.3603516-190.9345703
				c-309.6708984-245.2255859-745.8056641-592.9824219-1210.5170898-844.9404297L5194.6547852,1760.1503906
				L8671.2167969,1760.2294922z"/>
			
				<linearGradient id="card41-_4_" gradientUnits="userSpaceOnUse" x1="4882.1538086" y1="14026.7607422" x2="8014.6533203" y2="14026.7607422" gradientTransform="matrix(1 0 0 -1 0 14948)">
				<stop  offset="0" style="stop-color:#B57B6B"/>
				<stop  offset="1" style="stop-color:#D698AE"/>
			</linearGradient>
			<path class="card41-7" d="M7219.7680664,591.3515625c-332.7797852-180.4267578-680.2128906-311.7294922-1006.3554688-321.0732422
				c-110.1503906,210.0742188-266.8896484,312.2148438-443.0751953,312.2148438
				c-227.934082,0-488.4291992-170.9082031-722.8408203-500.1650391
				c-46.3286133,65.0742188-93.6791992,123.9580078-141.597168,176.5664063l288.7553711,1501.2558594L7219.7680664,591.3515625z"/>
			
				<linearGradient id="card41-_5_" gradientUnits="userSpaceOnUse" x1="3119.4978027" y1="13989.1523438" x2="6960.0874023" y2="11033.6982422" gradientTransform="matrix(1 0 0 -1 0 14948)">
				<stop  offset="0" style="stop-color:#8F656F"/>
				<stop  offset="1" style="stop-color:#B57A5E"/>
			</linearGradient>
			<polygon class="card41-8" points="5194.6547852,1760.1503906 3702.9228516,1760.1162109 3452.1435547,4685.6689453 
				8671.2167969,1760.2294922 			"/>
			
				<linearGradient id="card41-_6_" gradientUnits="userSpaceOnUse" x1="8505.7324219" y1="13475.9052734" x2="4652.2089844" y2="9956.7783203" gradientTransform="matrix(1 0 0 -1 0 14948)">
				<stop  offset="0" style="stop-color:#D79471"/>
				<stop  offset="1" style="stop-color:#BF8163"/>
			</linearGradient>
			<polygon class="card41-9" points="3452.1435547,4685.6689453 5487.1044922,5630.2548828 8671.2167969,1760.2294922 			"/>
			
				<linearGradient id="card41-_7_" gradientUnits="userSpaceOnUse" x1="5487.1044922" y1="11252.7578125" x2="8671.2167969" y2="11252.7578125" gradientTransform="matrix(1 0 0 -1 0 14948)">
				<stop  offset="0" style="stop-color:#B87D5F"/>
				<stop  offset="1" style="stop-color:#B57A5E"/>
			</linearGradient>
			<polygon class="card41-10" points="8671.2167969,1760.2294922 5487.1044922,5630.2548828 8569.1289063,4060.8701172 			"/>
			
				<linearGradient id="card41-_8_" gradientUnits="userSpaceOnUse" x1="3438.4064941" y1="14604.9121094" x2="7500.2871094" y2="11479.1679688" gradientTransform="matrix(1 0 0 -1 0 14948)">
				<stop  offset="0" style="stop-color:#8F656F"/>
				<stop  offset="1" style="stop-color:#AD7669"/>
			</linearGradient>
			<path class="card41-11" d="M5194.6547852,1760.1503906L4905.8994141,258.8945313
				c-194.5083008,213.5478516-398.3740234,323.5986328-581.2402344,323.5986328
				c-176.2143555,0-332.9089355-102.1113281-443.0749512-312.2148438
				c-16.9975586,0.4873047-34.0544434,1.3144531-51.1623535,2.4541016l-127.4990234,1487.3837891L5194.6547852,1760.1503906z"/>
			
				<linearGradient id="card41-_9_" gradientUnits="userSpaceOnUse" x1="2741.6142578" y1="14330.5390625" x2="3689.9309082" y2="11624.1083984" gradientTransform="matrix(1 0 0 -1 0 14948)">
				<stop  offset="0" style="stop-color:#A9746A"/>
				<stop  offset="0.4799107" style="stop-color:#93676E"/>
				<stop  offset="1" style="stop-color:#AD7669"/>
			</linearGradient>
			<path class="card41-12" d="M3702.9228516,1760.1162109L3830.421875,272.7324219
				c-500.9189453,33.3544922-1047.0170898,341.8544922-1510.6455078,666.7119141v1926.2314453l1132.3671875,1819.9931641
				L3702.9228516,1760.1162109z"/>
			
				<linearGradient id="card41-_10_" gradientUnits="userSpaceOnUse" x1="1753.5996094" y1="11693.625" x2="2907.5688477" y2="10638.7695313" gradientTransform="matrix(1 0 0 -1 0 14948)">
				<stop  offset="0" style="stop-color:#8F656F"/>
				<stop  offset="1" style="stop-color:#BF8475"/>
			</linearGradient>
			<polygon class="card41-13" points="2319.7763672,2865.6757813 2319.7763672,4678.1708984 3452.1435547,4685.6689453 			"/>
			
				<linearGradient id="card41-_11_" gradientUnits="userSpaceOnUse" x1="1509.7138672" y1="10146.3818359" x2="2864.7324219" y2="9331.1679688" gradientTransform="matrix(1 0 0 -1 0 14948)">
				<stop  offset="0" style="stop-color:#8F656F"/>
				<stop  offset="1" style="stop-color:#BC7F61"/>
			</linearGradient>
			<polygon class="card41-14" points="2319.7763672,4678.1708984 2319.7763672,6573.5371094 3452.1435547,4685.6689453 			"/>
			
				<radialGradient id="card41-_12_" cx="3346.2155762" cy="10034.1005859" r="1830.8806152" gradientTransform="matrix(1 0 0 -1 0 14948)" gradientUnits="userSpaceOnUse">
				<stop  offset="0" style="stop-color:#F1C79D"/>
				<stop  offset="1" style="stop-color:#E4A77F"/>
			</radialGradient>
			<polygon class="card41-15" points="3452.1435547,4685.6689453 2319.7763672,6573.5371094 2319.7763672,6753.6533203 
				5487.1044922,5630.2548828 			"/>
			
				<linearGradient id="card41-_13_" gradientUnits="userSpaceOnUse" x1="8425.5400391" y1="11174.3876953" x2="9976.2910156" y2="9204.9345703" gradientTransform="matrix(1 0 0 -1 0 14948)">
				<stop  offset="0" style="stop-color:#9B6A50"/>
				<stop  offset="1" style="stop-color:#B57A5E"/>
			</linearGradient>
			<polygon class="card41-16" points="8853.1669922,6295.9462891 9704.3466797,5805.7978516 9704.3466797,3418.4492188 
				8569.1289063,4060.8701172 			"/>
			<polygon class="card41-17" points="8569.1289063,4060.8701172 5487.1044922,5630.2548828 8853.1669922,6295.9462891 			"/>
			<polygon class="card41-18" points="8853.1669922,6295.9462891 5487.1044922,5630.2548828 6806.6083984,7082.0253906 			"/>
			
				<linearGradient id="card41-_14_" gradientUnits="userSpaceOnUse" x1="9278.7568359" y1="9368.3144531" x2="9278.7568359" y2="8688.0341797" gradientTransform="matrix(1 0 0 -1 0 14948)">
				<stop  offset="0" style="stop-color:#A87156"/>
				<stop  offset="1" style="stop-color:#A06E6F"/>
			</linearGradient>
			<polygon class="card41-19" points="9704.3466797,6275.4492188 9704.3466797,5805.7978516 8853.1669922,6295.9462891 			"/>
			
				<linearGradient id="card41-_15_" gradientUnits="userSpaceOnUse" x1="9278.7568359" y1="7673.3105469" x2="9278.7568359" y2="8847.6054688" gradientTransform="matrix(1 0 0 -1 0 14948)">
				<stop  offset="0" style="stop-color:#CC8D90"/>
				<stop  offset="0.3490959" style="stop-color:#C98B8E"/>
				<stop  offset="0.6161071" style="stop-color:#BF8486"/>
				<stop  offset="0.8551348" style="stop-color:#AF7878"/>
				<stop  offset="1" style="stop-color:#A16E6D"/>
			</linearGradient>
			<polygon class="card41-20" points="9704.3466797,6967.934082 9704.3466797,6275.4492188 8853.1669922,6295.9462891 			"/>
			
				<linearGradient id="card41-_16_" gradientUnits="userSpaceOnUse" x1="9722.1552734" y1="6898.8828125" x2="8488.8896484" y2="7348.9370117" gradientTransform="matrix(1 0 0 -1 0 14948)">
				<stop  offset="0" style="stop-color:#D396A9"/>
				<stop  offset="0.4557908" style="stop-color:#D599A8"/>
				<stop  offset="0.8039997" style="stop-color:#DDA3A5"/>
				<stop  offset="1" style="stop-color:#E5ACA2"/>
			</linearGradient>
			<polygon class="card41-21" points="8019.925293,8863.9765625 9704.3466797,8407.9951172 9704.3466797,6967.934082 
				8853.1669922,6295.9462891 			"/>
			
				<linearGradient id="card41-_17_" gradientUnits="userSpaceOnUse" x1="8444.5322266" y1="6982.4443359" x2="7837.75" y2="8242.6845703" gradientTransform="matrix(1 0 0 -1 0 14948)">
				<stop  offset="0" style="stop-color:#DE9C99"/>
				<stop  offset="0.5618711" style="stop-color:#E09E96"/>
				<stop  offset="0.9911755" style="stop-color:#E6A58C"/>
				<stop  offset="1" style="stop-color:#E6A58C"/>
			</linearGradient>
			<polygon class="card41-22" points="8019.925293,8863.9765625 8853.1669922,6295.9462891 6806.6083984,7082.0253906 			"/>
			<polygon class="card41-23" points="5487.1044922,5630.2548828 2319.7763672,6753.6533203 2319.7763672,8362.0429688 
				3977.8557129,9110.7597656 			"/>
			
				<linearGradient id="card41-_18_" gradientUnits="userSpaceOnUse" x1="8773.6123047" y1="6081.8730469" x2="8773.6123047" y2="3087.1083984" gradientTransform="matrix(1 0 0 -1 0 14948)">
				<stop  offset="0" style="stop-color:#946B68"/>
				<stop  offset="1" style="stop-color:#715358"/>
			</linearGradient>
			<polygon class="card41-24" points="7842.878418,12253.9833984 9704.3466797,9754.3085938 9704.3466797,9146.1259766 
				9704.3466797,8407.9951172 8019.925293,8863.9765625 			"/>
			
				<linearGradient id="card41-_19_" gradientUnits="userSpaceOnUse" x1="7842.878418" y1="3943.8537598" x2="10843.8242188" y2="3943.8537598" gradientTransform="matrix(1 0 0 -1 0 14948)">
				<stop  offset="0" style="stop-color:#5F4650"/>
				<stop  offset="0.9955357" style="stop-color:#674C52"/>
			</linearGradient>
			<polygon class="card41-25" points="9704.3466797,10712.2910156 9704.3466797,9754.3085938 7842.878418,12253.9833984 			"/>
			
				<linearGradient id="card41-_20_" gradientUnits="userSpaceOnUse" x1="9034.4765625" y1="2871.1708984" x2="8440.9599609" y2="4221.9345703" gradientTransform="matrix(1 0 0 -1 0 14948)">
				<stop  offset="0" style="stop-color:#695A39;stop-opacity:0"/>
				<stop  offset="1" style="stop-color:#836067"/>
			</linearGradient>
			<polygon class="card41-26" points="9704.3466797,11934.9746094 9704.3466797,10712.2910156 7842.878418,12253.9833984 			"/>
			
				<radialGradient id="card41-_21_" cx="6436.7197266" cy="8130.684082" r="4835.8051758" gradientTransform="matrix(1 0 0 -1 0 14948)" gradientUnits="userSpaceOnUse">
				<stop  offset="0" style="stop-color:#E8B290"/>
				<stop  offset="1" style="stop-color:#785759"/>
			</radialGradient>
			<polygon class="card41-27" points="6806.6083984,7082.0253906 6754.3862305,9871.5361328 7842.878418,12253.9833984 
				8019.925293,8863.9765625 			"/>
			
				<radialGradient id="card41-_22_" cx="6747.7856445" cy="7545.5415039" r="3711.7124023" gradientTransform="matrix(1 0 0 -1 0 14948)" gradientUnits="userSpaceOnUse">
				<stop  offset="0" style="stop-color:#D08D6F"/>
				<stop  offset="1" style="stop-color:#9D6F5A"/>
			</radialGradient>
			<polygon class="card41-28" points="3977.8557129,9110.7597656 4785.9199219,10887.9404297 6806.6083984,7082.0253906 			"/>
			
				<linearGradient id="card41-_23_" gradientUnits="userSpaceOnUse" x1="4577.9755859" y1="3781.059082" x2="1570.1578369" y2="6676.0844727" gradientTransform="matrix(1 0 0 -1 0 14948)">
				<stop  offset="0" style="stop-color:#A8765F;stop-opacity:0"/>
				<stop  offset="1" style="stop-color:#4A3A56"/>
			</linearGradient>
			<polygon class="card41-29" points="3977.8557129,9110.7597656 2319.7763672,8362.0429688 2319.7763672,10471.9892578 
				4785.9199219,10887.9404297 			"/>
			<polygon class="card41-30" points="5487.1044922,5630.2548828 3977.8557129,9110.7597656 6806.6083984,7082.0253906 			"/>
			
				<linearGradient id="card41-_24_" gradientUnits="userSpaceOnUse" x1="1862.7910156" y1="2243.3134766" x2="5102.7172852" y2="6124.8085938" gradientTransform="matrix(1 0 0 -1 0 14948)">
				<stop  offset="0" style="stop-color:#A0715B;stop-opacity:0"/>
				<stop  offset="1" style="stop-color:#544149"/>
			</linearGradient>
			<polygon class="card41-31" points="3349.4384766,11629.6591797 4785.9199219,10887.9404297 2319.7763672,10471.9892578 
				2319.7763672,13177.78125 3100.5078125,12853.3671875 			"/>
			
				<linearGradient id="card41-_25_" gradientUnits="userSpaceOnUse" x1="6212.6513672" y1="2399.4306641" x2="5663.3007813" y2="4292.3007813" gradientTransform="matrix(1 0 0 -1 0 14948)">
				<stop  offset="0" style="stop-color:#695A39;stop-opacity:0"/>
				<stop  offset="1" style="stop-color:#C18768"/>
			</linearGradient>
			<polygon class="card41-32" points="4787.3149414,13549.1357422 7842.878418,12253.9833984 6754.3862305,9871.5361328 			"/>
			
				<radialGradient id="card41-_26_" cx="6357.1040039" cy="6996.1225586" r="2666.220459" gradientTransform="matrix(1 0 0 -1 0 14948)" gradientUnits="userSpaceOnUse">
				<stop  offset="0" style="stop-color:#EFBA95"/>
				<stop  offset="1" style="stop-color:#B48065"/>
			</radialGradient>
			<polygon class="card41-33" points="6806.6083984,7082.0253906 4785.9199219,10887.9404297 6754.3862305,9871.5361328 			"/>
			
				<linearGradient id="card41-_27_" gradientUnits="userSpaceOnUse" x1="4832.4277344" y1="3194.9287109" x2="6599.902832" y2="5129.5976563" gradientTransform="matrix(1 0 0 -1 0 14948)">
				<stop  offset="0" style="stop-color:#695A39;stop-opacity:0"/>
				<stop  offset="1" style="stop-color:#986C53"/>
			</linearGradient>
			<polygon class="card41-34" points="3349.4384766,11629.6591797 3100.5078125,12853.3671875 4787.3149414,13549.1357422 
				6754.3862305,9871.5361328 			"/>
		</g>
		<g>
			<path class="card41-35" d="M6161.0073242,7185.7553711c-676.1328125,0-1311.8017578-263.3007813-1789.9023438-741.40625
				c-478.1005859-478.1005859-741.4013672-1113.7695313-741.4013672-1789.9023438
				c0-676.1374512,263.3007813-1311.8015137,741.4013672-1789.9020996s1113.7695313-741.4013672,1789.9023438-741.4013672
				c676.1376953,0,1311.8017578,263.3007813,1789.9023438,741.4013672
				c478.1000977,478.1005859,741.4008789,1113.7646484,741.4008789,1789.9020996
				c0,676.1328125-263.3007813,1311.8017578-741.4008789,1789.9023438
				C7472.809082,6922.4545898,6837.1450195,7185.7553711,6161.0073242,7185.7553711z"/>
			<path class="card41-1" d="M6161.0083008,2147.0202637c338.5205078,0,666.8911133,66.2890625,975.987793,197.0263672
				c298.5771484,126.2866211,566.7363281,307.0878906,797.0288086,537.3815918
				c230.2929688,230.2929688,411.0942383,498.4521484,537.3813477,797.0290527
				c130.7363281,309.0966797,197.0253906,637.4665527,197.0253906,975.9875488
				c0,338.5214844-66.2890625,666.8916016-197.0253906,975.9882813
				c-126.2871094,298.5761719-307.0883789,566.7363281-537.3813477,797.0288086
				c-230.2924805,230.2929688-498.4516602,411.0942383-797.0288086,537.3813477
				c-309.0966797,130.7368164-637.4672852,197.0258789-975.987793,197.0258789s-666.890625-66.2890625-975.9873047-197.0258789
				c-298.5776367-126.2871094-566.7363281-307.0883789-797.0288086-537.3813477
				c-230.2944336-230.293457-411.0949707-498.4526367-537.3815918-797.0288086
				c-130.7373047-309.0966797-197.0263672-637.4667969-197.0263672-975.9882813
				c0-338.5209961,66.2890625-666.8908691,197.0263672-975.9875488
				c126.2866211-298.5769043,307.0871582-566.736084,537.3815918-797.0290527
				c230.2924805-230.2937012,498.4511719-411.0949707,797.0288086-537.3815918
				C5494.1176758,2213.3093262,5822.487793,2147.0202637,6161.0083008,2147.0202637 M6161.0083008,2099.2595215
				c-1411.1889648,0-2555.1853027,1143.9960938-2555.1853027,2555.1853027s1143.9963379,2555.1850586,2555.1853027,2555.1850586
				s2555.184082-1143.9951172,2555.184082-2555.1850586S7572.1972656,2099.2595215,6161.0083008,2099.2595215
				L6161.0083008,2099.2595215z"/>
		</g>
		<g>
			
				<linearGradient id="card41-_28_" gradientUnits="userSpaceOnUse" x1="1355.4555664" y1="14072.5390625" x2="1355.4555664" y2="1437.7138672" gradientTransform="matrix(1 0 0 -1 0 14948)">
				<stop  offset="0" style="stop-color:#D59D5E"/>
				<stop  offset="0.4799107" style="stop-color:#8F6B51"/>
				<stop  offset="1" style="stop-color:#3A3042"/>
			</linearGradient>
			<path class="card41-36" d="M2311.5200195,13615.2861328c-142.890625-45.0976563-286.2207031-89.9902344-424.9462891-133.4472656
				c-365.625-114.5410156-710.9667969-222.7148438-920.4443359-294.765625
				c-234.4091797-80.6152344-375.1123047-215.1757813-451.8701172-313.8574219
				c-93.1738281-119.7949219-146.7626953-256.1523438-147.0214844-374.1210938V2067.845459l21.3085938-2.3046875
				c425.9863281-46.0986328,812.3242188-292.3632813,1261.3574219-647.9492188l17.578125-13.9208984
				c177.0361328-140.2197266,397.3632813-314.7216797,638.6083984-483.7597656l37.5830078-26.3378906v12734.5546875
				L2311.5200195,13615.2861328z"/>
			<path class="card41-1" d="M2319.7927246,939.4671631v12653.3896484c-0.0524902-0.0166016-0.1074219-0.03125-0.1599121-0.0498047
				c-526.184082-166.0683594-1058.3532715-329.4746094-1345.7348633-428.3125
				c-398.8513184-137.1777344-582.3168945-456.84375-582.7832031-665.4609375V2089.2822266
				c406.9677734-44.039917,786.0705566-266.8884277,1273.6132813-652.96875
				C1846.2050781,1292.6037598,2071.1550293,1113.6853027,2319.7927246,939.4671631 M2367.5527344,848.3618774
				l-75.1660156,51.9902954c-241.8249512,169.4451904-462.4597168,344.1949463-639.744873,484.6081543l-17.5634766,13.9117432
				c-445.7897949,353.0151367-828.807373,597.4450684-1249.1015625,642.9266357l-42.6220703,4.6118164v42.8717041v10409.7509766
				c0.2746582,123.2705078,55.6982422,264.9580078,152.0581055,388.84375
				c78.7487793,101.2412109,222.9882813,239.25,462.9516602,321.7792969
				c209.7119141,72.1279297,555.0500488,180.3076172,920.6665039,294.8408203
				c138.8464355,43.4941406,282.4121094,88.4667969,425.4650879,133.6162109l0.3015137,0.1064453l1.0119629,0.3056641
				l61.7431641,19.2949219v-64.9638672V939.4671631v-89.4157104V848.3618774z"/>
		</g>
	</g>
	<g>
		
			<linearGradient id="card41-_29_" gradientUnits="userSpaceOnUse" x1="5047.7602539" y1="5314.8720703" x2="5047.7602539" y2="5738.1904297" gradientTransform="matrix(1 0 0 -1 0 14948)">
			<stop  offset="0" style="stop-color:#040404;stop-opacity:0"/>
			<stop  offset="0.2299107" style="stop-color:#020202;stop-opacity:0.1"/>
			<stop  offset="0.828125" style="stop-color:#020202;stop-opacity:0.8703882"/>
			<stop  offset="1" style="stop-color:#020202"/>
		</linearGradient>
		<rect x="343.072998" y="9194.1230469" class="card41-37" width="9409.3740234" height="443.1542969"/>
		<g>
			<g>
				<rect x="23.8784218" y="7551.4487305" class="card41-35" width="10047.7636719" height="1618.574707"/>
				<path class="card41-1" d="M10047.7597656,7575.3242188v1570.8242188H5047.7602539h-5000V7575.3242188h5000H10047.7597656
					 M10095.5195313,7527.5639648h-47.7597656H5047.7602539h-5000H0.000249v47.7602539v1570.8242188v47.7597656h47.7600098h5000
					h4999.9995117h47.7597656v-47.7597656V7575.3242188V7527.5639648L10095.5195313,7527.5639648z"/>
			</g>
			<g>
				<polygon class="card41-38" points="1055.0634766,8360.4892578 513.0579224,7938.0170898 47.7387276,8060.8413086 
					47.7387276,8660.1386719 513.2935181,8783.0244141 				"/>
				<polygon class="card41-39" points="1033.3172607,7800.6914063 47.7387276,7575.3193359 513.0579224,7938.0170898 				"/>
				<polygon class="card41-40" points="47.7387276,7575.3193359 47.7387276,8060.8413086 513.0579224,7938.0170898 				"/>
				<polygon class="card41-39" points="513.2935181,8783.0244141 47.7602577,9146.1484375 1033.3172607,8920.2871094 				"/>
				<polygon class="card41-40" points="47.7386475,8660.1386719 47.7386475,9145.6601563 47.7386475,9146.1181641 
					48.5693359,9145.4707031 513.293457,8783.0244141 				"/>
			</g>
			<g>
				<polygon class="card41-38" points="9040.4277344,8360.4892578 9582.4335938,7938.0170898 10047.7529297,8060.8413086 
					10047.7529297,8660.1386719 9582.1972656,8783.0244141 				"/>
				<polygon class="card41-39" points="9062.1738281,7800.6914063 10047.7529297,7575.3193359 9582.4335938,7938.0170898 				"/>
				<polygon class="card41-40" points="10047.7529297,7575.3193359 10047.7529297,8060.8413086 9582.4335938,7938.0170898 				"/>
				<polygon class="card41-39" points="9582.1972656,8783.0244141 10047.7304688,9146.1484375 9062.1738281,8920.2871094 				"/>
				<polygon class="card41-40" points="10047.7529297,8660.1386719 10047.7529297,9145.6601563 10047.7529297,9146.1181641 
					10046.921875,9145.4707031 9582.1982422,8783.0244141 				"/>
			</g>
		</g>
	</g>
</g>
</svg>