<?xml version="1.0" encoding="utf-8"?>
<!-- Generator: Adobe Illustrator 21.0.1, SVG Export Plug-In . SVG Version: 6.00 Build 0)  -->
<svg version="1.1" id="Слой_1" xmlns="http://www.w3.org/2000/svg" xmlns:xlink="http://www.w3.org/1999/xlink" x="0px" y="0px"
	 viewBox="0 0 10095.5 14947.0996094" style="enable-background:new 0 0 10095.5 14947.0996094;" xml:space="preserve">
<style type="text/css">
	.st0{fill:#0F1312;}
	.st1{fill:#FFFFFF;}
	.st2{fill:#9E7357;}
	.st3{fill:#EBE27D;}
	.st4{fill:url(#SVGID_1_);}
	.st5{fill:none;}
	.st6{fill:#806B3C;}
	.st7{fill:#796636;}
	.st8{fill:#937B42;}
	.st9{fill:url(#SVGID_2_);}
	.st10{fill:url(#SVGID_3_);}
	.st11{fill:url(#SVGID_4_);}
	.st12{fill:#796635;}
	.st13{fill:url(#SVGID_5_);}
	.st14{fill:url(#SVGID_6_);}
	.st15{fill:#957B41;}
	.st16{fill:url(#SVGID_7_);}
	.st17{fill:#726137;}
	.st18{fill:url(#SVGID_8_);}
	.st19{fill:url(#SVGID_9_);}
	.st20{fill:#836D39;}
	.st21{fill:#9C8347;}
	.st22{fill:url(#SVGID_10_);}
	.st23{fill:url(#SVGID_11_);}
	.st24{fill:#806B3A;}
	.st25{fill:url(#SVGID_12_);}
	.st26{fill:url(#SVGID_13_);}
	.st27{fill:url(#SVGID_14_);}
	.st28{fill:url(#SVGID_15_);}
	.st29{fill:url(#SVGID_16_);}
	.st30{fill:url(#SVGID_17_);}
	.st31{fill:url(#SVGID_18_);}
	.st32{fill:url(#SVGID_19_);}
	.st33{fill:url(#SVGID_20_);}
	.st34{fill:url(#SVGID_21_);}
	.st35{fill:url(#SVGID_22_);}
	.st36{fill:url(#SVGID_23_);}
	.st37{fill:#5D4E29;}
	.st38{fill:url(#SVGID_24_);}
	.st39{fill:#615C50;}
	.st40{fill:#62615E;}
</style>
<g id="Слой_5">
	<g>
		<g>
			<path class="st0" d="M390.6000061,9733.4003906c-7.7999878,0-15.3999939-3.9003906-19.8999939-10.5996094l-343.5-515.4003906
				c-4.8999996-7.2998047-5.2999992-16.7001953-1.2000008-24.5s12.2000008-12.5996094,21.0999985-12.5996094h343.6000061
				c13.2000122,0,23.8999939,10.7001953,23.8999939,23.9003906v515.4003906c0,10.5-6.8999939,19.7998047-17,22.9003906
				C395.2999878,9733.0996094,392.8999939,9733.4003906,390.6000061,9733.4003906z"/>
			<path class="st1" d="M390.6000061,9194.0996094V9709.5L47,9194.0996094H390.6000061 M390.6000061,9146.4003906H47
				c-17.6000004,0-33.7999992,9.7001953-42.0999985,25.2001953s-7.4000001,34.4003906,2.4000001,49L350.8999939,9736
				c9,13.5,24.1000061,21.2998047,39.7000122,21.2998047c4.6000061,0,9.2999878-0.7001953,13.7999878-2.0996094
				C424.5,9749.1005859,438.2999878,9730.5,438.2999878,9709.5v-515.4003906
				C438.3999939,9167.7001953,417,9146.4003906,390.6000061,9146.4003906L390.6000061,9146.4003906z"/>
		</g>
		<g>
			<path class="st0" d="M9703.4003906,9733.4003906c-2.2998047,0-4.5996094-0.2998047-6.9003906-1
				c-10.0996094-3-17-12.2998047-17-22.9003906v-515.4003906c0-13.2001953,10.7001953-23.9003906,23.9003906-23.9003906H10047
				c8.7998047,0,16.9003906,4.7998047,21.0996094,12.5996094s3.7001953,17.2001953-1.2001953,24.5l-343.5996094,515.4003906
				C9718.7001953,9729.5,9711.2001953,9733.4003906,9703.4003906,9733.4003906z"/>
			<path class="st1" d="M10047,9194.0996094L9703.4003906,9709.5v-515.4003906H10047 M10047,9146.4003906h-343.5996094
				c-26.4003906,0-47.7998047,21.4003906-47.7998047,47.7998047v515.4003906c0,21,13.7998047,39.5996094,33.9003906,45.7001953
				c4.5996094,1.4003906,9.2001953,2.0996094,13.7998047,2.0996094c15.7001953,0,30.7001953-7.7001953,39.7001953-21.2998047
				l343.5996094-515.4003906c9.7998047-14.7001953,10.7001953-33.5,2.4003906-49
				C10080.7998047,9156.0996094,10064.5996094,9146.4003906,10047,9146.4003906L10047,9146.4003906z"/>
		</g>
	</g>
	<g>
		<g>
			<g>
				<g>
					<path class="st2" d="M367.1000061,7529.1000977c-12.7000122-205.2998047-22.7000122-664.8999023-35.2999878-1246.800293
						C302.2999878,4929.7998047,257.8999939,2886,130.1999969,1731.5l-3-26.9000244L154.3000031,1705
						c45.6999969,0.6999512,90.5999908,1.0999756,133.4999847,1.0999756c461,0,796.7000122-41.6999512,1056.5-131.3000488
						l63.0999756-21.6999512L1372.5,1609.9000244C1183.0999756,1918,757.7999878,2069.6999512,414.7999878,2110.3999023V7527.699707
						L367.1000061,7529.1000977z"/>
					<g>
						<path class="st3" d="M1352.0999756,1597.4000244c-189.9000244,309-621.9000244,455.4998779-961.2000122,491.7000732
							v5438.6000977c-42-680.6000977-54.1000061-4145.7998047-236.8999939-5798.7998047
							c44.8999939,0.6999512,89.5,1.0999756,133.8999939,1.0999756
							C685.5999756,1729.9000244,1057.1999512,1699,1352.0999756,1597.4000244 M1462.6999512,1508.6999512l-126.0999756,43.5
							c-257.2000732,88.6999512-590.5,130-1048.6999512,130c-42.6999969,0-87.5-0.4000244-133.1000061-1.0999756
							l-54.1999969-0.9000244l6,53.9000244C234.2000122,2887.5,278.6000366,4930.7001953,308,6282.800293
							c12.7000122,582.2001953,22.7000122,1042,35.3999939,1247.800293l95.3999939-2.8999023V2131.5
							C617.5,2108.1999512,796.5999756,2058.1000977,947.5999756,1988.9000244
							c203.3000488-93.0999756,353.0999756-216.5,445.4000244-366.5999756L1462.6999512,1508.6999512L1462.6999512,1508.6999512z"/>
					</g>
				</g>
			</g>
			<g>
				<g>
					<path class="st2" d="M9679.2001953,7527.6000977V2110.3000488c-343-40.8000488-768.2998047-192.5-957.7001953-500.5
						L8686.5996094,1553l63.0996094,21.6999512c259.7998047,89.5999756,595.5,131.3000488,1056.5,131.3000488
						c42.9003906,0,87.7998047-0.4000244,133.5-1.0999756L9966.7988281,1704.5l-3,26.9000244
						c-127.7001953,1154.4998779-172.0996094,3198.3999023-201.5,4550.7998047
						c-12.5996094,581.8999023-22.5996094,1041.5-35.2998047,1246.800293L9679.2001953,7527.6000977z"/>
					<g>
						<path class="st3" d="M8741.9003906,1597.3000488c294.9003906,101.6999512,666.5,132.5999756,1064.2998047,132.5999756
							c44.2998047,0,89-0.4000244,133.9003906-1.0999756c-182.7998047,1653-194.9003906,5118.2001953-236.9003906,5798.7998047V2089
							C9363.7001953,2052.8999023,8931.7998047,1906.3000488,8741.9003906,1597.3000488 M8631.2998047,1508.6999512
							l69.7998047,113.5999756c92.2998047,150.0999756,242.0996094,273.5,445.4003906,366.5999756
							c150.9003906,69.1999512,330.0996094,119.1999512,508.7998047,142.6000977v5396.2001953l95.4003906,2.8999023
							c12.7001953-205.7998047,22.7001953-665.6000977,35.4003906-1247.800293
							c29.4003906-1352,73.7998047-3395.3000488,201.4003906-4548.7001953l6-53.9000244l-54.2001953,0.9000244
							c-45.5996094,0.6999512-90.4003906,1.0999756-133.0996094,1.0999756c-458.2998047,0-791.5-41.3000488-1048.7001953-130
							L8631.2998047,1508.6999512L8631.2998047,1508.6999512z"/>
					</g>
				</g>
			</g>
		</g>
		<g>
			
				<linearGradient id="SVGID_1_" gradientUnits="userSpaceOnUse" x1="516.65979" y1="640.4597168" x2="9758.09375" y2="4241.0195313" gradientTransform="matrix(1 0 0 1 0 4948)">
				<stop  offset="0" style="stop-color:#B89A54"/>
				<stop  offset="0.7253999" style="stop-color:#71613E"/>
				<stop  offset="1" style="stop-color:#514328"/>
			</linearGradient>
			<path class="st4" d="M5026.5,14866.2001953c-165.2001953-276.7998047-1085.3000488-709-1867.1999512-975.0996094
				c-213.6000977-72.7001953-475-157.5996094-847.5998535-275.2001953l-16.6999512-5.2998047V1598.5l27.3000488,3.9000244
				C2478.6003418,1624.7000732,2643.2001953,1636,2811.4003906,1636c210.3000488,0,415.3999023-17.4000244,609.6000977-51.6999512
				c604.3000488-106.8000488,1371.699707-550.4000244,1603.699707-1162L5047,363.4000549l22.2998047,58.8999939
				c232,611.5999756,999.3999023,1055.1999512,1603.7001953,1162c194.5,34.4000244,399.8999023,51.8000488,610.5,51.8000488
				c611.8999023,0,1127.0996094-144.5,1344.7998047-377.0999756L8667.5,1217.1000977l2.0996094,57.3000488
				c8.5996094,232.9000244,129.7001953,424.8000488,359.9003906,570.5
				c179.7001953,113.6999512,426.2998047,194.1999512,676.5996094,220.8999023l21.2998047,2.3000488V12498.5
				c0,234.0996094-209.9003906,555.0996094-598.9003906,688.9003906c-209.2998047,72-554.2001953,180-919.4003906,294.4003906
				c-424.5,133-905.6000977,283.7001953-1274.5,409.2001953c-781.8999023,266.0996094-1702,698.2998047-1867.2001953,975.0996094
				l-20.5,34.4003906L5026.5,14866.2001953z"/>
			<path class="st1" d="M5047,430.6000061c231,609,981.2001953,1063.8000488,1621.8999023,1177.0999756
				c197.5,34.9000244,407.1000977,52.1999512,614.6000977,52.1999512c570.5,0,1124.5-130.6999512,1362.2001953-384.6999512
				C8665.4003906,1809.3999023,9262.7998047,2042.5,9703.6005859,2089.5v7056.9003906V12498.5
				c0,208.5996094-183.5,528.9003906-582.7998047,666.2998047C8669.5009766,13320,7614.4008789,13634.5,6927.0009766,13868.3994141
				c-775.5,263.9003906-1710.3999023,701.2001953-1880,985.5c-169.6000977-284.2998047-1104.5-721.5996094-1880-985.5
				c-249.6999512-85-547.8999023-180.5996094-848.1000977-275.2998047V9146.4003906v-7056.800293V1626
				c157.6999512,22.5,324.3999023,33.8000488,492.5,33.8000488c207.1999512,0,416.5-17.1999512,613.6999512-52.0999756
				C4065.6999512,1494.5,4816,1039.5999756,5047,430.6000061 M5047,296l-44.7001953,117.7000122
				c-228.8999023,603.4000244-987.6999512,1041.3000488-1585.5,1147
				c-192.8000488,34.0999756-396.5,51.4000244-605.3999023,51.4000244
				c-167.1000977,0-330.6000977-11.1999512-485.8000488-33.3000488l-54.5-7.8000488v55.0999756v463.6000977v7056.8994141
				v4446.7001953v35l33.3999023,10.5c372.1999512,117.5,633.5,202.2998047,847.0998535,275
				c401.5,136.7001953,824.6999512,312.5,1161.1000977,482.5c374.5,189.2998047,620.7001953,360.5,693.2998047,482.2001953
				l41,68.7001953l41-68.7001953c72.6000977-121.7001953,318.7998047-292.9003906,693.2998047-482.2001953
				c336.2998047-170,759.5-345.9003906,1161.1000977-482.5c368.6000977-125.5,849.6000977-276.0996094,1274-409.0996094
				c365.2998047-114.4003906,710.4003906-222.5,920-294.5996094
				c240.2998047-82.5996094,384.5996094-220.9003906,463.4003906-322.2998047
				c96.4003906-124.0996094,151.7001953-266,151.7001953-389.2001953V9146.4003906v-7056.800293v-42.9000244l-42.7001953-4.5999756
				c-246.7998047-26.3000488-489.7001953-105.5-666.4003906-217.3000488
				c-223.2001953-141.1999512-340.5996094-326.6999512-348.9003906-551.1999512l-4.2001953-114.5999756l-78.4003906,83.8000488
				c-106.7998047,114.0999756-291.4003906,208.9000244-533.7998047,274.0999756
				c-232.2001953,62.4000244-506.6000977,95.4000244-793.5,95.4000244c-209.2001953,0-413.2001953-17.3000488-606.2998047-51.5
				c-597.7998047-105.6999512-1356.6000977-543.5999756-1585.5-1147L5047,296L5047,296z"/>
		</g>
		<g>
			<path class="st5" d="M9517.7998047,2035.5c61.2998047,28,123.2001953,46.8999023,186.5,53.6999512v1329.1999512v2387.300293
				v469.7001953v692.5V8408v738.0996094v608.2001953v958V11935l-1861.5,319L4787.199707,13549.2001953l-1686.8000488-695.7998047
				l-780.6999512,324.4003906V10472V8362V6753.7001953v-180.1000977V4678.2001953V2865.6999512V1602l-24.8000488-3.5v12012.0996094
				l16.6999512,5.2998047c372.5,117.5996094,633.8999023,202.4003906,847.6000977,275.2001953
				c781.8999023,266.0996094,1702,698.2998047,1867.199707,975.0996094l20.5,34.4003906l20.5-34.4003906
				c165.2001953-276.7998047,1085.2998047-709,1867.2001953-975.0996094c368.8999023-125.5,850-276.2998047,1274.5-409.2001953
				c365.2001953-114.4003906,710.0996094-222.4003906,919.4003906-294.4003906
				c389-133.7998047,598.9003906-454.7998047,598.9003906-688.9003906V2068.1000977l-21.2998047-2.3000488
				C9642.7998047,2059.1000977,9579.7001953,2048.8999023,9517.7998047,2035.5z"/>
			<path class="st5" d="M8685.4003906,1397.1999512c-9-39.5999756-14.2998047-80.5-15.7998047-122.9000244l-1.2001953-33.4000244
				c-13.2998047,6-26.5996094,12-40.0996094,18C8707.5996094,1321.6999512,8637.2001953,1348.6999512,8685.4003906,1397.1999512z"/>
			<polygon class="st5" points="3349.3999023,11629.7001953 6754.3999023,9871.5 4785.8999023,10887.9003906 			"/>
			<path class="st6" d="M8569.0996094,4060.8999023L9704.2998047,3418.5V2089.3000488
				c-63.2998047-6.8999023-125.2001953-25.8000488-186.5-53.6999512
				c-182.5996094-39.3000488-354.0996094-105.6999512-488.2998047-190.5999756
				c-169.7998047-107.4000244-280.2001953-240-329.9003906-395.5999756l-28.4003906,310.9000244L8569.0996094,4060.8999023z"/>
			<path class="st7" d="M8671.2001953,1760.1999512l28.4003906-310.9000244c-5.5-17.0999756-10.2001953-34.5-14.2001953-52.0999756
				c-48.2001953-48.5,22.2001953-75.5-57.0996094-138.3000488
				c-217.7001953,232.5999756-732.8999023,377.0999756-1344.7998047,377.0999756
				c-210.6000977,0-415.8999023-17.4000244-610.5-51.8000488c-230.3999023-40.6999512-484.5-130.4000244-723.6000977-259.7000732
				l-754.7998047,435.5999756L8671.2001953,1760.1999512z"/>
			<path class="st7" d="M8667.5,1217l-39.2001953,41.9000244c13.4003906-6,26.7998047-12,40.0996094-18L8667.5,1217z"/>
			<path class="st8" d="M5949.3999023,1324.5c-388-209.8000488-736.6000977-523.9000244-880.1000977-902.4000244L5047,363.1999817
				l-22.2998047,58.8999939c-17.5,46.1000061-38,91.2000122-61.2998047,135.4000244l231.2998047,1202.5999756L5949.3999023,1324.5z"
				/>
			
				<linearGradient id="SVGID_2_" gradientUnits="userSpaceOnUse" x1="6043.3530273" y1="-7369.465332" x2="5565.675293" y2="-4821.8500977" gradientTransform="matrix(1 0 0 1 0 9896)">
				<stop  offset="0" style="stop-color:#796636"/>
				<stop  offset="1" style="stop-color:#9F8547"/>
			</linearGradient>
			<polygon class="st9" points="5194.7001953,1760.1999512 3702.8999023,1760.0999756 3452.1000977,4685.7001953 
				8671.2001953,1760.1999512 			"/>
			
				<linearGradient id="SVGID_3_" gradientUnits="userSpaceOnUse" x1="8505.7402344" y1="-8423.8984375" x2="4652.2167969" y2="-4904.7695313" gradientTransform="matrix(1 0 0 1 0 9896)">
				<stop  offset="0" style="stop-color:#AA8E4A"/>
				<stop  offset="1" style="stop-color:#957C41"/>
			</linearGradient>
			<polygon class="st10" points="8671.2001953,1760.1999512 3452.1000977,4685.7001953 5487.1000977,5630.2998047 			"/>
			
				<linearGradient id="SVGID_4_" gradientUnits="userSpaceOnUse" x1="5487.1000977" y1="-6200.75" x2="8671.2001953" y2="-6200.75" gradientTransform="matrix(1 0 0 1 0 9896)">
				<stop  offset="0" style="stop-color:#87703A"/>
				<stop  offset="1" style="stop-color:#7C6837"/>
			</linearGradient>
			<polygon class="st11" points="8569.0996094,4060.8999023 8671.2001953,1760.1999512 5487.1000977,5630.2998047 			"/>
			<path class="st12" d="M5194.7001953,1760.1999512L4963.2998047,557.5
				c-235.3999023,446.2999878-751.6000977,787.5999756-1238.6999512,948.9000244l-21.6999512,253.6999512L5194.7001953,1760.1999512
				z"/>
			
				<linearGradient id="SVGID_5_" gradientUnits="userSpaceOnUse" x1="2651.7160645" y1="-9093.5869141" x2="3863.3608398" y2="-4568.0424805" gradientTransform="matrix(1 0 0 1 0 9896)">
				<stop  offset="0" style="stop-color:#87703A"/>
				<stop  offset="1" style="stop-color:#AC904B"/>
			</linearGradient>
			<path class="st13" d="M3452.1000977,4685.7001953l250.8000488-2925.6000977l21.6999512-253.6999512
				c-103.5,34.3000488-205.8000488,60.5-303.6999512,77.8000488
				c-194.1000977,34.3000488-399.1999512,51.6999512-609.5998535,51.6999512
				c-168.3000488,0-332.8000488-11.3000488-489.1000977-33.5999756l-2.5-0.4000244v1263.6999512L3452.1000977,4685.7001953z"/>
			
				<linearGradient id="SVGID_6_" gradientUnits="userSpaceOnUse" x1="1040.644165" y1="-6577.4213867" x2="4160.1850586" y2="-5471.762207" gradientTransform="matrix(1 0 0 1 0 9896)">
				<stop  offset="0" style="stop-color:#846F3B"/>
				<stop  offset="1" style="stop-color:#BA9B50"/>
			</linearGradient>
			<polygon class="st14" points="2319.8000488,2865.6999512 2319.8000488,4678.2001953 3452.1000977,4685.7001953 			"/>
			<polygon class="st15" points="2319.8000488,4678.2001953 2319.8000488,6573.5 3452.1000977,4685.7001953 			"/>
			
				<radialGradient id="SVGID_7_" cx="3435.2004395" cy="-4987.3535156" r="1769.7216797" gradientTransform="matrix(1 0 0 1 0 9896)" gradientUnits="userSpaceOnUse">
				<stop  offset="0" style="stop-color:#D5C166"/>
				<stop  offset="1" style="stop-color:#BA9B50"/>
			</radialGradient>
			<polygon class="st16" points="3452.1000977,4685.7001953 2319.8000488,6573.5 2319.8000488,6753.7001953 
				5487.1000977,5630.2998047 			"/>
			<polygon class="st17" points="8853.2001953,6295.8999023 9704.2998047,5805.7998047 9704.2998047,3418.3999023 
				8569.0996094,4060.8999023 			"/>
			
				<linearGradient id="SVGID_8_" gradientUnits="userSpaceOnUse" x1="5487.1000977" y1="230.3999023" x2="8853.2001953" y2="230.3999023" gradientTransform="matrix(1 0 0 1 0 4948)">
				<stop  offset="0" style="stop-color:#87703A"/>
				<stop  offset="1" style="stop-color:#7C6837"/>
			</linearGradient>
			<polygon class="st18" points="8853.2001953,6295.8999023 8569.0996094,4060.8999023 5487.1000977,5630.2998047 			"/>
			
				<linearGradient id="SVGID_9_" gradientUnits="userSpaceOnUse" x1="5487.1000977" y1="1408.1499023" x2="8853.2001953" y2="1408.1499023" gradientTransform="matrix(1 0 0 1 0 4948)">
				<stop  offset="0" style="stop-color:#87703A"/>
				<stop  offset="1" style="stop-color:#7C6837"/>
			</linearGradient>
			<polygon class="st19" points="6806.6000977,7082 8853.2001953,6295.8999023 5487.1000977,5630.2998047 			"/>
			<polygon class="st20" points="9704.2998047,6275.3999023 9704.2998047,5805.7998047 8853.2001953,6295.8999023 			"/>
			<polygon class="st21" points="9704.2998047,6967.8999023 9704.2998047,6275.3999023 8853.2001953,6295.8999023 			"/>
			
				<radialGradient id="SVGID_10_" cx="8846.3867188" cy="-3607.8701172" r="1957.2756348" gradientTransform="matrix(1 0 0 1 0 9896)" gradientUnits="userSpaceOnUse">
				<stop  offset="0" style="stop-color:#DCBB62"/>
				<stop  offset="1" style="stop-color:#BA9B50"/>
			</radialGradient>
			<polygon class="st22" points="8019.8999023,8864 9704.2998047,8408 9704.2998047,6967.8999023 8853.2001953,6295.8999023 			"/>
			
				<radialGradient id="SVGID_11_" cx="8289.3554688" cy="-2272.4296875" r="1230.8439941" gradientTransform="matrix(1 0 0 1 0 9896)" gradientUnits="userSpaceOnUse">
				<stop  offset="0" style="stop-color:#CAA959"/>
				<stop  offset="1" style="stop-color:#B99A50"/>
			</radialGradient>
			<polygon class="st23" points="8019.8999023,8864 8853.2001953,6295.8999023 6806.6000977,7082 			"/>
			<polygon class="st24" points="5487.1000977,5630.2998047 2319.8000488,6753.7001953 2319.8000488,8362 
				3977.8999023,9110.7998047 			"/>
			
				<linearGradient id="SVGID_12_" gradientUnits="userSpaceOnUse" x1="8773.5996094" y1="-986.6181641" x2="8773.5996094" y2="1969.909668" gradientTransform="matrix(1 0 0 1 0 9896)">
				<stop  offset="0" style="stop-color:#87703A"/>
				<stop  offset="1" style="stop-color:#5F4F2B"/>
			</linearGradient>
			<polygon class="st25" points="7842.8999023,12254 9704.2998047,9754.2998047 9704.2998047,9146.0996094 9704.2998047,8408 
				8019.8999023,8864 			"/>
			
				<linearGradient id="SVGID_13_" gradientUnits="userSpaceOnUse" x1="7842.8999023" y1="1108.1499023" x2="9866.8925781" y2="1108.1499023" gradientTransform="matrix(1 0 0 1 0 9896)">
				<stop  offset="0" style="stop-color:#5B4B29"/>
				<stop  offset="1" style="stop-color:#5F4F2B"/>
			</linearGradient>
			<polygon class="st26" points="9704.2998047,10712.2998047 9704.2998047,9754.2998047 7842.8999023,12254 			"/>
			
				<linearGradient id="SVGID_14_" gradientUnits="userSpaceOnUse" x1="9035.6220703" y1="2183.4780273" x2="8569.4794922" y2="1122.6003418" gradientTransform="matrix(1 0 0 1 0 9896)">
				<stop  offset="0" style="stop-color:#695A39;stop-opacity:0"/>
				<stop  offset="1" style="stop-color:#937D4C"/>
			</linearGradient>
			<polygon class="st27" points="9704.2998047,11935 9704.2998047,10712.2998047 7842.8999023,12254 			"/>
			
				<radialGradient id="SVGID_15_" cx="6436.7197266" cy="-3078.6845703" r="4835.8046875" gradientTransform="matrix(1 0 0 1 0 9896)" gradientUnits="userSpaceOnUse">
				<stop  offset="0" style="stop-color:#DCBB62"/>
				<stop  offset="1" style="stop-color:#6C5A35"/>
			</radialGradient>
			<polygon class="st28" points="6806.6000977,7082 6754.3999023,9871.5 7842.8999023,12254 8019.8999023,8864 			"/>
			
				<radialGradient id="SVGID_16_" cx="6229.7177734" cy="-2724.359375" r="4087.5498047" gradientTransform="matrix(1 0 0 1 0 9896)" gradientUnits="userSpaceOnUse">
				<stop  offset="0" style="stop-color:#BE9F53"/>
				<stop  offset="1" style="stop-color:#7C6941"/>
			</radialGradient>
			<polygon class="st29" points="4785.8999023,10887.9003906 6806.6000977,7082 3977.8999023,9110.7998047 			"/>
			
				<linearGradient id="SVGID_17_" gradientUnits="userSpaceOnUse" x1="2864.2832031" y1="-353.2321167" x2="4631.9829102" y2="55.0813599" gradientTransform="matrix(1 0 0 1 0 9896)">
				<stop  offset="0" style="stop-color:#98814E;stop-opacity:0"/>
				<stop  offset="1" style="stop-color:#7A693D"/>
			</linearGradient>
			<polygon class="st30" points="3977.8999023,9110.7998047 2319.8000488,8362 2319.8000488,10472 4785.8999023,10887.9003906 			
				"/>
			
				<radialGradient id="SVGID_18_" cx="5353.9418945" cy="917.9375" r="2460.8942871" gradientTransform="matrix(1 0 0 1 0 4948)" gradientUnits="userSpaceOnUse">
				<stop  offset="0" style="stop-color:#C2A255"/>
				<stop  offset="1" style="stop-color:#7F6A37"/>
			</radialGradient>
			<polygon class="st31" points="3977.8999023,9110.7998047 6806.6000977,7082 5487.1000977,5630.2998047 			"/>
			
				<linearGradient id="SVGID_19_" gradientUnits="userSpaceOnUse" x1="2887.1774902" y1="1926.1590576" x2="4949.7626953" y2="1916.1951904" gradientTransform="matrix(1 0 0 1 0 9896)">
				<stop  offset="0" style="stop-color:#867245;stop-opacity:0"/>
				<stop  offset="0.7857" style="stop-color:#72603D"/>
			</linearGradient>
			<polygon class="st32" points="4785.8999023,10887.9003906 2319.8000488,10472 2319.8000488,13177.7998047 3100.5,12853.4003906 
				3349.3999023,11629.7001953 			"/>
			
				<linearGradient id="SVGID_20_" gradientUnits="userSpaceOnUse" x1="6212.6572266" y1="2652.567627" x2="5663.3071289" y2="759.6975098" gradientTransform="matrix(1 0 0 1 0 9896)">
				<stop  offset="0" style="stop-color:#695A39;stop-opacity:0"/>
				<stop  offset="1" style="stop-color:#937D4C"/>
			</linearGradient>
			<polygon class="st33" points="4787.2998047,13549.0996094 7842.8999023,12254 6754.3999023,9871.5 			"/>
			
				<radialGradient id="SVGID_21_" cx="6357.1040039" cy="-1944.1230469" r="2666.2202148" gradientTransform="matrix(1 0 0 1 0 9896)" gradientUnits="userSpaceOnUse">
				<stop  offset="0" style="stop-color:#DCBB62"/>
				<stop  offset="1" style="stop-color:#8C774A"/>
			</radialGradient>
			<polygon class="st34" points="6754.3999023,9871.5 6806.6000977,7082 4785.8999023,10887.9003906 			"/>
			
				<linearGradient id="SVGID_22_" gradientUnits="userSpaceOnUse" x1="3392.3637695" y1="3248.8759766" x2="6983.0493164" y2="298.3124695" gradientTransform="matrix(1 0 0 1 0 9896)">
				<stop  offset="0" style="stop-color:#72623E;stop-opacity:0"/>
				<stop  offset="1" style="stop-color:#877345"/>
			</linearGradient>
			<polygon class="st35" points="3349.3999023,11629.7001953 3100.5,12853.4003906 4787.2998047,13549.0996094 6754.3999023,9871.5 
							"/>
		</g>
		<path class="st1" d="M5047,430.6000061c231,609,981.2001953,1063.8000488,1621.8999023,1177.0999756
			c197.5,34.9000244,407.1000977,52.1999512,614.6000977,52.1999512c570.5,0,1124.5-130.6999512,1362.2001953-384.6999512
			C8665.4003906,1809.3999023,9262.7998047,2042.5,9703.6005859,2089.5v7056.9003906V12498.5
			c0,208.5996094-183.5,528.9003906-582.7998047,666.2998047C8669.5009766,13320,7614.4008789,13634.5,6927.0009766,13868.3994141
			c-775.5,263.9003906-1710.3999023,701.2001953-1880,985.5c-169.6000977-284.2998047-1104.5-721.5996094-1880-985.5
			c-249.6999512-85-547.8999023-180.5996094-848.1000977-275.2998047V9146.4003906v-7056.800293V1626
			c157.6999512,22.5,324.3999023,33.8000488,492.5,33.8000488c207.1999512,0,416.5-17.1999512,613.6999512-52.0999756
			C4065.6999512,1494.5,4816,1039.5999756,5047,430.6000061 M5047,296l-44.7001953,117.7000122
			c-228.8999023,603.4000244-987.6999512,1041.3000488-1585.5,1147
			c-192.8000488,34.0999756-396.5,51.4000244-605.3999023,51.4000244c-167.1000977,0-330.6000977-11.1999512-485.8000488-33.3000488
			l-54.5-7.8000488v55.0999756v463.6000977v7056.8994141v4446.7001953v35l33.3999023,10.5
			c372.1999512,117.5,633.5,202.2998047,847.0998535,275c401.5,136.7001953,824.6999512,312.5,1161.1000977,482.5
			c374.5,189.2998047,620.7001953,360.5,693.2998047,482.2001953l41,68.7001953l41-68.7001953
			c72.6000977-121.7001953,318.7998047-292.9003906,693.2998047-482.2001953c336.2998047-170,759.5-345.9003906,1161.1000977-482.5
			c368.6000977-125.5,849.6000977-276.0996094,1274-409.0996094c365.2998047-114.4003906,710.4003906-222.5,920-294.5996094
			c240.2998047-82.5996094,384.5996094-220.9003906,463.4003906-322.2998047
			c96.4003906-124.0996094,151.7001953-266,151.7001953-389.2001953V9146.4003906v-7056.800293v-42.9000244l-42.7001953-4.5999756
			c-246.7998047-26.3000488-489.7001953-105.5-666.4003906-217.3000488
			c-223.2001953-141.1999512-340.5996094-326.6999512-348.9003906-551.1999512l-4.2001953-114.5999756l-78.4003906,83.8000488
			c-106.7998047,114.0999756-291.4003906,208.9000244-533.7998047,274.0999756
			c-232.2001953,62.4000244-506.6000977,95.4000244-793.5,95.4000244c-209.2001953,0-413.2001953-17.3000488-606.2998047-51.5
			c-597.7998047-105.6999512-1356.6000977-543.5999756-1585.5-1147L5047,296L5047,296z"/>
		<g>
			
				<linearGradient id="SVGID_23_" gradientUnits="userSpaceOnUse" x1="1354.6499023" y1="-3730.8999023" x2="1354.6500244" y2="8390.8847656" gradientTransform="matrix(1 0 0 1 0 4948)">
				<stop  offset="0" style="stop-color:#B99B54"/>
				<stop  offset="1" style="stop-color:#524428"/>
			</linearGradient>
			<path class="st36" d="M2311.8000488,13615.9003906c-143.3999023-45.2998047-287.3000488-90.2998047-426.5-133.9003906
				c-365.4000244-114.5-710.5-222.5996094-919.9000244-294.5996094c-389.0999756-133.7998047-599-454.7998047-599-688.9003906
				V2068.1000977l21.3999939-2.3000488C638.2000122,2039.1000977,884.8000488,1958.6000977,1064.5,1844.9000244
				c230.3000488-145.6999512,351.4000244-337.7000732,360-570.5l2.0999756-57.3000488L1465.7999268,1259
				c154.0999756,164.6999512,458.2999268,286.5999756,856.5999756,343.4000244l20.5,2.9000244v12020.4003906
				L2311.8000488,13615.9003906z"/>
			<path class="st1" d="M1448.3000488,1275.1999512C1616.1000977,1454.5,1941.5,1572.0999756,2319,1626v463.6000977v6302.1000977
				v754.7001953v4446.7001953c-526.1999512-166.0996094-1058.4000244-329.5-1345.8000488-428.2998047
				c-399.4000244-137.4003906-582.9000244-457.7001953-582.9000244-666.2998047V9146.4003906v-754.7001953V2089.6000977
				C831.2000122,2042.5,1428.5999756,1809.4000244,1448.3000488,1275.1999512 M1404.8000488,1158.8000488l-4.1999512,114.5999756
				c-8.3000488,224.5-125.6999512,410-348.9000244,551.2000732c-176.7000122,111.8000488-419.5999756,191-666.4000244,217.3000488
				l-42.7000122,4.5999756v42.9000244V8391.5v754.7001953v3352.1005859c0,123.2001953,55.2999878,265,151.7000122,389.2001953
				c78.7999878,101.4003906,223.0999756,239.7001953,463.4000244,322.2998047
				c209.6999512,72.0996094,555.0999756,180.2998047,920.7999268,294.9003906
				c139.0999756,43.5996094,282.8999023,88.5996094,426.1999512,133.7998047l62.1000977,19.5996094v-65.2001953v-4446.5
				v-754.7001953V2089.6000977V1626v-41.4000244l-41-5.8000488c-393-56-692.1999512-175.4000244-842.5999756-336.0999756
				L1404.8000488,1158.8000488L1404.8000488,1158.8000488z"/>
		</g>
		<g>
			<path class="st37" d="M6160.2001953,7186c-676.1000977,0-1311.7998047-263.2998047-1789.8999023-741.3999023
				s-741.3999023-1113.800293-741.3999023-1789.8999023s263.3000488-1311.8000488,741.3999023-1789.8999023
				s1113.800293-741.3999023,1789.8999023-741.3999023S7472,2386.7004395,7950.1000977,2864.800293
				S8691.5,3978.6003418,8691.5,4654.7001953S8428.2001953,5966.5,7950.1000977,6444.6000977S6836.3999023,7186,6160.2001953,7186z"
				/>
			<path class="st1" d="M6160.2001953,2147.3000488c338.5,0,666.8999023,66.3000488,976,197
				c298.6000977,126.3000488,566.7001953,307.1000977,797,537.4001465s411.0996094,498.5,537.4003906,797
				c130.7001953,309.1000977,197,637.5,197,976s-66.2998047,666.8999023-197,976
				c-126.2998047,298.6000977-307.1000977,566.7001953-537.3999023,797s-498.5,411.1000977-797,537.3999023
				c-309.1000977,130.7001953-637.5,197-976,197s-666.8999023-66.2998047-976-197
				c-298.6000977-126.2998047-566.7001953-307.1000977-797-537.3999023s-411.1000977-498.5-537.3999023-797
				c-130.6999512-309.1000977-197-637.5-197-976s66.3000488-666.8999023,197-976
				c126.3000488-298.6000977,307.1000977-566.6999512,537.3999023-797s498.5-411.1000977,797-537.3999023
				C5493.3999023,2213.6000977,5821.7001953,2147.3000488,6160.2001953,2147.3000488 M6160.2001953,2099.5
				C4749,2099.5,3605.0002441,3243.5,3605.0002441,4654.7001953S4749,7209.9003906,6160.2001953,7209.9003906
				s2555.2001953-1144,2555.2001953-2555.2001953S7571.3999023,2099.5,6160.2001953,2099.5L6160.2001953,2099.5z"/>
		</g>
	</g>
	<g>
		
			<linearGradient id="SVGID_24_" gradientUnits="userSpaceOnUse" x1="5047" y1="4685.1289063" x2="5047" y2="4261.8095703" gradientTransform="matrix(1 0 0 1 0 4948)">
			<stop  offset="0" style="stop-color:#040404;stop-opacity:0"/>
			<stop  offset="0.2299" style="stop-color:#020202;stop-opacity:0.1"/>
			<stop  offset="0.8281" style="stop-color:#020202;stop-opacity:0.8704"/>
			<stop  offset="1" style="stop-color:#020202"/>
		</linearGradient>
		<rect x="342.2999878" y="9194.0996094" class="st38" width="9409.4003906" height="443.2001953"/>
		<g>
			<g>
				<rect x="23.1000004" y="7551.3999023" class="st37" width="10047.7998047" height="1618.6000977"/>
				<path class="st1" d="M10047,7575.2998047v1570.7998047H5047H47V7575.2998047h5000H10047 M10094.7998047,7527.6000977H10047H5047
					H47H-0.8v47.7998047v1570.800293V9194H47h5000h5000h47.7998047v-47.7998047V7575.2998047V7527.6000977
					L10094.7998047,7527.6000977z"/>
			</g>
			<g>
				<polygon class="st39" points="1054.3000488,8360.5 512.2999878,7938 47,8060.7998047 47,8660.0996094 512.5,8783 				"/>
				<polygon class="st39" points="1032.5999756,7800.7001953 47,7575.2998047 512.2999878,7938 				"/>
				<polygon class="st40" points="47,7575.2998047 47,8060.7998047 512.2999878,7938 				"/>
				<polygon class="st39" points="512.5,8783 47,9146.0996094 1032.5999756,8920.2998047 				"/>
				<polygon class="st40" points="47,8660.0996094 47,9145.7001953 47,9146.0996094 47.7999992,9145.5 512.5,8783 				"/>
			</g>
			<g>
				<polygon class="st39" points="9039.7001953,8360.5 9581.7001953,7938 10047,8060.7998047 10047,8660.0996094 9581.4003906,8783 
									"/>
				<polygon class="st39" points="9061.4003906,7800.7001953 10047,7575.2998047 9581.7001953,7938 				"/>
				<polygon class="st40" points="10047,7575.2998047 10047,8060.7998047 9581.7001953,7938 				"/>
				<polygon class="st39" points="9581.4003906,8783 10047,9146.0996094 9061.4003906,8920.2998047 				"/>
				<polygon class="st40" points="10047,8660.0996094 10047,9145.7001953 10047,9146.0996094 10046.2001953,9145.5 
					9581.4003906,8783 				"/>
			</g>
		</g>
	</g>
</g>
<g id="Слой_2">
</g>
</svg>
