<svg version="1.1" id="Слой_5" xmlns="http://www.w3.org/2000/svg" xmlns:xlink="http://www.w3.org/1999/xlink" x="0px" y="0px"
	 viewBox="0 0 10095.5195313 14947.1318359" style="enable-background:new 0 0 10095.5195313 14947.1318359;" xml:space="preserve">
<style type="text/css">
	.card3-1-0{fill:#0F1312;}
	.card3-1-1{fill:#FFFFFF;}
	.card3-1-2{fill:#5559A5;}
	.card3-1-3{fill:#85FFFF;}
	.card3-1-4{fill:url(#card3-1-_1_);}
	.card3-1-5{fill:none;}
	.card3-1-6{fill:#4D5477;}
	.card3-1-7{fill:#434B6F;}
	.card3-1-8{fill:#796636;}
	.card3-1-9{fill:#525B85;}
	.card3-1-10{fill:#606A9B;}
	.card3-1-11{fill:#505782;}
	.card3-1-12{fill:url(#card3-1-_2_);}
	.card3-1-13{fill:url(#card3-1-_3_);}
	.card3-1-14{fill:#565C8A;}
	.card3-1-15{fill:url(#card3-1-_4_);}
	.card3-1-16{fill:#424A6E;}
	.card3-1-17{fill:#575F8E;}
	.card3-1-18{fill:#4B527B;}
	.card3-1-19{fill:#6B74AC;}
	.card3-1-20{fill:url(#card3-1-_5_);}
	.card3-1-21{fill:url(#card3-1-_6_);}
	.card3-1-22{fill:#474E75;}
	.card3-1-23{fill:url(#card3-1-_7_);}
	.card3-1-24{fill:url(#card3-1-_8_);}
	.card3-1-25{fill:url(#card3-1-_9_);}
	.card3-1-26{fill:url(#card3-1-_10_);}
	.card3-1-27{fill:url(#card3-1-_11_);}
	.card3-1-28{fill:url(#card3-1-_12_);}
	.card3-1-29{fill:url(#card3-1-_13_);}
	.card3-1-30{fill:url(#card3-1-_14_);}
	.card3-1-31{fill:url(#card3-1-_15_);}
	.card3-1-32{fill:url(#card3-1-_16_);}
	.card3-1-33{fill:url(#card3-1-_17_);}
	.card3-1-34{fill:url(#card3-1-_18_);}
	.card3-1-35{fill:#25304C;}
	.card3-1-36{fill:url(#card3-1-_19_);}
	.card3-1-37{fill:#344568;}
	.card3-1-38{fill:#3E5478;}
</style>
<g>
	<g>
		<path class="card3-1-0" d="M390.6431885,9733.421875c-7.8320313,0-15.3564453-3.8769531-19.8681641-10.6445313L27.1519794,9207.3671875
			c-4.8876953-7.3242188-5.3417969-16.7480469-1.1865234-24.5117188s12.2460918-12.6074219,21.0546856-12.6074219h343.6230469
			c13.1884766,0,23.8818359,10.6835938,23.8818359,23.8769531v515.4101563c0,10.5273438-6.8896484,19.8046875-16.9628906,22.8515625
			C395.2769775,9733.0800781,392.947876,9733.421875,390.6431885,9733.421875z"/>
		<path class="card3-1-1" d="M390.6419678,9194.1230469v515.4130859L47.0201416,9194.1230469H390.6419678 M390.6419678,9146.3632813
			H47.0201416c-17.6135235,0-33.7976074,9.6943359-42.109375,25.2246094
			c-8.3105469,15.5292969-7.3999023,34.3730469,2.3706055,49.0292969l343.6218262,515.4130859
			c9.0234375,13.5341797,24.0722656,21.2705078,39.7424316,21.2705078c4.6044922,0,9.2626953-0.6679688,13.8366699-2.0537109
			c20.144043-6.0986328,33.9196777-24.6640625,33.9196777-45.7109375v-515.4130859
			C438.4019775,9167.7460938,417.0189209,9146.3632813,390.6419678,9146.3632813L390.6419678,9146.3632813z"/>
	</g>
	<g>
		<path class="card3-1-0" d="M9703.3583984,9733.421875c-2.3046875,0-4.6337891-0.3417969-6.9189453-1.0351563
			c-10.0732422-3.046875-16.9628906-12.3242188-16.9628906-22.8515625V9194.125
			c0-13.1933594,10.6933594-23.8769531,23.8818359-23.8769531h343.6230469c8.8085938,0,16.8994141,4.84375,21.0546875,12.6074219
			s3.7011719,17.1875-1.1865234,24.5117188l-343.6230469,515.4101563
			C9718.7148438,9729.5449219,9711.1904297,9733.421875,9703.3583984,9733.421875z"/>
		<path class="card3-1-1" d="M10046.9794922,9194.1230469l-343.6220703,515.4130859v-515.4130859H10046.9794922
			 M10046.9794922,9146.3632813h-343.6220703c-26.3779297,0-47.7607422,21.3828125-47.7607422,47.7597656v515.4130859
			c0,21.046875,13.7763672,39.6123047,33.9199219,45.7109375c4.5732422,1.3847656,9.2333984,2.0537109,13.8369141,2.0537109
			c15.671875,0,30.7177734-7.7353516,39.7421875-21.2705078l343.6220703-515.4130859
			c9.7714844-14.65625,10.6826172-33.5,2.3710938-49.0292969
			C10080.7773438,9156.0576172,10064.59375,9146.3632813,10046.9794922,9146.3632813L10046.9794922,9146.3632813z"/>
	</g>
</g>
<g>
	<g>
		<g>
			<g>
				<path class="card3-1-2" d="M367.0537109,7529.1318359c-12.6757813-205.3125-22.6708984-664.9267578-35.3173828-1246.8212891
					c-29.3994141-1352.4755859-73.828125-3396.3522949-201.5087738-4550.8398438l-2.9785233-26.9335938l27.0947342,0.4296875
					c45.7275391,0.7275391,90.6494141,1.09375,133.5058441,1.09375c460.9765625,0,796.6845703-41.7138672,1056.4941406-131.2792969
					l63.0517578-21.7333984l-34.9267578,56.8164063C1183.1035156,1917.9453125,757.8007813,2069.625,414.7685547,2110.4013672
					v5417.2607422L367.0537109,7529.1318359z"/>
				<g>
					<path class="card3-1-3" d="M1352.1257324,1597.3570557c-189.9133301,308.9788818-621.8688965,455.5494385-961.237793,491.708374
						v5438.5981445c-42.0239258-680.6108398-54.1088867-4145.7758789-236.9250336-5798.8183594
						c44.9133301,0.7128906,89.5422363,1.0968018,133.8757172,1.0968018
						C685.5949707,1729.9418945,1057.2172852,1699.0220947,1352.1257324,1597.3570557 M1462.6591797,1508.7333984
						l-126.0998535,43.4710693c-257.2290039,88.6755371-590.46875,129.9768066-1048.7207031,129.9768066
						c-42.7111664,0-87.4975433-0.3668213-133.1176605-1.0900879l-54.1857986-0.8599854l5.9570313,53.8641357
						C234.0532379,2887.5187988,278.4685059,4930.7373047,307.859375,6282.777832
						c12.65625,582.1865234,22.6525879,1042.0327148,35.3588867,1247.8291016l95.4309082-2.9433594V2131.4934082
						c178.7023926-23.3244629,357.8491211-73.3996582,508.795166-142.5537109
						c203.2543945-93.1195068,353.0993652-216.4520264,445.3710938-366.5734863L1462.6591797,1508.7333984
						L1462.6591797,1508.7333984z"/>
				</g>
			</g>
		</g>
		<g>
			<g>
				<path class="card3-1-2" d="M9679.2314453,7527.6083984V2110.3479004
					c-343.0322266-40.7763672-768.3349609-192.4561768-957.7001953-500.5372314l-34.9267578-56.8164063l63.0517578,21.7333984
					c259.8095703,89.5654297,595.5175781,131.2792969,1056.4941406,131.2792969
					c42.8662109,0,87.7832031-0.3662109,133.5058594-1.09375l27.0947266-0.4296875l-2.9785156,26.9335938
					c-127.6806641,1154.4874268-172.109375,3198.3642578-201.5087891,4550.8398438
					c-12.6464844,581.8945313-22.6416016,1041.5087891-35.3173828,1246.8212891L9679.2314453,7527.6083984z"/>
				<g>
					<path class="card3-1-3" d="M8741.8740234,1597.3033447c294.9091797,101.6650391,666.53125,132.5848389,1064.2871094,132.5848389
						c44.3330078,0,88.9619141-0.3839111,133.875-1.0968018
						c-182.8144531,1653.0426025-194.9003906,5118.2075195-236.9248047,5798.8183594V2089.010498
						C9363.7421875,2052.8515625,8931.7871094,1906.2816162,8741.8740234,1597.3033447 M8631.3408203,1508.6796875
						l69.84375,113.6328125c92.2714844,150.1208496,242.1162109,273.4533691,445.3691406,366.5722656
						c150.9472656,69.1547852,330.0947266,119.2297363,508.796875,142.5544434v5396.1708984l95.4306641,2.9433594
						c12.7070313-205.7963867,22.703125-665.644043,35.3583984-1247.8310547
						c29.390625-1352.0405273,73.8076172-3395.2583008,201.3681641-4548.6806641l5.9570313-53.8641357l-54.1855469,0.8599854
						c-45.6201172,0.7232666-90.4072266,1.0900879-133.1181641,1.0900879
						c-458.2509766,0-791.4902344-41.3012695-1048.7207031-129.9768066L8631.3408203,1508.6796875L8631.3408203,1508.6796875z"/>
				</g>
			</g>
		</g>
	</g>
	<g>
		
			<linearGradient id="card3-1-_1_" gradientUnits="userSpaceOnUse" x1="516.6679077" y1="-9059.5615234" x2="9758.1025391" y2="-5459.0014648" gradientTransform="matrix(1 0 0 1 0 14648)">
			<stop  offset="0" style="stop-color:#2A314C"/>
			<stop  offset="0.7254464" style="stop-color:#4D6390"/>
			<stop  offset="1" style="stop-color:#282F48"/>
		</linearGradient>
		<path class="card3-1-4" d="M5026.4726563,14866.1533203c-165.15625-276.8261719-1085.2832031-709.0234375-1867.1826172-975.1367188
			c-213.6376953-72.7148438-475.0439453-157.578125-847.5830078-275.15625l-16.6943359-5.2734375V1598.4678955l27.2509766,3.8867188
			c156.3085938,22.2851563,320.8789063,33.5888672,489.140625,33.5888672
			c210.3369141,0,415.4199219-17.4072266,609.5556641-51.7285156
			c604.2724609-106.8408203,1371.6845703-550.4199219,1603.6914063-1162.0458984l22.3291016-58.8623047l22.3242188,58.8623047
			c232.0117188,611.6259766,999.4238281,1055.2050781,1603.6962891,1162.0458984
			c194.5263672,34.3945313,399.921875,51.8310547,610.4736328,51.8261719
			c611.8505859-0.0097656,1127.1484375-144.5166016,1344.7998047-377.1191406l39.1894531-41.8798828l2.109375,57.3193359
			c8.5839844,232.8808594,129.6875,424.8339844,359.9462891,570.5419922
			c179.6777344,113.6914063,426.3037109,194.2138672,676.640625,220.913208l21.3427734,2.2753906v10430.3955078
			c0,234.0820313-209.9121094,555.0585938-598.9355469,688.8574219
			c-209.2773438,71.9824219-554.2041016,180.0292969-919.3896484,294.4238281
			c-424.5019531,132.9785156-905.6396484,283.7011719-1274.5117188,409.2480469
			c-781.9042969,266.1132813-1702.0263672,698.3105469-1867.1777344,975.1367188l-20.5078125,34.375L5026.4726563,14866.1533203z"/>
		<path class="card3-1-1" d="M5046.9775391,430.6340637c231.0019531,608.973999,981.2441406,1063.8299561,1621.8662109,1177.0959473
			c197.4731445,34.9139404,407.1088867,52.1905518,614.6279297,52.1905518
			c570.5102539,0,1124.5439453-130.6591797,1362.2402344-384.6807861
			c19.6816406,534.1619873,617.1220703,767.3101807,1057.9111328,814.3244629v7056.859375v3352.0664063
			c0,208.6015625-183.4677734,528.9257813-582.8251953,666.2773438
			c-451.3203125,155.2226563-1506.3959961,469.6748047-2193.8242188,703.6386719
			c-775.5341797,263.9492188-1710.4023438,701.2480469-1879.9960938,985.5078125
			c-169.5917969-284.2597656-1104.4599609-721.5625-1879.9934082-985.5078125
			c-249.7009277-84.9863281-547.9248047-180.5859375-848.0908203-275.3242188V9146.4238281V2089.564209v-463.5700684
			c157.6538086,22.479248,324.3737793,33.8269043,492.5183105,33.8269043
			c207.1801758,0,416.5197754-17.2290039,613.7023926-52.0910645
			C4065.7353516,1494.4639893,4815.9775391,1039.6080322,5046.9775391,430.6340637 M5046.9775391,295.9721985
			l-44.6557617,117.7215576c-228.8818359,603.394165-987.7277832,1041.3104248-1585.5244141,1147.0043945
			c-192.767334,34.0820313-396.4501953,51.3635254-605.3857422,51.3635254
			c-167.1435547,0-330.5822754-11.2194824-485.7763672-33.3496094l-54.5019531-7.7722168v55.0543213v463.5700684v7056.859375
			v4446.6582031v35.0078125l33.3837891,10.5380859c372.2485352,117.4882813,633.4960938,202.2978516,847.0788574,274.9921875
			c401.5393066,136.6601563,824.7314453,312.5419922,1161.0681152,482.5458984
			c374.4897461,189.2919922,620.7075195,360.5458984,693.2978516,482.2177734l41.015625,68.7480469l41.0161133-68.7480469
			c72.5898438-121.6699219,318.8081055-292.9238281,693.300293-482.2158203
			c336.331543-170.0019531,759.5239258-345.8837891,1161.0678711-482.5478516
			c368.6000977-125.4521484,849.6015625-276.1298828,1273.9819336-409.0683594
			c365.3320313-114.4414063,710.4042969-222.5380859,919.9882813-294.6201172
			c240.2578125-82.6318359,384.5878906-220.8701172,463.3574219-322.2880859
			c96.4042969-124.1191406,151.6943359-265.9599609,151.6943359-389.1533203V9146.4238281V2089.564209v-42.9383545
			l-42.6943359-4.553833c-246.8193359-26.3238525-489.7138672-105.5462646-666.3994141-217.3480225
			c-223.2060547-141.2420654-340.5761719-326.7059326-348.8505859-551.2420654l-4.2236328-114.6362305l-78.3779297,83.762207
			c-106.7861328,114.119873-291.3857422,208.9038086-533.8442383,274.1082764
			c-232.1801758,62.4395752-506.5761719,95.4437256-793.5219727,95.4437256
			c-209.1860352,0-413.1782227-17.3138428-606.3120117-51.461792
			c-597.7958984-105.6921387-1356.6420898-543.6102295-1585.5258789-1147.0043945L5046.9775391,295.9721985
			L5046.9775391,295.9721985z"/>
	</g>
	<g>
		<path class="card3-1-5" d="M9517.8486328,2035.5351563c61.2685547,27.9697266,123.1679688,46.8798828,186.4980469,53.7314453
			v1329.1826172v2387.3486328v469.6513672v692.4848633v1440.0610352v738.1308594v608.1826172v957.9824219v1222.6835938
			l-1861.4682617,319.0087891l-3055.5634766,1295.1523438l-1686.8071289-695.7685547l-780.7314453,324.4140625v-2705.7919922
			V8362.0429688V6753.6533203v-180.1162109V4678.1708984V2865.6757813V1602l-24.7636719-3.5322266v12012.1191406
			l16.6943359,5.2734375c372.5390625,117.578125,633.9453125,202.4414063,847.5830078,275.15625
			c781.8994141,266.1132813,1702.0263672,698.3105469,1867.1826172,975.1367188l20.5078125,34.375l20.5078125-34.375
			c165.1513672-276.8261719,1085.2734375-709.0234375,1867.1777344-975.1367188
			c368.8720703-125.546875,850.0097656-276.2695313,1274.5117188-409.2480469
			c365.1855469-114.3945313,710.1123047-222.4414063,919.3896484-294.4238281
			c389.0234375-133.7988281,598.9355469-454.7753906,598.9355469-688.8574219V2068.0917969l-21.3427734-2.2753906
			C9642.8095703,2059.0595703,9579.6992188,2048.8505859,9517.8486328,2035.5351563z"/>
		<path class="card3-1-5" d="M8685.4003906,1397.2324219c-8.9716797-39.5869141-14.2675781-80.5498047-15.8271484-122.8710938
			l-1.2294922-33.4111328c-13.2763672,5.9609375-26.6298828,11.9511719-40.0693359,17.9716797
			C8707.5585938,1321.7060547,8637.1914063,1348.7089844,8685.4003906,1397.2324219z"/>
		<polygon class="card3-1-5" points="3349.4384766,11629.6591797 6754.3862305,9871.5361328 4785.9199219,10887.9404297 		"/>
		<path class="card3-1-6" d="M8569.1289063,4060.8701172l1135.2177734-642.4208984V2089.2666016
			c-63.3300781-6.8515625-125.2294922-25.7617188-186.4980469-53.7314453
			c-182.5585938-39.3017578-354.1210938-105.7109375-488.3291016-190.6318359
			c-169.7617188-107.4257813-280.1787109-239.9931641-329.9277344-395.5615234l-28.375,310.8876953L8569.1289063,4060.8701172z"/>
		<path class="card3-1-7" d="M8671.2167969,1760.2294922l28.375-310.8876953
			c-5.4658203-17.0927734-10.1923828-34.4648438-14.1914063-52.109375
			c-48.2089844-48.5234375,22.1582031-75.5263672-57.1259766-138.3105469
			c-217.6513672,232.6025391-732.9492188,377.109375-1344.7998047,377.1191406
			c-210.5517578,0.0048828-415.9472656-17.4316406-610.4736328-51.8261719
			c-230.3774414-40.7324219-484.4638672-130.4179688-723.5571289-259.6923828l-754.7890625,435.6279297L8671.2167969,1760.2294922z"
			/>
		<path class="card3-1-8" d="M8667.4638672,1217.0419922l-39.1894531,41.8798828
			c13.4394531-6.0205078,26.7929688-12.0107422,40.0693359-17.9716797L8667.4638672,1217.0419922z"/>
		<path class="card3-1-9" d="M5949.4438477,1324.5224609c-388.0400391-209.8085938-736.581543-523.9082031-880.1391602-902.3535156
			l-22.3242188-58.8623047l-22.3291016,58.8623047c-17.4882813,46.1025391-38.0380859,91.2431641-61.3110352,135.3642578
			l231.3144531,1202.6171875L5949.4438477,1324.5224609z"/>
		<polygon class="card3-1-7" points="5194.6547852,1760.1503906 3702.9228516,1760.1162109 3452.1435547,4685.6689453 
			8671.2167969,1760.2294922 		"/>
		<polygon class="card3-1-10" points="8671.2167969,1760.2294922 3452.1435547,4685.6689453 5487.1044922,5630.2548828 		"/>
		<polygon class="card3-1-11" points="8569.1289063,4060.8701172 8671.2167969,1760.2294922 5487.1044922,5630.2548828 		"/>
		<path class="card3-1-7" d="M5194.6547852,1760.1503906L4963.340332,557.5332031
			c-235.4365234,446.3408203-751.5561523,787.5712891-1238.6716309,948.8994141l-21.7458496,253.6835938L5194.6547852,1760.1503906z
			"/>
		
			<linearGradient id="card3-1-_2_" gradientUnits="userSpaceOnUse" x1="2651.7700195" y1="-18793.6015625" x2="3863.4147949" y2="-14268.0566406" gradientTransform="matrix(1 0 0 1 0 19596)">
			<stop  offset="0" style="stop-color:#4B527B"/>
			<stop  offset="1" style="stop-color:#5A6292"/>
		</linearGradient>
		<path class="card3-1-12" d="M3452.1435547,4685.6689453l250.7792969-2925.5527344l21.7458496-253.6835938
			c-103.5385742,34.2919922-205.767334,60.4658203-303.7087402,77.7822266
			c-194.1357422,34.3212891-399.21875,51.7285156-609.5556641,51.7285156
			c-168.2617188,0-332.8320313-11.3037109-489.140625-33.5888672L2319.7763672,1602v1263.6757813L3452.1435547,4685.6689453z"/>
		
			<linearGradient id="card3-1-_3_" gradientUnits="userSpaceOnUse" x1="1467.1607666" y1="10669.4619141" x2="3449.8994141" y2="11372.2050781" gradientTransform="matrix(1 0 0 -1 0 14948)">
			<stop  offset="0" style="stop-color:#505782"/>
			<stop  offset="1" style="stop-color:#636B9E"/>
		</linearGradient>
		<polygon class="card3-1-13" points="2319.7763672,2865.6757813 2319.7763672,4678.1708984 3452.1435547,4685.6689453 		"/>
		<polygon class="card3-1-14" points="2319.7763672,4678.1708984 2319.7763672,6573.5371094 3452.1435547,4685.6689453 		"/>
		
			<radialGradient id="card3-1-_4_" cx="3435.2004395" cy="-14687.3535156" r="1769.7216797" gradientTransform="matrix(1 0 0 1 0 19596)" gradientUnits="userSpaceOnUse">
			<stop  offset="0" style="stop-color:#7B86C2"/>
			<stop  offset="1" style="stop-color:#747DB8"/>
		</radialGradient>
		<polygon class="card3-1-15" points="3452.1435547,4685.6689453 2319.7763672,6573.5371094 2319.7763672,6753.6533203 
			5487.1044922,5630.2548828 		"/>
		<polygon class="card3-1-16" points="8853.1669922,6295.9462891 9704.3466797,5805.7978516 9704.3466797,3418.4492188 
			8569.1289063,4060.8701172 		"/>
		<polygon class="card3-1-17" points="8853.1669922,6295.9462891 8569.1289063,4060.8701172 5487.1044922,5630.2548828 		"/>
		<polygon class="card3-1-18" points="6806.6083984,7082.0253906 8853.1669922,6295.9462891 5487.1044922,5630.2548828 		"/>
		<polygon class="card3-1-18" points="9704.3466797,6275.4492188 9704.3466797,5805.7978516 8853.1669922,6295.9462891 		"/>
		<polygon class="card3-1-19" points="9704.3466797,6967.934082 9704.3466797,6275.4492188 8853.1669922,6295.9462891 		"/>
		
			<radialGradient id="card3-1-_5_" cx="8846.3867188" cy="-13307.8701172" r="1957.2756348" gradientTransform="matrix(1 0 0 1 0 19596)" gradientUnits="userSpaceOnUse">
			<stop  offset="0" style="stop-color:#828ECE"/>
			<stop  offset="1" style="stop-color:#6A73A9"/>
		</radialGradient>
		<polygon class="card3-1-20" points="8019.925293,8863.9765625 9704.3466797,8407.9951172 9704.3466797,6967.934082 
			8853.1669922,6295.9462891 		"/>
		
			<radialGradient id="card3-1-_6_" cx="8289.3554688" cy="-11972.4296875" r="1230.8485107" gradientTransform="matrix(1 0 0 1 0 19596)" gradientUnits="userSpaceOnUse">
			<stop  offset="0" style="stop-color:#747FBB"/>
			<stop  offset="1" style="stop-color:#7079B3"/>
		</radialGradient>
		<polygon class="card3-1-21" points="8019.925293,8863.9765625 8853.1669922,6295.9462891 6806.6083984,7082.0253906 		"/>
		<polygon class="card3-1-22" points="5487.1044922,5630.2548828 2319.7763672,6753.6533203 2319.7763672,8362.0429688 
			3977.8557129,9110.7597656 		"/>
		
			<linearGradient id="card3-1-_7_" gradientUnits="userSpaceOnUse" x1="8641.5048828" y1="5318.7958984" x2="6972.8378906" y2="3133.9216309" gradientTransform="matrix(1 0 0 -1 0 14948)">
			<stop  offset="0" style="stop-color:#536491"/>
			<stop  offset="1" style="stop-color:#2F3956"/>
		</linearGradient>
		<polygon class="card3-1-23" points="7842.878418,12253.9833984 9704.3466797,9754.3085938 9704.3466797,9146.1259766 
			9704.3466797,8407.9951172 8019.925293,8863.9765625 		"/>
		
			<linearGradient id="card3-1-_8_" gradientUnits="userSpaceOnUse" x1="7842.878418" y1="-8591.8535156" x2="9866.8710938" y2="-8591.8535156" gradientTransform="matrix(1 0 0 1 0 19596)">
			<stop  offset="0" style="stop-color:#394668"/>
			<stop  offset="1" style="stop-color:#34425F"/>
		</linearGradient>
		<polygon class="card3-1-24" points="9704.3466797,10712.2910156 9704.3466797,9754.3085938 7842.878418,12253.9833984 		"/>
		
			<linearGradient id="card3-1-_9_" gradientUnits="userSpaceOnUse" x1="9130.6914063" y1="2875.3994141" x2="8626.6914063" y2="3707.3994141" gradientTransform="matrix(1 0 0 -1 0 14948)">
			<stop  offset="0" style="stop-color:#282F48;stop-opacity:0"/>
			<stop  offset="1" style="stop-color:#4A5981"/>
		</linearGradient>
		<polygon class="card3-1-25" points="9704.3466797,11934.9746094 9704.3466797,10712.2910156 7842.878418,12253.9833984 		"/>
		
			<radialGradient id="card3-1-_10_" cx="6411.8222656" cy="8415.0996094" r="5132.2963867" gradientTransform="matrix(1 0 0 -1 0 14948)" gradientUnits="userSpaceOnUse">
			<stop  offset="0" style="stop-color:#7D8AC7"/>
			<stop  offset="0.3686196" style="stop-color:#7690D1"/>
			<stop  offset="0.5401786" style="stop-color:#7591D3"/>
			<stop  offset="1" style="stop-color:#354161"/>
		</radialGradient>
		<polygon class="card3-1-26" points="6806.6083984,7082.0253906 6754.3862305,9871.5361328 7842.878418,12253.9833984 
			8019.925293,8863.9765625 		"/>
		
			<radialGradient id="card3-1-_11_" cx="6229.7177734" cy="-12424.359375" r="4087.5515137" gradientTransform="matrix(1 0 0 1 0 19596)" gradientUnits="userSpaceOnUse">
			<stop  offset="0" style="stop-color:#606898"/>
			<stop  offset="0.9665179" style="stop-color:#546A9B"/>
			<stop  offset="1" style="stop-color:#7C6941"/>
		</radialGradient>
		<polygon class="card3-1-27" points="4785.9199219,10887.9404297 6806.6083984,7082.0253906 3977.8557129,9110.7597656 		"/>
		
			<linearGradient id="card3-1-_12_" gradientUnits="userSpaceOnUse" x1="2889.3413086" y1="5279.809082" x2="4822.1147461" y2="4427.4682617" gradientTransform="matrix(1 0 0 -1 0 14948)">
			<stop  offset="0" style="stop-color:#3D4D71;stop-opacity:0"/>
			<stop  offset="1" style="stop-color:#4C6392"/>
		</linearGradient>
		<polygon class="card3-1-28" points="3977.8557129,9110.7597656 2319.7763672,8362.0429688 2319.7763672,10471.9892578 
			4785.9199219,10887.9404297 		"/>
		
			<radialGradient id="card3-1-_13_" cx="5353.9418945" cy="-8782.0625" r="2460.8942871" gradientTransform="matrix(1 0 0 1 0 14648)" gradientUnits="userSpaceOnUse">
			<stop  offset="0" style="stop-color:#495177"/>
			<stop  offset="1" style="stop-color:#464D73"/>
		</radialGradient>
		<polygon class="card3-1-29" points="3977.8557129,9110.7597656 6806.6083984,7082.0253906 5487.1044922,5630.2548828 		"/>
		
			<linearGradient id="card3-1-_14_" gradientUnits="userSpaceOnUse" x1="2511.4729004" y1="4162.7275391" x2="4459.7978516" y2="1828.5955811" gradientTransform="matrix(1 0 0 -1 0 14948)">
			<stop  offset="0" style="stop-color:#405177;stop-opacity:0"/>
			<stop  offset="1" style="stop-color:#3F4F75"/>
		</linearGradient>
		<polygon class="card3-1-30" points="4785.9199219,10887.9404297 2319.7763672,10471.9892578 2319.7763672,13177.78125 
			3100.5078125,12853.3671875 3349.4384766,11629.6591797 		"/>
		
			<linearGradient id="card3-1-_15_" gradientUnits="userSpaceOnUse" x1="6212.6513672" y1="-7047.4306641" x2="5663.3012695" y2="-8940.3007813" gradientTransform="matrix(1 0 0 1 0 19596)">
			<stop  offset="0" style="stop-color:#3D4C6E;stop-opacity:0"/>
			<stop  offset="1" style="stop-color:#657EB5"/>
		</linearGradient>
		<polygon class="card3-1-31" points="4787.3149414,13549.1357422 7842.878418,12253.9833984 6754.3862305,9871.5361328 		"/>
		
			<radialGradient id="card3-1-_16_" cx="5436.2509766" cy="-9335.1494141" r="2885.6157227" gradientTransform="matrix(1 0 0 1 0 19596)" gradientUnits="userSpaceOnUse">
			<stop  offset="0" style="stop-color:#667FB6"/>
			<stop  offset="1" style="stop-color:#808BC2"/>
		</radialGradient>
		<polygon class="card3-1-32" points="6754.3862305,9871.5361328 6806.6083984,7082.0253906 4785.9199219,10887.9404297 		"/>
		
			<linearGradient id="card3-1-_17_" gradientUnits="userSpaceOnUse" x1="4491.8232422" y1="2674.847168" x2="7019.8232422" y2="4562.847168" gradientTransform="matrix(1 0 0 -1 0 14948)">
			<stop  offset="0" style="stop-color:#4D6392;stop-opacity:0"/>
			<stop  offset="1" style="stop-color:#4F689B"/>
		</linearGradient>
		<polygon class="card3-1-33" points="3349.4384766,11629.6591797 3100.5078125,12853.3671875 4787.3149414,13549.1357422 
			6754.3862305,9871.5361328 		"/>
	</g>
	<path class="card3-1-1" d="M5046.9775391,430.6340637c231.0019531,608.973999,981.2441406,1063.8299561,1621.8662109,1177.0959473
		c197.4731445,34.9139404,407.1088867,52.1905518,614.6279297,52.1905518
		c570.5102539,0,1124.5439453-130.6591797,1362.2402344-384.6807861
		c19.6816406,534.1619873,617.1220703,767.3101807,1057.9111328,814.3244629v7056.859375v3352.0664063
		c0,208.6015625-183.4677734,528.9257813-582.8251953,666.2773438
		c-451.3203125,155.2226563-1506.3959961,469.6748047-2193.8242188,703.6386719
		c-775.5341797,263.9492188-1710.4023438,701.2480469-1879.9960938,985.5078125
		c-169.5917969-284.2597656-1104.4599609-721.5625-1879.9934082-985.5078125
		c-249.7009277-84.9863281-547.9248047-180.5859375-848.0908203-275.3242188V9146.4238281V2089.564209v-463.5700684
		c157.6538086,22.479248,324.3737793,33.8269043,492.5183105,33.8269043
		c207.1801758,0,416.5197754-17.2290039,613.7023926-52.0910645
		C4065.7353516,1494.4639893,4815.9775391,1039.6080322,5046.9775391,430.6340637 M5046.9775391,295.9721985
		l-44.6557617,117.7215576c-228.8818359,603.394165-987.7277832,1041.3104248-1585.5244141,1147.0043945
		c-192.767334,34.0820313-396.4501953,51.3635254-605.3857422,51.3635254
		c-167.1435547,0-330.5822754-11.2194824-485.7763672-33.3496094l-54.5019531-7.7722168v55.0543213v463.5700684v7056.859375
		v4446.6582031v35.0078125l33.3837891,10.5380859c372.2485352,117.4882813,633.4960938,202.2978516,847.0788574,274.9921875
		c401.5393066,136.6601563,824.7314453,312.5419922,1161.0681152,482.5458984
		c374.4897461,189.2919922,620.7075195,360.5458984,693.2978516,482.2177734l41.015625,68.7480469l41.0161133-68.7480469
		c72.5898438-121.6699219,318.8081055-292.9238281,693.300293-482.2158203
		c336.331543-170.0019531,759.5239258-345.8837891,1161.0678711-482.5478516
		c368.6000977-125.4521484,849.6015625-276.1298828,1273.9819336-409.0683594
		c365.3320313-114.4414063,710.4042969-222.5380859,919.9882813-294.6201172
		c240.2578125-82.6318359,384.5878906-220.8701172,463.3574219-322.2880859
		c96.4042969-124.1191406,151.6943359-265.9599609,151.6943359-389.1533203V9146.4238281V2089.564209v-42.9383545
		l-42.6943359-4.553833c-246.8193359-26.3238525-489.7138672-105.5462646-666.3994141-217.3480225
		c-223.2060547-141.2420654-340.5761719-326.7059326-348.8505859-551.2420654l-4.2236328-114.6362305l-78.3779297,83.762207
		c-106.7861328,114.119873-291.3857422,208.9038086-533.8442383,274.1082764
		c-232.1801758,62.4395752-506.5761719,95.4437256-793.5219727,95.4437256
		c-209.1860352,0-413.1782227-17.3138428-606.3120117-51.461792
		c-597.7958984-105.6921387-1356.6420898-543.6102295-1585.5258789-1147.0043945L5046.9775391,295.9721985L5046.9775391,295.9721985
		z"/>
	<g>
		
			<linearGradient id="card3-1-_18_" gradientUnits="userSpaceOnUse" x1="1354.6855469" y1="-13430.9580078" x2="1354.6855469" y2="-1309.1727295" gradientTransform="matrix(1 0 0 1 0 14648)">
			<stop  offset="0" style="stop-color:#5A7DAE"/>
			<stop  offset="1" style="stop-color:#27324E"/>
		</linearGradient>
		<path class="card3-1-34" d="M2311.8486328,13615.8603516c-143.4179688-45.2636719-287.2802734-90.3222656-426.5039063-133.9355469
			c-365.4003906-114.4628906-710.5322266-222.5683594-919.9121094-294.5800781
			c-389.0527344-133.7988281-598.9794922-454.7753906-598.9794922-688.8574219V2068.092041l21.3525391-2.2753906
			c250.3515625-26.6993408,496.9921875-107.2218018,676.6796875-220.913208
			c230.2783203-145.7080078,351.3916016-337.6660156,359.9755859-570.5419922l2.109375-57.3193359l39.1894531,41.8798828
			c154.1015625,164.6728516,458.3300781,286.640625,856.6455078,343.4326172l20.5126953,2.9248047v12020.3857422
			L2311.8486328,13615.8603516z"/>
		<path class="card3-1-1" d="M1448.3220215,1275.2397461c167.767334,179.2797852,493.223877,296.9348145,870.7128906,350.7550049
			v463.5682373v6302.1430664v754.7167969v4446.6601563c-526.2231445-166.0683594-1058.4301758-329.4765625-1345.8312988-428.3134766
			c-399.3884277-137.3535156-582.8710938-457.6787109-582.8710938-666.2802734V9146.4228516v-754.7167969V2089.5629883
			C831.1552734,2042.5493164,1428.6381836,1809.4029541,1448.3220215,1275.2397461 M1404.8161621,1158.8463135
			l-4.2248535,114.6350098c-8.2727051,224.5349121-125.6518555,410-348.8745117,551.2402344
			c-176.7004395,111.8029785-419.6105957,191.0229492-666.4489746,217.3480225l-42.6965332,4.5532227v42.9401855v6302.1430664
			v754.7167969v3352.0664063c0,123.1933594,55.2954102,265.0371094,151.706543,389.1572266
			c78.7756348,101.4169922,223.1164551,239.65625,463.392334,322.2900391
			c209.7363281,72.1259766,555.1184082,180.3134766,920.7800293,294.8535156
			c139.0881348,43.5664063,282.9101563,88.6181641,426.2097168,133.8408203l62.1362305,19.6083984v-65.15625V9146.4228516
			v-754.7167969V2089.5629883V1625.994751v-41.4349365l-41.0192871-5.8483887
			c-392.9504395-56.0253906-692.1838379-175.3900146-842.5817871-336.1065674L1404.8161621,1158.8463135L1404.8161621,1158.8463135z
			"/>
	</g>
	<g>
		<path class="card3-1-35" d="M6160.2470703,7186.0214844c-676.1328125,0-1311.8017578-263.3007813-1789.9023438-741.4013672
			s-741.4013672-1113.7646484-741.4013672-1789.9023438c0-676.1325684,263.3007813-1311.8015137,741.4013672-1789.9020996
			s1113.7695313-741.4013672,1789.9023438-741.4013672c676.1376953,0,1311.8017578,263.3007813,1789.9023438,741.4013672
			s741.4013672,1113.7695313,741.4013672,1789.9020996c0,676.1376953-263.3007813,1311.8017578-741.4013672,1789.9023438
			S6836.3847656,7186.0214844,6160.2470703,7186.0214844z"/>
		<path class="card3-1-1" d="M6160.2480469,2147.2961426c338.5205078,0,666.8911133,66.2890625,975.987793,197.0256348
			c298.5771484,126.2873535,566.7363281,307.088623,797.0288086,537.3815918
			c230.2929688,230.2924805,411.0947266,498.4516602,537.3818359,797.0288086
			c130.7363281,309.0966797,197.0253906,637.467041,197.0253906,975.9875488
			c0,338.5219727-66.2890625,666.8916016-197.0253906,975.9882813
			c-126.2871094,298.5761719-307.0888672,566.7363281-537.3818359,797.0288086
			c-230.2924805,230.2929688-498.4516602,411.0947266-797.0288086,537.3813477
			c-309.0966797,130.7368164-637.4672852,197.0263672-975.987793,197.0263672s-666.890625-66.2895508-975.9873047-197.0263672
			c-298.5771484-126.2866211-566.7363281-307.0883789-797.0292969-537.3813477
			c-230.293457-230.293457-411.0944824-498.4526367-537.3811035-797.0288086
			c-130.7373047-309.0966797-197.0263672-637.4663086-197.0263672-975.9882813
			c0-338.5205078,66.2890625-666.8908691,197.0263672-975.9875488
			c126.2866211-298.5771484,307.0876465-566.7363281,537.3811035-797.0288086
			c230.2929688-230.2929688,498.4521484-411.0942383,797.0292969-537.3815918
			C5493.3574219,2213.5852051,5821.7275391,2147.2961426,6160.2480469,2147.2961426 M6160.2480469,2099.5354004
			c-1411.1884766,0-2555.1853027,1143.9953613-2555.1853027,2555.1843262s1143.9968262,2555.1850586,2555.1853027,2555.1850586
			S8715.4326172,6065.909668,8715.4326172,4654.7197266S7571.4370117,2099.5354004,6160.2480469,2099.5354004
			L6160.2480469,2099.5354004z"/>
	</g>
</g>
<g>
	
		<linearGradient id="card3-1-_19_" gradientUnits="userSpaceOnUse" x1="5047" y1="-5014.8730469" x2="5047" y2="-5438.3974609" gradientTransform="matrix(1 0 0 1 0 14648)">
		<stop  offset="0" style="stop-color:#040404;stop-opacity:0"/>
		<stop  offset="0.2299107" style="stop-color:#020202;stop-opacity:0.1"/>
		<stop  offset="0.828125" style="stop-color:#020202;stop-opacity:0.8703882"/>
		<stop  offset="1" style="stop-color:#020202"/>
	</linearGradient>
	<polygon class="card3-1-36" points="46.8769798,9193.9082031 10047.1230469,9193.9082031 9751.6865234,9637.2773438 
		342.3127747,9637.2773438 	"/>
	<g>
		<g>
			<rect x="23.1181736" y="7551.4487305" class="card3-1-35" width="10047.7636719" height="1618.574707"/>
			<path class="card3-1-1" d="M10047,7575.3242188v1570.8242188H5047H47V7575.3242188h5000H10047 M10094.7597656,7527.5644531H10047H5047
				H47H-0.76v47.7597656v1570.8242188v47.7597656h47.7600098h5000h5000h47.7597656v-47.7597656V7575.3242188V7527.5644531
				L10094.7597656,7527.5644531z"/>
		</g>
		<g>
			<polygon class="card3-1-37" points="1054.3033447,8360.4892578 512.2976685,7938.0170898 46.9784813,8060.8413086 
				46.9784813,8660.1386719 512.5332642,8783.0244141 			"/>
			<polygon class="card3-1-37" points="1032.5571289,7800.6918945 46.9784813,7575.3193359 512.2976685,7938.0170898 			"/>
			<polygon class="card3-1-38" points="46.9784813,7575.3193359 46.9784813,8060.8413086 512.2976685,7938.0170898 			"/>
			<polygon class="card3-1-37" points="512.5332642,8783.0244141 47.0000114,9146.1484375 1032.5571289,8920.2880859 			"/>
			<polygon class="card3-1-38" points="46.9783974,8660.1386719 46.9783974,9145.6601563 46.9783974,9146.1181641 
				47.8090858,9145.4707031 512.5332031,8783.0244141 			"/>
		</g>
		<g>
			<polygon class="card3-1-37" points="9039.6679688,8360.4892578 9581.6728516,7938.0170898 10046.9921875,8060.8413086 
				10046.9921875,8660.1386719 9581.4375,8783.0244141 			"/>
			<polygon class="card3-1-37" points="9061.4140625,7800.6918945 10046.9921875,7575.3193359 9581.6728516,7938.0170898 			"/>
			<polygon class="card3-1-38" points="10046.9921875,7575.3193359 10046.9921875,8060.8413086 9581.6728516,7938.0170898 			"/>
			<polygon class="card3-1-37" points="9581.4375,8783.0244141 10046.9707031,9146.1484375 9061.4140625,8920.2880859 			"/>
			<polygon class="card3-1-38" points="10046.9921875,8660.1386719 10046.9921875,9145.6601563 10046.9921875,9146.1181641 
				10046.1621094,9145.4707031 9581.4375,8783.0244141 			"/>
		</g>
	</g>
</g>
</svg>
