<svg version="1.1" id="Слой_5" xmlns="http://www.w3.org/2000/svg" xmlns:xlink="http://www.w3.org/1999/xlink" x="0px" y="0px"
	 viewBox="0 0 10095.5 14947.0996094" style="enable-background:new 0 0 10095.5 14947.0996094;" xml:space="preserve">
<style type="text/css">
	.card2-1-0{fill:#0F1312;}
	.card2-1-1{fill:#FFFFFF;}
	.card2-1-2{fill:url(#card2-1-_1_);}
	.card2-1-3{fill:#5D4E29;}
	.card2-1-4{fill:#615C50;}
	.card2-1-5{fill:#62615E;}
	.card2-1-6{fill:url(#card2-1-_2_);}
	.card2-1-7{fill:none;}
	.card2-1-8{fill:url(#card2-1-_3_);}
	.card2-1-9{fill:#525353;}
	.card2-1-10{fill:url(#card2-1-_4_);}
	.card2-1-11{fill:url(#card2-1-_5_);}
	.card2-1-12{fill:#666566;}
	.card2-1-13{fill:url(#card2-1-_6_);}
	.card2-1-14{fill:url(#card2-1-_7_);}
	.card2-1-15{fill:url(#card2-1-_8_);}
	.card2-1-16{fill:url(#card2-1-_9_);}
	.card2-1-17{fill:#535454;}
	.card2-1-18{fill:#646464;}
	.card2-1-19{fill:#616161;}
	.card2-1-20{fill:url(#card2-1-_10_);}
	.card2-1-21{fill:url(#card2-1-_11_);}
	.card2-1-22{fill:url(#card2-1-_12_);}
	.card2-1-23{fill:#585959;}
	.card2-1-24{fill:url(#card2-1-_13_);}
	.card2-1-25{fill:url(#card2-1-_14_);}
	.card2-1-26{fill:url(#card2-1-_15_);}
	.card2-1-27{fill:url(#card2-1-_16_);}
	.card2-1-28{fill:url(#card2-1-_17_);}
	.card2-1-29{fill:url(#card2-1-_18_);}
	.card2-1-30{fill:#5E5F5F;}
	.card2-1-31{fill:url(#card2-1-_19_);}
	.card2-1-32{fill:url(#card2-1-_20_);}
	.card2-1-33{fill:url(#card2-1-_21_);}
	.card2-1-34{fill:url(#card2-1-_22_);}
	.card2-1-35{fill:url(#card2-1-_23_);}
	.card2-1-36{fill:url(#card2-1-_24_);}
	.card2-1-37{fill:#626262;}
</style>
<g>
	<g>
		<g>
			<path class="card2-1-0" d="M390.6000061,9733.4003906c-7.7999878,0-15.3999939-3.9003906-19.8999939-10.5996094l-343.5-515.4003906
				c-4.8999996-7.2998047-5.2999992-16.7001953-1.2000008-24.5s12.2000008-12.5996094,21.0999985-12.5996094h343.6000061
				c13.2000122,0,23.8999939,10.7001953,23.8999939,23.9003906v515.4003906c0,10.5-6.8999939,19.7998047-17,22.9003906
				C395.2999878,9733.0996094,392.8999939,9733.4003906,390.6000061,9733.4003906z"/>
			<path class="card2-1-1" d="M390.6000061,9194.0996094V9709.5L47,9194.0996094H390.6000061 M390.6000061,9146.4003906H47
				c-17.6000004,0-33.7999992,9.7001953-42.0999985,25.2001953s-7.4000001,34.4003906,2.4000001,49L350.8999939,9736
				c9,13.5,24.1000061,21.2998047,39.7000122,21.2998047c4.6000061,0,9.2999878-0.7001953,13.7999878-2.0996094
				C424.5,9749.1005859,438.2999878,9730.5,438.2999878,9709.5v-515.4003906
				C438.3999939,9167.7001953,417,9146.4003906,390.6000061,9146.4003906L390.6000061,9146.4003906z"/>
		</g>
		<g>
			<path class="card2-1-0" d="M9703.4003906,9733.4003906c-2.2998047,0-4.5996094-0.2998047-6.9003906-1
				c-10.0996094-3-17-12.2998047-17-22.9003906v-515.4003906c0-13.2001953,10.7001953-23.9003906,23.9003906-23.9003906H10047
				c8.7998047,0,16.9003906,4.7998047,21.0996094,12.5996094s3.7001953,17.2001953-1.2001953,24.5l-343.5996094,515.4003906
				C9718.7001953,9729.5,9711.2001953,9733.4003906,9703.4003906,9733.4003906z"/>
			<path class="card2-1-1" d="M10047,9194.0996094L9703.4003906,9709.5v-515.4003906H10047 M10047,9146.4003906h-343.5996094
				c-26.4003906,0-47.7998047,21.4003906-47.7998047,47.7998047v515.4003906c0,21,13.7998047,39.5996094,33.9003906,45.7001953
				c4.5996094,1.4003906,9.2001953,2.0996094,13.7998047,2.0996094c15.7001953,0,30.7001953-7.7001953,39.7001953-21.2998047
				l343.5996094-515.4003906c9.7998047-14.7001953,10.7001953-33.5,2.4003906-49
				C10080.7998047,9156.0996094,10064.5996094,9146.4003906,10047,9146.4003906L10047,9146.4003906z"/>
		</g>
	</g>
	<g>
		
			<linearGradient id="card2-1-_1_" gradientUnits="userSpaceOnUse" x1="5047" y1="10262.8710938" x2="5047" y2="10686.1904297" gradientTransform="matrix(1 0 0 -1 0 19896)">
			<stop  offset="0" style="stop-color:#040404;stop-opacity:0"/>
			<stop  offset="0.2299" style="stop-color:#020202;stop-opacity:0.1"/>
			<stop  offset="0.8281" style="stop-color:#020202;stop-opacity:0.8704"/>
			<stop  offset="1" style="stop-color:#020202"/>
		</linearGradient>
		<rect x="342.2999878" y="9194.0996094" class="card2-1-2" width="9409.4003906" height="443.2001953"/>
		<g>
			<g>
				<rect x="23.1000004" y="7551.3999023" class="card2-1-3" width="10047.7998047" height="1618.6000977"/>
				<path class="card2-1-1" d="M10047,7575.2998047v1570.7998047H5047H47V7575.2998047h5000H10047 M10094.7998047,7527.6000977H10047H5047
					H47H-0.8v47.7998047v1570.800293V9194H47h5000h5000h47.7998047v-47.7998047V7575.2998047V7527.6000977
					L10094.7998047,7527.6000977z"/>
			</g>
			<g>
				<polygon class="card2-1-4" points="1054.3000488,8360.5 512.2999878,7938 47,8060.7998047 47,8660.0996094 512.5,8783 				"/>
				<polygon class="card2-1-4" points="1032.5999756,7800.7001953 47,7575.2998047 512.2999878,7938 				"/>
				<polygon class="card2-1-5" points="47,7575.2998047 47,8060.7998047 512.2999878,7938 				"/>
				<polygon class="card2-1-4" points="512.5,8783 47,9146.0996094 1032.5999756,8920.2998047 				"/>
				<polygon class="card2-1-5" points="47,8660.0996094 47,9145.7001953 47,9146.0996094 47.7999992,9145.5 512.5,8783 				"/>
			</g>
			<g>
				<polygon class="card2-1-4" points="9039.7001953,8360.5 9581.7001953,7938 10047,8060.7998047 10047,8660.0996094 9581.4003906,8783 
									"/>
				<polygon class="card2-1-4" points="9061.4003906,7800.7001953 10047,7575.2998047 9581.7001953,7938 				"/>
				<polygon class="card2-1-5" points="10047,7575.2998047 10047,8060.7998047 9581.7001953,7938 				"/>
				<polygon class="card2-1-4" points="9581.4003906,8783 10047,9146.0996094 9061.4003906,8920.2998047 				"/>
				<polygon class="card2-1-5" points="10047,8660.0996094 10047,9145.7001953 10047,9146.0996094 10046.2001953,9145.5 
					9581.4003906,8783 				"/>
			</g>
		</g>
	</g>
	<g>
		<g>
			<path class="card2-1-0" d="M391.3999939,9733.4003906C383.6000061,9733.4003906,376,9729.5,371.5,9722.8007813L27.8999996,9207.4003906
				c-4.8999996-7.2998047-5.3000011-16.7001953-1.2000008-24.5s12.1999989-12.5996094,21.1000004-12.5996094h343.6000061
				c13.2000122,0,23.8999939,10.7001953,23.8999939,23.9003906v515.4003906c0,10.5-6.8999939,19.7998047-17,22.9003906
				C396,9733.0996094,393.7000122,9733.4003906,391.3999939,9733.4003906z"/>
			<path class="card2-1-1" d="M391.3999939,9194.0996094V9709.5L47.7999992,9194.0996094H391.3999939 M391.3999939,9146.4003906
				H47.7999992c-17.6000004,0-33.7999992,9.7001953-42.0999985,25.2001953s-7.4000001,34.4003906,2.3999996,49L351.7000122,9736
				c9,13.5,24.1000061,21.2998047,39.7000122,21.2998047c4.6000061,0,9.2999878-0.7001953,13.7999878-2.0996094
				C425.3000183,9749.1005859,439.1000061,9730.5,439.1000061,9709.5v-515.4003906
				C439.2000122,9167.7001953,417.7999878,9146.4003906,391.3999939,9146.4003906L391.3999939,9146.4003906z"/>
		</g>
		<g>
			<path class="card2-1-0" d="M9704.0996094,9733.4003906c-2.2998047,0-4.5996094-0.2998047-6.9003906-1
				c-10.0996094-3-17-12.2998047-17-22.9003906v-515.4003906c0-13.2001953,10.7001953-23.9003906,23.9003906-23.9003906h343.5996094
				c8.7998047,0,16.9003906,4.7998047,21.0996094,12.5996094s3.7001953,17.2001953-1.2001953,24.5L9724,9722.7998047
				C9719.5,9729.5,9711.9003906,9733.4003906,9704.0996094,9733.4003906z"/>
			<path class="card2-1-1" d="M10047.7001953,9194.0996094L9704.1005859,9709.5v-515.4003906H10047.7001953 M10047.7001953,9146.4003906
				h-343.5996094c-26.4003906,0-47.7998047,21.4003906-47.7998047,47.7998047v515.4003906
				c0,21,13.7998047,39.5996094,33.9003906,45.7001953c4.5996094,1.4003906,9.2001953,2.0996094,13.7998047,2.0996094
				c15.7001953,0,30.7001953-7.7001953,39.7001953-21.2998047l343.5996094-515.4003906
				c9.7998047-14.7001953,10.7001953-33.5,2.4003906-49
				C10081.5,9156.0996094,10065.4003906,9146.4003906,10047.7001953,9146.4003906L10047.7001953,9146.4003906z"/>
		</g>
	</g>
	<g>
		
			<linearGradient id="card2-1-_2_" gradientUnits="userSpaceOnUse" x1="336.2449646" y1="8901.3925781" x2="9664.78125" y2="5999.7138672" gradientTransform="matrix(1 0 0 -1 0 14948)">
			<stop  offset="0" style="stop-color:#535554"/>
			<stop  offset="0.53125" style="stop-color:#686969"/>
			<stop  offset="1" style="stop-color:#4F4F4F"/>
		</linearGradient>
		<path class="card2-1-6" d="M5027.2001953,14866.0996094c-165.1000977-276.7998047-1085.3000488-709-1867.1999512-975.0996094
			c-213.3999023-72.5996094-474.8000488-157.5-847.5-275.0996094l-16.6999512-5.2998047V1264.0999756l23.3000488-0.5
			C3014.7001953,1248,3651.2001953,1173,4111.4003906,1052.1999512
			c566.2001953-148.5999756,873.2001953-358.9000244,912.6000977-625.2000122l23.6000977-159.7999878l23.6000977,159.7999878
			c41.5,280.7000122,396.7998047,506.7000122,1027.699707,653.7000122c514.7998047,119.9000244,1206.7001953,186,1948.2998047,186
			c204.9003906,0,406.0996094-5.1999512,597.9003906-15.3000488l24.2001953-1.3000488l0.9003906,24.3000488
			c8.5996094,232.9000244,129.7001953,424.8000488,359.9003906,570.5
			c179.7001953,113.6999512,426.2998047,194.1999512,676.5996094,220.8999023l21.2998047,2.3000488V12498.5
			c0,234.0996094-209.9003906,555.0996094-598.9003906,688.9003906
			c-209.4003906,72-554.4003906,180.0996094-919.7998047,294.5996094
			c-139.2001953,43.5996094-283.1000977,88.7001953-426.5,133.9003906c-372.6000977,117.5996094-634,202.5-847.6000977,275.2001953
			c-781.8999023,266.0996094-1702.1000977,698.2998047-1867.199707,975.0996094l-20.5,34.4003906L5027.2001953,14866.0996094z"/>
		<path class="card2-1-7" d="M8646.4003906,1275.1999512c-187.2998047,9.9000244-389.5,15.4000244-599.2001953,15.4000244
			c-1306.2998047,0-2903.6000977-210.9000244-2999.6000977-860c-89.3999023,604.7000732-1481.6999512,829.0999756-2728,856.9000244
			v12305.5996094c300.1000977,94.7001953,598.3000488,190.2998047,848,275.2998047c775.5,264,1710.3999023,701.2998047,1880,985.5
			c169.6000977-284.2998047,1104.3999023-721.5996094,1880-985.5c249.7001953-85,547.8999023-180.5996094,848.1000977-275.2998047
			c526.2001953-166.0996094,1058.4003906-329.5,1345.7001953-428.2998047
			c399.4003906-137.4003906,582.7998047-457.7001953,582.7998047-666.2998047V9146.4003906v-754.7001953V2089.6000977
			C9263.5996094,2042.5,8666.0996094,1809.4000244,8646.4003906,1275.1999512z"/>
		<g>
			<polygon class="card2-1-7" points="4785.8999023,10887.9003906 3349.3999023,11629.7001953 6754.3999023,9871.5 			"/>
			<polygon class="card2-1-7" points="8696.5996094,1437 8696.5996094,1437 8671.2001953,1760.1999512 			"/>
			<path class="card2-1-7" d="M7842.8999023,12254l-3055.6000977,1295.2001953l-1686.8000488-695.7998047l-804.5998535,334.2998047
				v422.9003906l16.6999512,5.2998047c372.6999512,117.5996094,634.0998535,202.5,847.5,275.0996094
				C3942,14157.0996094,4862.199707,14589.2998047,5027.2998047,14866.0996094l20.5,34.4003906l20.5-34.4003906
				c165.1000977-276.7998047,1085.2998047-709,1867.2001953-975.0996094
				c213.6000977-72.7001953,475-157.5996094,847.6000977-275.2001953
				C7926.5,13570.5,8070.3999023,13525.5,8209.5996094,13481.8994141c365.4003906-114.5,710.5-222.5996094,919.7998047-294.5996094
				c389-133.7998047,598.9003906-454.7998047,598.9003906-688.9003906v-567.5996094L7842.8999023,12254z"/>
			<polygon class="card2-1-7" points="8669.4003906,1250.0999756 8668.2998047,1250.0999756 8669.5,1252.1999512 			"/>
			
				<linearGradient id="card2-1-_3_" gradientUnits="userSpaceOnUse" x1="8717.5576172" y1="17147" x2="10018.9033203" y2="17147" gradientTransform="matrix(1 0 0 -1 0 19896)">
				<stop  offset="0" style="stop-color:#5F5F5F"/>
				<stop  offset="1" style="stop-color:#626262"/>
			</linearGradient>
			<path class="card2-1-8" d="M8569.0996094,4060.8999023L9728.1992188,3405V2068.1000977l-21.2998047-2.3000488
				c-250.2998047-26.6999512-497-107.1999512-676.5996094-220.9000244
				c-174.2001953-110.1999512-285.9003906-247-333.7001953-407.7999268l-25.2998047,323.1999512L8569.0996094,4060.8999023z"/>
			<path class="card2-1-9" d="M8671.2001953,1760.1999512L8696.5,1437c-15.4003906-51.8000488-24.0996094-106-26.2001953-162.6999512
				L8669.5,1252.2000732l-1.2001953-2.0999756l-23.0996094,1.1999512
				c-191.9003906,10.1999512-393,15.3000488-597.8999023,15.3000488c-649.5,0-1260.800293-50.6999512-1748.5-143.8000488
				l-1104.1000977,637.3000488L8671.2001953,1760.1999512z"/>
			
				<linearGradient id="card2-1-_4_" gradientUnits="userSpaceOnUse" x1="5432.5058594" y1="14104.1533203" x2="4727.7719727" y2="13719.7529297" gradientTransform="matrix(1 0 0 -1 0 14948)">
				<stop  offset="0.0414116" style="stop-color:#646464"/>
				<stop  offset="1" style="stop-color:#6F6F6F"/>
			</linearGradient>
			<path class="card2-1-10" d="M6298.7998047,1122.9000244C6229.5996094,1109.7000732,6163,1095.5999756,6099,1080.7000732
				c-630.7998047-147-986.2001953-373-1027.7001953-653.7000122l-23.6000977-159.7999878l-23.6000977,159.7999878
				c-7.8999023,53.6000061-26.7001953,104.9000244-56.2001953,153.8999634l226.7998047,1179.1999512L6298.7998047,1122.9000244z"/>
			<polygon class="card2-1-9" points="5194.7001953,1760.1999512 3702.8999023,1760.0999756 3452.1000977,4685.7001953 
				8671.2001953,1760.1999512 			"/>
			
				<linearGradient id="card2-1-_5_" gradientUnits="userSpaceOnUse" x1="8505.7998047" y1="13475.9501953" x2="4652.1884766" y2="9956.7441406" gradientTransform="matrix(1 0 0 -1 0 14948)">
				<stop  offset="0.0414116" style="stop-color:#7A7A7A"/>
				<stop  offset="1" style="stop-color:#6F6F6F"/>
			</linearGradient>
			<polygon class="card2-1-11" points="3452.1000977,4685.7001953 5487.1000977,5630.2998047 8671.2001953,1760.1999512 			"/>
			<polygon class="card2-1-12" points="8671.2001953,1760.1999512 5487.1000977,5630.2998047 8569.0996094,4060.8999023 			"/>
			<path class="card2-1-9" d="M5194.7001953,1760.1999512L4967.8999023,581
				c-117.2001953,194.5-404.1000977,352.5999756-856.2998047,471.1999512C4002.8000488,1080.7999268,3884,1106.7999268,3757,1130
				l-54,630L5194.7001953,1760.1999512z"/>
			
				<linearGradient id="card2-1-_6_" gradientUnits="userSpaceOnUse" x1="4021.1918945" y1="13440.9980469" x2="2605.9584961" y2="11630.1083984" gradientTransform="matrix(1 0 0 -1 0 14948)">
				<stop  offset="0" style="stop-color:#606060"/>
				<stop  offset="0.3785" style="stop-color:#656565"/>
				<stop  offset="1" style="stop-color:#747474"/>
			</linearGradient>
			<path class="card2-1-13" d="M3702.8999023,1760.0999756l54-630c-410,75.0999756-906.6000977,121.6999512-1437.6999512,133.5
				l-23.3000488,0.5v1563.0999756l1156.3000488,1858.4001465L3702.8999023,1760.0999756z"/>
			
				<linearGradient id="card2-1-_7_" gradientUnits="userSpaceOnUse" x1="2962.8305664" y1="10199.0712891" x2="2140.0969238" y2="11428.0927734" gradientTransform="matrix(1 0 0 -1 0 14948)">
				<stop  offset="0.0414116" style="stop-color:#6D6D6D"/>
				<stop  offset="0.2937" style="stop-color:#6A6A6A"/>
				<stop  offset="1" style="stop-color:#666666"/>
			</linearGradient>
			<polygon class="card2-1-14" points="2295.8999023,2827.3000488 2295.8999023,4678 3452.1000977,4685.7001953 			"/>
			
				<linearGradient id="card2-1-_8_" gradientUnits="userSpaceOnUse" x1="2773.1923828" y1="9982.4482422" x2="2067.6140137" y2="7996.75" gradientTransform="matrix(1 0 0 -1 0 14948)">
				<stop  offset="0.0414116" style="stop-color:#666666"/>
				<stop  offset="0.1909" style="stop-color:#686868"/>
				<stop  offset="0.9948" style="stop-color:#6B6B6B"/>
			</linearGradient>
			<polygon class="card2-1-15" points="2295.8999023,4678 2295.8999023,6613.3999023 3452.1000977,4685.7001953 			"/>
			
				<radialGradient id="card2-1-_9_" cx="3419.7072754" cy="10038.4130859" r="1780.3358154" gradientTransform="matrix(1 0 0 -1 0 14948)" gradientUnits="userSpaceOnUse">
				<stop  offset="0" style="stop-color:#858585"/>
				<stop  offset="1" style="stop-color:#8B8B8B"/>
			</radialGradient>
			<polygon class="card2-1-16" points="3452.1000977,4685.7001953 2295.8999023,6613.3999023 2295.8999023,6762.1000977 
				5487.1000977,5630.2998047 			"/>
			<polygon class="card2-1-17" points="8853.2001953,6295.8999023 9728.2998047,5792 9728.2998047,3404.8999023 
				8569.0996094,4060.8999023 			"/>
			<polygon class="card2-1-18" points="8569.0996094,4060.8999023 5487.1000977,5630.2998047 8853.2001953,6295.8999023 			"/>
			<polygon class="card2-1-17" points="8853.2001953,6295.8999023 5487.1000977,5630.2998047 6806.6000977,7082 			"/>
			<polygon class="card2-1-19" points="9728.2998047,6274.8999023 9728.2998047,5792 8853.2001953,6295.8999023 			"/>
			
				<linearGradient id="card2-1-_10_" gradientUnits="userSpaceOnUse" x1="9797.2695313" y1="8808.0009766" x2="9127.7841797" y2="8145.347168" gradientTransform="matrix(1 0 0 -1 0 14948)">
				<stop  offset="0" style="stop-color:#818181"/>
				<stop  offset="1" style="stop-color:#646464"/>
			</linearGradient>
			<polygon class="card2-1-20" points="9728.2998047,6986.7998047 9728.2998047,6274.8999023 8853.2001953,6295.8999023 			"/>
			
				<radialGradient id="card2-1-_11_" cx="9033.8037109" cy="13790.9677734" r="2006.581665" gradientTransform="matrix(1 0 0 -1 0 19896)" gradientUnits="userSpaceOnUse">
				<stop  offset="0" style="stop-color:#808080"/>
				<stop  offset="1" style="stop-color:#7F7F7F"/>
			</radialGradient>
			<polygon class="card2-1-21" points="8019.8999023,8864 9728.2998047,8401.5 9728.2998047,6986.7998047 8853.2001953,6295.8999023 			
				"/>
			
				<radialGradient id="card2-1-_12_" cx="8289.3779297" cy="12272.4394531" r="1230.8763428" gradientTransform="matrix(1 0 0 -1 0 19896)" gradientUnits="userSpaceOnUse">
				<stop  offset="0" style="stop-color:#818181"/>
				<stop  offset="1" style="stop-color:#818181"/>
			</radialGradient>
			<polygon class="card2-1-22" points="8019.8999023,8864 8853.2001953,6295.8999023 6806.6000977,7082 			"/>
			<polygon class="card2-1-23" points="5487.1000977,5630.2998047 2295.8999023,6762.1000977 2295.8999023,8351.2001953 
				3977.8999023,9110.7998047 			"/>
			
				<linearGradient id="card2-1-_13_" gradientUnits="userSpaceOnUse" x1="8416.0205078" y1="4731.4541016" x2="7483.5083008" y2="2851.3874512" gradientTransform="matrix(1 0 0 -1 0 14948)">
				<stop  offset="0" style="stop-color:#707070"/>
				<stop  offset="1" style="stop-color:#525252"/>
			</linearGradient>
			<polygon class="card2-1-24" points="7842.8999023,12254 9728.2001953,9722.2001953 9728.2998047,8401.5 8019.8999023,8864 			"/>
			
				<linearGradient id="card2-1-_14_" gradientUnits="userSpaceOnUse" x1="9457.8837891" y1="9433.4003906" x2="7398.9902344" y2="7489.2646484" gradientTransform="matrix(1 0 0 -1 0 19896)">
				<stop  offset="0" style="stop-color:#5C5C5C"/>
				<stop  offset="1" style="stop-color:#5C5C5C"/>
			</linearGradient>
			<polygon class="card2-1-25" points="9728.2001953,10692.5 9728.2001953,9722.2001953 7842.8999023,12254 			"/>
			
				<linearGradient id="card2-1-_15_" gradientUnits="userSpaceOnUse" x1="9050.9433594" y1="2870.7519531" x2="8578.7880859" y2="3945.3105469" gradientTransform="matrix(1 0 0 -1 0 14948)">
				<stop  offset="0" style="stop-color:#565656;stop-opacity:0"/>
				<stop  offset="1" style="stop-color:#878787"/>
			</linearGradient>
			<polygon class="card2-1-26" points="9728.2001953,11930.9003906 9728.2001953,10692.5 7842.8999023,12254 			"/>
			
				<radialGradient id="card2-1-_16_" cx="7116.5742188" cy="12662.1894531" r="5104.7919922" gradientTransform="matrix(1 0 0 -1 0 19896)" gradientUnits="userSpaceOnUse">
				<stop  offset="0.4241071" style="stop-color:#888888"/>
				<stop  offset="0.5691816" style="stop-color:#7E7E7E"/>
				<stop  offset="0.8117913" style="stop-color:#656565"/>
				<stop  offset="0.9107143" style="stop-color:#585858"/>
			</radialGradient>
			<polygon class="card2-1-27" points="6806.6000977,7082 6754.3999023,9871.5 7842.8999023,12254 8019.8999023,8864 			"/>
			
				<radialGradient id="card2-1-_17_" cx="6229.7202148" cy="7776.3852539" r="4087.5327148" gradientTransform="matrix(1 0 0 -1 0 14948)" gradientUnits="userSpaceOnUse">
				<stop  offset="0" style="stop-color:#797979"/>
				<stop  offset="1" style="stop-color:#777777"/>
			</radialGradient>
			<polygon class="card2-1-28" points="3977.8999023,9110.7998047 4785.8999023,10887.9003906 6806.6000977,7082 			"/>
			
				<linearGradient id="card2-1-_18_" gradientUnits="userSpaceOnUse" x1="4561.0546875" y1="3749.7919922" x2="1777.6114502" y2="6503.2407227" gradientTransform="matrix(1 0 0 -1 0 14948)">
				<stop  offset="0" style="stop-color:#646565;stop-opacity:0"/>
				<stop  offset="1" style="stop-color:#4F4F4F"/>
			</linearGradient>
			<polygon class="card2-1-29" points="3977.8999023,9110.7998047 2295.8999023,8351.2001953 2295.8999023,10468 
				4785.8999023,10887.9003906 			"/>
			<polygon class="card2-1-30" points="5487.1000977,5630.2998047 3977.8999023,9110.7998047 6806.6000977,7082 			"/>
			
				<linearGradient id="card2-1-_19_" gradientUnits="userSpaceOnUse" x1="2110.2502441" y1="2643.7333984" x2="5084.7563477" y2="5899.6113281" gradientTransform="matrix(1 0 0 -1 0 14948)">
				<stop  offset="0" style="stop-color:#646565;stop-opacity:0"/>
				<stop  offset="1" style="stop-color:#5A5A5A"/>
			</linearGradient>
			<polygon class="card2-1-31" points="3349.3999023,11629.7001953 4785.8999023,10887.9003906 2295.8999023,10468 
				2295.8999023,13187.7001953 3100.5,12853.4003906 			"/>
			
				<linearGradient id="card2-1-_20_" gradientUnits="userSpaceOnUse" x1="6212.6464844" y1="7347.4682617" x2="5663.2983398" y2="9240.3330078" gradientTransform="matrix(1 0 0 -1 0 19896)">
				<stop  offset="0" style="stop-color:#5A5B5B;stop-opacity:0"/>
				<stop  offset="1" style="stop-color:#6E6E6E"/>
			</linearGradient>
			<polygon class="card2-1-32" points="4787.2998047,13549.0996094 7842.8999023,12254 6754.3999023,9871.5 			"/>
			
				<radialGradient id="card2-1-_21_" cx="6357.0927734" cy="6996.1518555" r="2666.2104492" gradientTransform="matrix(1 0 0 -1 0 14948)" gradientUnits="userSpaceOnUse">
				<stop  offset="0" style="stop-color:#898989"/>
				<stop  offset="1" style="stop-color:#8B8B8B"/>
			</radialGradient>
			<polygon class="card2-1-33" points="6806.6000977,7082 4785.8999023,10887.9003906 6754.3999023,9871.5 			"/>
			
				<linearGradient id="card2-1-_22_" gradientUnits="userSpaceOnUse" x1="4832.4130859" y1="3194.9396973" x2="6599.9130859" y2="5129.6357422" gradientTransform="matrix(1 0 0 -1 0 14948)">
				<stop  offset="0" style="stop-color:#878787;stop-opacity:0"/>
				<stop  offset="0.9955357" style="stop-color:#676868"/>
			</linearGradient>
			<polygon class="card2-1-34" points="3349.3999023,11629.7001953 3100.5,12853.4003906 4787.2998047,13549.0996094 6754.3999023,9871.5 
							"/>
		</g>
		<path class="card2-1-1" d="M5043.2001953,204.8999939C5037.1000977,277.5,5023.300293,353.5,4995.6000977,449.5
			c-26.7998047,119.7000122-115,229.4000244-262.7998047,326.2000122
			c-150,98.2999878-361.1000977,183.6000366-627.3999023,253.499939
			C3647.0004883,1149.5,3012.5004883,1224.2999268,2318.6003418,1239.7999268l-46.6999512,1v12387.2998047l33.3999023,10.5
			c372.1999512,117.5,633.3999023,202.2998047,847,275c401.5,136.7001953,824.6999512,312.5,1161.1000977,482.5996094
			c374.5,189.2998047,620.7001953,360.5,693.2998047,482.2001953l41,68.7998047l41-68.7998047
			C5161.300293,14756.6992188,5407.5,14585.4990234,5782,14396.1992188c336.2998047-170,759.5-345.9003906,1161.1000977-482.5996094
			c213.5-72.7001953,474.7998047-157.5,847.1000977-275c143.2998047-45.2001953,287.1000977-90.2998047,426.2001953-133.7998047
			c365.5996094-114.5,711-222.7001953,920.7001953-294.9003906
			c240.2998047-82.5996094,384.5996094-220.9003906,463.4003906-322.2998047
			c96.4003906-124.0996094,151.7001953-266,151.7001953-389.2001953V8391.7001953V2089.6000977v-42.9000244l-42.7001953-4.5999756
			c-246.7998047-26.3000488-489.7001953-105.5-666.4003906-217.3000488
			c-223.2001953-141.1999512-340.5996094-326.6999512-348.7998047-551.1999512l-1.7998047-48.5l-48.5,2.5999756
			c-191.5,10.1999512-392.2001953,15.3000488-596.6000977,15.3000488
			c-739.7998047,0-1429.800293-65.8000488-1942.8999023-185.4000244
			c-599.2001953-139.5999756-945.2998047-348.9000244-1004.2001953-606.4000244c0,0-44.1000977-164.7999878-48.5-246.3999939
			c-0.6000977-1.1000061-1.1000977-2-2.1000977-2.6999969
			C5047.6000977,200.8999939,5044.7998047,201.3000031,5043.2001953,204.8999939z M9704.2998047,8391.7001953V12498.5
			c0,208.5996094-183.5,528.9003906-582.7998047,666.2998047C8834.0996094,13263.5996094,8302,13427,7775.7998047,13593.0996094
			c-300.2001953,94.7001953-598.3999023,190.2998047-848.1000977,275.2998047c-775.5,264-1710.3999023,701.2998047-1880,985.5
			c-169.6000977-284.2998047-1104.3999023-721.5996094-1880-985.5c-249.6999512-85-547.8000488-180.5996094-848-275.2998047V1287.5
			c1246.3000488-27.9000244,2638.6000977-252.3000488,2728-856.9000244c95.8999023,649.0999756,1693.199707,860,2999.6000977,860
			c209.7001953,0,411.9003906-5.4000244,599.2001953-15.4000244C8666.2001953,1809.3999023,9263.5996094,2042.5,9704.4003906,2089.5
			L9704.2998047,8391.7001953z"/>
		<g>
			
				<linearGradient id="card2-1-_23_" gradientUnits="userSpaceOnUse" x1="1355.6499023" y1="13527.6044922" x2="1355.6499023" y2="1613.2371826" gradientTransform="matrix(1 0 0 -1 0 14948)">
				<stop  offset="0" style="stop-color:#9D9D9D"/>
				<stop  offset="0.2019204" style="stop-color:#949494"/>
				<stop  offset="0.5336782" style="stop-color:#7B7B7B"/>
				<stop  offset="0.9520361" style="stop-color:#535353"/>
				<stop  offset="1" style="stop-color:#4E4E4E"/>
			</linearGradient>
			<path class="card2-1-35" d="M2313.6999512,13616.2001953l-1.1000977-0.4003906c-143.5-45.2998047-287.5-90.4003906-426.8000488-134
				c-365.3000488-114.4003906-710.4000244-222.5-919.7000122-294.5c-233-80.0996094-373.2000122-213.5-449.8999634-311.2998047
				c-93-118.7001953-147.2000122-254.2998047-148.7999878-372.2001953V2080.5996094l12-13.8000488l9.3999939-1
				c250.3000183-26.6999512,496.8999939-107.3000488,676.5999756-221
				c230.1999512-145.6999512,351.2999268-337.5999756,359.9000244-570.4000244l0.9000244-24.3000488l24.1999512,1.3000488
				c191.4000244,10.0999756,392.4000244,15.3000488,597.2000732,15.3000488c90.3000488,0,181.6999512-1,271.8000488-3
				l8.1000977-0.1999512l16.3999023,11.9000244v12348.7001953L2313.6999512,13616.2001953z"/>
			<path class="card2-1-1" d="M1449,1275.1999512C1636.0999756,1285.0999756,1838,1290.5,2047.4000244,1290.5
				c89.5999756,0,180.7000732-1,272.4998779-3l0,0V13593c0,0,0,0-0.1000977,0
				c-526.3000488-166.0996094-1058.5-329.5-1345.9000244-428.2998047
				c-396.2999878-136.2998047-579.7999878-452.5996094-582.5999756-661.2998047V2089.5l0,0
				C832,2042.4000244,1429.3000488,1809.3000488,1449,1275.1999512 M1403,1224.9000244l-1.8000488,48.5
				c-8.3000488,224.5-125.5999756,409.9000244-348.8000488,551.0999756c-176.5999756,111.8000488-419.5,191-666.2999878,217.4000244
				l-18.6000061,2L355.1999207,2058l-11.7999878,13.5v18v10413.9003906v0.2998047V12504
				c1.7000122,123,57.7999878,263.9003906,153.8999939,386.5996094
				c78.5999756,100.2998047,222.4000244,237.2001953,460.9000244,319.2001953
				c209.6999512,72.0996094,555.0999756,180.2998047,920.8000488,294.7998047c138.9000244,43.5,282.3999023,88.5,425.5,133.5996094
				l63.1000977,20v-65.2001953v-12305.5v-18.5l-12.3999023-13.6999512l-14.6000977-16.0999756l-21.8000488,0.5
				c-90,2-181.3000488,3-271.4000244,3C1843,1242.6990967,1642.5,1237.5991211,1451.5,1227.3990479L1403,1224.9000244
				L1403,1224.9000244z"/>
		</g>
	</g>
	<g>
		
			<linearGradient id="card2-1-_24_" gradientUnits="userSpaceOnUse" x1="5047.7998047" y1="-262.8710938" x2="5047.7998047" y2="-686.1894531" gradientTransform="matrix(1 0 0 1 0 9896)">
			<stop  offset="0" style="stop-color:#040404;stop-opacity:0"/>
			<stop  offset="0.2299" style="stop-color:#020202;stop-opacity:0.1"/>
			<stop  offset="0.8281" style="stop-color:#020202;stop-opacity:0.8704"/>
			<stop  offset="1" style="stop-color:#020202"/>
		</linearGradient>
		<rect x="343.1000061" y="9194.0996094" class="card2-1-36" width="9409.4003906" height="443.2001953"/>
		<g>
			<g>
				<rect x="23.8999996" y="7551.3999023" class="card2-1-37" width="10047.7998047" height="1618.6000977"/>
				<path class="card2-1-1" d="M10047.7998047,7575.2998047v1570.7998047h-5000h-5000V7575.2998047h5000H10047.7998047
					 M10095.5,7527.6000977h-47.7998047h-5000H47.7999992H0v47.7998047v1570.800293V9194h47.7999992h5000h5000h47.7998047
					v-47.7998047V7575.2998047v-47.699707H10095.5z"/>
			</g>
		</g>
	</g>
</g>
<g>
	<g>
		<g>
			<g>
				<path class="card2-1-37" d="M6160.9975586,7185.6235352c-676.1328125,0-1311.8017578-263.3007813-1789.9023438-741.40625
					c-478.1005859-478.1005859-741.4013672-1113.7695313-741.4013672-1789.9023438
					c0-676.1374512,263.3007813-1311.8015137,741.4013672-1789.9020996s1113.7695313-741.4013672,1789.9023438-741.4013672
					c676.1376953,0,1311.8017578,263.3007813,1789.9023438,741.4013672
					C8429,3342.5134277,8692.3007813,3978.1774902,8692.3007813,4654.3149414
					c0,676.1328125-263.3007813,1311.8017578-741.4008789,1789.9023438
					C7472.7993164,6922.3227539,6837.1352539,7185.6235352,6160.9975586,7185.6235352z"/>
				<path class="card2-1-1" d="M6160.9985352,2146.8884277c338.5205078,0,666.8911133,66.2890625,975.987793,197.0263672
					c298.5771484,126.2866211,566.7363281,307.0878906,797.0288086,537.3815918
					c230.2929688,230.2929688,411.0942383,498.4521484,537.3813477,797.0290527
					c130.7363281,309.0966797,197.0253906,637.4665527,197.0253906,975.9875488
					c0,338.5214844-66.2890625,666.8916016-197.0253906,975.9882813
					c-126.2871094,298.5761719-307.0883789,566.7363281-537.3813477,797.0288086
					c-230.2924805,230.2929688-498.4516602,411.0942383-797.0288086,537.3813477
					c-309.0966797,130.7368164-637.4672852,197.0258789-975.987793,197.0258789s-666.890625-66.2890625-975.9873047-197.0258789
					c-298.5776367-126.2871094-566.7363281-307.0883789-797.0288086-537.3813477
					c-230.2944336-230.293457-411.0949707-498.4526367-537.3815918-797.0288086
					c-130.7373047-309.0966797-197.0263672-637.4667969-197.0263672-975.9882813
					c0-338.5209961,66.2890625-666.8908691,197.0263672-975.9875488
					c126.2866211-298.5769043,307.0871582-566.736084,537.3815918-797.0290527
					c230.2924805-230.2937012,498.4511719-411.0949707,797.0288086-537.3815918
					C5494.1079102,2213.1774902,5822.4780273,2146.8884277,6160.9985352,2146.8884277 M6160.9985352,2099.1276855
					c-1411.1889648,0-2555.1853027,1143.9960938-2555.1853027,2555.1853027s1143.9963379,2555.1850586,2555.1853027,2555.1850586
					s2555.184082-1143.9951172,2555.184082-2555.1850586S7572.1875,2099.1276855,6160.9985352,2099.1276855
					L6160.9985352,2099.1276855z"/>
			</g>
		</g>
	</g>
</g>
</svg>
