<svg width="55" height="49" viewBox="0 0 55 49" fill="none" xmlns="http://www.w3.org/2000/svg">
<path d="M29.3502 39.9979C27.2002 41.9526 25.0959 43.8729 22.9809 45.7813C22.6981 46.0509 22.3799 46.2824 22.0347 46.4697C20.8858 47.0476 19.6363 46.7534 18.9872 45.6648C18.5393 44.8844 18.1816 44.0575 17.9206 43.1995C16.6376 39.1094 15.3896 35.006 14.1401 30.91C14.1031 30.7337 14.0172 30.5707 13.892 30.439C13.7667 30.3074 13.6069 30.212 13.4301 30.1633C9.9803 29.024 6.53815 27.8637 3.09295 26.7109C2.12384 26.3869 1.27969 25.8837 0.654948 25.0684C-0.314157 23.814 -0.210542 22.3223 0.984078 21.274C1.46477 20.8531 2.01108 20.5103 2.6023 20.2586C18.2837 13.6703 33.9697 7.09256 49.6603 0.525222C50.1183 0.330838 50.5958 0.183706 51.085 0.0862051C53.523 -0.391636 55.2921 1.16434 54.9599 3.58191C54.713 5.37382 54.3169 7.15677 53.9679 8.93971C52.1161 18.397 50.2622 27.8513 48.4062 37.3026C47.8516 40.1263 47.3076 42.9531 46.7438 45.7753C46.2775 48.1078 43.9081 49.5085 41.5097 48.8275C40.9525 48.6705 40.4297 48.4138 39.9677 48.0705C36.5987 45.5319 33.2556 42.9576 29.9033 40.3966C29.7418 40.2727 29.5712 40.1577 29.3502 39.9979ZM44.609 9.02931L44.5176 8.95017C44.4003 9.0323 44.283 9.11293 44.1672 9.19655C35.0033 15.8346 25.8375 22.4686 16.6696 29.0987C16.3328 29.3421 16.3008 29.5466 16.4105 29.9065C17.5279 33.4963 18.6327 37.0881 19.7247 40.6818C19.8054 40.9417 19.8892 41.2015 20.0172 41.6062C20.1574 41.2612 20.2367 41.0775 20.3068 40.8924C21.3825 38.0866 22.4507 35.2777 23.5371 32.4764C23.6596 32.1323 23.8426 31.8118 24.078 31.5297C29.1125 25.9967 34.1546 20.4716 39.2043 14.9545C41.0033 12.9785 42.8049 11.0034 44.609 9.02931Z" fill="#19D3D9"/>
</svg>
