<svg width="61" height="46" viewBox="0 0 61 46" fill="none" xmlns="http://www.w3.org/2000/svg">
<path d="M40.7417 11.2577C40.3419 11.4734 40.0927 11.8834 40.0927 12.3295V19.2746H26.3794C25.687 19.2746 25.125 19.8235 25.125 20.4999C25.125 21.1763 25.687 21.7252 26.3794 21.7252H40.0927V28.6704C40.0927 29.118 40.3419 29.5281 40.7417 29.7421C41.1414 29.9594 41.6298 29.9447 42.0162 29.7078L55.2896 21.5374C55.6542 21.3119 55.875 20.9214 55.875 20.4999C55.875 20.0784 55.6542 19.6879 55.2896 19.4625L42.0162 11.292C41.8121 11.1678 41.5796 11.1041 41.3472 11.1041C41.1398 11.1041 40.9307 11.1564 40.7417 11.2577" fill="#3F3F40"/>
<path d="M20.2583 34.7423C20.6581 34.5266 20.9073 34.1166 20.9073 33.6705L20.9073 26.7254L34.6206 26.7254C35.313 26.7254 35.875 26.1765 35.875 25.5001C35.875 24.8237 35.313 24.2748 34.6206 24.2748L20.9073 24.2748L20.9073 17.3296C20.9073 16.882 20.6581 16.4719 20.2583 16.2579C19.8586 16.0406 19.3702 16.0553 18.9838 16.2922L5.7104 24.4626C5.34578 24.6881 5.125 25.0786 5.125 25.5001C5.125 25.9216 5.34578 26.3121 5.7104 26.5375L18.9838 34.708C19.1879 34.8322 19.4204 34.8959 19.6528 34.8959C19.8602 34.8959 20.0693 34.8436 20.2583 34.7423" fill="#3F3F40"/>
</svg>
