<svg width="19" height="22" viewBox="0 0 19 22" fill="none" xmlns="http://www.w3.org/2000/svg">
<path fill-rule="evenodd" clip-rule="evenodd" d="M7.953 0C7.0047 0 6.21366 0.743261 6.13085 1.71209C5.95772 3.7377 5.9139 5.77235 5.99954 7.803C5.89616 7.8101 5.79281 7.81751 5.68946 7.82524L3.86362 7.96173C2.69659 8.04898 2.04421 9.38352 2.67425 10.3947C4.01795 12.5514 5.74935 14.4263 7.77614 15.9194L8.50763 16.4583C9.1007 16.8952 9.8995 16.8952 10.4926 16.4583L11.2241 15.9194C13.2508 14.4263 14.9822 12.5514 16.3259 10.3947C16.956 9.38352 16.3036 8.04898 15.1366 7.96174L13.3107 7.82524C13.2074 7.81751 13.104 7.8101 13.0007 7.803C13.0863 5.77234 13.0425 3.7377 12.8693 1.71208C12.7865 0.743259 11.9955 0 11.0472 0H7.953ZM7.88386 8.62994C7.74447 6.38315 7.7705 4.12867 7.96177 1.88571H11.0384C11.2297 4.12868 11.2557 6.38315 11.1163 8.62994C11.1007 8.88183 11.1842 9.12963 11.3481 9.31788C11.5121 9.50613 11.7428 9.61911 11.9886 9.63153C12.385 9.65155 12.7811 9.67636 13.1771 9.70596L14.5031 9.80509C13.3269 11.5818 11.8541 13.1335 10.1513 14.3879L9.5001 14.8677L8.84888 14.3879C7.14611 13.1335 5.67332 11.5818 4.49711 9.80509L5.82314 9.70596C6.21906 9.67636 6.61524 9.65155 7.0116 9.63153C7.25741 9.61911 7.4881 9.50613 7.65204 9.31788C7.81598 9.12963 7.89949 8.88183 7.88386 8.62994Z" fill="#E15257"/>
<path d="M1.83871 17.2857C1.83871 16.765 1.4271 16.3429 0.919355 16.3429C0.411609 16.3429 0 16.765 0 17.2857V19.8C0 21.015 0.960422 22 2.14516 22H16.8548C18.0396 22 19 21.015 19 19.8V17.2857C19 16.765 18.5884 16.3429 18.0806 16.3429C17.5729 16.3429 17.1613 16.765 17.1613 17.2857V19.8C17.1613 19.9736 17.0241 20.1143 16.8548 20.1143H2.14516C1.97591 20.1143 1.83871 19.9736 1.83871 19.8V17.2857Z" fill="#E15257"/>
</svg>
