<?xml version="1.0" encoding="UTF-8"?>
<svg width="188px" height="40px" viewBox="0 0 188 40" version="1.1" xmlns="http://www.w3.org/2000/svg" xmlns:xlink="http://www.w3.org/1999/xlink">
    <title>space_bot_horizontal_white</title>
    <g id="00_brand" stroke="none" stroke-width="1" fill="none" fill-rule="evenodd">
        <g id="00_logo" transform="translate(-922.000000, -403.000000)">
            <g id="01_horizontal" transform="translate(545.000000, 344.000000)">
                <g id="space_bot_horizontal_white" transform="translate(377.000000, 59.000000)">
                    <g id="space_bot_sign" transform="translate(48.000000, 8.000000)">
                        <rect id="frame" x="0" y="0" width="140" height="24"></rect>
                        <path d="M14.0774232,19.408284 C16.4942829,19.408284 17.7027128,18.3589744 17.7027128,16.260355 L17.7027128,16.260355 L17.7027128,13.5621302 C17.7027128,11.6213018 16.4942829,10.6508876 14.0774232,10.6508876 L14.0774232,10.6508876 L5.50855691,10.6508876 C4.91218892,10.6508876 4.61400493,10.3747535 4.61400493,9.82248521 C4.61400493,9.25443787 4.91218892,8.9704142 5.50855691,8.9704142 L5.50855691,8.9704142 L17.2789777,8.9704142 L17.2789777,5.30177515 L3.62528959,5.30177515 C1.20842986,5.30177515 0,6.32741617 0,8.37869822 L0,8.37869822 L0,10.6745562 C0,12.6469428 1.20842986,13.6331361 3.62528959,13.6331361 L3.62528959,13.6331361 L12.1941559,13.6331361 C12.7905239,13.6331361 13.0887079,13.9171598 13.0887079,14.4852071 C13.0887079,15.1637081 12.7905239,15.5029586 12.1941559,15.5029586 L12.1941559,15.5029586 L0.16478589,15.5029586 L0.16478589,19.408284 L14.0774232,19.408284 Z M23.0334056,24 L23.0334056,19.408284 L31.3904043,19.408284 C35.1726328,19.408284 37.0637471,17.8619329 37.0637471,14.7692308 L37.0637471,14.7692308 L37.0637471,9.9408284 C37.0637471,6.84812623 35.1726328,5.30177515 31.3904043,5.30177515 L31.3904043,5.30177515 L24.1162843,5.30177515 C20.3340558,5.30177515 18.4429415,6.84812623 18.4429415,9.9408284 L18.4429415,9.9408284 L18.4429415,24 L23.0334056,24 Z M31.3904043,15.5029586 L23.0334056,15.5029586 L23.0334056,9.91715976 C23.0334056,9.28599606 23.3943651,8.9704142 24.1162843,8.9704142 L24.1162843,8.9704142 L31.3904043,8.9704142 C32.0966295,8.9704142 32.4497422,9.28599606 32.4497422,9.91715976 L32.4497422,9.91715976 L32.4497422,14.5798817 C32.4497422,15.1952663 32.0966295,15.5029586 31.3904043,15.5029586 L31.3904043,15.5029586 Z M50.3512443,19.4319527 C53.8666766,19.4319527 55.6243928,18.122288 55.6243928,15.5029586 L55.6243928,15.5029586 L55.6243928,9.60946746 C55.6243928,6.75345168 53.8666766,5.32544379 50.3512443,5.32544379 L50.3512443,5.32544379 L38.368956,5.32544379 L38.368956,8.9704142 L49.95105,8.9704142 C50.6572752,8.9704142 51.0103879,9.27810651 51.0103879,9.89349112 L51.0103879,9.89349112 L51.0103879,10.8639053 L41.7352963,10.8639053 C39.3184366,10.8639053 38.1100067,11.9211045 38.1100067,14.035503 L38.1100067,14.035503 L38.1100067,16.1420118 C38.1100067,18.3353057 39.3184366,19.4319527 41.7352963,19.4319527 L41.7352963,19.4319527 L50.3512443,19.4319527 Z M49.95105,15.6923077 L43.6185636,15.6923077 C43.0221957,15.6923077 42.7240117,15.3767258 42.7240117,14.7455621 C42.7240117,14.0512821 43.0221957,13.704142 43.6185636,13.704142 L43.6185636,13.704142 L51.0103879,13.704142 L51.0103879,14.6745562 C51.0103879,15.3530572 50.6572752,15.6923077 49.95105,15.6923077 L49.95105,15.6923077 Z M73.0079964,19.408284 L73.0079964,15.5029586 L62.3439952,15.5029586 C61.63777,15.5029586 61.2846573,15.1873767 61.2846573,14.556213 L61.2846573,14.556213 L61.2846573,9.89349112 C61.2846573,9.27810651 61.63777,8.9704142 62.3439952,8.9704142 L62.3439952,8.9704142 L72.913833,8.9704142 L72.913833,5.30177515 L62.3439952,5.30177515 C58.5617667,5.30177515 56.6706524,6.84812623 56.6706524,9.9408284 L56.6706524,9.9408284 L56.6706524,14.7692308 C56.6706524,17.8619329 58.5617667,19.408284 62.3439952,19.408284 L62.3439952,19.408284 L73.0079964,19.408284 Z M91.0507436,19.408284 L91.0507436,15.5029586 L79.4451087,15.5029586 C78.7388835,15.5029586 78.3857709,15.1952663 78.3857709,14.5798817 L78.3857709,14.5798817 L78.3857709,13.6804734 L87.6608624,13.6804734 C88.8849862,13.6804734 89.795232,13.4319527 90.3916,12.9349112 C90.987968,12.4378698 91.286152,11.6607495 91.286152,10.6035503 L91.286152,10.6035503 L91.286152,8.59171598 C91.286152,6.39842209 90.0777221,5.30177515 87.6608624,5.30177515 L87.6608624,5.30177515 L79.0449144,5.30177515 C75.5294821,5.30177515 73.7717659,6.61143984 73.7717659,9.23076923 L73.7717659,9.23076923 L73.7717659,15.1242604 C73.7717659,17.9802761 75.5294821,19.408284 79.0449144,19.408284 L79.0449144,19.408284 L91.0507436,19.408284 Z M85.7775951,10.9585799 L78.3857709,10.9585799 L78.3857709,9.98816568 C78.3857709,9.30966469 78.7388835,8.9704142 79.4451087,8.9704142 L79.4451087,8.9704142 L85.7775951,8.9704142 C86.3739631,8.9704142 86.6721471,9.28599606 86.6721471,9.91715976 C86.6721471,10.6114398 86.3739631,10.9585799 85.7775951,10.9585799 L85.7775951,10.9585799 Z M105.279874,19.408284 C109.062103,19.408284 110.953217,17.8619329 110.953217,14.7692308 L110.953217,14.7692308 L110.953217,9.9408284 C110.953217,6.84812623 109.062103,5.30177515 105.279874,5.30177515 L105.279874,5.30177515 L96.9228757,5.30177515 L96.9228757,0 L92.3324116,0 L92.3324116,14.7692308 C92.3324116,17.8619329 94.2235259,19.408284 98.0057544,19.408284 L98.0057544,19.408284 L105.279874,19.408284 Z M105.279874,15.5029586 L98.0057544,15.5029586 C97.2838353,15.5029586 96.9228757,15.1873767 96.9228757,14.556213 L96.9228757,14.556213 L96.9228757,8.9704142 L105.279874,8.9704142 C105.9861,8.9704142 106.339212,9.27810651 106.339212,9.89349112 L106.339212,9.89349112 L106.339212,14.556213 C106.339212,15.1873767 105.9861,15.5029586 105.279874,15.5029586 L105.279874,15.5029586 Z M124.94694,19.408284 C128.729168,19.408284 130.620282,17.877712 130.620282,14.816568 L130.620282,14.816568 L130.620282,9.9408284 C130.620282,6.84812623 128.729168,5.30177515 124.94694,5.30177515 L124.94694,5.30177515 L117.67282,5.30177515 C113.890591,5.30177515 111.999477,6.84812623 111.999477,9.9408284 L111.999477,9.9408284 L111.999477,14.7692308 C111.999477,17.8619329 113.890591,19.408284 117.67282,19.408284 L117.67282,19.408284 L124.94694,19.408284 Z M124.94694,15.5029586 L117.67282,15.5029586 C116.966594,15.5029586 116.613482,15.1873767 116.613482,14.556213 L116.613482,14.556213 L116.613482,9.89349112 C116.613482,9.27810651 116.966594,8.9704142 117.67282,8.9704142 L117.67282,8.9704142 L124.94694,8.9704142 C125.668859,8.9704142 126.029818,9.27810651 126.029818,9.89349112 L126.029818,9.89349112 L126.029818,14.6035503 C126.029818,15.2031558 125.668859,15.5029586 124.94694,15.5029586 L124.94694,15.5029586 Z M137.434048,19.408284 L137.434048,8.9704142 L140,8.9704142 L140,5.30177515 L137.434048,5.30177515 L137.434048,0.946745562 L133.031911,0.946745562 L133.031911,5.30177515 L130.677827,5.30177515 L130.677827,8.9704142 L133.031911,8.9704142 L133.031911,19.408284 L137.434048,19.408284 Z" id="shape" fill="#FFFFFF" fill-rule="nonzero"></path>
                    </g>
                    <g id="space_bot_mark" transform="translate(0.000000, 0.000000)">
                        <rect id="frame" x="2.75387074e-05" y="0" width="39.9999725" height="39.9999725"></rect>
                        <path d="M39.9999725,19.9999862 C39.9999725,31.0456241 31.0456929,39.9999725 19.9999862,39.9999725 C8.9543484,39.9999725 0,31.0456241 0,19.9999862 C0,8.95427955 8.9543484,0 19.9999862,0 C31.0456929,0 39.9999725,8.95427955 39.9999725,19.9999862" id="shape" fill="#EBEFF5"></path>
                        <path d="M30.813101,23.6900147 L22.8620565,23.6900147 L22.8620565,21.1821334 C22.8670135,21.1835792 22.8725213,21.1845431 22.8790617,21.1845431 L30.7875588,21.1845431 C31.7419816,21.2073314 32.2192274,21.6306013 32.2192274,22.4543529 C32.2192274,23.2781733 31.7505186,23.6900147 30.813101,23.6900147 M22.8620565,18.7813089 C21.5347597,18.7813089 20.4588224,19.8414115 20.4588224,21.1686395 L20.4588224,26.0506327 C20.4588224,26.0791352 20.4728671,26.0932488 20.5014386,26.0932488 L30.6767844,26.127328 C31.8071795,26.1045397 32.636783,25.9683608 33.165182,25.7182405 C33.6935809,25.4683955 34.082634,25.1076385 34.3326855,24.6359693 C34.5826681,24.1645066 34.6961964,23.5480526 34.6736147,22.7866762 C34.6961964,21.5027528 34.3865925,20.6334935 33.7446652,20.1788983 C34.3638042,19.7187265 34.6621173,18.8153881 34.6395355,17.4689518 C34.6621173,16.5485394 34.5244237,15.8597275 34.2261795,15.4023095 C33.9279353,14.9450293 33.5486585,14.5756664 33.0884867,14.2944273 C32.6283149,14.0132571 31.8300366,13.8726032 30.6938584,13.8726032 L20.7759995,13.8726032 L20.5014386,13.8726032 L8.53642097,13.8726032 C8.02509602,13.8726032 7.49380551,14.0204172 6.94282482,14.3157698 C5.8633075,15.0657177 5.32361768,16.2105706 5.32361768,17.7501909 L5.32361768,18.0228929 C5.32361768,18.8409991 5.6843059,19.6051982 6.40588888,20.3152838 C7.01952012,20.9005502 7.84038014,21.1930801 8.86881317,21.1930801 L16.2233004,21.2015482 C16.8765873,21.2015482 17.2033341,21.6361779 17.2033341,22.5054372 C17.1976198,23.2952473 16.8510452,23.6900147 16.1636791,23.6900147 L6.51886642,23.6900147 L5.36623383,26.0454003 L5.36623383,26.0506327 C5.36623383,26.0741783 5.38530438,26.0932488 5.40884998,26.0932488 L15.7802026,26.0932488 C16.7857785,26.0932488 17.5455714,25.9300131 18.0598568,25.6032664 C18.5739356,25.2765884 18.9602348,24.8732841 19.2188233,24.3930779 C19.477274,23.9130782 19.6066371,23.3122525 19.6066371,22.5906695 L19.6066371,22.4458159 C19.6066371,21.8096029 19.4474634,21.1945259 19.1293225,20.6007913 C18.8110438,20.0071945 18.420545,19.5610674 17.9575505,19.2628232 C17.4944182,18.964579 16.7487389,18.8069199 15.7205124,18.7898459 L8.62165327,18.7898459 C8.02509602,18.7898459 7.72685182,18.3666448 7.72685182,17.5200361 C7.73814269,16.6906391 8.02213561,16.2758373 8.57903712,16.2758373 L20.4588224,16.2758373 L20.4588224,16.2807943 L22.8620565,16.2807943 L22.8620565,16.2758373 L30.8386431,16.2758373 C31.7362673,16.2872659 32.1836336,16.7077131 32.1808797,17.5371101 C32.1779193,18.3666448 31.730553,18.7813089 30.8386431,18.7813089 L22.8790617,18.7813089" id="shape" fill="#212429"></path>
                    </g>
                </g>
            </g>
        </g>
    </g>
</svg>