<svg width="108" height="23" viewBox="0 0 108 23" fill="none" xmlns="http://www.w3.org/2000/svg">
<path d="M3.60428 4.26594C3.96347 2.09346 5.84203 0.5 8.044 0.5H101.19C103.503 0.5 105.439 2.25382 105.668 4.55576L107.448 22.5H0.589458L3.60428 4.26594Z" fill="#212429" stroke="white"/>
<path d="M31.968 16.192C31.336 16.192 30.752 16.084 30.216 15.868C29.68 15.644 29.22 15.336 28.836 14.944C28.452 14.552 28.152 14.088 27.936 13.552C27.72 13.016 27.612 12.432 27.612 11.8C27.612 11.168 27.72 10.584 27.936 10.048C28.152 9.512 28.452 9.048 28.836 8.656C29.22 8.264 29.68 7.96 30.216 7.744C30.752 7.52 31.336 7.408 31.968 7.408C32.6 7.408 33.18 7.52 33.708 7.744C34.236 7.96 34.692 8.264 35.076 8.656C35.46 9.048 35.76 9.512 35.976 10.048C36.192 10.584 36.3 11.168 36.3 11.8C36.3 12.432 36.192 13.016 35.976 13.552C35.76 14.088 35.46 14.552 35.076 14.944C34.692 15.336 34.236 15.644 33.708 15.868C33.18 16.084 32.6 16.192 31.968 16.192ZM31.98 14.788C32.388 14.788 32.764 14.716 33.108 14.572C33.452 14.42 33.748 14.212 33.996 13.948C34.244 13.684 34.436 13.368 34.572 13C34.708 12.632 34.776 12.228 34.776 11.788C34.776 11.356 34.708 10.96 34.572 10.6C34.436 10.232 34.244 9.916 33.996 9.652C33.748 9.388 33.452 9.184 33.108 9.04C32.764 8.888 32.388 8.812 31.98 8.812C31.556 8.812 31.168 8.888 30.816 9.04C30.472 9.184 30.172 9.388 29.916 9.652C29.668 9.916 29.472 10.232 29.328 10.6C29.192 10.96 29.124 11.356 29.124 11.788C29.124 12.228 29.192 12.632 29.328 13C29.472 13.368 29.668 13.684 29.916 13.948C30.172 14.212 30.472 14.42 30.816 14.572C31.168 14.716 31.556 14.788 31.98 14.788ZM41.5215 9.448C41.1615 9.456 40.8295 9.52 40.5255 9.64C40.2215 9.76 39.9615 9.924 39.7455 10.132C39.5295 10.34 39.3575 10.588 39.2295 10.876C39.1095 11.156 39.0495 11.468 39.0495 11.812C39.0495 12.156 39.1095 12.472 39.2295 12.76C39.3575 13.04 39.5295 13.284 39.7455 13.492C39.9615 13.692 40.2215 13.852 40.5255 13.972C40.8295 14.084 41.1615 14.144 41.5215 14.152V9.448ZM42.9375 14.152C43.2975 14.144 43.6295 14.08 43.9335 13.96C44.2375 13.84 44.4975 13.676 44.7135 13.468C44.9295 13.26 45.0975 13.016 45.2175 12.736C45.3455 12.448 45.4095 12.136 45.4095 11.8C45.4095 11.464 45.3455 11.156 45.2175 10.876C45.0975 10.588 44.9295 10.34 44.7135 10.132C44.4975 9.924 44.2375 9.76 43.9335 9.64C43.6295 9.52 43.2975 9.456 42.9375 9.448V14.152ZM41.5215 16.312V15.52C40.9055 15.488 40.3535 15.376 39.8655 15.184C39.3775 14.984 38.9615 14.72 38.6175 14.392C38.2735 14.064 38.0095 13.68 37.8255 13.24C37.6495 12.8 37.5615 12.32 37.5615 11.8C37.5615 11.28 37.6495 10.8 37.8255 10.36C38.0095 9.92 38.2735 9.54 38.6175 9.22C38.9615 8.892 39.3775 8.628 39.8655 8.428C40.3535 8.228 40.9055 8.112 41.5215 8.08V7.288H42.9375V8.08C43.5535 8.112 44.1055 8.228 44.5935 8.428C45.0815 8.628 45.4975 8.892 45.8415 9.22C46.1855 9.54 46.4455 9.92 46.6215 10.36C46.8055 10.8 46.8975 11.28 46.8975 11.8C46.8975 12.32 46.8055 12.8 46.6215 13.24C46.4455 13.68 46.1855 14.064 45.8415 14.392C45.4975 14.712 45.0815 14.972 44.5935 15.172C44.1055 15.364 43.5535 15.48 42.9375 15.52V16.312H41.5215ZM48.0115 14.56H48.1315C48.3875 14.56 48.6035 14.504 48.7795 14.392C48.9555 14.28 49.0955 14.076 49.1995 13.78C49.3115 13.484 49.3875 13.084 49.4275 12.58C49.4755 12.076 49.4995 11.432 49.4995 10.648V7.6H55.3315V16H53.8675V9.004H50.9275V11.02C50.9275 11.988 50.8755 12.8 50.7715 13.456C50.6755 14.104 50.5195 14.624 50.3035 15.016C50.0875 15.408 49.8075 15.688 49.4635 15.856C49.1275 16.016 48.7195 16.096 48.2395 16.096H48.0115V14.56ZM59.212 12.76H61.564L60.388 9.28L59.212 12.76ZM61.192 7.6L64.24 16H62.668L62.008 14.044H58.768L58.108 16H56.572L59.62 7.6H61.192ZM70.992 16V9.844L67.08 16H65.472V7.6H66.948V13.756L70.848 7.6H72.456V16H70.992ZM68.964 6.64C68.268 6.64 67.712 6.472 67.296 6.136C66.88 5.8 66.636 5.344 66.564 4.768H67.8C67.832 5.024 67.948 5.236 68.148 5.404C68.348 5.564 68.62 5.644 68.964 5.644C69.308 5.644 69.58 5.564 69.78 5.404C69.988 5.236 70.112 5.024 70.152 4.768H71.376C71.312 5.344 71.068 5.8 70.644 6.136C70.228 6.472 69.668 6.64 68.964 6.64ZM74.4488 7.6H75.9248V10.876H79.8128V7.6H81.2768V16H79.8128V12.22H75.9248V16H74.4488V7.6Z" fill="white"/>
</svg>
