<svg width="108" height="23" viewBox="0 0 108 23" fill="none" xmlns="http://www.w3.org/2000/svg">
<path d="M4.09758 4.3475C4.41686 2.41641 6.08669 1 8.044 1H101.19C103.246 1 104.967 2.55895 105.17 4.60512L106.896 22H1.17892L4.09758 4.3475Z" fill="white" stroke="black" stroke-width="2"/>
<path d="M33.968 18.192C33.336 18.192 32.752 18.084 32.216 17.868C31.68 17.644 31.22 17.336 30.836 16.944C30.452 16.552 30.152 16.088 29.936 15.552C29.72 15.016 29.612 14.432 29.612 13.8C29.612 13.168 29.72 12.584 29.936 12.048C30.152 11.512 30.452 11.048 30.836 10.656C31.22 10.264 31.68 9.96 32.216 9.744C32.752 9.52 33.336 9.408 33.968 9.408C34.6 9.408 35.18 9.52 35.708 9.744C36.236 9.96 36.692 10.264 37.076 10.656C37.46 11.048 37.76 11.512 37.976 12.048C38.192 12.584 38.3 13.168 38.3 13.8C38.3 14.432 38.192 15.016 37.976 15.552C37.76 16.088 37.46 16.552 37.076 16.944C36.692 17.336 36.236 17.644 35.708 17.868C35.18 18.084 34.6 18.192 33.968 18.192ZM33.98 16.788C34.388 16.788 34.764 16.716 35.108 16.572C35.452 16.42 35.748 16.212 35.996 15.948C36.244 15.684 36.436 15.368 36.572 15C36.708 14.632 36.776 14.228 36.776 13.788C36.776 13.356 36.708 12.96 36.572 12.6C36.436 12.232 36.244 11.916 35.996 11.652C35.748 11.388 35.452 11.184 35.108 11.04C34.764 10.888 34.388 10.812 33.98 10.812C33.556 10.812 33.168 10.888 32.816 11.04C32.472 11.184 32.172 11.388 31.916 11.652C31.668 11.916 31.472 12.232 31.328 12.6C31.192 12.96 31.124 13.356 31.124 13.788C31.124 14.228 31.192 14.632 31.328 15C31.472 15.368 31.668 15.684 31.916 15.948C32.172 16.212 32.472 16.42 32.816 16.572C33.168 16.716 33.556 16.788 33.98 16.788ZM39.9215 9.6H41.3975V12.876H45.2855V9.6H46.7495V18H45.2855V14.22H41.3975V18H39.9215V9.6ZM48.2537 16.56H48.3737C48.6297 16.56 48.8457 16.504 49.0217 16.392C49.1977 16.28 49.3377 16.076 49.4417 15.78C49.5537 15.484 49.6297 15.084 49.6697 14.58C49.7177 14.076 49.7417 13.432 49.7417 12.648V9.6H55.5737V18H54.1097V11.004H51.1697V13.02C51.1697 13.988 51.1177 14.8 51.0137 15.456C50.9177 16.104 50.7617 16.624 50.5457 17.016C50.3297 17.408 50.0497 17.688 49.7057 17.856C49.3697 18.016 48.9617 18.096 48.4817 18.096H48.2537V16.56ZM59.4542 14.76H61.8062L60.6302 11.28L59.4542 14.76ZM61.4342 9.6L64.4822 18H62.9102L62.2502 16.044H59.0102L58.3502 18H56.8142L59.8622 9.6H61.4342ZM71.2342 18V11.844L67.3222 18H65.7142V9.6H67.1902V15.756L71.0902 9.6H72.6982V18H71.2342ZM69.2062 8.64C68.5102 8.64 67.9542 8.472 67.5382 8.136C67.1222 7.8 66.8782 7.344 66.8062 6.768H68.0422C68.0742 7.024 68.1902 7.236 68.3902 7.404C68.5902 7.564 68.8622 7.644 69.2062 7.644C69.5502 7.644 69.8222 7.564 70.0222 7.404C70.2302 7.236 70.3542 7.024 70.3942 6.768H71.6182C71.5542 7.344 71.3102 7.8 70.8862 8.136C70.4702 8.472 69.9102 8.64 69.2062 8.64ZM74.691 9.6H76.167V12.876H80.055V9.6H81.519V18H80.055V14.22H76.167V18H74.691V9.6Z" fill="#212429"/>
</svg>
