<svg width="652" height="718" viewBox="0 0 652 718" fill="none" xmlns="http://www.w3.org/2000/svg">
<g opacity="0.34" filter="url(#filter0_f_28110032)">
<g filter="url(#filter1_f_28110032)">
<path d="M293.579 541.412C339.548 553.806 487.559 491.834 487.559 419.374C487.559 375.489 491.29 307.666 477.041 264.804C462.792 221.942 438.662 185.307 407.703 159.532C376.744 133.757 340.345 120 303.111 120C265.876 120 229.478 133.757 198.518 159.532C167.559 185.307 143.429 221.942 129.18 264.804C114.931 307.666 121.522 376.42 121.522 423.188C121.522 479.439 249.254 541.412 293.579 541.412V448.453C280.791 432.52 216.958 398.897 213.43 376.797C209.901 354.697 211.712 331.789 218.633 310.971C225.554 290.153 237.274 272.359 252.31 259.841C267.347 247.322 285.026 240.64 303.111 240.64C321.196 240.64 338.874 247.322 353.911 259.841C368.948 272.359 380.668 290.153 387.589 310.971C394.509 331.789 396.32 354.697 392.792 376.797C389.264 398.897 306.366 432.52 293.579 448.453V541.412Z" fill="#FFCD5A"/>
</g>
<g filter="url(#filter2_f_28110032)">
<path d="M337.579 596.412C383.548 608.806 531.559 546.834 531.559 474.374C531.559 430.489 535.29 362.666 521.041 319.804C506.792 276.942 482.662 240.307 451.703 214.532C420.744 188.757 384.345 175 347.111 175C309.876 175 273.478 188.757 242.518 214.532C211.559 240.307 187.429 276.942 173.18 319.804C158.931 362.666 165.522 431.42 165.522 478.188C165.522 534.439 293.254 596.412 337.579 596.412V503.453C324.791 487.52 260.958 453.897 257.43 431.797C253.901 409.697 255.712 386.789 262.633 365.971C269.554 345.153 281.274 327.359 296.31 314.841C311.347 302.322 329.026 295.64 347.111 295.64C365.196 295.64 382.874 302.322 397.911 314.841C412.948 327.359 424.668 345.153 431.589 365.971C438.509 386.789 440.32 409.697 436.792 431.797C433.264 453.897 350.366 487.52 337.579 503.453V596.412Z" fill="#FF1B1C"/>
</g>
<path d="M321.579 555.412C367.548 567.806 515.559 505.834 515.559 433.374C515.559 389.489 519.29 321.666 505.041 278.804C490.792 235.942 466.662 199.307 435.703 173.532C404.744 147.757 368.345 134 331.111 134C293.876 134 257.478 147.757 226.518 173.532C195.559 199.307 171.429 235.942 157.18 278.804C142.931 321.666 149.522 390.42 149.522 437.188C149.522 493.439 277.254 555.412 321.579 555.412V462.453C308.791 446.52 244.958 412.897 241.43 390.797C237.901 368.697 239.712 345.789 246.633 324.971C253.554 304.153 265.274 286.359 280.31 273.841C295.347 261.322 313.026 254.64 331.111 254.64C349.196 254.64 366.874 261.322 381.911 273.841C396.948 286.359 408.668 304.153 415.589 324.971C422.509 345.789 424.32 368.697 420.792 390.797C417.264 412.897 334.366 446.52 321.579 462.453V555.412Z" fill="url(#paint0_radial_28110032)"/>
</g>
<defs>
<filter id="filter0_f_28110032" x="0" y="0" width="652" height="718" filterUnits="userSpaceOnUse" color-interpolation-filters="sRGB">
<feFlood flood-opacity="0" result="BackgroundImageFix"/>
<feBlend mode="normal" in="SourceGraphic" in2="BackgroundImageFix" result="shape"/>
<feGaussianBlur stdDeviation="60" result="effect1_foregroundBlur_28110032"/>
</filter>
<filter id="filter1_f_28110032" x="104" y="104" width="400" height="455" filterUnits="userSpaceOnUse" color-interpolation-filters="sRGB">
<feFlood flood-opacity="0" result="BackgroundImageFix"/>
<feBlend mode="normal" in="SourceGraphic" in2="BackgroundImageFix" result="shape"/>
<feGaussianBlur stdDeviation="8" result="effect1_foregroundBlur_28110032"/>
</filter>
<filter id="filter2_f_28110032" x="146" y="157" width="404" height="459" filterUnits="userSpaceOnUse" color-interpolation-filters="sRGB">
<feFlood flood-opacity="0" result="BackgroundImageFix"/>
<feBlend mode="normal" in="SourceGraphic" in2="BackgroundImageFix" result="shape"/>
<feGaussianBlur stdDeviation="9" result="effect1_foregroundBlur_28110032"/>
</filter>
<radialGradient id="paint0_radial_28110032" cx="0" cy="0" r="1" gradientUnits="userSpaceOnUse" gradientTransform="translate(332 381.788) rotate(-168.064) scale(359.416 314.439)">
<stop stop-color="#1C76FF"/>
<stop offset="1" stop-color="#06C3FF"/>
</radialGradient>
</defs>
</svg>
