<svg width="531" height="506" viewBox="0 0 531 506" fill="none" xmlns="http://www.w3.org/2000/svg">
<g opacity="0.66" filter="url(#filter0_f_28110037)">
<g filter="url(#filter1_f_28110037)">
<path d="M330.124 120C347.338 137.268 359.061 159.27 363.811 183.221C368.56 207.173 366.123 232 356.806 254.562C347.49 277.124 331.714 296.409 311.472 309.976C291.23 323.544 267.432 330.786 243.088 330.786C218.743 330.786 194.946 323.544 174.704 309.976C154.462 296.409 138.686 277.124 129.37 254.562C120.053 232 117.616 207.173 122.365 183.221C127.115 159.27 138.838 137.268 156.052 120L200.815 164.904C192.454 173.291 186.76 183.977 184.453 195.61C182.146 207.244 183.33 219.302 187.855 230.26C192.38 241.219 200.043 250.585 209.874 257.175C219.705 263.765 231.264 267.282 243.088 267.282C254.912 267.282 266.471 263.765 276.302 257.175C286.133 250.585 293.796 241.219 298.321 230.261C302.846 219.302 304.03 207.244 301.723 195.61C299.416 183.977 293.722 173.291 285.361 164.904L330.124 120Z" fill="#FFCD5A"/>
</g>
<g filter="url(#filter2_f_28110037)">
<path d="M374.124 175C391.338 192.268 403.061 214.27 407.811 238.221C412.56 262.173 410.123 287 400.806 309.562C391.49 332.124 375.714 351.409 355.472 364.976C335.23 378.544 311.432 385.786 287.088 385.786C262.743 385.786 238.946 378.544 218.704 364.976C198.462 351.409 182.686 332.124 173.37 309.562C164.053 287 161.616 262.173 166.365 238.221C171.115 214.27 182.838 192.268 200.052 175L244.815 219.904C236.454 228.291 230.76 238.977 228.453 250.61C226.146 262.244 227.33 274.302 231.855 285.26C236.38 296.219 244.043 305.585 253.874 312.175C263.705 318.765 275.264 322.282 287.088 322.282C298.912 322.282 310.471 318.765 320.302 312.175C330.133 305.585 337.796 296.219 342.321 285.261C346.846 274.302 348.03 262.244 345.723 250.61C343.416 238.977 337.722 228.291 329.361 219.904L374.124 175Z" fill="#FF1B1C"/>
</g>
<path d="M358.124 134C375.338 151.268 387.061 173.27 391.811 197.221C396.56 221.173 394.123 246 384.806 268.562C375.49 291.124 359.714 310.409 339.472 323.976C319.23 337.544 295.432 344.786 271.088 344.786C246.743 344.786 222.946 337.544 202.704 323.976C182.462 310.409 166.686 291.124 157.37 268.562C148.053 246 145.616 221.173 150.365 197.221C155.115 173.27 166.838 151.268 184.052 134L228.815 178.904C220.454 187.291 214.76 197.977 212.453 209.61C210.146 221.244 211.33 233.302 215.855 244.26C220.38 255.219 228.043 264.585 237.874 271.175C247.705 277.765 259.264 281.282 271.088 281.282C282.912 281.282 294.471 277.765 304.302 271.175C314.133 264.585 321.796 255.219 326.321 244.261C330.846 233.302 332.03 221.244 329.723 209.61C327.416 197.977 321.722 187.291 313.361 178.904L358.124 134Z" fill="url(#paint0_radial_28110037)"/>
</g>
<defs>
<filter id="filter0_f_28110037" x="0" y="0" width="530.176" height="505.786" filterUnits="userSpaceOnUse" color-interpolation-filters="sRGB">
<feFlood flood-opacity="0" result="BackgroundImageFix"/>
<feBlend mode="normal" in="SourceGraphic" in2="BackgroundImageFix" result="shape"/>
<feGaussianBlur stdDeviation="60" result="effect1_foregroundBlur_28110037"/>
</filter>
<filter id="filter1_f_28110037" x="104" y="104" width="278.176" height="242.786" filterUnits="userSpaceOnUse" color-interpolation-filters="sRGB">
<feFlood flood-opacity="0" result="BackgroundImageFix"/>
<feBlend mode="normal" in="SourceGraphic" in2="BackgroundImageFix" result="shape"/>
<feGaussianBlur stdDeviation="8" result="effect1_foregroundBlur_28110037"/>
</filter>
<filter id="filter2_f_28110037" x="146" y="157" width="282.176" height="246.786" filterUnits="userSpaceOnUse" color-interpolation-filters="sRGB">
<feFlood flood-opacity="0" result="BackgroundImageFix"/>
<feBlend mode="normal" in="SourceGraphic" in2="BackgroundImageFix" result="shape"/>
<feGaussianBlur stdDeviation="9" result="effect1_foregroundBlur_28110037"/>
</filter>
<radialGradient id="paint0_radial_28110037" cx="0" cy="0" r="1" gradientUnits="userSpaceOnUse" gradientTransform="translate(271.088 221.31) rotate(171.051) scale(238.133 158.202)">
<stop stop-color="#1C76FF"/>
<stop offset="1" stop-color="#06C3FF"/>
</radialGradient>
</defs>
</svg>
