<svg width="411" height="78" viewBox="0 0 411 78" fill="none" xmlns="http://www.w3.org/2000/svg">
<path d="M84.332 46.772H67.172L63.476 55H60.088L74.168 24.2H77.38L91.46 55H88.028L84.332 46.772ZM83.144 44.132L75.752 27.588L68.36 44.132H83.144ZM122.295 24.2V55H119.611L99.8111 30.008V55H96.5551V24.2H99.2391L119.083 49.192V24.2H122.295ZM132.348 24.2H135.604V55H132.348V24.2ZM177.613 24.2V55H174.489V30.36L162.389 51.084H160.849L148.749 30.492V55H145.625V24.2H148.309L161.685 47.036L174.929 24.2H177.613ZM206.965 46.772H189.805L186.109 55H182.721L196.801 24.2H200.013L214.093 55H210.661L206.965 46.772ZM205.777 44.132L198.385 27.588L190.993 44.132H205.777ZM223.625 27.016H212.801V24.2H237.705V27.016H226.881V55H223.625V27.016ZM242.907 24.2H246.163V55H242.907V24.2ZM269.648 55.264C266.597 55.264 263.825 54.5893 261.332 53.24C258.868 51.8613 256.932 49.984 255.524 47.608C254.145 45.232 253.456 42.5627 253.456 39.6C253.456 36.6373 254.145 33.968 255.524 31.592C256.932 29.216 258.868 27.3533 261.332 26.004C263.825 24.6253 266.597 23.936 269.648 23.936C272.699 23.936 275.441 24.6107 277.876 25.96C280.34 27.3093 282.276 29.1867 283.684 31.592C285.092 33.968 285.796 36.6373 285.796 39.6C285.796 42.5627 285.092 45.2467 283.684 47.652C282.276 50.028 280.34 51.8907 277.876 53.24C275.441 54.5893 272.699 55.264 269.648 55.264ZM269.648 52.36C272.083 52.36 274.283 51.8173 276.248 50.732C278.213 49.6173 279.753 48.092 280.868 46.156C281.983 44.1907 282.54 42.0053 282.54 39.6C282.54 37.1947 281.983 35.024 280.868 33.088C279.753 31.1227 278.213 29.5973 276.248 28.512C274.283 27.3973 272.083 26.84 269.648 26.84C267.213 26.84 264.999 27.3973 263.004 28.512C261.039 29.5973 259.484 31.1227 258.34 33.088C257.225 35.024 256.668 37.1947 256.668 39.6C256.668 42.0053 257.225 44.1907 258.34 46.156C259.484 48.092 261.039 49.6173 263.004 50.732C264.999 51.8173 267.213 52.36 269.648 52.36ZM318.834 24.2V55H316.15L296.35 30.008V55H293.094V24.2H295.778L315.622 49.192V24.2H318.834ZM337.379 55.264C335.091 55.264 332.891 54.8973 330.779 54.164C328.696 53.4307 327.083 52.4627 325.939 51.26L327.215 48.752C328.33 49.8667 329.811 50.776 331.659 51.48C333.507 52.1547 335.414 52.492 337.379 52.492C340.136 52.492 342.204 51.9933 343.583 50.996C344.962 49.9693 345.651 48.6493 345.651 47.036C345.651 45.804 345.27 44.8213 344.507 44.088C343.774 43.3547 342.864 42.7973 341.779 42.416C340.694 42.0053 339.183 41.5653 337.247 41.096C334.93 40.5093 333.082 39.952 331.703 39.424C330.324 38.8667 329.136 38.0307 328.139 36.916C327.171 35.8013 326.687 34.2907 326.687 32.384C326.687 30.8293 327.098 29.4213 327.919 28.16C328.74 26.8693 330.002 25.8427 331.703 25.08C333.404 24.3173 335.516 23.936 338.039 23.936C339.799 23.936 341.515 24.1853 343.187 24.684C344.888 25.1533 346.355 25.8133 347.587 26.664L346.487 29.26C345.196 28.4093 343.818 27.7787 342.351 27.368C340.884 26.928 339.447 26.708 338.039 26.708C335.34 26.708 333.302 27.236 331.923 28.292C330.574 29.3187 329.899 30.6533 329.899 32.296C329.899 33.528 330.266 34.5253 330.999 35.288C331.762 36.0213 332.7 36.5933 333.815 37.004C334.959 37.3853 336.484 37.8107 338.391 38.28C340.65 38.8373 342.468 39.3947 343.847 39.952C345.255 40.48 346.443 41.3013 347.411 42.416C348.379 43.5013 348.863 44.9827 348.863 46.86C348.863 48.4147 348.438 49.8373 347.587 51.128C346.766 52.3893 345.49 53.4013 343.759 54.164C342.028 54.8973 339.902 55.264 337.379 55.264Z" fill="black"/>
<rect x="1" y="1" width="409" height="76" rx="38" stroke="#262626" stroke-width="2"/>
</svg>
