<svg width="435" height="78" viewBox="0 0 435 78" fill="none" xmlns="http://www.w3.org/2000/svg">
<rect x="1" y="1" width="433" height="76" rx="38" fill="#262626"/>
<path d="M84.42 39.116C86.444 39.556 87.9987 40.436 89.084 41.756C90.1987 43.0467 90.756 44.7187 90.756 46.772C90.756 49.412 89.7733 51.4507 87.808 52.888C85.872 54.296 82.9973 55 79.184 55H65.016V24.2H78.304C81.736 24.2 84.3907 24.8893 86.268 26.268C88.1747 27.6467 89.128 29.5973 89.128 32.12C89.128 33.8213 88.7027 35.2733 87.852 36.476C87.0307 37.6493 85.8867 38.5293 84.42 39.116ZM68.272 26.884V38.06H78.084C80.5773 38.06 82.4987 37.5907 83.848 36.652C85.1973 35.684 85.872 34.2907 85.872 32.472C85.872 30.6533 85.1973 29.2747 83.848 28.336C82.4987 27.368 80.5773 26.884 78.084 26.884H68.272ZM79.14 52.316C81.8973 52.316 83.98 51.8467 85.388 50.908C86.796 49.9693 87.5 48.5027 87.5 46.508C87.5 42.6653 84.7133 40.744 79.14 40.744H68.272V52.316H79.14ZM119.22 55L112.18 45.1C111.388 45.188 110.567 45.232 109.716 45.232H101.444V55H98.1879V24.2H109.716C113.647 24.2 116.727 25.1387 118.956 27.016C121.185 28.8933 122.3 31.4747 122.3 34.76C122.3 37.1653 121.684 39.204 120.452 40.876C119.249 42.5187 117.519 43.7067 115.26 44.44L122.784 55H119.22ZM109.628 42.46C112.679 42.46 115.011 41.7853 116.624 40.436C118.237 39.0867 119.044 37.1947 119.044 34.76C119.044 32.2667 118.237 30.36 116.624 29.04C115.011 27.6907 112.679 27.016 109.628 27.016H101.444V42.46H109.628ZM149.301 46.772H132.141L128.445 55H125.057L139.137 24.2H142.349L156.429 55H152.997L149.301 46.772ZM148.113 44.132L140.721 27.588L133.329 44.132H148.113ZM187.264 24.2V55H184.58L164.78 30.008V55H161.524V24.2H164.208L184.052 49.192V24.2H187.264ZM197.317 24.2H209.857C213.113 24.2 215.987 24.86 218.481 26.18C220.974 27.4707 222.91 29.2893 224.289 31.636C225.667 33.9533 226.357 36.608 226.357 39.6C226.357 42.592 225.667 45.2613 224.289 47.608C222.91 49.9253 220.974 51.744 218.481 53.064C215.987 54.3547 213.113 55 209.857 55H197.317V24.2ZM209.681 52.184C212.379 52.184 214.741 51.656 216.765 50.6C218.789 49.5147 220.358 48.0333 221.473 46.156C222.587 44.2493 223.145 42.064 223.145 39.6C223.145 37.136 222.587 34.9653 221.473 33.088C220.358 31.1813 218.789 29.7 216.765 28.644C214.741 27.5587 212.379 27.016 209.681 27.016H200.573V52.184H209.681ZM253.676 55.264C251.388 55.264 249.188 54.8973 247.076 54.164C244.993 53.4307 243.38 52.4627 242.236 51.26L243.512 48.752C244.627 49.8667 246.108 50.776 247.956 51.48C249.804 52.1547 251.711 52.492 253.676 52.492C256.433 52.492 258.501 51.9933 259.88 50.996C261.259 49.9693 261.948 48.6493 261.948 47.036C261.948 45.804 261.567 44.8213 260.804 44.088C260.071 43.3547 259.161 42.7973 258.076 42.416C256.991 42.0053 255.48 41.5653 253.544 41.096C251.227 40.5093 249.379 39.952 248 39.424C246.621 38.8667 245.433 38.0307 244.436 36.916C243.468 35.8013 242.984 34.2907 242.984 32.384C242.984 30.8293 243.395 29.4213 244.216 28.16C245.037 26.8693 246.299 25.8427 248 25.08C249.701 24.3173 251.813 23.936 254.336 23.936C256.096 23.936 257.812 24.1853 259.484 24.684C261.185 25.1533 262.652 25.8133 263.884 26.664L262.784 29.26C261.493 28.4093 260.115 27.7787 258.648 27.368C257.181 26.928 255.744 26.708 254.336 26.708C251.637 26.708 249.599 27.236 248.22 28.292C246.871 29.3187 246.196 30.6533 246.196 32.296C246.196 33.528 246.563 34.5253 247.296 35.288C248.059 36.0213 248.997 36.5933 250.112 37.004C251.256 37.3853 252.781 37.8107 254.688 38.28C256.947 38.8373 258.765 39.3947 260.144 39.952C261.552 40.48 262.74 41.3013 263.708 42.416C264.676 43.5013 265.16 44.9827 265.16 46.86C265.16 48.4147 264.735 49.8373 263.884 51.128C263.063 52.3893 261.787 53.4013 260.056 54.164C258.325 54.8973 256.199 55.264 253.676 55.264ZM277.809 27.016H266.985V24.2H291.889V27.016H281.065V55H277.809V27.016ZM307.435 44.352V55H304.223V44.352L291.903 24.2H295.379L305.939 41.492L316.499 24.2H319.755L307.435 44.352ZM324.161 24.2H327.417V52.184H344.665V55H324.161V24.2ZM371.851 52.184V55H350.071V24.2H371.191V27.016H353.327V37.972H369.255V40.744H353.327V52.184H371.851Z" fill="#F8F8F8"/>
<rect x="1" y="1" width="433" height="76" rx="38" stroke="#262626" stroke-width="2"/>
</svg>
