<svg width="233" height="78" viewBox="0 0 233 78" fill="none" xmlns="http://www.w3.org/2000/svg">
<rect width="233" height="78" rx="39" fill="#262626"/>
<path d="M78.392 55.264C75.3413 55.264 72.584 54.5893 70.12 53.24C67.6853 51.8907 65.764 50.028 64.356 47.652C62.9773 45.2467 62.288 42.5627 62.288 39.6C62.288 36.6373 62.9773 33.968 64.356 31.592C65.764 29.1867 67.7 27.3093 70.164 25.96C72.628 24.6107 75.3853 23.936 78.436 23.936C80.724 23.936 82.836 24.3173 84.772 25.08C86.708 25.8427 88.3507 26.9573 89.7 28.424L87.632 30.492C85.2267 28.0573 82.1907 26.84 78.524 26.84C76.0893 26.84 73.8747 27.3973 71.88 28.512C69.8853 29.6267 68.316 31.152 67.172 33.088C66.0573 35.024 65.5 37.1947 65.5 39.6C65.5 42.0053 66.0573 44.176 67.172 46.112C68.316 48.048 69.8853 49.5733 71.88 50.688C73.8747 51.8027 76.0893 52.36 78.524 52.36C82.22 52.36 85.256 51.128 87.632 48.664L89.7 50.732C88.3507 52.1987 86.6933 53.328 84.728 54.12C82.792 54.8827 80.68 55.264 78.392 55.264ZM115.184 46.772H98.0236L94.3276 55H90.9396L105.02 24.2H108.232L122.312 55H118.88L115.184 46.772ZM113.996 44.132L106.604 27.588L99.2116 44.132H113.996ZM131.844 27.016H121.02V24.2H145.924V27.016H135.1V55H131.844V27.016ZM159.145 55.264C156.857 55.264 154.657 54.8973 152.545 54.164C150.462 53.4307 148.849 52.4627 147.705 51.26L148.981 48.752C150.095 49.8667 151.577 50.776 153.425 51.48C155.273 52.1547 157.179 52.492 159.145 52.492C161.902 52.492 163.97 51.9933 165.349 50.996C166.727 49.9693 167.417 48.6493 167.417 47.036C167.417 45.804 167.035 44.8213 166.273 44.088C165.539 43.3547 164.63 42.7973 163.545 42.416C162.459 42.0053 160.949 41.5653 159.013 41.096C156.695 40.5093 154.847 39.952 153.469 39.424C152.09 38.8667 150.902 38.0307 149.905 36.916C148.937 35.8013 148.453 34.2907 148.453 32.384C148.453 30.8293 148.863 29.4213 149.685 28.16C150.506 26.8693 151.767 25.8427 153.469 25.08C155.17 24.3173 157.282 23.936 159.805 23.936C161.565 23.936 163.281 24.1853 164.953 24.684C166.654 25.1533 168.121 25.8133 169.353 26.664L168.253 29.26C166.962 28.4093 165.583 27.7787 164.117 27.368C162.65 26.928 161.213 26.708 159.805 26.708C157.106 26.708 155.067 27.236 153.689 28.292C152.339 29.3187 151.665 30.6533 151.665 32.296C151.665 33.528 152.031 34.5253 152.765 35.288C153.527 36.0213 154.466 36.5933 155.581 37.004C156.725 37.3853 158.25 37.8107 160.157 38.28C162.415 38.8373 164.234 39.3947 165.613 39.952C167.021 40.48 168.209 41.3013 169.177 42.416C170.145 43.5013 170.629 44.9827 170.629 46.86C170.629 48.4147 170.203 49.8373 169.353 51.128C168.531 52.3893 167.255 53.4013 165.525 54.164C163.794 54.8973 161.667 55.264 159.145 55.264Z" fill="#F8F8F8"/>
</svg>
