<svg width="448" height="78" viewBox="0 0 448 78" fill="none" xmlns="http://www.w3.org/2000/svg">
<path d="M78.392 55.264C75.3413 55.264 72.584 54.5893 70.12 53.24C67.6853 51.8907 65.764 50.028 64.356 47.652C62.9773 45.2467 62.288 42.5627 62.288 39.6C62.288 36.6373 62.9773 33.968 64.356 31.592C65.764 29.1867 67.7 27.3093 70.164 25.96C72.628 24.6107 75.3853 23.936 78.436 23.936C80.724 23.936 82.836 24.3173 84.772 25.08C86.708 25.8427 88.3507 26.9573 89.7 28.424L87.632 30.492C85.2267 28.0573 82.1907 26.84 78.524 26.84C76.0893 26.84 73.8747 27.3973 71.88 28.512C69.8853 29.6267 68.316 31.152 67.172 33.088C66.0573 35.024 65.5 37.1947 65.5 39.6C65.5 42.0053 66.0573 44.176 67.172 46.112C68.316 48.048 69.8853 49.5733 71.88 50.688C73.8747 51.8027 76.0893 52.36 78.524 52.36C82.22 52.36 85.256 51.128 87.632 48.664L89.7 50.732C88.3507 52.1987 86.6933 53.328 84.728 54.12C82.792 54.8827 80.68 55.264 78.392 55.264ZM109.46 55.264C106.41 55.264 103.638 54.5893 101.144 53.24C98.6805 51.8613 96.7445 49.984 95.3365 47.608C93.9578 45.232 93.2685 42.5627 93.2685 39.6C93.2685 36.6373 93.9578 33.968 95.3365 31.592C96.7445 29.216 98.6805 27.3533 101.144 26.004C103.638 24.6253 106.41 23.936 109.46 23.936C112.511 23.936 115.254 24.6107 117.688 25.96C120.152 27.3093 122.088 29.1867 123.496 31.592C124.904 33.968 125.608 36.6373 125.608 39.6C125.608 42.5627 124.904 45.2467 123.496 47.652C122.088 50.028 120.152 51.8907 117.688 53.24C115.254 54.5893 112.511 55.264 109.46 55.264ZM109.46 52.36C111.895 52.36 114.095 51.8173 116.06 50.732C118.026 49.6173 119.566 48.092 120.68 46.156C121.795 44.1907 122.352 42.0053 122.352 39.6C122.352 37.1947 121.795 35.024 120.68 33.088C119.566 31.1227 118.026 29.5973 116.06 28.512C114.095 27.3973 111.895 26.84 109.46 26.84C107.026 26.84 104.811 27.3973 102.816 28.512C100.851 29.5973 99.2965 31.1227 98.1525 33.088C97.0378 35.024 96.4805 37.1947 96.4805 39.6C96.4805 42.0053 97.0378 44.1907 98.1525 46.156C99.2965 48.092 100.851 49.6173 102.816 50.732C104.811 51.8173 107.026 52.36 109.46 52.36ZM144.435 24.2C148.365 24.2 151.445 25.1387 153.675 27.016C155.904 28.8933 157.019 31.4747 157.019 34.76C157.019 38.0453 155.904 40.6267 153.675 42.504C151.445 44.352 148.365 45.276 144.435 45.276H136.163V55H132.907V24.2H144.435ZM144.347 42.416C147.397 42.416 149.729 41.756 151.343 40.436C152.956 39.0867 153.763 37.1947 153.763 34.76C153.763 32.2667 152.956 30.36 151.343 29.04C149.729 27.6907 147.397 27.016 144.347 27.016H136.163V42.416H144.347ZM174.619 44.352V55H171.407V44.352L159.087 24.2H162.563L173.123 41.492L183.683 24.2H186.939L174.619 44.352ZM233.456 24.2L223.072 55H219.64L210.62 28.732L201.556 55H198.168L187.784 24.2H191.128L200.016 50.688L209.212 24.2H212.248L221.312 50.82L230.332 24.2H233.456ZM260.458 55L253.418 45.1C252.626 45.188 251.805 45.232 250.954 45.232H242.682V55H239.426V24.2H250.954C254.885 24.2 257.965 25.1387 260.194 27.016C262.423 28.8933 263.538 31.4747 263.538 34.76C263.538 37.1653 262.922 39.204 261.69 40.876C260.487 42.5187 258.757 43.7067 256.498 44.44L264.022 55H260.458ZM250.866 42.46C253.917 42.46 256.249 41.7853 257.862 40.436C259.475 39.0867 260.282 37.1947 260.282 34.76C260.282 32.2667 259.475 30.36 257.862 29.04C256.249 27.6907 253.917 27.016 250.866 27.016H242.682V42.46H250.866ZM271.223 24.2H274.479V55H271.223V24.2ZM290.484 27.016H279.66V24.2H304.564V27.016H293.74V55H290.484V27.016ZM309.766 24.2H313.022V55H309.766V24.2ZM348.783 24.2V55H346.099L326.299 30.008V55H323.043V24.2H325.727L345.571 49.192V24.2H348.783ZM380.528 39.6H383.652V51.348C382.215 52.6093 380.514 53.5773 378.548 54.252C376.583 54.9267 374.515 55.264 372.344 55.264C369.264 55.264 366.492 54.5893 364.028 53.24C361.564 51.8907 359.628 50.028 358.22 47.652C356.812 45.2467 356.108 42.5627 356.108 39.6C356.108 36.6373 356.812 33.968 358.22 31.592C359.628 29.1867 361.564 27.3093 364.028 25.96C366.492 24.6107 369.279 23.936 372.388 23.936C374.735 23.936 376.891 24.3173 378.856 25.08C380.822 25.8133 382.479 26.9133 383.828 28.38L381.804 30.448C379.37 28.0427 376.275 26.84 372.52 26.84C370.027 26.84 367.768 27.3973 365.744 28.512C363.75 29.5973 362.18 31.1227 361.036 33.088C359.892 35.024 359.32 37.1947 359.32 39.6C359.32 42.0053 359.892 44.176 361.036 46.112C362.18 48.048 363.75 49.5733 365.744 50.688C367.739 51.8027 369.983 52.36 372.476 52.36C375.644 52.36 378.328 51.568 380.528 49.984V39.6Z" fill="black"/>
<rect x="1" y="1" width="446" height="76" rx="38" stroke="#262626" stroke-width="2"/>
</svg>
