<svg width="241" height="78" viewBox="0 0 241 78" fill="none" xmlns="http://www.w3.org/2000/svg">
<path d="M65.016 24.2H68.272V52.184H85.52V55H65.016V24.2ZM103.789 55.264C100.738 55.264 97.9659 54.5893 95.4726 53.24C93.0086 51.8613 91.0726 49.984 89.6646 47.608C88.2859 45.232 87.5966 42.5627 87.5966 39.6C87.5966 36.6373 88.2859 33.968 89.6646 31.592C91.0726 29.216 93.0086 27.3533 95.4726 26.004C97.9659 24.6253 100.738 23.936 103.789 23.936C106.839 23.936 109.582 24.6107 112.017 25.96C114.481 27.3093 116.417 29.1867 117.825 31.592C119.233 33.968 119.937 36.6373 119.937 39.6C119.937 42.5627 119.233 45.2467 117.825 47.652C116.417 50.028 114.481 51.8907 112.017 53.24C109.582 54.5893 106.839 55.264 103.789 55.264ZM103.789 52.36C106.223 52.36 108.423 51.8173 110.389 50.732C112.354 49.6173 113.894 48.092 115.009 46.156C116.123 44.1907 116.681 42.0053 116.681 39.6C116.681 37.1947 116.123 35.024 115.009 33.088C113.894 31.1227 112.354 29.5973 110.389 28.512C108.423 27.3973 106.223 26.84 103.789 26.84C101.354 26.84 99.1393 27.3973 97.1446 28.512C95.1793 29.5973 93.6246 31.1227 92.4806 33.088C91.3659 35.024 90.8086 37.1947 90.8086 39.6C90.8086 42.0053 91.3659 44.1907 92.4806 46.156C93.6246 48.092 95.1793 49.6173 97.1446 50.732C99.1393 51.8173 101.354 52.36 103.789 52.36ZM151.897 24.2L138.257 55H135.045L121.405 24.2H124.925L136.717 50.952L148.597 24.2H151.897ZM178.148 52.184V55H156.368V24.2H177.488V27.016H159.624V37.972H175.552V40.744H159.624V52.184H178.148Z" fill="black"/>
<rect x="1" y="1" width="239" height="76" rx="38" stroke="#262626" stroke-width="2"/>
</svg>
