<svg width="313" height="78" viewBox="0 0 313 78" fill="none" xmlns="http://www.w3.org/2000/svg">
<path d="M90.756 24.2V55H88.072L68.272 30.008V55H65.016V24.2H67.7L87.544 49.192V24.2H90.756ZM120.125 46.772H102.965L99.269 55H95.881L109.961 24.2H113.173L127.253 55H123.821L120.125 46.772ZM118.937 44.132L111.545 27.588L104.153 44.132H118.937ZM164.336 24.2V55H161.212V30.36L149.112 51.084H147.572L135.472 30.492V55H132.348V24.2H135.032L148.408 47.036L161.652 24.2H164.336ZM174.371 24.2H177.627V55H174.371V24.2ZM213.389 24.2V55H210.705L190.905 30.008V55H187.649V24.2H190.333L210.177 49.192V24.2H213.389ZM245.134 39.6H248.258V51.348C246.82 52.6093 245.119 53.5773 243.154 54.252C241.188 54.9267 239.12 55.264 236.95 55.264C233.87 55.264 231.098 54.5893 228.634 53.24C226.17 51.8907 224.234 50.028 222.826 47.652C221.418 45.2467 220.714 42.5627 220.714 39.6C220.714 36.6373 221.418 33.968 222.826 31.592C224.234 29.1867 226.17 27.3093 228.634 25.96C231.098 24.6107 233.884 23.936 236.994 23.936C239.34 23.936 241.496 24.3173 243.462 25.08C245.427 25.8133 247.084 26.9133 248.434 28.38L246.41 30.448C243.975 28.0427 240.88 26.84 237.126 26.84C234.632 26.84 232.374 27.3973 230.35 28.512C228.355 29.5973 226.786 31.1227 225.642 33.088C224.498 35.024 223.926 37.1947 223.926 39.6C223.926 42.0053 224.498 44.176 225.642 46.112C226.786 48.048 228.355 49.5733 230.35 50.688C232.344 51.8027 234.588 52.36 237.082 52.36C240.25 52.36 242.934 51.568 245.134 49.984V39.6Z" fill="black"/>
<rect x="1" y="1" width="311" height="76" rx="38" stroke="#262626" stroke-width="2"/>
</svg>
