<svg width="422" height="78" viewBox="0 0 422 78" fill="none" xmlns="http://www.w3.org/2000/svg">
<path d="M88.0596 24.2C91.9903 24.2 95.0703 25.1387 97.2996 27.016C99.529 28.8933 100.644 31.4747 100.644 34.76C100.644 38.0453 99.529 40.6267 97.2996 42.504C95.0703 44.352 91.9903 45.276 88.0596 45.276H79.7876V55H76.5316V24.2H88.0596ZM87.9716 42.416C91.0223 42.416 93.3543 41.756 94.9676 40.436C96.581 39.0867 97.3876 37.1947 97.3876 34.76C97.3876 32.2667 96.581 30.36 94.9676 29.04C93.3543 27.6907 91.0223 27.016 87.9716 27.016H79.7876V42.416H87.9716ZM128.716 55L121.676 45.1C120.884 45.188 120.063 45.232 119.212 45.232H110.94V55H107.684V24.2H119.212C123.143 24.2 126.223 25.1387 128.452 27.016C130.681 28.8933 131.796 31.4747 131.796 34.76C131.796 37.1653 131.18 39.204 129.948 40.876C128.745 42.5187 127.015 43.7067 124.756 44.44L132.28 55H128.716ZM119.124 42.46C122.175 42.46 124.507 41.7853 126.12 40.436C127.733 39.0867 128.54 37.1947 128.54 34.76C128.54 32.2667 127.733 30.36 126.12 29.04C124.507 27.6907 122.175 27.016 119.124 27.016H110.94V42.46H119.124ZM152.945 55.264C149.894 55.264 147.122 54.5893 144.629 53.24C142.165 51.8613 140.229 49.984 138.821 47.608C137.442 45.232 136.753 42.5627 136.753 39.6C136.753 36.6373 137.442 33.968 138.821 31.592C140.229 29.216 142.165 27.3533 144.629 26.004C147.122 24.6253 149.894 23.936 152.945 23.936C155.996 23.936 158.738 24.6107 161.173 25.96C163.637 27.3093 165.573 29.1867 166.981 31.592C168.389 33.968 169.093 36.6373 169.093 39.6C169.093 42.5627 168.389 45.2467 166.981 47.652C165.573 50.028 163.637 51.8907 161.173 53.24C158.738 54.5893 155.996 55.264 152.945 55.264ZM152.945 52.36C155.38 52.36 157.58 51.8173 159.545 50.732C161.51 49.6173 163.05 48.092 164.165 46.156C165.28 44.1907 165.837 42.0053 165.837 39.6C165.837 37.1947 165.28 35.024 164.165 33.088C163.05 31.1227 161.51 29.5973 159.545 28.512C157.58 27.3973 155.38 26.84 152.945 26.84C150.51 26.84 148.296 27.3973 146.301 28.512C144.336 29.5973 142.781 31.1227 141.637 33.088C140.522 35.024 139.965 37.1947 139.965 39.6C139.965 42.0053 140.522 44.1907 141.637 46.156C142.781 48.092 144.336 49.6173 146.301 50.732C148.296 51.8173 150.51 52.36 152.945 52.36ZM208.379 24.2V55H205.255V30.36L193.155 51.084H191.615L179.515 30.492V55H176.391V24.2H179.075L192.451 47.036L205.695 24.2H208.379ZM231.878 55.264C228.828 55.264 226.056 54.5893 223.562 53.24C221.098 51.8613 219.162 49.984 217.754 47.608C216.376 45.232 215.686 42.5627 215.686 39.6C215.686 36.6373 216.376 33.968 217.754 31.592C219.162 29.216 221.098 27.3533 223.562 26.004C226.056 24.6253 228.828 23.936 231.878 23.936C234.929 23.936 237.672 24.6107 240.106 25.96C242.57 27.3093 244.506 29.1867 245.914 31.592C247.322 33.968 248.026 36.6373 248.026 39.6C248.026 42.5627 247.322 45.2467 245.914 47.652C244.506 50.028 242.57 51.8907 240.106 53.24C237.672 54.5893 234.929 55.264 231.878 55.264ZM231.878 52.36C234.313 52.36 236.513 51.8173 238.478 50.732C240.444 49.6173 241.984 48.092 243.098 46.156C244.213 44.1907 244.77 42.0053 244.77 39.6C244.77 37.1947 244.213 35.024 243.098 33.088C241.984 31.1227 240.444 29.5973 238.478 28.512C236.513 27.3973 234.313 26.84 231.878 26.84C229.444 26.84 227.229 27.3973 225.234 28.512C223.269 29.5973 221.714 31.1227 220.57 33.088C219.456 35.024 218.898 37.1947 218.898 39.6C218.898 42.0053 219.456 44.1907 220.57 46.156C221.714 48.092 223.269 49.6173 225.234 50.732C227.229 51.8173 229.444 52.36 231.878 52.36ZM260.879 27.016H250.055V24.2H274.959V27.016H264.135V55H260.879V27.016ZM280.161 24.2H283.417V55H280.161V24.2ZM306.902 55.264C303.851 55.264 301.079 54.5893 298.586 53.24C296.122 51.8613 294.186 49.984 292.778 47.608C291.399 45.232 290.71 42.5627 290.71 39.6C290.71 36.6373 291.399 33.968 292.778 31.592C294.186 29.216 296.122 27.3533 298.586 26.004C301.079 24.6253 303.851 23.936 306.902 23.936C309.953 23.936 312.695 24.6107 315.13 25.96C317.594 27.3093 319.53 29.1867 320.938 31.592C322.346 33.968 323.05 36.6373 323.05 39.6C323.05 42.5627 322.346 45.2467 320.938 47.652C319.53 50.028 317.594 51.8907 315.13 53.24C312.695 54.5893 309.953 55.264 306.902 55.264ZM306.902 52.36C309.337 52.36 311.537 51.8173 313.502 50.732C315.467 49.6173 317.007 48.092 318.122 46.156C319.237 44.1907 319.794 42.0053 319.794 39.6C319.794 37.1947 319.237 35.024 318.122 33.088C317.007 31.1227 315.467 29.5973 313.502 28.512C311.537 27.3973 309.337 26.84 306.902 26.84C304.467 26.84 302.253 27.3973 300.258 28.512C298.293 29.5973 296.738 31.1227 295.594 33.088C294.479 35.024 293.922 37.1947 293.922 39.6C293.922 42.0053 294.479 44.1907 295.594 46.156C296.738 48.092 298.293 49.6173 300.258 50.732C302.253 51.8173 304.467 52.36 306.902 52.36ZM356.088 24.2V55H353.404L333.604 30.008V55H330.348V24.2H333.032L352.876 49.192V24.2H356.088Z" fill="black"/>
<rect x="1" y="1" width="420" height="76" rx="38" stroke="#262626" stroke-width="2"/>
</svg>
