<svg width="243" height="78" viewBox="0 0 243 78" fill="none" xmlns="http://www.w3.org/2000/svg">
<rect width="243" height="78" rx="39" fill="#262626"/>
<path d="M73.508 55.264C71.22 55.264 69.02 54.8973 66.908 54.164C64.8253 53.4307 63.212 52.4627 62.068 51.26L63.344 48.752C64.4587 49.8667 65.94 50.776 67.788 51.48C69.636 52.1547 71.5427 52.492 73.508 52.492C76.2653 52.492 78.3333 51.9933 79.712 50.996C81.0907 49.9693 81.78 48.6493 81.78 47.036C81.78 45.804 81.3987 44.8213 80.636 44.088C79.9027 43.3547 78.9933 42.7973 77.908 42.416C76.8227 42.0053 75.312 41.5653 73.376 41.096C71.0587 40.5093 69.2107 39.952 67.832 39.424C66.4533 38.8667 65.2653 38.0307 64.268 36.916C63.3 35.8013 62.816 34.2907 62.816 32.384C62.816 30.8293 63.2267 29.4213 64.048 28.16C64.8693 26.8693 66.1307 25.8427 67.832 25.08C69.5333 24.3173 71.6453 23.936 74.168 23.936C75.928 23.936 77.644 24.1853 79.316 24.684C81.0173 25.1533 82.484 25.8133 83.716 26.664L82.616 29.26C81.3253 28.4093 79.9467 27.7787 78.48 27.368C77.0133 26.928 75.576 26.708 74.168 26.708C71.4693 26.708 69.4307 27.236 68.052 28.292C66.7027 29.3187 66.028 30.6533 66.028 32.296C66.028 33.528 66.3947 34.5253 67.128 35.288C67.8907 36.0213 68.8293 36.5933 69.944 37.004C71.088 37.3853 72.6133 37.8107 74.52 38.28C76.7787 38.8373 78.5973 39.3947 79.976 39.952C81.384 40.48 82.572 41.3013 83.54 42.416C84.508 43.5013 84.992 44.9827 84.992 46.86C84.992 48.4147 84.5667 49.8373 83.716 51.128C82.8947 52.3893 81.6187 53.4013 79.888 54.164C78.1573 54.8973 76.0307 55.264 73.508 55.264ZM92.0863 24.2H95.3423V55H92.0863V24.2ZM111.348 27.016H100.524V24.2H125.428V27.016H114.604V55H111.348V27.016ZM152.409 52.184V55H130.629V24.2H151.749V27.016H133.885V37.972H149.813V40.744H133.885V52.184H152.409ZM168.555 55.264C166.267 55.264 164.067 54.8973 161.955 54.164C159.872 53.4307 158.259 52.4627 157.115 51.26L158.391 48.752C159.506 49.8667 160.987 50.776 162.835 51.48C164.683 52.1547 166.59 52.492 168.555 52.492C171.312 52.492 173.38 51.9933 174.759 50.996C176.138 49.9693 176.827 48.6493 176.827 47.036C176.827 45.804 176.446 44.8213 175.683 44.088C174.95 43.3547 174.04 42.7973 172.955 42.416C171.87 42.0053 170.359 41.5653 168.423 41.096C166.106 40.5093 164.258 39.952 162.879 39.424C161.5 38.8667 160.312 38.0307 159.315 36.916C158.347 35.8013 157.863 34.2907 157.863 32.384C157.863 30.8293 158.274 29.4213 159.095 28.16C159.916 26.8693 161.178 25.8427 162.879 25.08C164.58 24.3173 166.692 23.936 169.215 23.936C170.975 23.936 172.691 24.1853 174.363 24.684C176.064 25.1533 177.531 25.8133 178.763 26.664L177.663 29.26C176.372 28.4093 174.994 27.7787 173.527 27.368C172.06 26.928 170.623 26.708 169.215 26.708C166.516 26.708 164.478 27.236 163.099 28.292C161.75 29.3187 161.075 30.6533 161.075 32.296C161.075 33.528 161.442 34.5253 162.175 35.288C162.938 36.0213 163.876 36.5933 164.991 37.004C166.135 37.3853 167.66 37.8107 169.567 38.28C171.826 38.8373 173.644 39.3947 175.023 39.952C176.431 40.48 177.619 41.3013 178.587 42.416C179.555 43.5013 180.039 44.9827 180.039 46.86C180.039 48.4147 179.614 49.8373 178.763 51.128C177.942 52.3893 176.666 53.4013 174.935 54.164C173.204 54.8973 171.078 55.264 168.555 55.264Z" fill="#F8F8F8"/>
</svg>
