<svg width="457" height="78" viewBox="0 0 457 78" fill="none" xmlns="http://www.w3.org/2000/svg">
<path d="M77.424 55.264C73.4347 55.264 70.3253 54.12 68.096 51.832C65.8667 49.544 64.752 46.2147 64.752 41.844V24.2H68.008V41.712C68.008 45.2907 68.8147 47.96 70.428 49.72C72.0413 51.48 74.3733 52.36 77.424 52.36C80.504 52.36 82.8507 51.48 84.464 49.72C86.0773 47.96 86.884 45.2907 86.884 41.712V24.2H90.052V41.844C90.052 46.2147 88.9373 49.544 86.708 51.832C84.508 54.12 81.4133 55.264 77.424 55.264ZM99.8637 24.2H103.12V55H99.8637V24.2ZM133.061 17.952H135.921L121.401 59.4H118.541L133.061 17.952ZM163.319 55.264C159.329 55.264 156.22 54.12 153.991 51.832C151.761 49.544 150.647 46.2147 150.647 41.844V24.2H153.903V41.712C153.903 45.2907 154.709 47.96 156.323 49.72C157.936 51.48 160.268 52.36 163.319 52.36C166.399 52.36 168.745 51.48 170.359 49.72C171.972 47.96 172.779 45.2907 172.779 41.712V24.2H175.947V41.844C175.947 46.2147 174.832 49.544 172.603 51.832C170.403 54.12 167.308 55.264 163.319 55.264ZM204.645 55L194.701 41.448L184.801 55H181.061L192.765 39.16L181.809 24.2H185.549L194.833 36.784L204.073 24.2H207.593L196.681 39.072L208.429 55H204.645ZM225.719 24.2H238.259C241.515 24.2 244.39 24.86 246.883 26.18C249.376 27.4707 251.312 29.2893 252.691 31.636C254.07 33.9533 254.759 36.608 254.759 39.6C254.759 42.592 254.07 45.2613 252.691 47.608C251.312 49.9253 249.376 51.744 246.883 53.064C244.39 54.3547 241.515 55 238.259 55H225.719V24.2ZM238.083 52.184C240.782 52.184 243.143 51.656 245.167 50.6C247.191 49.5147 248.76 48.0333 249.875 46.156C250.99 44.2493 251.547 42.064 251.547 39.6C251.547 37.136 250.99 34.9653 249.875 33.088C248.76 31.1813 247.191 29.7 245.167 28.644C243.143 27.5587 240.782 27.016 238.083 27.016H228.975V52.184H238.083ZM283.851 52.184V55H262.071V24.2H283.191V27.016H265.327V37.972H281.255V40.744H265.327V52.184H283.851ZM299.996 55.264C297.708 55.264 295.508 54.8973 293.396 54.164C291.314 53.4307 289.7 52.4627 288.556 51.26L289.832 48.752C290.947 49.8667 292.428 50.776 294.276 51.48C296.124 52.1547 298.031 52.492 299.996 52.492C302.754 52.492 304.822 51.9933 306.2 50.996C307.579 49.9693 308.268 48.6493 308.268 47.036C308.268 45.804 307.887 44.8213 307.124 44.088C306.391 43.3547 305.482 42.7973 304.396 42.416C303.311 42.0053 301.8 41.5653 299.864 41.096C297.547 40.5093 295.699 39.952 294.32 39.424C292.942 38.8667 291.754 38.0307 290.756 36.916C289.788 35.8013 289.304 34.2907 289.304 32.384C289.304 30.8293 289.715 29.4213 290.536 28.16C291.358 26.8693 292.619 25.8427 294.32 25.08C296.022 24.3173 298.134 23.936 300.656 23.936C302.416 23.936 304.132 24.1853 305.804 24.684C307.506 25.1533 308.972 25.8133 310.204 26.664L309.104 29.26C307.814 28.4093 306.435 27.7787 304.968 27.368C303.502 26.928 302.064 26.708 300.656 26.708C297.958 26.708 295.919 27.236 294.54 28.292C293.191 29.3187 292.516 30.6533 292.516 32.296C292.516 33.528 292.883 34.5253 293.616 35.288C294.379 36.0213 295.318 36.5933 296.432 37.004C297.576 37.3853 299.102 37.8107 301.008 38.28C303.267 38.8373 305.086 39.3947 306.464 39.952C307.872 40.48 309.06 41.3013 310.028 42.416C310.996 43.5013 311.48 44.9827 311.48 46.86C311.48 48.4147 311.055 49.8373 310.204 51.128C309.383 52.3893 308.107 53.4013 306.376 54.164C304.646 54.8973 302.519 55.264 299.996 55.264ZM318.575 24.2H321.831V55H318.575V24.2ZM353.544 39.6H356.668V51.348C355.231 52.6093 353.529 53.5773 351.564 54.252C349.599 54.9267 347.531 55.264 345.36 55.264C342.28 55.264 339.508 54.5893 337.044 53.24C334.58 51.8907 332.644 50.028 331.236 47.652C329.828 45.2467 329.124 42.5627 329.124 39.6C329.124 36.6373 329.828 33.968 331.236 31.592C332.644 29.1867 334.58 27.3093 337.044 25.96C339.508 24.6107 342.295 23.936 345.404 23.936C347.751 23.936 349.907 24.3173 351.872 25.08C353.837 25.8133 355.495 26.9133 356.844 28.38L354.82 30.448C352.385 28.0427 349.291 26.84 345.536 26.84C343.043 26.84 340.784 27.3973 338.76 28.512C336.765 29.5973 335.196 31.1227 334.052 33.088C332.908 35.024 332.336 37.1947 332.336 39.6C332.336 42.0053 332.908 44.176 334.052 46.112C335.196 48.048 336.765 49.5733 338.76 50.688C340.755 51.8027 342.999 52.36 345.492 52.36C348.66 52.36 351.344 51.568 353.544 49.984V39.6ZM391.623 24.2V55H388.939L369.139 30.008V55H365.883V24.2H368.567L388.411 49.192V24.2H391.623Z" fill="black"/>
<rect x="1" y="1" width="455" height="76" rx="38" stroke="#262626" stroke-width="2"/>
</svg>
