<svg width="463" height="78" viewBox="0 0 463 78" fill="none" xmlns="http://www.w3.org/2000/svg">
<path d="M107.3 24.2L96.916 55H93.484L84.464 28.732L75.4 55H72.012L61.628 24.2H64.972L73.86 50.688L83.056 24.2H86.092L95.156 50.82L104.176 24.2H107.3ZM135.05 52.184V55H113.27V24.2H134.39V27.016H116.526V37.972H132.454V40.744H116.526V52.184H135.05ZM162.108 39.116C164.132 39.556 165.686 40.436 166.772 41.756C167.886 43.0467 168.444 44.7187 168.444 46.772C168.444 49.412 167.461 51.4507 165.496 52.888C163.56 54.296 160.685 55 156.872 55H142.704V24.2H155.992C159.424 24.2 162.078 24.8893 163.956 26.268C165.862 27.6467 166.816 29.5973 166.816 32.12C166.816 33.8213 166.39 35.2733 165.54 36.476C164.718 37.6493 163.574 38.5293 162.108 39.116ZM145.96 26.884V38.06H155.772C158.265 38.06 160.186 37.5907 161.536 36.652C162.885 35.684 163.559 34.2907 163.559 32.472C163.559 30.6533 162.885 29.2747 161.536 28.336C160.186 27.368 158.265 26.884 155.772 26.884H145.96ZM156.828 52.316C159.585 52.316 161.668 51.8467 163.076 50.908C164.484 49.9693 165.188 48.5027 165.188 46.508C165.188 42.6653 162.401 40.744 156.828 40.744H145.96V52.316H156.828ZM195.883 55.264C193.595 55.264 191.395 54.8973 189.283 54.164C187.2 53.4307 185.587 52.4627 184.443 51.26L185.719 48.752C186.834 49.8667 188.315 50.776 190.163 51.48C192.011 52.1547 193.918 52.492 195.883 52.492C198.64 52.492 200.708 51.9933 202.087 50.996C203.466 49.9693 204.155 48.6493 204.155 47.036C204.155 45.804 203.774 44.8213 203.011 44.088C202.278 43.3547 201.368 42.7973 200.283 42.416C199.198 42.0053 197.687 41.5653 195.751 41.096C193.434 40.5093 191.586 39.952 190.207 39.424C188.828 38.8667 187.64 38.0307 186.643 36.916C185.675 35.8013 185.191 34.2907 185.191 32.384C185.191 30.8293 185.602 29.4213 186.423 28.16C187.244 26.8693 188.506 25.8427 190.207 25.08C191.908 24.3173 194.02 23.936 196.543 23.936C198.303 23.936 200.019 24.1853 201.691 24.684C203.392 25.1533 204.859 25.8133 206.091 26.664L204.991 29.26C203.7 28.4093 202.322 27.7787 200.855 27.368C199.388 26.928 197.951 26.708 196.543 26.708C193.844 26.708 191.806 27.236 190.427 28.292C189.078 29.3187 188.403 30.6533 188.403 32.296C188.403 33.528 188.77 34.5253 189.503 35.288C190.266 36.0213 191.204 36.5933 192.319 37.004C193.463 37.3853 194.988 37.8107 196.895 38.28C199.154 38.8373 200.972 39.3947 202.351 39.952C203.759 40.48 204.947 41.3013 205.915 42.416C206.883 43.5013 207.367 44.9827 207.367 46.86C207.367 48.4147 206.942 49.8373 206.091 51.128C205.27 52.3893 203.994 53.4013 202.263 54.164C200.532 54.8973 198.406 55.264 195.883 55.264ZM236.241 52.184V55H214.461V24.2H235.581V27.016H217.717V37.972H233.645V40.744H217.717V52.184H236.241ZM264.927 55L257.887 45.1C257.095 45.188 256.274 45.232 255.423 45.232H247.151V55H243.895V24.2H255.423C259.354 24.2 262.434 25.1387 264.663 27.016C266.892 28.8933 268.007 31.4747 268.007 34.76C268.007 37.1653 267.391 39.204 266.159 40.876C264.956 42.5187 263.226 43.7067 260.967 44.44L268.491 55H264.927ZM255.335 42.46C258.386 42.46 260.718 41.7853 262.331 40.436C263.944 39.0867 264.751 37.1947 264.751 34.76C264.751 32.2667 263.944 30.36 262.331 29.04C260.718 27.6907 258.386 27.016 255.335 27.016H247.151V42.46H255.335ZM301.3 24.2L287.66 55H284.448L270.808 24.2H274.328L286.12 50.952L298 24.2H301.3ZM305.77 24.2H309.026V55H305.77V24.2ZM332.423 55.264C329.373 55.264 326.615 54.5893 324.151 53.24C321.717 51.8907 319.795 50.028 318.387 47.652C317.009 45.2467 316.319 42.5627 316.319 39.6C316.319 36.6373 317.009 33.968 318.387 31.592C319.795 29.1867 321.731 27.3093 324.195 25.96C326.659 24.6107 329.417 23.936 332.467 23.936C334.755 23.936 336.867 24.3173 338.803 25.08C340.739 25.8427 342.382 26.9573 343.731 28.424L341.663 30.492C339.258 28.0573 336.222 26.84 332.555 26.84C330.121 26.84 327.906 27.3973 325.911 28.512C323.917 29.6267 322.347 31.152 321.203 33.088C320.089 35.024 319.531 37.1947 319.531 39.6C319.531 42.0053 320.089 44.176 321.203 46.112C322.347 48.048 323.917 49.5733 325.911 50.688C327.906 51.8027 330.121 52.36 332.555 52.36C336.251 52.36 339.287 51.128 341.663 48.664L343.731 50.732C342.382 52.1987 340.725 53.328 338.759 54.12C336.823 54.8827 334.711 55.264 332.423 55.264ZM372.452 52.184V55H350.672V24.2H371.792V27.016H353.928V37.972H369.856V40.744H353.928V52.184H372.452ZM388.598 55.264C386.31 55.264 384.11 54.8973 381.998 54.164C379.915 53.4307 378.302 52.4627 377.158 51.26L378.434 48.752C379.549 49.8667 381.03 50.776 382.878 51.48C384.726 52.1547 386.633 52.492 388.598 52.492C391.355 52.492 393.423 51.9933 394.802 50.996C396.181 49.9693 396.87 48.6493 396.87 47.036C396.87 45.804 396.489 44.8213 395.726 44.088C394.993 43.3547 394.083 42.7973 392.998 42.416C391.913 42.0053 390.402 41.5653 388.466 41.096C386.149 40.5093 384.301 39.952 382.922 39.424C381.543 38.8667 380.355 38.0307 379.358 36.916C378.39 35.8013 377.906 34.2907 377.906 32.384C377.906 30.8293 378.317 29.4213 379.138 28.16C379.959 26.8693 381.221 25.8427 382.922 25.08C384.623 24.3173 386.735 23.936 389.258 23.936C391.018 23.936 392.734 24.1853 394.406 24.684C396.107 25.1533 397.574 25.8133 398.806 26.664L397.706 29.26C396.415 28.4093 395.037 27.7787 393.57 27.368C392.103 26.928 390.666 26.708 389.258 26.708C386.559 26.708 384.521 27.236 383.142 28.292C381.793 29.3187 381.118 30.6533 381.118 32.296C381.118 33.528 381.485 34.5253 382.218 35.288C382.981 36.0213 383.919 36.5933 385.034 37.004C386.178 37.3853 387.703 37.8107 389.61 38.28C391.869 38.8373 393.687 39.3947 395.066 39.952C396.474 40.48 397.662 41.3013 398.63 42.416C399.598 43.5013 400.082 44.9827 400.082 46.86C400.082 48.4147 399.657 49.8373 398.806 51.128C397.985 52.3893 396.709 53.4013 394.978 54.164C393.247 54.8973 391.121 55.264 388.598 55.264Z" fill="black"/>
<rect x="1" y="1" width="461" height="76" rx="38" stroke="#262626" stroke-width="2"/>
</svg>
