<svg width="311" height="474" viewBox="0 0 311 474" fill="none" xmlns="http://www.w3.org/2000/svg">
<path d="M17.2294 403.26C17.2294 403.26 9.51378 112.52 0.374512 43.0137C31.8104 71.1031 48.5683 54.8825 80.357 54.8825C127.312 45.7831 140.443 28.3716 155.564 0.282227V467.52C116.005 441.374 75.1261 429.475 42.1596 419.357C24.2259 413.852 17.2294 412.892 17.2294 403.26Z" fill="url(#paint0_linear_981_12708)"/>
<path d="M294.605 403.26C294.605 403.26 300.541 110.899 309.727 41.393C280.571 65.9012 265.794 55.2283 233.843 55.2283C186.648 46.1289 170.761 28.3719 155.562 0.282471V467.52C195.324 441.374 236.412 429.475 269.547 419.357C287.572 413.852 294.605 412.892 294.605 403.26Z" fill="url(#paint1_linear_981_12708)"/>
<path d="M48.1397 51.4266C48.1397 65.1398 40.1943 76.1105 15.0337 76.1105C14.5923 178.96 15.0343 387.402 15.0343 398.373C15.0343 413.457 30.4832 417.571 38.87 420.314C69.5925 429.09 118.325 440.884 155.403 468.31C195.131 442.255 236.182 430.397 269.288 420.314C287.298 414.829 293.125 407.972 293.125 398.373V76.1105C268.758 76.1105 261.784 59.6545 261.343 51.4266C220.291 51.4266 172.619 56.9119 155.403 24C136.334 56.9119 75.9488 51.4266 48.1397 51.4266Z" fill="url(#paint2_linear_981_12708)"/>
<path d="M170.32 101.995L169.423 105.975L166.856 102.804L129.237 56.3447L143.453 113.547L144.463 117.609L140.685 115.808L86.0008 89.7385L124.459 135.203L127.247 138.501L122.929 138.456L62.0845 137.832L117.127 162.682L121.117 164.483L117.127 166.284L62.0845 191.133L122.929 190.51L127.247 190.465L124.459 193.762L86.0008 239.227L140.685 213.158L144.463 211.357L143.453 215.419L129.237 272.621L166.856 226.162L169.423 222.991L170.32 226.971L183.299 284.572L196.275 226.971L197.171 222.991L199.739 226.162L237.362 272.622L223.145 215.419L222.136 211.357L225.914 213.158L280.598 239.227L242.14 193.762L239.311 190.418L243.691 190.51L293.64 191.564L293.906 184.988L249.518 166.305L245.181 164.479L249.521 162.66L293.91 144.061L293.635 136.726L243.718 138.455L239.259 138.61L242.14 135.203L280.598 89.7385L225.914 115.808L222.136 117.609L223.145 113.547L237.362 56.3438L199.739 102.804L197.171 105.975L196.275 101.995L184.503 49.7372L182.251 49.0464L170.32 101.995Z" stroke="url(#paint3_linear_981_12708)" stroke-opacity="0.38" stroke-width="3.95294"/>
<path d="M126.372 115.548L128.25 119.379L124.101 118.308L57.1952 101.038L111.544 144.52L114.837 147.155L110.708 147.982L43.4553 161.453L110.814 177.326L114.873 178.282L111.585 180.804L57.3391 222.407L124.32 207.481L128.38 206.576L126.546 210.28L96.1111 271.756L149.396 229.024L152.668 226.4L152.631 230.587L152.029 299.692L181.086 237.677L182.888 233.831L184.685 237.7L213.975 300.74L213.113 231.718L213.06 227.439L216.368 230.201L269.722 274.747L239.115 212.32L237.257 208.53L241.37 209.556L293.952 222.681L293.952 213.138L253.998 183.39L250.455 180.752L254.779 179.886L291.246 172.582L291.22 159.152L254.671 150.538L250.59 149.577L253.907 147.056L294.353 116.31L294.353 107.543L241.199 120.376L236.847 121.426L238.974 117.518L267.302 65.4608C267.101 64.99 266.927 64.5004 266.775 64.0548C266.662 63.7236 266.558 63.4055 266.456 63.0947C266.275 62.5437 266.101 62.0159 265.902 61.4801C265.674 60.8646 265.461 60.3811 265.26 60.0268L216.079 98.8539L212.856 101.399L212.856 97.2981L212.856 51.6633L202.025 51.6633L184.409 90.1751L182.655 94.0078L180.815 90.1952L152.452 31.4561L150.753 32.8295L152.374 96.1243L152.485 100.477L149.12 97.6674L96.8602 54.0351L96.2136 54.0351L126.372 115.548ZM264.874 59.4961C264.874 59.4966 264.878 59.5005 264.887 59.5062C264.878 59.4985 264.874 59.4956 264.874 59.4961Z" stroke="url(#paint4_linear_981_12708)" stroke-opacity="0.35" stroke-width="3.95294"/>
<path d="M85.5692 212.333L18.8985 291.152L18.8985 291.616L113.883 246.335L117.662 244.534L116.652 248.596L91.7925 348.62L157.523 267.444L160.09 264.274L160.987 268.254L183.661 368.885L206.33 268.254L207.227 264.274L209.795 267.444L275.531 348.621L250.671 248.596L249.662 244.534L253.44 246.335L294.361 265.843L294.361 227.236L281.754 212.333L278.965 209.036L283.284 209.08L294.361 209.194L294.361 167.074L293.402 166.642L289.412 164.84L293.402 163.039L294.361 162.606L294.361 120.487L283.284 120.6L278.965 120.645L281.754 117.347L294.361 102.444L294.361 76.828C290.059 77.1119 282.975 76.4485 276.206 72.4931L253.44 83.3459L249.329 85.3056L250.705 80.9646L259.274 53.9331L215.476 52.1143L209.985 61.9556L207.201 66.945L206.306 61.3019L204.637 50.767C199.553 50.3497 192.078 49.1377 184.595 46.8397C177.663 44.7109 170.495 41.5821 165.248 37.1127L161.005 61.3336L160.222 65.8077L157.482 62.1847L141.009 40.4001C137.41 42.3557 132.124 44.8703 126.387 46.9471C120.739 48.992 114.48 50.6772 108.901 50.8928L116.648 81.0703L117.7 85.1652L113.883 83.3459L53.9058 54.7531L53.0459 54.7531C52.868 56.9848 52.3865 59.7827 51.4163 62.5238C50.3802 65.4515 48.7143 68.5118 46.0819 70.6653L85.5692 117.347L88.3581 120.645L84.0399 120.6L19.9317 119.943L19.9317 138.665L73.9212 163.039L77.9114 164.84L73.9212 166.642L19.9317 191.016L19.9317 209.738L84.0399 209.08L88.3581 209.036L85.5692 212.333Z" stroke="url(#paint5_linear_981_12708)" stroke-opacity="0.29" stroke-width="3.95294"/>
<path d="M86.6103 237.054L90.6696 236.15L88.8361 239.853L36.0193 346.54L128.521 272.357L131.792 269.734L131.755 273.921L130.71 393.896L181.178 286.186L182.979 282.34L184.777 286.209L235.652 395.709L234.155 275.797L234.102 271.518L237.409 274.28L293.952 321.488L293.952 277.939L276.938 243.236L275.06 239.405L279.209 240.476L293.952 244.282L293.952 87.4492L278.873 90.8087L274.745 91.7282L276.658 87.9871L283.097 75.3953C279.413 74.0726 274.859 71.5531 270.865 67.9221C266.337 63.8071 262.392 58.1351 261.364 50.9971L240.377 52.4033L237.061 55.4305L233.731 58.4711L233.731 53.9657L233.731 52.5698C215.466 53.4828 198.904 51.2712 185.49 46.4047C172.737 41.7782 162.699 34.6981 156.874 25.4968C154.674 28.1043 151.481 31.5786 147.632 34.9479C142.928 39.0655 137.116 43.1406 130.838 45.1989L131.326 51.9551L131.669 56.6928L128.051 53.5676L120.992 47.4696C115.181 48.6412 106.219 50.4363 96.7875 51.7676C88.5507 52.9302 79.8386 53.7573 72.5043 53.473L88.5306 84.5984L90.5355 88.4921L86.2772 87.393L38.5632 75.0773C35.2417 76.5831 28.1284 78.9521 19.9368 79.2928L19.9368 97.2931L64.4298 132.89L67.7227 135.524L63.5938 136.351L19.9368 145.096L19.9368 176.961L63.74 187.283L67.7981 188.239L64.5107 190.761L19.9368 224.946L19.9368 251.912L86.6103 237.054Z" stroke="url(#paint6_linear_981_12708)" stroke-opacity="0.35" stroke-width="3.95294"/>
<path d="M93.7947 56.2008L85.1511 52.0657L50.7533 52.8429C50.7533 59.0769 46.5936 72.5618 29.9547 76.6289L53.677 104.674L17.9554 104.307L17.9554 155.459L39.3528 165.119L17.9554 174.779L17.9554 225.931L53.677 225.565L17.9554 267.795L17.9554 310.192L93.7947 274.038L58.4737 416.155L151.766 300.94L185.545 451.313L216.114 300.94L293.538 396.549L293.538 352.272L274.094 274.038L293.549 283.313L293.549 77.7598C283.813 77.4962 263.86 72.0675 261.94 52.461C225.942 54.4374 175.145 57.9951 157.146 26.3716C146.747 39.4163 131.548 50.8798 92.767 52.0657" stroke="url(#paint7_linear_981_12708)" stroke-opacity="0.7" stroke-width="3.95294"/>
<path d="M261.539 52.8565C265.378 73.4117 284.47 77.76 293.537 77.3647L293.537 344.417L252.578 310.221L254.004 424.433L232.589 431.548L183.049 324.922L124.334 450.522L112.475 445.383L113.464 307.746L40.353 366.379L20.3543 384.113L20.3543 345.374L23.209 331.539L57.5956 262.08L17.9544 270.914L17.9544 203.545L26.517 196.978L17.9544 194.96L17.9544 127.022L26.3838 125.334L17.9544 118.59L17.9544 77.3647C40.033 76.7322 47.5525 68.6821 49.9523 59.5764L57.217 61.3344L53.0605 52.8564" stroke="url(#paint8_linear_981_12708)" stroke-opacity="0.7" stroke-width="3.95294"/>
<path d="M261.539 52.4609C264.738 73.0162 284.204 77.628 293.537 77.3645C293.67 182.513 293.777 394.548 293.137 401.506C292.497 408.463 286.47 412.593 283.537 413.789L226.419 343.255L204.214 441.826L168.416 459.614L142.197 343.255L73.1508 428.526L38.868 418.503L66.321 308.044L17.9544 331.101L17.9544 77.3645C40.673 77.3645 49.9523 66.2962 51.1522 53.2516" stroke="url(#paint9_linear_981_12708)" stroke-opacity="0.49" stroke-width="3.95294"/>
<path d="M90.8155 350.628L94.1157 347.981L94.0501 352.204L92.7526 435.846L141.387 458.575L181.347 373.801L183.136 370.004L184.938 373.816L215.393 438.24L273.915 419.837L272.164 355.443L272.048 351.168L275.395 353.878L293.953 368.904L293.953 78.8561C289.213 78.4816 282.617 76.7959 276.539 73.002C269.846 68.8244 263.744 62.0587 261.508 51.7042C259.7 51.7505 257.835 51.8038 255.923 51.8584C240.209 52.3076 221.29 52.8485 203.865 50.3084C184.808 47.5303 166.967 40.9914 157.071 26.0783C151.993 32.9854 144.684 38.1696 136.31 42.0711C126.904 46.4533 116.04 49.2719 105.19 51.0924C84.9461 54.4889 64.4596 54.4531 53.0658 54.4332C52.9345 54.433 52.8044 54.4328 52.6755 54.4326C52.205 61.9851 48.9815 68.0521 43.2677 72.3022C37.5232 76.5752 29.4398 78.8822 19.5378 79.2804L19.5378 401.121C19.5378 402.423 20.0645 403.858 20.7889 405.151C21.0143 405.554 21.2465 405.921 21.4669 406.243L90.8155 350.628Z" stroke="url(#paint10_linear_981_12708)" stroke-opacity="0.35" stroke-width="3.95294"/>
<path d="M170.879 120.29L145.377 88.7949L155.006 127.539L156.015 131.601L152.237 129.8L115.209 112.147L141.222 142.9L144.011 146.197L139.692 146.153L98.5447 145.731L135.75 162.528L139.74 164.329L135.75 166.131L98.5447 182.927L139.692 182.505L144.011 182.461L141.222 185.758L115.209 216.511L152.237 198.858L156.015 197.057L155.006 201.119L145.377 239.863L170.879 208.368L173.447 205.197L174.344 209.177L183.143 248.231L191.941 209.177L192.837 205.197L195.405 208.368L220.911 239.864L211.281 201.119L210.272 197.057L214.05 198.858L251.079 216.511L225.065 185.758L222.277 182.461L226.595 182.505L267.742 182.927L230.537 166.131L226.547 164.329L230.537 162.528L267.742 145.731L226.595 146.153L222.277 146.197L225.065 142.9L251.079 112.147L214.05 129.8L210.272 131.601L211.281 127.539L220.911 88.794L195.405 120.29L192.837 123.461L191.941 119.481L183.143 80.4277L174.344 119.481L173.447 123.461L170.879 120.29Z" stroke="url(#paint11_linear_981_12708)" stroke-width="3.95294"/>
<path d="M222.686 130.332L243.474 88.346L207.093 117.522L203.822 120.146L203.858 115.959L204.269 68.7815L184.441 111.1L182.639 114.946L180.842 111.077L160.856 68.062L161.444 115.149L161.497 119.429L158.19 116.667L121.791 86.2771L142.675 128.873L144.553 132.704L140.404 131.633L94.7482 119.849L131.852 149.534L135.145 152.168L131.016 152.995L85.0977 162.193L131.105 173.034L135.163 173.991L131.876 176.512L94.8229 204.929L140.574 194.734L144.634 193.829L142.8 197.533L122.012 239.522L158.394 210.346L161.666 207.722L161.629 211.909L161.218 259.086L181.046 216.768L182.848 212.922L184.646 216.791L204.631 259.806L204.043 212.719L203.99 208.439L207.298 211.201L243.696 241.591L222.812 198.995L220.934 195.164L225.083 196.235L270.739 208.019L233.635 178.334L230.342 175.7L234.471 174.873L280.39 165.675L234.381 154.831L230.323 153.874L233.61 151.353L270.664 122.938L224.912 133.131L220.852 134.036L222.686 130.332Z" stroke="url(#paint12_linear_981_12708)" stroke-width="3.95294"/>
<path d="M57.2269 51.6707C57.2269 65.3903 47.1133 76.3659 15.0872 76.3659C14.5253 179.263 15.0879 387.801 15.0879 398.776C15.0879 413.868 34.7524 417.984 45.4277 420.728C59.8791 423.973 77.4611 430.4 96.2682 435.106V51.9837C81.2923 52.1338 67.5099 51.6707 57.2269 51.6707Z" fill="url(#paint13_linear_981_12708)"/>
<path d="M50.9237 51.6707C50.9237 65.3761 43.0685 76.3405 18.1938 76.3405C17.7574 179.131 18.1944 387.454 18.1944 398.419C18.1944 413.495 33.4677 417.606 41.7593 420.347C52.9837 423.589 66.6396 427.242 81.247 431.943V51.9834C69.6153 52.1333 58.9105 51.6707 50.9237 51.6707Z" fill="url(#paint14_linear_981_12708)"/>
<path d="M49.9711 51.6706V47.7176H46.2232L46.0237 51.4602L49.9711 51.6706ZM64.8807 51.8219L64.9404 47.8694L64.9404 47.8694L64.8807 51.8219ZM17.9731 76.1788V72.2259H14.0202V76.1788H17.9731ZM41.9432 420.314L40.7846 424.093L40.7846 424.093L41.9432 420.314ZM46.9896 421.857L48.144 418.076L48.144 418.076L46.9896 421.857ZM155.55 468.292L159.126 466.607L158.653 465.603L157.727 464.992L155.55 468.292ZM155.564 468.31L153.814 471.855L155.831 472.85L157.717 471.626L155.564 468.31ZM155.571 468.306L157.734 464.997L155.578 463.588L153.418 464.99L155.571 468.306ZM155.578 468.31L153.415 471.619L155.594 473.043L157.763 471.604L155.578 468.31ZM155.597 468.289L153.43 464.983L152.689 465.468L152.227 466.223L155.597 468.289ZM265.428 421.494L264.279 417.712L264.279 417.712L265.428 421.494ZM269.31 420.314L268.159 416.532L268.159 416.532L269.31 420.314ZM293.155 76.1788H297.108V72.2259H293.155V76.1788ZM261.158 51.6706L265.105 51.4587L264.904 47.7176H261.158V51.6706ZM246.151 51.8223L246.091 47.8698L246.091 47.8698L246.151 51.8223ZM155.609 24.0849L151.802 25.1492L151.915 25.5534L152.11 25.9248L155.609 24.0849ZM155.578 24L159.11 22.2258L155.643 15.3216L152.072 22.1733L155.578 24ZM155.571 24.0134L152.071 25.85L155.582 32.5436L159.076 25.8406L155.571 24.0134ZM155.564 24L159.065 22.1639L155.501 15.3703L152.037 22.2149L155.564 24ZM155.533 24.0869L159.036 25.9172L159.229 25.5485L159.341 25.1478L155.533 24.0869ZM49.9711 55.6235C54.8278 55.6235 59.7891 55.6984 64.821 55.7744L64.9404 47.8694C59.9195 47.7936 54.8978 47.7176 49.9711 47.7176V55.6235ZM17.9731 80.1317C31.0446 80.1317 39.9967 75.6984 45.7307 69.7547C51.356 63.9235 53.6522 56.876 53.9184 51.881L46.0237 51.4602C45.8514 54.6932 44.2528 59.8997 40.0409 64.2657C35.9376 68.5191 29.1101 72.2259 17.9731 72.2259V80.1317ZM21.9261 398.343V76.1788H14.0202V398.343H21.9261ZM43.1018 416.535C34.3877 413.863 29.0865 410.998 25.9863 408.02C23.0689 405.218 21.9261 402.156 21.9261 398.343H14.0202C14.0202 404.13 15.9159 409.31 20.5101 413.722C24.9217 417.959 31.6055 421.279 40.7846 424.093L43.1018 416.535ZM48.144 418.076C46.441 417.556 44.7605 417.043 43.1018 416.535L40.7846 424.093C42.4483 424.603 44.1329 425.118 45.8352 425.637L48.144 418.076ZM157.727 464.992C119.723 439.912 80.1147 427.839 48.144 418.076L45.8352 425.637C77.8679 435.419 116.44 447.218 153.372 471.591L157.727 464.992ZM151.974 469.977C152.013 470.059 152.499 471.206 153.814 471.855L157.314 464.766C158.055 465.132 158.494 465.637 158.698 465.904C158.921 466.196 159.055 466.457 159.126 466.607L151.974 469.977ZM157.717 471.626C157.724 471.621 157.73 471.617 157.734 471.615C157.737 471.612 157.74 471.61 157.74 471.61C157.741 471.61 157.739 471.611 157.737 471.612C157.734 471.614 157.73 471.617 157.724 471.621L153.418 464.99C153.411 464.995 153.405 464.999 153.401 465.001C153.398 465.004 153.395 465.006 153.395 465.006C153.394 465.006 153.396 465.005 153.398 465.004C153.401 465.002 153.405 464.999 153.411 464.995L157.717 471.626ZM157.741 465.001C157.747 465.005 157.751 465.008 157.754 465.01C157.756 465.012 157.758 465.013 157.757 465.012C157.757 465.012 157.754 465.01 157.75 465.008C157.747 465.005 157.741 465.002 157.734 464.997L153.408 471.615C153.402 471.611 153.398 471.608 153.395 471.606C153.393 471.604 153.391 471.603 153.392 471.604C153.392 471.604 153.395 471.606 153.399 471.608C153.402 471.611 153.408 471.615 153.415 471.619L157.741 465.001ZM152.227 466.223C152.311 466.086 152.435 465.903 152.607 465.705C152.778 465.509 153.034 465.254 153.393 465.016L157.763 471.604C158.451 471.148 158.819 470.596 158.967 470.355L152.227 466.223ZM157.764 471.595C195.423 446.912 234.16 435.124 266.577 425.276L264.279 417.712C231.914 427.544 192.153 439.603 153.43 464.983L157.764 471.595ZM266.577 425.276C267.882 424.88 269.178 424.486 270.462 424.095L268.159 416.532C266.878 416.922 265.585 417.315 264.279 417.712L266.577 425.276ZM270.462 424.095C279.702 421.282 286.368 417.967 290.742 413.723C295.302 409.296 297.108 404.117 297.108 398.373H289.202C289.202 402.227 288.093 405.276 285.236 408.049C282.191 411.004 276.935 413.86 268.159 416.532L270.462 424.095ZM297.108 398.373V76.1788H289.202V398.373H297.108ZM293.155 72.2259C281.928 72.2259 275.108 68.5145 271.032 64.2718C266.85 59.9173 265.28 54.7137 265.105 51.4587L257.21 51.8824C257.477 56.8554 259.719 63.9059 265.331 69.7485C271.05 75.703 280.008 80.1317 293.155 80.1317V72.2259ZM261.158 47.7176C256.189 47.7176 251.136 47.7938 246.091 47.8698L246.21 55.7748C251.266 55.6986 256.259 55.6235 261.158 55.6235V47.7176ZM246.091 47.8698C227.496 48.1498 209.131 48.4071 193.53 45.1212C178.052 41.8611 165.947 35.2509 159.107 22.2451L152.11 25.9248C160.453 41.7911 175.142 49.3277 191.901 52.8574C208.536 56.3612 227.851 56.0512 246.21 55.7748L246.091 47.8698ZM152.046 25.7742C151.961 25.6057 151.906 25.4641 151.873 25.3736C151.839 25.2788 151.816 25.2012 151.802 25.1492L159.416 23.0206C159.375 22.8769 159.285 22.5728 159.11 22.2258L152.046 25.7742ZM159.076 25.8406C159.079 25.8355 159.081 25.8309 159.082 25.8289C159.084 25.8262 159.084 25.8263 159.084 25.8267L152.072 22.1733C152.07 22.1782 152.068 22.1828 152.067 22.1845C152.065 22.187 152.065 22.1869 152.066 22.1863L159.076 25.8406ZM159.071 22.1769C159.072 22.1775 159.072 22.1777 159.07 22.1751C159.07 22.1734 159.067 22.1688 159.065 22.1639L152.063 25.8361C152.063 25.8357 152.063 25.8356 152.065 25.8383C152.066 25.8403 152.068 25.8449 152.071 25.85L159.071 22.1769ZM152.037 22.2149C151.857 22.5704 151.765 22.8825 151.725 23.0259L159.341 25.1478C159.326 25.1997 159.303 25.2783 159.268 25.3746C159.235 25.4664 159.179 25.6119 159.091 25.7851L152.037 22.2149ZM64.821 55.7744C83.1268 56.0509 102.491 56.3624 119.179 52.8604C135.982 49.3342 150.739 41.801 159.036 25.9172L152.029 22.2566C145.242 35.2492 133.096 41.8618 117.555 45.1231C101.899 48.4086 83.4798 48.1494 64.9404 47.8694L64.821 55.7744Z" fill="url(#paint15_linear_981_12708)"/>
<path d="M49.8373 51.4266V50.2407H48.7129L48.6531 51.3634L49.8373 51.4266ZM65.2781 51.5962L65.2587 52.7819L65.2587 52.7819L65.2781 51.5962ZM17.9731 76.1788V74.9929H16.7873V76.1788H17.9731ZM41.9432 420.314L41.5956 421.448L41.5956 421.448L41.9432 420.314ZM46.9896 421.857L47.3359 420.723L47.3359 420.723L46.9896 421.857ZM155.55 468.292L156.622 467.786L156.481 467.485L156.203 467.302L155.55 468.292ZM155.564 468.31L155.039 469.374L155.644 469.672L156.21 469.305L155.564 468.31ZM155.571 468.306L156.22 467.313L155.573 466.89L154.925 467.311L155.571 468.306ZM155.578 468.31L154.929 469.303L155.583 469.73L156.234 469.299L155.578 468.31ZM155.597 468.289L154.947 467.297L154.724 467.443L154.586 467.669L155.597 468.289ZM265.428 421.494L265.083 420.359L265.083 420.359L265.428 421.494ZM269.31 420.314L268.965 419.179L268.965 419.179L269.31 420.314ZM293.155 76.1105H294.341V74.9246H293.155V76.1105ZM261.362 51.4266L262.546 51.363L262.486 50.2407H261.362V51.4266ZM245.82 51.5965L245.84 52.7823L245.84 52.7823L245.82 51.5965ZM155.609 24.0849L154.466 24.4042L154.5 24.5255L154.559 24.6369L155.609 24.0849ZM155.578 24L156.638 23.4677L155.597 21.3965L154.526 23.452L155.578 24ZM155.571 24.0134L154.521 24.5644L155.574 26.5725L156.623 24.5616L155.571 24.0134ZM155.564 24L156.614 23.4492L155.545 21.4111L154.506 23.4644L155.564 24ZM155.533 24.0869L156.584 24.636L156.642 24.5254L156.675 24.4052L155.533 24.0869ZM49.8373 52.6124C54.8881 52.6124 60.0494 52.6968 65.2587 52.7819L65.2975 50.4104C60.0917 50.3254 54.9108 50.2407 49.8373 50.2407V52.6124ZM17.9731 77.3647C30.3735 77.3647 38.5513 73.1203 43.68 67.7035C48.7751 62.3223 50.7885 55.8602 51.0215 51.4897L48.6531 51.3634C48.4474 55.2209 46.633 61.1349 41.9578 66.0728C37.3162 70.9751 29.7813 74.9929 17.9731 74.9929V77.3647ZM19.159 398.343V76.1788H16.7873V398.343H19.159ZM42.2908 419.18C33.414 416.459 27.6288 413.434 24.0697 410.016C20.5653 406.651 19.159 402.847 19.159 398.343H16.7873C16.7873 403.439 18.4194 407.878 22.4268 411.727C26.3794 415.523 32.5793 418.684 41.5956 421.448L42.2908 419.18ZM47.3359 420.723C45.6332 420.203 43.9512 419.689 42.2908 419.18L41.5956 421.448C43.2576 421.957 44.9407 422.471 46.6433 422.991L47.3359 420.723ZM156.203 467.302C118.574 442.469 79.3284 430.492 47.3359 420.723L46.6433 422.991C78.6543 432.766 117.589 444.661 154.897 469.281L156.203 467.302ZM154.477 468.797C154.492 468.829 154.641 469.177 155.039 469.374L156.089 467.247C156.31 467.356 156.44 467.506 156.499 467.584C156.564 467.669 156.603 467.745 156.622 467.786L154.477 468.797ZM156.21 469.305C156.215 469.302 156.219 469.299 156.219 469.299C156.221 469.298 156.219 469.299 156.217 469.3L154.925 467.311C154.92 467.314 154.916 467.317 154.916 467.317C154.914 467.318 154.916 467.317 154.918 467.316L156.21 469.305ZM156.227 467.318C156.229 467.319 156.231 467.32 156.229 467.319C156.229 467.319 156.224 467.316 156.22 467.313L154.922 469.298C154.92 469.297 154.918 469.296 154.92 469.297C154.92 469.297 154.925 469.3 154.929 469.303L156.227 467.318ZM154.586 467.669C154.609 467.631 154.644 467.58 154.693 467.523C154.742 467.467 154.817 467.392 154.922 467.322L156.234 469.299C156.444 469.159 156.559 468.988 156.608 468.909L154.586 467.669ZM156.247 469.281C194.279 444.354 233.374 432.471 265.773 422.629L265.083 420.359C232.7 430.197 193.298 442.161 154.947 467.297L156.247 469.281ZM265.773 422.629C267.078 422.232 268.373 421.839 269.656 421.448L268.965 419.179C267.683 419.57 266.389 419.963 265.083 420.359L265.773 422.629ZM269.656 421.448C278.733 418.684 284.906 415.53 288.815 411.737C292.779 407.889 294.341 403.456 294.341 398.373H291.969C291.969 402.889 290.616 406.683 287.163 410.035C283.653 413.441 277.903 416.458 268.965 419.179L269.656 421.448ZM294.341 398.373V76.1105H291.969V398.373H294.341ZM293.155 74.9246C281.26 74.9246 273.746 70.9215 269.147 66.0407C264.514 61.1247 262.754 55.2293 262.546 51.363L260.178 51.4901C260.412 55.8518 262.361 62.2984 267.421 67.6673C272.514 73.0715 280.675 77.2964 293.155 77.2964V74.9246ZM261.362 50.2407C256.246 50.2407 251.033 50.3256 245.801 50.4108L245.84 52.7823C251.075 52.697 256.269 52.6124 261.362 52.6124V50.2407ZM245.801 50.4108C227.35 50.7113 208.717 51.009 192.812 47.6804C176.944 44.3596 163.988 37.4703 156.658 23.533L154.559 24.6369C162.341 39.4343 176.075 46.6007 192.327 50.0019C208.542 53.3955 227.46 53.0816 245.84 52.7823L245.801 50.4108ZM154.518 24.5323C154.496 24.4888 154.484 24.4549 154.477 24.4376C154.471 24.4191 154.467 24.4071 154.466 24.4042L156.751 23.7656C156.731 23.6971 156.697 23.5861 156.638 23.4677L154.518 24.5323ZM156.623 24.5616C156.624 24.5585 156.626 24.5555 156.627 24.5534C156.628 24.551 156.629 24.5495 156.63 24.548L154.526 23.452C154.513 23.4777 154.531 23.4434 154.519 23.4653L156.623 24.5616ZM156.621 23.4625C156.61 23.4408 156.628 23.4747 156.614 23.4492L154.514 24.5508C154.515 24.5523 154.515 24.5538 154.517 24.5562C154.518 24.5584 154.519 24.5613 154.521 24.5644L156.621 23.4625ZM154.506 23.4644C154.445 23.5856 154.41 23.6995 154.39 23.7686L156.675 24.4052C156.674 24.4077 156.671 24.4197 156.664 24.4385C156.658 24.4559 156.645 24.4908 156.622 24.5356L154.506 23.4644ZM65.2587 52.7819C83.5799 53.0813 102.532 53.3967 118.785 50.0044C135.073 46.6049 148.85 39.4395 156.584 24.636L154.482 23.5378C147.202 37.473 134.209 44.3623 118.3 47.6827C102.357 51.0103 83.689 50.711 65.2975 50.4104L65.2587 52.7819Z" fill="white"/>
<circle cx="182.047" cy="164.329" r="68.3858" fill="url(#paint16_linear_981_12708)"/>
<circle cx="182.047" cy="164.329" r="70.3623" stroke="url(#paint17_linear_981_12708)" stroke-width="3.95294"/>
<path d="M13.9735 311.774H5.17407L13.9735 322.842V311.774Z" fill="#000215"/>
<path d="M297.155 311.774H305.954L297.155 322.842V311.774Z" fill="#000215"/>
<rect x="13.9736" y="287.266" width="283.182" height="42.6917" fill="url(#paint18_linear_981_12708)"/>
<path d="M3.54141 308.42C2.54268 307.407 0.374268 306.743 0.374268 306.743C0.374268 306.743 5.12498 292.999 5.12498 284.103C5.12498 275.208 0.374268 261.464 0.374268 261.464C0.374268 261.464 2.54268 260.8 3.54141 259.787C4.55977 258.754 5.16162 256.433 5.16162 256.433H155.564H305.967C305.967 256.433 306.569 258.754 307.587 259.787C308.586 260.8 310.754 261.464 310.754 261.464C310.754 261.464 304.42 275.112 304.42 284.103C304.42 293.095 310.754 306.743 310.754 306.743C310.754 306.743 308.586 307.407 307.587 308.42C306.569 309.453 305.967 311.774 305.967 311.774H155.564H5.16162C5.16162 311.774 4.55977 309.453 3.54141 308.42Z" fill="url(#paint19_linear_981_12708)"/>
<path d="M41.7175 271.849L15.6281 284.103C15.6281 284.103 17.2846 276.716 17.2846 271.849C17.2846 266.983 15.6281 259.595 15.6281 259.595L41.7175 271.849Z" fill="url(#paint20_linear_981_12708)"/>
<path d="M41.7175 296.358L15.6281 308.612C15.6281 308.612 17.2846 301.224 17.2846 296.357C17.2846 291.491 15.6281 284.104 15.6281 284.104L41.7175 296.358Z" fill="url(#paint21_linear_981_12708)"/>
<path d="M50.4141 284.499L15.6282 296.753C15.6282 296.753 17.8368 289.365 17.8368 284.499C17.8368 279.632 15.6282 272.245 15.6282 272.245L50.4141 284.499Z" fill="url(#paint22_linear_981_12708)"/>
<path d="M269.407 271.849L295.496 284.103C295.496 284.103 293.84 276.716 293.84 271.849C293.84 266.983 295.496 259.595 295.496 259.595L269.407 271.849Z" fill="url(#paint23_linear_981_12708)"/>
<path d="M269.407 296.358L295.496 308.612C295.496 308.612 293.84 301.224 293.84 296.357C293.84 291.491 295.496 284.104 295.496 284.104L269.407 296.358Z" fill="url(#paint24_linear_981_12708)"/>
<path d="M260.71 284.499L295.496 296.753C295.496 296.753 293.288 289.365 293.288 284.499C293.288 279.632 295.496 272.245 295.496 272.245L260.71 284.499Z" fill="url(#paint25_linear_981_12708)"/>
<defs>
<linearGradient id="paint0_linear_981_12708" x1="75.6128" y1="-5.48821" x2="73.3354" y2="435.543" gradientUnits="userSpaceOnUse">
<stop stop-color="#4634A4"/>
<stop offset="0.307292" stop-color="#080030"/>
</linearGradient>
<linearGradient id="paint1_linear_981_12708" x1="154.139" y1="16.1146" x2="153.084" y2="429.437" gradientUnits="userSpaceOnUse">
<stop stop-color="#4634A4"/>
<stop offset="0.307292" stop-color="#080030"/>
</linearGradient>
<linearGradient id="paint2_linear_981_12708" x1="249.942" y1="131.915" x2="85.949" y2="306.108" gradientUnits="userSpaceOnUse">
<stop stop-color="#001B33"/>
<stop offset="0.4375" stop-color="#EC1111"/>
<stop offset="0.6875" stop-color="#EF904B"/>
<stop offset="1" stop-color="#000E1C"/>
</linearGradient>
<linearGradient id="paint3_linear_981_12708" x1="183.299" y1="35.4014" x2="183.299" y2="293.564" gradientUnits="userSpaceOnUse">
<stop offset="0.734375" stop-color="#0C1062"/>
<stop offset="0.895833" stop-color="#898EFF"/>
<stop offset="0.973958" stop-color="white"/>
</linearGradient>
<linearGradient id="paint4_linear_981_12708" x1="316.449" y1="101.59" x2="50.1929" y2="228.697" gradientUnits="userSpaceOnUse">
<stop offset="0.614583" stop-color="#9DA1FD"/>
<stop offset="0.723958" stop-color="#0C1062"/>
<stop offset="0.895833" stop-color="#898EFF"/>
<stop offset="0.973958" stop-color="white"/>
</linearGradient>
<linearGradient id="paint5_linear_981_12708" x1="183.662" y1="-48.1966" x2="183.662" y2="377.877" gradientUnits="userSpaceOnUse">
<stop offset="0.734375" stop-color="#0C1062"/>
<stop offset="0.895833" stop-color="#898EFF"/>
<stop offset="0.973958" stop-color="white"/>
</linearGradient>
<linearGradient id="paint6_linear_981_12708" x1="403.411" y1="61.0423" x2="-36.0192" y2="270.819" gradientUnits="userSpaceOnUse">
<stop offset="0.614583" stop-color="#9DA1FD"/>
<stop offset="0.723958" stop-color="#0C1062"/>
<stop offset="0.895833" stop-color="#898EFF"/>
<stop offset="0.973958" stop-color="white"/>
</linearGradient>
<linearGradient id="paint7_linear_981_12708" x1="183.944" y1="-113.508" x2="183.944" y2="443.746" gradientUnits="userSpaceOnUse">
<stop offset="0.734375" stop-color="#0C1062"/>
<stop offset="0.895833" stop-color="#898EFF"/>
<stop offset="0.973958" stop-color="white"/>
</linearGradient>
<linearGradient id="paint8_linear_981_12708" x1="471.352" y1="29.3636" x2="-103.371" y2="303.727" gradientUnits="userSpaceOnUse">
<stop offset="0.614583" stop-color="#9DA1FD"/>
<stop offset="0.723958" stop-color="#0C1062"/>
<stop offset="0.895833" stop-color="#898EFF"/>
<stop offset="0.973958" stop-color="white"/>
</linearGradient>
<linearGradient id="paint9_linear_981_12708" x1="184.313" y1="-199.197" x2="184.313" y2="530.167" gradientUnits="userSpaceOnUse">
<stop offset="0.734375" stop-color="#0C1062"/>
<stop offset="0.895833" stop-color="#898EFF"/>
<stop offset="0.973958" stop-color="white"/>
</linearGradient>
<linearGradient id="paint10_linear_981_12708" x1="560.489" y1="-12.1991" x2="-191.739" y2="346.902" gradientUnits="userSpaceOnUse">
<stop offset="0.588542" stop-color="#0C1062"/>
<stop offset="0.614583" stop-color="#9DA1FD"/>
<stop offset="0.895833" stop-color="#898EFF"/>
<stop offset="0.973958" stop-color="white"/>
</linearGradient>
<linearGradient id="paint11_linear_981_12708" x1="183.144" y1="71.4351" x2="183.144" y2="257.223" gradientUnits="userSpaceOnUse">
<stop stop-color="white"/>
<stop offset="1" stop-color="#A6AAFF"/>
</linearGradient>
<linearGradient id="paint12_linear_981_12708" x1="278.965" y1="119.068" x2="87.353" y2="210.541" gradientUnits="userSpaceOnUse">
<stop stop-color="#A4A7FF"/>
<stop offset="1" stop-color="white"/>
</linearGradient>
<linearGradient id="paint13_linear_981_12708" x1="19.0985" y1="215.887" x2="96.2632" y2="214.754" gradientUnits="userSpaceOnUse">
<stop offset="0.677083" stop-color="#001223"/>
<stop offset="0.911775" stop-opacity="0"/>
</linearGradient>
<linearGradient id="paint14_linear_981_12708" x1="49.6235" y1="42.828" x2="17.0225" y2="436.63" gradientUnits="userSpaceOnUse">
<stop offset="0.119792" stop-color="#000E3E"/>
<stop offset="0.619792" stop-color="#E91111"/>
<stop offset="0.651042" stop-color="#050000"/>
</linearGradient>
<linearGradient id="paint15_linear_981_12708" x1="238.988" y1="77.3647" x2="-19.5335" y2="303.682" gradientUnits="userSpaceOnUse">
<stop stop-color="#BB0000"/>
<stop offset="0.260417" stop-color="#003686"/>
<stop offset="0.505208" stop-color="#B70000"/>
<stop offset="0.755208" stop-color="#002D72"/>
<stop offset="1" stop-color="#B80000"/>
</linearGradient>
<linearGradient id="paint16_linear_981_12708" x1="182.047" y1="95.9436" x2="182.047" y2="232.715" gradientUnits="userSpaceOnUse">
<stop offset="0.223958" stop-color="#08002E"/>
<stop offset="1" stop-color="#CA0008"/>
</linearGradient>
<linearGradient id="paint17_linear_981_12708" x1="229.482" y1="100.292" x2="133.426" y2="221.647" gradientUnits="userSpaceOnUse">
<stop stop-color="#000F1C"/>
<stop offset="0.260417" stop-color="#E1F1FF"/>
<stop offset="0.505208" stop-color="#000F1C"/>
<stop offset="0.755208" stop-color="#ECF6FF"/>
<stop offset="1" stop-color="#000F1C"/>
</linearGradient>
<linearGradient id="paint18_linear_981_12708" x1="155.564" y1="287.266" x2="155.564" y2="329.957" gradientUnits="userSpaceOnUse">
<stop offset="0.640625" stop-opacity="0.81"/>
<stop offset="1" stop-opacity="0"/>
</linearGradient>
<linearGradient id="paint19_linear_981_12708" x1="6.31265" y1="252.66" x2="311.968" y2="308.959" gradientUnits="userSpaceOnUse">
<stop stop-color="#00124F"/>
<stop offset="0.5" stop-color="#E61112"/>
<stop offset="1" stop-color="#00124F"/>
</linearGradient>
<linearGradient id="paint20_linear_981_12708" x1="41.7175" y1="271.849" x2="15.6281" y2="271.849" gradientUnits="userSpaceOnUse">
<stop stop-color="white"/>
<stop offset="1" stop-color="#9A1227" stop-opacity="0"/>
</linearGradient>
<linearGradient id="paint21_linear_981_12708" x1="41.7175" y1="296.358" x2="15.6281" y2="296.358" gradientUnits="userSpaceOnUse">
<stop stop-color="white"/>
<stop offset="1" stop-color="#9A1227" stop-opacity="0"/>
</linearGradient>
<linearGradient id="paint22_linear_981_12708" x1="50.4141" y1="284.499" x2="15.6282" y2="284.499" gradientUnits="userSpaceOnUse">
<stop stop-color="white"/>
<stop offset="1" stop-color="white" stop-opacity="0"/>
</linearGradient>
<linearGradient id="paint23_linear_981_12708" x1="269.407" y1="271.849" x2="295.496" y2="271.849" gradientUnits="userSpaceOnUse">
<stop stop-color="white"/>
<stop offset="1" stop-color="#9A1227" stop-opacity="0"/>
</linearGradient>
<linearGradient id="paint24_linear_981_12708" x1="269.407" y1="296.358" x2="295.496" y2="296.358" gradientUnits="userSpaceOnUse">
<stop stop-color="white"/>
<stop offset="1" stop-color="#9A1227" stop-opacity="0"/>
</linearGradient>
<linearGradient id="paint25_linear_981_12708" x1="260.71" y1="284.499" x2="295.496" y2="284.499" gradientUnits="userSpaceOnUse">
<stop stop-color="white"/>
<stop offset="1" stop-color="white" stop-opacity="0"/>
</linearGradient>
</defs>
</svg>
