<svg width="408" height="580" viewBox="0 0 408 580" fill="none" xmlns="http://www.w3.org/2000/svg">
<g id="VIP 3-2">
<path id="BACK" d="M28.5501 480.644C28.5501 480.644 20.6522 157.985 8.99998 71.2168C37.072 74.5194 71.1594 66.9264 82.1877 60.3514C148.859 87.5149 200.116 34.502 204 8V573C153.37 533.983 103.666 520.933 61.6349 508.302C38.77 501.43 28.5501 492.669 28.5501 480.644Z" fill="url(#paint0_linear_895_16348)" stroke="white" stroke-width="3"/>
<path id="BACK_2" d="M379.45 480.644C379.45 480.644 387.348 157.985 399 71.2168C370.928 74.5194 336.841 66.9264 325.812 60.3514C259.141 87.5149 207.884 34.502 204 8V573C254.63 533.983 304.334 520.933 346.365 508.302C369.23 501.43 379.45 492.669 379.45 480.644Z" fill="url(#paint1_linear_895_16348)" stroke="white" stroke-width="3"/>
<path id="back" d="M378 486.932L378.998 84C356.483 84 340.998 73.5 338.498 52.5C292.498 76.5 231.498 59.5 203.998 11.5C183.998 63 100.498 75.5 75.498 54C71.998 72.5 52.5304 83.0784 30 83V486.932C30 494.682 40.3162 506.138 55.4466 510.181C102.901 522.863 190.5 551.997 204 574.997C220 551.997 306.474 522.116 354.617 510.181C370.435 506.26 378 493.273 378 486.932Z" fill="url(#paint2_linear_895_16348)"/>
<g id="&#195;&#144;&#194;&#159;&#195;&#144;&#194;&#154;&#195;&#144;&#194;&#164;&#195;&#144;&#194;&#162;&#195;&#144;&#194;&#146; &#195;&#144;&#194;&#134;&#195;&#144;&#194;&#149;&#195;&#144;&#194;&#164;&#195;&#144;&#194;&#154;">
<path id="Vector 46" d="M203.323 132.789L222.598 138.01L236.642 123.996L250.41 138.01L269.961 132.789L275.192 152.025L294.192 157.246L289.236 176.207L303.004 190.496L288.961 204.51L294.192 223.746L275.192 228.967L269.961 247.928L250.685 242.982L236.642 256.996L222.598 242.982L203.323 247.928L198.091 228.967L178.816 223.746L184.047 204.51L170.004 190.496L184.047 176.482L178.816 157.246L198.091 152.025L203.323 132.789Z" stroke="url(#paint3_linear_895_16348)" stroke-width="3"/>
<path id="Vector 47" d="M195.838 119.773L219.462 126.172L236.673 108.996L253.546 126.172L277.507 119.773L283.919 143.347L307.205 149.746L301.13 172.984L318.004 190.496L300.793 207.672L307.205 231.246L283.919 237.645L277.507 260.882L253.884 254.82L236.673 271.996L219.462 254.82L195.838 260.882L189.426 237.645L165.803 231.246L172.215 207.672L155.004 190.496L172.215 173.32L165.803 149.746L189.426 143.347L195.838 119.773Z" stroke="url(#paint4_linear_895_16348)" stroke-width="3"/>
<path id="Vector 48" d="M188.103 106.69L215.929 114.227L236.203 93.9961L256.079 114.227L284.302 106.69L291.855 134.459L319.284 141.996L312.128 169.368L332.004 189.996L311.731 210.227L319.284 237.996L291.855 245.533L284.302 272.905L256.476 265.765L236.203 285.996L215.929 265.765L188.103 272.905L180.551 245.533L152.724 237.996L160.277 210.227L140.004 189.996L160.277 169.765L152.724 141.996L180.551 134.459L188.103 106.69Z" stroke="url(#paint5_linear_895_16348)" stroke-width="3"/>
<path id="Vector 49" d="M181.368 94.6077L213.397 103.283L236.733 79.9961L259.611 103.283L292.097 94.6077L300.791 126.57L332.362 135.246L324.126 166.752L347.004 190.496L323.669 213.783L332.362 245.746L300.791 254.422L292.097 285.928L260.068 277.709L236.733 300.996L213.397 277.709L181.368 285.928L172.675 254.422L140.646 245.746L149.339 213.783L126.004 190.496L149.339 167.209L140.646 135.246L172.675 126.57L181.368 94.6077Z" stroke="url(#paint6_linear_895_16348)" stroke-width="3"/>
<path id="Vector 50" d="M174.633 82.525L210.865 92.3391L237.263 65.9961L263.143 92.3391L299.892 82.525L309.727 118.682L345.441 128.496L336.124 164.136L362.004 190.996L335.606 217.339L345.441 253.496L309.727 263.31L299.892 298.951L263.66 289.653L237.263 315.996L210.865 289.653L174.633 298.951L164.799 263.31L128.567 253.496L138.402 217.339L112.004 190.996L138.402 164.653L128.567 128.496L164.799 118.682L174.633 82.525Z" stroke="url(#paint7_linear_895_16348)" stroke-width="3"/>
<path id="Vector 51" d="M167.397 70.3101L207.542 81.1841L236.791 51.9961L265.466 81.1841L306.184 70.3101L317.081 110.372L356.652 121.246L346.329 160.736L375.004 190.496L345.756 219.684L356.652 259.746L317.081 270.62L306.184 310.11L266.039 299.808L236.791 328.996L207.542 299.808L167.397 310.11L156.501 270.62L116.356 259.746L127.252 219.684L98.0039 190.496L127.252 161.308L116.356 121.246L156.501 110.372L167.397 70.3101Z" stroke="url(#paint8_linear_895_16348)" stroke-width="3"/>
<path id="Vector 52" d="M159.913 57.2937L204.406 69.3454L229.27 44.6738L235.002 46.9998L268.602 69.3454L313.731 57.2937L325.807 101.694L369.664 113.746L358.223 157.513L378.923 178.996V201.554L357.588 222.845L369.664 267.246L325.807 279.298L313.731 323.064L269.238 311.647L236.822 343.996L204.406 311.647L159.913 323.064L147.836 279.298L103.344 267.246L115.42 222.845L83.0039 190.496L115.42 158.147L103.344 113.746L147.836 101.694L159.913 57.2937Z" stroke="url(#paint9_linear_895_16348)" stroke-width="3"/>
<path id="Vector 53" d="M226.004 32.4961L201.269 57.5064L166.502 48.4995L158.502 53.9995H150.002L139.172 93.0168L90.331 106.246L103.588 154.986L68.0039 190.496L103.588 226.006L90.331 274.746L139.172 287.975L152.428 336.019L201.269 323.486L236.853 358.996L272.437 323.486L321.277 336.019L334.534 287.975L380.504 275.343V266.757L369.42 226.006L378.004 217.44V162.474L370.118 154.289L378.429 122.496L377.504 104.825L334.534 93.0168L324.502 58.4995L275.002 60.9995L256.502 55.9995" stroke="url(#paint10_linear_895_16348)" stroke-width="3"/>
<path id="Vector 54" d="M333.002 53.9995L342.679 84.9176L377.504 94.4873L376.504 286.78L342.679 296.074L328.321 348.11L275.422 334.535L236.882 372.996L198.341 334.535L145.443 348.11L131.085 296.074L78.1861 281.746L92.5443 228.957L54.0039 190.496L92.5443 152.035L78.1861 99.2461L131.085 84.9176L138.002 58.9995L160.002 53.4995L176.002 39.9995L198.341 46.4568L219.004 25.4961" stroke="url(#paint11_linear_895_16348)" stroke-width="3"/>
<path id="Vector 55" d="M66.1737 93.2466L123.42 77.8189L128.502 61C137.499 58.5034 160.502 56.5 185.502 33.5L196.205 36.4077L209.502 23C232.002 39 262.502 79 337.502 52.5C346.502 75 350.502 78 379.002 86.5L380.62 297.461L352.406 305.175L336.867 361.202L279.621 346.586L237.913 387.997L196.205 346.586L138.958 361.202L123.42 305.175L66.1737 289.747L81.712 232.908L40.0039 191.497L81.712 150.086L66.1737 93.2466Z" stroke="url(#paint12_linear_895_16348)" stroke-width="3"/>
<path id="Vector 56" d="M98.0034 72.4966L114.756 68.1092L118.002 63.5C133.42 62.3333 171.102 51.9 189.502 29.5L195.503 24.9966L204.002 14C257.502 82 336.502 57 336.502 57C342.002 84.5 379.502 85.5 379.502 85.5L376.504 308.53L361.132 312.732L344.414 373.015L282.82 357.289L237.944 401.845L193.068 357.289L131.474 373.015L114.756 312.732L53.1609 296.133L69.8793 234.977L47.4414 212.699L98.0034 73.4966" stroke="url(#paint13_linear_895_16348)" stroke-width="3"/>
<path id="Vector 57" d="M58.047 237.047L40.1484 302.519L106.091 320.29L123.99 384.828L189.932 367.992L237.975 415.693L286.018 367.992L351.961 384.828L369.859 320.29L379.504 317.653" stroke="url(#paint14_linear_895_16348)" stroke-width="3"/>
<path id="Vector 58" d="M378.586 326.848L359.507 395.641L289.217 377.695L238.006 428.541L186.795 377.695L116.505 395.641L97.4263 326.848L41.5039 311.777" stroke="url(#paint15_linear_895_16348)" stroke-width="3"/>
<path id="Vector 59" d="M51.4414 325.348L88.7603 335.405L109.02 408.453L183.657 389.397L238.036 443.388L292.414 389.397L367.052 408.453L380.074 361.496" stroke="url(#paint16_linear_895_16348)" stroke-width="3"/>
<path id="Vector 60" d="M80.0977 343.963L101.536 421.266L180.522 401.1L238.068 458.237L295.615 401.1L374.6 421.266L375.646 417.496" stroke="url(#paint17_linear_895_16348)" stroke-width="3"/>
<path id="Vector 61" d="M71.4336 353.52L94.0526 435.079L177.386 413.803L238.1 474.085L298.815 413.803L382.148 435.079" stroke="url(#paint18_linear_895_16348)" stroke-width="3"/>
<path id="Vector 62" d="M60.7656 362.078L84.5648 447.892L172.246 425.505L236.128 488.933L300.01 425.505L377.002 445.162" stroke="url(#paint19_linear_895_16348)" stroke-width="3"/>
<path id="Vector 63" d="M52.1016 371.637L77.0809 461.706L169.11 438.209L236.159 504.782L303.209 438.209L380.002 457.816" stroke="url(#paint20_linear_895_16348)" stroke-width="3"/>
<path id="Vector 64" d="M43.4375 380.195L69.5969 474.519L165.974 449.912L236.191 519.63L306.409 449.912L378.003 468.191" stroke="url(#paint21_linear_895_16348)" stroke-width="3"/>
<path id="Vector 65" d="M34.7734 388.752L62.1129 487.331L162.837 461.614L236.222 534.477L309.608 461.614L376.503 478.693" stroke="url(#paint22_linear_895_16348)" stroke-width="3"/>
<path id="Vector 66" d="M26.1094 397.309L54.6291 500.144L67.5038 496.856L159.702 473.317L236.255 549.325L312.807 473.317L378.004 489.963" stroke="url(#paint23_linear_895_16348)" stroke-width="3"/>
<g id="Vector 67">
<path id="Vector" d="M156.565 485.021L54.5039 511.079C94.1706 520.718 179.304 546.597 202.504 572.997L228.05 555.997L156.565 485.021Z" stroke="url(#paint24_linear_895_16348)" stroke-width="3"/>
<path id="Vector_2" d="M316.005 485.021L258.621 541.997L359.003 507.997L370.715 498.99L316.005 485.021Z" stroke="url(#paint25_linear_895_16348)" stroke-width="3"/>
</g>
<g id="Vector 68">
<path id="Vector_3" d="M153.428 496.723L77.0039 516.235C116.004 528.655 195.804 557.496 203.004 573.496L218.666 561.496L153.428 496.723Z" stroke="url(#paint26_linear_895_16348)" stroke-width="3"/>
<path id="Vector_4" d="M319.204 496.723L281.664 533.996L358.003 506.629L319.204 496.723Z" stroke="url(#paint27_linear_895_16348)" stroke-width="3"/>
</g>
<g id="Vector 69">
<path id="Vector_5" d="M150.292 507.426L95.5039 521.414C129.837 534.441 199.304 562.796 202.504 571.996L210.004 566.713L150.292 507.426Z" stroke="url(#paint28_linear_895_16348)" stroke-width="3"/>
<path id="Vector_6" d="M322.405 507.426L306.723 522.996L343.505 512.813L322.405 507.426Z" stroke="url(#paint29_linear_895_16348)" stroke-width="3"/>
</g>
<path id="Vector 70" d="M116.004 527.082L147.155 519.129L186.004 557.701" stroke="url(#paint30_linear_895_16348)" stroke-width="3"/>
<path id="Vector 71" d="M139.004 534.112L144.018 532.832L150.227 538.996" stroke="url(#paint31_linear_895_16348)" stroke-width="3"/>
</g>
<path id="icon bar" d="M30 487.241C30 494.998 42.5807 506.463 61.0325 510.51C79.4308 514.545 104.441 520.789 130 527.996V61.4961L118.498 61.9995C86.2602 72.6533 52.2172 90.4751 30 90.4117V487.241Z" fill="url(#paint32_linear_895_16348)"/>
<path id="icon bar_2" d="M30 486.935C30 494.685 40.0646 506.141 54.826 510.184C69.5447 514.216 89.553 520.455 110 527.656V61.5037C99.9722 63.8522 81.2176 57.5 71.9493 53C66.5835 74 42.8386 84.0494 30 84.0036V486.935Z" fill="url(#paint33_linear_895_16348)"/>
<g id="STAR">
<path id="Rectangle 8" d="M357.728 191.365L237.363 71L116.998 191.365L237.363 311.73L357.728 191.365Z" fill="url(#paint34_linear_895_16348)"/>
<path id="Rectangle 9" d="M348.984 191.365L237.363 79.7441L125.742 191.365L237.363 302.986L348.984 191.365Z" fill="url(#paint35_linear_895_16348)"/>
<path id="Rectangle 10" d="M341.604 251.547L297.547 87.125L133.125 131.182L177.182 295.603L341.604 251.547Z" fill="url(#paint36_linear_895_16348)"/>
<path id="Rectangle 11" d="M334.032 247.174L293.176 94.6973L140.699 135.553L181.555 288.031L334.032 247.174Z" fill="url(#paint37_linear_895_16348)"/>
<path id="Rectangle 12" d="M341.605 131.182L177.184 87.125L133.127 251.547L297.549 295.603L341.605 131.182Z" fill="url(#paint38_linear_895_16348)"/>
<path id="Rectangle 13" d="M334.032 135.553L181.555 94.6973L140.699 247.174L293.176 288.031L334.032 135.553Z" fill="url(#paint39_linear_895_16348)"/>
<g id="smsllSTAR">
<path id="Rectangle 3" d="M342.791 191.365L237.363 85.9375L131.936 191.365L237.363 296.793L342.791 191.365Z" fill="url(#paint40_linear_895_16348)"/>
<path id="Rectangle 2" d="M335.132 191.365L237.363 93.5957L139.594 191.365L237.363 289.133L335.132 191.365Z" fill="url(#paint41_linear_895_16348)"/>
<path id="Rectangle 4" d="M328.667 244.079L290.078 100.062L146.061 138.652L184.65 282.669L328.667 244.079Z" fill="url(#paint42_linear_895_16348)"/>
<path id="Rectangle 5" d="M322.036 240.25L286.25 106.695L152.695 142.481L188.481 276.036L322.036 240.25Z" fill="url(#paint43_linear_895_16348)"/>
<path id="Rectangle 6" d="M328.669 138.652L184.652 100.062L146.063 244.079L290.08 282.669L328.669 138.652Z" fill="url(#paint44_linear_895_16348)"/>
<path id="Rectangle 7" d="M322.035 142.481L188.48 106.695L152.695 240.25L286.249 276.036L322.035 142.481Z" fill="url(#paint45_linear_895_16348)"/>
</g>
</g>
<path id="Union" d="M70.2672 52.5L72.2229 47.8983L65.2672 44.9422V52.5H70.2672ZM203.99 11.0163L208.435 13.3048L208.508 13.164L208.571 13.019L203.99 11.0163ZM30 84V79H25V84H30ZM63.8331 510.362L62.3964 515.151L62.4181 515.158L62.4399 515.164L63.8331 510.362ZM203.999 573L200.514 576.586L203.999 579.973L207.484 576.586L203.999 573ZM344.166 510.362L345.56 515.164L345.581 515.158L345.603 515.151L344.166 510.362ZM378 84H383V79H378V84ZM337.728 52.5H342.728V44.9422L335.772 47.8983L337.728 52.5ZM204.006 11.0163L199.425 13.0196L199.488 13.1643L199.561 13.3048L204.006 11.0163ZM203.998 11L208.376 8.58418L203.919 0.507682L199.585 8.6507L203.998 11ZM203.998 11.0004L199.584 13.3497L203.998 21.642L208.412 13.3497L203.998 11.0004ZM203.998 11L208.412 8.6507L204.077 0.506444L199.62 8.58474L203.998 11ZM68.3115 57.1017C106.478 73.3224 138.065 69.4424 161.915 57.7804C185.547 46.2247 201.291 27.1832 208.435 13.3048L199.544 8.72786C193.252 20.9516 178.972 38.3082 157.522 48.7969C136.289 59.1792 107.733 62.9899 72.2229 47.8983L68.3115 57.1017ZM30 89C63.3813 89 75.2672 64.9138 75.2672 52.5H65.2672C65.2672 59.9283 57.3359 79 30 79V89ZM35 475.563V84H25V475.563H35ZM65.2698 505.573C53.5018 502.043 46.1551 499.253 41.5614 495.119C37.423 491.394 35 486.037 35 475.563H25C25 487.709 27.8936 496.271 34.8718 502.552C41.3947 508.422 50.9645 511.722 62.3964 515.151L65.2698 505.573ZM207.484 569.415C200.546 562.671 190.336 556.018 178.659 549.711C166.915 543.369 153.401 537.227 139.642 531.575C112.126 520.273 83.3554 510.82 65.2264 505.56L62.4399 515.164C80.2921 520.344 108.716 529.683 135.843 540.825C149.405 546.396 162.575 552.39 173.907 558.51C185.305 564.666 194.563 570.801 200.514 576.586L207.484 569.415ZM207.484 576.586C213.435 570.801 222.693 564.666 234.091 558.51C245.424 552.39 258.593 546.396 272.156 540.825C299.283 529.683 327.707 520.344 345.56 515.164L342.773 505.56C324.644 510.82 295.873 520.273 268.357 531.575C254.597 537.227 241.083 543.369 229.339 549.711C217.662 556.018 207.452 562.671 200.514 569.415L207.484 576.586ZM345.603 515.151C357.035 511.722 366.605 508.422 373.128 502.552C380.106 496.272 383 487.709 383 475.564H373C373 486.037 370.577 491.394 366.438 495.119C361.845 499.253 354.498 502.043 342.73 505.573L345.603 515.151ZM383 475.564V84H373V475.564H383ZM378 79C350.663 79 342.728 59.9275 342.728 52.5H332.728C332.728 64.9146 344.619 89 378 89V79ZM335.772 47.8983C300.262 62.9899 271.706 59.1792 250.474 48.7969C229.024 38.3083 214.745 20.9517 208.452 8.72783L199.561 13.3048C206.705 27.1832 222.448 46.2246 246.081 57.7804C269.931 69.4424 301.517 73.3224 339.684 57.1017L335.772 47.8983ZM199.621 13.4158C199.536 13.2622 199.472 13.1264 199.425 13.0196L208.587 9.01308C208.535 8.89411 208.466 8.7474 208.376 8.58418L199.621 13.4158ZM208.412 13.3497C208.428 13.3193 208.442 13.2919 208.454 13.2684C208.466 13.245 208.476 13.2248 208.484 13.2089C208.492 13.1932 208.498 13.1804 208.502 13.1726C208.504 13.1686 208.505 13.1654 208.506 13.1634C208.507 13.1624 208.507 13.1616 208.507 13.1611C208.507 13.1609 208.507 13.1607 208.507 13.1606C208.507 13.1605 208.508 13.1604 208.508 13.1604C208.508 13.1604 208.508 13.1604 208.508 13.1604C208.508 13.1604 208.508 13.1604 208.508 13.1604C208.508 13.1604 208.508 13.1604 208.508 13.1604C208.508 13.1601 208.507 13.1616 208.506 13.1634C208.505 13.1653 208.504 13.1685 208.502 13.1725C208.498 13.1803 208.492 13.193 208.484 13.2087C208.476 13.2245 208.466 13.2447 208.454 13.2681C208.442 13.2915 208.428 13.3189 208.412 13.3493L199.585 8.6507C199.568 8.68115 199.554 8.70853 199.542 8.73201C199.53 8.75542 199.52 8.77565 199.513 8.79153C199.505 8.80725 199.499 8.82002 199.495 8.82783C199.493 8.83181 199.491 8.83503 199.49 8.83699C199.49 8.83799 199.49 8.83879 199.489 8.83929C199.489 8.83954 199.489 8.83974 199.489 8.83987C199.489 8.83993 199.489 8.83998 199.489 8.84001C199.489 8.84003 199.489 8.84004 199.489 8.84005C199.489 8.84005 199.489 8.84006 199.489 8.84006C199.489 8.84006 199.489 8.84006 199.489 8.84006C199.489 8.84033 199.49 8.83881 199.49 8.83704C199.491 8.8351 199.493 8.8319 199.495 8.82794C199.499 8.82017 199.505 8.80744 199.512 8.79175C199.52 8.77591 199.53 8.75572 199.542 8.73234C199.554 8.7089 199.568 8.68156 199.584 8.65115L208.412 13.3497ZM208.412 8.65115C208.412 8.651 208.412 8.65085 208.412 8.6507L199.584 13.3493C199.584 13.3494 199.584 13.3496 199.584 13.3497L208.412 8.65115ZM199.62 8.58474C199.53 8.74799 199.461 8.89473 199.409 9.01369L208.571 13.019C208.525 13.1258 208.461 13.2616 208.376 13.4153L199.62 8.58474Z" fill="url(#paint46_linear_895_16348)"/>
<path id="Union_2" d="M70.2672 52.5L70.8539 51.1195L68.7672 50.2327V52.5H70.2672ZM203.768 11.4444L205.096 12.1408L205.221 11.9026L205.255 11.6359L203.768 11.4444ZM30 84V82.5H28.5V84H30ZM63.8331 510.362L63.4021 511.799L63.4151 511.803L63.8331 510.362ZM203.834 572.841L205.328 572.703L205.277 572.148L204.875 571.761L203.834 572.841ZM203.861 573L202.795 574.055L203.842 575.113L204.908 574.075L203.861 573ZM203.93 572.933L204.973 571.855L203.929 570.844L202.885 571.856L203.93 572.933ZM203.999 573L202.953 574.076L204.018 575.111L205.064 574.056L203.999 573ZM204.026 572.84L202.984 571.761L202.583 572.148L202.532 572.703L204.026 572.84ZM344.208 510.362L344.627 511.803L344.64 511.799L344.208 510.362ZM377.997 84H379.497V82.5H377.997V84ZM337.779 52.5H339.279V50.2315L337.191 51.1198L337.779 52.5ZM204.092 11.4454L202.605 11.6369L202.639 11.9033L202.763 12.1413L204.092 11.4454ZM203.998 11L205.311 10.2747L203.951 7.81252L202.664 10.3138L203.998 11ZM203.93 11.1329L202.597 11.8216L203.929 14.3983L205.262 11.8224L203.93 11.1329ZM203.861 11L205.196 10.3146L203.908 7.80901L202.548 10.2755L203.861 11ZM69.6805 53.8805C106.714 69.6197 137.11 65.892 160.003 54.8183C182.831 43.7755 198.107 25.475 205.096 12.1408L202.439 10.7481C195.706 23.5941 180.869 41.3923 158.696 52.1177C136.588 62.8122 107.096 66.5222 70.8539 51.1195L69.6805 53.8805ZM30 85.5C61.2654 85.5 71.7672 63.1689 71.7672 52.5H68.7672C68.7672 61.6732 59.4518 82.5 30 82.5V85.5ZM31.5 475.563V84H28.5V475.563H31.5ZM64.2641 508.926C52.6138 505.431 44.489 502.462 39.22 497.72C34.0877 493.101 31.5 486.622 31.5 475.563H28.5C28.5 487.124 31.2289 494.564 37.2132 499.95C43.0608 505.213 51.8526 508.334 63.4021 511.799L64.2641 508.926ZM204.875 571.761C191.67 559.031 165.389 545.925 138.138 534.741C110.811 523.526 82.245 514.143 64.2511 508.922L63.4151 511.803C81.3261 517 109.788 526.35 136.999 537.517C164.286 548.715 190.053 561.639 202.793 573.921L204.875 571.761ZM202.341 572.978C202.346 573.039 202.355 573.12 202.368 573.201C202.375 573.239 202.388 573.312 202.412 573.398C202.424 573.44 202.447 573.514 202.486 573.603C202.515 573.667 202.605 573.863 202.795 574.055L204.927 571.945C205.03 572.049 205.098 572.149 205.139 572.215C205.181 572.283 205.21 572.344 205.229 572.387C205.266 572.47 205.287 572.538 205.296 572.572C205.316 572.642 205.325 572.694 205.327 572.705C205.332 572.733 205.331 572.739 205.328 572.703L202.341 572.978ZM204.908 574.075C204.929 574.053 204.951 574.033 204.974 574.01L202.885 571.856C202.863 571.878 202.839 571.902 202.814 571.925L204.908 574.075ZM205.045 571.924C205.021 571.901 204.997 571.878 204.973 571.855L202.886 574.011C202.909 574.032 202.931 574.054 202.953 574.076L205.045 571.924ZM202.532 572.703C202.529 572.739 202.528 572.733 202.533 572.705C202.535 572.695 202.543 572.643 202.563 572.573C202.573 572.538 202.594 572.47 202.631 572.387C202.65 572.344 202.679 572.284 202.721 572.215C202.762 572.149 202.83 572.049 202.934 571.944L205.064 574.056C205.255 573.863 205.345 573.667 205.374 573.602C205.413 573.514 205.436 573.44 205.448 573.397C205.472 573.312 205.485 573.239 205.492 573.201C205.505 573.12 205.514 573.039 205.519 572.978L202.532 572.703ZM205.067 573.92C217.791 561.639 243.613 548.716 270.956 537.517C298.223 526.35 326.739 517 344.627 511.803L343.79 508.922C325.821 514.142 297.202 523.526 269.819 534.741C242.514 545.924 216.174 559.031 202.984 571.761L205.067 573.92ZM344.64 511.799C356.174 508.334 364.955 505.213 370.795 499.949C376.772 494.564 379.497 487.123 379.497 475.564H376.497C376.497 486.623 373.912 493.102 368.787 497.721C363.525 502.462 355.412 505.431 343.777 508.926L344.64 511.799ZM379.497 475.564V84H376.497V475.564H379.497ZM377.997 82.5C348.587 82.5 339.279 61.6749 339.279 52.5H336.279C336.279 63.1672 346.77 85.5 377.997 85.5V82.5ZM337.191 51.1198C301 66.5216 271.457 62.8128 249.287 52.1174C227.053 41.3912 212.146 23.5924 205.421 10.7496L202.763 12.1413C209.748 25.4788 225.096 43.7781 247.983 54.8194C270.934 65.8916 301.38 69.6199 338.366 53.8802L337.191 51.1198ZM202.685 11.7253C202.65 11.6617 202.628 11.6087 202.615 11.5761C202.601 11.542 202.593 11.5153 202.588 11.4994C202.579 11.4693 202.576 11.4547 202.578 11.4643C202.58 11.4718 202.583 11.4897 202.588 11.5205C202.593 11.5508 202.598 11.5893 202.605 11.6369L205.58 11.2539C205.562 11.1154 205.541 10.975 205.514 10.8459C205.497 10.7662 205.446 10.5179 205.311 10.2747L202.685 11.7253ZM205.262 11.8224C205.286 11.7768 205.309 11.7314 205.332 11.6862L202.664 10.3138C202.642 10.3571 202.62 10.4004 202.598 10.4435L205.262 11.8224ZM205.262 10.4443C205.24 10.4011 205.218 10.3579 205.196 10.3146L202.527 11.6854C202.55 11.7306 202.574 11.7761 202.597 11.8216L205.262 10.4443ZM202.548 10.2755C202.414 10.5183 202.363 10.7661 202.346 10.8457C202.319 10.9745 202.298 11.1147 202.28 11.253L205.255 11.6359C205.261 11.5884 205.267 11.5501 205.272 11.5199C205.277 11.4891 205.28 11.4713 205.282 11.4639C205.284 11.4543 205.281 11.4689 205.272 11.499C205.267 11.5149 205.258 11.5416 205.245 11.5756C205.232 11.6081 205.21 11.661 205.175 11.7245L202.548 10.2755Z" fill="white"/>
<g id="Ellipse 2">
<mask id="path-49-inside-1_895_16348" fill="white">
<path d="M237.5 281C288.034 281 329 240.034 329 189.5C329 138.966 288.034 98 237.5 98C186.966 98 146 138.966 146 189.5C146 240.034 186.966 281 237.5 281Z"/>
</mask>
<path d="M237.5 281C288.034 281 329 240.034 329 189.5C329 138.966 288.034 98 237.5 98C186.966 98 146 138.966 146 189.5C146 240.034 186.966 281 237.5 281Z" stroke="url(#paint47_linear_895_16348)" stroke-width="10" mask="url(#path-49-inside-1_895_16348)"/>
</g>
<g id="&#195;&#144;&#194;&#191;&#195;&#145;&#194;&#128;&#195;&#145;&#194;&#143;&#195;&#144;&#194;&#188;&#195;&#144;&#194;&#190;&#195;&#144;&#194;&#186;&#195;&#145;&#194;&#131;&#195;&#145;&#194;&#130;&#195;&#144;&#194;&#189;&#195;&#144;&#194;&#184;&#195;&#144;&#194;&#186;">
<path id="Vector 1" d="M25 376H15L25 390V376Z" fill="#350906"/>
<path id="Vector 2" d="M383 376H393L383 390V376Z" fill="#350906"/>
<rect id="Rectangle 2_2" x="25" y="345" width="358" height="54" fill="url(#paint48_linear_895_16348)"/>
<path id="Vector 3" d="M407 306C395.059 327.037 393 354.333 393 376C393 376 232.178 376 221 376C210 376 203.999 387 203.999 387C203.999 387 198 376 187 376C176 376 15 376 15 376C15 354.333 11.9463 327.541 1 306H186.905C186.905 306 192.555 313.594 203.999 313.594C215.443 313.594 220.999 306 220.999 306H407Z" fill="url(#paint49_linear_895_16348)"/>
</g>
<circle id="Ellipse 1" cx="237.5" cy="189.5" r="86.5" fill="url(#paint50_linear_895_16348)"/>
</g>
<defs>
<linearGradient id="paint0_linear_895_16348" x1="205.805" y1="9.48554" x2="207.101" y2="525.459" gradientUnits="userSpaceOnUse">
<stop stop-color="#8C1F1A"/>
<stop offset="0.307292" stop-color="#320F0D"/>
</linearGradient>
<linearGradient id="paint1_linear_895_16348" x1="202.195" y1="9.48554" x2="200.899" y2="525.459" gradientUnits="userSpaceOnUse">
<stop stop-color="#8C1F1A"/>
<stop offset="0.307292" stop-color="#320F0D"/>
</linearGradient>
<linearGradient id="paint2_linear_895_16348" x1="371.499" y1="22.5293" x2="45.2501" y2="545.139" gradientUnits="userSpaceOnUse">
<stop offset="0.0176419" stop-color="#872B28"/>
<stop offset="0.25" stop-color="#D14B43"/>
<stop offset="0.5" stop-color="#770D09"/>
<stop offset="0.755208" stop-color="#D14B43"/>
<stop offset="1" stop-color="#760C09"/>
</linearGradient>
<linearGradient id="paint3_linear_895_16348" x1="236.504" y1="123.996" x2="236.504" y2="256.996" gradientUnits="userSpaceOnUse">
<stop stop-color="#A01007"/>
<stop offset="0.151042" stop-color="#F5CAC7"/>
<stop offset="0.489583" stop-color="#7A150F"/>
<stop offset="0.739583" stop-color="#FFA39D"/>
<stop offset="1" stop-color="#93150D"/>
</linearGradient>
<linearGradient id="paint4_linear_895_16348" x1="236.504" y1="108.996" x2="236.504" y2="271.996" gradientUnits="userSpaceOnUse">
<stop stop-color="#A01007"/>
<stop offset="0.151042" stop-color="#F5CAC7"/>
<stop offset="0.489583" stop-color="#7A150F"/>
<stop offset="0.739583" stop-color="#FFA39D"/>
<stop offset="1" stop-color="#93150D"/>
</linearGradient>
<linearGradient id="paint5_linear_895_16348" x1="236.004" y1="93.9961" x2="236.004" y2="285.996" gradientUnits="userSpaceOnUse">
<stop stop-color="#A01007"/>
<stop offset="0.151042" stop-color="#F5CAC7"/>
<stop offset="0.489583" stop-color="#7A150F"/>
<stop offset="0.739583" stop-color="#FFA39D"/>
<stop offset="1" stop-color="#93150D"/>
</linearGradient>
<linearGradient id="paint6_linear_895_16348" x1="236.504" y1="79.9961" x2="236.504" y2="300.996" gradientUnits="userSpaceOnUse">
<stop stop-color="#A01007"/>
<stop offset="0.151042" stop-color="#F5CAC7"/>
<stop offset="0.489583" stop-color="#7A150F"/>
<stop offset="0.739583" stop-color="#FFA39D"/>
<stop offset="1" stop-color="#93150D"/>
</linearGradient>
<linearGradient id="paint7_linear_895_16348" x1="237.004" y1="65.9961" x2="237.004" y2="315.996" gradientUnits="userSpaceOnUse">
<stop stop-color="#A01007"/>
<stop offset="0.151042" stop-color="#F5CAC7"/>
<stop offset="0.489583" stop-color="#7A150F"/>
<stop offset="0.739583" stop-color="#FFA39D"/>
<stop offset="1" stop-color="#93150D"/>
</linearGradient>
<linearGradient id="paint8_linear_895_16348" x1="236.504" y1="51.9961" x2="236.504" y2="328.996" gradientUnits="userSpaceOnUse">
<stop stop-color="#A01007"/>
<stop offset="0.151042" stop-color="#F5CAC7"/>
<stop offset="0.489583" stop-color="#7A150F"/>
<stop offset="0.739583" stop-color="#FFA39D"/>
<stop offset="1" stop-color="#93150D"/>
</linearGradient>
<linearGradient id="paint9_linear_895_16348" x1="230.963" y1="44.6738" x2="230.963" y2="343.996" gradientUnits="userSpaceOnUse">
<stop stop-color="#A01007"/>
<stop offset="0.151042" stop-color="#F5CAC7"/>
<stop offset="0.489583" stop-color="#7A150F"/>
<stop offset="0.739583" stop-color="#FFA39D"/>
<stop offset="1" stop-color="#93150D"/>
</linearGradient>
<linearGradient id="paint10_linear_895_16348" x1="224.254" y1="32.4961" x2="224.254" y2="358.996" gradientUnits="userSpaceOnUse">
<stop stop-color="#A01007"/>
<stop offset="0.151042" stop-color="#F5CAC7"/>
<stop offset="0.489583" stop-color="#7A150F"/>
<stop offset="0.739583" stop-color="#FFA39D"/>
<stop offset="1" stop-color="#93150D"/>
</linearGradient>
<linearGradient id="paint11_linear_895_16348" x1="215.754" y1="25.4961" x2="215.754" y2="372.996" gradientUnits="userSpaceOnUse">
<stop stop-color="#A01007"/>
<stop offset="0.151042" stop-color="#F5CAC7"/>
<stop offset="0.489583" stop-color="#7A150F"/>
<stop offset="0.739583" stop-color="#FFA39D"/>
<stop offset="1" stop-color="#93150D"/>
</linearGradient>
<linearGradient id="paint12_linear_895_16348" x1="210.312" y1="23" x2="210.312" y2="387.997" gradientUnits="userSpaceOnUse">
<stop stop-color="#A01007"/>
<stop offset="0.151042" stop-color="#F5CAC7"/>
<stop offset="0.489583" stop-color="#7A150F"/>
<stop offset="0.739583" stop-color="#FFA39D"/>
<stop offset="1" stop-color="#93150D"/>
</linearGradient>
<linearGradient id="paint13_linear_895_16348" x1="213.472" y1="14" x2="213.472" y2="401.845" gradientUnits="userSpaceOnUse">
<stop stop-color="#A01007"/>
<stop offset="0.151042" stop-color="#F5CAC7"/>
<stop offset="0.489583" stop-color="#7A150F"/>
<stop offset="0.739583" stop-color="#FFA39D"/>
<stop offset="1" stop-color="#93150D"/>
</linearGradient>
<linearGradient id="paint14_linear_895_16348" x1="209.826" y1="237.047" x2="209.826" y2="415.693" gradientUnits="userSpaceOnUse">
<stop stop-color="#A01007"/>
<stop offset="0.151042" stop-color="#F5CAC7"/>
<stop offset="0.489583" stop-color="#7A150F"/>
<stop offset="0.739583" stop-color="#FFA39D"/>
<stop offset="1" stop-color="#93150D"/>
</linearGradient>
<linearGradient id="paint15_linear_895_16348" x1="210.045" y1="311.777" x2="210.045" y2="428.541" gradientUnits="userSpaceOnUse">
<stop stop-color="#A01007"/>
<stop offset="0.151042" stop-color="#F5CAC7"/>
<stop offset="0.489583" stop-color="#7A150F"/>
<stop offset="0.739583" stop-color="#FFA39D"/>
<stop offset="1" stop-color="#93150D"/>
</linearGradient>
<linearGradient id="paint16_linear_895_16348" x1="215.758" y1="325.348" x2="215.758" y2="443.388" gradientUnits="userSpaceOnUse">
<stop stop-color="#A01007"/>
<stop offset="0.151042" stop-color="#F5CAC7"/>
<stop offset="0.489583" stop-color="#7A150F"/>
<stop offset="0.739583" stop-color="#FFA39D"/>
<stop offset="1" stop-color="#93150D"/>
</linearGradient>
<linearGradient id="paint17_linear_895_16348" x1="227.872" y1="343.963" x2="227.872" y2="458.237" gradientUnits="userSpaceOnUse">
<stop stop-color="#A01007"/>
<stop offset="0.151042" stop-color="#F5CAC7"/>
<stop offset="0.489583" stop-color="#7A150F"/>
<stop offset="0.739583" stop-color="#FFA39D"/>
<stop offset="1" stop-color="#93150D"/>
</linearGradient>
<linearGradient id="paint18_linear_895_16348" x1="226.791" y1="353.52" x2="226.791" y2="474.085" gradientUnits="userSpaceOnUse">
<stop stop-color="#A01007"/>
<stop offset="0.151042" stop-color="#F5CAC7"/>
<stop offset="0.489583" stop-color="#7A150F"/>
<stop offset="0.739583" stop-color="#FFA39D"/>
<stop offset="1" stop-color="#93150D"/>
</linearGradient>
<linearGradient id="paint19_linear_895_16348" x1="218.884" y1="362.078" x2="218.884" y2="488.933" gradientUnits="userSpaceOnUse">
<stop stop-color="#A01007"/>
<stop offset="0.151042" stop-color="#F5CAC7"/>
<stop offset="0.489583" stop-color="#7A150F"/>
<stop offset="0.739583" stop-color="#FFA39D"/>
<stop offset="1" stop-color="#93150D"/>
</linearGradient>
<linearGradient id="paint20_linear_895_16348" x1="216.052" y1="371.637" x2="216.052" y2="504.782" gradientUnits="userSpaceOnUse">
<stop stop-color="#A01007"/>
<stop offset="0.151042" stop-color="#F5CAC7"/>
<stop offset="0.489583" stop-color="#7A150F"/>
<stop offset="0.739583" stop-color="#FFA39D"/>
<stop offset="1" stop-color="#93150D"/>
</linearGradient>
<linearGradient id="paint21_linear_895_16348" x1="210.72" y1="380.195" x2="210.72" y2="519.63" gradientUnits="userSpaceOnUse">
<stop stop-color="#A01007"/>
<stop offset="0.151042" stop-color="#F5CAC7"/>
<stop offset="0.489583" stop-color="#7A150F"/>
<stop offset="0.739583" stop-color="#FFA39D"/>
<stop offset="1" stop-color="#93150D"/>
</linearGradient>
<linearGradient id="paint22_linear_895_16348" x1="205.638" y1="388.752" x2="205.638" y2="534.477" gradientUnits="userSpaceOnUse">
<stop stop-color="#A01007"/>
<stop offset="0.151042" stop-color="#F5CAC7"/>
<stop offset="0.489583" stop-color="#7A150F"/>
<stop offset="0.739583" stop-color="#FFA39D"/>
<stop offset="1" stop-color="#93150D"/>
</linearGradient>
<linearGradient id="paint23_linear_895_16348" x1="202.057" y1="397.309" x2="202.057" y2="549.325" gradientUnits="userSpaceOnUse">
<stop stop-color="#A01007"/>
<stop offset="0.151042" stop-color="#F5CAC7"/>
<stop offset="0.489583" stop-color="#7A150F"/>
<stop offset="0.739583" stop-color="#FFA39D"/>
<stop offset="1" stop-color="#93150D"/>
</linearGradient>
<linearGradient id="paint24_linear_895_16348" x1="141.277" y1="485.021" x2="141.277" y2="572.997" gradientUnits="userSpaceOnUse">
<stop stop-color="#A01007"/>
<stop offset="0.151042" stop-color="#F5CAC7"/>
<stop offset="0.489583" stop-color="#7A150F"/>
<stop offset="0.739583" stop-color="#FFA39D"/>
<stop offset="1" stop-color="#93150D"/>
</linearGradient>
<linearGradient id="paint25_linear_895_16348" x1="314.668" y1="485.021" x2="314.668" y2="541.997" gradientUnits="userSpaceOnUse">
<stop stop-color="#A01007"/>
<stop offset="0.151042" stop-color="#F5CAC7"/>
<stop offset="0.489583" stop-color="#7A150F"/>
<stop offset="0.739583" stop-color="#FFA39D"/>
<stop offset="1" stop-color="#93150D"/>
</linearGradient>
<linearGradient id="paint26_linear_895_16348" x1="147.835" y1="496.723" x2="147.835" y2="573.496" gradientUnits="userSpaceOnUse">
<stop stop-color="#A01007"/>
<stop offset="0.151042" stop-color="#F5CAC7"/>
<stop offset="0.489583" stop-color="#7A150F"/>
<stop offset="0.739583" stop-color="#FFA39D"/>
<stop offset="1" stop-color="#93150D"/>
</linearGradient>
<linearGradient id="paint27_linear_895_16348" x1="319.834" y1="496.723" x2="319.834" y2="533.996" gradientUnits="userSpaceOnUse">
<stop stop-color="#A01007"/>
<stop offset="0.151042" stop-color="#F5CAC7"/>
<stop offset="0.489583" stop-color="#7A150F"/>
<stop offset="0.739583" stop-color="#FFA39D"/>
<stop offset="1" stop-color="#93150D"/>
</linearGradient>
<linearGradient id="paint28_linear_895_16348" x1="152.754" y1="507.426" x2="152.754" y2="571.996" gradientUnits="userSpaceOnUse">
<stop stop-color="#A01007"/>
<stop offset="0.151042" stop-color="#F5CAC7"/>
<stop offset="0.489583" stop-color="#7A150F"/>
<stop offset="0.739583" stop-color="#FFA39D"/>
<stop offset="1" stop-color="#93150D"/>
</linearGradient>
<linearGradient id="paint29_linear_895_16348" x1="325.114" y1="507.426" x2="325.114" y2="522.996" gradientUnits="userSpaceOnUse">
<stop stop-color="#A01007"/>
<stop offset="0.151042" stop-color="#F5CAC7"/>
<stop offset="0.489583" stop-color="#7A150F"/>
<stop offset="0.739583" stop-color="#FFA39D"/>
<stop offset="1" stop-color="#93150D"/>
</linearGradient>
<linearGradient id="paint30_linear_895_16348" x1="151.004" y1="519.129" x2="151.004" y2="557.701" gradientUnits="userSpaceOnUse">
<stop stop-color="#A01007"/>
<stop offset="0.151042" stop-color="#F5CAC7"/>
<stop offset="0.489583" stop-color="#7A150F"/>
<stop offset="0.739583" stop-color="#FFA39D"/>
<stop offset="1" stop-color="#93150D"/>
</linearGradient>
<linearGradient id="paint31_linear_895_16348" x1="144.615" y1="532.832" x2="144.615" y2="538.996" gradientUnits="userSpaceOnUse">
<stop stop-color="#A01007"/>
<stop offset="0.151042" stop-color="#F5CAC7"/>
<stop offset="0.489583" stop-color="#7A150F"/>
<stop offset="0.739583" stop-color="#FFA39D"/>
<stop offset="1" stop-color="#93150D"/>
</linearGradient>
<linearGradient id="paint32_linear_895_16348" x1="30" y1="250.496" x2="125" y2="248.996" gradientUnits="userSpaceOnUse">
<stop offset="0.677083"/>
<stop offset="1" stop-opacity="0"/>
</linearGradient>
<linearGradient id="paint33_linear_895_16348" x1="70" y1="57.4695" x2="70" y2="527.656" gradientUnits="userSpaceOnUse">
<stop offset="0.09375" stop-color="#B81F15"/>
<stop offset="1"/>
</linearGradient>
<linearGradient id="paint34_linear_895_16348" x1="280.707" y1="110.533" x2="204.211" y2="277.149" gradientUnits="userSpaceOnUse">
<stop stop-color="#FCB6B0"/>
<stop offset="1" stop-color="#CE5950"/>
</linearGradient>
<linearGradient id="paint35_linear_895_16348" x1="277.564" y1="110.533" x2="182.205" y2="265.622" gradientUnits="userSpaceOnUse">
<stop stop-color="#CD756D"/>
<stop offset="1" stop-color="#8E352E"/>
</linearGradient>
<linearGradient id="paint36_linear_895_16348" x1="280.708" y1="108.436" x2="191.637" y2="268.765" gradientUnits="userSpaceOnUse">
<stop stop-color="#F8B3AD"/>
<stop offset="1" stop-color="#D35D54"/>
</linearGradient>
<linearGradient id="paint37_linear_895_16348" x1="268.659" y1="104.244" x2="192.686" y2="267.717" gradientUnits="userSpaceOnUse">
<stop stop-color="#D07D76"/>
<stop offset="1" stop-color="#763F3A"/>
</linearGradient>
<linearGradient id="paint38_linear_895_16348" x1="281.759" y1="112.628" x2="183.256" y2="261.954" gradientUnits="userSpaceOnUse">
<stop stop-color="#F9B5AF"/>
<stop offset="1" stop-color="#D15D54"/>
</linearGradient>
<linearGradient id="paint39_linear_895_16348" x1="277.566" y1="106.34" x2="189.542" y2="267.717" gradientUnits="userSpaceOnUse">
<stop stop-color="#E16F65"/>
<stop offset="1" stop-color="#7B3F3A"/>
</linearGradient>
<linearGradient id="paint40_linear_895_16348" x1="275.329" y1="120.565" x2="208.325" y2="266.503" gradientUnits="userSpaceOnUse">
<stop stop-color="#F4B5AF"/>
<stop offset="1" stop-color="#C95F56"/>
</linearGradient>
<linearGradient id="paint41_linear_895_16348" x1="272.575" y1="120.563" x2="189.05" y2="256.407" gradientUnits="userSpaceOnUse">
<stop stop-color="#CF7972"/>
<stop offset="1" stop-color="#7D3C37"/>
</linearGradient>
<linearGradient id="paint42_linear_895_16348" x1="275.33" y1="118.729" x2="197.312" y2="259.161" gradientUnits="userSpaceOnUse">
<stop stop-color="#F7B6B1"/>
<stop offset="1" stop-color="#D15A50"/>
</linearGradient>
<linearGradient id="paint43_linear_895_16348" x1="264.776" y1="115.058" x2="198.231" y2="258.244" gradientUnits="userSpaceOnUse">
<stop stop-color="#CE736A"/>
<stop offset="1" stop-color="#7D413D"/>
</linearGradient>
<linearGradient id="paint44_linear_895_16348" x1="276.249" y1="122.401" x2="189.971" y2="253.196" gradientUnits="userSpaceOnUse">
<stop stop-color="#F8B5AF"/>
<stop offset="1" stop-color="#D25F56"/>
</linearGradient>
<linearGradient id="paint45_linear_895_16348" x1="272.576" y1="116.894" x2="195.477" y2="258.244" gradientUnits="userSpaceOnUse">
<stop stop-color="#D2766E"/>
<stop offset="1" stop-color="#793B37"/>
</linearGradient>
<linearGradient id="paint46_linear_895_16348" x1="63.9026" y1="532.5" x2="345.812" y2="40.697" gradientUnits="userSpaceOnUse">
<stop stop-color="#97241C"/>
<stop offset="0.260417" stop-color="#FFBFBB"/>
<stop offset="0.494792" stop-color="#931D16"/>
<stop offset="0.755208" stop-color="#FFBDB9"/>
<stop offset="1" stop-color="#941E17"/>
</linearGradient>
<linearGradient id="paint47_linear_895_16348" x1="291.475" y1="120.104" x2="186.096" y2="257.868" gradientUnits="userSpaceOnUse">
<stop stop-color="#8E2D27"/>
<stop offset="0.260417" stop-color="#F9BCB8"/>
<stop offset="0.505208" stop-color="#991B13"/>
<stop offset="0.755208" stop-color="#F9BCB8"/>
<stop offset="1" stop-color="#8D2822"/>
</linearGradient>
<linearGradient id="paint48_linear_895_16348" x1="204" y1="345" x2="204" y2="399" gradientUnits="userSpaceOnUse">
<stop offset="0.640625" stop-opacity="0.81"/>
<stop offset="1" stop-opacity="0"/>
</linearGradient>
<linearGradient id="paint49_linear_895_16348" x1="174.006" y1="520.158" x2="378.916" y2="274.296" gradientUnits="userSpaceOnUse">
<stop offset="0.0001" stop-color="#940A00"/>
<stop offset="0.203125" stop-color="#DF746C"/>
<stop offset="0.5" stop-color="#9E0B00"/>
<stop offset="0.807292" stop-color="#DF746C"/>
<stop offset="1" stop-color="#9E0B00"/>
</linearGradient>
<linearGradient id="paint50_linear_895_16348" x1="-62" y1="92.5" x2="-71.5204" y2="333.109" gradientUnits="userSpaceOnUse">
<stop stop-color="#280200"/>
<stop offset="0.5" stop-color="#B21E15"/>
<stop offset="1" stop-color="#BF2016"/>
</linearGradient>
</defs>
</svg>
