<svg width="408" height="582" viewBox="0 0 408 582" fill="none" xmlns="http://www.w3.org/2000/svg">
<g id="VIP 3-1">
<path id="BACK" d="M28.5501 476.644C28.5501 476.644 20.6522 153.985 8.99998 67.2168C37.072 70.5194 71.1594 62.9264 82.1877 56.3514C148.859 83.5149 200.116 30.502 204 4V569C153.37 529.983 103.666 516.933 61.6349 504.302C38.77 497.43 28.5501 488.669 28.5501 476.644Z" fill="url(#paint0_linear_895_16347)" stroke="#4B3B1B" stroke-width="3"/>
<path id="BACK_2" d="M379.45 476.644C379.45 476.644 387.348 153.985 399 67.2168C370.928 70.5194 336.841 62.9264 325.812 56.3514C259.141 83.5149 207.884 30.502 204 4V569C254.63 529.983 304.334 516.933 346.365 504.302C369.23 497.43 379.45 488.669 379.45 476.644Z" fill="url(#paint1_linear_895_16347)" stroke="#4B3B1B" stroke-width="3"/>
<path id="back" d="M378 487.932L378.998 85C356.483 85 340.998 74.5 338.498 53.5C292.498 77.5 231.498 60.5 203.998 12.5C183.998 64 100.498 76.5 75.498 55C71.998 73.5 52.5304 84.0784 30 84V487.932C30 495.682 40.3162 507.138 55.4466 511.181C102.901 523.863 190.5 552.997 204 575.997C220 552.997 306.474 523.116 354.617 511.181C370.435 507.26 378 494.273 378 487.932Z" fill="url(#paint2_linear_895_16347)"/>
<g id="&#195;&#144;&#194;&#159;&#195;&#144;&#194;&#154;&#195;&#144;&#194;&#164;&#195;&#144;&#194;&#162;&#195;&#144;&#194;&#146; &#195;&#144;&#194;&#134;&#195;&#144;&#194;&#149;&#195;&#144;&#194;&#164;&#195;&#144;&#194;&#154;">
<path id="Vector 46" d="M203.323 133.789L222.598 139.01L236.642 124.996L250.41 139.01L269.961 133.789L275.192 153.025L294.192 158.246L289.236 177.207L303.004 191.496L288.961 205.51L294.192 224.746L275.192 229.967L269.961 248.928L250.685 243.982L236.642 257.996L222.598 243.982L203.323 248.928L198.091 229.967L178.816 224.746L184.047 205.51L170.004 191.496L184.047 177.482L178.816 158.246L198.091 153.025L203.323 133.789Z" stroke="url(#paint3_linear_895_16347)" stroke-width="3"/>
<path id="Vector 47" d="M195.838 120.773L219.462 127.172L236.673 109.996L253.546 127.172L277.507 120.773L283.919 144.347L307.205 150.746L301.13 173.984L318.004 191.496L300.793 208.672L307.205 232.246L283.919 238.645L277.507 261.882L253.884 255.82L236.673 272.996L219.462 255.82L195.838 261.882L189.426 238.645L165.803 232.246L172.215 208.672L155.004 191.496L172.215 174.32L165.803 150.746L189.426 144.347L195.838 120.773Z" stroke="url(#paint4_linear_895_16347)" stroke-width="3"/>
<path id="Vector 48" d="M188.103 107.69L215.929 115.227L236.203 94.9961L256.079 115.227L284.302 107.69L291.855 135.459L319.284 142.996L312.128 170.368L332.004 190.996L311.731 211.227L319.284 238.996L291.855 246.533L284.302 273.905L256.476 266.765L236.203 286.996L215.929 266.765L188.103 273.905L180.551 246.533L152.724 238.996L160.277 211.227L140.004 190.996L160.277 170.765L152.724 142.996L180.551 135.459L188.103 107.69Z" stroke="url(#paint5_linear_895_16347)" stroke-width="3"/>
<path id="Vector 49" d="M181.368 95.6077L213.397 104.283L236.733 80.9961L259.611 104.283L292.097 95.6077L300.791 127.57L332.362 136.246L324.126 167.752L347.004 191.496L323.669 214.783L332.362 246.746L300.791 255.422L292.097 286.928L260.068 278.709L236.733 301.996L213.397 278.709L181.368 286.928L172.675 255.422L140.646 246.746L149.339 214.783L126.004 191.496L149.339 168.209L140.646 136.246L172.675 127.57L181.368 95.6077Z" stroke="url(#paint6_linear_895_16347)" stroke-width="3"/>
<path id="Vector 50" d="M174.633 83.525L210.865 93.3391L237.263 66.9961L263.143 93.3391L299.892 83.525L309.727 119.682L345.441 129.496L336.124 165.136L362.004 191.996L335.606 218.339L345.441 254.496L309.727 264.31L299.892 299.951L263.66 290.653L237.263 316.996L210.865 290.653L174.633 299.951L164.799 264.31L128.567 254.496L138.402 218.339L112.004 191.996L138.402 165.653L128.567 129.496L164.799 119.682L174.633 83.525Z" stroke="url(#paint7_linear_895_16347)" stroke-width="3"/>
<path id="Vector 51" d="M167.397 71.3101L207.542 82.1841L236.791 52.9961L265.466 82.1841L306.184 71.3101L317.081 111.372L356.652 122.246L346.329 161.736L375.004 191.496L345.756 220.684L356.652 260.746L317.081 271.62L306.184 311.11L266.039 300.808L236.791 329.996L207.542 300.808L167.397 311.11L156.501 271.62L116.356 260.746L127.252 220.684L98.0039 191.496L127.252 162.308L116.356 122.246L156.501 111.372L167.397 71.3101Z" stroke="url(#paint8_linear_895_16347)" stroke-width="3"/>
<path id="Vector 52" d="M159.913 58.2937L204.406 70.3454L229.27 45.6738L235.002 47.9998L268.602 70.3454L313.731 58.2937L325.807 102.694L369.664 114.746L358.223 158.513L378.923 179.996V202.554L357.588 223.845L369.664 268.246L325.807 280.298L313.731 324.064L269.238 312.647L236.822 344.996L204.406 312.647L159.913 324.064L147.836 280.298L103.344 268.246L115.42 223.845L83.0039 191.496L115.42 159.147L103.344 114.746L147.836 102.694L159.913 58.2937Z" stroke="url(#paint9_linear_895_16347)" stroke-width="3"/>
<path id="Vector 53" d="M226.004 33.4961L201.269 58.5064L166.502 49.4995L158.502 54.9995H150.002L139.172 94.0168L90.331 107.246L103.588 155.986L68.0039 191.496L103.588 227.006L90.331 275.746L139.172 288.975L152.428 337.019L201.269 324.486L236.853 359.996L272.437 324.486L321.277 337.019L334.534 288.975L380.504 276.343V267.757L369.42 227.006L378.004 218.44V163.474L370.118 155.289L378.429 123.496L377.504 105.825L334.534 94.0168L324.502 59.4995L275.002 61.9995L256.502 56.9995" stroke="url(#paint10_linear_895_16347)" stroke-width="3"/>
<path id="Vector 54" d="M333.002 54.9995L342.679 85.9176L377.504 95.4873L376.504 287.78L342.679 297.074L328.321 349.11L275.422 335.535L236.882 373.996L198.341 335.535L145.443 349.11L131.085 297.074L78.1861 282.746L92.5443 229.957L54.0039 191.496L92.5443 153.035L78.1861 100.246L131.085 85.9176L138.002 59.9995L160.002 54.4995L176.002 40.9995L198.341 47.4568L219.004 26.4961" stroke="url(#paint11_linear_895_16347)" stroke-width="3"/>
<path id="Vector 55" d="M66.1737 94.2466L123.42 78.8189L128.502 62C137.499 59.5034 160.502 57.5 185.502 34.5L196.205 37.4077L209.502 24C232.002 40 262.502 80 337.502 53.5C346.502 76 350.502 79 379.002 87.5L380.62 298.461L352.406 306.175L336.867 362.202L279.621 347.586L237.913 388.997L196.205 347.586L138.958 362.202L123.42 306.175L66.1737 290.747L81.712 233.908L40.0039 192.497L81.712 151.086L66.1737 94.2466Z" stroke="url(#paint12_linear_895_16347)" stroke-width="3"/>
<path id="Vector 56" d="M98.0034 73.4966L114.756 69.1092L118.002 64.5C133.42 63.3333 171.102 52.9 189.502 30.5L195.503 25.9966L204.002 15C257.502 83 336.502 58 336.502 58C342.002 85.5 379.502 86.5 379.502 86.5L376.504 309.53L361.132 313.732L344.414 374.015L282.82 358.289L237.944 402.845L193.068 358.289L131.474 374.015L114.756 313.732L53.1609 297.133L69.8793 235.977L47.4414 213.699L98.0034 74.4966" stroke="url(#paint13_linear_895_16347)" stroke-width="3"/>
<path id="Vector 57" d="M58.047 238.047L40.1484 303.519L106.091 321.29L123.99 385.828L189.932 368.992L237.975 416.693L286.018 368.992L351.961 385.828L369.859 321.29L379.504 318.653" stroke="url(#paint14_linear_895_16347)" stroke-width="3"/>
<path id="Vector 58" d="M378.586 327.848L359.507 396.641L289.217 378.695L238.006 429.541L186.795 378.695L116.505 396.641L97.4263 327.848L41.5039 312.777" stroke="url(#paint15_linear_895_16347)" stroke-width="3"/>
<path id="Vector 59" d="M51.4414 326.348L88.7603 336.405L109.02 409.453L183.657 390.397L238.036 444.388L292.414 390.397L367.052 409.453L380.074 362.496" stroke="url(#paint16_linear_895_16347)" stroke-width="3"/>
<path id="Vector 60" d="M80.0977 344.963L101.536 422.266L180.522 402.1L238.068 459.237L295.615 402.1L374.6 422.266L375.646 418.496" stroke="url(#paint17_linear_895_16347)" stroke-width="3"/>
<path id="Vector 61" d="M71.4336 354.52L94.0526 436.079L177.386 414.803L238.1 475.085L298.815 414.803L382.148 436.079" stroke="url(#paint18_linear_895_16347)" stroke-width="3"/>
<path id="Vector 62" d="M60.7656 363.078L84.5648 448.892L172.246 426.505L236.128 489.933L300.01 426.505L377.002 446.162" stroke="url(#paint19_linear_895_16347)" stroke-width="3"/>
<path id="Vector 63" d="M52.1016 372.637L77.0809 462.706L169.11 439.209L236.159 505.782L303.209 439.209L380.002 458.816" stroke="url(#paint20_linear_895_16347)" stroke-width="3"/>
<path id="Vector 64" d="M43.4375 381.195L69.5969 475.519L165.974 450.912L236.191 520.63L306.409 450.912L378.003 469.191" stroke="url(#paint21_linear_895_16347)" stroke-width="3"/>
<path id="Vector 65" d="M34.7734 389.752L62.1129 488.331L162.837 462.614L236.222 535.477L309.608 462.614L376.503 479.693" stroke="url(#paint22_linear_895_16347)" stroke-width="3"/>
<path id="Vector 66" d="M26.1094 398.309L54.6291 501.144L67.5038 497.856L159.702 474.317L236.255 550.325L312.807 474.317L378.004 490.963" stroke="url(#paint23_linear_895_16347)" stroke-width="3"/>
<g id="Vector 67">
<path id="Vector" d="M156.565 486.021L54.5039 512.079C94.1706 521.718 179.304 547.597 202.504 573.997L228.05 556.997L156.565 486.021Z" stroke="url(#paint24_linear_895_16347)" stroke-width="3"/>
<path id="Vector_2" d="M316.005 486.021L258.621 542.997L359.003 508.997L370.715 499.99L316.005 486.021Z" stroke="url(#paint25_linear_895_16347)" stroke-width="3"/>
</g>
<g id="Vector 68">
<path id="Vector_3" d="M153.428 497.723L77.0039 517.235C116.004 529.655 195.804 558.496 203.004 574.496L218.666 562.496L153.428 497.723Z" stroke="url(#paint26_linear_895_16347)" stroke-width="3"/>
<path id="Vector_4" d="M319.204 497.723L281.664 534.996L358.003 507.629L319.204 497.723Z" stroke="url(#paint27_linear_895_16347)" stroke-width="3"/>
</g>
<g id="Vector 69">
<path id="Vector_5" d="M150.292 508.426L95.5039 522.414C129.837 535.441 199.304 563.796 202.504 572.996L210.004 567.713L150.292 508.426Z" stroke="url(#paint28_linear_895_16347)" stroke-width="3"/>
<path id="Vector_6" d="M322.405 508.426L306.723 523.996L343.505 513.813L322.405 508.426Z" stroke="url(#paint29_linear_895_16347)" stroke-width="3"/>
</g>
<path id="Vector 70" d="M116.004 528.082L147.155 520.129L186.004 558.701" stroke="url(#paint30_linear_895_16347)" stroke-width="3"/>
<path id="Vector 71" d="M139.004 535.112L144.018 533.832L150.227 539.996" stroke="url(#paint31_linear_895_16347)" stroke-width="3"/>
</g>
<path id="icon bar" d="M30 488.241C30 495.998 42.5807 507.463 61.0325 511.51C79.4308 515.545 104.441 521.789 130 528.996V62.4961L118.498 62.9995C86.2602 73.6533 52.2172 91.4751 30 91.4117V488.241Z" fill="url(#paint32_linear_895_16347)"/>
<path id="icon bar_2" d="M30 487.935C30 495.685 40.0646 507.141 54.826 511.184C69.5447 515.216 89.553 521.455 110 528.656V62.5037C99.9722 64.8522 81.2176 58.5 71.9493 54C66.5835 75 42.8386 85.0494 30 85.0036V487.935Z" fill="url(#paint33_linear_895_16347)"/>
<g id="STAR">
<path id="Rectangle 8" d="M357.726 192.359L237.363 71.9961L117 192.359L237.363 312.722L357.726 192.359Z" fill="url(#paint34_linear_895_16347)"/>
<path id="Rectangle 9" d="M348.982 192.359L237.363 80.7402L125.744 192.359L237.363 303.978L348.982 192.359Z" fill="url(#paint35_linear_895_16347)"/>
<path id="Rectangle 10" d="M341.599 252.54L297.543 88.1211L133.124 132.177L177.18 296.596L341.599 252.54Z" fill="url(#paint36_linear_895_16347)"/>
<path id="Rectangle 11" d="M334.027 248.168L293.172 95.6934L140.697 136.549L181.553 289.023L334.027 248.168Z" fill="url(#paint37_linear_895_16347)"/>
<path id="Rectangle 12" d="M341.599 132.177L177.18 88.1211L133.124 252.54L297.543 296.596L341.599 132.177Z" fill="url(#paint38_linear_895_16347)"/>
<path id="Rectangle 13" d="M334.029 136.549L181.555 95.6934L140.699 248.168L293.174 289.023L334.029 136.549Z" fill="url(#paint39_linear_895_16347)"/>
<g id="smsllSTAR">
<path id="Rectangle 3" d="M342.789 192.359L237.363 86.9336L131.937 192.359L237.363 297.785L342.789 192.359Z" fill="url(#paint40_linear_895_16347)"/>
<path id="Rectangle 2" d="M335.13 192.359L237.363 94.5918L139.596 192.359L237.363 290.126L335.13 192.359Z" fill="url(#paint41_linear_895_16347)"/>
<path id="Rectangle 4" d="M328.667 245.073L290.078 101.059L146.064 139.647L184.652 283.661L328.667 245.073Z" fill="url(#paint42_linear_895_16347)"/>
<path id="Rectangle 5" d="M322.031 241.244L286.246 107.691L152.694 143.477L188.479 277.029L322.031 241.244Z" fill="url(#paint43_linear_895_16347)"/>
<path id="Rectangle 6" d="M328.663 139.647L184.648 101.059L146.06 245.073L290.074 283.661L328.663 139.647Z" fill="url(#paint44_linear_895_16347)"/>
<path id="Rectangle 7" d="M322.033 143.475L188.48 107.689L152.695 241.242L286.248 277.027L322.033 143.475Z" fill="url(#paint45_linear_895_16347)"/>
</g>
</g>
<g id="Ellipse 2">
<mask id="path-47-inside-1_895_16347" fill="white">
<path d="M237.5 282C288.034 282 329 241.034 329 190.5C329 139.966 288.034 99 237.5 99C186.966 99 146 139.966 146 190.5C146 241.034 186.966 282 237.5 282Z"/>
</mask>
<path d="M237.5 282C288.034 282 329 241.034 329 190.5C329 139.966 288.034 99 237.5 99C186.966 99 146 139.966 146 190.5C146 241.034 186.966 282 237.5 282Z" stroke="url(#paint46_linear_895_16347)" stroke-width="10" mask="url(#path-47-inside-1_895_16347)"/>
</g>
<path id="Union" d="M70.2672 53.5L72.2229 48.8983L65.2672 45.9422V53.5H70.2672ZM203.99 12.0171L208.435 14.3056L208.512 14.1569L208.578 14.0035L203.99 12.0171ZM30 85V80H25V85H30ZM63.8331 511.362L62.3964 516.151L62.4181 516.158L62.4399 516.164L63.8331 511.362ZM203.999 574L200.514 577.586L204.165 581.134L207.647 577.42L203.999 574ZM204 573.999L200.515 570.414L200.234 570.686L200 570.999L204 573.999ZM344.167 511.362L345.56 516.164L345.581 516.158L345.603 516.151L344.167 511.362ZM378 85H383V80H378V85ZM337.728 53.5H342.728V45.9422L335.773 48.8983L337.728 53.5ZM204.007 12.0171L199.418 14.0041L199.485 14.1572L199.561 14.3056L204.007 12.0171ZM203.998 12L208.377 9.58631L203.633 0.979863L199.469 9.88152L203.998 12ZM203.998 12.0005L199.469 14.119L203.998 23.8015L208.527 14.119L203.998 12.0005ZM203.998 12L208.527 9.88152L204.363 0.978506L199.619 9.58685L203.998 12ZM68.3115 58.1017C106.478 74.3223 138.064 70.4425 161.914 58.7807C185.547 47.2253 201.291 28.1841 208.435 14.3056L199.544 9.72855C193.251 21.9524 178.972 39.3088 157.521 49.7972C136.288 60.1793 107.732 63.9898 72.2229 48.8983L68.3115 58.1017ZM30 90C63.3813 90 75.2672 65.9138 75.2672 53.5H65.2672C65.2672 60.9283 57.336 80 30 80V90ZM35 476.563V85H25V476.563H35ZM65.2698 506.573C53.5018 503.043 46.1552 500.253 41.5614 496.119C37.423 492.394 35 487.037 35 476.563H25C25 488.709 27.8936 497.271 34.8718 503.552C41.3947 509.422 50.9646 512.722 62.3964 516.151L65.2698 506.573ZM207.484 570.415C200.546 563.671 190.336 557.018 178.659 550.711C166.916 544.369 153.401 538.227 139.642 532.575C112.126 521.273 83.3554 511.82 65.2264 506.56L62.4399 516.164C80.2922 521.344 108.716 530.683 135.843 541.825C149.405 547.396 162.575 553.39 173.907 559.51C185.305 565.666 194.563 571.801 200.514 577.586L207.484 570.415ZM200 570.999C200.167 570.776 200.32 570.612 200.404 570.525C200.433 570.495 200.469 570.459 200.449 570.479C200.441 570.487 200.401 570.527 200.351 570.58L207.647 577.42C207.597 577.473 207.557 577.513 207.55 577.52C207.53 577.54 207.565 577.505 207.594 577.475C207.679 577.387 207.832 577.223 208 576.999L200 570.999ZM207.485 577.585C213.436 571.801 222.694 565.665 234.092 559.51C245.424 553.39 258.594 547.396 272.157 541.825C299.284 530.683 327.707 521.344 345.56 516.164L342.773 506.56C324.644 511.82 295.874 521.272 268.357 532.575C254.598 538.227 241.084 544.369 229.34 550.711C217.663 557.017 207.453 563.671 200.515 570.414L207.485 577.585ZM345.603 516.151C357.035 512.722 366.605 509.422 373.128 503.552C380.106 497.272 383 488.709 383 476.564H373C373 487.037 370.577 492.394 366.439 496.119C361.845 500.253 354.498 503.043 342.73 506.573L345.603 516.151ZM383 476.564V85H373V476.564H383ZM378 80C350.663 80 342.728 60.9275 342.728 53.5H332.728C332.728 65.9146 344.619 90 378 90V80ZM335.773 48.8983C300.263 63.9898 271.707 60.1793 250.474 49.7972C229.024 39.3088 214.745 21.9525 208.452 9.72853L199.561 14.3056C206.706 28.184 222.449 47.2252 246.082 58.7807C269.931 70.4425 301.517 74.3223 339.684 58.1017L335.773 48.8983ZM199.62 14.4137C199.532 14.2541 199.466 14.1133 199.418 14.0041L208.595 10.0301C208.542 9.90806 208.471 9.75596 208.377 9.58631L199.62 14.4137ZM208.527 14.119C208.514 14.1477 208.502 14.173 208.491 14.194C208.481 14.215 208.472 14.2329 208.465 14.2466C208.458 14.2601 208.453 14.2711 208.45 14.2776C208.448 14.281 208.446 14.2837 208.446 14.2853C208.445 14.2868 208.444 14.2881 208.444 14.2878C208.444 14.2878 208.444 14.2878 208.444 14.2878C208.444 14.2878 208.444 14.2878 208.444 14.2878C208.444 14.2878 208.444 14.2878 208.444 14.2878C208.444 14.2878 208.444 14.2877 208.444 14.2877C208.444 14.2876 208.445 14.2874 208.445 14.2872C208.445 14.2868 208.445 14.2861 208.446 14.2852C208.446 14.2836 208.448 14.2809 208.45 14.2775C208.453 14.2709 208.459 14.2599 208.465 14.2463C208.472 14.2326 208.481 14.2147 208.492 14.1937C208.502 14.1726 208.514 14.1473 208.527 14.1185L199.469 9.88152C199.483 9.85274 199.495 9.82746 199.505 9.80644C199.516 9.78545 199.524 9.76759 199.531 9.75392C199.538 9.74035 199.544 9.72943 199.547 9.72288C199.549 9.71952 199.55 9.71682 199.551 9.71519C199.552 9.7137 199.552 9.71242 199.552 9.71265C199.552 9.71265 199.552 9.71265 199.552 9.71265C199.552 9.71265 199.552 9.71266 199.552 9.71266C199.552 9.71267 199.552 9.71268 199.552 9.71269C199.552 9.71272 199.552 9.71276 199.552 9.71282C199.552 9.71292 199.552 9.71309 199.552 9.71331C199.552 9.71372 199.551 9.7144 199.551 9.71525C199.55 9.7169 199.549 9.71963 199.547 9.72301C199.544 9.7296 199.538 9.74056 199.531 9.75418C199.524 9.76789 199.515 9.78579 199.505 9.80682C199.495 9.82788 199.483 9.85321 199.469 9.88203L208.527 14.119ZM208.527 9.88203C208.5 9.8245 208.476 9.77447 208.455 9.73346C208.434 9.69251 208.416 9.65792 208.401 9.63173C208.387 9.60571 208.376 9.58485 208.369 9.57242C208.366 9.56604 208.363 9.56089 208.361 9.55778C208.36 9.55619 208.359 9.5549 208.359 9.55413C208.359 9.55373 208.358 9.5534 208.358 9.55321C208.358 9.55311 208.358 9.55303 208.358 9.55298C208.358 9.55295 208.358 9.55293 208.358 9.55292C208.358 9.55291 208.358 9.55291 208.358 9.5529C208.358 9.5529 208.358 9.5529 208.358 9.5529C208.358 9.55248 208.359 9.5549 208.361 9.55772C208.363 9.5608 208.365 9.56593 208.369 9.57229C208.376 9.58468 208.387 9.6055 208.401 9.63148C208.415 9.65763 208.434 9.69217 208.454 9.73308C208.475 9.77405 208.5 9.82403 208.527 9.88152L199.469 14.1185C199.496 14.176 199.521 14.226 199.541 14.267C199.562 14.308 199.581 14.3426 199.595 14.3688C199.609 14.3948 199.62 14.4156 199.627 14.4281C199.631 14.4345 199.633 14.4396 199.635 14.4427C199.636 14.4443 199.637 14.4456 199.637 14.4464C199.637 14.4468 199.638 14.4471 199.638 14.4473C199.638 14.4474 199.638 14.4475 199.638 14.4475C199.638 14.4475 199.638 14.4476 199.638 14.4476C199.638 14.4476 199.638 14.4476 199.638 14.4476C199.638 14.4476 199.638 14.4476 199.638 14.4476C199.638 14.448 199.637 14.4456 199.635 14.4428C199.634 14.4397 199.631 14.4346 199.627 14.4282C199.62 14.4158 199.609 14.395 199.595 14.369C199.581 14.3429 199.562 14.3083 199.542 14.2674C199.521 14.2264 199.496 14.1764 199.469 14.119L208.527 9.88203ZM199.619 9.58685C199.525 9.75653 199.454 9.90866 199.401 10.0307L208.578 14.0035C208.531 14.1128 208.465 14.2535 208.377 14.4132L199.619 9.58685Z" fill="url(#paint47_linear_895_16347)"/>
<path id="Union_2" d="M70.2672 53.5L70.8539 52.1195L68.7672 51.2327V53.5H70.2672ZM203.99 12.0171L205.323 12.7036L205.346 12.659L205.366 12.613L203.99 12.0171ZM30 85V83.5H28.5V85H30ZM63.8331 511.362L63.4021 512.799L63.4152 512.803L63.8331 511.362ZM203.999 574L202.954 575.076L204.049 576.14L205.093 575.026L203.999 574ZM204 573.999L202.954 572.924L202.87 573.005L202.8 573.099L204 573.999ZM344.167 511.362L344.584 512.803L344.598 512.799L344.167 511.362ZM378 85H379.5V83.5H378V85ZM337.728 53.5H339.228V51.2327L337.142 52.1195L337.728 53.5ZM204.007 12.0171L202.63 12.6132L202.65 12.6591L202.673 12.7036L204.007 12.0171ZM203.998 12L205.312 11.2759L203.889 8.69396L202.64 11.3645L203.998 12ZM203.998 12.0005L202.639 12.636L203.998 15.5408L205.357 12.636L203.998 12.0005ZM203.998 12L205.357 11.3645L204.107 8.69355L202.684 11.2761L203.998 12ZM69.6805 54.8805C106.917 70.7059 137.443 66.8504 160.377 55.6365C183.245 44.4545 198.477 26.003 205.323 12.7036L202.656 11.3305C196.065 24.1335 181.273 42.0795 159.059 52.9414C136.91 63.7714 107.293 67.6061 70.8539 52.1195L69.6805 54.8805ZM30 86.5C61.2654 86.5 71.7672 64.1689 71.7672 53.5H68.7672C68.7672 62.6732 59.4518 83.5 30 83.5V86.5ZM31.5 476.563V85H28.5V476.563H31.5ZM64.2641 509.926C52.6138 506.431 44.489 503.462 39.2201 498.72C34.0877 494.101 31.5 487.622 31.5 476.563H28.5C28.5 488.124 31.2289 495.564 37.2132 500.95C43.0608 506.213 51.8526 509.334 63.4021 512.799L64.2641 509.926ZM205.045 572.924C198.452 566.517 188.576 560.045 176.996 553.791C165.396 547.527 152.003 541.436 138.312 535.813C110.932 524.566 82.2833 515.154 64.2511 509.922L63.4152 512.803C81.3643 518.011 109.909 527.389 137.173 538.588C150.804 544.187 164.094 550.233 175.57 556.431C187.066 562.639 196.657 568.956 202.954 575.076L205.045 572.924ZM202.8 573.099C202.85 573.032 202.896 572.983 202.921 572.957C202.93 572.948 202.94 572.938 202.934 572.944C202.932 572.946 202.92 572.958 202.905 572.974L205.093 575.026C205.078 575.042 205.066 575.054 205.064 575.056C205.058 575.062 205.069 575.051 205.078 575.042C205.103 575.016 205.149 574.967 205.2 574.899L202.8 573.099ZM205.045 575.075C211.342 568.955 220.933 562.639 232.429 556.43C243.905 550.232 257.196 544.187 270.827 538.588C298.09 527.389 326.635 518.011 344.584 512.803L343.749 509.922C325.716 515.154 297.067 524.566 269.687 535.812C255.997 541.436 242.603 547.526 231.003 553.79C219.424 560.044 209.547 566.516 202.954 572.924L205.045 575.075ZM344.598 512.799C356.147 509.334 364.939 506.213 370.787 500.95C376.771 495.564 379.5 488.124 379.5 476.564H376.5C376.5 487.622 373.912 494.101 368.78 498.72C363.511 503.462 355.386 506.431 343.735 509.926L344.598 512.799ZM379.5 476.564V85H376.5V476.564H379.5ZM378 83.5C348.548 83.5 339.228 62.673 339.228 53.5H336.228C336.228 64.1691 346.734 86.5 378 86.5V83.5ZM337.142 52.1195C300.702 67.6062 271.085 63.7714 248.937 52.9414C226.723 42.0795 211.931 24.1335 205.34 11.3305L202.673 12.7036C209.52 26.003 224.75 44.4545 247.619 55.6365C270.553 66.8504 301.078 70.7059 338.315 54.8805L337.142 52.1195ZM202.685 12.7241C202.66 12.6797 202.643 12.6415 202.63 12.6132L205.383 11.421C205.365 11.3799 205.342 11.3303 205.312 11.2759L202.685 12.7241ZM205.357 12.636C205.349 12.6529 205.342 12.6664 205.338 12.6742C205.336 12.6783 205.335 12.6815 205.334 12.6835C205.333 12.6853 205.332 12.6868 205.332 12.6865C205.332 12.6865 205.332 12.6865 205.332 12.6865C205.332 12.6865 205.332 12.6865 205.332 12.6865C205.332 12.6864 205.332 12.6864 205.332 12.6863C205.332 12.6862 205.332 12.686 205.333 12.6857C205.333 12.6852 205.333 12.6844 205.334 12.6834C205.335 12.6814 205.336 12.6781 205.338 12.674C205.342 12.666 205.349 12.6525 205.357 12.6355L202.64 11.3645C202.648 11.3476 202.654 11.3341 202.658 11.3263C202.66 11.3222 202.662 11.3189 202.663 11.317C202.664 11.3152 202.665 11.3137 202.665 11.314C202.665 11.314 202.665 11.314 202.665 11.314C202.664 11.314 202.664 11.314 202.664 11.314C202.664 11.3141 202.664 11.3141 202.664 11.3142C202.664 11.3143 202.664 11.3145 202.664 11.3148C202.664 11.3153 202.663 11.3161 202.663 11.3171C202.662 11.3191 202.66 11.3224 202.658 11.3265C202.654 11.3345 202.647 11.348 202.639 11.365L205.357 12.636ZM205.357 11.365C205.349 11.3477 205.341 11.3327 205.335 11.3203C205.329 11.308 205.323 11.2976 205.319 11.2898C205.315 11.282 205.311 11.2757 205.309 11.2719C205.308 11.27 205.307 11.2685 205.307 11.2675C205.307 11.267 205.306 11.2667 205.306 11.2664C205.306 11.2663 205.306 11.2662 205.306 11.2661C205.306 11.2661 205.306 11.2661 205.306 11.2661C205.306 11.2661 205.306 11.2661 205.306 11.266C205.306 11.266 205.306 11.266 205.306 11.266C205.306 11.2655 205.307 11.2684 205.309 11.2718C205.311 11.2755 205.315 11.2818 205.319 11.2895C205.323 11.2974 205.329 11.3077 205.335 11.32C205.341 11.3322 205.349 11.3472 205.357 11.3645L202.639 12.6355C202.647 12.6528 202.655 12.6678 202.661 12.6802C202.667 12.6925 202.673 12.7028 202.677 12.7107C202.681 12.7185 202.685 12.7248 202.687 12.7286C202.688 12.7305 202.689 12.732 202.689 12.733C202.689 12.7334 202.69 12.7338 202.69 12.7341C202.69 12.7342 202.69 12.7343 202.69 12.7344C202.69 12.7344 202.69 12.7344 202.69 12.7344C202.69 12.7344 202.69 12.7344 202.69 12.7344C202.69 12.7344 202.69 12.7344 202.69 12.7344C202.69 12.735 202.689 12.7321 202.687 12.7287C202.685 12.725 202.681 12.7187 202.677 12.711C202.673 12.7031 202.667 12.6928 202.661 12.6805C202.655 12.6682 202.648 12.6533 202.639 12.636L205.357 11.365ZM202.684 11.2761C202.654 11.3305 202.631 11.3801 202.613 11.4212L205.366 12.613C205.354 12.6413 205.336 12.6796 205.312 12.7239L202.684 11.2761Z" fill="#4B3B1B"/>
<g id="&#195;&#144;&#194;&#191;&#195;&#145;&#194;&#128;&#195;&#145;&#194;&#143;&#195;&#144;&#194;&#188;&#195;&#144;&#194;&#190;&#195;&#144;&#194;&#186;&#195;&#145;&#194;&#131;&#195;&#145;&#194;&#130;&#195;&#144;&#194;&#189;&#195;&#144;&#194;&#184;&#195;&#144;&#194;&#186;">
<path id="Vector 1" d="M25 377H15L25 391V377Z" fill="#2C2414"/>
<path id="Vector 2" d="M383 377H393L383 391V377Z" fill="#2C2414"/>
<rect id="Rectangle 2_2" x="25" y="346" width="358" height="54" fill="url(#paint48_linear_895_16347)"/>
<path id="Vector 3" d="M407 307C395.059 328.037 393 355.333 393 377C393 377 232.178 377 221 377C210 377 203.999 388 203.999 388C203.999 388 198 377 187 377C176 377 15 377 15 377C15 355.333 11.9463 328.541 1 307H186.905C186.905 307 192.555 314.594 203.999 314.594C215.443 314.594 220.999 307 220.999 307H407Z" fill="url(#paint49_linear_895_16347)"/>
</g>
<circle id="Ellipse 1" cx="237.5" cy="190.5" r="86.5" fill="url(#paint50_linear_895_16347)"/>
</g>
<defs>
<linearGradient id="paint0_linear_895_16347" x1="205.805" y1="5.48554" x2="207.101" y2="521.459" gradientUnits="userSpaceOnUse">
<stop stop-color="#AB7F2F"/>
<stop offset="0.307292" stop-color="#392B10"/>
</linearGradient>
<linearGradient id="paint1_linear_895_16347" x1="202.195" y1="5.48554" x2="200.899" y2="521.459" gradientUnits="userSpaceOnUse">
<stop stop-color="#AB7F2F"/>
<stop offset="0.307292" stop-color="#392B10"/>
</linearGradient>
<linearGradient id="paint2_linear_895_16347" x1="371.499" y1="23.5293" x2="45.2501" y2="546.139" gradientUnits="userSpaceOnUse">
<stop offset="0.0176419" stop-color="#433922"/>
<stop offset="0.25" stop-color="#A68B56"/>
<stop offset="0.5" stop-color="#433922"/>
<stop offset="0.755208" stop-color="#A68B56"/>
<stop offset="1" stop-color="#433922"/>
</linearGradient>
<linearGradient id="paint3_linear_895_16347" x1="236.504" y1="124.996" x2="236.504" y2="257.996" gradientUnits="userSpaceOnUse">
<stop stop-color="#C79852"/>
<stop offset="0.151042" stop-color="#FBF8D1"/>
<stop offset="0.489583" stop-color="#826335"/>
<stop offset="0.739583" stop-color="#F8F6B4"/>
<stop offset="1" stop-color="#A87F40"/>
</linearGradient>
<linearGradient id="paint4_linear_895_16347" x1="236.504" y1="109.996" x2="236.504" y2="272.996" gradientUnits="userSpaceOnUse">
<stop stop-color="#C79852"/>
<stop offset="0.151042" stop-color="#FBF8D1"/>
<stop offset="0.489583" stop-color="#826335"/>
<stop offset="0.739583" stop-color="#F8F6B4"/>
<stop offset="1" stop-color="#A87F40"/>
</linearGradient>
<linearGradient id="paint5_linear_895_16347" x1="236.004" y1="94.9961" x2="236.004" y2="286.996" gradientUnits="userSpaceOnUse">
<stop stop-color="#C79852"/>
<stop offset="0.151042" stop-color="#FBF8D1"/>
<stop offset="0.489583" stop-color="#826335"/>
<stop offset="0.739583" stop-color="#F8F6B4"/>
<stop offset="1" stop-color="#A87F40"/>
</linearGradient>
<linearGradient id="paint6_linear_895_16347" x1="236.504" y1="80.9961" x2="236.504" y2="301.996" gradientUnits="userSpaceOnUse">
<stop stop-color="#C79852"/>
<stop offset="0.151042" stop-color="#FBF8D1"/>
<stop offset="0.489583" stop-color="#826335"/>
<stop offset="0.739583" stop-color="#F8F6B4"/>
<stop offset="1" stop-color="#A87F40"/>
</linearGradient>
<linearGradient id="paint7_linear_895_16347" x1="237.004" y1="66.9961" x2="237.004" y2="316.996" gradientUnits="userSpaceOnUse">
<stop stop-color="#C79852"/>
<stop offset="0.151042" stop-color="#FBF8D1"/>
<stop offset="0.489583" stop-color="#826335"/>
<stop offset="0.739583" stop-color="#F8F6B4"/>
<stop offset="1" stop-color="#A87F40"/>
</linearGradient>
<linearGradient id="paint8_linear_895_16347" x1="236.504" y1="52.9961" x2="236.504" y2="329.996" gradientUnits="userSpaceOnUse">
<stop stop-color="#C79852"/>
<stop offset="0.151042" stop-color="#FBF8D1"/>
<stop offset="0.489583" stop-color="#826335"/>
<stop offset="0.739583" stop-color="#F8F6B4"/>
<stop offset="1" stop-color="#A87F40"/>
</linearGradient>
<linearGradient id="paint9_linear_895_16347" x1="230.963" y1="45.6738" x2="230.963" y2="344.996" gradientUnits="userSpaceOnUse">
<stop stop-color="#C79852"/>
<stop offset="0.151042" stop-color="#FBF8D1"/>
<stop offset="0.489583" stop-color="#826335"/>
<stop offset="0.739583" stop-color="#F8F6B4"/>
<stop offset="1" stop-color="#A87F40"/>
</linearGradient>
<linearGradient id="paint10_linear_895_16347" x1="224.254" y1="33.4961" x2="224.254" y2="359.996" gradientUnits="userSpaceOnUse">
<stop stop-color="#C79852"/>
<stop offset="0.151042" stop-color="#FBF8D1"/>
<stop offset="0.489583" stop-color="#826335"/>
<stop offset="0.739583" stop-color="#F8F6B4"/>
<stop offset="1" stop-color="#A87F40"/>
</linearGradient>
<linearGradient id="paint11_linear_895_16347" x1="215.754" y1="26.4961" x2="215.754" y2="373.996" gradientUnits="userSpaceOnUse">
<stop stop-color="#C79852"/>
<stop offset="0.151042" stop-color="#FBF8D1"/>
<stop offset="0.489583" stop-color="#826335"/>
<stop offset="0.739583" stop-color="#F8F6B4"/>
<stop offset="1" stop-color="#A87F40"/>
</linearGradient>
<linearGradient id="paint12_linear_895_16347" x1="210.312" y1="24" x2="210.312" y2="388.997" gradientUnits="userSpaceOnUse">
<stop stop-color="#C79852"/>
<stop offset="0.151042" stop-color="#FBF8D1"/>
<stop offset="0.489583" stop-color="#826335"/>
<stop offset="0.739583" stop-color="#F8F6B4"/>
<stop offset="1" stop-color="#A87F40"/>
</linearGradient>
<linearGradient id="paint13_linear_895_16347" x1="213.472" y1="15" x2="213.472" y2="402.845" gradientUnits="userSpaceOnUse">
<stop stop-color="#C79852"/>
<stop offset="0.151042" stop-color="#FBF8D1"/>
<stop offset="0.489583" stop-color="#826335"/>
<stop offset="0.739583" stop-color="#F8F6B4"/>
<stop offset="1" stop-color="#A87F40"/>
</linearGradient>
<linearGradient id="paint14_linear_895_16347" x1="209.826" y1="238.047" x2="209.826" y2="416.693" gradientUnits="userSpaceOnUse">
<stop stop-color="#C79852"/>
<stop offset="0.151042" stop-color="#FBF8D1"/>
<stop offset="0.489583" stop-color="#826335"/>
<stop offset="0.739583" stop-color="#F8F6B4"/>
<stop offset="1" stop-color="#A87F40"/>
</linearGradient>
<linearGradient id="paint15_linear_895_16347" x1="210.045" y1="312.777" x2="210.045" y2="429.541" gradientUnits="userSpaceOnUse">
<stop stop-color="#C79852"/>
<stop offset="0.151042" stop-color="#FBF8D1"/>
<stop offset="0.489583" stop-color="#826335"/>
<stop offset="0.739583" stop-color="#F8F6B4"/>
<stop offset="1" stop-color="#A87F40"/>
</linearGradient>
<linearGradient id="paint16_linear_895_16347" x1="215.758" y1="326.348" x2="215.758" y2="444.388" gradientUnits="userSpaceOnUse">
<stop stop-color="#C79852"/>
<stop offset="0.151042" stop-color="#FBF8D1"/>
<stop offset="0.489583" stop-color="#826335"/>
<stop offset="0.739583" stop-color="#F8F6B4"/>
<stop offset="1" stop-color="#A87F40"/>
</linearGradient>
<linearGradient id="paint17_linear_895_16347" x1="227.872" y1="344.963" x2="227.872" y2="459.237" gradientUnits="userSpaceOnUse">
<stop stop-color="#C79852"/>
<stop offset="0.151042" stop-color="#FBF8D1"/>
<stop offset="0.489583" stop-color="#826335"/>
<stop offset="0.739583" stop-color="#F8F6B4"/>
<stop offset="1" stop-color="#A87F40"/>
</linearGradient>
<linearGradient id="paint18_linear_895_16347" x1="226.791" y1="354.52" x2="226.791" y2="475.085" gradientUnits="userSpaceOnUse">
<stop stop-color="#C79852"/>
<stop offset="0.151042" stop-color="#FBF8D1"/>
<stop offset="0.489583" stop-color="#826335"/>
<stop offset="0.739583" stop-color="#F8F6B4"/>
<stop offset="1" stop-color="#A87F40"/>
</linearGradient>
<linearGradient id="paint19_linear_895_16347" x1="218.884" y1="363.078" x2="218.884" y2="489.933" gradientUnits="userSpaceOnUse">
<stop stop-color="#C79852"/>
<stop offset="0.151042" stop-color="#FBF8D1"/>
<stop offset="0.489583" stop-color="#826335"/>
<stop offset="0.739583" stop-color="#F8F6B4"/>
<stop offset="1" stop-color="#A87F40"/>
</linearGradient>
<linearGradient id="paint20_linear_895_16347" x1="216.052" y1="372.637" x2="216.052" y2="505.782" gradientUnits="userSpaceOnUse">
<stop stop-color="#C79852"/>
<stop offset="0.151042" stop-color="#FBF8D1"/>
<stop offset="0.489583" stop-color="#826335"/>
<stop offset="0.739583" stop-color="#F8F6B4"/>
<stop offset="1" stop-color="#A87F40"/>
</linearGradient>
<linearGradient id="paint21_linear_895_16347" x1="210.72" y1="381.195" x2="210.72" y2="520.63" gradientUnits="userSpaceOnUse">
<stop stop-color="#C79852"/>
<stop offset="0.151042" stop-color="#FBF8D1"/>
<stop offset="0.489583" stop-color="#826335"/>
<stop offset="0.739583" stop-color="#F8F6B4"/>
<stop offset="1" stop-color="#A87F40"/>
</linearGradient>
<linearGradient id="paint22_linear_895_16347" x1="205.638" y1="389.752" x2="205.638" y2="535.477" gradientUnits="userSpaceOnUse">
<stop stop-color="#C79852"/>
<stop offset="0.151042" stop-color="#FBF8D1"/>
<stop offset="0.489583" stop-color="#826335"/>
<stop offset="0.739583" stop-color="#F8F6B4"/>
<stop offset="1" stop-color="#A87F40"/>
</linearGradient>
<linearGradient id="paint23_linear_895_16347" x1="202.057" y1="398.309" x2="202.057" y2="550.325" gradientUnits="userSpaceOnUse">
<stop stop-color="#C79852"/>
<stop offset="0.151042" stop-color="#FBF8D1"/>
<stop offset="0.489583" stop-color="#826335"/>
<stop offset="0.739583" stop-color="#F8F6B4"/>
<stop offset="1" stop-color="#A87F40"/>
</linearGradient>
<linearGradient id="paint24_linear_895_16347" x1="141.277" y1="486.021" x2="141.277" y2="573.997" gradientUnits="userSpaceOnUse">
<stop stop-color="#C79852"/>
<stop offset="0.151042" stop-color="#FBF8D1"/>
<stop offset="0.489583" stop-color="#826335"/>
<stop offset="0.739583" stop-color="#F8F6B4"/>
<stop offset="1" stop-color="#A87F40"/>
</linearGradient>
<linearGradient id="paint25_linear_895_16347" x1="314.668" y1="486.021" x2="314.668" y2="542.997" gradientUnits="userSpaceOnUse">
<stop stop-color="#C79852"/>
<stop offset="0.151042" stop-color="#FBF8D1"/>
<stop offset="0.489583" stop-color="#826335"/>
<stop offset="0.739583" stop-color="#F8F6B4"/>
<stop offset="1" stop-color="#A87F40"/>
</linearGradient>
<linearGradient id="paint26_linear_895_16347" x1="147.835" y1="497.723" x2="147.835" y2="574.496" gradientUnits="userSpaceOnUse">
<stop stop-color="#C79852"/>
<stop offset="0.151042" stop-color="#FBF8D1"/>
<stop offset="0.489583" stop-color="#826335"/>
<stop offset="0.739583" stop-color="#F8F6B4"/>
<stop offset="1" stop-color="#A87F40"/>
</linearGradient>
<linearGradient id="paint27_linear_895_16347" x1="319.834" y1="497.723" x2="319.834" y2="534.996" gradientUnits="userSpaceOnUse">
<stop stop-color="#C79852"/>
<stop offset="0.151042" stop-color="#FBF8D1"/>
<stop offset="0.489583" stop-color="#826335"/>
<stop offset="0.739583" stop-color="#F8F6B4"/>
<stop offset="1" stop-color="#A87F40"/>
</linearGradient>
<linearGradient id="paint28_linear_895_16347" x1="152.754" y1="508.426" x2="152.754" y2="572.996" gradientUnits="userSpaceOnUse">
<stop stop-color="#C79852"/>
<stop offset="0.151042" stop-color="#FBF8D1"/>
<stop offset="0.489583" stop-color="#826335"/>
<stop offset="0.739583" stop-color="#F8F6B4"/>
<stop offset="1" stop-color="#A87F40"/>
</linearGradient>
<linearGradient id="paint29_linear_895_16347" x1="325.114" y1="508.426" x2="325.114" y2="523.996" gradientUnits="userSpaceOnUse">
<stop stop-color="#C79852"/>
<stop offset="0.151042" stop-color="#FBF8D1"/>
<stop offset="0.489583" stop-color="#826335"/>
<stop offset="0.739583" stop-color="#F8F6B4"/>
<stop offset="1" stop-color="#A87F40"/>
</linearGradient>
<linearGradient id="paint30_linear_895_16347" x1="151.004" y1="520.129" x2="151.004" y2="558.701" gradientUnits="userSpaceOnUse">
<stop stop-color="#C79852"/>
<stop offset="0.151042" stop-color="#FBF8D1"/>
<stop offset="0.489583" stop-color="#826335"/>
<stop offset="0.739583" stop-color="#F8F6B4"/>
<stop offset="1" stop-color="#A87F40"/>
</linearGradient>
<linearGradient id="paint31_linear_895_16347" x1="144.615" y1="533.832" x2="144.615" y2="539.996" gradientUnits="userSpaceOnUse">
<stop stop-color="#C79852"/>
<stop offset="0.151042" stop-color="#FBF8D1"/>
<stop offset="0.489583" stop-color="#826335"/>
<stop offset="0.739583" stop-color="#F8F6B4"/>
<stop offset="1" stop-color="#A87F40"/>
</linearGradient>
<linearGradient id="paint32_linear_895_16347" x1="30" y1="251.496" x2="125" y2="249.996" gradientUnits="userSpaceOnUse">
<stop offset="0.677083"/>
<stop offset="1" stop-opacity="0"/>
</linearGradient>
<linearGradient id="paint33_linear_895_16347" x1="70" y1="50.0498" x2="70" y2="528.656" gradientUnits="userSpaceOnUse">
<stop offset="0.09375" stop-color="#EDC576"/>
<stop offset="1"/>
</linearGradient>
<linearGradient id="paint34_linear_895_16347" x1="280.706" y1="111.528" x2="204.211" y2="278.142" gradientUnits="userSpaceOnUse">
<stop stop-color="#F5DAA6"/>
<stop offset="1" stop-color="#C69852"/>
</linearGradient>
<linearGradient id="paint35_linear_895_16347" x1="277.563" y1="111.529" x2="182.206" y2="266.615" gradientUnits="userSpaceOnUse">
<stop stop-color="#C8A565"/>
<stop offset="1" stop-color="#796639"/>
</linearGradient>
<linearGradient id="paint36_linear_895_16347" x1="280.705" y1="109.432" x2="191.635" y2="269.758" gradientUnits="userSpaceOnUse">
<stop stop-color="#F5DAA6"/>
<stop offset="1" stop-color="#C69852"/>
</linearGradient>
<linearGradient id="paint37_linear_895_16347" x1="268.655" y1="105.24" x2="192.684" y2="268.71" gradientUnits="userSpaceOnUse">
<stop stop-color="#C8A565"/>
<stop offset="1" stop-color="#796639"/>
</linearGradient>
<linearGradient id="paint38_linear_895_16347" x1="281.753" y1="113.624" x2="183.252" y2="262.947" gradientUnits="userSpaceOnUse">
<stop stop-color="#F5DAA6"/>
<stop offset="1" stop-color="#C69852"/>
</linearGradient>
<linearGradient id="paint39_linear_895_16347" x1="277.564" y1="107.336" x2="189.542" y2="268.71" gradientUnits="userSpaceOnUse">
<stop stop-color="#C8A565"/>
<stop offset="1" stop-color="#796639"/>
</linearGradient>
<linearGradient id="paint40_linear_895_16347" x1="275.328" y1="121.56" x2="208.325" y2="267.496" gradientUnits="userSpaceOnUse">
<stop stop-color="#F5DAA6"/>
<stop offset="1" stop-color="#C69852"/>
</linearGradient>
<linearGradient id="paint41_linear_895_16347" x1="272.574" y1="121.559" x2="189.051" y2="257.4" gradientUnits="userSpaceOnUse">
<stop stop-color="#C8A565"/>
<stop offset="1" stop-color="#796639"/>
</linearGradient>
<linearGradient id="paint42_linear_895_16347" x1="275.33" y1="119.725" x2="197.314" y2="260.154" gradientUnits="userSpaceOnUse">
<stop stop-color="#F5DAA6"/>
<stop offset="1" stop-color="#C69852"/>
</linearGradient>
<linearGradient id="paint43_linear_895_16347" x1="264.773" y1="116.054" x2="198.229" y2="259.237" gradientUnits="userSpaceOnUse">
<stop stop-color="#C8A565"/>
<stop offset="1" stop-color="#796639"/>
</linearGradient>
<linearGradient id="paint44_linear_895_16347" x1="276.243" y1="123.396" x2="189.967" y2="254.189" gradientUnits="userSpaceOnUse">
<stop stop-color="#F5DAA6"/>
<stop offset="1" stop-color="#C69852"/>
</linearGradient>
<linearGradient id="paint45_linear_895_16347" x1="272.575" y1="117.888" x2="195.477" y2="259.235" gradientUnits="userSpaceOnUse">
<stop stop-color="#C8A565"/>
<stop offset="1" stop-color="#796639"/>
</linearGradient>
<linearGradient id="paint46_linear_895_16347" x1="293.017" y1="111.851" x2="180.441" y2="264.008" gradientUnits="userSpaceOnUse">
<stop stop-color="#956927"/>
<stop offset="0.260417" stop-color="#FFFCC8"/>
<stop offset="0.505208" stop-color="#9C6E28"/>
<stop offset="0.755208" stop-color="#FFFBC0"/>
<stop offset="1" stop-color="#A37229"/>
</linearGradient>
<linearGradient id="paint47_linear_895_16347" x1="55" y1="554.5" x2="349" y2="27" gradientUnits="userSpaceOnUse">
<stop stop-color="#554021"/>
<stop offset="0.244792" stop-color="#FFFDDD"/>
<stop offset="0.494792" stop-color="#765A31"/>
<stop offset="0.755208" stop-color="#FFFDE3"/>
<stop offset="1" stop-color="#604825"/>
</linearGradient>
<linearGradient id="paint48_linear_895_16347" x1="204" y1="346" x2="204" y2="400" gradientUnits="userSpaceOnUse">
<stop offset="0.640625" stop-opacity="0.81"/>
<stop offset="1" stop-opacity="0"/>
</linearGradient>
<linearGradient id="paint49_linear_895_16347" x1="174.006" y1="521.809" x2="378.916" y2="275.947" gradientUnits="userSpaceOnUse">
<stop stop-color="#C69751"/>
<stop offset="0.203125" stop-color="#F8F7B5"/>
<stop offset="0.5" stop-color="#C69751"/>
<stop offset="0.807292" stop-color="#F8F7B5"/>
<stop offset="1" stop-color="#C69751"/>
</linearGradient>
<linearGradient id="paint50_linear_895_16347" x1="-62" y1="93.5" x2="-71.5204" y2="334.109" gradientUnits="userSpaceOnUse">
<stop stop-color="#4F3713"/>
<stop offset="0.5" stop-color="#C69751"/>
<stop offset="1" stop-color="#E3B876"/>
</linearGradient>
</defs>
</svg>
