<svg width="403" height="585" viewBox="0 0 403 585" fill="none" xmlns="http://www.w3.org/2000/svg">
<g id="VIP 2-3">
<path id="BACK" d="M200.5 17C187 50 121.5 83.5 118 52.5C84.5 55 57.5 93.5 27 93.5V481.563C27 508.011 46.4233 513.656 56.1349 516.362C99.8372 528.542 177.53 556.381 200.191 579C226.088 553.945 304.86 526.802 341.009 516.362C364.317 509.402 375 504.183 375 481.563V94.5C343.5 86.5 306.5 52.5 284 52.5C282 85.5 215 50.5 200.5 17Z" fill="url(#paint0_linear_895_16345)"/>
<g id="Group 1">
<g id="Polygon 17">
<mask id="path-2-inside-1_895_16345" fill="white">
<path d="M66.8571 94.5L234 384L374 141.513L374 94.5L66.8571 94.5Z"/>
</mask>
<path d="M66.8571 94.5L234 384L374 141.513L374 94.5L66.8571 94.5Z" stroke="#44579C" stroke-width="6" mask="url(#path-2-inside-1_895_16345)"/>
</g>
<g id="Polygon 18">
<mask id="path-3-inside-2_895_16345" fill="white">
<path d="M234 417L374 174.513L374 95C367.5 92.5 352 85.6001 342 78L88.5 78L88.5 164.987L234 417Z"/>
</mask>
<path d="M234 417L374 174.513L374 95C367.5 92.5 352 85.6001 342 78L88.5 78L88.5 164.987L234 417Z" stroke="#44579C" stroke-width="6" mask="url(#path-3-inside-2_895_16345)"/>
</g>
<g id="Polygon 19">
<mask id="path-4-inside-3_895_16345" fill="white">
<path d="M98.3226 215L234 450L373.719 208L373.527 94.5C363 91.5 352.5 85.4 345.5 80.5C330.5 70 317.304 64.9454 316.5 61.5L98.3226 61.5L98.3226 215Z"/>
</mask>
<path d="M98.3226 215L234 450L373.719 208L373.527 94.5C363 91.5 352.5 85.4 345.5 80.5C330.5 70 317.304 64.9454 316.5 61.5L98.3226 61.5L98.3226 215Z" stroke="#44579C" stroke-width="6" mask="url(#path-4-inside-3_895_16345)"/>
</g>
<path id="Polygon 20" d="M376.027 237L233.999 483L91.971 237L91.9711 55.9999C104.416 51.5881 111.821 47.4006 115.999 50C122.238 53.8816 122.508 64.1829 131.499 64C144.589 63.7338 161.457 51.7541 174.499 45L224.499 45" stroke="#44579C" stroke-width="3"/>
<g id="Polygon 21">
<mask id="path-6-inside-4_895_16345" fill="white">
<path d="M87.643 262.5L234.001 516L374.73 272.25L374.73 94.5C350.001 97 323.001 51.5 283.501 51.5C274.501 88.5 222.502 41 210.001 29.5L191.001 29.5C178.604 46.1484 128.001 84 116.501 51.5C105.001 47 98.1099 58.069 91.5013 56.9999L87.643 262.5Z"/>
</mask>
<path d="M87.643 262.5L234.001 516L374.73 272.25L374.73 94.5C350.001 97 323.001 51.5 283.501 51.5C274.501 88.5 222.502 41 210.001 29.5L191.001 29.5C178.604 46.1484 128.001 84 116.501 51.5C105.001 47 98.1099 58.069 91.5013 56.9999L87.643 262.5Z" stroke="#44579C" stroke-width="6" mask="url(#path-6-inside-4_895_16345)"/>
</g>
<path id="Polygon 22" d="M376.605 302L234 549L78.9814 280.5" stroke="#44579C" stroke-width="3"/>
<path id="Polygon 23" d="M374 339.514L255.362 545.001L222.5 562.082L95.436 342.001" stroke="#44579C" stroke-width="3"/>
<path id="Polygon 24" d="M208.308 570.5L105 391.565M279.899 535.5L370.832 378" stroke="#44579C" stroke-width="3"/>
<path id="Polygon 25" d="M105 425L186.657 566M303.859 527L373.719 406" stroke="#44579C" stroke-width="3"/>
<path id="Polygon 26" d="M159.522 552L97.0003 443.709M327.242 519.5L374.008 438.5" stroke="#44579C" stroke-width="3"/>
<path id="Polygon 27" d="M376.605 467L350.913 511.5C296.844 527.9 229.5 551 200 576.5C193.6 567.7 153.412 549.167 134.118 541L28.9999 358.93" stroke="#44579C" stroke-width="3"/>
</g>
<path id="Polygon 10" d="M362.904 118L233 343L103.096 118L362.904 118Z" stroke="url(#paint1_linear_895_16345)" stroke-width="8"/>
<path id="Polygon 9" d="M233 320L123.015 129.5L342.985 129.5L233 320Z" fill="url(#paint2_linear_895_16345)"/>
<path id="icon bar" d="M27 484.581C27 511.186 50.846 514.276 62.5 516.999C79.7114 521.02 100.778 529.327 123 535.999V56.7553C116.813 56.1532 110.193 52.4442 104.5 54.499C98.0337 56.8332 92.4297 64.8625 84 61.9992C78 78.4992 63.6 93.4992 27 93.4992V484.581Z" fill="url(#paint3_linear_895_16345)"/>
<path id="icon bar_2" d="M27 481.563C27 508.01 46.4233 513.656 56.1349 516.362C70.4777 520.359 88.4818 526.043 107 532.676V51.5C72 61.5 52 87.5 27 93.5V481.563Z" fill="url(#paint4_linear_895_16345)"/>
<circle id="Ellipse 2" cx="234.5" cy="193.5" r="86.5" fill="url(#paint5_linear_895_16345)"/>
<circle id="Ellipse 3" cx="234.5" cy="193.5" r="89" stroke="url(#paint6_linear_895_16345)" stroke-width="5"/>
<path id="Union" d="M375.003 91.4311H380.003V86.4311H375.003V91.4311ZM336.459 72.7186L339.225 68.5534L336.459 72.7186ZM284.003 48.9689V43.9689H279.003V48.9689H284.003ZM201.003 14L205.645 12.1416L201.016 0.580437L196.365 12.1325L201.003 14ZM201.001 14.0042L196.672 16.5049L201.937 25.6209L205.675 15.7799L201.001 14.0042ZM201 14.002L205.294 11.4409L200.116 2.75785L196.358 12.1436L201 14.002ZM118 48.9709H123V43.9709H118V48.9709ZM65.5436 72.7206L62.7776 68.5553H62.7776L65.5436 72.7206ZM27 91.433V86.433H22V91.433H27ZM50.383 511.186L51.5861 506.333L51.586 506.333L50.383 511.186ZM201 576.002L196.895 578.857L200.89 584.599L205.03 578.961L201 576.002ZM201.002 575.999L205.208 573.295L201.034 566.803L196.815 573.266L201.002 575.999ZM201.003 576L197.003 579L201.155 584.536L205.108 578.855L201.003 576ZM351.62 511.184L350.417 506.331L350.417 506.331L351.62 511.184ZM370.003 91.4311V487.935H380.003V91.4311H370.003ZM333.693 76.8839C340.95 81.7029 348.211 86.5302 354.981 90.1315C361.651 93.6794 368.539 96.4311 375.003 96.4311V86.4311C371.102 86.4311 366.031 84.683 359.677 81.3029C353.423 77.9762 346.595 73.4472 339.225 68.5534L333.693 76.8839ZM284.003 53.9689C291.19 53.9689 299.183 56.6552 307.797 61.032C316.376 65.3908 325.07 71.1571 333.693 76.8839L339.225 68.5534C330.705 62.8952 321.517 56.7866 312.327 52.1169C303.172 47.465 293.509 43.9689 284.003 43.9689V53.9689ZM196.361 15.8584C199.773 24.3797 207.102 33.2014 215.684 40.9485C224.35 48.7723 234.727 55.889 244.78 60.8785C254.633 65.7685 264.964 69.0125 273.283 68.0732C277.603 67.5854 281.732 65.9198 284.729 62.4154C287.699 58.9418 289.003 54.3072 289.003 48.9689H279.003C279.003 52.7475 278.088 54.7944 277.129 55.9164C276.196 57.0075 274.685 57.8514 272.161 58.1363C266.792 58.7425 258.623 56.5851 249.226 51.9211C240.029 47.3566 230.406 40.7667 222.385 33.5258C214.279 26.2082 208.233 18.607 205.645 12.1416L196.361 15.8584ZM205.675 15.7799C205.676 15.7775 205.672 15.7881 205.667 15.8006C205.662 15.8143 205.653 15.838 205.641 15.8675L196.365 12.1325C196.352 12.1633 196.343 12.1884 196.337 12.2035C196.334 12.2113 196.331 12.2176 196.33 12.2216C196.329 12.2253 196.327 12.2285 196.327 12.2285L205.675 15.7799ZM205.331 11.5035C205.313 11.4731 205.299 11.4494 205.294 11.4402C205.291 11.4357 205.289 11.4317 205.289 11.4325C205.289 11.4325 205.289 11.4326 205.289 11.4326C205.289 11.4327 205.29 11.4329 205.29 11.4331C205.29 11.4334 205.29 11.434 205.291 11.4346C205.291 11.436 205.293 11.4382 205.294 11.4409L196.706 16.563C196.707 16.5659 196.709 16.5683 196.71 16.5698C196.711 16.5713 196.711 16.5724 196.711 16.5725C196.712 16.5737 196.71 16.57 196.707 16.5659C196.702 16.5575 196.689 16.5346 196.672 16.5049L205.331 11.5035ZM196.358 12.1436C193.77 18.6089 187.724 26.2101 179.618 33.5277C171.597 40.7686 161.974 47.3586 152.777 51.923C143.38 56.5871 135.211 58.7445 129.842 58.1383C127.319 57.8533 125.807 57.0095 124.874 55.9184C123.915 54.7964 123 52.7494 123 48.9709H113C113 54.3092 114.304 58.9438 117.274 62.4174C120.271 65.9217 124.4 67.5874 128.72 68.0752C137.039 69.0145 147.37 65.7704 157.223 60.8805C167.276 55.8909 177.653 48.7743 186.319 40.9505C194.901 33.2033 202.23 24.3816 205.642 15.8603L196.358 12.1436ZM118 43.9709C108.494 43.9709 98.8312 47.467 89.6761 52.1188C80.4856 56.7886 71.298 62.8972 62.7776 68.5553L68.3096 76.8858C76.9332 71.1591 85.6275 65.3928 94.206 61.034C102.82 56.6571 110.813 53.9709 118 53.9709V43.9709ZM62.7776 68.5553C55.4082 73.4491 48.5796 77.9781 42.3258 81.3048C35.9716 84.6849 30.9013 86.433 27 86.433V96.433C33.464 96.433 40.3524 93.6814 47.0222 90.1334C53.7923 86.5321 61.0528 81.7048 68.3096 76.8858L62.7776 68.5553ZM22 91.433V487.937H32V91.433H22ZM22 487.937C22 492.699 24.6239 498.642 28.9577 503.716C33.4409 508.965 40.1682 513.805 49.18 516.039L51.586 506.333C44.7798 504.646 39.8156 501.032 36.5618 497.222C33.1586 493.237 32 489.516 32 487.937H22ZM49.1799 516.039C73.0421 521.955 106.478 532.34 135.891 544.088C150.6 549.963 164.195 556.136 175.043 562.212C186.095 568.402 193.599 574.119 196.895 578.857L205.105 573.147C200.401 566.385 191.096 559.741 179.93 553.487C168.559 547.119 154.527 540.763 139.6 534.801C109.74 522.875 75.8668 512.352 51.5861 506.333L49.1799 516.039ZM205.03 578.961C205.106 578.857 205.163 578.772 205.189 578.732L196.815 573.266C196.84 573.228 196.895 573.145 196.97 573.042L205.03 578.961ZM205.003 573C204.993 572.987 204.981 572.971 204.988 572.98C204.99 572.983 205.004 573.001 205.022 573.025C205.058 573.075 205.128 573.17 205.208 573.295L196.796 578.703C196.877 578.828 196.946 578.924 196.983 578.974C197.001 578.998 197.015 579.017 197.018 579.019C197.025 579.029 197.013 579.013 197.003 579L205.003 573ZM350.417 506.331C326.136 512.35 292.263 522.873 262.403 534.799C247.476 540.761 233.444 547.117 222.073 553.485C210.907 559.739 201.602 566.383 196.898 573.145L205.108 578.855C208.404 574.117 215.908 568.4 226.96 562.21C237.808 556.134 251.403 549.961 266.112 544.086C295.525 532.338 328.961 521.953 352.823 516.037L350.417 506.331ZM370.003 487.935C370.003 489.514 368.844 493.235 365.441 497.22C362.187 501.03 357.223 504.644 350.417 506.331L352.823 516.037C361.835 513.803 368.562 508.963 373.045 503.714C377.379 498.64 380.003 492.697 380.003 487.935H370.003Z" fill="url(#paint7_linear_895_16345)"/>
<path id="Union_2" d="M375.003 92.4311H376.503V90.9311H375.003V92.4311ZM336.459 73.7186L337.289 72.4691L336.459 73.7186ZM284.003 49.9689V48.4689H282.503V49.9689H284.003ZM201.003 15L202.396 14.4425L200.994 10.9406L199.608 14.449L201.003 15ZM201.001 15.0048L199.599 15.5367L201.019 19.2812L202.408 15.5252L201.001 15.0048ZM201 15.002L202.395 14.4513L201.01 10.9413L199.607 14.4444L201 15.002ZM118 49.9709H119.5V48.4709H118V49.9709ZM65.5436 73.7206L64.7138 72.471L65.5436 73.7206ZM27 92.433V90.933H25.5V92.433H27ZM50.383 512.186L50.7439 510.73H50.7439L50.383 512.186ZM201 577.002L199.769 577.859L200.967 579.581L202.209 577.89L201 577.002ZM201.002 576.999L202.264 576.188L201.012 574.24L199.746 576.179L201.002 576.999ZM201.003 577L199.803 577.9L201.049 579.561L202.234 577.857L201.003 577ZM351.62 512.184L351.259 510.728H351.259L351.62 512.184ZM373.503 92.4311V488.935H376.503V92.4311H373.503ZM335.63 74.9682C342.926 79.8134 350.035 84.5363 356.625 88.0415C363.184 91.5306 369.436 93.9311 375.003 93.9311V90.9311C370.205 90.9311 364.498 88.8317 358.033 85.3929C351.599 81.9701 344.619 77.3367 337.289 72.4691L335.63 74.9682ZM284.003 51.4689C292.002 51.4689 300.579 54.4386 309.383 58.9117C318.175 63.3794 327.042 69.2655 335.63 74.9682L337.289 72.4691C328.733 66.7869 319.718 60.7981 310.741 56.2372C301.776 51.6816 292.697 48.4689 284.003 48.4689V51.4689ZM199.61 15.5575C202.734 23.3592 209.614 31.7537 218.029 39.3505C226.47 46.9704 236.583 53.9026 246.336 58.7434C256.029 63.5543 265.604 66.418 272.89 65.5953C276.581 65.1785 279.794 63.8005 282.069 61.1408C284.335 58.4902 285.503 54.7613 285.503 49.9689H282.503C282.503 54.2934 281.452 57.246 279.789 59.191C278.133 61.1268 275.706 62.2583 272.553 62.6143C266.152 63.337 257.227 60.7993 247.67 56.0562C238.173 51.3429 228.286 44.5686 220.039 37.1237C211.767 29.6558 205.272 21.6274 202.396 14.4425L199.61 15.5575ZM202.408 15.5252C202.405 15.5329 202.403 15.5392 202.401 15.5435C202.399 15.5476 202.398 15.5506 202.398 15.551L199.608 14.449C199.607 14.4523 199.601 14.4666 199.594 14.4844L202.408 15.5252ZM202.404 14.4729C202.4 14.4633 202.397 14.4557 202.396 14.4524C202.395 14.4515 202.395 14.4508 202.395 14.4503C202.395 14.4498 202.395 14.4494 202.395 14.4494C202.394 14.449 202.395 14.45 202.395 14.4513L199.605 15.5526C199.605 15.5544 199.606 15.5559 199.606 15.5559C199.606 15.5564 199.606 15.5554 199.605 15.5543C199.605 15.552 199.602 15.5453 199.599 15.5367L202.404 14.4729ZM199.607 14.4444C196.731 21.6294 190.236 29.6577 181.964 37.1257C173.717 44.5706 163.83 51.3449 154.333 56.0581C144.776 60.8013 135.851 63.339 129.45 62.6162C126.297 62.2603 123.87 61.1288 122.214 59.193C120.551 57.248 119.5 54.2953 119.5 49.9709H116.5C116.5 54.7633 117.668 58.4922 119.934 61.1427C122.209 63.8024 125.422 65.1805 129.113 65.5973C136.399 66.42 145.974 63.5563 155.667 58.7454C165.42 53.9046 175.533 46.9723 183.974 39.3525C192.389 31.7557 199.269 23.3612 202.393 15.5595L199.607 14.4444ZM118 48.4709C109.306 48.4709 100.227 51.6835 91.2616 56.2391C82.2852 60.8001 73.2703 66.7888 64.7138 72.471L66.3734 74.9701C74.9609 69.2674 83.8278 63.3813 92.6205 58.9137C101.424 54.4406 110.001 51.4709 118 51.4709V48.4709ZM64.7138 72.471C57.3838 77.3386 50.4041 81.972 43.9695 85.3948C37.5049 88.8337 31.7982 90.933 27 90.933V93.933C32.5671 93.933 38.8191 91.5326 45.3784 88.0434C51.9678 84.5382 59.0772 79.8153 66.3734 74.9701L64.7138 72.471ZM25.5 92.433V488.937H28.5V92.433H25.5ZM25.5 488.937C25.5 492.585 27.611 497.75 31.6191 502.443C35.672 507.189 41.7823 511.599 50.0221 513.642L50.7439 510.73C43.1657 508.852 37.5845 504.808 33.9004 500.495C30.1715 496.129 28.5 491.63 28.5 488.937H25.5ZM50.0221 513.642C74.0308 519.594 107.619 530.027 137.189 541.838C151.974 547.743 165.722 553.98 176.753 560.158C187.845 566.371 195.98 572.412 199.769 577.859L202.231 576.145C198.02 570.092 189.345 563.773 178.219 557.541C167.032 551.275 153.152 544.983 138.302 539.052C108.598 527.188 74.8782 516.713 50.7439 510.73L50.0221 513.642ZM202.209 577.89C202.232 577.858 202.25 577.832 202.258 577.819L199.746 576.179C199.753 576.168 199.769 576.144 199.791 576.114L202.209 577.89ZM202.203 576.1C202.2 576.096 202.231 576.136 202.264 576.188L199.74 577.81C199.758 577.838 199.774 577.86 199.785 577.876C199.791 577.884 199.795 577.89 199.798 577.894C199.8 577.896 199.801 577.897 199.802 577.898C199.802 577.899 199.802 577.899 199.803 577.9C199.803 577.9 199.803 577.9 199.803 577.9C199.803 577.9 199.803 577.9 199.803 577.9L202.203 576.1ZM351.259 510.728C327.125 516.711 293.405 527.186 263.701 539.05C248.851 544.981 234.971 551.273 223.784 557.539C212.658 563.771 203.983 570.09 199.772 576.143L202.234 577.857C206.023 572.41 214.158 566.369 225.25 560.156C236.281 553.978 250.029 547.741 264.814 541.836C294.383 530.025 327.972 519.592 351.981 513.64L351.259 510.728ZM373.503 488.935C373.503 491.628 371.832 496.127 368.103 500.493C364.419 504.806 358.837 508.85 351.259 510.728L351.981 513.64C360.221 511.597 366.331 507.187 370.384 502.441C374.392 497.748 376.503 492.583 376.503 488.935H373.503Z" fill="white"/>
<path id="Vector 1" d="M22 380H11L22 394V380Z" fill="#212121"/>
<path id="Vector 2" d="M380 380H391L380 394V380Z" fill="#212121"/>
<rect id="Rectangle 2" x="22" y="349" width="358" height="54" fill="url(#paint8_linear_895_16345)"/>
<path id="Rectangle 1" d="M11 310H187H201H215H391L403 345L391 380H215H201H187H11L0 345L11 310Z" fill="url(#paint9_linear_895_16345)"/>
</g>
<defs>
<linearGradient id="paint0_linear_895_16345" x1="275" y1="-10.9042" x2="39.799" y2="548.464" gradientUnits="userSpaceOnUse">
<stop stop-color="#0E236B"/>
<stop offset="0.25" stop-color="#7C99FF"/>
<stop offset="0.5" stop-color="#0E236F"/>
<stop offset="0.755208" stop-color="#7E9BFF"/>
<stop offset="1" stop-color="#122771"/>
</linearGradient>
<linearGradient id="paint1_linear_895_16345" x1="87" y1="94" x2="338" y2="257" gradientUnits="userSpaceOnUse">
<stop offset="0.166667" stop-color="#B9C8FF"/>
<stop offset="0.411458" stop-color="#3E4F8E"/>
<stop offset="0.515625" stop-color="#687ECC"/>
<stop offset="0.755208" stop-color="#B4C2F4"/>
<stop offset="1" stop-color="#2D3A66"/>
</linearGradient>
<linearGradient id="paint2_linear_895_16345" x1="233" y1="320" x2="233" y2="66" gradientUnits="userSpaceOnUse">
<stop stop-color="#657CCD" stop-opacity="0.69"/>
<stop offset="0.802083" stop-color="#B3C3FF"/>
</linearGradient>
<linearGradient id="paint3_linear_895_16345" x1="-66.5" y1="270.499" x2="123.001" y2="271.335" gradientUnits="userSpaceOnUse">
<stop offset="0.69978"/>
<stop offset="1" stop-opacity="0"/>
</linearGradient>
<linearGradient id="paint4_linear_895_16345" x1="44" y1="-1.54117" x2="31.4671" y2="549.267" gradientUnits="userSpaceOnUse">
<stop offset="0.135417" stop-color="#89A3FF"/>
<stop offset="0.848958"/>
</linearGradient>
<linearGradient id="paint5_linear_895_16345" x1="234.5" y1="107" x2="234.5" y2="280" gradientUnits="userSpaceOnUse">
<stop/>
<stop offset="1" stop-color="#718AE2"/>
</linearGradient>
<linearGradient id="paint6_linear_895_16345" x1="292" y1="114" x2="174" y2="276.5" gradientUnits="userSpaceOnUse">
<stop stop-color="#001F53"/>
<stop offset="0.260417" stop-color="#B6CEF4"/>
<stop offset="0.505208" stop-color="#001E4F"/>
<stop offset="0.755208" stop-color="#C0D5F9"/>
<stop offset="1" stop-color="#00173E"/>
</linearGradient>
<linearGradient id="paint7_linear_895_16345" x1="60.9029" y1="535.502" x2="342.812" y2="43.6959" gradientUnits="userSpaceOnUse">
<stop stop-color="#0A1C59"/>
<stop offset="0.244792" stop-color="#91BAFF"/>
<stop offset="0.494792" stop-color="#09174A"/>
<stop offset="0.755208" stop-color="#8EB9FF"/>
<stop offset="1" stop-color="#0A1B57"/>
</linearGradient>
<linearGradient id="paint8_linear_895_16345" x1="201" y1="349" x2="201" y2="403" gradientUnits="userSpaceOnUse">
<stop offset="0.640625" stop-opacity="0.81"/>
<stop offset="1" stop-opacity="0"/>
</linearGradient>
<linearGradient id="paint9_linear_895_16345" x1="172.926" y1="495.076" x2="346.952" y2="268.932" gradientUnits="userSpaceOnUse">
<stop stop-color="#0C2069"/>
<stop offset="0.203125" stop-color="#7D9AFF"/>
<stop offset="0.5" stop-color="#0E2471"/>
<stop offset="0.807292" stop-color="#8AA4FF"/>
<stop offset="1" stop-color="#112671"/>
</linearGradient>
</defs>
</svg>
