<svg width="32" height="19" viewBox="0 0 32 19" fill="none" xmlns="http://www.w3.org/2000/svg">
<path d="M6.44971 4.19851C11.5796 -0.543545 19.9069 -0.543545 25.0368 4.19851L25.6544 4.77358C25.9134 5.00927 25.9134 5.3958 25.6544 5.63149L23.5427 7.58299C23.4132 7.70555 23.204 7.70555 23.0745 7.58299L22.2278 6.8005C18.6419 3.49144 12.8446 3.49144 9.25869 6.8005L8.35225 7.63956C8.22275 7.76212 8.01358 7.76212 7.88408 7.63956L5.77236 5.68806C5.51338 5.45237 5.51338 5.06584 5.77236 4.83015L6.44971 4.19851ZM29.4097 8.23349L31.2923 9.96816C31.5513 10.2038 31.5513 10.5904 31.2923 10.8261L22.8155 18.6603C22.5565 18.896 22.1382 18.896 21.8892 18.6603L15.8728 13.0981C15.813 13.0415 15.7034 13.0415 15.6437 13.0981L9.62725 18.6603C9.36826 18.896 8.9499 18.896 8.70088 18.6603L0.194238 10.8261C-0.0647461 10.5904 -0.0647461 10.2038 0.194238 9.96816L2.07686 8.23349C2.33584 7.9978 2.7542 7.9978 3.00322 8.23349L9.01963 13.7957C9.0794 13.8523 9.18896 13.8523 9.24873 13.7957L15.2651 8.23349C15.5241 7.9978 15.9425 7.9978 16.1915 8.23349L22.2079 13.7957C22.2677 13.8523 22.3772 13.8523 22.437 13.7957L28.4534 8.23349C28.7323 7.9978 29.1507 7.9978 29.4097 8.23349Z" fill="#0D6EFD"/>
</svg>
