<svg width="50" height="50" viewBox="0 0 50 50" fill="none" xmlns="http://www.w3.org/2000/svg">
<path d="M22.9164 4.16663C18.7959 4.16663 14.768 5.38848 11.342 7.67768C7.91595 9.96687 5.24569 13.2206 3.66886 17.0274C2.09203 20.8342 1.67947 25.0231 2.48332 29.0643C3.28718 33.1056 5.27137 36.8178 8.18496 39.7313C11.0986 42.6449 14.8107 44.6291 18.852 45.433C22.8932 46.2368 27.0821 45.8243 30.8889 44.2475C34.6957 42.6706 37.9494 40.0004 40.2386 36.5743C42.5278 33.1483 43.7497 29.1204 43.7497 25C43.7497 22.2641 43.2108 19.555 42.1638 17.0274C41.1169 14.4998 39.5823 12.2031 37.6477 10.2686C35.7132 8.33401 33.4165 6.79944 30.8889 5.75247C28.3613 4.7055 25.6522 4.16663 22.9164 4.16663ZM22.9164 41.6666C19.62 41.6666 16.3977 40.6891 13.6568 38.8578C10.916 37.0264 8.77982 34.4235 7.51836 31.378C6.2569 28.3326 5.92684 24.9815 6.56993 21.7485C7.21302 18.5154 8.80036 15.5457 11.1312 13.2148C13.4621 10.884 16.4318 9.29663 19.6648 8.65354C22.8979 8.01045 26.249 8.34051 29.2944 9.60197C32.3398 10.8634 34.9428 12.9996 36.7742 15.7405C38.6055 18.4813 39.583 21.7036 39.583 25C39.583 29.4202 37.8271 33.6595 34.7015 36.7851C31.5759 39.9107 27.3366 41.6666 22.9164 41.6666ZM22.9164 12.5C22.3638 12.5 21.8339 12.7195 21.4432 13.1102C21.0525 13.5009 20.833 14.0308 20.833 14.5833V22.9166H16.6664C16.1138 22.9166 15.5839 23.1361 15.1932 23.5268C14.8025 23.9175 14.583 24.4474 14.583 25C14.583 25.5525 14.8025 26.0824 15.1932 26.4731C15.5839 26.8638 16.1138 27.0833 16.6664 27.0833H22.9164C23.4689 27.0833 23.9988 26.8638 24.3895 26.4731C24.7802 26.0824 24.9997 25.5525 24.9997 25V14.5833C24.9997 14.0308 24.7802 13.5009 24.3895 13.1102C23.9988 12.7195 23.4689 12.5 22.9164 12.5Z" fill="#3F3F40"/>
</svg>
