<svg width="50" height="50" viewBox="0 0 50 50" fill="none" xmlns="http://www.w3.org/2000/svg">
<path d="M40.8955 7.60412C40.6535 7.40833 40.3707 7.26927 40.0678 7.19717C39.765 7.12506 39.4498 7.12174 39.1455 7.18745C36.9193 7.654 34.6212 7.65994 32.3927 7.20492C30.1641 6.74989 28.0523 5.84352 26.1872 4.54162C25.8384 4.29969 25.4241 4.17004 24.9997 4.17004C24.5752 4.17004 24.1609 4.29969 23.8122 4.54162C21.9471 5.84352 19.8353 6.74989 17.6067 7.20492C15.3781 7.65994 13.08 7.654 10.8539 7.18745C10.5496 7.12174 10.2344 7.12506 9.93156 7.19717C9.62872 7.26927 9.34589 7.40833 9.10385 7.60412C8.86214 7.8002 8.66744 8.04794 8.53405 8.32915C8.40065 8.61036 8.33196 8.91788 8.33302 9.22912V24.75C8.33117 27.7369 9.04296 30.6811 10.4091 33.3374C11.7753 35.9936 13.7563 38.285 16.1872 40.0208L23.7914 45.4375C24.1442 45.6887 24.5666 45.8237 24.9997 45.8237C25.4328 45.8237 25.8552 45.6887 26.208 45.4375L33.8122 40.0208C36.2431 38.285 38.2241 35.9936 39.5902 33.3374C40.9564 30.6811 41.6682 27.7369 41.6664 24.75V9.22912C41.6674 8.91788 41.5987 8.61036 41.4653 8.32915C41.3319 8.04794 41.1372 7.8002 40.8955 7.60412ZM37.4997 24.75C37.5013 27.0724 36.9482 29.3616 35.8865 31.4271C34.8247 33.4926 33.285 35.2746 31.3955 36.625L24.9997 41.1875L18.6039 36.625C16.7143 35.2746 15.1747 33.4926 14.1129 31.4271C13.0512 29.3616 12.4981 27.0724 12.4997 24.75V11.625C16.8672 11.9988 21.2414 10.9854 24.9997 8.72912C28.7579 10.9854 33.1321 11.9988 37.4997 11.625V24.75ZM28.208 19.9791L22.6039 25.6041L20.7497 23.7291C20.3574 23.3368 19.8253 23.1164 19.2705 23.1164C18.7157 23.1164 18.1837 23.3368 17.7914 23.7291C17.3991 24.1214 17.1787 24.6535 17.1787 25.2083C17.1787 25.7631 17.3991 26.2952 17.7914 26.6875L21.1247 30.0208C21.3184 30.2161 21.5488 30.371 21.8027 30.4768C22.0565 30.5826 22.3288 30.637 22.6039 30.637C22.8789 30.637 23.1512 30.5826 23.4051 30.4768C23.6589 30.371 23.8893 30.2161 24.083 30.0208L31.2497 22.9166C31.642 22.5243 31.8624 21.9922 31.8624 21.4374C31.8624 20.8827 31.642 20.3506 31.2497 19.9583C30.8574 19.566 30.3253 19.3456 29.7705 19.3456C29.2157 19.3456 28.6837 19.566 28.2914 19.9583L28.208 19.9791Z" fill="#3F3F40"/>
</svg>
