<svg width="56" height="64" viewBox="0 0 56 64" fill="none" xmlns="http://www.w3.org/2000/svg">
<path d="M46.7202 18.9705C46.7202 18.9705 46.7202 18.9543 46.7065 18.9543C46.6928 18.9543 46.7156 18.9636 46.7202 18.9705Z" fill="url(#paint0_linear_131_17)"/>
<path d="M24.7786 42.0706L12.5213 19.0334L12.4851 19.0719L12.1146 19.4432H12.1039L11.9762 19.5457L11.7334 19.8125C11.6887 19.8594 11.6418 19.9042 11.595 19.9512L11.382 20.1475L11.3373 20.1923L11.2905 20.2393L11.2436 20.2841L11.0009 20.5509L10.8603 20.7024L10.5835 20.95L10.5366 20.997L10.2364 21.3064L9.83817 21.697L9.79133 21.744L9.49533 22.0513L9.35052 22.1943L9.09286 22.444L9.04601 22.4909L8.99916 22.5379L8.73085 22.8175L8.684 22.8644L8.63715 22.9114L8.35819 23.191L8.31134 23.2379L8.26449 23.2849L7.98553 23.5645L7.93868 23.6114L7.89183 23.6584L7.61287 23.938L7.56602 23.9849L7.26577 24.2944L6.86756 24.685L6.82071 24.7319L6.52258 25.0392L6.37991 25.1822L6.12011 25.432C6.10558 25.4487 6.08993 25.4643 6.07326 25.4789L5.77727 25.7862L5.63459 25.9292L5.37479 26.1789C5.36026 26.1956 5.34461 26.2113 5.32795 26.2259L5.02769 26.5354L4.62948 26.9259C4.61457 26.943 4.59754 26.9579 4.58263 26.9729L4.25682 27.3016L4.20997 27.3464L3.88416 27.6729C3.86926 27.69 3.85222 27.7049 3.83731 27.7199C3.82278 27.7366 3.80713 27.7523 3.79047 27.7668L3.69677 27.8586L3.53919 28.0272L3.37522 28.1894L3.32837 28.2364L3.28152 28.2833L3.23467 28.3303L3.14311 28.4242L3.09626 28.469L3.05154 28.5138L2.98127 28.5992L2.796 28.7891L2.70656 28.883L2.56176 29.0666L2.51278 29.1157L2.45741 29.1648L2.42121 29.2075L2.37649 29.2608L2.3339 29.3078C2.30196 29.3526 2.27002 29.3974 2.23595 29.4401L2.19336 29.4892L2.09114 29.6663L2.04217 29.7154L1.76746 30.0953L1.6759 30.2362L1.58433 30.377L1.53109 30.4667C1.46767 30.5531 1.41005 30.6436 1.35861 30.7377C1.13288 31.2115 0.890121 31.6811 0.696338 32.1677C0.265909 33.2509 0.0301603 34.402 0 35.5675C0 35.956 0 36.3444 0 36.7329V36.7841C0.0319421 37.0914 0.0532369 37.3987 0.0979559 37.7018C0.291114 39.0325 0.730964 40.3152 1.39481 41.4837C1.83432 42.2714 2.37641 42.997 3.00682 43.6414C8.75498 49.4082 14.5046 55.1707 20.2556 60.9289C21.036 61.6994 21.9338 62.3406 22.9153 62.8284C23.8301 63.2942 24.8068 63.6262 25.8156 63.8145C26.118 63.8721 26.4225 63.9233 26.7292 63.9596C26.9677 63.9895 27.2083 63.9916 27.4468 64.0044L28.2006 63.9852C28.6238 63.9708 29.046 63.9352 29.4655 63.8785C30.3193 63.7412 31.1555 63.5108 31.9592 63.1912C32.4767 62.9817 32.9754 62.7282 33.4498 62.4336C29.9781 58.1679 27.4284 53.2258 25.9626 47.9206C25.446 45.9974 25.0506 44.0436 24.7786 42.0706Z" fill="white"/>
<path d="M55.5795 34.7138C55.5099 34.0669 55.3714 33.4294 55.1664 32.8121C54.8552 31.7958 54.3875 30.8345 53.7801 29.9629L53.5437 29.6342L53.5011 29.5745C53.5021 29.569 53.5016 29.5633 53.4998 29.5581C53.4979 29.5529 53.4947 29.5482 53.4905 29.5446L53.318 29.3482C53.2988 29.3205 53.2818 29.2906 53.2648 29.2607L53.2179 29.2116L53.1285 29.1028C53.1287 29.0978 53.1276 29.0928 53.1254 29.0884C53.1231 29.0839 53.1198 29.08 53.1157 29.0772L53.0284 28.9811L52.9368 28.8851L52.8027 28.74L52.7452 28.6567L52.611 28.5137L52.5258 28.4582L52.479 28.4134L52.4215 28.3302L52.2809 28.1893L52.2362 28.1424L52.151 28.0869L52.1063 28.0421L52.051 27.9588L52.0062 27.9119L51.8657 27.771L51.7805 27.7155L51.7337 27.6707L51.6762 27.5875L51.5356 27.4466L51.4909 27.3997L51.4057 27.3442L51.361 27.2993L51.3056 27.2161L51.2609 27.1692L51.1183 27.0283L51.0352 26.9728L50.9884 26.928L50.9309 26.8447L50.7903 26.7018L50.7456 26.6569C50.7158 26.6399 50.6881 26.6206 50.6604 26.6014L50.6157 26.5566L50.5603 26.4734L50.5156 26.4264L50.3729 26.2856L50.2899 26.2301L50.2452 26.1853L50.1898 26.102L50.0493 25.959L50.0045 25.9142L49.9194 25.8587L49.8746 25.8139L49.8193 25.7307L49.634 25.5429C49.5637 25.4575 49.5233 25.387 49.6574 25.3102C49.7912 25.2184 49.9199 25.1194 50.0429 25.0136L50.094 24.9709L50.1919 24.8812L50.2878 24.83C50.7688 24.4884 51.1843 24.0625 51.5143 23.5729C51.8477 23.1051 51.9874 22.5261 51.904 21.9573C51.8096 21.4098 51.5179 20.9161 51.0842 20.57L51.0373 20.5209L50.9798 20.4377L50.8968 20.3822L50.8457 20.3353L50.7499 20.2435L50.703 20.1923L50.6093 20.1453L50.473 20.0066C50.3644 19.9276 50.2601 19.8486 50.1451 19.7718C49.794 19.4875 49.4056 19.2527 48.9909 19.0739C48.6459 18.901 48.3052 18.7154 47.9539 18.5596C47.6366 18.4187 47.315 18.3098 46.9807 18.1882C46.4888 18.0175 45.999 17.8446 45.5028 17.6824C45.2899 17.6162 45.0769 17.5799 44.881 17.5308L44.4104 17.4028C44.4041 17.3998 44.3972 17.3982 44.3902 17.3982C44.3832 17.3982 44.3763 17.3998 44.37 17.4028L44.3146 17.3622L44.2933 17.3089L44.2699 17.2641C44.2422 17.1936 44.2188 17.1189 44.1847 17.0506C43.907 16.454 43.5064 15.923 43.0092 15.4926L42.9304 15.4307L42.8303 15.3454L42.7792 15.3048L42.5918 15.1661L42.5067 15.1085L42.3619 15.021L42.1234 14.8886L41.9956 14.8331L41.8976 14.7926L41.7635 14.7392C41.5154 14.6202 41.2442 14.5576 40.9692 14.5557H40.9117L40.686 14.513H40.2175C39.7916 14.5685 39.387 14.6197 38.9717 14.6816C38.9272 14.6895 38.8814 14.6861 38.8386 14.6715C38.7958 14.657 38.7574 14.6318 38.7268 14.5984L38.6843 14.5536L38.6417 14.5109L38.5991 14.4682L38.4628 14.3316C38.4138 14.2718 38.3691 14.2099 38.3158 14.1566L37.0999 12.9379C38.2584 10.6799 40.9521 6.72296 45.1919 2.30931C40.6753 5.6665 35.1685 6.53941 30.9244 4.37955C29.0984 3.42927 27.5622 2.00246 26.4781 0.249756C26.5697 0.917779 26.9466 4.14264 24.8128 6.5074C23.2647 8.22548 21.2183 8.57763 19.4402 8.88496C17.308 9.24302 15.1222 9.10501 13.0518 8.48159C14.6002 9.3037 16.0337 10.327 17.315 11.525C17.7765 11.9531 18.2038 12.417 18.5927 12.9123L18.1263 13.3797L18.0347 13.4736L17.9879 13.5206L17.941 13.5675L17.8473 13.6614C17.6514 13.8727 17.4619 14.0712 17.249 14.274L17.2021 14.3209L17.1105 14.4148L16.987 14.5386C17.7281 15.5631 18.8248 17.1339 20.0513 19.1123C24.1932 25.7862 25.95 30.8678 26.806 32.7097C28.8354 37.0721 34.6191 42.1602 51.5356 44.7533L52.0872 44.2005C52.1468 44.1334 52.2016 44.0621 52.2511 43.9871C52.3597 43.8825 52.4641 43.7737 52.5812 43.6734C52.791 43.4731 52.9873 43.2593 53.1689 43.0331C53.4543 42.6788 53.712 42.301 53.9654 41.9233L54.0079 41.8763C54.0189 41.8657 54.027 41.8525 54.0314 41.8379L54.0974 41.7355C54.1023 41.7319 54.1062 41.727 54.1084 41.7213C54.1107 41.7157 54.1113 41.7095 54.1102 41.7034L54.1506 41.6437L54.338 41.3129C54.3785 41.2467 54.4211 41.1848 54.4573 41.1165C55.0702 39.9239 55.4579 38.628 55.6008 37.2941C55.6824 36.4355 55.6753 35.5708 55.5795 34.7138ZM46.7188 18.9693C46.7188 18.9693 46.7188 18.9544 46.706 18.9544C46.6932 18.9544 46.7145 18.9629 46.7188 18.9693Z" fill="white"/>
<path d="M16.9844 14.5386L16.6416 14.8801L16.6182 14.9035L21.3562 18.5488C19.9916 17.1141 18.5309 15.7742 16.9844 14.5386Z" fill="url(#paint1_linear_131_17)"/>
<path d="M20.3132 24.0766C18.6023 21.5042 16.2679 19.4091 13.5287 17.9875L12.6365 18.9053L12.5215 19.0333L24.7787 42.0705C23.7949 35.3327 23.9717 29.551 20.3132 24.0766Z" fill="white"/>
<path d="M25.9794 47.9163C27.4453 53.2215 29.9949 58.1636 33.4667 62.4293C34.0121 62.0924 34.5286 61.7105 35.0105 61.2874L24.7891 42.0791C25.0637 44.0479 25.4613 45.9974 25.9794 47.9163Z" fill="url(#paint2_linear_131_17)"/>
<path d="M25.9794 47.9163C27.4453 53.2215 29.9949 58.1636 33.4667 62.4293C34.0121 62.0924 34.5286 61.7105 35.0105 61.2874L24.7891 42.0791C25.0637 44.0479 25.4613 45.9974 25.9794 47.9163Z" fill="white"/>
<path d="M31.0324 33.5335C28.8475 30.0546 27.1759 24.6763 21.3561 18.5488C19.9912 17.1143 18.5305 15.7745 16.9842 14.5386L16.6414 14.8801L16.618 14.9035L16.5477 14.974L16.503 15.0209L16.4561 15.0679L16.3646 15.1618L15.8982 15.6292L15.8066 15.7231L15.7619 15.7679L15.3871 16.182L15.0123 16.5149L14.267 17.264C14.0945 17.4284 13.9178 17.5884 13.7496 17.757L13.5238 17.9875L12.6316 18.9053L12.5166 19.0333C14.3863 20.5145 16.9395 22.9689 18.5771 26.6462C21.0835 32.2785 18.79 34.8482 20.5745 42.3629C21.0984 44.5847 22.6742 50.9127 27.9745 56.2548C30.0232 58.3101 32.3978 60.0107 35.0017 61.2874C35.2338 61.0739 35.4745 60.8605 35.7172 60.6193C35.96 60.3782 36.1772 60.1477 36.3987 59.9001L36.4391 59.851C36.6521 59.6376 36.865 59.4434 37.078 59.2321C39.1393 57.169 41.1978 55.1058 43.2534 53.0427C43.3131 52.983 43.3663 52.9168 43.4238 52.8549L43.4707 52.808L43.5175 52.7631L43.5643 52.7183L43.6112 52.6714L43.658 52.6244L43.7028 52.5775L43.7475 52.5305L43.7922 52.4836L43.8369 52.4366L43.8838 52.3896L43.9306 52.3448L43.9775 52.2957L44.0243 52.2488L44.0712 52.2018L44.118 52.1549L44.1627 52.1079L44.2075 52.061L44.299 51.9692L44.3459 51.9222L44.397 51.8753L44.4396 51.8326L44.4864 51.7814L44.5333 51.7344L44.5801 51.6875L44.6184 51.6384C44.6227 51.6267 44.6227 51.6138 44.6184 51.6021L44.7121 51.5487L44.7526 51.4997C44.7567 51.4872 44.7567 51.4737 44.7526 51.4612L44.8463 51.4079L44.8931 51.3609L44.9379 51.314C44.9552 51.2994 44.9716 51.2837 44.9868 51.267L45.0316 51.2201L45.0784 51.1731L45.1253 51.1262L45.17 51.0813L45.219 51.0365L45.3084 50.9447L45.3552 50.8957L45.4021 50.8487L45.4489 50.8018L45.4958 50.7527L45.5426 50.7036L45.5916 50.6566L45.6832 50.5648L45.7279 50.5158L45.7747 50.4688L45.8216 50.4219L45.8684 50.3749L46.0069 50.2362L46.0516 50.1892L46.0984 50.1423L46.1453 50.0953C46.1815 50.0654 46.2177 50.0377 46.2517 50.0057C48.0249 48.2556 49.7853 46.5048 51.5328 44.7533C39.003 42.4333 33.6112 37.6376 31.0324 33.5335ZM37.6338 42.8943C37.6438 42.8636 37.6516 42.8322 37.6572 42.8004C37.6491 42.8339 37.6384 42.8667 37.6252 42.8986L37.6338 42.8943Z" fill="white"/>
<path d="M40.0829 22.0233C40.7079 21.8012 41.2468 21.3866 41.6225 20.8388C42.0867 20.1772 42.1868 19.4345 42.125 18.6597C42.0585 18.071 41.8214 17.5148 41.4429 17.0596C41.0645 16.6045 40.5613 16.2704 39.9956 16.0986C40.0786 17.138 39.6442 17.8743 38.6476 18.1689C37.7426 18.4378 37.025 18.0792 36.4968 17.281C36.1073 17.8026 35.8986 18.4376 35.9024 19.0891C35.9062 19.7407 36.1225 20.3731 36.5181 20.89C36.9002 21.4514 37.459 21.8681 38.1053 22.0736C38.7515 22.279 39.4478 22.2613 40.0829 22.0233Z" fill="white"/>
<path d="M18.0434 29.2202L18.0902 29.1733L19.2614 28.0144L20.0067 27.2695C20.0834 27.1927 20.1558 27.1116 20.2197 27.0326L20.2665 26.9792C20.2797 27.0251 20.2868 27.0724 20.2878 27.1201C20.2516 27.3677 20.2069 27.6153 20.1664 27.8607V27.9375L20.0302 28.5607L19.979 28.7742L19.2124 32.1634C19.1954 32.206 19.1741 32.2466 19.1592 32.2914C18.9867 32.8591 18.8291 33.4332 18.6375 33.9988C18.4927 34.4257 18.301 34.8312 18.1307 35.2452C17.9773 35.5099 17.8347 35.7831 17.6643 36.037C17.4514 36.37 17.1958 36.6773 16.9594 37.0145L16.9083 37.0615C16.8643 37.1212 16.8166 37.1783 16.7657 37.2322L15.8883 38.0347C15.8266 38.0795 15.7627 38.1222 15.7009 38.1692L14.3104 39.1915L12.1383 37.0167L11.5335 36.4063C11.393 36.0562 11.5016 35.7916 11.7614 35.5312C13.7489 33.5535 15.7293 31.5707 17.7026 29.583C17.7559 29.5276 17.8048 29.4678 17.8581 29.4102L17.9049 29.3611L17.9518 29.3141L17.9986 29.2672L18.0434 29.2202Z" fill="#2D2D2D"/>
<path d="M39.2762 31.188C39.881 31.8005 40.4836 32.4109 41.0905 33.0213C41.9523 33.8878 42.8168 34.7543 43.6842 35.6208C43.7162 35.6529 43.7524 35.6806 43.7865 35.7126L43.8461 35.8065C43.9036 35.9428 43.9153 36.0941 43.8796 36.2377C43.8439 36.3813 43.7626 36.5093 43.648 36.6026C41.8493 38.3996 40.0521 40.201 38.2562 42.0065C38.2045 42.0627 38.1562 42.1218 38.1114 42.1837L37.5066 42.7919L37.2724 43.0267L37.1936 43.0843C37.1365 42.9775 37.0901 42.8653 37.0552 42.7493C36.8678 41.9361 36.6761 41.123 36.5164 40.3034C36.4276 39.8567 36.3756 39.4034 36.361 38.9482C36.3279 38.307 36.3522 37.6642 36.4334 37.0273C36.5334 36.3134 36.7068 35.6118 36.9508 34.9336C37.3979 33.7887 38.0161 32.7185 38.7843 31.76C38.9334 31.5636 39.1101 31.3737 39.2762 31.188Z" fill="#2D2D2D"/>
<path d="M50.7478 21.6841C50.6669 21.5453 50.5668 21.4173 50.4731 21.285L50.3326 21.142L50.2793 21.0609L50.1005 20.9115L48.7014 19.9767C48.6787 19.9789 48.6559 19.9789 48.6333 19.9767C48.037 19.7134 47.4415 19.4495 46.8466 19.1848C46.8087 19.1614 46.7743 19.1326 46.7444 19.0995C46.6612 19.0901 46.5786 19.0751 46.4974 19.0547C46.3292 19.0013 46.1631 18.9373 45.9948 18.8818L44.6767 18.4549L44.6064 18.44L44.4616 18.3973C44.0677 18.2991 43.6694 18.2052 43.2776 18.1006C43.2308 18.09 43.1861 18.0238 43.1669 17.9726C43.054 17.6951 42.9539 17.4134 42.8411 17.1317C42.8359 17.1264 42.8321 17.12 42.8299 17.1129C42.8276 17.1059 42.8271 17.0984 42.8283 17.0911L42.8028 17.0314C42.7995 17.0275 42.7976 17.0226 42.7976 17.0175C42.7976 17.0124 42.7995 17.0075 42.8028 17.0036L42.6111 16.707L42.5387 16.6088C42.1288 16.0796 41.6177 15.6377 41.0353 15.309L40.982 15.2621L40.8436 15.2066L40.7457 15.1618L40.6051 15.1084L40.3517 15.0166H40.3389L39.2742 14.8502H39.221H38.9271L38.8654 14.8672L37.8006 15.0209C37.7992 15.0227 37.7974 15.0241 37.7954 15.0251C37.7934 15.0261 37.7912 15.0266 37.7889 15.0266C37.7866 15.0266 37.7844 15.0261 37.7824 15.0251C37.7804 15.0241 37.7786 15.0227 37.7772 15.0209L37.6622 15.0657L37.5174 15.1191H37.5004L37.2874 15.2087C37.2651 15.2289 37.2408 15.2467 37.215 15.2621C36.4562 15.6259 35.8197 16.2037 35.3837 16.9247C35.3662 16.9583 35.3395 16.9863 35.3066 17.0052C35.2738 17.0241 35.2362 17.0332 35.1984 17.0314C34.913 17.0314 34.6298 17.0591 34.3466 17.0741C34.1975 17.0741 34.0485 17.0911 33.8994 17.1039C34.1975 16.2673 34.5383 15.3965 34.9642 14.5151C36.9137 10.343 39.7479 6.64732 43.2691 3.68586C38.8526 7.3141 33.2755 7.837 29.7512 5.31217C27.4705 3.69013 26.6443 1.2272 26.3334 0C26.393 0.34575 27.198 5.45943 23.9697 8.05042C22.2661 9.41421 20.1643 9.51025 18.7525 9.57428C16.797 9.65543 14.8495 9.2814 13.0625 8.48154C15.3432 9.77704 19.3956 12.5366 22.1426 17.5628C22.7935 18.7547 23.3331 20.0043 23.7546 21.2956C23.6353 21.4237 23.5204 21.5581 23.4054 21.6926C23.1094 22.0341 22.8219 22.3841 22.5323 22.7298L22.2959 23.1033L22.2427 23.1866C22.2398 23.1934 22.2345 23.199 22.2278 23.2021C22.2212 23.2053 22.2135 23.2058 22.2065 23.2037C22.1617 23.2912 22.1192 23.3829 22.068 23.4683C21.4653 24.4903 20.9605 25.5672 20.5604 26.6846L20.5263 26.738V26.8724V27.1051V27.2033C20.5263 27.5597 20.5157 27.9161 20.5093 28.2704V28.5521C20.5093 28.7655 20.4922 28.9619 20.4773 29.1668C20.4773 29.2628 20.4518 29.3589 20.4369 29.4528C20.4217 30.1108 20.3605 30.7669 20.2537 31.4163C20.1619 32.16 20.0196 32.8966 19.8278 33.621C19.7554 33.8856 19.6554 34.1439 19.568 34.4064C19.5584 34.4471 19.552 34.4885 19.5489 34.5302C19.3283 35.2782 19.0028 35.9911 18.5821 36.6473L18.3841 37.0059L18.3351 37.0913L18.2989 37.1446C17.9764 37.7455 17.5978 38.3143 17.1681 38.8435L17.0276 39.027L16.985 39.0761L16.8892 39.2106L16.8466 39.2597L16.8019 39.3088L16.7018 39.4368L16.2418 39.9618L15.7584 40.4719C15.8063 40.5464 15.8589 40.6177 15.916 40.6854L21.2652 46.0488C23.2691 48.055 25.2772 50.0569 27.2704 52.0759C27.3389 52.158 27.4246 52.224 27.5214 52.2693C27.6181 52.3146 27.7236 52.338 27.8304 52.338C27.9372 52.338 28.0427 52.3146 28.1395 52.2693C28.2362 52.224 28.3219 52.158 28.3905 52.0759C28.6247 51.8155 28.8802 51.5765 29.1315 51.3332C29.1885 51.2833 29.2506 51.2397 29.3168 51.203C29.617 50.8871 29.913 50.5627 30.2176 50.2532C30.5221 49.9438 30.8777 49.581 31.2099 49.2459C32.1738 48.2798 33.1385 47.3122 34.1038 46.3433C34.1644 46.2758 34.2206 46.2045 34.2721 46.1299C34.2039 45.4896 34.1102 44.8365 34.0762 44.1898C34.0357 43.3532 34.0187 42.5144 34.0378 41.6778C34.0591 41.0815 34.1167 40.4871 34.2103 39.8978C34.3125 39.2042 34.4233 38.5063 34.5915 37.8233C35.0164 36.0261 35.7796 34.3267 36.8402 32.8164C37.625 31.6732 38.6353 30.7035 39.8087 29.9671C40.1814 29.7388 40.5924 29.568 40.9863 29.3695L41.5868 29.1561L41.951 29.0259L42.0894 28.979L42.2278 28.9299L42.3705 28.8808L42.5004 28.8338C42.5408 28.8125 42.5792 28.7847 42.6196 28.7677C43.0902 28.5884 43.5651 28.4176 44.0315 28.2298C45.4368 27.6878 46.7909 27.0207 48.0775 26.2364C48.531 25.9526 48.9612 25.6346 49.402 25.3336L49.9237 24.8662C49.9961 24.7873 50.0707 24.7104 50.1367 24.6293C50.428 24.3298 50.6696 23.9853 50.8522 23.6092C50.9988 23.3057 51.0662 22.9698 51.048 22.6331C51.0297 22.2964 50.9264 21.9698 50.7478 21.6841ZM41.6315 20.8304C41.2572 21.3785 40.7188 21.7932 40.0941 22.0149C39.4579 22.2558 38.7594 22.2752 38.1109 22.07C37.4623 21.8649 36.9015 21.447 36.5187 20.8837C36.1257 20.3681 35.9109 19.7383 35.9067 19.0895C35.9025 18.4407 36.1091 17.8082 36.4952 17.2875C37.0255 18.0857 37.7431 18.4443 38.6481 18.1753C39.6426 17.8808 40.0792 17.1445 39.994 16.1051C40.5621 16.2748 41.068 16.6079 41.4488 17.0632C41.8297 17.5185 42.0687 18.0759 42.1362 18.6662C42.198 19.4346 42.0979 20.1773 41.6315 20.8389V20.8304Z" fill="#2D2D2D"/>
<path d="M22.1469 17.5628C22.6473 18.4763 23.0647 19.4495 23.0647 19.4495C23.3564 20.1325 23.58 20.7557 23.7546 21.2956C26.6587 18.5814 30.4822 17.0727 34.4531 17.0741H34.3573C34.2061 17.0741 34.057 17.0911 33.9079 17.1039C34.2061 16.2673 34.5468 15.3965 34.9727 14.5151C36.9216 10.3425 39.7559 6.64675 43.2776 3.68586C38.8611 7.3141 33.2861 7.837 29.7619 5.31217C27.4982 3.69013 26.6635 1.2272 26.3547 0C26.4143 0.34575 27.2214 5.45943 23.9931 8.05042C22.2895 9.41421 20.1856 9.51025 18.7759 9.57428C16.8205 9.65566 14.8728 9.28162 13.0859 8.48154C15.3496 9.77704 19.402 12.5324 22.1469 17.5628Z" fill="#FFE400"/>
<defs>
<linearGradient id="paint0_linear_131_17" x1="40.646" y1="23.0884" x2="52.8579" y2="14.9559" gradientUnits="userSpaceOnUse">
<stop stop-color="#4C4C4C"/>
<stop offset="0.85" stop-color="#4C4C4C"/>
<stop offset="1" stop-color="#4C4C4C"/>
</linearGradient>
<linearGradient id="paint1_linear_131_17" x1="11.9802" y1="21.3938" x2="58.2202" y2="-9.65318" gradientUnits="userSpaceOnUse">
<stop stop-color="#4C4C4C"/>
<stop offset="0.85" stop-color="#4C4C4C"/>
<stop offset="1" stop-color="#4C4C4C"/>
</linearGradient>
<linearGradient id="paint2_linear_131_17" x1="31.5842" y1="50.5927" x2="77.8264" y2="19.5457" gradientUnits="userSpaceOnUse">
<stop stop-color="#4C4C4C"/>
<stop offset="0.85" stop-color="#4C4C4C"/>
<stop offset="1" stop-color="#4C4C4C"/>
</linearGradient>
</defs>
</svg>
