<svg width="56" height="64" viewBox="0 0 56 64" fill="none" xmlns="http://www.w3.org/2000/svg">
<path d="M46.7198 18.9705C46.7198 18.9705 46.7198 18.9543 46.7061 18.9543C46.6924 18.9543 46.7153 18.9636 46.7198 18.9705Z" fill="url(#paint0_linear_1_79)"/>
<path d="M24.7786 42.0705L12.5213 19.0333L12.4851 19.0717L12.1146 19.4431H12.1039L11.9762 19.5455L11.7334 19.8123C11.6887 19.8593 11.6418 19.9041 11.595 19.9511L11.382 20.1474L11.3373 20.1922L11.2905 20.2392L11.2436 20.284L11.0009 20.5508L10.8603 20.7023L10.5835 20.9499L10.5366 20.9968L10.2364 21.3063L9.83817 21.6969L9.79133 21.7438L9.49533 22.0512L9.35052 22.1942L9.09286 22.4439L9.04601 22.4908L8.99916 22.5378L8.73085 22.8174L8.684 22.8643L8.63715 22.9113L8.35819 23.1909L8.31134 23.2378L8.26449 23.2848L7.98553 23.5644L7.93868 23.6113L7.89183 23.6583L7.61287 23.9379L7.56602 23.9848L7.26577 24.2943L6.86756 24.6848L6.82071 24.7318L6.52258 25.0391L6.37991 25.1821L6.12011 25.4318C6.10558 25.4485 6.08993 25.4642 6.07326 25.4788L5.77727 25.7861L5.63459 25.9291L5.37479 26.1788C5.36026 26.1955 5.34461 26.2112 5.32795 26.2258L5.02769 26.5352L4.62948 26.9258C4.61457 26.9429 4.59754 26.9578 4.58263 26.9728L4.25682 27.3014L4.20997 27.3463L3.88416 27.6728C3.86926 27.6899 3.85222 27.7048 3.83731 27.7198C3.82278 27.7365 3.80713 27.7521 3.79047 27.7667L3.69677 27.8585L3.53919 28.0271L3.37522 28.1893L3.32837 28.2362L3.28152 28.2832L3.23467 28.3302L3.14311 28.4241L3.09626 28.4689L3.05154 28.5137L2.98127 28.5991L2.796 28.789L2.70656 28.8829L2.56176 29.0665L2.51278 29.1156L2.45741 29.1646L2.42121 29.2073L2.37649 29.2607L2.3339 29.3076C2.30196 29.3525 2.27002 29.3973 2.23595 29.44L2.19336 29.4891L2.09114 29.6662L2.04217 29.7153L1.76746 30.0952L1.6759 30.236L1.58433 30.3769L1.53109 30.4665C1.46767 30.553 1.41005 30.6435 1.35861 30.7376C1.13288 31.2114 0.890121 31.6809 0.696338 32.1676C0.265909 33.2508 0.0301603 34.4018 0 35.5674C0 35.9559 0 36.3443 0 36.7327V36.784C0.0319421 37.0913 0.0532369 37.3986 0.0979559 37.7017C0.291114 39.0323 0.730964 40.315 1.39481 41.4836C1.83432 42.2713 2.37641 42.9969 3.00682 43.6413C8.75498 49.4081 14.5046 55.1706 20.2556 60.9288C21.036 61.6993 21.9338 62.3405 22.9153 62.8283C23.8301 63.2941 24.8068 63.6261 25.8156 63.8143C26.118 63.872 26.4225 63.9232 26.7292 63.9595C26.9677 63.9893 27.2083 63.9915 27.4468 64.0043L28.2006 63.9851C28.6238 63.9707 29.046 63.9351 29.4655 63.8784C30.3193 63.7411 31.1555 63.5107 31.9592 63.1911C32.4767 62.9816 32.9754 62.7281 33.4498 62.4335C29.9781 58.1678 27.4284 53.2257 25.9626 47.9205C25.446 45.9973 25.0506 44.0434 24.7786 42.0705Z" fill="#606060"/>
<path d="M55.5793 34.7138C55.5097 34.0669 55.3712 33.4294 55.1661 32.8121C54.855 31.7958 54.3872 30.8345 53.7799 29.9629L53.5435 29.6342L53.5009 29.5745C53.5019 29.569 53.5014 29.5633 53.4995 29.5581C53.4977 29.5529 53.4945 29.5482 53.4902 29.5446L53.3178 29.3482C53.2986 29.3205 53.2816 29.2906 53.2645 29.2607L53.2177 29.2116L53.1282 29.1028C53.1284 29.0978 53.1273 29.0928 53.1251 29.0884C53.1229 29.0839 53.1196 29.08 53.1155 29.0772L53.0282 28.9811L52.9366 28.8851L52.8024 28.74L52.7449 28.6567L52.6108 28.5137L52.5256 28.4582L52.4787 28.4134L52.4213 28.3302L52.2807 28.1893L52.236 28.1424L52.1508 28.0869L52.1061 28.0421L52.0507 27.9588L52.006 27.9119L51.8655 27.771L51.7803 27.7155L51.7334 27.6707L51.6759 27.5875L51.5354 27.4466L51.4907 27.3997L51.4055 27.3442L51.3608 27.2993L51.3054 27.2161L51.2607 27.1692L51.118 27.0283L51.035 26.9728L50.9881 26.928L50.9306 26.8447L50.7901 26.7018L50.7454 26.6569C50.7155 26.6399 50.6879 26.6206 50.6602 26.6014L50.6155 26.5566L50.5601 26.4734L50.5154 26.4264L50.3727 26.2856L50.2896 26.2301L50.2449 26.1853L50.1896 26.102L50.049 25.959L50.0043 25.9142L49.9191 25.8587L49.8744 25.8139L49.819 25.7307L49.6338 25.5429C49.5635 25.4575 49.523 25.387 49.6572 25.3102C49.791 25.2184 49.9196 25.1194 50.0426 25.0136L50.0937 24.9709L50.1917 24.8812L50.2875 24.83C50.7685 24.4884 51.1841 24.0625 51.5141 23.5729C51.8475 23.1051 51.9871 22.5261 51.9038 21.9573C51.8094 21.4098 51.5176 20.9161 51.0839 20.57L51.0371 20.5209L50.9796 20.4377L50.8965 20.3822L50.8454 20.3353L50.7496 20.2435L50.7028 20.1923L50.6091 20.1453L50.4728 20.0066C50.3642 19.9276 50.2598 19.8486 50.1448 19.7718C49.7937 19.4875 49.4054 19.2527 48.9907 19.0739C48.6457 18.901 48.305 18.7154 47.9536 18.5596C47.6363 18.4187 47.3148 18.3098 46.9804 18.1882C46.4885 18.0175 45.9987 17.8446 45.5026 17.6824C45.2896 17.6162 45.0767 17.5799 44.8808 17.5308L44.4102 17.4028C44.4039 17.3998 44.3969 17.3982 44.3899 17.3982C44.3829 17.3982 44.376 17.3998 44.3697 17.4028L44.3143 17.3622L44.293 17.3089L44.2696 17.2641C44.2419 17.1936 44.2185 17.1189 44.1844 17.0506C43.9067 16.454 43.5061 15.923 43.009 15.4926L42.9302 15.4307L42.8301 15.3454L42.779 15.3048L42.5916 15.1661L42.5064 15.1085L42.3616 15.021L42.1231 14.8886L41.9953 14.8331L41.8974 14.7926L41.7632 14.7392C41.5152 14.6202 41.2439 14.5576 40.9689 14.5557H40.9114L40.6857 14.513H40.2172C39.7913 14.5685 39.3867 14.6197 38.9715 14.6816C38.927 14.6895 38.8812 14.6861 38.8384 14.6715C38.7956 14.657 38.7571 14.6318 38.7266 14.5984L38.684 14.5536L38.6414 14.5109L38.5988 14.4682L38.4625 14.3316C38.4136 14.2718 38.3688 14.2099 38.3156 14.1566L37.0997 12.9379C38.2581 10.6799 40.9519 6.72296 45.1917 2.30931C40.6751 5.6665 35.1682 6.53941 30.9242 4.37955C29.0981 3.42927 27.562 2.00246 26.4779 0.249756C26.5694 0.917779 26.9463 4.14264 24.8126 6.5074C23.2645 8.22548 21.2181 8.57763 19.4399 8.88496C17.3078 9.24302 15.122 9.10501 13.0515 8.48159C14.6 9.3037 16.0334 10.327 17.3147 11.525C17.7763 11.9531 18.2035 12.417 18.5924 12.9123L18.1261 13.3797L18.0345 13.4736L17.9876 13.5206L17.9408 13.5675L17.8471 13.6614C17.6512 13.8727 17.4617 14.0712 17.2487 14.274L17.2019 14.3209L17.1103 14.4148L16.9868 14.5386C17.7278 15.5631 18.8245 17.1339 20.0511 19.1123C24.1929 25.7862 25.9497 30.8678 26.8058 32.7097C28.8352 37.0721 34.6188 42.1602 51.5354 44.7533L52.0869 44.2005C52.1466 44.1334 52.2014 44.0621 52.2509 43.9871C52.3595 43.8825 52.4638 43.7737 52.581 43.6734C52.7907 43.4731 52.9871 43.2593 53.1687 43.0331C53.454 42.6788 53.7117 42.301 53.9651 41.9233L54.0077 41.8763C54.0187 41.8657 54.0267 41.8525 54.0311 41.8379L54.0971 41.7355C54.1021 41.7319 54.1059 41.727 54.1082 41.7213C54.1105 41.7157 54.1111 41.7095 54.1099 41.7034L54.1504 41.6437L54.3378 41.3129C54.3782 41.2467 54.4208 41.1848 54.457 41.1165C55.07 39.9239 55.4577 38.628 55.6006 37.2941C55.6822 36.4355 55.675 35.5708 55.5793 34.7138ZM46.7185 18.9693C46.7185 18.9693 46.7185 18.9544 46.7057 18.9544C46.693 18.9544 46.7143 18.9629 46.7185 18.9693Z" fill="#2D2D2D"/>
<path d="M16.9847 14.5386L16.6418 14.8801L16.6184 14.9035L21.3565 18.5488C19.9918 17.1141 18.5312 15.7742 16.9847 14.5386Z" fill="url(#paint1_linear_1_79)"/>
<path d="M20.3131 24.0766C18.6021 21.5042 16.2678 19.4091 13.5286 17.9875L12.6364 18.9053L12.5214 19.0333L24.7786 42.0705C23.7948 35.3327 23.9715 29.551 20.3131 24.0766Z" fill="#606060"/>
<path d="M25.9796 47.9163C27.4454 53.2215 29.9951 58.1636 33.4668 62.4293C34.0123 62.0924 34.5287 61.7105 35.0107 61.2874L24.7892 42.0791C25.0638 44.0479 25.4614 45.9974 25.9796 47.9163Z" fill="url(#paint2_linear_1_79)"/>
<path d="M25.9796 47.9163C27.4454 53.2215 29.9951 58.1636 33.4668 62.4293C34.0123 62.0924 34.5287 61.7105 35.0107 61.2874L24.7892 42.0791C25.0638 44.0479 25.4614 45.9974 25.9796 47.9163Z" fill="#606060"/>
<path d="M31.0329 33.5335C28.848 30.0546 27.1764 24.6763 21.3565 18.5488C19.9916 17.1143 18.531 15.7745 16.9847 14.5386L16.6419 14.8801L16.6185 14.9035L16.5482 14.974L16.5035 15.0209L16.4566 15.0679L16.3651 15.1618L15.8987 15.6292L15.8071 15.7231L15.7624 15.7679L15.3876 16.182L15.0128 16.5149L14.2675 17.264C14.095 17.4284 13.9183 17.5884 13.7501 17.757L13.5243 17.9875L12.6321 18.9053L12.5171 19.0333C14.3868 20.5145 16.94 22.9689 18.5776 26.6462C21.084 32.2785 18.7905 34.8482 20.575 42.3629C21.0989 44.5847 22.6747 50.9127 27.9749 56.2548C30.0237 58.3101 32.3983 60.0107 35.0022 61.2874C35.2343 61.0739 35.475 60.8605 35.7177 60.6193C35.9605 60.3782 36.1777 60.1477 36.3992 59.9001L36.4396 59.851C36.6526 59.6376 36.8655 59.4434 37.0785 59.2321C39.1398 57.169 41.1983 55.1058 43.2539 53.0427C43.3136 52.983 43.3668 52.9168 43.4243 52.8549L43.4711 52.808L43.518 52.7631L43.5648 52.7183L43.6117 52.6714L43.6585 52.6244L43.7033 52.5775L43.748 52.5305L43.7927 52.4836L43.8374 52.4366L43.8843 52.3896L43.9311 52.3448L43.978 52.2957L44.0248 52.2488L44.0717 52.2018L44.1185 52.1549L44.1632 52.1079L44.2079 52.061L44.2995 51.9692L44.3464 51.9222L44.3975 51.8753L44.4401 51.8326L44.4869 51.7814L44.5337 51.7344L44.5806 51.6875L44.6189 51.6384C44.6232 51.6267 44.6232 51.6138 44.6189 51.6021L44.7126 51.5487L44.7531 51.4997C44.7571 51.4872 44.7571 51.4737 44.7531 51.4612L44.8468 51.4079L44.8936 51.3609L44.9383 51.314C44.9557 51.2994 44.9721 51.2837 44.9873 51.267L45.032 51.2201L45.0789 51.1731L45.1257 51.1262L45.1705 51.0813L45.2194 51.0365L45.3089 50.9447L45.3557 50.8957L45.4026 50.8487L45.4494 50.8018L45.4963 50.7527L45.5431 50.7036L45.5921 50.6566L45.6837 50.5648L45.7284 50.5158L45.7752 50.4688L45.8221 50.4219L45.8689 50.3749L46.0073 50.2362L46.0521 50.1892L46.0989 50.1423L46.1458 50.0953C46.182 50.0654 46.2182 50.0377 46.2522 50.0057C48.0254 48.2556 49.7857 46.5048 51.5333 44.7533C39.0035 42.4333 33.6117 37.6376 31.0329 33.5335ZM37.6342 42.8943C37.6443 42.8636 37.6521 42.8322 37.6577 42.8004C37.6496 42.8339 37.6389 42.8667 37.6257 42.8986L37.6342 42.8943Z" fill="#444443"/>
<path d="M40.0831 22.0235C40.7082 21.8013 41.2471 21.3867 41.6227 20.8389C42.087 20.1773 42.187 19.4346 42.1253 18.6599C42.0587 18.0712 41.8216 17.5149 41.4432 17.0597C41.0647 16.6046 40.5616 16.2705 39.9958 16.0988C40.0789 17.1381 39.6445 17.8745 38.6479 18.169C37.7428 18.4379 37.0252 18.0793 36.4971 17.2811C36.1075 17.8028 35.8988 18.4377 35.9026 19.0892C35.9065 19.7408 36.1227 20.3732 36.5184 20.8902C36.9004 21.4515 37.4593 21.8683 38.1055 22.0737C38.7518 22.2792 39.4481 22.2615 40.0831 22.0235Z" fill="#4C4C4C"/>
<path d="M50.7476 21.6841C50.6667 21.5453 50.5666 21.4173 50.4729 21.285L50.3323 21.142L50.2791 21.0609L50.1002 20.9115L48.7012 19.9767C48.6785 19.9789 48.6557 19.9789 48.633 19.9767C48.0368 19.7134 47.4412 19.4495 46.8464 19.1848C46.8085 19.1614 46.7741 19.1326 46.7442 19.0995C46.6609 19.0901 46.5784 19.0751 46.4971 19.0547C46.3289 19.0013 46.1628 18.9373 45.9946 18.8818L44.6764 18.4549L44.6062 18.44L44.4614 18.3973C44.0674 18.2991 43.6692 18.2052 43.2774 18.1006C43.2305 18.09 43.1858 18.0238 43.1666 17.9726C43.0538 17.6951 42.9537 17.4134 42.8408 17.1317C42.8357 17.1264 42.8318 17.12 42.8296 17.1129C42.8274 17.1059 42.8269 17.0984 42.8281 17.0911L42.8025 17.0314C42.7992 17.0275 42.7974 17.0226 42.7974 17.0175C42.7974 17.0124 42.7992 17.0075 42.8025 17.0036L42.6109 16.707L42.5385 16.6088C42.1286 16.0796 41.6175 15.6377 41.035 15.309L40.9818 15.2621L40.8434 15.2066L40.7454 15.1618L40.6049 15.1084L40.3515 15.0166H40.3387L39.274 14.8502H39.2207H38.9269L38.8651 14.8672L37.8004 15.0209C37.799 15.0227 37.7972 15.0241 37.7952 15.0251C37.7931 15.0261 37.7909 15.0266 37.7887 15.0266C37.7864 15.0266 37.7842 15.0261 37.7822 15.0251C37.7801 15.0241 37.7783 15.0227 37.7769 15.0209L37.662 15.0657L37.5171 15.1191H37.5001L37.2872 15.2087C37.2649 15.2289 37.2406 15.2467 37.2148 15.2621C36.4559 15.6259 35.8195 16.2037 35.3834 16.9247C35.3659 16.9583 35.3392 16.9863 35.3064 17.0052C35.2735 17.0241 35.236 17.0332 35.1981 17.0314C34.9128 17.0314 34.6296 17.0591 34.3464 17.0741C34.1973 17.0741 34.0482 17.0911 33.8992 17.1039C34.1973 16.2673 34.538 15.3965 34.9639 14.5151C36.9135 10.343 39.7477 6.64732 43.2689 3.68586C38.8523 7.3141 33.2752 7.837 29.751 5.31217C27.4703 3.69013 26.644 1.2272 26.3331 0C26.3928 0.34575 27.1977 5.45943 23.9694 8.05042C22.2658 9.41421 20.1641 9.51025 18.7522 9.57428C16.7968 9.65543 14.8492 9.2814 13.0623 8.48154C15.3429 9.77704 19.3953 12.5366 22.1423 17.5628C22.7932 18.7547 23.3328 20.0043 23.7544 21.2956C23.6351 21.4237 23.5201 21.5581 23.4051 21.6926C23.1091 22.0341 22.8216 22.3841 22.532 22.7298L22.2957 23.1033L22.2424 23.1866C22.2396 23.1934 22.2343 23.199 22.2276 23.2021C22.2209 23.2053 22.2133 23.2058 22.2062 23.2037C22.1615 23.2912 22.1189 23.3829 22.0678 23.4683C21.4651 24.4903 20.9603 25.5672 20.5601 26.6846L20.5261 26.738V26.8724V27.1051V27.2033C20.5261 27.5597 20.5154 27.9161 20.509 28.2704V28.5521C20.509 28.7655 20.492 28.9619 20.4771 29.1668C20.4771 29.2628 20.4515 29.3589 20.4366 29.4528C20.4214 30.1108 20.3602 30.7669 20.2535 31.4163C20.1617 32.16 20.0194 32.8966 19.8276 33.621C19.7552 33.8856 19.6551 34.1439 19.5678 34.4064C19.5581 34.4471 19.5517 34.4885 19.5486 34.5302C19.3281 35.2782 19.0026 35.9911 18.5819 36.6473L18.3838 37.0059L18.3348 37.0913L18.2986 37.1446C17.9762 37.7455 17.5976 38.3143 17.1679 38.8435L17.0273 39.027L16.9847 39.0761L16.8889 39.2106L16.8463 39.2597L16.8016 39.3088L16.7015 39.4368L16.2416 39.9618L15.7582 40.4719C15.806 40.5464 15.8587 40.6177 15.9158 40.6854L21.265 46.0488C23.2688 48.055 25.2769 50.0569 27.2701 52.0759C27.3387 52.158 27.4243 52.224 27.5211 52.2693C27.6179 52.3146 27.7234 52.338 27.8302 52.338C27.937 52.338 28.0425 52.3146 28.1392 52.2693C28.236 52.224 28.3217 52.158 28.3902 52.0759C28.6245 51.8155 28.88 51.5765 29.1313 51.3332C29.1882 51.2833 29.2503 51.2397 29.3165 51.203C29.6168 50.8871 29.9128 50.5627 30.2173 50.2532C30.5218 49.9438 30.8774 49.581 31.2096 49.2459C32.1736 48.2798 33.1382 47.3122 34.1036 46.3433C34.1642 46.2758 34.2204 46.2045 34.2718 46.1299C34.2037 45.4896 34.11 44.8365 34.0759 44.1898C34.0355 43.3532 34.0184 42.5144 34.0376 41.6778C34.0589 41.0815 34.1165 40.4871 34.2101 39.8978C34.3123 39.2042 34.423 38.5063 34.5913 37.8233C35.0161 36.0261 35.7793 34.3267 36.84 32.8164C37.6248 31.6732 38.6351 30.7035 39.8085 29.9671C40.1811 29.7388 40.5921 29.568 40.9861 29.3695L41.5866 29.1561L41.9507 29.0259L42.0891 28.979L42.2275 28.9299L42.3702 28.8808L42.5001 28.8338C42.5406 28.8125 42.5789 28.7847 42.6194 28.7677C43.09 28.5884 43.5649 28.4176 44.0312 28.2298C45.4366 27.6878 46.7906 27.0207 48.0772 26.2364C48.5308 25.9526 48.9609 25.6346 49.4018 25.3336L49.9235 24.8662C49.9959 24.7873 50.0704 24.7104 50.1364 24.6293C50.4278 24.3298 50.6693 23.9853 50.8519 23.6092C50.9986 23.3057 51.066 22.9698 51.0477 22.6331C51.0295 22.2964 50.9262 21.9698 50.7476 21.6841ZM41.6313 20.8304C41.2569 21.3785 40.7186 21.7932 40.0938 22.0149C39.4577 22.2558 38.7591 22.2752 38.1106 22.07C37.4621 21.8649 36.9013 21.447 36.5184 20.8837C36.1255 20.3681 35.9107 19.7383 35.9064 19.0895C35.9022 18.4407 36.1088 17.8082 36.495 17.2875C37.0252 18.0857 37.7429 18.4443 38.6479 18.1753C39.6424 17.8808 40.0789 17.1445 39.9937 16.1051C40.5619 16.2748 41.0678 16.6079 41.4486 17.0632C41.8294 17.5185 42.0685 18.0759 42.136 18.6662C42.1977 19.4346 42.0977 20.1773 41.6313 20.8389V20.8304Z" fill="#FEFEFE"/>
<path d="M39.276 31.1879C39.8808 31.8004 40.4834 32.4108 41.0903 33.0212C41.952 33.8877 42.8166 34.7542 43.684 35.6207C43.7159 35.6527 43.7521 35.6805 43.7862 35.7125L43.8458 35.8064C43.9033 35.9427 43.9151 36.094 43.8794 36.2376C43.8437 36.3811 43.7624 36.5092 43.6478 36.6025C41.8491 38.3995 40.0518 40.2008 38.256 42.0064C38.2043 42.0626 38.1559 42.1217 38.1112 42.1836L37.5064 42.7918L37.2721 43.0266L37.1934 43.0842C37.1362 42.9774 37.0898 42.8652 37.0549 42.7491C36.8675 41.936 36.6759 41.1228 36.5162 40.3033C36.4273 39.8566 36.3753 39.4033 36.3607 38.948C36.3277 38.3069 36.3519 37.664 36.4331 37.0272C36.5332 36.3133 36.7066 35.6116 36.9506 34.9335C37.3976 33.7885 38.0159 32.7184 38.7841 31.7598C38.9331 31.5635 39.1099 31.3735 39.276 31.1879Z" fill="#FEFDFE"/>
<path d="M18.043 29.2201L18.0898 29.1731L19.261 28.0142L20.0064 27.2694C20.083 27.1926 20.1554 27.1114 20.2193 27.0325L20.2662 26.9791C20.2793 27.025 20.2865 27.0723 20.2875 27.12C20.2512 27.3676 20.2065 27.6151 20.1661 27.8606V27.9374L20.0298 28.5606L19.9787 28.774L19.2121 32.1632C19.195 32.2059 19.1737 32.2465 19.1588 32.2913C18.9863 32.859 18.8288 33.4331 18.6371 33.9987C18.4923 34.4256 18.3007 34.8311 18.1303 35.2451C17.977 35.5098 17.8343 35.7829 17.6639 36.0369C17.451 36.3699 17.1955 36.6772 16.9591 37.0144L16.908 37.0614C16.8639 37.1211 16.8163 37.1781 16.7653 37.2321L15.888 38.0346C15.8262 38.0794 15.7623 38.1221 15.7006 38.169L14.31 39.1914L12.138 37.0165L11.5332 36.4061C11.3926 36.0561 11.5012 35.7915 11.761 35.5311C13.7485 33.5534 15.729 31.5706 17.7023 29.5829C17.7555 29.5274 17.8045 29.4677 17.8577 29.41L17.9046 29.361L17.9514 29.314L17.9983 29.2671L18.043 29.2201Z" fill="#FDFDFE"/>
<path d="M22.1465 17.5628C22.6469 18.4763 23.0643 19.4495 23.0643 19.4495C23.356 20.1325 23.5796 20.7557 23.7542 21.2956C26.6584 18.5814 30.4819 17.0727 34.4527 17.0741H34.3569C34.2057 17.0741 34.0566 17.0911 33.9076 17.1039C34.2057 16.2673 34.5464 15.3965 34.9723 14.5151C36.9212 10.3425 39.7555 6.64675 43.2773 3.68586C38.8607 7.3141 33.2858 7.837 29.7615 5.31217C27.4979 3.69013 26.6631 1.2272 26.3543 0C26.414 0.34575 27.221 5.45943 23.9927 8.05042C22.2892 9.41421 20.1852 9.51025 18.7755 9.57428C16.8201 9.65566 14.8725 9.28162 13.0856 8.48154C15.3492 9.77704 19.4016 12.5324 22.1465 17.5628Z" fill="#FFE400"/>
<defs>
<linearGradient id="paint0_linear_1_79" x1="40.6456" y1="23.0884" x2="52.8575" y2="14.9559" gradientUnits="userSpaceOnUse">
<stop stop-color="#4C4C4C"/>
<stop offset="0.85" stop-color="#4C4C4C"/>
<stop offset="1" stop-color="#4C4C4C"/>
</linearGradient>
<linearGradient id="paint1_linear_1_79" x1="11.9804" y1="21.3938" x2="58.2205" y2="-9.65318" gradientUnits="userSpaceOnUse">
<stop stop-color="#4C4C4C"/>
<stop offset="0.85" stop-color="#4C4C4C"/>
<stop offset="1" stop-color="#4C4C4C"/>
</linearGradient>
<linearGradient id="paint2_linear_1_79" x1="31.5843" y1="50.5927" x2="77.8265" y2="19.5457" gradientUnits="userSpaceOnUse">
<stop stop-color="#4C4C4C"/>
<stop offset="0.85" stop-color="#4C4C4C"/>
<stop offset="1" stop-color="#4C4C4C"/>
</linearGradient>
</defs>
</svg>
