<svg width="431" height="47" viewBox="0 0 431 47" fill="none" xmlns="http://www.w3.org/2000/svg">
<path d="M21.9082 21.7376H43.0635C43.0635 36.1747 33.9521 44.5683 22.1544 44.5683C19.3126 44.6564 16.4831 44.159 13.8417 43.1071C11.2004 42.0552 8.80364 40.4713 6.80059 38.4539C4.79753 36.4365 3.23096 34.0286 2.19824 31.3801C1.16553 28.7315 0.68877 25.8988 0.797596 23.0582C0.683138 20.2187 1.15328 17.386 2.17887 14.7356C3.20446 12.0853 4.76363 9.67383 6.75971 7.65077C8.7558 5.62772 11.1462 4.0362 13.7829 2.97489C16.4195 1.91357 19.246 1.4051 22.0872 1.48097C26.2153 1.285 30.2993 2.40094 33.7539 4.66878C37.2085 6.93662 39.8562 10.2399 41.3173 14.105L34.0193 17.1491C33.2435 14.5975 31.6366 12.3787 29.4541 10.8455C27.2717 9.31239 24.6391 8.55305 21.9753 8.68831C14.0505 8.68831 8.65529 14.5079 8.65529 23.1254C8.65529 31.7428 14.1176 37.6296 22.8036 37.6296C25.8167 37.8379 28.7995 36.9173 31.1708 35.047C33.5421 33.1767 35.1322 30.4908 35.6311 27.5124H21.9082V21.7376ZM78.8149 27.4229C78.8442 28.4781 78.7843 29.5338 78.6358 30.5789H54.1448C54.5319 32.7673 55.6964 34.7422 57.4239 36.1405C59.1514 37.5388 61.3259 38.2663 63.5472 38.1892C65.1857 38.3684 66.8394 38.0338 68.2793 37.2318C69.7193 36.4297 70.8741 35.1999 71.584 33.7126L77.5612 37.54C75.1659 41.4347 70.9796 44.6802 63.301 44.6802C61.0964 44.7811 58.895 44.4231 56.836 43.629C54.7771 42.8349 52.9055 41.622 51.3398 40.0671C49.7741 38.5121 48.5484 36.649 47.7403 34.5958C46.9322 32.5426 46.5594 30.344 46.6453 28.1392C46.6098 25.9873 47.0015 23.8497 47.7979 21.8502C48.5942 19.8507 49.7794 18.029 51.2847 16.4906C52.79 14.9522 54.5857 13.7276 56.5676 12.8878C58.5495 12.048 60.6783 11.6097 62.8308 11.5981C64.9282 11.5561 67.0127 11.9355 68.9607 12.7139C70.9086 13.4923 72.6805 14.6538 74.1711 16.1296C75.6618 17.6054 76.8409 19.3654 77.6386 21.3054C78.4363 23.2453 78.8363 25.3256 78.8149 27.4229ZM71.5168 25.1846C71.3096 23.0815 70.3206 21.1326 68.7454 19.7234C67.1702 18.3143 65.1234 17.5474 63.0099 17.5744C60.839 17.506 58.7202 18.247 57.0653 19.6535C55.4103 21.06 54.3375 23.0314 54.0553 25.1846H71.5168ZM99.0747 37.8086C97.834 37.8129 96.6058 37.5592 95.4683 37.0638C94.3307 36.5684 93.3086 35.8421 92.4666 34.9308C91.6247 34.0195 90.9813 32.9433 90.5774 31.7703C90.1734 30.5973 90.0177 29.3531 90.1201 28.1168C90.0145 26.8787 90.1677 25.6321 90.5702 24.4564C90.9727 23.2807 91.6155 22.2017 92.4578 21.288C93.3001 20.3742 94.3233 19.6458 95.4625 19.149C96.6017 18.6523 97.8319 18.3981 99.0747 18.4025C100.904 18.3481 102.695 18.9263 104.147 20.0396C105.599 21.1529 106.623 22.733 107.044 24.5131L113.76 21.8272C112.706 18.7491 110.684 16.0944 107.997 14.259C105.311 12.4236 102.102 11.5059 98.8509 11.6429C94.481 11.6429 90.2901 13.3785 87.2002 16.468C84.1103 19.5574 82.3743 23.7476 82.3743 28.1168C82.3743 32.4859 84.1103 36.6761 87.2002 39.7656C90.2901 42.8551 94.481 44.5907 98.8509 44.5907C102.113 44.7458 105.338 43.8512 108.054 42.0383C110.769 40.2255 112.832 37.5898 113.939 34.5183L107.223 31.7652C106.755 33.5474 105.692 35.116 104.21 36.2112C102.728 37.3063 100.916 37.862 99.0747 37.7863V37.8086ZM146.937 12.292H138.318L126.163 25.0279V0.0484619H118.551V43.8521H126.163V28.9897L138.923 43.8521H147.251L133.461 26.841L146.937 12.292ZM179.89 28.0944C179.948 31.4353 179.01 34.7177 177.196 37.5237C175.381 40.3298 172.773 42.5324 169.702 43.8511C166.632 45.1698 163.238 45.5449 159.953 44.9287C156.669 44.3125 153.642 42.7328 151.258 40.3908C148.875 38.0488 147.242 35.0504 146.569 31.7777C145.895 28.5049 146.211 25.1057 147.476 22.0131C148.742 18.9204 150.899 16.2742 153.673 14.4115C156.448 12.5488 159.714 11.5538 163.056 11.5533C165.266 11.4608 167.473 11.823 169.538 12.6177C171.603 13.4124 173.483 14.6226 175.061 16.1733C176.639 17.724 177.882 19.5822 178.713 21.6328C179.544 23.6834 179.944 25.8827 179.89 28.0944ZM172.212 28.0944C172.309 26.8502 172.144 25.5995 171.729 24.4226C171.315 23.2456 170.658 22.1684 169.802 21.26C168.946 20.3517 167.91 19.6322 166.76 19.1478C165.61 18.6634 164.371 18.4248 163.123 18.4473C161.858 18.4162 160.6 18.6496 159.43 19.1325C158.261 19.6154 157.205 20.3372 156.33 21.2516C155.456 22.1661 154.782 23.253 154.352 24.4429C153.922 25.6328 153.745 26.8994 153.832 28.1616C153.771 29.4063 153.963 30.6506 154.397 31.8189C154.831 32.9871 155.498 34.055 156.358 34.9578C157.217 35.8605 158.251 36.5792 159.396 37.0703C160.542 37.5614 161.776 37.8146 163.022 37.8146C164.269 37.8146 165.502 37.5614 166.648 37.0703C167.793 36.5792 168.827 35.8605 169.687 34.9578C170.546 34.055 171.213 32.9871 171.647 31.8189C172.081 30.6506 172.273 29.4063 172.212 28.1616V28.0944Z" fill="#2D2D2D"/>
<path d="M198.18 27.4229H195.74V45.3294H187.972V2.80161H204.784C213.739 2.80161 219.335 7.92732 219.335 15.0675C219.335 21.7824 214.388 26.6843 206.553 27.2886L219.985 45.1951H211.231L198.18 27.4229ZM195.74 21.872H204.694C209.172 21.872 211.724 19.4322 211.724 15.7614C211.724 12.0906 209.217 9.69558 204.694 9.69558H195.74V21.872ZM238.834 39.5322C240.498 39.7202 242.179 39.3913 243.649 38.5904C245.119 37.7894 246.306 36.5552 247.05 35.0556L253.161 38.9726C250.721 42.9344 246.445 46.2471 238.61 46.2471C236.36 46.3546 234.112 45.9926 232.009 45.184C229.906 44.3754 227.995 43.138 226.397 41.5505C224.798 39.963 223.548 38.0601 222.726 35.9631C221.903 33.8661 221.526 31.6209 221.619 29.3703C221.568 27.1698 221.956 24.9812 222.76 22.9322C223.564 20.8831 224.768 19.0146 226.302 17.4354C227.835 15.8563 229.668 14.5981 231.693 13.7343C233.717 12.8704 235.894 12.4182 238.095 12.4039C240.24 12.3556 242.373 12.7401 244.366 13.5345C246.359 14.329 248.172 15.517 249.695 17.0277C251.218 18.5383 252.422 20.3405 253.233 22.3266C254.044 24.3127 254.446 26.4418 254.415 28.5869C254.429 29.6269 254.369 30.6665 254.236 31.6981H229.141C229.526 33.96 230.723 36.0037 232.507 37.446C234.292 38.8883 236.541 39.6301 238.834 39.5322ZM246.96 26.3262C246.747 24.1815 245.736 22.1952 244.127 20.7608C242.519 19.3264 240.43 18.5486 238.274 18.5816C236.095 18.5617 233.983 19.3373 232.334 20.7631C230.686 22.1888 229.614 24.1668 229.32 26.3262H246.96ZM303.867 13.1873L295.427 45.3965H286.271L279.958 21.872L273.735 45.3294H264.556L256.005 13.1202H263.952L269.526 37.7415L275.638 13.1202H284.301L290.413 37.7415L295.92 13.2321L303.867 13.1873ZM339.439 13.1873V45.3294H332.231V40.9871C330.996 42.6249 329.385 43.9416 327.535 44.8259C325.684 45.7103 323.647 46.1363 321.597 46.068C312.352 46.068 305.636 38.8607 305.636 29.2584C305.537 27.1166 305.879 24.9774 306.641 22.9732C307.403 20.9691 308.568 19.1425 310.064 17.6067C311.56 16.0708 313.356 14.8583 315.34 14.0443C317.324 13.2302 319.453 12.8319 321.597 12.874C323.626 12.777 325.649 13.165 327.499 14.0058C329.348 14.8466 330.97 16.116 332.231 17.7087V13.1202L339.439 13.1873ZM331.985 29.3255C332.092 28.0427 331.928 26.7517 331.503 25.5364C331.079 24.3212 330.403 23.2088 329.521 22.2715C328.638 21.3342 327.568 20.5931 326.381 20.0962C325.193 19.5993 323.914 19.3579 322.627 19.3874C321.355 19.3966 320.098 19.6662 318.935 20.1796C317.771 20.693 316.724 21.4394 315.86 22.3726C314.996 23.3059 314.332 24.4063 313.91 25.606C313.487 26.8056 313.315 28.0791 313.404 29.3479C313.315 30.6166 313.487 31.8901 313.91 33.0898C314.332 34.2894 314.996 35.3899 315.86 36.3231C316.724 37.2564 317.771 38.0028 318.935 38.5162C320.098 39.0296 321.355 39.2992 322.627 39.3083C323.922 39.3325 325.208 39.0834 326.401 38.5774C327.594 38.0715 328.667 37.3199 329.549 36.3718C330.432 35.4236 331.105 34.3001 331.525 33.0745C331.945 31.8488 332.101 30.5485 331.985 29.2584V29.3255ZM363.572 12.4711V19.7232C357.953 19.7232 354.416 22.7225 354.416 27.0648V45.3965H346.648V13.1202H353.991V16.7239C355.179 15.3522 356.651 14.2553 358.306 13.5094C359.96 12.7634 361.757 12.3862 363.572 12.4039V12.4711ZM399.1 0.719983V45.4861H391.869V41.2333C390.586 42.8004 388.959 44.0516 387.116 44.8899C385.272 45.7282 383.26 46.1313 381.235 46.068C372.012 46.068 365.296 38.8607 365.296 29.2584C365.296 19.656 371.833 12.4039 380.967 12.4039C382.884 12.3538 384.79 12.7087 386.56 13.4454C388.331 14.1821 389.926 15.284 391.242 16.6791V0.652832L399.1 0.719983ZM391.622 29.3255C391.729 28.0446 391.566 26.7556 391.143 25.5419C390.72 24.3282 390.046 23.2169 389.166 22.28C388.286 21.3431 387.219 20.6015 386.034 20.1032C384.849 19.6049 383.573 19.361 382.287 19.3874C381.014 19.3968 379.757 19.6663 378.592 20.1795C377.427 20.6927 376.379 21.4386 375.513 22.3715C374.647 23.3044 373.981 24.4046 373.556 25.6043C373.131 26.804 372.956 28.078 373.042 29.3479C372.956 30.6178 373.131 31.8918 373.556 33.0915C373.981 34.2912 374.647 35.3913 375.513 36.3242C376.379 37.2571 377.427 38.0031 378.592 38.5163C379.757 39.0295 381.014 39.299 382.287 39.3083C383.581 39.3293 384.864 39.0779 386.054 38.5705C387.244 38.0631 388.314 37.3111 389.195 36.3633C390.075 35.4155 390.746 34.2931 391.165 33.069C391.583 31.845 391.739 30.5466 391.622 29.2584V29.3255ZM403.868 37.8758L410.584 35.257C411.062 36.7771 412.054 38.0837 413.389 38.9534C414.724 39.8231 416.321 40.2018 417.904 40.0246C421.016 40.0246 422.986 38.7264 422.986 36.4657C422.986 30.1313 405.323 33.0635 405.323 21.9839C405.323 16.1195 410.203 12.4711 417.792 12.4711C424.016 12.4711 428.538 15.0227 429.881 19.4322L423.165 22.051C422.803 20.9214 422.067 19.9487 421.078 19.2936C420.089 18.6385 418.907 18.34 417.725 18.4473C414.86 18.4473 413.248 19.6784 413.248 21.6257C413.248 27.4901 430.911 24.1326 430.911 35.9285C430.911 42.3524 425.65 46.1352 417.591 46.1352C410.696 46.068 405.637 43.2478 403.868 37.8087V37.8758Z" fill="url(#paint0_linear_101_15)"/>
<defs>
<linearGradient id="paint0_linear_101_15" x1="187.972" y1="23.394" x2="431.001" y2="23.394" gradientUnits="userSpaceOnUse">
<stop stop-color="#CD9618"/>
<stop offset="0.47" stop-color="#DFAD29"/>
<stop offset="1" stop-color="#F1C339"/>
</linearGradient>
</defs>
</svg>
