<svg width="200" height="23" viewBox="0 0 200 23" fill="none" xmlns="http://www.w3.org/2000/svg">
<path d="M20.1085 13.0911C20.1085 16.0392 19.2823 18.3457 17.6298 20.0104C15.9773 21.6751 13.681 22.5082 10.7409 22.5096C7.62765 22.5096 5.15959 21.4908 3.33676 19.4533C1.51393 17.4158 0.606776 14.6505 0.615294 11.1575C0.615294 7.72559 1.52103 5.00868 3.33251 3.00674C5.14398 1.00481 7.60139 0.00313182 10.7047 0.00170898C13.1267 0.00170898 15.1781 0.661196 16.8589 1.98017C18.5201 3.26568 19.6272 5.13973 19.9531 7.21764H16.4778C16.1387 5.96166 15.3889 4.85611 14.3483 4.07814C13.2865 3.31855 12.0066 2.92667 10.7026 2.96192C8.62425 2.96192 6.9952 3.68402 5.81548 5.1282C4.63575 6.57238 4.04801 8.57502 4.05227 11.1361C4.05227 13.7414 4.65491 15.7966 5.86019 17.302C7.06548 18.8074 8.70233 19.5601 10.7708 19.5601C12.5283 19.5601 13.9636 19.0443 15.0766 18.0127C16.1896 16.9812 16.7574 15.6401 16.7801 13.9896V13.6119H11.1626V10.88H20.1064L20.1085 13.0911Z" fill="#FFE400"/>
<path d="M33.5132 17.4834H36.6031C36.4917 18.1997 36.2367 18.8859 35.8535 19.5006C35.4703 20.1154 34.9669 20.646 34.3735 21.0605C33.1157 21.9853 31.5874 22.4477 29.7887 22.4477C27.4676 22.4477 25.6426 21.7157 24.3139 20.2516C22.9851 18.7875 22.3192 16.7955 22.3164 14.2757C22.3164 11.7814 22.9822 9.77379 24.3139 8.25278C25.6455 6.73177 27.425 5.97197 29.6524 5.97339C31.8415 5.97339 33.5785 6.6905 34.8633 8.12472C36.1481 9.55894 36.7869 11.4876 36.7798 13.9107V15.029H25.5894V15.2254C25.5894 16.6127 25.9763 17.7246 26.75 18.5612C27.5237 19.3979 28.5579 19.8155 29.8526 19.8141C30.6791 19.8346 31.4934 19.612 32.195 19.1738C32.8233 18.7879 33.2913 18.1877 33.5132 17.4834ZM32.3973 9.75316C32.0463 9.37598 31.6188 9.07854 31.1435 8.88084C30.6682 8.68315 30.1561 8.5898 29.6418 8.60706C29.1201 8.59263 28.6012 8.68792 28.1185 8.88679C27.6359 9.08566 27.2001 9.3837 26.8394 9.7617C26.0779 10.5734 25.6386 11.636 25.6043 12.7497H33.5281C33.4883 11.5189 33.1114 10.5201 32.3973 9.75316Z" fill="#FFE400"/>
<path d="M52.8958 11.7316H49.7932C49.6489 10.8816 49.2155 10.1079 48.5666 9.54182C47.9192 8.97268 47.088 8.68812 46.073 8.68812C45.4843 8.67214 44.9005 8.79976 44.3719 9.06001C43.8433 9.32026 43.3857 9.70533 43.0385 10.1821C42.2804 11.1781 41.9014 12.5191 41.9014 14.2052C41.9014 15.9254 42.2804 17.2771 43.0385 18.2603C43.3943 18.7331 43.8586 19.113 44.392 19.3679C44.9254 19.6227 45.5122 19.745 46.1028 19.7244C47.0966 19.7244 47.9129 19.4654 48.5517 18.9475C49.2083 18.3955 49.6483 17.6278 49.7932 16.7812H52.9256C52.8662 17.5756 52.6469 18.3498 52.2809 19.057C51.9149 19.7642 51.4099 20.3898 50.7962 20.8961C49.5469 21.9376 47.9725 22.4584 46.073 22.4584C43.7944 22.4584 41.9773 21.7206 40.6215 20.2451C39.2658 18.7696 38.5879 16.7599 38.5879 14.2158C38.5879 11.6988 39.2658 9.69833 40.6215 8.21431C41.9773 6.73029 43.7845 5.98828 46.0432 5.98828C48.0108 5.98828 49.6072 6.53963 50.8324 7.64233C52.0265 8.68312 52.7671 10.1508 52.8958 11.7316Z" fill="#FFE400"/>
<path d="M58.6349 13.074L65.0361 6.26786H68.8692L62.304 13.0975L69.1183 22.1382H65.3364L59.9595 15.0952L58.6051 16.4397V22.1446H55.3428V0.364502H58.5966V13.074H58.6349Z" fill="#FFE400"/>
<path d="M82.3104 20.2366C80.9418 21.7106 79.1219 22.4477 76.8504 22.4477C74.579 22.4477 72.7547 21.7106 71.3777 20.2366C70.0105 18.7639 69.3277 16.7542 69.3291 14.2073C69.3305 11.6604 70.0134 9.65493 71.3777 8.19083C72.7434 6.71819 74.5655 5.98116 76.844 5.97974C79.1226 5.97832 80.9447 6.71535 82.3104 8.19083C83.6775 9.66631 84.3604 11.6718 84.3589 14.2073C84.3575 16.7428 83.6747 18.7526 82.3104 20.2366ZM76.8504 19.7628C77.4424 19.7846 78.0308 19.663 78.5658 19.4081C79.1008 19.1532 79.5665 18.7726 79.9232 18.2987C80.6771 17.3212 81.0533 15.9574 81.0519 14.2073C81.0504 12.4572 80.6714 11.0984 79.9147 10.1309C79.545 9.67348 79.078 9.30464 78.5478 9.05127C78.0177 8.79791 77.4378 8.66643 76.8504 8.66643C76.2631 8.66643 75.6831 8.79791 75.153 9.05127C74.6228 9.30464 74.1558 9.67348 73.7861 10.1309C73.028 11.1084 72.649 12.4672 72.649 14.2073C72.649 15.9474 73.028 17.3112 73.7861 18.2987C74.1422 18.7712 74.6065 19.151 75.1399 19.4058C75.6732 19.6606 76.2599 19.7831 76.8504 19.7628Z" fill="#FFE400"/>
<path d="M90.6409 13.7698V22.1467H87.2656V0.364502H95.6856C97.9144 0.364502 99.6819 0.965651 100.988 2.16795C102.294 3.37025 102.946 4.98802 102.945 7.02125C102.974 8.40099 102.582 9.75678 101.823 10.9077C101.085 12.014 99.9937 12.8364 98.7286 13.2405L103.592 22.1467H99.7082L95.2788 13.7698H90.6409ZM90.6409 3.20307V11.0379H95.3768C96.68 11.0379 97.6887 10.6957 98.4028 10.0113C99.1169 9.32696 99.4718 8.36085 99.4675 7.11303C99.4675 5.89365 99.0963 4.93751 98.3538 4.24459C97.6113 3.55166 96.5871 3.20449 95.281 3.20307H90.6409Z" fill="white"/>
<path d="M116.246 17.4834H119.333C119.222 18.2004 118.966 18.8871 118.582 19.502C118.197 20.1169 117.692 20.6471 117.097 21.0605C115.845 21.9853 114.316 22.4477 112.508 22.4477C110.189 22.4477 108.364 21.7157 107.033 20.2516C105.703 18.7875 105.038 16.7955 105.038 14.2757C105.038 11.7814 105.703 9.77379 107.033 8.25278C108.364 6.73177 110.144 5.97197 112.374 5.97339C114.563 5.97339 116.3 6.6905 117.585 8.12472C118.87 9.55894 119.512 11.4876 119.512 13.9107V15.029H108.322V15.2254C108.322 16.6127 108.709 17.7246 109.482 18.5612C110.256 19.3979 111.29 19.8155 112.585 19.8141C113.411 19.8346 114.226 19.612 114.927 19.1738C115.556 18.7888 116.025 18.1882 116.246 17.4834ZM115.132 9.75316C114.781 9.37598 114.353 9.07854 113.878 8.88084C113.403 8.68315 112.891 8.5898 112.376 8.60706C111.855 8.59263 111.336 8.68792 110.853 8.88679C110.37 9.08566 109.935 9.3837 109.574 9.7617C108.812 10.5734 108.373 11.636 108.339 12.7497H116.263C116.221 11.5189 115.844 10.5201 115.13 9.75316H115.132Z" fill="white"/>
<path d="M142.932 6.26782L138.605 22.1467H135.198L131.87 10.2525H131.795L128.496 22.1467H125.147L120.792 6.26782H124.046L126.938 18.766H126.997L130.3 6.26782H133.43L136.744 18.766H136.818L139.71 6.26782H142.932Z" fill="white"/>
<path d="M149.289 22.42C147.727 22.42 146.46 21.9768 145.486 21.0903C144.512 20.2039 144.023 19.0514 144.019 17.6328C144.019 16.2456 144.53 15.1415 145.554 14.3205C146.577 13.4995 148.028 13.0392 149.907 12.9396L154.244 12.6835V11.4606C154.244 10.5756 153.96 9.88335 153.392 9.38394C152.825 8.88452 152.044 8.63553 151.05 8.63695C150.126 8.63695 149.375 8.84326 148.797 9.25589C148.225 9.66021 147.833 10.2731 147.707 10.9633H144.634C144.666 10.2613 144.853 9.57508 145.181 8.95402C145.509 8.33295 145.97 7.79244 146.531 7.37133C147.707 6.44507 149.253 5.98193 151.169 5.98193C153.086 5.98193 154.615 6.45503 155.756 7.40121C156.892 8.34598 157.46 9.61373 157.46 11.2045V22.1489H154.364V19.5366H154.287C153.824 20.4239 153.109 21.1539 152.232 21.6346C151.337 22.1513 150.322 22.4222 149.289 22.42ZM150.194 19.8375C151.254 19.8683 152.285 19.4928 153.077 18.7875C153.45 18.4685 153.747 18.0711 153.949 17.6236C154.151 17.1761 154.252 16.6896 154.244 16.1986V14.9458L150.343 15.1913C149.369 15.261 148.619 15.5 148.092 15.9084C147.838 16.0968 147.634 16.3442 147.496 16.6293C147.358 16.9144 147.292 17.2288 147.302 17.5453C147.292 17.8662 147.358 18.1849 147.495 18.4749C147.633 18.7648 147.837 19.0176 148.092 19.2122C148.619 19.6291 149.32 19.8375 150.194 19.8375Z" fill="white"/>
<path d="M160.631 22.1468V6.26792H163.733V8.96989H163.808C164.025 8.11098 164.518 7.3471 165.209 6.79508C165.9 6.26565 166.75 5.98855 167.62 6.00967C167.994 6.01632 168.367 6.05704 168.733 6.13132V9.16624C168.261 9.01924 167.767 8.95781 167.273 8.98483C166.229 8.98483 165.404 9.31137 164.796 9.96445C164.188 10.6175 163.885 11.5061 163.885 12.6301V22.1404L160.631 22.1468Z" fill="white"/>
<path d="M176.024 22.42C174.014 22.42 172.402 21.6751 171.188 20.1854C169.974 18.6957 169.367 16.7037 169.365 14.2095C169.365 11.7153 169.971 9.72329 171.182 8.23358C172.393 6.74387 173.996 6.00399 175.992 6.01395C177.038 5.99697 178.069 6.2663 178.973 6.79296C179.828 7.29034 180.518 8.02695 180.96 8.91228H181.022V0.375244H184.289V22.1468H181.126V19.4448H181.067C180.613 20.3507 179.91 21.1076 179.042 21.6261C178.128 22.1644 177.084 22.4391 176.024 22.42ZM176.876 8.76074C176.286 8.7397 175.699 8.86251 175.166 9.11863C174.634 9.37475 174.171 9.75654 173.818 10.2312C173.064 11.213 172.687 12.5391 172.687 14.2095C172.687 15.8799 173.064 17.2081 173.818 18.1942C174.182 18.6562 174.646 19.0293 175.175 19.2854C175.704 19.5415 176.284 19.6738 176.871 19.6723C177.458 19.6709 178.038 19.5358 178.565 19.2771C179.093 19.0184 179.555 18.643 179.917 18.1792C180.681 17.1832 181.062 15.8628 181.062 14.218C181.062 12.5732 180.681 11.2514 179.917 10.2526C179.57 9.77488 179.113 9.38911 178.584 9.12876C178.055 8.86841 177.471 8.74135 176.882 8.75861L176.876 8.76074Z" fill="white"/>
<path d="M187.334 10.7647C187.321 10.0927 187.47 9.42751 187.769 8.82582C188.068 8.22413 188.508 7.70385 189.051 7.30938C190.196 6.42295 191.693 5.97974 193.54 5.97974C195.297 5.97974 196.74 6.42509 197.869 7.31578C198.408 7.71945 198.848 8.24145 199.156 8.84185C199.463 9.44224 199.629 10.1051 199.641 10.7797H196.583C196.555 10.4437 196.456 10.1175 196.292 9.82302C196.128 9.52854 195.904 9.27257 195.633 9.07228C195.082 8.65965 194.355 8.45334 193.45 8.45334C192.546 8.45334 191.836 8.64969 191.321 9.0424C191.07 9.20873 190.865 9.4353 190.724 9.70147C190.583 9.96763 190.511 10.2649 190.514 10.5663C190.514 11.5324 191.322 12.2167 192.939 12.6194L195.605 13.2383C197.202 13.6211 198.335 14.1419 199.002 14.8006C199.669 15.4594 200.003 16.3778 200.003 17.556C200.003 19.0044 199.393 20.1818 198.173 21.0882C196.954 21.9945 195.369 22.4477 193.418 22.4477C191.561 22.4477 190.048 22.0045 188.878 21.118C188.315 20.7079 187.849 20.1791 187.512 19.5688C187.175 18.9586 186.976 18.2817 186.928 17.5858H190.152C190.198 17.9368 190.317 18.2743 190.5 18.577C190.683 18.8797 190.927 19.141 191.217 19.3445C191.799 19.7514 192.579 19.9556 193.559 19.957C194.538 19.9584 195.309 19.7692 195.872 19.3893C196.135 19.2312 196.353 19.0064 196.502 18.7374C196.652 18.4685 196.728 18.1648 196.723 17.8569C196.733 17.628 196.692 17.3998 196.604 17.1887C196.515 16.9775 196.38 16.7888 196.21 16.6361C195.869 16.333 195.286 16.0769 194.464 15.8656L191.632 15.1699C188.765 14.4727 187.333 13.0043 187.334 10.7647Z" fill="white"/>
</svg>
