<svg width="200" height="23" viewBox="0 0 200 23" fill="none" xmlns="http://www.w3.org/2000/svg">
<path d="M20.1085 13.0911C20.1085 16.0392 19.2823 18.3456 17.6298 20.0103C15.9773 21.675 13.681 22.5081 10.7409 22.5095C7.62765 22.5095 5.15959 21.4908 3.33676 19.4533C1.51393 17.4158 0.606776 14.6505 0.615294 11.1574C0.615294 7.72553 1.52103 5.00862 3.33251 3.00668C5.14398 1.00475 7.60139 0.00307079 10.7047 0.00164795C13.1267 0.00164795 15.1781 0.661135 16.8589 1.98011C18.5201 3.26562 19.6272 5.13967 19.9531 7.21757H16.4778C16.1387 5.9616 15.3889 4.85605 14.3483 4.07808C13.2865 3.31849 12.0066 2.92661 10.7026 2.96186C8.62425 2.96186 6.9952 3.68396 5.81548 5.12814C4.63575 6.57232 4.04801 8.57496 4.05227 11.1361C4.05227 13.7413 4.65491 15.7966 5.86019 17.3019C7.06548 18.8073 8.70233 19.56 10.7708 19.56C12.5283 19.56 13.9636 19.0442 15.0766 18.0127C16.1896 16.9811 16.7574 15.6401 16.7801 13.9896V13.6118H11.1626V10.88H20.1064L20.1085 13.0911Z" fill="#FFE400"/>
<path d="M33.5132 17.4834H36.6031C36.4917 18.1996 36.2367 18.8858 35.8535 19.5006C35.4703 20.1153 34.9669 20.6459 34.3735 21.0604C33.1157 21.9852 31.5874 22.4477 29.7887 22.4477C27.4676 22.4477 25.6426 21.7156 24.3139 20.2515C22.9851 18.7874 22.3192 16.7954 22.3164 14.2756C22.3164 11.7814 22.9822 9.77373 24.3139 8.25272C25.6455 6.7317 27.425 5.97191 29.6524 5.97333C31.8415 5.97333 33.5785 6.69044 34.8633 8.12466C36.1481 9.55888 36.7869 11.4875 36.7798 13.9106V15.029H25.5894V15.2253C25.5894 16.6126 25.9763 17.7246 26.75 18.5612C27.5237 19.3978 28.5579 19.8154 29.8526 19.814C30.6791 19.8345 31.4934 19.6119 32.195 19.1737C32.8233 18.7878 33.2913 18.1876 33.5132 17.4834V17.4834ZM32.3973 9.7531C32.0463 9.37592 31.6188 9.07847 31.1435 8.88078C30.6682 8.68309 30.1561 8.58973 29.6418 8.607C29.1201 8.59257 28.6012 8.68786 28.1185 8.88673C27.6359 9.0856 27.2001 9.38364 26.8394 9.76164C26.0779 10.5733 25.6386 11.636 25.6043 12.7496H33.5281C33.4883 11.5188 33.1114 10.52 32.3973 9.7531Z" fill="#FFE400"/>
<path d="M52.8958 11.7315H49.7932C49.6489 10.8815 49.2155 10.1078 48.5666 9.54176C47.9192 8.97262 47.088 8.68806 46.073 8.68806C45.4843 8.67208 44.9005 8.7997 44.3719 9.05995C43.8433 9.3202 43.3857 9.70527 43.0385 10.182C42.2804 11.178 41.9014 12.5191 41.9014 14.2051C41.9014 15.9253 42.2804 17.277 43.0385 18.2602C43.3943 18.733 43.8586 19.113 44.392 19.3678C44.9254 19.6227 45.5122 19.745 46.1028 19.7243C47.0966 19.7243 47.9129 19.4653 48.5517 18.9474C49.2083 18.3954 49.6483 17.6278 49.7932 16.7812H52.9256C52.8662 17.5756 52.6469 18.3497 52.2809 19.0569C51.9149 19.7641 51.4099 20.3897 50.7962 20.896C49.5469 21.9375 47.9725 22.4583 46.073 22.4583C43.7944 22.4583 41.9773 21.7205 40.6215 20.2451C39.2658 18.7696 38.5879 16.7598 38.5879 14.2158C38.5879 11.6988 39.2658 9.69827 40.6215 8.21425C41.9773 6.73023 43.7845 5.98822 46.0432 5.98822C48.0108 5.98822 49.6072 6.53957 50.8324 7.64227C52.0265 8.68306 52.7671 10.1507 52.8958 11.7315V11.7315Z" fill="#FFE400"/>
<path d="M58.6349 13.0739L65.0361 6.2678H68.8692L62.304 13.0974L69.1183 22.1381H65.3364L59.9595 15.0951L58.6051 16.4397V22.1445H55.3428V0.364441H58.5966V13.0739H58.6349Z" fill="#FFE400"/>
<path d="M82.3104 20.2365C80.9418 21.7106 79.1219 22.4476 76.8504 22.4476C74.579 22.4476 72.7547 21.7106 71.3777 20.2365C70.0105 18.7639 69.3277 16.7541 69.3291 14.2072C69.3305 11.6604 70.0134 9.65487 71.3777 8.19077C72.7434 6.71813 74.5655 5.9811 76.844 5.97968C79.1226 5.97825 80.9447 6.71529 82.3104 8.19077C83.6775 9.66625 84.3604 11.6717 84.3589 14.2072C84.3575 16.7427 83.6747 18.7525 82.3104 20.2365ZM76.8504 19.7627C77.4424 19.7846 78.0308 19.6629 78.5658 19.408C79.1008 19.1531 79.5665 18.7725 79.9232 18.2986C80.6771 17.3211 81.0533 15.9573 81.0519 14.2072C81.0504 12.4572 80.6714 11.0983 79.9147 10.1308C79.545 9.67342 79.078 9.30458 78.5478 9.05121C78.0177 8.79785 77.4378 8.66637 76.8504 8.66637C76.2631 8.66637 75.6831 8.79785 75.153 9.05121C74.6228 9.30458 74.1558 9.67342 73.7861 10.1308C73.028 11.1083 72.649 12.4671 72.649 14.2072C72.649 15.9474 73.028 17.3112 73.7861 18.2986C74.1422 18.7712 74.6065 19.1509 75.1399 19.4057C75.6732 19.6606 76.2599 19.783 76.8504 19.7627Z" fill="#FFE400"/>
<path d="M90.6409 13.7697V22.1467H87.2656V0.364441H95.6856C97.9144 0.364441 99.6819 0.96559 100.988 2.16789C102.294 3.37019 102.946 4.98796 102.945 7.02119C102.974 8.40093 102.582 9.75672 101.823 10.9077C101.085 12.0139 99.9937 12.8363 98.7286 13.2404L103.592 22.1467H99.7082L95.2788 13.7697H90.6409ZM90.6409 3.203V11.0379H95.3768C96.68 11.0379 97.6887 10.6957 98.4028 10.0113C99.1169 9.3269 99.4718 8.36079 99.4675 7.11296C99.4675 5.89359 99.0963 4.93745 98.3538 4.24452C97.6113 3.5516 96.5871 3.20443 95.281 3.203H90.6409Z" fill="#4C4C4C"/>
<path d="M116.246 17.4834H119.333C119.222 18.2003 118.966 18.887 118.582 19.5019C118.197 20.1168 117.692 20.647 117.097 21.0604C115.845 21.9852 114.316 22.4477 112.508 22.4477C110.189 22.4477 108.364 21.7156 107.033 20.2515C105.703 18.7874 105.038 16.7954 105.038 14.2756C105.038 11.7814 105.703 9.77373 107.033 8.25272C108.364 6.7317 110.144 5.97191 112.374 5.97333C114.563 5.97333 116.3 6.69044 117.585 8.12466C118.87 9.55888 119.512 11.4875 119.512 13.9106V15.029H108.322V15.2253C108.322 16.6126 108.709 17.7246 109.482 18.5612C110.256 19.3978 111.29 19.8154 112.585 19.814C113.411 19.8345 114.226 19.6119 114.927 19.1737C115.556 18.7887 116.025 18.1881 116.246 17.4834V17.4834ZM115.132 9.7531C114.781 9.37592 114.353 9.07847 113.878 8.88078C113.403 8.68309 112.891 8.58973 112.376 8.607C111.855 8.59257 111.336 8.68786 110.853 8.88673C110.37 9.0856 109.935 9.38364 109.574 9.76164C108.812 10.5733 108.373 11.636 108.339 12.7496H116.263C116.221 11.5188 115.844 10.52 115.13 9.7531H115.132Z" fill="#4C4C4C"/>
<path d="M142.932 6.26782L138.605 22.1467H135.198L131.87 10.2525H131.795L128.496 22.1467H125.147L120.792 6.26782H124.046L126.938 18.766H126.997L130.3 6.26782H133.43L136.744 18.766H136.818L139.71 6.26782H142.932Z" fill="#4C4C4C"/>
<path d="M149.289 22.4199C147.727 22.4199 146.46 21.9767 145.486 21.0902C144.512 20.2038 144.023 19.0513 144.019 17.6327C144.019 16.2455 144.53 15.1413 145.554 14.3204C146.577 13.4994 148.028 13.0391 149.907 12.9395L154.244 12.6834V11.4605C154.244 10.5754 153.96 9.88323 153.392 9.38382C152.825 8.8844 152.044 8.6354 151.05 8.63683C150.126 8.63683 149.375 8.84314 148.797 9.25576C148.225 9.66008 147.833 10.273 147.707 10.9632H144.634C144.666 10.2612 144.853 9.57496 145.181 8.95389C145.509 8.33283 145.97 7.79231 146.531 7.37121C147.707 6.44494 149.253 5.98181 151.169 5.98181C153.086 5.98181 154.615 6.4549 155.756 7.40109C156.892 8.34586 157.46 9.61361 157.46 11.2043V22.1488H154.364V19.5365H154.287C153.824 20.4238 153.109 21.1537 152.232 21.6345C151.337 22.1512 150.322 22.4221 149.289 22.4199V22.4199ZM150.194 19.8374C151.254 19.8682 152.285 19.4927 153.077 18.7874C153.45 18.4683 153.747 18.0709 153.949 17.6235C154.151 17.176 154.252 16.6895 154.244 16.1985V14.9457L150.343 15.1911C149.369 15.2609 148.619 15.4999 148.092 15.9082C147.838 16.0967 147.634 16.3441 147.496 16.6292C147.358 16.9143 147.292 17.2287 147.302 17.5452C147.292 17.8661 147.358 18.1848 147.495 18.4747C147.633 18.7647 147.837 19.0175 148.092 19.2121C148.619 19.629 149.32 19.8374 150.194 19.8374Z" fill="#4C4C4C"/>
<path d="M160.631 22.1467V6.26785H163.733V8.96983H163.808C164.025 8.11092 164.518 7.34704 165.209 6.79502C165.9 6.26558 166.75 5.98849 167.62 6.00961C167.994 6.01626 168.367 6.05698 168.733 6.13126V9.16618C168.261 9.01918 167.767 8.95775 167.273 8.98476C166.229 8.98476 165.404 9.31131 164.796 9.96439C164.188 10.6175 163.885 11.506 163.885 12.6301V22.1403L160.631 22.1467Z" fill="#4C4C4C"/>
<path d="M176.024 22.4199C174.014 22.4199 172.402 21.675 171.188 20.1853C169.974 18.6956 169.367 16.7036 169.365 14.2094C169.365 11.7151 169.971 9.72317 171.182 8.23346C172.393 6.74375 173.996 6.00387 175.992 6.01383C177.038 5.99685 178.069 6.26618 178.973 6.79284C179.828 7.29022 180.518 8.02682 180.96 8.91216H181.022V0.375122H184.289V22.1467H181.126V19.4447H181.067C180.613 20.3506 179.91 21.1075 179.042 21.6259C178.128 22.1642 177.084 22.439 176.024 22.4199V22.4199ZM176.876 8.76062C176.286 8.73958 175.699 8.86239 175.166 9.11851C174.634 9.37463 174.171 9.75642 173.818 10.2311C173.064 11.2129 172.687 12.539 172.687 14.2094C172.687 15.8798 173.064 17.208 173.818 18.194C174.182 18.6561 174.646 19.0292 175.175 19.2853C175.704 19.5414 176.284 19.6737 176.871 19.6722C177.458 19.6708 178.038 19.5356 178.565 19.277C179.093 19.0183 179.555 18.6429 179.917 18.1791C180.681 17.1831 181.062 15.8627 181.062 14.2179C181.062 12.5731 180.681 11.2513 179.917 10.2525C179.57 9.77476 179.113 9.38899 178.584 9.12864C178.055 8.86829 177.471 8.74123 176.882 8.75849L176.876 8.76062Z" fill="#4C4C4C"/>
<path d="M187.334 10.7647C187.321 10.0927 187.47 9.42745 187.769 8.82576C188.068 8.22407 188.508 7.70379 189.051 7.30932C190.196 6.42289 191.693 5.97968 193.54 5.97968C195.297 5.97968 196.74 6.42503 197.869 7.31572C198.408 7.71938 198.848 8.24139 199.156 8.84179C199.463 9.44218 199.629 10.105 199.641 10.7796H196.583C196.555 10.4436 196.456 10.1174 196.292 9.82296C196.128 9.52848 195.904 9.27251 195.633 9.07222C195.082 8.65959 194.355 8.45328 193.45 8.45328C192.546 8.45328 191.836 8.64963 191.321 9.04234C191.07 9.20866 190.865 9.43524 190.724 9.7014C190.583 9.96757 190.511 10.2649 190.514 10.5662C190.514 11.5323 191.322 12.2167 192.939 12.6194L195.605 13.2383C197.202 13.621 198.335 14.1418 199.002 14.8006C199.669 15.4593 200.003 16.3778 200.003 17.5559C200.003 19.0043 199.393 20.1817 198.173 21.0881C196.954 21.9944 195.369 22.4476 193.418 22.4476C191.561 22.4476 190.048 22.0044 188.878 21.118C188.315 20.7079 187.849 20.179 187.512 19.5688C187.175 18.9585 186.976 18.2816 186.928 17.5858H190.152C190.198 17.9367 190.317 18.2742 190.5 18.5769C190.683 18.8796 190.927 19.141 191.217 19.3444C191.799 19.7513 192.579 19.9555 193.559 19.9569C194.538 19.9584 195.309 19.7691 195.872 19.3892C196.135 19.2312 196.353 19.0064 196.502 18.7374C196.652 18.4684 196.728 18.1647 196.723 17.8568C196.733 17.6279 196.692 17.3997 196.604 17.1886C196.515 16.9775 196.38 16.7887 196.21 16.636C195.869 16.333 195.286 16.0769 194.464 15.8656L191.632 15.1698C188.765 14.4726 187.333 13.0042 187.334 10.7647Z" fill="#4C4C4C"/>
</svg>
