<svg width="19" height="22" viewBox="0 0 19 22" fill="none" xmlns="http://www.w3.org/2000/svg">
<path fill-rule="evenodd" clip-rule="evenodd" d="M7.95289 16.8098C7.00459 16.8098 6.21356 16.0655 6.13075 15.0953C5.95761 13.0668 5.91379 11.0293 5.99943 8.99573C5.89606 8.98862 5.79271 8.9812 5.68937 8.97347L3.86347 8.83677C2.69644 8.7494 2.04406 7.41297 2.67411 6.40031C4.01782 4.24061 6.48075 1.82342 8.50756 0.328148C9.10062 -0.109383 9.89942 -0.109382 10.4925 0.328148C12.5193 1.82342 14.9822 4.24061 16.3259 6.40031C16.956 7.41297 16.3036 8.7494 15.1366 8.83677L13.3107 8.97347C13.2073 8.9812 13.104 8.98862 13.0006 8.99573C13.0862 11.0293 13.0424 13.0668 12.8693 15.0953C12.7865 16.0655 11.9954 16.8098 11.0472 16.8098H7.95289ZM7.88375 8.16762C7.74436 10.4176 7.77039 12.6753 7.96167 14.9214H11.0384C11.2296 12.6753 11.2557 10.4176 11.1163 8.16762C11.1007 7.91537 11.1842 7.66722 11.3481 7.47871C11.512 7.29019 11.7427 7.17705 11.9886 7.16462C12.3849 7.14456 12.7811 7.11972 13.177 7.09008L14.5031 6.9908C13.3269 5.21157 11.8541 3.65774 10.1513 2.40152L9.50002 1.92106L8.84877 2.40152C7.14598 3.65774 5.67319 5.21157 4.49697 6.9908L5.82305 7.09008C6.21897 7.11972 6.61514 7.14456 7.01149 7.16462C7.2573 7.17705 7.48799 7.29019 7.65193 7.47871C7.81588 7.66722 7.89938 7.91537 7.88375 8.16762Z" fill="#71DA88"/>
<path d="M1.83871 17.279C1.83871 16.7576 1.4271 16.3348 0.919355 16.3348C0.411609 16.3348 0 16.7576 0 17.279V19.7969C0 21.0136 0.960422 22 2.14516 22H16.8548C18.0396 22 19 21.0136 19 19.7969V17.279C19 16.7576 18.5884 16.3348 18.0806 16.3348C17.5729 16.3348 17.1613 16.7576 17.1613 17.279V19.7969C17.1613 19.9707 17.0241 20.1116 16.8548 20.1116H2.14516C1.97591 20.1116 1.83871 19.9707 1.83871 19.7969V17.279Z" fill="#71DA88"/>
</svg>
