<svg width="44" height="44" viewBox="0 0 44 44" fill="none" xmlns="http://www.w3.org/2000/svg">
<path d="M14.3337 39.25H6.66699C6.15866 39.25 5.67115 39.048 5.3117 38.6886C4.95226 38.3291 4.75033 37.8416 4.75033 37.3333V29.6666C4.75033 29.1583 4.54839 28.6708 4.18895 28.3113C3.8295 27.9519 3.34199 27.75 2.83366 27.75C2.32533 27.75 1.83782 27.9519 1.47837 28.3113C1.11893 28.6708 0.916992 29.1583 0.916992 29.6666V37.3333C0.916992 38.8583 1.52279 40.3208 2.60113 41.3992C3.67946 42.4775 5.142 43.0833 6.66699 43.0833H14.3337C14.842 43.0833 15.3295 42.8814 15.6889 42.5219C16.0484 42.1625 16.2503 41.675 16.2503 41.1666C16.2503 40.6583 16.0484 40.1708 15.6889 39.8113C15.3295 39.4519 14.842 39.25 14.3337 39.25ZM41.167 27.75C40.6587 27.75 40.1711 27.9519 39.8117 28.3113C39.4523 28.6708 39.2503 29.1583 39.2503 29.6666V37.3333C39.2503 37.8416 39.0484 38.3291 38.6889 38.6886C38.3295 39.048 37.842 39.25 37.3337 39.25H29.667C29.1587 39.25 28.6711 39.4519 28.3117 39.8113C27.9523 40.1708 27.7503 40.6583 27.7503 41.1666C27.7503 41.675 27.9523 42.1625 28.3117 42.5219C28.6711 42.8814 29.1587 43.0833 29.667 43.0833H37.3337C38.8587 43.0833 40.3212 42.4775 41.3995 41.3992C42.4779 40.3208 43.0837 38.8583 43.0837 37.3333V29.6666C43.0837 29.1583 42.8817 28.6708 42.5223 28.3113C42.1628 27.9519 41.6753 27.75 41.167 27.75ZM37.3337 0.916626H29.667C29.1587 0.916626 28.6711 1.11856 28.3117 1.478C27.9523 1.83745 27.7503 2.32496 27.7503 2.83329C27.7503 3.34162 27.9523 3.82914 28.3117 4.18858C28.6711 4.54803 29.1587 4.74996 29.667 4.74996H37.3337C37.842 4.74996 38.3295 4.95189 38.6889 5.31134C39.0484 5.67078 39.2503 6.15829 39.2503 6.66663V14.3333C39.2503 14.8416 39.4523 15.3291 39.8117 15.6886C40.1711 16.048 40.6587 16.25 41.167 16.25C41.6753 16.25 42.1628 16.048 42.5223 15.6886C42.8817 15.3291 43.0837 14.8416 43.0837 14.3333V6.66663C43.0837 5.14163 42.4779 3.6791 41.3995 2.60076C40.3212 1.52243 38.8587 0.916626 37.3337 0.916626ZM2.83366 16.25C3.34199 16.25 3.8295 16.048 4.18895 15.6886C4.54839 15.3291 4.75033 14.8416 4.75033 14.3333V6.66663C4.75033 6.15829 4.95226 5.67078 5.3117 5.31134C5.67115 4.95189 6.15866 4.74996 6.66699 4.74996H14.3337C14.842 4.74996 15.3295 4.54803 15.6889 4.18858C16.0484 3.82914 16.2503 3.34162 16.2503 2.83329C16.2503 2.32496 16.0484 1.83745 15.6889 1.478C15.3295 1.11856 14.842 0.916626 14.3337 0.916626H6.66699C5.142 0.916626 3.67946 1.52243 2.60113 2.60076C1.52279 3.6791 0.916992 5.14163 0.916992 6.66663V14.3333C0.916992 14.8416 1.11893 15.3291 1.47837 15.6886C1.83782 16.048 2.32533 16.25 2.83366 16.25ZM18.167 8.58329H10.5003C9.99199 8.58329 9.50448 8.78523 9.14504 9.14467C8.78559 9.50412 8.58366 9.99163 8.58366 10.5V18.1666C8.58366 18.675 8.78559 19.1625 9.14504 19.5219C9.50448 19.8814 9.99199 20.0833 10.5003 20.0833H18.167C18.6753 20.0833 19.1628 19.8814 19.5223 19.5219C19.8817 19.1625 20.0837 18.675 20.0837 18.1666V10.5C20.0837 9.99163 19.8817 9.50412 19.5223 9.14467C19.1628 8.78523 18.6753 8.58329 18.167 8.58329ZM16.2503 16.25H12.417V12.4166H16.2503V16.25ZM25.8337 20.0833H33.5003C34.0087 20.0833 34.4962 19.8814 34.8556 19.5219C35.2151 19.1625 35.417 18.675 35.417 18.1666V10.5C35.417 9.99163 35.2151 9.50412 34.8556 9.14467C34.4962 8.78523 34.0087 8.58329 33.5003 8.58329H25.8337C25.3253 8.58329 24.8378 8.78523 24.4784 9.14467C24.1189 9.50412 23.917 9.99163 23.917 10.5V18.1666C23.917 18.675 24.1189 19.1625 24.4784 19.5219C24.8378 19.8814 25.3253 20.0833 25.8337 20.0833ZM27.7503 12.4166H31.5837V16.25H27.7503V12.4166ZM18.167 23.9166H10.5003C9.99199 23.9166 9.50448 24.1186 9.14504 24.478C8.78559 24.8374 8.58366 25.325 8.58366 25.8333V33.5C8.58366 34.0083 8.78559 34.4958 9.14504 34.8552C9.50448 35.2147 9.99199 35.4166 10.5003 35.4166H18.167C18.6753 35.4166 19.1628 35.2147 19.5223 34.8552C19.8817 34.4958 20.0837 34.0083 20.0837 33.5V25.8333C20.0837 25.325 19.8817 24.8374 19.5223 24.478C19.1628 24.1186 18.6753 23.9166 18.167 23.9166ZM16.2503 31.5833H12.417V27.75H16.2503V31.5833ZM25.8337 29.6666C26.342 29.6666 26.8295 29.4647 27.1889 29.1052C27.5484 28.7458 27.7503 28.2583 27.7503 27.75C28.2587 27.75 28.7462 27.548 29.1056 27.1886C29.4651 26.8291 29.667 26.3416 29.667 25.8333C29.667 25.325 29.4651 24.8374 29.1056 24.478C28.7462 24.1186 28.2587 23.9166 27.7503 23.9166H25.8337C25.3253 23.9166 24.8378 24.1186 24.4784 24.478C24.1189 24.8374 23.917 25.325 23.917 25.8333V27.75C23.917 28.2583 24.1189 28.7458 24.4784 29.1052C24.8378 29.4647 25.3253 29.6666 25.8337 29.6666ZM33.5003 23.9166C32.992 23.9166 32.5045 24.1186 32.145 24.478C31.7856 24.8374 31.5837 25.325 31.5837 25.8333V31.5833C31.0753 31.5833 30.5878 31.7852 30.2284 32.1447C29.8689 32.5041 29.667 32.9916 29.667 33.5C29.667 34.0083 29.8689 34.4958 30.2284 34.8552C30.5878 35.2147 31.0753 35.4166 31.5837 35.4166H33.5003C34.0087 35.4166 34.4962 35.2147 34.8556 34.8552C35.2151 34.4958 35.417 34.0083 35.417 33.5V25.8333C35.417 25.325 35.2151 24.8374 34.8556 24.478C34.4962 24.1186 34.0087 23.9166 33.5003 23.9166ZM25.8337 31.5833C25.4546 31.5833 25.084 31.6957 24.7688 31.9063C24.4536 32.1169 24.208 32.4163 24.0629 32.7665C23.9178 33.1167 23.8799 33.5021 23.9538 33.8739C24.0278 34.2457 24.2103 34.5872 24.4784 34.8552C24.7464 35.1233 25.0879 35.3058 25.4597 35.3798C25.8315 35.4538 26.2169 35.4158 26.5671 35.2707C26.9174 35.1257 27.2167 34.88 27.4273 34.5648C27.6379 34.2496 27.7503 33.879 27.7503 33.5C27.7503 32.9916 27.5484 32.5041 27.1889 32.1447C26.8295 31.7852 26.342 31.5833 25.8337 31.5833Z" fill="#3F3F40"/>
</svg>
