<svg width="140" height="41" viewBox="0 0 140 41" fill="none" xmlns="http://www.w3.org/2000/svg">
<path fill-rule="evenodd" clip-rule="evenodd" d="M117.023 11.2856C120.856 3.659 122.628 0.507747 123.232 0.251232C124.381 -0.237821 127.532 0.0301115 128.331 0.684339C129.214 1.40897 139.161 21.5515 139.165 22.6251C139.168 23.424 139.005 23.4814 136.731 23.4814C135.241 23.4814 134.146 23.2969 133.912 23.0057C133.702 22.7442 131.867 19.2333 129.835 15.2037C127.172 9.92344 125.955 7.87741 125.478 7.87741C125 7.87741 123.819 9.88386 121.214 15.1215C119.233 19.1058 117.321 22.6285 116.964 22.9494C116.206 23.6333 113.292 23.9324 112.327 23.4255C111.96 23.2321 111.659 22.8238 111.659 22.5174C111.659 22.2114 114.072 17.1569 117.023 11.2856ZM27.3146 4.75242C26.8144 4.34025 26.6658 1.91363 27.0758 0.849513C27.2897 0.294999 28.3137 0.240956 36.7233 0.342572C45.8867 0.452942 46.1805 0.480725 47.9961 1.40441C50.0223 2.43503 52.0385 4.5294 53.3116 6.92595C54.5113 9.18396 54.4793 14.1788 53.2478 16.9076C52.2063 19.2147 49.6601 21.7098 47.2748 22.761C45.7545 23.4308 44.7966 23.486 36.3183 23.3931L27.028 23.2911V15.8697V8.44829H29.3205H31.613L31.804 12.8638C31.9312 15.8031 32.1704 17.4891 32.5193 17.9066C32.9602 18.4337 33.8745 18.5323 38.2505 18.5254C44.3721 18.5156 46.0479 17.9945 47.6118 15.6143C49.4591 12.8022 49.3873 10.3017 47.3936 8.0403C45.1894 5.53947 44.7118 5.4253 35.8158 5.27839C31.0593 5.19999 27.5977 4.98572 27.3146 4.75242ZM56.7156 4.75661C56.2338 4.27669 56.0741 0.955316 56.5119 0.519545C56.6518 0.37987 60.8214 0.267216 65.7773 0.2695C74.4245 0.272925 74.8651 0.309081 76.6983 1.16464C79.1455 2.3064 81.48 4.58192 82.6419 6.9583C84.0182 9.77197 83.9628 14.1331 82.5135 17.0727C81.3077 19.5184 79.0668 21.7159 76.7269 22.7469C75.3373 23.3593 73.9725 23.4556 66.0383 23.5024C60.9303 23.5321 56.7885 23.4019 56.5914 23.2055C56.3942 23.0091 56.2857 19.6855 56.3438 15.6516L56.4481 8.44829L57.9401 8.3265C61.1179 8.06771 61.1423 8.10158 61.2868 12.9571C61.3769 15.9877 61.5783 17.4731 61.9615 17.9321C62.4418 18.5072 63.1853 18.5719 68.1046 18.4649C73.4265 18.3496 73.7765 18.2937 75.238 17.3293C77.3551 15.9321 78.5789 13.3206 78.2236 10.9594C77.8969 8.78815 75.5494 6.27324 73.2584 5.63995C72.3873 5.39904 68.6047 5.21674 64.4527 5.21559C59.3034 5.21407 57.0399 5.07972 56.7156 4.75661ZM85.2951 2.7395C85.2951 1.88128 85.5014 0.973584 85.7536 0.722397C86.0848 0.392429 88.7112 0.267978 95.21 0.274067C105.323 0.283582 105.92 0.408414 108.971 3.1532C112.315 6.16325 113.694 11.4831 112.252 15.8092C111.397 18.3721 108.751 21.2638 106.059 22.5756C103.934 23.6112 103.933 23.6112 94.9754 23.6295C87.4985 23.6447 85.958 23.5553 85.6615 23.0891C85.1128 22.2244 85.1953 9.27074 85.7536 8.7147C86.0057 8.46352 87.0312 8.258 88.0327 8.258C90.4203 8.258 90.6442 8.72193 90.6442 13.6753C90.6442 16.2362 90.805 17.7806 91.1027 18.0771C91.4133 18.3865 93.2026 18.5338 96.655 18.5338C103.328 18.5338 105.089 17.8545 106.732 14.648C108.572 11.0564 106.471 6.79426 102.291 5.63843C101.426 5.39904 97.6293 5.21674 93.4907 5.21559C88.3414 5.21407 86.0779 5.07972 85.7536 4.75661C85.5014 4.50542 85.2951 3.59772 85.2951 2.7395Z" fill="#0071EE"/>
<path d="M1.20713 1.29746C0.79601 2.37452 1.01609 3.9178 1.69733 4.73529C1.99268 5.09 4.08571 5.21331 9.80811 5.21331C15.9271 5.21331 17.6743 5.32673 18.2627 5.76173C18.8523 6.19789 18.9188 6.44983 18.586 6.99027C17.9582 8.01062 16.8643 8.17846 10.5795 8.21994C6.66245 8.24582 4.6829 8.40376 4.37074 8.7147C3.76667 9.31641 3.78043 12.2427 4.38984 12.7443C4.65921 12.9662 7.57065 13.1938 11.0682 13.2665C17.1922 13.3944 17.2816 13.4085 18.2826 14.4064C19.0624 15.1835 19.2393 15.6433 19.0494 16.3976C18.5864 18.2343 17.2541 18.5338 9.54447 18.5338C1.58195 18.5338 1.08486 18.6769 1.08486 20.9684C1.08486 23.4118 1.26062 23.4594 10.4194 23.4963C19.205 23.5317 20.1533 23.3806 22.0136 21.6493C24.371 19.4564 25.034 16.5076 23.971 12.9426C23.4613 11.2327 23.4613 10.8399 23.971 9.40052C24.2866 8.51033 24.5445 7.23993 24.5445 6.57809C24.5445 4.84833 23.0376 2.12524 21.5268 1.12506C20.2683 0.291954 19.9454 0.265694 10.9146 0.265694H1.60067L1.20713 1.29746Z" fill="#0071EE"/>
<path d="M1.04558 31.671C1.18058 31.761 1.38758 31.752 1.49558 31.77C1.78358 31.824 1.93658 31.77 2.06258 31.716C2.29658 31.608 2.33258 31.266 2.51258 31.077C2.63858 30.951 2.99858 30.699 3.19658 30.735C3.34958 30.762 3.63758 30.879 3.74558 31.068C4.16858 31.752 3.73658 31.887 3.02558 32.22C2.84558 32.301 2.79158 32.499 2.76458 32.688C2.71958 32.994 2.84558 33.048 2.85458 33.057C2.91758 33.129 3.03458 33.066 3.62858 33.372C3.84458 33.48 4.14158 33.84 4.06958 34.173C3.86258 35.127 2.53958 35.298 2.15258 34.146C2.07158 33.903 2.10758 33.741 1.76558 33.687C1.47758 33.642 1.26158 33.615 1.04558 33.687C0.676579 33.813 0.793579 34.128 0.811579 34.425C0.829579 34.677 1.08158 35.082 1.14458 35.172C1.24358 35.298 1.34258 35.352 1.52258 35.505C1.61258 35.586 1.70258 35.694 1.80158 35.766C1.90958 35.829 1.99958 35.838 2.05358 35.865C2.80058 36.18 2.86358 36.027 3.07958 36.072C3.12458 36.063 3.27758 36.099 3.50258 36.108C3.67358 36.117 4.00658 35.991 4.15958 35.937C4.51958 35.802 4.42958 35.874 4.69958 35.64C4.83458 35.514 5.04158 35.442 5.16758 35.1C5.59958 33.966 5.50958 34.182 5.52758 33.912C5.53658 33.741 5.40158 33.345 5.34758 33.219C5.28458 33.084 4.96958 32.643 4.92458 32.535C4.81658 32.301 5.01458 32.076 5.16758 31.887C5.36558 31.644 5.32958 31.536 5.34758 31.464C5.35658 31.401 5.28458 30.87 5.23958 30.699C5.09558 30.204 4.62758 29.925 4.14158 29.718C3.84458 29.592 3.78158 29.628 3.25958 29.538C3.21458 29.538 3.19658 29.511 3.00758 29.565C2.55758 29.691 2.38658 29.52 1.78358 29.943C1.34258 30.24 1.29758 30.33 1.13558 30.573C0.973579 30.834 0.784579 31.482 1.04558 31.671ZM6.60491 32.319C6.63191 32.517 6.58691 32.949 6.57791 32.967C6.56891 33.021 6.65891 33.507 6.57791 33.912C6.55991 34.002 6.64991 34.254 6.67691 34.353C6.73091 34.506 6.52391 34.848 6.60491 35.352C6.62291 35.424 6.61391 35.685 6.64091 35.766C6.71291 35.937 6.77591 35.946 7.09091 36.018C7.44191 36.108 7.67591 36.054 7.72991 36.072C7.91891 36.126 8.39591 35.991 8.61191 36.072C8.62991 36.081 8.61191 36.072 8.71991 36.09C8.88191 36.117 9.10691 36.045 9.19691 36.054C9.32291 36.063 9.49391 36.063 9.51191 36.072C9.59291 36.054 9.66491 36.072 9.78191 36.027C9.95291 35.964 9.94391 35.964 9.97091 35.955C10.3219 35.865 10.3669 35.865 10.4929 35.82C11.1589 35.568 11.2939 35.388 11.4199 35.307C11.5549 35.217 11.7349 34.911 11.7619 34.866C11.9689 34.542 12.0409 34.713 12.2029 34.056C12.3109 33.606 12.5089 33.489 12.3109 33.003C12.2839 32.922 12.3379 32.814 12.3649 32.733C12.4999 32.346 12.3199 32.031 12.3109 31.923C12.3109 31.824 12.2389 31.464 12.1219 31.293C12.0229 31.131 11.8249 30.789 11.7799 30.726C11.3209 30.123 11.0509 30.096 10.7359 29.916C10.6369 29.862 10.4119 29.718 10.3309 29.691C10.1509 29.628 10.0789 29.664 9.84491 29.637C8.91791 29.502 9.20591 29.52 8.81891 29.52C8.77391 29.52 8.73791 29.502 8.62991 29.502C8.45891 29.502 8.47691 29.493 8.21591 29.475C8.20691 29.475 7.68491 29.511 7.55891 29.475C7.36091 29.412 7.12691 29.529 6.95591 29.583C6.40691 29.745 6.65891 30.249 6.60491 31.257C6.58691 31.707 6.55991 32.049 6.60491 32.319ZM8.77391 34.596C8.68391 34.596 8.51291 34.641 8.36891 34.524C8.04491 34.281 8.23391 33.678 8.19791 33.336C8.19791 33.309 8.12591 32.823 8.17091 32.67C8.18891 32.454 8.13491 31.59 8.18891 31.347C8.25191 30.996 8.49491 30.996 8.85491 31.014C9.00791 31.014 9.51191 30.924 10.1509 31.275C10.9249 31.689 10.8259 32.643 10.8529 32.679C10.8529 32.688 10.8529 32.688 10.8529 32.697C10.8439 32.697 10.8619 32.877 10.8529 33.138C10.8439 33.471 10.3849 34.191 10.1509 34.326C9.85391 34.488 9.63791 34.614 8.77391 34.596ZM15.9449 32.319C15.9719 32.517 15.9269 32.949 15.9179 32.967C15.9089 33.021 15.9989 33.507 15.9179 33.912C15.8999 34.002 15.9899 34.254 16.0169 34.353C16.0709 34.506 15.8639 34.848 15.9449 35.352C15.9629 35.424 15.9539 35.685 15.9809 35.766C16.0529 35.937 16.1159 35.946 16.4309 36.018C16.7819 36.108 17.0159 36.054 17.0699 36.072C17.2589 36.126 17.7359 35.991 17.9519 36.072C17.9699 36.081 17.9519 36.072 18.0599 36.09C18.2219 36.117 18.4469 36.045 18.5369 36.054C18.6629 36.063 18.8339 36.063 18.8519 36.072C18.9329 36.054 19.0049 36.072 19.1219 36.027C19.2929 35.964 19.2839 35.964 19.3109 35.955C19.6619 35.865 19.7069 35.865 19.8329 35.82C20.4989 35.568 20.6339 35.388 20.7599 35.307C20.8949 35.217 21.0749 34.911 21.1019 34.866C21.3089 34.542 21.3809 34.713 21.5429 34.056C21.6509 33.606 21.8489 33.489 21.6509 33.003C21.6239 32.922 21.6779 32.814 21.7049 32.733C21.8399 32.346 21.6599 32.031 21.6509 31.923C21.6509 31.824 21.5789 31.464 21.4619 31.293C21.3629 31.131 21.1649 30.789 21.1199 30.726C20.6609 30.123 20.3909 30.096 20.0759 29.916C19.9769 29.862 19.7519 29.718 19.6709 29.691C19.4909 29.628 19.4189 29.664 19.1849 29.637C18.2579 29.502 18.5459 29.52 18.1589 29.52C18.1139 29.52 18.0779 29.502 17.9699 29.502C17.7989 29.502 17.8169 29.493 17.5559 29.475C17.5469 29.475 17.0249 29.511 16.8989 29.475C16.7009 29.412 16.4669 29.529 16.2959 29.583C15.7469 29.745 15.9989 30.249 15.9449 31.257C15.9269 31.707 15.8999 32.049 15.9449 32.319ZM18.1139 34.596C18.0239 34.596 17.8529 34.641 17.7089 34.524C17.3849 34.281 17.5739 33.678 17.5379 33.336C17.5379 33.309 17.4659 32.823 17.5109 32.67C17.5289 32.454 17.4749 31.59 17.5289 31.347C17.5919 30.996 17.8349 30.996 18.1949 31.014C18.3479 31.014 18.8519 30.924 19.4909 31.275C20.2649 31.689 20.1659 32.643 20.1929 32.679C20.1929 32.688 20.1929 32.688 20.1929 32.697C20.1839 32.697 20.2019 32.877 20.1929 33.138C20.1839 33.471 19.7249 34.191 19.4909 34.326C19.1939 34.488 18.9779 34.614 18.1139 34.596ZM27.2378 33.084C27.3368 32.976 27.4088 32.67 27.4178 32.508C27.4178 31.95 26.8778 32.166 26.5538 32.094C26.2208 32.022 26.0318 32.193 25.7978 32.148C25.5998 32.112 25.0868 32.328 24.5918 32.121C24.3668 32.022 24.2588 31.896 24.2498 31.599C24.2408 31.248 24.3038 31.05 24.6458 30.933C24.7178 30.906 24.8708 30.888 24.9788 30.915C24.9878 30.915 25.2128 30.942 25.2308 30.942C25.5278 31.014 25.6628 30.996 25.7798 30.969C25.8338 30.96 26.1578 30.87 26.2298 30.888C26.3018 30.87 26.4728 30.897 26.5538 30.915C26.7698 30.951 26.6888 30.924 27.0308 30.924C27.3098 30.924 27.5528 30.969 27.6428 30.717C27.7058 30.528 27.7148 30.411 27.7058 30.213C27.6878 29.979 27.6608 29.781 27.4898 29.646C27.2828 29.475 26.2028 29.556 25.9778 29.583C25.9688 29.592 25.6448 29.556 25.2938 29.556C25.1318 29.547 24.3128 29.574 24.2948 29.583C24.2768 29.574 23.8628 29.556 23.8448 29.556C23.8358 29.556 23.8268 29.556 23.8088 29.556C23.7188 29.556 23.5028 29.574 23.5028 29.574C23.2148 29.565 22.9808 29.529 22.8278 29.772C22.7018 29.979 22.8098 30.123 22.7738 30.582C22.7108 31.356 22.7378 31.581 22.7288 31.608C22.7288 31.626 22.6928 31.95 22.6928 32.049C22.6928 32.058 22.7288 32.76 22.7288 32.76C22.7288 32.778 22.7018 33.516 22.7018 33.534C22.7018 33.615 22.7378 33.804 22.7558 33.876C22.7828 33.975 22.7468 34.155 22.7378 34.263C22.7108 34.461 22.7198 34.497 22.7198 34.515C22.7108 34.533 22.6298 35.028 22.6748 35.19C22.7108 35.334 22.7288 35.658 22.8098 35.838C22.8188 35.856 22.8368 35.865 22.8458 35.883C22.8728 35.901 22.8908 35.928 22.9268 35.928C22.9448 35.937 23.1248 35.991 23.2688 36.054C23.6288 36.198 23.7548 36.081 24.2498 36.081C24.8618 36.09 24.6998 35.946 25.3028 36.09C25.4738 36.126 25.9058 36.09 26.1938 36.099C26.2838 36.099 26.3828 36.108 26.4818 36.081C26.4998 36.09 26.6618 36.063 26.6978 36.063C26.8058 36.054 27.3188 36.135 27.4988 36.036C27.6158 35.973 27.6338 35.892 27.6608 35.829C27.6698 35.793 27.6788 35.757 27.6788 35.721C27.6878 35.694 27.6968 35.667 27.6968 35.64C27.6968 35.631 27.7148 35.487 27.7148 35.487C27.7148 35.46 27.7058 35.433 27.7238 35.415C27.6968 35.334 27.7238 35.037 27.6248 34.857C27.4988 34.659 27.2378 34.65 27.0038 34.632C26.9048 34.632 26.5538 34.641 26.4818 34.659C26.3198 34.686 26.1218 34.65 26.0048 34.65C25.0148 34.605 24.5558 34.785 24.3488 34.479C24.1598 34.209 24.2318 33.363 24.6188 33.372C24.6818 33.372 24.7448 33.363 24.7988 33.381C24.8888 33.399 25.3028 33.282 25.3298 33.291C25.3568 33.3 25.3838 33.3 25.4018 33.3C25.6178 33.354 25.7258 33.345 26.0768 33.336C26.5088 33.318 26.5718 33.462 26.9408 33.309C27.0398 33.264 27.1748 33.219 27.2378 33.084ZM30.4221 32.958C30.7011 32.922 30.8451 33.336 31.0881 33.696C31.2411 33.921 31.4301 34.065 31.5201 34.173C31.8621 34.578 31.7811 34.659 31.9251 34.884C31.9881 34.992 32.0871 35.055 32.1411 35.1C32.2851 35.226 32.3301 35.37 32.4291 35.514C32.6451 35.82 32.5821 35.964 32.9691 36.054C33.0681 36.072 33.5271 36.09 33.6261 36.081C33.6801 36.072 33.8241 36.081 33.9951 35.964C34.4001 35.676 34.2021 35.073 34.2291 34.713C34.2471 34.425 34.2561 32.976 34.2741 32.715C34.2921 32.229 34.1571 32.193 34.2021 31.968C34.2291 31.797 34.3371 31.671 34.3011 31.455C34.2921 31.437 34.3011 31.428 34.2921 31.41C34.0581 30.726 34.2831 30.708 34.2831 30.393C34.2741 29.907 34.2201 29.772 34.2201 29.763C34.2021 29.511 33.8691 29.475 33.6171 29.475C32.8791 29.448 32.8521 29.682 32.7981 30.042C32.7801 30.177 32.7891 30.663 32.7621 30.798C32.7081 31.005 32.7981 31.248 32.7711 31.617C32.7081 32.256 32.8431 32.679 32.5821 32.787C32.4291 32.85 32.2851 32.706 32.1591 32.598C31.9341 32.409 31.9701 32.328 31.7451 31.932C31.7091 31.86 31.4301 31.329 31.1781 31.104C30.8811 30.843 31.0071 30.87 30.8361 30.501C30.7461 30.294 30.5301 30.033 30.3861 29.853C30.2511 29.682 30.1251 29.61 29.9361 29.538C29.8371 29.502 29.5761 29.421 29.3511 29.43C29.1531 29.43 28.8381 29.61 28.7661 29.79C28.7031 29.925 28.7211 30.015 28.7211 30.105C28.7301 30.204 28.7301 30.411 28.7391 30.465C28.7481 30.573 28.6851 30.888 28.7301 31.032C28.7751 31.194 28.7841 31.491 28.7571 31.662C28.6581 32.346 28.7661 32.247 28.7121 32.751C28.6851 33.003 28.7391 33.534 28.7211 33.588C28.7211 33.606 28.6851 34.002 28.6941 34.137C28.6941 34.245 28.7481 34.461 28.7481 34.551C28.7661 34.722 28.6041 35.685 28.9461 35.973C29.0541 36.063 29.5581 36.063 29.6931 36.027C30.4311 35.865 30.0891 35.055 30.1791 34.479C30.2601 33.993 30.0531 33.012 30.4221 32.958ZM36.9462 35.703C36.9462 36.009 37.1172 36.081 37.3512 36.117C37.3602 36.126 37.4952 36.135 37.5132 36.126C37.5222 36.126 37.5312 36.126 37.5402 36.126C37.5672 36.135 37.5942 36.126 37.6212 36.126C37.8372 36.099 38.2962 36.261 38.4582 35.73C38.5572 35.388 38.4222 35.064 38.4942 34.569C38.5212 34.38 38.4942 34.092 38.4762 34.047C38.4582 33.975 38.4672 33.894 38.4762 33.813C38.4942 33.786 38.5482 33.48 38.5392 33.408C38.5302 33.336 38.5482 33.408 38.5122 33.057C38.5032 33.021 38.4852 32.985 38.4942 32.94C38.4672 32.868 38.4402 32.652 38.4672 32.553C38.5302 32.31 38.4762 31.707 38.4762 31.689C38.5212 31.527 38.4942 31.23 38.6022 31.086C38.7282 30.915 38.9442 30.96 39.0432 30.942C39.1062 30.924 39.6552 30.87 39.7902 30.879C40.5192 30.915 40.3392 30.456 40.3212 30.231C40.2852 29.916 40.3572 29.673 40.1322 29.583C39.9972 29.529 39.7092 29.502 39.5832 29.52C39.1062 29.601 39.2952 29.583 38.9442 29.529C38.3502 29.43 38.4042 29.574 37.9992 29.529C37.5312 29.475 37.6752 29.61 37.0812 29.538C36.6222 29.484 36.2532 29.619 36.1002 29.574C35.5602 29.592 35.0292 29.493 35.0202 29.952C35.0112 30.042 35.0292 30.447 35.0292 30.456C35.0472 30.807 35.0832 30.924 35.7222 30.915C35.9562 30.915 36.1272 30.978 36.3342 30.978C37.1892 30.951 36.9282 31.977 36.9552 32.454C37.0002 33.048 36.9282 33.03 36.9732 33.201C37.0092 33.372 37.0812 33.507 37.0002 33.813C36.9552 33.993 36.9642 34.533 36.9552 34.632C36.9012 35.064 36.9552 35.154 36.9552 35.262C36.9462 35.802 36.9462 35.46 36.9462 35.703ZM40.013 35.982C40.148 36.072 40.454 36.045 40.652 36.018C41.039 35.964 41.282 36.108 41.4351 35.712C41.4891 35.55 41.5521 35.46 41.606 35.289C41.66 35.073 41.7591 34.83 41.993 34.695C42.1551 34.605 42.2001 34.623 42.3891 34.641C42.605 34.668 42.776 34.587 42.9741 34.587C43.5411 34.596 43.4061 34.623 43.4241 34.614C43.4421 34.596 43.4691 34.605 43.4781 34.605C43.5321 34.614 43.5951 34.614 43.6491 34.614C43.9461 34.65 44.0721 34.785 44.2791 35.118C44.3961 35.289 44.3961 35.532 44.504 35.712C44.5671 35.82 44.6391 35.829 44.7651 35.883C44.9361 35.946 45.0621 35.991 45.2691 35.991C45.3321 35.991 45.4311 36.018 45.6651 35.964C46.3311 35.82 45.8001 35.217 45.7821 34.902C45.7731 34.668 45.7641 34.542 45.6201 34.317C45.548 34.191 45.5211 34.065 45.4041 33.714C45.3051 33.435 45.0621 33.012 44.9991 32.859C44.9541 32.733 44.9271 32.544 44.918 32.508C44.8551 32.274 44.7471 32.22 44.6121 31.743C44.5401 31.5 44.4771 31.41 44.4141 31.275C44.1531 30.753 44.3061 30.807 44.0001 30.15C43.7391 29.583 43.5411 29.673 43.1991 29.619C43.1811 29.61 43.1631 29.61 43.1451 29.61C43.1001 29.61 43.0731 29.592 43.046 29.592C42.9921 29.601 42.9921 29.583 42.8031 29.574C42.1461 29.565 41.993 30.276 41.93 30.465C41.876 30.591 41.7591 30.825 41.732 30.906C41.651 31.095 41.48 31.653 41.3721 31.833C41.0931 32.301 40.841 33.453 40.58 33.957C40.436 34.227 40.112 35.1 40.076 35.208C40.049 35.325 40.094 35.181 39.95 35.685C39.914 35.802 39.959 35.946 40.013 35.982ZM43.5141 33.399C43.4871 33.435 43.46 33.462 43.4241 33.489C43.1811 33.633 43.1811 33.534 42.794 33.471C42.6771 33.453 42.524 33.462 42.4251 33.309C42.299 33.102 42.4881 32.805 42.5781 32.553C42.65 32.346 42.668 32.22 42.7581 32.094C42.9111 31.887 43.1181 32.031 43.253 32.256C43.397 32.499 43.4241 32.634 43.5051 32.886C43.5771 33.102 43.6041 33.255 43.5141 33.399ZM50.9722 36.045C51.4132 35.946 51.2782 35.334 51.2962 35.316C51.2962 35.316 51.2962 35.307 51.2962 35.298C51.2782 35.199 51.3142 35.055 51.2422 34.911C51.1162 34.695 50.3242 34.866 49.8832 34.785C49.6762 34.749 49.3252 34.812 49.0012 34.785C48.1822 34.731 48.3442 34.272 48.3802 33.462C48.3892 33.399 48.3082 33.084 48.3082 33.021C48.2992 32.958 48.3172 32.751 48.3262 32.742C48.3172 32.724 48.2812 31.914 48.3082 31.824C48.3532 31.644 48.2812 31.275 48.2812 31.266C48.2542 30.942 48.2092 31.032 48.2632 30.717C48.3172 30.447 48.3082 30.438 48.2902 30.222C48.2812 30.033 48.3442 29.736 48.0922 29.619C47.8852 29.511 47.6782 29.547 47.5162 29.547C47.5072 29.547 47.3452 29.556 47.3272 29.556C47.3092 29.547 47.2912 29.556 47.2822 29.556C47.2642 29.556 47.2462 29.547 47.2282 29.556C46.7062 29.52 46.8142 30.159 46.7602 30.663C46.7332 30.951 46.7242 30.942 46.7602 31.302C46.9132 32.967 46.7782 32.436 46.7872 33.165C46.7872 33.183 46.7782 33.183 46.7782 33.192C46.8142 33.381 46.7692 33.876 46.7782 33.993C46.7962 34.137 46.8772 34.614 46.8232 34.74C46.8052 34.767 46.7512 35.082 46.8142 35.46C46.8862 35.865 46.8322 35.955 47.3272 35.991C47.3632 35.991 47.3992 36.009 47.4442 36.009C47.6422 36.063 48.2272 36.072 48.2632 36.063C48.5422 36.027 48.7672 36.045 48.8752 36.045C49.2262 36.126 49.3252 35.973 49.5322 36C49.5772 36.009 49.7932 36.054 49.8652 36.054C49.8742 36.054 49.8832 36.054 49.8922 36.054C49.9462 36.072 50.0002 36.054 50.0632 36.063C50.1082 36.045 50.1532 36.063 50.1982 36.054C50.2162 36.054 50.8732 36.063 50.9722 36.045ZM54.6245 32.319C54.6515 32.517 54.6065 32.949 54.5975 32.967C54.5885 33.021 54.6785 33.507 54.5975 33.912C54.5795 34.002 54.6695 34.254 54.6965 34.353C54.7505 34.506 54.5435 34.848 54.6245 35.352C54.6425 35.424 54.6335 35.685 54.6605 35.766C54.7325 35.937 54.7955 35.946 55.1105 36.018C55.4615 36.108 55.6955 36.054 55.7495 36.072C55.9385 36.126 56.4155 35.991 56.6315 36.072C56.6495 36.081 56.6315 36.072 56.7395 36.09C56.9015 36.117 57.1265 36.045 57.2165 36.054C57.3425 36.063 57.5135 36.063 57.5315 36.072C57.6125 36.054 57.6845 36.072 57.8015 36.027C57.9725 35.964 57.9635 35.964 57.9905 35.955C58.3415 35.865 58.3865 35.865 58.5125 35.82C59.1785 35.568 59.3135 35.388 59.4395 35.307C59.5745 35.217 59.7545 34.911 59.7815 34.866C59.9885 34.542 60.0605 34.713 60.2225 34.056C60.3305 33.606 60.5285 33.489 60.3305 33.003C60.3035 32.922 60.3575 32.814 60.3845 32.733C60.5195 32.346 60.3395 32.031 60.3305 31.923C60.3305 31.824 60.2585 31.464 60.1415 31.293C60.0425 31.131 59.8445 30.789 59.7995 30.726C59.3405 30.123 59.0705 30.096 58.7555 29.916C58.6565 29.862 58.4315 29.718 58.3505 29.691C58.1705 29.628 58.0985 29.664 57.8645 29.637C56.9375 29.502 57.2255 29.52 56.8385 29.52C56.7935 29.52 56.7575 29.502 56.6495 29.502C56.4785 29.502 56.4965 29.493 56.2355 29.475C56.2265 29.475 55.7045 29.511 55.5785 29.475C55.3805 29.412 55.1465 29.529 54.9755 29.583C54.4265 29.745 54.6785 30.249 54.6245 31.257C54.6065 31.707 54.5795 32.049 54.6245 32.319ZM56.7935 34.596C56.7035 34.596 56.5325 34.641 56.3885 34.524C56.0645 34.281 56.2535 33.678 56.2175 33.336C56.2175 33.309 56.1455 32.823 56.1905 32.67C56.2085 32.454 56.1545 31.59 56.2085 31.347C56.2715 30.996 56.5145 30.996 56.8745 31.014C57.0275 31.014 57.5315 30.924 58.1705 31.275C58.9445 31.689 58.8455 32.643 58.8725 32.679C58.8725 32.688 58.8725 32.688 58.8725 32.697C58.8635 32.697 58.8815 32.877 58.8725 33.138C58.8635 33.471 58.4045 34.191 58.1705 34.326C57.8735 34.488 57.6575 34.614 56.7935 34.596ZM62.1914 29.565C62.1734 29.574 61.7144 29.673 61.6154 29.727C61.5164 29.79 61.3994 29.943 61.3994 30.141C61.3994 30.942 61.2914 30.465 61.3904 31.527C61.3904 31.563 61.3724 31.599 61.3904 31.626C61.3724 31.671 61.3724 31.887 61.3724 31.923C61.3544 32.031 61.3994 32.247 61.4174 32.391C61.4624 32.679 61.3724 32.76 61.3634 32.949C61.3544 33.156 61.4084 33.417 61.4084 33.57C61.4084 33.804 61.3724 34.002 61.3814 34.038C61.3904 34.047 61.3904 34.065 61.3904 34.083C61.3814 34.119 61.4084 34.146 61.3904 34.182C61.3814 34.191 61.4264 34.164 61.4264 34.803C61.4264 34.848 61.4624 35.055 61.4534 35.091C61.4444 35.127 61.4264 35.478 61.4264 35.496C61.5344 36.153 61.6334 35.973 62.0114 36.018C62.4254 36.072 62.7224 36.09 62.8754 35.739C63.0374 35.352 62.8484 35.01 62.8934 33.633C62.8934 33.552 62.9114 33.543 62.9114 33.435C62.9114 33.363 62.9024 32.319 62.8844 32.283C62.8304 32.076 62.9474 31.599 62.9114 31.293C62.8214 30.564 62.9564 30.6 62.8754 30.222C62.8484 30.105 62.7944 29.871 62.7314 29.772C62.6324 29.61 62.3264 29.538 62.1914 29.565ZM65.5183 32.823C65.5273 32.76 65.5003 32.661 65.6713 31.959C65.7163 31.752 65.7343 31.626 66.2023 31.23C66.5803 30.906 66.7873 30.789 67.4263 30.915C67.6333 30.96 67.9753 31.122 68.1553 31.311C68.3533 31.518 68.2813 31.752 68.5243 31.815C68.7133 31.869 69.2983 31.851 69.4333 31.824C69.7843 31.752 69.8293 31.446 69.6853 31.14C69.3343 30.402 69.3433 30.357 68.6323 29.817C68.0563 29.376 67.9303 29.592 67.6603 29.529C67.5973 29.511 67.5973 29.493 67.3543 29.439C67.0483 29.376 67.0573 29.367 66.8053 29.466C66.4633 29.592 66.2473 29.466 65.8333 29.673C65.2033 29.979 64.8343 30.249 64.4023 30.96C63.9433 31.716 63.7903 32.814 63.8713 33.273C63.8803 33.3 63.8713 33.975 64.0513 34.29C64.2403 34.623 64.2223 34.812 64.4023 34.965C64.7713 35.289 64.4293 35.226 65.1943 35.73C65.3923 35.856 65.4913 35.793 65.5993 35.829C65.6983 35.874 65.7613 35.964 65.9053 36.045C66.5083 36.396 66.4813 36.198 66.7423 36.225C67.0393 36.261 67.2283 36.297 67.4983 36.216C67.5073 36.216 68.2273 35.991 68.4613 35.964C68.7853 35.928 68.9113 36.126 69.2893 36.135C70.1803 36.135 69.8023 35.442 69.8833 34.821C69.9193 34.524 69.9013 34.443 69.8833 34.083C69.8743 33.912 69.8923 33.741 69.8743 33.57C69.8653 33.381 69.8923 33.435 69.8833 33.417C69.8743 33.399 69.8743 33.309 69.8743 33.291C69.8293 33.093 69.9103 32.679 69.6583 32.58C69.4873 32.508 69.1183 32.508 69.1003 32.499C68.9023 32.427 68.2993 32.49 67.8313 32.481C67.3633 32.472 67.1833 32.463 67.1473 32.994C67.1563 33.03 67.1203 33.273 67.2643 33.471C67.3723 33.633 67.5073 33.579 67.7053 33.579C67.9663 33.579 68.2093 33.615 68.3713 33.786C68.3983 33.822 68.4433 33.912 68.4433 33.948C68.4613 34.137 68.3713 34.218 68.2903 34.344C68.1733 34.524 68.0203 34.668 67.8313 34.749C67.3363 34.947 67.2823 34.866 67.0213 34.902C66.9313 34.911 66.7333 34.947 66.7063 34.947C66.6883 34.947 66.6793 34.938 66.6613 34.938C66.6523 34.947 66.6433 34.929 66.6343 34.938C66.6253 34.92 66.5983 34.938 66.5983 34.92C66.5893 34.911 66.5893 34.911 66.5803 34.911C66.5623 34.902 66.5533 34.875 66.5263 34.875C66.4543 34.776 65.3653 34.236 65.5183 32.823ZM71.7599 29.565C71.7419 29.574 71.2829 29.673 71.1839 29.727C71.0849 29.79 70.9679 29.943 70.9679 30.141C70.9679 30.942 70.8599 30.465 70.9589 31.527C70.9589 31.563 70.9409 31.599 70.9589 31.626C70.9409 31.671 70.9409 31.887 70.9409 31.923C70.9229 32.031 70.9679 32.247 70.9859 32.391C71.0309 32.679 70.9409 32.76 70.9319 32.949C70.9229 33.156 70.9769 33.417 70.9769 33.57C70.9769 33.804 70.9409 34.002 70.9499 34.038C70.9589 34.047 70.9589 34.065 70.9589 34.083C70.9499 34.119 70.9769 34.146 70.9589 34.182C70.9499 34.191 70.9949 34.164 70.9949 34.803C70.9949 34.848 71.0309 35.055 71.0219 35.091C71.0129 35.127 70.9949 35.478 70.9949 35.496C71.1029 36.153 71.2019 35.973 71.5799 36.018C71.9939 36.072 72.2909 36.09 72.4439 35.739C72.6059 35.352 72.4169 35.01 72.4619 33.633C72.4619 33.552 72.4799 33.543 72.4799 33.435C72.4799 33.363 72.4709 32.319 72.4529 32.283C72.3989 32.076 72.5159 31.599 72.4799 31.293C72.3899 30.564 72.5249 30.6 72.4439 30.222C72.4169 30.105 72.3629 29.871 72.2999 29.772C72.2009 29.61 71.8949 29.538 71.7599 29.565ZM75.1498 35.703C75.1498 36.009 75.3208 36.081 75.5548 36.117C75.5638 36.126 75.6988 36.135 75.7168 36.126C75.7258 36.126 75.7348 36.126 75.7438 36.126C75.7708 36.135 75.7978 36.126 75.8248 36.126C76.0408 36.099 76.4998 36.261 76.6618 35.73C76.7608 35.388 76.6258 35.064 76.6978 34.569C76.7248 34.38 76.6978 34.092 76.6798 34.047C76.6618 33.975 76.6708 33.894 76.6798 33.813C76.6978 33.786 76.7518 33.48 76.7428 33.408C76.7338 33.336 76.7518 33.408 76.7158 33.057C76.7068 33.021 76.6888 32.985 76.6978 32.94C76.6708 32.868 76.6438 32.652 76.6708 32.553C76.7338 32.31 76.6798 31.707 76.6798 31.689C76.7248 31.527 76.6978 31.23 76.8058 31.086C76.9318 30.915 77.1478 30.96 77.2468 30.942C77.3098 30.924 77.8588 30.87 77.9938 30.879C78.7228 30.915 78.5428 30.456 78.5248 30.231C78.4888 29.916 78.5608 29.673 78.3358 29.583C78.2008 29.529 77.9128 29.502 77.7868 29.52C77.3098 29.601 77.4988 29.583 77.1478 29.529C76.5538 29.43 76.6078 29.574 76.2028 29.529C75.7348 29.475 75.8788 29.61 75.2848 29.538C74.8258 29.484 74.4568 29.619 74.3038 29.574C73.7638 29.592 73.2328 29.493 73.2238 29.952C73.2148 30.042 73.2328 30.447 73.2328 30.456C73.2508 30.807 73.2868 30.924 73.9258 30.915C74.1598 30.915 74.3308 30.978 74.5378 30.978C75.3928 30.951 75.1318 31.977 75.1588 32.454C75.2038 33.048 75.1318 33.03 75.1768 33.201C75.2128 33.372 75.2848 33.507 75.2038 33.813C75.1588 33.993 75.1678 34.533 75.1588 34.632C75.1048 35.064 75.1588 35.154 75.1588 35.262C75.1498 35.802 75.1498 35.46 75.1498 35.703ZM78.2166 35.982C78.3516 36.072 78.6576 36.045 78.8556 36.018C79.2426 35.964 79.4856 36.108 79.6386 35.712C79.6926 35.55 79.7556 35.46 79.8096 35.289C79.8636 35.073 79.9626 34.83 80.1966 34.695C80.3586 34.605 80.4036 34.623 80.5926 34.641C80.8086 34.668 80.9796 34.587 81.1776 34.587C81.7446 34.596 81.6096 34.623 81.6276 34.614C81.6456 34.596 81.6726 34.605 81.6816 34.605C81.7356 34.614 81.7986 34.614 81.8526 34.614C82.1496 34.65 82.2756 34.785 82.4826 35.118C82.5996 35.289 82.5996 35.532 82.7076 35.712C82.7706 35.82 82.8426 35.829 82.9686 35.883C83.1396 35.946 83.2656 35.991 83.4726 35.991C83.5356 35.991 83.6346 36.018 83.8686 35.964C84.5346 35.82 84.0036 35.217 83.9856 34.902C83.9766 34.668 83.9676 34.542 83.8236 34.317C83.7516 34.191 83.7246 34.065 83.6076 33.714C83.5086 33.435 83.2656 33.012 83.2026 32.859C83.1576 32.733 83.1306 32.544 83.1216 32.508C83.0586 32.274 82.9506 32.22 82.8156 31.743C82.7436 31.5 82.6806 31.41 82.6176 31.275C82.3566 30.753 82.5096 30.807 82.2036 30.15C81.9426 29.583 81.7446 29.673 81.4026 29.619C81.3846 29.61 81.3666 29.61 81.3486 29.61C81.3036 29.61 81.2766 29.592 81.2496 29.592C81.1956 29.601 81.1956 29.583 81.0066 29.574C80.3496 29.565 80.1966 30.276 80.1336 30.465C80.0796 30.591 79.9626 30.825 79.9356 30.906C79.8546 31.095 79.6836 31.653 79.5756 31.833C79.2966 32.301 79.0446 33.453 78.7836 33.957C78.6396 34.227 78.3156 35.1 78.2796 35.208C78.2526 35.325 78.2976 35.181 78.1536 35.685C78.1176 35.802 78.1626 35.946 78.2166 35.982ZM81.7176 33.399C81.6906 33.435 81.6636 33.462 81.6276 33.489C81.3846 33.633 81.3846 33.534 80.9976 33.471C80.8806 33.453 80.7276 33.462 80.6286 33.309C80.5026 33.102 80.6916 32.805 80.7816 32.553C80.8536 32.346 80.8716 32.22 80.9616 32.094C81.1146 31.887 81.3216 32.031 81.4566 32.256C81.6006 32.499 81.6276 32.634 81.7086 32.886C81.7806 33.102 81.8076 33.255 81.7176 33.399ZM89.1758 36.045C89.6168 35.946 89.4818 35.334 89.4998 35.316C89.4998 35.316 89.4998 35.307 89.4998 35.298C89.4818 35.199 89.5178 35.055 89.4458 34.911C89.3198 34.695 88.5278 34.866 88.0868 34.785C87.8798 34.749 87.5288 34.812 87.2048 34.785C86.3858 34.731 86.5478 34.272 86.5838 33.462C86.5928 33.399 86.5118 33.084 86.5118 33.021C86.5028 32.958 86.5208 32.751 86.5298 32.742C86.5208 32.724 86.4848 31.914 86.5118 31.824C86.5568 31.644 86.4848 31.275 86.4848 31.266C86.4578 30.942 86.4128 31.032 86.4668 30.717C86.5208 30.447 86.5118 30.438 86.4938 30.222C86.4848 30.033 86.5478 29.736 86.2958 29.619C86.0888 29.511 85.8818 29.547 85.7198 29.547C85.7108 29.547 85.5488 29.556 85.5308 29.556C85.5128 29.547 85.4948 29.556 85.4858 29.556C85.4678 29.556 85.4498 29.547 85.4318 29.556C84.9098 29.52 85.0178 30.159 84.9638 30.663C84.9368 30.951 84.9278 30.942 84.9638 31.302C85.1168 32.967 84.9818 32.436 84.9908 33.165C84.9908 33.183 84.9818 33.183 84.9818 33.192C85.0178 33.381 84.9728 33.876 84.9818 33.993C84.9998 34.137 85.0808 34.614 85.0268 34.74C85.0088 34.767 84.9548 35.082 85.0178 35.46C85.0898 35.865 85.0358 35.955 85.5308 35.991C85.5668 35.991 85.6028 36.009 85.6478 36.009C85.8458 36.063 86.4308 36.072 86.4668 36.063C86.7458 36.027 86.9708 36.045 87.0788 36.045C87.4298 36.126 87.5288 35.973 87.7358 36C87.7808 36.009 87.9968 36.054 88.0688 36.054C88.0778 36.054 88.0868 36.054 88.0958 36.054C88.1498 36.072 88.2038 36.054 88.2668 36.063C88.3118 36.045 88.3568 36.063 88.4018 36.054C88.4198 36.054 89.0768 36.063 89.1758 36.045ZM92.4771 35.982C92.6121 36.072 92.9181 36.045 93.1161 36.018C93.5031 35.964 93.7461 36.108 93.8991 35.712C93.9531 35.55 94.0161 35.46 94.0701 35.289C94.1241 35.073 94.2231 34.83 94.4571 34.695C94.6191 34.605 94.6641 34.623 94.8531 34.641C95.0691 34.668 95.2401 34.587 95.4381 34.587C96.0051 34.596 95.8701 34.623 95.8881 34.614C95.9061 34.596 95.9331 34.605 95.9421 34.605C95.9961 34.614 96.0591 34.614 96.1131 34.614C96.4101 34.65 96.5361 34.785 96.7431 35.118C96.8601 35.289 96.8601 35.532 96.9681 35.712C97.0311 35.82 97.1031 35.829 97.2291 35.883C97.4001 35.946 97.5261 35.991 97.7331 35.991C97.7961 35.991 97.8951 36.018 98.1291 35.964C98.7951 35.82 98.2641 35.217 98.2461 34.902C98.2371 34.668 98.2281 34.542 98.0841 34.317C98.0121 34.191 97.9851 34.065 97.8681 33.714C97.7691 33.435 97.5261 33.012 97.4631 32.859C97.4181 32.733 97.3911 32.544 97.3821 32.508C97.3191 32.274 97.2111 32.22 97.0761 31.743C97.0041 31.5 96.9411 31.41 96.8781 31.275C96.6171 30.753 96.7701 30.807 96.4641 30.15C96.2031 29.583 96.0051 29.673 95.6631 29.619C95.6451 29.61 95.6271 29.61 95.6091 29.61C95.5641 29.61 95.5371 29.592 95.5101 29.592C95.4561 29.601 95.4561 29.583 95.2671 29.574C94.6101 29.565 94.4571 30.276 94.3941 30.465C94.3401 30.591 94.2231 30.825 94.1961 30.906C94.1151 31.095 93.9441 31.653 93.8361 31.833C93.5571 32.301 93.3051 33.453 93.0441 33.957C92.9001 34.227 92.5761 35.1 92.5401 35.208C92.5131 35.325 92.5581 35.181 92.4141 35.685C92.3781 35.802 92.4231 35.946 92.4771 35.982ZM95.9781 33.399C95.9511 33.435 95.9241 33.462 95.8881 33.489C95.6451 33.633 95.6451 33.534 95.2581 33.471C95.1411 33.453 94.9881 33.462 94.8891 33.309C94.7631 33.102 94.9521 32.805 95.0421 32.553C95.1141 32.346 95.1321 32.22 95.2221 32.094C95.3751 31.887 95.5821 32.031 95.7171 32.256C95.8611 32.499 95.8881 32.634 95.9691 32.886C96.0411 33.102 96.0681 33.255 95.9781 33.399ZM102.207 36.234C102.369 36.234 102.855 36.108 102.882 36.108C103.107 36.054 103.305 36.018 103.566 35.838C103.989 35.55 104.511 35.091 104.781 34.533C104.88 34.317 105.006 33.795 104.844 33.642C104.691 33.498 103.998 33.543 103.953 33.516C103.908 33.525 103.683 33.525 103.539 33.66C103.359 33.813 103.386 34.029 103.206 34.272C102.828 34.758 102.612 34.956 102.045 34.875C101.775 34.83 101.298 34.74 101.127 34.524C100.974 34.326 100.695 34.119 100.533 33.516C100.479 33.336 100.416 33.084 100.452 32.769C100.524 32.193 100.416 31.986 100.884 31.446C101.01 31.302 101.19 31.113 101.361 31.023C101.442 30.978 101.676 30.879 101.784 30.879C101.955 30.789 102.369 30.951 102.63 31.041C103.107 31.194 103.287 31.869 103.521 31.941C103.692 32.004 104.448 31.959 104.547 31.932C104.736 31.887 104.871 31.77 104.871 31.572C104.871 31.374 104.592 30.78 104.547 30.708C104.448 30.537 104.322 30.438 104.169 30.285C104.088 30.204 103.953 30.033 103.791 29.916C103.602 29.79 103.008 29.538 102.9 29.511C102.711 29.457 102.648 29.502 102.45 29.484C102.162 29.475 102.144 29.34 101.505 29.547C101.289 29.619 101.208 29.61 101.181 29.61C100.767 29.529 100.434 30.033 100.164 30.123C99.5158 30.321 99.1738 31.626 99.0658 31.815C98.8678 32.184 98.8678 32.688 98.8588 33.03C98.8498 33.183 98.9128 33.336 98.9398 33.507C98.9938 33.759 98.9578 33.642 98.9848 33.777C99.0298 34.137 99.2638 34.56 99.2908 34.623C99.4708 35.037 99.3538 35.037 100.002 35.505C100.335 35.748 100.218 35.757 100.596 35.865C100.803 35.928 100.902 36.045 101.064 36.117C101.127 36.153 101.442 36.207 101.46 36.216C101.685 36.252 101.739 36.243 102.207 36.234ZM105.464 35.982C105.599 36.072 105.905 36.045 106.103 36.018C106.49 35.964 106.733 36.108 106.886 35.712C106.94 35.55 107.003 35.46 107.057 35.289C107.111 35.073 107.21 34.83 107.444 34.695C107.606 34.605 107.651 34.623 107.84 34.641C108.056 34.668 108.227 34.587 108.425 34.587C108.992 34.596 108.857 34.623 108.875 34.614C108.893 34.596 108.92 34.605 108.929 34.605C108.983 34.614 109.046 34.614 109.1 34.614C109.397 34.65 109.523 34.785 109.73 35.118C109.847 35.289 109.847 35.532 109.955 35.712C110.018 35.82 110.09 35.829 110.216 35.883C110.387 35.946 110.513 35.991 110.72 35.991C110.783 35.991 110.882 36.018 111.116 35.964C111.782 35.82 111.251 35.217 111.233 34.902C111.224 34.668 111.215 34.542 111.071 34.317C110.999 34.191 110.972 34.065 110.855 33.714C110.756 33.435 110.513 33.012 110.45 32.859C110.405 32.733 110.378 32.544 110.369 32.508C110.306 32.274 110.198 32.22 110.063 31.743C109.991 31.5 109.928 31.41 109.865 31.275C109.604 30.753 109.757 30.807 109.451 30.15C109.19 29.583 108.992 29.673 108.65 29.619C108.632 29.61 108.614 29.61 108.596 29.61C108.551 29.61 108.524 29.592 108.497 29.592C108.443 29.601 108.443 29.583 108.254 29.574C107.597 29.565 107.444 30.276 107.381 30.465C107.327 30.591 107.21 30.825 107.183 30.906C107.102 31.095 106.931 31.653 106.823 31.833C106.544 32.301 106.292 33.453 106.031 33.957C105.887 34.227 105.563 35.1 105.527 35.208C105.5 35.325 105.545 35.181 105.401 35.685C105.365 35.802 105.41 35.946 105.464 35.982ZM108.965 33.399C108.938 33.435 108.911 33.462 108.875 33.489C108.632 33.633 108.632 33.534 108.245 33.471C108.128 33.453 107.975 33.462 107.876 33.309C107.75 33.102 107.939 32.805 108.029 32.553C108.101 32.346 108.119 32.22 108.209 32.094C108.362 31.887 108.569 32.031 108.704 32.256C108.848 32.499 108.875 32.634 108.956 32.886C109.028 33.102 109.055 33.255 108.965 33.399ZM112.248 32.319C112.275 32.517 112.23 32.949 112.221 32.967C112.212 33.021 112.302 33.507 112.221 33.912C112.203 34.002 112.293 34.254 112.32 34.353C112.374 34.506 112.167 34.848 112.248 35.352C112.266 35.424 112.257 35.685 112.284 35.766C112.356 35.937 112.419 35.946 112.734 36.018C113.085 36.108 113.319 36.054 113.373 36.072C113.562 36.126 114.039 35.991 114.255 36.072C114.273 36.081 114.255 36.072 114.363 36.09C114.525 36.117 114.75 36.045 114.84 36.054C114.966 36.063 115.137 36.063 115.155 36.072C115.236 36.054 115.308 36.072 115.425 36.027C115.596 35.964 115.587 35.964 115.614 35.955C115.965 35.865 116.01 35.865 116.136 35.82C116.802 35.568 116.937 35.388 117.063 35.307C117.198 35.217 117.378 34.911 117.405 34.866C117.612 34.542 117.684 34.713 117.846 34.056C117.954 33.606 118.152 33.489 117.954 33.003C117.927 32.922 117.981 32.814 118.008 32.733C118.143 32.346 117.963 32.031 117.954 31.923C117.954 31.824 117.882 31.464 117.765 31.293C117.666 31.131 117.468 30.789 117.423 30.726C116.964 30.123 116.694 30.096 116.379 29.916C116.28 29.862 116.055 29.718 115.974 29.691C115.794 29.628 115.722 29.664 115.488 29.637C114.561 29.502 114.849 29.52 114.462 29.52C114.417 29.52 114.381 29.502 114.273 29.502C114.102 29.502 114.12 29.493 113.859 29.475C113.85 29.475 113.328 29.511 113.202 29.475C113.004 29.412 112.77 29.529 112.599 29.583C112.05 29.745 112.302 30.249 112.248 31.257C112.23 31.707 112.203 32.049 112.248 32.319ZM114.417 34.596C114.327 34.596 114.156 34.641 114.012 34.524C113.688 34.281 113.877 33.678 113.841 33.336C113.841 33.309 113.769 32.823 113.814 32.67C113.832 32.454 113.778 31.59 113.832 31.347C113.895 30.996 114.138 30.996 114.498 31.014C114.651 31.014 115.155 30.924 115.794 31.275C116.568 31.689 116.469 32.643 116.496 32.679C116.496 32.688 116.496 32.688 116.496 32.697C116.487 32.697 116.505 32.877 116.496 33.138C116.487 33.471 116.028 34.191 115.794 34.326C115.497 34.488 115.281 34.614 114.417 34.596ZM123.541 33.084C123.64 32.976 123.712 32.67 123.721 32.508C123.721 31.95 123.181 32.166 122.857 32.094C122.524 32.022 122.335 32.193 122.101 32.148C121.903 32.112 121.39 32.328 120.895 32.121C120.67 32.022 120.562 31.896 120.553 31.599C120.544 31.248 120.607 31.05 120.949 30.933C121.021 30.906 121.174 30.888 121.282 30.915C121.291 30.915 121.516 30.942 121.534 30.942C121.831 31.014 121.966 30.996 122.083 30.969C122.137 30.96 122.461 30.87 122.533 30.888C122.605 30.87 122.776 30.897 122.857 30.915C123.073 30.951 122.992 30.924 123.334 30.924C123.613 30.924 123.856 30.969 123.946 30.717C124.009 30.528 124.018 30.411 124.009 30.213C123.991 29.979 123.964 29.781 123.793 29.646C123.586 29.475 122.506 29.556 122.281 29.583C122.272 29.592 121.948 29.556 121.597 29.556C121.435 29.547 120.616 29.574 120.598 29.583C120.58 29.574 120.166 29.556 120.148 29.556C120.139 29.556 120.13 29.556 120.112 29.556C120.022 29.556 119.806 29.574 119.806 29.574C119.518 29.565 119.284 29.529 119.131 29.772C119.005 29.979 119.113 30.123 119.077 30.582C119.014 31.356 119.041 31.581 119.032 31.608C119.032 31.626 118.996 31.95 118.996 32.049C118.996 32.058 119.032 32.76 119.032 32.76C119.032 32.778 119.005 33.516 119.005 33.534C119.005 33.615 119.041 33.804 119.059 33.876C119.086 33.975 119.05 34.155 119.041 34.263C119.014 34.461 119.023 34.497 119.023 34.515C119.014 34.533 118.933 35.028 118.978 35.19C119.014 35.334 119.032 35.658 119.113 35.838C119.122 35.856 119.14 35.865 119.149 35.883C119.176 35.901 119.194 35.928 119.23 35.928C119.248 35.937 119.428 35.991 119.572 36.054C119.932 36.198 120.058 36.081 120.553 36.081C121.165 36.09 121.003 35.946 121.606 36.09C121.777 36.126 122.209 36.09 122.497 36.099C122.587 36.099 122.686 36.108 122.785 36.081C122.803 36.09 122.965 36.063 123.001 36.063C123.109 36.054 123.622 36.135 123.802 36.036C123.919 35.973 123.937 35.892 123.964 35.829C123.973 35.793 123.982 35.757 123.982 35.721C123.991 35.694 124 35.667 124 35.64C124 35.631 124.018 35.487 124.018 35.487C124.018 35.46 124.009 35.433 124.027 35.415C124 35.334 124.027 35.037 123.928 34.857C123.802 34.659 123.541 34.65 123.307 34.632C123.208 34.632 122.857 34.641 122.785 34.659C122.623 34.686 122.425 34.65 122.308 34.65C121.318 34.605 120.859 34.785 120.652 34.479C120.463 34.209 120.535 33.363 120.922 33.372C120.985 33.372 121.048 33.363 121.102 33.381C121.192 33.399 121.606 33.282 121.633 33.291C121.66 33.3 121.687 33.3 121.705 33.3C121.921 33.354 122.029 33.345 122.38 33.336C122.812 33.318 122.875 33.462 123.244 33.309C123.343 33.264 123.478 33.219 123.541 33.084ZM126.581 33.426C126.608 33.057 126.878 33.084 127.013 33.318C127.157 33.561 127.274 33.831 127.319 33.975C127.382 34.182 127.499 34.335 127.598 34.506C127.76 34.794 127.76 35.01 128.021 35.28C128.12 35.388 128.192 35.478 128.435 35.487C128.912 35.487 128.939 35.415 129.074 35.244C129.758 34.362 129.515 34.533 129.767 33.921C130.118 33.057 130.415 33.156 130.496 33.534C130.505 33.543 130.523 33.705 130.514 33.75C130.505 33.768 130.514 33.786 130.514 33.813C130.514 33.849 130.487 34.11 130.505 34.182C130.586 34.551 130.514 35.136 130.55 35.397C130.595 35.712 130.559 35.919 130.838 35.973C130.937 35.991 131.234 35.964 131.396 35.982C131.522 36 131.711 36.009 131.828 35.955C131.945 35.901 132.035 35.73 131.999 35.541C131.954 35.334 131.909 35.271 131.945 35.136C132.008 34.848 132.062 34.569 132.044 34.281C132.035 34.182 132.08 33.543 132.08 33.543C132.071 33.525 132.026 33.129 132.026 33.03C132.098 32.085 132.035 32.427 132.035 32.121C132.035 31.608 132.08 31.59 132.053 31.302C131.99 30.744 132.08 30.015 131.945 29.727C131.774 29.367 131.396 29.484 131.153 29.493C130.676 29.493 130.163 29.313 129.785 30.384C129.722 30.555 129.605 30.798 129.578 30.87C129.488 31.095 129.488 31.212 129.371 31.5C129.371 31.518 129.407 31.428 129.236 31.842C129.065 32.274 129.191 32.229 128.948 32.625C128.786 32.904 128.588 33.147 128.327 32.931C128.246 32.877 128.003 32.4 127.994 32.382C127.778 31.941 127.877 31.779 127.625 31.338C127.391 30.915 127.508 30.771 127.094 30.213C127.031 30.123 126.86 29.808 126.68 29.592C126.491 29.34 126.221 29.43 125.906 29.475C125.744 29.493 125.294 29.331 125.114 29.79C124.979 30.132 125.096 30.267 125.024 30.807C125.006 30.933 125.006 31.086 125.015 31.239C125.015 31.257 125.006 31.266 125.015 31.275C125.033 31.383 124.997 31.491 125.015 31.581C124.997 31.608 125.006 31.86 125.015 31.896C125.024 31.95 125.033 32.481 125.024 32.634C124.988 32.787 125.042 33.273 124.997 33.768C124.979 33.957 125.006 34.191 125.024 34.281C125.06 34.452 125.033 34.848 125.051 34.911C125.141 35.559 125.042 35.829 125.393 35.928C125.546 35.973 126.023 36.027 126.167 36C126.455 35.928 126.419 35.82 126.491 35.55C126.563 35.271 126.509 35.217 126.518 34.956C126.518 34.92 126.509 34.884 126.518 34.848V34.839C126.5 34.758 126.518 34.713 126.518 34.686C126.509 34.65 126.509 34.614 126.518 34.578C126.518 34.56 126.518 34.551 126.518 34.533C126.491 34.47 126.572 33.444 126.581 33.426ZM134.86 35.928C134.905 36.099 135.049 36.135 135.229 36.126C135.481 36.099 135.418 36.126 135.445 36.117C135.463 36.108 135.49 36.108 135.517 36.108C135.688 36.108 135.814 36.072 135.868 36.063C136.084 36.027 136.201 36.063 136.246 35.991C136.345 35.937 136.354 35.739 136.354 35.721C136.399 35.523 136.39 35.298 136.354 35.082C136.336 34.965 136.336 34.92 136.381 34.659C136.399 34.479 136.363 34.281 136.363 34.254C136.363 33.48 136.633 33.318 136.777 33.021C137.002 32.571 136.966 32.652 137.101 32.463C137.272 32.22 137.2 32.238 137.452 31.86C137.767 31.383 137.605 31.41 137.911 31.014C138.136 30.735 138.109 30.762 138.217 30.573C138.244 30.519 138.523 29.853 138.532 29.745C138.559 29.466 138.064 29.538 137.974 29.529C137.956 29.52 137.641 29.538 137.623 29.547C137.218 29.583 137.2 29.763 136.957 30.024C136.813 30.168 136.201 31.275 136.192 31.284C136.111 31.473 136.102 31.554 136.03 31.644C135.976 31.716 135.832 31.824 135.697 31.842C135.454 31.878 135.274 31.572 135.112 31.338C134.896 31.023 134.815 30.951 134.662 30.582C134.644 30.528 134.617 30.402 134.446 30.159C134.05 29.628 134.212 29.61 133.537 29.511C133.501 29.511 133.024 29.538 132.889 29.691C132.736 29.862 132.799 29.97 132.88 30.186C133.177 30.987 133.627 31.527 133.744 31.77C133.843 31.968 133.825 32.031 133.996 32.292C134.158 32.526 134.212 32.733 134.374 32.922C134.707 33.318 134.626 33.084 134.806 33.777C134.95 34.308 134.824 34.515 134.842 34.92C134.842 34.956 134.851 34.983 134.842 35.01C134.842 35.037 134.851 35.073 134.851 35.1C134.878 35.559 134.833 35.82 134.86 35.928Z" fill="#0071EE"/>
</svg>
