<svg width="200" height="23" viewBox="0 0 200 23" fill="none" xmlns="http://www.w3.org/2000/svg">
<path d="M20.1083 13.0911C20.1083 16.0392 19.282 18.3457 17.6296 20.0104C15.9771 21.6751 13.6808 22.5082 10.7407 22.5096C7.62741 22.5096 5.15935 21.4908 3.33652 19.4533C1.51369 17.4158 0.606532 14.6505 0.61505 11.1575C0.61505 7.72559 1.52079 5.00868 3.33226 3.00674C5.14374 1.00481 7.60115 0.00313182 10.7045 0.00170898C13.1264 0.00170898 15.1778 0.661196 16.8587 1.98017C18.5198 3.26568 19.627 5.13973 19.9528 7.21764H16.4775C16.1385 5.96166 15.3886 4.85611 14.348 4.07814C13.2863 3.31855 12.0064 2.92667 10.7024 2.96192C8.62401 2.96192 6.99496 3.68402 5.81523 5.1282C4.6355 6.57238 4.04777 8.57502 4.05203 11.1361C4.05203 13.7414 4.65467 15.7966 5.85995 17.302C7.06523 18.8074 8.70209 19.5601 10.7705 19.5601C12.528 19.5601 13.9633 19.0443 15.0763 18.0127C16.1893 16.9812 16.7572 15.6401 16.7799 13.9896V13.6119H11.1623V10.88H20.1061L20.1083 13.0911Z" fill="#FFE400"/>
<path d="M33.5133 17.4834H36.6032C36.4918 18.1997 36.2368 18.8859 35.8536 19.5006C35.4704 20.1154 34.967 20.646 34.3736 21.0605C33.1158 21.9853 31.5876 22.4477 29.7889 22.4477C27.4677 22.4477 25.6428 21.7157 24.314 20.2516C22.9852 18.7875 22.3194 16.7955 22.3165 14.2757C22.3165 11.7814 22.9823 9.77379 24.314 8.25278C25.6456 6.73177 27.4251 5.97197 29.6526 5.97339C31.8417 5.97339 33.5786 6.6905 34.8634 8.12472C36.1482 9.55894 36.787 11.4876 36.7799 13.9107V15.029H25.5895V15.2254C25.5895 16.6127 25.9764 17.7246 26.7501 18.5612C27.5238 19.3979 28.558 19.8155 29.8527 19.8141C30.6792 19.8346 31.4935 19.612 32.1952 19.1738C32.8234 18.7879 33.2915 18.1877 33.5133 17.4834ZM32.3975 9.75316C32.0465 9.37598 31.6189 9.07854 31.1436 8.88084C30.6683 8.68315 30.1562 8.5898 29.6419 8.60706C29.1202 8.59263 28.6013 8.68792 28.1187 8.88679C27.636 9.08566 27.2002 9.3837 26.8395 9.7617C26.078 10.5734 25.6387 11.636 25.6044 12.7497H33.5282C33.4885 11.5189 33.1115 10.5201 32.3975 9.75316Z" fill="#FFE400"/>
<path d="M52.8958 11.7316H49.7932C49.6489 10.8816 49.2155 10.1079 48.5666 9.54182C47.9192 8.97268 47.088 8.68812 46.073 8.68812C45.4843 8.67214 44.9005 8.79976 44.3719 9.06001C43.8433 9.32026 43.3857 9.70533 43.0385 10.1821C42.2804 11.1781 41.9014 12.5191 41.9014 14.2052C41.9014 15.9254 42.2804 17.2771 43.0385 18.2603C43.3943 18.7331 43.8586 19.113 44.392 19.3679C44.9254 19.6227 45.5122 19.745 46.1028 19.7244C47.0966 19.7244 47.9129 19.4654 48.5517 18.9475C49.2083 18.3955 49.6483 17.6278 49.7932 16.7812H52.9256C52.8662 17.5756 52.6469 18.3498 52.2809 19.057C51.9149 19.7642 51.4099 20.3898 50.7962 20.8961C49.5469 21.9376 47.9725 22.4584 46.073 22.4584C43.7944 22.4584 41.9773 21.7206 40.6215 20.2451C39.2658 18.7696 38.5879 16.7599 38.5879 14.2158C38.5879 11.6988 39.2658 9.69833 40.6215 8.21431C41.9773 6.73029 43.7845 5.98828 46.0432 5.98828C48.0108 5.98828 49.6072 6.53963 50.8324 7.64233C52.0265 8.68312 52.7671 10.1508 52.8958 11.7316Z" fill="#FFE400"/>
<path d="M58.6347 13.074L65.0359 6.26786H68.869L62.3038 13.0975L69.1181 22.1382H65.3362L59.9592 15.0952L58.6049 16.4397V22.1446H55.3425V0.364502H58.5964V13.074H58.6347Z" fill="#FFE400"/>
<path d="M82.3103 20.2366C80.9417 21.7106 79.1217 22.4477 76.8503 22.4477C74.5788 22.4477 72.7546 21.7106 71.3775 20.2366C70.0104 18.7639 69.3276 16.7542 69.329 14.2073C69.3304 11.6604 70.0133 9.65493 71.3775 8.19083C72.7432 6.71819 74.5654 5.98116 76.8439 5.97974C79.1224 5.97832 80.9446 6.71535 82.3103 8.19083C83.6774 9.66631 84.3602 11.6718 84.3588 14.2073C84.3574 16.7428 83.6746 18.7526 82.3103 20.2366ZM76.8503 19.7628C77.4422 19.7846 78.0307 19.663 78.5657 19.4081C79.1007 19.1532 79.5663 18.7726 79.9231 18.2987C80.677 17.3212 81.0532 15.9574 81.0517 14.2073C81.0503 12.4572 80.6713 11.0984 79.9146 10.1309C79.5449 9.67348 79.0779 9.30464 78.5477 9.05127C78.0176 8.79791 77.4376 8.66643 76.8503 8.66643C76.2629 8.66643 75.683 8.79791 75.1529 9.05127C74.6227 9.30464 74.1557 9.67348 73.786 10.1309C73.0279 11.1084 72.6488 12.4672 72.6488 14.2073C72.6488 15.9474 73.0279 17.3112 73.786 18.2987C74.1421 18.7712 74.6064 19.151 75.1397 19.4058C75.6731 19.6606 76.2598 19.7831 76.8503 19.7628Z" fill="#FFE400"/>
<path d="M90.6407 13.7698V22.1467H87.2655V0.364502H95.6855C97.9143 0.364502 99.6818 0.965651 100.988 2.16795C102.294 3.37025 102.946 4.98802 102.945 7.02125C102.974 8.40099 102.582 9.75678 101.823 10.9077C101.084 12.014 99.9936 12.8364 98.7285 13.2405L103.592 22.1467H99.708L95.2787 13.7698H90.6407ZM90.6407 3.20307V11.0379H95.3767C96.6799 11.0379 97.6886 10.6957 98.4027 10.0113C99.1168 9.32696 99.4717 8.36085 99.4674 7.11303C99.4674 5.89365 99.0962 4.93751 98.3537 4.24459C97.6112 3.55166 96.5869 3.20449 95.2809 3.20307H90.6407Z" fill="white"/>
<path d="M116.246 17.4834H119.333C119.222 18.2004 118.966 18.8871 118.582 19.502C118.197 20.1169 117.692 20.6471 117.097 21.0605C115.845 21.9853 114.316 22.4477 112.508 22.4477C110.189 22.4477 108.364 21.7157 107.033 20.2516C105.703 18.7875 105.038 16.7955 105.038 14.2757C105.038 11.7814 105.703 9.77379 107.033 8.25278C108.364 6.73177 110.144 5.97197 112.374 5.97339C114.563 5.97339 116.3 6.6905 117.585 8.12472C118.87 9.55894 119.512 11.4876 119.512 13.9107V15.029H108.322V15.2254C108.322 16.6127 108.709 17.7246 109.482 18.5612C110.256 19.3979 111.29 19.8155 112.585 19.8141C113.411 19.8346 114.226 19.612 114.927 19.1738C115.556 18.7888 116.025 18.1882 116.246 17.4834ZM115.132 9.75316C114.781 9.37598 114.353 9.07854 113.878 8.88084C113.403 8.68315 112.891 8.5898 112.376 8.60706C111.855 8.59263 111.336 8.68792 110.853 8.88679C110.37 9.08566 109.935 9.3837 109.574 9.7617C108.812 10.5734 108.373 11.636 108.339 12.7497H116.263C116.221 11.5189 115.844 10.5201 115.13 9.75316H115.132Z" fill="white"/>
<path d="M142.932 6.26782L138.605 22.1467H135.198L131.87 10.2525H131.795L128.496 22.1467H125.147L120.792 6.26782H124.046L126.938 18.766H126.997L130.3 6.26782H133.43L136.744 18.766H136.818L139.71 6.26782H142.932Z" fill="white"/>
<path d="M149.289 22.42C147.727 22.42 146.459 21.9768 145.485 21.0903C144.512 20.2039 144.022 19.0514 144.018 17.6328C144.018 16.2456 144.53 15.1415 145.554 14.3205C146.577 13.4995 148.028 13.0392 149.906 12.9396L154.244 12.6835V11.4606C154.244 10.5756 153.96 9.88335 153.392 9.38394C152.824 8.88452 152.043 8.63553 151.05 8.63695C150.126 8.63695 149.375 8.84326 148.797 9.25589C148.224 9.66021 147.833 10.2731 147.706 10.9633H144.634C144.666 10.2613 144.852 9.57508 145.18 8.95402C145.508 8.33295 145.97 7.79244 146.531 7.37133C147.706 6.44507 149.252 5.98193 151.169 5.98193C153.085 5.98193 154.614 6.45503 155.756 7.40121C156.892 8.34598 157.459 9.61373 157.459 11.2045V22.1489H154.363V19.5366H154.287C153.823 20.4239 153.108 21.1539 152.232 21.6346C151.337 22.1513 150.321 22.4222 149.289 22.42ZM150.194 19.8375C151.253 19.8683 152.284 19.4928 153.077 18.7875C153.449 18.4685 153.747 18.0711 153.949 17.6236C154.15 17.1761 154.251 16.6896 154.244 16.1986V14.9458L150.343 15.1913C149.369 15.261 148.619 15.5 148.092 15.9084C147.838 16.0968 147.633 16.3442 147.496 16.6293C147.358 16.9144 147.292 17.2288 147.302 17.5453C147.291 17.8662 147.358 18.1849 147.495 18.4749C147.632 18.7648 147.837 19.0176 148.092 19.2122C148.619 19.6291 149.319 19.8375 150.194 19.8375Z" fill="white"/>
<path d="M160.63 22.1468V6.26792H163.733V8.96989H163.807C164.025 8.11098 164.517 7.3471 165.209 6.79508C165.899 6.26565 166.75 5.98855 167.619 6.00967C167.993 6.01632 168.366 6.05704 168.733 6.13132V9.16624C168.261 9.01924 167.766 8.95781 167.272 8.98483C166.229 8.98483 165.403 9.31137 164.795 9.96445C164.188 10.6175 163.884 11.5061 163.884 12.6301V22.1404L160.63 22.1468Z" fill="white"/>
<path d="M176.024 22.42C174.014 22.42 172.402 21.6751 171.188 20.1854C169.974 18.6957 169.367 16.7037 169.365 14.2095C169.365 11.7153 169.971 9.72329 171.182 8.23358C172.393 6.74387 173.996 6.00399 175.992 6.01395C177.038 5.99697 178.069 6.2663 178.973 6.79296C179.828 7.29034 180.518 8.02695 180.96 8.91228H181.022V0.375244H184.289V22.1468H181.126V19.4448H181.067C180.613 20.3507 179.91 21.1076 179.042 21.6261C178.128 22.1644 177.084 22.4391 176.024 22.42ZM176.876 8.76074C176.286 8.7397 175.699 8.86251 175.166 9.11863C174.634 9.37475 174.171 9.75654 173.818 10.2312C173.064 11.213 172.687 12.5391 172.687 14.2095C172.687 15.8799 173.064 17.2081 173.818 18.1942C174.182 18.6562 174.646 19.0293 175.175 19.2854C175.704 19.5415 176.284 19.6738 176.871 19.6723C177.458 19.6709 178.038 19.5358 178.565 19.2771C179.093 19.0184 179.555 18.643 179.917 18.1792C180.681 17.1832 181.062 15.8628 181.062 14.218C181.062 12.5732 180.681 11.2514 179.917 10.2526C179.57 9.77488 179.113 9.38911 178.584 9.12876C178.055 8.86841 177.471 8.74135 176.882 8.75861L176.876 8.76074Z" fill="white"/>
<path d="M187.334 10.7647C187.321 10.0927 187.47 9.42751 187.769 8.82582C188.068 8.22413 188.507 7.70385 189.05 7.30938C190.196 6.42295 191.692 5.97974 193.539 5.97974C195.297 5.97974 196.74 6.42509 197.868 7.31578C198.408 7.71945 198.848 8.24145 199.155 8.84185C199.462 9.44224 199.628 10.1051 199.64 10.7797H196.582C196.554 10.4437 196.455 10.1175 196.292 9.82302C196.128 9.52854 195.903 9.27257 195.632 9.07228C195.082 8.65965 194.354 8.45334 193.45 8.45334C192.545 8.45334 191.836 8.64969 191.32 9.0424C191.07 9.20873 190.864 9.4353 190.723 9.70147C190.582 9.96763 190.51 10.2649 190.513 10.5663C190.513 11.5324 191.322 12.2167 192.939 12.6194L195.605 13.2383C197.202 13.6211 198.334 14.1419 199.001 14.8006C199.668 15.4594 200.002 16.3778 200.002 17.556C200.002 19.0044 199.392 20.1818 198.173 21.0882C196.953 21.9945 195.368 22.4477 193.418 22.4477C191.561 22.4477 190.047 22.0045 188.878 21.118C188.315 20.7079 187.848 20.1791 187.511 19.5688C187.174 18.9586 186.975 18.2817 186.927 17.5858H190.151C190.198 17.9368 190.316 18.2743 190.5 18.577C190.683 18.8797 190.927 19.141 191.216 19.3445C191.798 19.7514 192.579 19.9556 193.558 19.957C194.538 19.9584 195.309 19.7692 195.871 19.3893C196.135 19.2312 196.352 19.0064 196.502 18.7374C196.651 18.4685 196.727 18.1648 196.723 17.8569C196.733 17.628 196.692 17.3998 196.603 17.1887C196.514 16.9775 196.38 16.7888 196.209 16.6361C195.869 16.333 195.285 16.0769 194.463 15.8656L191.631 15.1699C188.765 14.4727 187.332 13.0043 187.334 10.7647Z" fill="white"/>
</svg>
